<svg viewBox="0 0 50 49" fill="none" xmlns="http://www.w3.org/2000/svg"><path fill-rule="evenodd" clip-rule="evenodd" d="M0 1a1 1 0 011-1h36.2a1 1 0 011 1v13.2a1 1 0 11-2 0V2H2v44.2h35.1a1 1 0 110 2H1a1 1 0 01-1-1V1z" fill="#fff"/><path fill-rule="evenodd" clip-rule="evenodd" d="M5.8 15.1a1 1 0 011-1h23a1 1 0 110 2h-23a1 1 0 01-1-1zm0-6a1 1 0 011-1h19a1 1 0 110 2h-19a1 1 0 01-1-1zm0 12a1 1 0 011-1h11.5a1 1 0 110 2H6.8a1 1 0 01-1-1zm0 6a1 1 0 011-1h5.3a1 1 0 110 2H6.8a1 1 0 01-1-1zm19 3.8c0-6.752 5.548-12.3 12.3-12.3 6.747 0 12.3 5.442 12.3 12.3 0 6.752-5.548 12.3-12.3 12.3-6.752 0-12.3-5.548-12.3-12.3zm12.3-10.3c-5.648 0-10.3 4.652-10.3 10.3s4.652 10.3 10.3 10.3 10.3-4.652 10.3-10.3c0-5.742-4.646-10.3-10.3-10.3zm.626 3.144l5.508 2.655a1 1 0 01.273.194c.234.233.586.794.371 1.451l-.384 3.269a8.298 8.298 0 01-6.284 7.365 1.003 1.003 0 01-.21.022h-.2a.993.993 0 01-.152-.012c-.854-.13-2.279-.697-3.563-1.841-1.313-1.17-2.498-2.963-2.779-5.534l-.4-3.396a1.014 1.014 0 01-.006-.117c0-.523.267-1.102.853-1.395l.013-.006 5.508-2.655c.24-.164.509-.219.726-.219a1.3 1.3 0 01.726.219zM37 25.614l-5.063 2.44.357 3.038c.22 2.026 1.134 3.382 2.121 4.261.969.864 1.99 1.253 2.47 1.347h.002c1.233-.302 4.195-1.708 4.619-5.608v-.009l.368-3.12L37 25.614zm2.707 3.579a1 1 0 010 1.414l-2.8 2.8a1 1 0 01-1.414 0l-1.3-1.3a1 1 0 011.414-1.414l.593.593 2.093-2.093a1 1 0 011.414 0z" fill="#fff"/></svg>