<svg viewBox="0 0 57 54" fill="none" xmlns="http://www.w3.org/2000/svg"><path fill-rule="evenodd" clip-rule="evenodd" d="M1.5 45.4h53.3v7.9H1.5v-7.9zm2 2v3.9h49.3v-3.9H3.5zM27.638.173a1 1 0 011.124 0l27.2 18.5A1 1 0 0155.4 20.5H1a1 1 0 01-.562-1.827l27.2-18.5zM4.248 18.5h47.904L28.2 2.21 4.248 18.5zM7.8 22H17v21.4H7.8V22zm2 2v17.4H15V24H9.8z" fill="#fff"/><path fill-rule="evenodd" clip-rule="evenodd" d="M5.3 20.2c0-.952.748-1.7 1.7-1.7h11c.547 0 .974.272 1.24.565.254.279.46.684.46 1.135v2c0 .952-.748 1.7-1.7 1.7H7c-.952 0-1.7-.748-1.7-1.7v-2zm2 .3v1.4h10.4v-1.4H7.3zM5.9 43.9c0-1.308 1.004-2.5 2.5-2.5h8.1c1.352 0 2.5 1.148 2.5 2.5v.9c0 1.308-1.004 2.5-2.5 2.5H8.4c-1.308 0-2.5-1.004-2.5-2.5v-.9zm2.136-.36a.517.517 0 00-.136.36v.9c0 .177.064.29.14.364a.52.52 0 00.36.136h8.1c.177 0 .29-.064.364-.14A.518.518 0 0017 44.8v-.9c0-.248-.252-.5-.5-.5H8.4a.478.478 0 00-.364.14zM39.8 22H49v21.4h-9.2V22zm2 2v17.4H47V24h-5.2z" fill="#fff"/><path fill-rule="evenodd" clip-rule="evenodd" d="M37.3 20.2c0-.952.748-1.7 1.7-1.7h11c.547 0 .974.272 1.24.565.254.279.46.684.46 1.135v2c0 .952-.748 1.7-1.7 1.7H39c-.952 0-1.7-.748-1.7-1.7v-2zm2 .3v1.4h10.4v-1.4H39.3zm-1.4 23.4c0-1.308 1.004-2.5 2.5-2.5h8.1c1.352 0 2.5 1.148 2.5 2.5v.9c0 1.308-1.004 2.5-2.5 2.5h-8.1c-1.308 0-2.5-1.004-2.5-2.5v-.9zm2.136-.36a.518.518 0 00-.136.36v.9c0 .177.064.29.14.364a.52.52 0 00.36.136h8.1c.177 0 .29-.064.364-.14A.517.517 0 0049 44.8v-.9c0-.248-.252-.5-.5-.5h-8.1a.478.478 0 00-.364.14z" fill="#fff"/></svg>