<svg width="35" height="31" xmlns="http://www.w3.org/2000/svg"><path fill-rule="evenodd" clip-rule="evenodd" d="M8.103 11.5a2.58 2.58 0 012.6-2.6 2.58 2.58 0 012.6 2.6v7.8a1 1 0 11-2 0v-7.8a.58.58 0 00-.6-.6.58.58 0 00-.6.6v7.8a1 1 0 11-2 0v-7.8z"/><path fill-rule="evenodd" clip-rule="evenodd" d="M4.803 13.2a2.58 2.58 0 012.6-2.6 2.58 2.58 0 012.6 2.6v6.1a1 1 0 11-2 0v-6.1a.58.58 0 00-.6-.6.58.58 0 00-.6.6v7.5a1 1 0 01-1.479.878l-1.109-.605c-.702-.392-1.195-.43-1.491-.374a.842.842 0 00-.595.407c-.243.413-.176 1.052.453 1.416l.428.222 1.093.57c.863.45 1.916 1.002 2.67 1.404a1 1 0 01.447.484c.859 1.975 2.824 3.398 4.983 3.398 2.135 0 4.116-1.203 5.143-2.914a1 1 0 111.715 1.029c-1.374 2.289-3.993 3.885-6.858 3.885-2.913 0-5.454-1.814-6.666-4.274a418.075 418.075 0 00-3.45-1.807l-.444-.23a1.212 1.212 0 01-.032-.018c-1.659-.938-1.99-2.843-1.208-4.176a2.84 2.84 0 011.952-1.362c.756-.142 1.588-.01 2.448.395V13.2zm9.9-3.9c0-1.508 1.25-2.6 2.7-2.6 1.45 0 2.7 1.092 2.7 2.6a1 1 0 11-2 0c0-.291-.238-.6-.7-.6-.462 0-.7.309-.7.6v2.6a1 1 0 11-2 0V9.3z"/><path fill-rule="evenodd" clip-rule="evenodd" d="M18.103 7.5a2.58 2.58 0 012.6-2.6 2.58 2.58 0 012.6 2.6v6.3a1 1 0 11-2 0V7.5a.58.58 0 00-.6-.6.58.58 0 00-.6.6v6.3a1 1 0 11-2 0V7.5z"/><path fill-rule="evenodd" clip-rule="evenodd" d="M21.403 6a2.58 2.58 0 012.6-2.6 2.58 2.58 0 012.6 2.6v7.8a1 1 0 11-2 0V6a.58.58 0 00-.6-.6.58.58 0 00-.6.6v7.8a1 1 0 11-2 0V6z"/><path fill-rule="evenodd" clip-rule="evenodd" d="M24.703 7.8a2.58 2.58 0 012.6-2.6 2.58 2.58 0 012.6 2.6v5.828c.857-.403 1.684-.538 2.437-.395a2.799 2.799 0 011.931 1.371 3.062 3.062 0 01-1.208 4.184l-.444.23-1.09.569c-.752.392-1.643.858-2.353 1.235-1.218 2.57-3.776 4.278-6.673 4.278-4.093 0-7.8-3.29-7.8-7.5v-5.8a1 1 0 112 0v5.8c0 2.99 2.693 5.5 5.8 5.5 2.179 0 4.125-1.34 4.977-3.384a1 1 0 01.453-.498 374.625 374.625 0 013.764-1.974l.418-.217c.581-.357.663-1.005.42-1.43a.8.8 0 00-.569-.399c-.284-.054-.77-.02-1.475.375l-.009.005-1.1.6a1 1 0 01-1.479-.878V7.8a.58.58 0 00-.6-.6.58.58 0 00-.6.6v6.1a1 1 0 11-2 0V7.8zM9.573 2.497a1 1 0 011.333.473l1 2.1a1 1 0 01-1.806.86l-1-2.1a1 1 0 01.473-1.333zM19.28.12a1 1 0 01.402 1.356l-1.3 2.4a1 1 0 11-1.758-.952l1.3-2.4A1 1 0 0119.279.12zM14.203.1a1 1 0 011 1v4.4a1 1 0 11-2 0V1.1a1 1 0 011-1z"/></svg>