<svg viewBox="0 0 30 29" fill="none" xmlns="http://www.w3.org/2000/svg"><path clip-rule="evenodd" d="M8.5 2c-.748 0-1.4.652-1.4 1.4v7.1c0 .748.652 1.4 1.4 1.4h13.3c.748 0 1.4-.652 1.4-1.4V3.4c0-.748-.652-1.4-1.4-1.4H8.5zM5.1 3.4C5.1 1.548 6.648 0 8.5 0h13.3c1.852 0 3.4 1.548 3.4 3.4v7.1c0 1.852-1.548 3.4-3.4 3.4H8.5c-1.852 0-3.4-1.548-3.4-3.4V3.4z"/><path clip-rule="evenodd" d="M10.9 7.7a1.2 1.2 0 100-2.4 1.2 1.2 0 000 2.4zm8.4.1a1.2 1.2 0 100-2.4 1.2 1.2 0 000 2.4zM2 19.793a1.039 1.039 0 00.002.03 4.093 4.093 0 00.172.852c.18.58.549 1.38 1.307 2.193C4.981 24.475 8.172 26.3 15 26.3c6.827 0 10.02-1.825 11.519-3.432.758-.813 1.127-1.612 1.307-2.193a4.2 4.2 0 00.155-.685 2.394 2.394 0 00.018-.168l.001-.03c-.004-.744-.655-1.392-1.4-1.392H3.4c-.745 0-1.396.648-1.4 1.393zm27 .007h1c0-1.852-1.548-3.4-3.4-3.4H3.4c-1.852 0-3.4 1.548-3.4 3.4h1c-1 0-1 0-1 .002v.05l.005.094c.005.077.014.181.031.308.034.255.1.603.228 1.015.257.825.763 1.9 1.755 2.963C4.019 26.375 7.827 28.3 15 28.3s10.98-1.925 12.981-4.068c.992-1.062 1.498-2.138 1.755-2.963.128-.412.194-.76.228-1.015a4.473 4.473 0 00.03-.308 3.105 3.105 0 00.005-.094v-.032l.001-.01v-.007c0-.001 0-.002-1-.002zM3 6.6a1 1 0 011-1h1.3a1 1 0 110 2H4a1 1 0 01-1-1zm20.7 0a1 1 0 011-1H26a1 1 0 110 2h-1.3a1 1 0 01-1-1z"/></svg>