<svg width="24" height="23" fill="none" xmlns="http://www.w3.org/2000/svg"><path d="M13.649 1L2.758 11.72c-2.344 2.307-2.344 6.107 0 8.55 2.343 2.307 6.203 2.307 8.685 0l9.926-9.77c1.654-1.63 1.654-4.343 0-6.107-1.654-1.629-4.412-1.629-6.204 0L5.101 14.299c-.965.95-.965 2.578 0 3.664.965.95 2.62.95 3.723 0l7.858-7.735" fill="#F6F6F9"/><path d="M13.649 1L2.758 11.72c-2.344 2.307-2.344 6.107 0 8.55 2.343 2.307 6.203 2.307 8.685 0l9.926-9.77c1.654-1.63 1.654-4.343 0-6.107-1.654-1.629-4.412-1.629-6.204 0L5.101 14.299c-.965.95-.965 2.578 0 3.664.965.95 2.62.95 3.723 0l7.858-7.735" stroke="#887CBD" stroke-width="2" stroke-miterlimit="10"/></svg>