<svg viewBox="0 0 23 25" fill="none" xmlns="http://www.w3.org/2000/svg"><path fill-rule="evenodd" clip-rule="evenodd" d="M9.1 21.666l-5.2-3 1-1.732 5.2 3-1 1.732zM2 15.1V9.4h2v5.7H2zm2-9.166l5.2-3 1 1.732-5.2 3-1-1.732zm8.893-3.005l5.3 3-.985 1.741-5.3-3 .985-1.74zM20.1 9.3v6h-2v-6h2zm-2.006 9.47l-5.1 2.9-.988-1.738 5.1-2.9.988 1.739zM10.3 13.967l-5.2 3-.999-1.733 5.2-3 1 1.733z" fill="#fff"/><path fill-rule="evenodd" clip-rule="evenodd" d="M12.1 13.9v5.9h-2v-5.9h2z" fill="#fff"/><path fill-rule="evenodd" clip-rule="evenodd" d="M13.104 12.336l4.8 2.8-1.008 1.728-4.8-2.8 1.008-1.728zm-.999-1.805l5.1-2.9.989 1.738-5.1 2.9-.989-1.738zm-2.994 1.741l-5-2.8.977-1.745 5 2.8-.977 1.745zM10.1 10.7V4.6h2v6.1h-2z" fill="#fff"/><path fill-rule="evenodd" clip-rule="evenodd" d="M3 6.7a1 1 0 100 2 1 1 0 000-2zm-3 1a3 3 0 116 0 3 3 0 01-6 0zM11.1 2a1 1 0 100 2 1 1 0 000-2zm-3 1a3 3 0 116 0 3 3 0 01-6 0zm11.1 3.6a1 1 0 100 2 1 1 0 000-2zm-3 1a3 3 0 116 0 3 3 0 01-6 0zm2.7 8.2a1 1 0 100 2 1 1 0 000-2zm-3 1a3 3 0 116 0 3 3 0 01-6 0zm-4.8 3.8a1 1 0 100 2 1 1 0 000-2zm-3 1a3 3 0 116 0 3 3 0 01-6 0zM3 15.8a1 1 0 100 2 1 1 0 000-2zm-3 1a3 3 0 116 0 3 3 0 01-6 0zm11.1-5.5a1 1 0 100 2 1 1 0 000-2zm-3 1a3 3 0 116 0 3 3 0 01-6 0z" fill="#fff"/></svg>