<svg width="118" height="28" fill="none" xmlns="http://www.w3.org/2000/svg"><path d="M53.685 3.702h-3.684V0h3.684v3.702zm0 17.844h-3.684V5.742h3.684v15.804zm21.724 0V.047h3.684v21.499H75.41zM42.49.047h3.348v21.499H42.49v-2.23c-1.292 1.755-3.062 2.61-5.407 2.61-2.153 0-3.923-.76-5.454-2.326-1.532-1.566-2.25-3.512-2.25-5.742 0-2.278.766-4.177 2.25-5.743 1.53-1.566 3.301-2.325 5.454-2.325 2.345 0 4.163.854 5.407 2.563V.047zm-4.882 18.699c1.388 0 2.584-.475 3.494-1.377.909-.949 1.387-2.135 1.387-3.511 0-1.424-.478-2.563-1.387-3.512-.91-.95-2.106-1.424-3.493-1.424-1.388 0-2.584.475-3.493 1.424-.91.902-1.388 2.088-1.388 3.512 0 1.423.478 2.562 1.388 3.511.909.95 2.105 1.377 3.492 1.377zm46.939.854c-1.579-1.566-2.392-3.464-2.392-5.742s.813-4.177 2.392-5.743c1.58-1.566 3.541-2.325 5.79-2.325 2.296 0 4.21.76 5.79 2.325 1.578 1.566 2.392 3.465 2.392 5.743 0 2.278-.814 4.176-2.393 5.742-1.579 1.566-3.493 2.325-5.79 2.325-2.248 0-4.21-.759-5.789-2.325zm5.79-.902c1.34 0 2.488-.474 3.445-1.376.909-.902 1.388-2.088 1.388-3.464 0-1.377-.479-2.563-1.388-3.465-.91-.901-2.058-1.376-3.445-1.376-1.34 0-2.488.475-3.445 1.376-.91.902-1.388 2.088-1.388 3.465 0 1.376.479 2.562 1.388 3.464.957.95 2.105 1.376 3.445 1.376zm23.398-12.956V8.4c-1.292-1.756-3.062-2.658-5.407-2.658-2.201 0-4.019.76-5.55 2.326-1.531 1.518-2.249 3.417-2.249 5.6s.766 4.034 2.249 5.6c1.531 1.518 3.349 2.325 5.55 2.325 2.297 0 4.115-.901 5.407-2.657v1.85c0 2.658-1.722 4.224-4.593 4.224-2.201 0-3.732-.807-4.498-2.373 0-.047-.048-.095-.048-.142h-3.541c.144.76.335 1.424.67 2.04 0 .048.048.048.048.096a.655.655 0 00.144.19c1.387 2.23 3.732 3.179 7.129 3.179 2.201 0 4.163-.38 5.694-1.614 1.531-1.233 2.632-3.274 2.632-5.6V5.742h-3.637zM112.3 17.085c-.909.901-2.106 1.376-3.493 1.376-1.388 0-2.584-.475-3.541-1.376-.909-.902-1.388-2.04-1.388-3.417 0-1.377.479-2.515 1.388-3.417.957-.902 2.153-1.376 3.541-1.376 1.387 0 2.584.474 3.493 1.376.957.902 1.387 2.04 1.435 3.37v.142c-.048 1.329-.478 2.42-1.435 3.322zm-41.054-4.224c.095-5.268-3.015-7.071-7.034-7.071-4.02 0-6.795 2.088-7.034 5.458h3.637c.095-1.994 1.435-2.753 3.253-2.753 1.819 0 3.445.854 3.445 3.702v-.333c-6.076.617-11.196 1.044-11.196 5.126 0 2.99 2.536 4.935 6.172 4.935 2.201 0 4.642-.854 5.455-1.898v1.519h3.254l.048-8.685zm-3.589 2.183c0 2.8-1.627 4.176-4.354 4.176-1.866 0-3.062-.854-3.062-2.325 0-1.898 2.153-1.993 7.416-2.515v.664z" fill="#000"/><path d="M12.201.332C5.455.332 0 5.742 0 12.434c0 6.691 5.455 12.102 12.201 12.102 6.747 0 12.202-5.41 12.202-12.102S18.948.332 12.2.332zm5.024 17.085L12.201 22.4v-2.942a7.138 7.138 0 01-5.024-2.088 7.006 7.006 0 010-9.967c2.775-2.752 7.273-2.752 10.048 0 2.775 2.8 2.775 7.261 0 10.014z" fill="#887CBD"/></svg>