<svg width="139" height="33" fill="none" xmlns="http://www.w3.org/2000/svg"><path d="M63.95 4.363h-4.33V0h4.33v4.363zm0 21.03h-4.33V6.768h4.33v18.625zm25.531.001V.057h4.33v25.337h-4.33zM50.791.057h3.937v25.337H50.79v-2.629c-1.518 2.07-3.599 3.076-6.354 3.076-2.531 0-4.612-.895-6.411-2.74-1.8-1.846-2.643-4.14-2.643-6.768 0-2.685.9-4.922 2.643-6.768 1.8-1.846 3.88-2.74 6.41-2.74 2.756 0 4.893 1.006 6.355 3.02V.057zm-5.736 22.037c1.631 0 3.037-.56 4.105-1.622 1.069-1.119 1.631-2.517 1.631-4.14 0-1.677-.562-3.02-1.63-4.138-1.07-1.119-2.475-1.678-4.106-1.678-1.63 0-3.036.56-4.105 1.678-1.068 1.063-1.63 2.46-1.63 4.139 0 1.678.562 3.02 1.63 4.139 1.069 1.118 2.474 1.622 4.105 1.622zm55.166 1.006c-1.856-1.845-2.812-4.083-2.812-6.767 0-2.685.956-4.922 2.812-6.768 1.856-1.846 4.161-2.74 6.804-2.74 2.7 0 4.949.894 6.805 2.74 1.855 1.846 2.811 4.083 2.811 6.768 0 2.684-.956 4.922-2.811 6.768-1.856 1.845-4.105 2.74-6.805 2.74-2.643 0-4.948-.895-6.804-2.74zm6.804-1.062c1.575 0 2.925-.56 4.049-1.622 1.069-1.063 1.631-2.461 1.631-4.083 0-1.622-.562-3.02-1.631-4.083-1.068-1.063-2.418-1.622-4.049-1.622-1.574 0-2.924.559-4.049 1.622-1.068 1.062-1.63 2.46-1.63 4.083 0 1.622.562 3.02 1.63 4.083 1.125 1.118 2.475 1.622 4.049 1.622zm27.501-15.27V9.9c-1.519-2.07-3.599-3.132-6.355-3.132-2.587 0-4.724.894-6.523 2.74-1.8 1.79-2.643 4.027-2.643 6.6 0 2.573.9 4.755 2.643 6.6 1.799 1.79 3.936 2.74 6.523 2.74 2.699 0 4.836-1.062 6.355-3.131v2.181c0 3.132-2.025 4.978-5.399 4.978-2.587 0-4.386-.95-5.286-2.797 0-.055-.056-.111-.056-.167h-4.162c.169.895.394 1.678.788 2.405 0 .056.056.056.056.112a.754.754 0 00.169.223c1.63 2.63 4.386 3.748 8.379 3.748 2.586 0 4.892-.448 6.692-1.902 1.799-1.454 3.093-3.86 3.093-6.6V6.768h-4.274zm-1.687 13.367c-1.069 1.063-2.475 1.622-4.106 1.622-1.63 0-3.036-.559-4.161-1.622-1.068-1.062-1.631-2.405-1.631-4.027 0-1.622.563-2.964 1.631-4.027 1.125-1.063 2.531-1.622 4.161-1.622 1.631 0 3.037.56 4.106 1.622 1.124 1.063 1.63 2.405 1.687 3.971v.168c-.057 1.566-.563 2.853-1.687 3.915zm-48.251-4.977c.113-6.208-3.543-8.334-8.266-8.334-4.724 0-7.986 2.461-8.267 6.432h4.274c.113-2.349 1.687-3.244 3.824-3.244 2.137 0 4.049 1.007 4.049 4.363v-.392c-7.142.728-13.159 1.231-13.159 6.041 0 3.524 2.98 5.817 7.254 5.817 2.587 0 5.455-1.007 6.411-2.237v1.79h3.824l.056-10.236zm-4.217 2.573c0 3.3-1.912 4.922-5.118 4.922-2.193 0-3.599-1.007-3.599-2.74 0-2.238 2.53-2.35 8.717-2.965v.783z" fill="#fff"/><path d="M15.194.39C7.265.39.854 6.768.854 14.654c0 7.887 6.411 14.263 14.34 14.263 7.93 0 14.34-6.376 14.34-14.263 0-7.886-6.41-14.262-14.34-14.262zM21.1 20.527L15.194 26.4v-3.468a8.377 8.377 0 01-5.904-2.46 8.273 8.273 0 010-11.746c3.261-3.245 8.547-3.245 11.809 0 3.262 3.3 3.262 8.557 0 11.801z" fill="#887CBD"/></svg>