<svg viewBox="0 0 101 71" fill="none" xmlns="http://www.w3.org/2000/svg"><path d="M100.5 0H.5v71h100V0z" fill="#302C33"/><path d="M25.38 46.268c1.667 0 5.953-.355 9.048-2.604v1.776h6.31v-7.692l2.619-2.722L49.19 45.44h7.62L48 30.649l8.571-9.349h-7.857l-7.976 9.112V12.78h-6.31v2.84c-1.904-2.011-5.119-3.668-10-3.668-10.595 0-12.619 6.39-12.619 10.058 0 4.97 2.62 7.692 7.262 8.757l6.548 1.657c3.452.828 5.952 1.538 5.952 4.023 0 3.432-3.571 4.26-6.905 4.26-5.952 0-6.904-3.431-6.904-5.325h-6.31c0 4.023 2.024 10.887 13.929 10.887zm4.405-19.407L21.81 24.85c-1.31-.355-3.452-.828-3.452-3.431 0-2.959 3.095-3.905 5.714-3.905 5.953 0 6.548 3.431 6.667 4.97h3.81v6.035a20.565 20.565 0 00-4.763-1.657zM16.928 60.469c-.595 0-1.19 0-1.547-.119v-1.893c.238.118.476.237.833.237.476 0 .833-.237 1.072-.592v-.118l-4.524-8.402H15.5l2.976 6.035 2.262-6.035h2.619l-3.929 9.112c-.238.473-.476.828-.714 1.065-.238.355-.595.473-.952.71h-.834zm13.215-.119H28v-3.314c-.238.119-.595.237-1.072.474-.476.236-.952.236-1.428.236-.834 0-1.548-.236-2.024-.71-.476-.473-.714-1.183-.714-2.13v-2.721h2.143v2.603c0 .71.476 1.065 1.428 1.065.238 0 .595-.118.953-.237.357-.118.595-.236.714-.355v-3.195h2.143v8.284zm8.929-1.538c0 .473 0 .71.119.947l.357.355v.236h-2.262c-.12-.355-.12-.592-.238-.947-.357.355-.715.592-1.072.829-.357.236-.952.355-1.547.355-.477 0-.834-.119-1.19-.237-.358-.118-.715-.473-.953-.828s-.357-.828-.357-1.302c0-.473.119-.947.357-1.301.238-.355.476-.592.833-.829a2.02 2.02 0 011.19-.355l1.905-.236c.477-.119.715-.237.715-.592s-.12-.592-.357-.71c-.239-.119-.596-.119-.953-.119-.476 0-.833.119-.952.355-.238.237-.238.474-.357.829h-2.024c.119-.828.238-1.42.595-1.775s.714-.71 1.31-.829c.476-.118 1.071-.236 1.666-.236.477 0 .953.118 1.429.236.476.119.952.355 1.31.71.357.355.476.829.476 1.42v4.024zm-2.024-2.367c-.238.237-.715.355-1.429.474-.357 0-.595.118-.714.236-.238.118-.357.237-.476.355-.12.119-.238.355-.238.71s.119.592.357.71.476.237.714.237c.357 0 .595-.119.952-.237.239-.118.477-.355.715-.591.238-.237.238-.474.238-.829v-1.065h-.12zm10.832.946c0 .237-.118.592-.237.947-.12.355-.357.71-.596 1.065-.238.355-.595.592-1.19.828-.476.237-1.071.355-1.786.355-.714 0-1.31-.118-1.785-.355-.477-.236-.834-.591-1.19-.946a4.363 4.363 0 01-.596-1.302c-.12-.473-.12-.947-.12-1.42 0-.947.12-1.657.358-2.367s.714-1.183 1.31-1.538c.595-.355 1.309-.592 2.261-.592.477 0 1.072.119 1.548.237.476.237.952.473 1.31.947.357.473.595 1.065.714 1.893h-2.143c-.119-.828-.595-1.302-1.429-1.302-.357 0-.714.119-.952.355-.238.237-.476.474-.595.829-.12.355-.12.71-.12 1.065 0 .473 0 .828.12 1.183.119.355.238.71.476.947.238.236.595.473 1.071.473.358 0 .596-.118.834-.237.238-.118.357-.355.476-.591.119-.237.119-.355.119-.592h2.143v.118zm3.216 2.959v-6.39h-2.381v-1.657h7.024v1.656h-2.381v6.39h-2.262zm13.094 0h-2.142v-3.196h-2.976v3.195h-2.143v-8.046h2.143v3.195h2.976v-3.195h2.143v8.046zm9.168 0h-2.143v-4.852l-2.857 4.851h-2.262v-8.046h2.143v4.851l2.857-4.851h2.262v8.046zm4.047 0h-2.143v-8.047h2.143v3.076l2.738-3.076h2.619l-2.857 3.076 2.976 4.97h-2.62l-2.023-3.431-.833.946v2.485z" fill="#fff"/></svg>