<svg width="90" height="152" fill="none" xmlns="http://www.w3.org/2000/svg"><g opacity=".8"><mask id="a" maskUnits="userSpaceOnUse" x="-59" y="0" width="150" height="152"><path d="M81.401 151.803h-.05a2.018 2.018 0 01-2.014-2.011c0-1.106.906-2.011 2.014-2.011h.05c1.108 0 2.014.905 2.014 2.011a2.018 2.018 0 01-2.014 2.011zm-6.594 0h-.05a2.018 2.018 0 01-2.014-2.011c0-1.106.906-2.011 2.013-2.011h.05c1.108 0 2.014.905 2.014 2.011a1.986 1.986 0 01-2.013 2.011zm-6.545 0h-.05a2.018 2.018 0 01-2.014-2.011c0-1.106.906-2.011 2.014-2.011h.05c1.108 0 2.014.905 2.014 2.011a2.018 2.018 0 01-2.014 2.011zm-6.594 0h-.05a2.018 2.018 0 01-2.014-2.011c0-1.106.906-2.011 2.013-2.011h.05c1.108 0 2.014.905 2.014 2.011a2.018 2.018 0 01-2.013 2.011zm-6.595 0a2.018 2.018 0 01-2.014-2.011c0-1.106.856-2.011 2.014-2.011h.05c1.108 0 2.014.905 2.014 2.011s-.957 2.011-2.064 2.011zm-6.595 0a2.018 2.018 0 01-2.013-2.011c0-1.106.855-2.011 2.013-2.011h.05c1.108 0 2.014.905 2.014 2.011s-.956 2.011-2.064 2.011zm-6.594 0h-.05a2.018 2.018 0 01-2.014-2.011c0-1.106.906-2.011 2.013-2.011h.05c1.108 0 2.014.905 2.014 2.011a2.018 2.018 0 01-2.013 2.011zm-6.595 0h-.05a2.018 2.018 0 01-2.014-2.011c0-1.106.906-2.011 2.014-2.011h.05c1.108 0 2.014.905 2.014 2.011a2.018 2.018 0 01-2.014 2.011zm-6.595 0h-.05a2.018 2.018 0 01-2.014-2.011c0-1.106.907-2.011 2.014-2.011h.05c1.108 0 2.014.905 2.014 2.011a2.018 2.018 0 01-2.014 2.011zm-6.594 0h-.05a2.018 2.018 0 01-2.014-2.011c0-1.106.906-2.011 2.013-2.011h.05c1.108 0 2.014.905 2.014 2.011a2.018 2.018 0 01-2.013 2.011zm-6.595 0a2.018 2.018 0 01-2.014-2.011c0-1.106.856-2.011 2.014-2.011h.05c1.108 0 2.014.905 2.014 2.011s-.956 2.011-2.064 2.011zm-6.595 0a2.018 2.018 0 01-2.013-2.011c0-1.106.856-2.011 2.013-2.011h.05c1.108 0 2.014.905 2.014 2.011s-.956 2.011-2.064 2.011zm-6.594 0h-.05a2.018 2.018 0 01-2.014-2.011c0-1.106.906-2.011 2.013-2.011h.05c1.108 0 2.014.905 2.014 2.011a1.986 1.986 0 01-2.013 2.011zm-6.545 0h-.05a2.018 2.018 0 01-2.014-2.011c0-1.106.907-2.011 2.014-2.011h.05c1.108 0 2.014.905 2.014 2.011a2.018 2.018 0 01-2.014 2.011zm-6.594 0h-.05a2.018 2.018 0 01-2.014-2.011c0-1.106.906-2.011 2.013-2.011h.05c1.108 0 2.014.905 2.014 2.011a2.018 2.018 0 01-2.013 2.011zm-6.595 0h-.05a2.018 2.018 0 01-2.014-2.011c0-1.106.906-2.011 2.014-2.011h.05c1.108 0 2.014.905 2.014 2.011a2.018 2.018 0 01-2.014 2.011zm-6.595 0a2.018 2.018 0 01-2.013-2.011c0-1.106.856-2.011 2.014-2.011h.05c1.107 0 2.014.905 2.014 2.011s-.957 2.011-2.064 2.011zm-6.594 0a2.018 2.018 0 01-2.014-2.011c0-1.106.856-2.011 2.014-2.011h.05c1.108 0 2.014.905 2.014 2.011s-.957 2.011-2.064 2.011zm-6.595 0h-.05a2.018 2.018 0 01-2.014-2.011c0-1.106.906-2.011 2.014-2.011h.05c1.108 0 2.014.905 2.014 2.011a2.018 2.018 0 01-2.014 2.011zm-6.595 0h-.05a2.018 2.018 0 01-2.013-2.011c0-1.106.906-2.011 2.013-2.011h.05c1.108 0 2.014.905 2.014 2.011a2.018 2.018 0 01-2.014 2.011zm-6.594 0h-.05a2.018 2.018 0 01-2.014-2.011c0-1.106.906-2.011 2.014-2.011h.05c1.107 0 2.014.905 2.014 2.011a2.018 2.018 0 01-2.014 2.011zm138.377.001a2.017 2.017 0 01-2.013-2.01c0-1.106.906-2.011 2.013-2.011 1.108 0 2.014.905 2.014 2.011s-.906 2.01-2.014 2.01zm-6.585-7.037h-.05a2.017 2.017 0 01-2.014-2.01c0-1.106.906-2.011 2.014-2.011h.05c1.108 0 2.014.905 2.014 2.011s-.906 2.01-2.014 2.01zm-6.594 0h-.05a2.017 2.017 0 01-2.014-2.01c0-1.106.906-2.011 2.013-2.011h.05c1.108 0 2.014.905 2.014 2.011s-.856 2.01-2.013 2.01zm-6.545 0h-.05a2.017 2.017 0 01-2.014-2.01c0-1.106.906-2.011 2.014-2.011h.05c1.108 0 2.014.905 2.014 2.011s-.906 2.01-2.014 2.01zm-6.594 0h-.05a2.017 2.017 0 01-2.014-2.01c0-1.106.906-2.011 2.013-2.011h.05c1.108 0 2.014.905 2.014 2.011s-.906 2.01-2.013 2.01zm-6.595 0a2.017 2.017 0 01-2.014-2.01c0-1.106.856-2.011 2.014-2.011h.05c1.108 0 2.014.905 2.014 2.011s-.957 2.01-2.064 2.01zm-6.595 0a2.017 2.017 0 01-2.013-2.01c0-1.106.855-2.011 2.013-2.011h.05c1.108 0 2.014.905 2.014 2.011s-.956 2.01-2.064 2.01zm-6.594 0h-.05a2.017 2.017 0 01-2.014-2.01c0-1.106.906-2.011 2.013-2.011h.05c1.108 0 2.014.905 2.014 2.011s-.906 2.01-2.013 2.01zm-6.595 0h-.05a2.017 2.017 0 01-2.014-2.01c0-1.106.906-2.011 2.014-2.011h.05c1.108 0 2.014.905 2.014 2.011s-.906 2.01-2.014 2.01zm-6.595 0h-.05a2.017 2.017 0 01-2.014-2.01c0-1.106.907-2.011 2.014-2.011h.05c1.108 0 2.014.905 2.014 2.011s-.906 2.01-2.014 2.01zm-6.594 0h-.05a2.017 2.017 0 01-2.014-2.01c0-1.106.906-2.011 2.013-2.011h.05c1.108 0 2.014.905 2.014 2.011s-.906 2.01-2.013 2.01zm-6.595 0a2.017 2.017 0 01-2.014-2.01c0-1.106.856-2.011 2.014-2.011h.05c1.108 0 2.014.905 2.014 2.011s-.956 2.01-2.064 2.01zm-6.595 0a2.017 2.017 0 01-2.013-2.01c0-1.106.856-2.011 2.013-2.011h.05c1.108 0 2.014.905 2.014 2.011s-.956 2.01-2.064 2.01zm-6.594 0h-.05a2.017 2.017 0 01-2.014-2.01c0-1.106.906-2.011 2.013-2.011h.05c1.108 0 2.014.905 2.014 2.011s-.855 2.01-2.013 2.01zm-6.545 0h-.05a2.017 2.017 0 01-2.014-2.01c0-1.106.907-2.011 2.014-2.011h.05c1.108 0 2.014.905 2.014 2.011s-.906 2.01-2.014 2.01zm-6.594 0h-.05a2.017 2.017 0 01-2.014-2.01c0-1.106.906-2.011 2.013-2.011h.05c1.108 0 2.014.905 2.014 2.011s-.906 2.01-2.013 2.01zm-6.595 0h-.05a2.017 2.017 0 01-2.014-2.01c0-1.106.906-2.011 2.014-2.011h.05c1.108 0 2.014.905 2.014 2.011s-.906 2.01-2.014 2.01zm-6.595 0a2.017 2.017 0 01-2.013-2.01c0-1.106.856-2.011 2.014-2.011h.05c1.107 0 2.014.905 2.014 2.011s-.957 2.01-2.064 2.01zm-6.594 0a2.017 2.017 0 01-2.014-2.01c0-1.106.856-2.011 2.014-2.011h.05c1.108 0 2.014.905 2.014 2.011s-.957 2.01-2.064 2.01zm-6.595 0h-.05a2.017 2.017 0 01-2.014-2.01c0-1.106.906-2.011 2.014-2.011h.05c1.108 0 2.014.905 2.014 2.011s-.906 2.01-2.014 2.01zm-6.595 0h-.05a2.017 2.017 0 01-2.013-2.01c0-1.106.906-2.011 2.013-2.011h.05c1.108 0 2.014.905 2.014 2.011s-.906 2.01-2.014 2.01zm-6.594 0h-.05a2.017 2.017 0 01-2.014-2.01c0-1.106.906-2.011 2.014-2.011h.05c1.107 0 2.014.905 2.014 2.011s-.907 2.01-2.014 2.01zm138.377.002a2.017 2.017 0 01-2.013-2.01c0-1.106.906-2.011 2.013-2.011 1.108 0 2.014.905 2.014 2.011s-.906 2.01-2.014 2.01zm-6.585-7.039h-.05a2.018 2.018 0 01-2.014-2.01c0-1.106.906-2.011 2.014-2.011h.05c1.108 0 2.014.905 2.014 2.011 0 1.105-.906 2.01-2.014 2.01zm-6.594 0h-.05a2.018 2.018 0 01-2.014-2.01c0-1.106.906-2.011 2.013-2.011h.05c1.108 0 2.014.905 2.014 2.011 0 1.105-.856 2.01-2.013 2.01zm-6.545 0h-.05a2.018 2.018 0 01-2.014-2.01c0-1.106.906-2.011 2.014-2.011h.05c1.108 0 2.014.905 2.014 2.011 0 1.105-.906 2.01-2.014 2.01zm-6.594 0h-.05a2.018 2.018 0 01-2.014-2.01c0-1.106.906-2.011 2.013-2.011h.05c1.108 0 2.014.905 2.014 2.011 0 1.105-.906 2.01-2.013 2.01zm-6.595 0a2.018 2.018 0 01-2.014-2.01c0-1.106.856-2.011 2.014-2.011h.05c1.108 0 2.014.905 2.014 2.011 0 1.105-.957 2.01-2.064 2.01zm-6.595 0a2.018 2.018 0 01-2.013-2.01c0-1.106.855-2.011 2.013-2.011h.05c1.108 0 2.014.905 2.014 2.011 0 1.105-.956 2.01-2.064 2.01zm-6.594 0h-.05a2.018 2.018 0 01-2.014-2.01c0-1.106.906-2.011 2.013-2.011h.05c1.108 0 2.014.905 2.014 2.011 0 1.105-.906 2.01-2.013 2.01zm-6.595 0h-.05a2.018 2.018 0 01-2.014-2.01c0-1.106.906-2.011 2.014-2.011h.05c1.108 0 2.014.905 2.014 2.011 0 1.105-.906 2.01-2.014 2.01zm-6.595 0h-.05a2.018 2.018 0 01-2.014-2.01c0-1.106.907-2.011 2.014-2.011h.05c1.108 0 2.014.905 2.014 2.011 0 1.105-.906 2.01-2.014 2.01zm-6.594 0h-.05a2.018 2.018 0 01-2.014-2.01c0-1.106.906-2.011 2.013-2.011h.05c1.108 0 2.014.905 2.014 2.011 0 1.105-.906 2.01-2.013 2.01zm-6.595 0a2.018 2.018 0 01-2.014-2.01c0-1.106.856-2.011 2.014-2.011h.05c1.108 0 2.014.905 2.014 2.011 0 1.105-.956 2.01-2.064 2.01zm-6.595 0a2.018 2.018 0 01-2.013-2.01c0-1.106.856-2.011 2.013-2.011h.05c1.108 0 2.014.905 2.014 2.011 0 1.105-.956 2.01-2.064 2.01zm-6.594 0h-.05a2.018 2.018 0 01-2.014-2.01c0-1.106.906-2.011 2.013-2.011h.05c1.108 0 2.014.905 2.014 2.011 0 1.105-.855 2.01-2.013 2.01zm-6.545 0h-.05a2.018 2.018 0 01-2.014-2.01c0-1.106.907-2.011 2.014-2.011h.05c1.108 0 2.014.905 2.014 2.011 0 1.105-.906 2.01-2.014 2.01zm-6.594 0h-.05a2.018 2.018 0 01-2.014-2.01c0-1.106.906-2.011 2.013-2.011h.05c1.108 0 2.014.905 2.014 2.011 0 1.105-.906 2.01-2.013 2.01zm-6.595 0h-.05a2.018 2.018 0 01-2.014-2.01c0-1.106.906-2.011 2.014-2.011h.05c1.108 0 2.014.905 2.014 2.011 0 1.105-.906 2.01-2.014 2.01zm-6.595 0a2.018 2.018 0 01-2.013-2.01c0-1.106.856-2.011 2.014-2.011h.05c1.107 0 2.014.905 2.014 2.011 0 1.105-.957 2.01-2.064 2.01zm-6.594 0a2.018 2.018 0 01-2.014-2.01c0-1.106.856-2.011 2.014-2.011h.05c1.108 0 2.014.905 2.014 2.011 0 1.105-.957 2.01-2.064 2.01zm-6.595 0h-.05a2.018 2.018 0 01-2.014-2.01c0-1.106.906-2.011 2.014-2.011h.05c1.108 0 2.014.905 2.014 2.011 0 1.105-.906 2.01-2.014 2.01zm-6.595 0h-.05a2.018 2.018 0 01-2.013-2.01c0-1.106.906-2.011 2.013-2.011h.05c1.108 0 2.014.905 2.014 2.011 0 1.105-.906 2.01-2.014 2.01zm-6.594 0h-.05a2.018 2.018 0 01-2.014-2.01c0-1.106.906-2.011 2.014-2.011h.05c1.107 0 2.014.905 2.014 2.011 0 1.105-.907 2.01-2.014 2.01zm138.377 0a2.018 2.018 0 01-2.013-2.01c0-1.106.906-2.011 2.013-2.011 1.108 0 2.014.905 2.014 2.011 0 1.105-.906 2.01-2.014 2.01zm-6.585-7.039h-.05a2.018 2.018 0 01-2.014-2.01c0-1.106.906-2.011 2.014-2.011h.05c1.108 0 2.014.905 2.014 2.011 0 1.105-.906 2.01-2.014 2.01zm-6.594 0h-.05a2.018 2.018 0 01-2.014-2.01c0-1.106.906-2.011 2.013-2.011h.05c1.108 0 2.014.905 2.014 2.011 0 1.105-.856 2.01-2.013 2.01zm-6.545 0h-.05a2.018 2.018 0 01-2.014-2.01c0-1.106.906-2.011 2.014-2.011h.05c1.108 0 2.014.905 2.014 2.011 0 1.105-.906 2.01-2.014 2.01zm-6.594 0h-.05a2.018 2.018 0 01-2.014-2.01c0-1.106.906-2.011 2.013-2.011h.05c1.108 0 2.014.905 2.014 2.011 0 1.105-.906 2.01-2.013 2.01zm-6.595 0a2.018 2.018 0 01-2.014-2.01c0-1.106.856-2.011 2.014-2.011h.05c1.108 0 2.014.905 2.014 2.011 0 1.105-.957 2.01-2.064 2.01zm-6.595 0a2.018 2.018 0 01-2.013-2.01c0-1.106.855-2.011 2.013-2.011h.05c1.108 0 2.014.905 2.014 2.011 0 1.105-.956 2.01-2.064 2.01zm-6.594 0h-.05a2.018 2.018 0 01-2.014-2.01c0-1.106.906-2.011 2.013-2.011h.05c1.108 0 2.014.905 2.014 2.011 0 1.105-.906 2.01-2.013 2.01zm-6.595 0h-.05a2.018 2.018 0 01-2.014-2.01c0-1.106.906-2.011 2.014-2.011h.05c1.108 0 2.014.905 2.014 2.011 0 1.105-.906 2.01-2.014 2.01zm-6.595 0h-.05a2.018 2.018 0 01-2.014-2.01c0-1.106.907-2.011 2.014-2.011h.05c1.108 0 2.014.905 2.014 2.011 0 1.105-.906 2.01-2.014 2.01zm-6.594 0h-.05a2.018 2.018 0 01-2.014-2.01c0-1.106.906-2.011 2.013-2.011h.05c1.108 0 2.014.905 2.014 2.011 0 1.105-.906 2.01-2.013 2.01zm-6.595 0a2.018 2.018 0 01-2.014-2.01c0-1.106.856-2.011 2.014-2.011h.05c1.108 0 2.014.905 2.014 2.011 0 1.105-.956 2.01-2.064 2.01zm-6.595 0a2.018 2.018 0 01-2.013-2.01c0-1.106.856-2.011 2.013-2.011h.05c1.108 0 2.014.905 2.014 2.011 0 1.105-.956 2.01-2.064 2.01zm-6.594 0h-.05a2.018 2.018 0 01-2.014-2.01c0-1.106.906-2.011 2.013-2.011h.05c1.108 0 2.014.905 2.014 2.011 0 1.105-.855 2.01-2.013 2.01zm-6.545 0h-.05a2.018 2.018 0 01-2.014-2.01c0-1.106.907-2.011 2.014-2.011h.05c1.108 0 2.014.905 2.014 2.011 0 1.105-.906 2.01-2.014 2.01zm-6.594 0h-.05a2.018 2.018 0 01-2.014-2.01c0-1.106.906-2.011 2.013-2.011h.05c1.108 0 2.014.905 2.014 2.011 0 1.105-.906 2.01-2.013 2.01zm-6.595 0h-.05a2.018 2.018 0 01-2.014-2.01c0-1.106.906-2.011 2.014-2.011h.05c1.108 0 2.014.905 2.014 2.011 0 1.105-.906 2.01-2.014 2.01zm-6.595 0a2.018 2.018 0 01-2.013-2.01c0-1.106.856-2.011 2.014-2.011h.05c1.107 0 2.014.905 2.014 2.011 0 1.105-.957 2.01-2.064 2.01zm-6.594 0a2.018 2.018 0 01-2.014-2.01c0-1.106.856-2.011 2.014-2.011h.05c1.108 0 2.014.905 2.014 2.011 0 1.105-.957 2.01-2.064 2.01zm-6.595 0h-.05a2.018 2.018 0 01-2.014-2.01c0-1.106.906-2.011 2.014-2.011h.05c1.108 0 2.014.905 2.014 2.011 0 1.105-.906 2.01-2.014 2.01zm-6.595 0h-.05a2.018 2.018 0 01-2.013-2.01c0-1.106.906-2.011 2.013-2.011h.05c1.108 0 2.014.905 2.014 2.011 0 1.105-.906 2.01-2.014 2.01zm-6.594 0h-.05a2.018 2.018 0 01-2.014-2.01c0-1.106.906-2.011 2.014-2.011h.05c1.107 0 2.014.905 2.014 2.011 0 1.105-.907 2.01-2.014 2.01zm138.377.002a2.018 2.018 0 01-2.013-2.01c0-1.106.906-2.011 2.013-2.011 1.108 0 2.014.905 2.014 2.011 0 1.105-.906 2.01-2.014 2.01zm-6.585-7.039h-.05a2.018 2.018 0 01-2.014-2.011c0-1.105.906-2.01 2.014-2.01h.05c1.108 0 2.014.905 2.014 2.01a2.018 2.018 0 01-2.014 2.011zm-6.594 0h-.05a2.018 2.018 0 01-2.014-2.011c0-1.105.906-2.01 2.013-2.01h.05c1.108 0 2.014.905 2.014 2.01a1.986 1.986 0 01-2.013 2.011zm-6.545 0h-.05a2.018 2.018 0 01-2.014-2.011c0-1.105.906-2.01 2.014-2.01h.05c1.108 0 2.014.905 2.014 2.01a2.018 2.018 0 01-2.014 2.011zm-6.594 0h-.05a2.018 2.018 0 01-2.014-2.011c0-1.105.906-2.01 2.013-2.01h.05c1.108 0 2.014.905 2.014 2.01a2.018 2.018 0 01-2.013 2.011zm-6.595 0a2.018 2.018 0 01-2.014-2.011c0-1.105.856-2.01 2.014-2.01h.05c1.108 0 2.014.905 2.014 2.01 0 1.106-.957 2.011-2.064 2.011zm-6.595 0a2.018 2.018 0 01-2.013-2.011c0-1.105.855-2.01 2.013-2.01h.05c1.108 0 2.014.905 2.014 2.01 0 1.106-.956 2.011-2.064 2.011zm-6.594 0h-.05a2.018 2.018 0 01-2.014-2.011c0-1.105.906-2.01 2.013-2.01h.05c1.108 0 2.014.905 2.014 2.01a2.018 2.018 0 01-2.013 2.011zm-6.595 0h-.05a2.018 2.018 0 01-2.014-2.011c0-1.105.906-2.01 2.014-2.01h.05c1.108 0 2.014.905 2.014 2.01a2.018 2.018 0 01-2.014 2.011zm-6.595 0h-.05a2.018 2.018 0 01-2.014-2.011c0-1.105.907-2.01 2.014-2.01h.05c1.108 0 2.014.905 2.014 2.01a2.018 2.018 0 01-2.014 2.011zm-6.594 0h-.05a2.018 2.018 0 01-2.014-2.011c0-1.105.906-2.01 2.013-2.01h.05c1.108 0 2.014.905 2.014 2.01a2.018 2.018 0 01-2.013 2.011zm-6.595 0a2.018 2.018 0 01-2.014-2.011c0-1.105.856-2.01 2.014-2.01h.05c1.108 0 2.014.905 2.014 2.01 0 1.106-.956 2.011-2.064 2.011zm-6.595 0a2.018 2.018 0 01-2.013-2.011c0-1.105.856-2.01 2.013-2.01h.05c1.108 0 2.014.905 2.014 2.01 0 1.106-.956 2.011-2.064 2.011zm-6.594 0h-.05a2.018 2.018 0 01-2.014-2.011c0-1.105.906-2.01 2.013-2.01h.05c1.108 0 2.014.905 2.014 2.01a1.986 1.986 0 01-2.013 2.011zm-6.545 0h-.05a2.018 2.018 0 01-2.014-2.011c0-1.105.907-2.01 2.014-2.01h.05c1.108 0 2.014.905 2.014 2.01a2.018 2.018 0 01-2.014 2.011zm-6.594 0h-.05a2.018 2.018 0 01-2.014-2.011c0-1.105.906-2.01 2.013-2.01h.05c1.108 0 2.014.905 2.014 2.01a2.018 2.018 0 01-2.013 2.011zm-6.595 0h-.05a2.018 2.018 0 01-2.014-2.011c0-1.105.906-2.01 2.014-2.01h.05c1.108 0 2.014.905 2.014 2.01a2.018 2.018 0 01-2.014 2.011zm-6.595 0a2.018 2.018 0 01-2.013-2.011c0-1.105.856-2.01 2.014-2.01h.05c1.107 0 2.014.905 2.014 2.01 0 1.106-.957 2.011-2.064 2.011zm-6.594 0a2.018 2.018 0 01-2.014-2.011c0-1.105.856-2.01 2.014-2.01h.05c1.108 0 2.014.905 2.014 2.01 0 1.106-.957 2.011-2.064 2.011zm-6.595 0h-.05a2.018 2.018 0 01-2.014-2.011c0-1.105.906-2.01 2.014-2.01h.05c1.108 0 2.014.905 2.014 2.01a2.018 2.018 0 01-2.014 2.011zm-6.595 0h-.05a2.018 2.018 0 01-2.013-2.011c0-1.105.906-2.01 2.013-2.01h.05c1.108 0 2.014.905 2.014 2.01a2.018 2.018 0 01-2.014 2.011zm-6.594 0h-.05a2.018 2.018 0 01-2.014-2.011c0-1.105.906-2.01 2.014-2.01h.05c1.107 0 2.014.905 2.014 2.01a2.018 2.018 0 01-2.014 2.011zm138.377 0a2.018 2.018 0 01-2.013-2.011c0-1.105.906-2.01 2.013-2.01 1.108 0 2.014.905 2.014 2.01a2.018 2.018 0 01-2.014 2.011zm-6.585-7.037h-.05a2.018 2.018 0 01-2.014-2.011c0-1.106.906-2.01 2.014-2.01h.05c1.108 0 2.014.904 2.014 2.01a2.018 2.018 0 01-2.014 2.011zm-6.594 0h-.05a2.018 2.018 0 01-2.014-2.011c0-1.106.906-2.01 2.013-2.01h.05c1.108 0 2.014.904 2.014 2.01a1.986 1.986 0 01-2.013 2.011zm-6.545 0h-.05a2.018 2.018 0 01-2.014-2.011c0-1.106.906-2.01 2.014-2.01h.05c1.108 0 2.014.904 2.014 2.01a2.018 2.018 0 01-2.014 2.011zm-6.594 0h-.05a2.018 2.018 0 01-2.014-2.011c0-1.106.906-2.01 2.013-2.01h.05c1.108 0 2.014.904 2.014 2.01a2.018 2.018 0 01-2.013 2.011zm-6.595 0a2.018 2.018 0 01-2.014-2.011c0-1.106.856-2.01 2.014-2.01h.05c1.108 0 2.014.904 2.014 2.01 0 1.106-.957 2.011-2.064 2.011zm-6.595 0a2.018 2.018 0 01-2.013-2.011c0-1.106.855-2.01 2.013-2.01h.05c1.108 0 2.014.904 2.014 2.01 0 1.106-.956 2.011-2.064 2.011zm-6.594 0h-.05a2.018 2.018 0 01-2.014-2.011c0-1.106.906-2.01 2.013-2.01h.05c1.108 0 2.014.904 2.014 2.01a2.018 2.018 0 01-2.013 2.011zm-6.595 0h-.05a2.018 2.018 0 01-2.014-2.011c0-1.106.906-2.01 2.014-2.01h.05c1.108 0 2.014.904 2.014 2.01a2.018 2.018 0 01-2.014 2.011zm-6.595 0h-.05a2.018 2.018 0 01-2.014-2.011c0-1.106.907-2.01 2.014-2.01h.05c1.108 0 2.014.904 2.014 2.01a2.018 2.018 0 01-2.014 2.011zm-6.594 0h-.05a2.018 2.018 0 01-2.014-2.011c0-1.106.906-2.01 2.013-2.01h.05c1.108 0 2.014.904 2.014 2.01a2.018 2.018 0 01-2.013 2.011zm-6.595 0a2.018 2.018 0 01-2.014-2.011c0-1.106.856-2.01 2.014-2.01h.05c1.108 0 2.014.904 2.014 2.01 0 1.106-.956 2.011-2.064 2.011zm-6.595 0a2.018 2.018 0 01-2.013-2.011c0-1.106.856-2.01 2.013-2.01h.05c1.108 0 2.014.904 2.014 2.01 0 1.106-.956 2.011-2.064 2.011zm-6.594 0h-.05a2.018 2.018 0 01-2.014-2.011c0-1.106.906-2.01 2.013-2.01h.05c1.108 0 2.014.904 2.014 2.01a1.986 1.986 0 01-2.013 2.011zm-6.545 0h-.05a2.018 2.018 0 01-2.014-2.011c0-1.106.907-2.01 2.014-2.01h.05c1.108 0 2.014.904 2.014 2.01a2.018 2.018 0 01-2.014 2.011zm-6.594 0h-.05a2.018 2.018 0 01-2.014-2.011c0-1.106.906-2.01 2.013-2.01h.05c1.108 0 2.014.904 2.014 2.01a2.018 2.018 0 01-2.013 2.011zm-6.595 0h-.05a2.018 2.018 0 01-2.014-2.011c0-1.106.906-2.01 2.014-2.01h.05c1.108 0 2.014.904 2.014 2.01a2.018 2.018 0 01-2.014 2.011zm-6.595 0a2.018 2.018 0 01-2.013-2.011c0-1.106.856-2.01 2.014-2.01h.05c1.107 0 2.014.904 2.014 2.01 0 1.106-.957 2.011-2.064 2.011zm-6.594 0a2.018 2.018 0 01-2.014-2.011c0-1.106.856-2.01 2.014-2.01h.05c1.108 0 2.014.904 2.014 2.01 0 1.106-.957 2.011-2.064 2.011zm-6.595 0h-.05a2.018 2.018 0 01-2.014-2.011c0-1.106.906-2.01 2.014-2.01h.05c1.108 0 2.014.904 2.014 2.01a2.018 2.018 0 01-2.014 2.011zm-6.595 0h-.05a2.018 2.018 0 01-2.013-2.011c0-1.106.906-2.01 2.013-2.01h.05c1.108 0 2.014.904 2.014 2.01a2.018 2.018 0 01-2.014 2.011zm-6.594 0h-.05a2.018 2.018 0 01-2.014-2.011c0-1.106.906-2.01 2.014-2.01h.05c1.107 0 2.014.904 2.014 2.01a2.018 2.018 0 01-2.014 2.011zm138.377 0a2.018 2.018 0 01-2.013-2.011c0-1.106.906-2.01 2.013-2.01 1.108 0 2.014.904 2.014 2.01a2.018 2.018 0 01-2.014 2.011zm-6.585-7.036h-.05a2.018 2.018 0 01-2.014-2.011c0-1.106.906-2.01 2.014-2.01h.05c1.108 0 2.014.904 2.014 2.01a2.018 2.018 0 01-2.014 2.011zm-6.594 0h-.05a2.018 2.018 0 01-2.014-2.011c0-1.106.906-2.01 2.013-2.01h.05c1.108 0 2.014.904 2.014 2.01a1.986 1.986 0 01-2.013 2.011zm-6.545 0h-.05a2.018 2.018 0 01-2.014-2.011c0-1.106.906-2.01 2.014-2.01h.05c1.108 0 2.014.904 2.014 2.01a2.018 2.018 0 01-2.014 2.011zm-6.594 0h-.05a2.018 2.018 0 01-2.014-2.011c0-1.106.906-2.01 2.013-2.01h.05c1.108 0 2.014.904 2.014 2.01a2.018 2.018 0 01-2.013 2.011zm-6.595 0a2.018 2.018 0 01-2.014-2.011c0-1.106.856-2.01 2.014-2.01h.05c1.108 0 2.014.904 2.014 2.01 0 1.106-.957 2.011-2.064 2.011zm-6.595 0a2.018 2.018 0 01-2.013-2.011c0-1.106.855-2.01 2.013-2.01h.05c1.108 0 2.014.904 2.014 2.01 0 1.106-.956 2.011-2.064 2.011zm-6.594 0h-.05a2.018 2.018 0 01-2.014-2.011c0-1.106.906-2.01 2.013-2.01h.05c1.108 0 2.014.904 2.014 2.01a2.018 2.018 0 01-2.013 2.011zm-6.595 0h-.05a2.018 2.018 0 01-2.014-2.011c0-1.106.906-2.01 2.014-2.01h.05c1.108 0 2.014.904 2.014 2.01a2.018 2.018 0 01-2.014 2.011zm-6.595 0h-.05a2.018 2.018 0 01-2.014-2.011c0-1.106.907-2.01 2.014-2.01h.05c1.108 0 2.014.904 2.014 2.01a2.018 2.018 0 01-2.014 2.011zm-6.594 0h-.05a2.018 2.018 0 01-2.014-2.011c0-1.106.906-2.01 2.013-2.01h.05c1.108 0 2.014.904 2.014 2.01a2.018 2.018 0 01-2.013 2.011zm-6.595 0a2.018 2.018 0 01-2.014-2.011c0-1.106.856-2.01 2.014-2.01h.05c1.108 0 2.014.904 2.014 2.01 0 1.106-.956 2.011-2.064 2.011zm-6.595 0a2.018 2.018 0 01-2.013-2.011c0-1.106.856-2.01 2.013-2.01h.05c1.108 0 2.014.904 2.014 2.01 0 1.106-.956 2.011-2.064 2.011zm-6.594 0h-.05a2.018 2.018 0 01-2.014-2.011c0-1.106.906-2.01 2.013-2.01h.05c1.108 0 2.014.904 2.014 2.01a1.986 1.986 0 01-2.013 2.011zm-6.545 0h-.05a2.018 2.018 0 01-2.014-2.011c0-1.106.907-2.01 2.014-2.01h.05c1.108 0 2.014.904 2.014 2.01a2.018 2.018 0 01-2.014 2.011zm-6.594 0h-.05a2.018 2.018 0 01-2.014-2.011c0-1.106.906-2.01 2.013-2.01h.05c1.108 0 2.014.904 2.014 2.01a2.018 2.018 0 01-2.013 2.011zm-6.595 0h-.05a2.018 2.018 0 01-2.014-2.011c0-1.106.906-2.01 2.014-2.01h.05c1.108 0 2.014.904 2.014 2.01a2.018 2.018 0 01-2.014 2.011zm-6.595 0a2.018 2.018 0 01-2.013-2.011c0-1.106.856-2.01 2.014-2.01h.05c1.107 0 2.014.904 2.014 2.01 0 1.106-.957 2.011-2.064 2.011zm-6.594 0a2.018 2.018 0 01-2.014-2.011c0-1.106.856-2.01 2.014-2.01h.05c1.108 0 2.014.904 2.014 2.01 0 1.106-.957 2.011-2.064 2.011zm-6.595 0h-.05a2.018 2.018 0 01-2.014-2.011c0-1.106.906-2.01 2.014-2.01h.05c1.108 0 2.014.904 2.014 2.01a2.018 2.018 0 01-2.014 2.011zm-6.595 0h-.05a2.018 2.018 0 01-2.013-2.011c0-1.106.906-2.01 2.013-2.01h.05c1.108 0 2.014.904 2.014 2.01a2.018 2.018 0 01-2.014 2.011zm-6.594 0h-.05a2.018 2.018 0 01-2.014-2.011c0-1.106.906-2.01 2.014-2.01h.05c1.107 0 2.014.904 2.014 2.01a2.018 2.018 0 01-2.014 2.011zm138.377 0a2.018 2.018 0 01-2.013-2.011c0-1.106.906-2.01 2.013-2.01 1.108 0 2.014.904 2.014 2.01a2.018 2.018 0 01-2.014 2.011zm-6.585-7.037h-.05a2.018 2.018 0 01-2.014-2.011c0-1.106.906-2.01 2.014-2.01h.05c1.108 0 2.014.904 2.014 2.01a2.018 2.018 0 01-2.014 2.011zm-6.594 0h-.05a2.018 2.018 0 01-2.014-2.011c0-1.106.906-2.01 2.013-2.01h.05c1.108 0 2.014.904 2.014 2.01a1.986 1.986 0 01-2.013 2.011zm-6.545 0h-.05a2.018 2.018 0 01-2.014-2.011c0-1.106.906-2.01 2.014-2.01h.05c1.108 0 2.014.904 2.014 2.01a2.018 2.018 0 01-2.014 2.011zm-6.594 0h-.05a2.018 2.018 0 01-2.014-2.011c0-1.106.906-2.01 2.013-2.01h.05c1.108 0 2.014.904 2.014 2.01a2.018 2.018 0 01-2.013 2.011zm-6.595 0a2.018 2.018 0 01-2.014-2.011c0-1.106.856-2.01 2.014-2.01h.05c1.108 0 2.014.904 2.014 2.01 0 1.106-.957 2.011-2.064 2.011zm-6.595 0a2.018 2.018 0 01-2.013-2.011c0-1.106.855-2.01 2.013-2.01h.05c1.108 0 2.014.904 2.014 2.01 0 1.106-.956 2.011-2.064 2.011zm-6.594 0h-.05a2.018 2.018 0 01-2.014-2.011c0-1.106.906-2.01 2.013-2.01h.05c1.108 0 2.014.904 2.014 2.01a2.018 2.018 0 01-2.013 2.011zm-6.595 0h-.05a2.018 2.018 0 01-2.014-2.011c0-1.106.906-2.01 2.014-2.01h.05c1.108 0 2.014.904 2.014 2.01a2.018 2.018 0 01-2.014 2.011zm-6.595 0h-.05a2.018 2.018 0 01-2.014-2.011c0-1.106.907-2.01 2.014-2.01h.05c1.108 0 2.014.904 2.014 2.01a2.018 2.018 0 01-2.014 2.011zm-6.594 0h-.05a2.018 2.018 0 01-2.014-2.011c0-1.106.906-2.01 2.013-2.01h.05c1.108 0 2.014.904 2.014 2.01a2.018 2.018 0 01-2.013 2.011zm-6.595 0a2.018 2.018 0 01-2.014-2.011c0-1.106.856-2.01 2.014-2.01h.05c1.108 0 2.014.904 2.014 2.01 0 1.106-.956 2.011-2.064 2.011zm-6.595 0a2.018 2.018 0 01-2.013-2.011c0-1.106.856-2.01 2.013-2.01h.05c1.108 0 2.014.904 2.014 2.01 0 1.106-.956 2.011-2.064 2.011zm-6.594 0h-.05a2.018 2.018 0 01-2.014-2.011c0-1.106.906-2.01 2.013-2.01h.05c1.108 0 2.014.904 2.014 2.01a1.986 1.986 0 01-2.013 2.011zm-6.545 0h-.05a2.018 2.018 0 01-2.014-2.011c0-1.106.907-2.01 2.014-2.01h.05c1.108 0 2.014.904 2.014 2.01a2.018 2.018 0 01-2.014 2.011zm-6.594 0h-.05a2.018 2.018 0 01-2.014-2.011c0-1.106.906-2.01 2.013-2.01h.05c1.108 0 2.014.904 2.014 2.01a2.018 2.018 0 01-2.013 2.011zm-6.595 0h-.05a2.018 2.018 0 01-2.014-2.011c0-1.106.906-2.01 2.014-2.01h.05c1.108 0 2.014.904 2.014 2.01a2.018 2.018 0 01-2.014 2.011zm-6.595 0a2.018 2.018 0 01-2.013-2.011c0-1.106.856-2.01 2.014-2.01h.05c1.107 0 2.014.904 2.014 2.01 0 1.106-.957 2.011-2.064 2.011zm-6.594 0a2.018 2.018 0 01-2.014-2.011c0-1.106.856-2.01 2.014-2.01h.05c1.108 0 2.014.904 2.014 2.01 0 1.106-.957 2.011-2.064 2.011zm-6.595 0h-.05a2.018 2.018 0 01-2.014-2.011c0-1.106.906-2.01 2.014-2.01h.05c1.108 0 2.014.904 2.014 2.01a2.018 2.018 0 01-2.014 2.011zm-6.595 0h-.05a2.018 2.018 0 01-2.013-2.011c0-1.106.906-2.01 2.013-2.01h.05c1.108 0 2.014.904 2.014 2.01a2.018 2.018 0 01-2.014 2.011zm-6.594 0h-.05a2.018 2.018 0 01-2.014-2.011c0-1.106.906-2.01 2.014-2.01h.05c1.107 0 2.014.904 2.014 2.01a2.018 2.018 0 01-2.014 2.011zm138.377 0a2.018 2.018 0 01-2.013-2.011c0-1.106.906-2.01 2.013-2.01 1.108 0 2.014.904 2.014 2.01a2.018 2.018 0 01-2.014 2.011zm-6.585-7.037h-.05a2.018 2.018 0 01-2.014-2.011c0-1.106.906-2.01 2.014-2.01h.05c1.108 0 2.014.904 2.014 2.01 0 1.106-.906 2.01-2.014 2.01zm-6.594 0h-.05a2.018 2.018 0 01-2.014-2.011c0-1.106.906-2.01 2.013-2.01h.05c1.108 0 2.014.904 2.014 2.01 0 1.106-.856 2.01-2.013 2.01zm-6.545 0h-.05a2.018 2.018 0 01-2.014-2.011c0-1.106.906-2.01 2.014-2.01h.05c1.108 0 2.014.904 2.014 2.01 0 1.106-.906 2.01-2.014 2.01zm-6.594 0h-.05a2.018 2.018 0 01-2.014-2.011c0-1.106.906-2.01 2.013-2.01h.05c1.108 0 2.014.904 2.014 2.01 0 1.106-.906 2.01-2.013 2.01zm-6.595 0a2.018 2.018 0 01-2.014-2.011c0-1.106.856-2.01 2.014-2.01h.05c1.108 0 2.014.904 2.014 2.01 0 1.106-.957 2.01-2.064 2.01zm-6.595 0a2.018 2.018 0 01-2.013-2.011c0-1.106.855-2.01 2.013-2.01h.05c1.108 0 2.014.904 2.014 2.01 0 1.106-.956 2.01-2.064 2.01zm-6.594 0h-.05a2.018 2.018 0 01-2.014-2.011c0-1.106.906-2.01 2.013-2.01h.05c1.108 0 2.014.904 2.014 2.01 0 1.106-.906 2.01-2.013 2.01zm-6.595 0h-.05a2.018 2.018 0 01-2.014-2.011c0-1.106.906-2.01 2.014-2.01h.05c1.108 0 2.014.904 2.014 2.01 0 1.106-.906 2.01-2.014 2.01zm-6.595 0h-.05a2.018 2.018 0 01-2.014-2.011c0-1.106.907-2.01 2.014-2.01h.05c1.108 0 2.014.904 2.014 2.01 0 1.106-.906 2.01-2.014 2.01zm-6.594 0h-.05a2.018 2.018 0 01-2.014-2.011c0-1.106.906-2.01 2.013-2.01h.05c1.108 0 2.014.904 2.014 2.01 0 1.106-.906 2.01-2.013 2.01zm-6.595 0a2.018 2.018 0 01-2.014-2.011c0-1.106.856-2.01 2.014-2.01h.05c1.108 0 2.014.904 2.014 2.01 0 1.106-.956 2.01-2.064 2.01zm-6.595 0a2.018 2.018 0 01-2.013-2.011c0-1.106.856-2.01 2.013-2.01h.05c1.108 0 2.014.904 2.014 2.01 0 1.106-.956 2.01-2.064 2.01zm-6.594 0h-.05a2.018 2.018 0 01-2.014-2.011c0-1.106.906-2.01 2.013-2.01h.05c1.108 0 2.014.904 2.014 2.01 0 1.106-.855 2.01-2.013 2.01zm-6.545 0h-.05a2.018 2.018 0 01-2.014-2.011c0-1.106.907-2.01 2.014-2.01h.05c1.108 0 2.014.904 2.014 2.01 0 1.106-.906 2.01-2.014 2.01zm-6.594 0h-.05a2.018 2.018 0 01-2.014-2.011c0-1.106.906-2.01 2.013-2.01h.05c1.108 0 2.014.904 2.014 2.01 0 1.106-.906 2.01-2.013 2.01zm-6.595 0h-.05a2.018 2.018 0 01-2.014-2.011c0-1.106.906-2.01 2.014-2.01h.05c1.108 0 2.014.904 2.014 2.01 0 1.106-.906 2.01-2.014 2.01zm-6.595 0a2.018 2.018 0 01-2.013-2.011c0-1.106.856-2.01 2.014-2.01h.05c1.107 0 2.014.904 2.014 2.01 0 1.106-.957 2.01-2.064 2.01zm-6.594 0a2.018 2.018 0 01-2.014-2.011c0-1.106.856-2.01 2.014-2.01h.05c1.108 0 2.014.904 2.014 2.01 0 1.106-.957 2.01-2.064 2.01zm-6.595 0h-.05a2.018 2.018 0 01-2.014-2.011c0-1.106.906-2.01 2.014-2.01h.05c1.108 0 2.014.904 2.014 2.01 0 1.106-.906 2.01-2.014 2.01zm-6.595 0h-.05a2.018 2.018 0 01-2.013-2.011c0-1.106.906-2.01 2.013-2.01h.05c1.108 0 2.014.904 2.014 2.01 0 1.106-.906 2.01-2.014 2.01zm-6.594 0h-.05a2.018 2.018 0 01-2.014-2.011c0-1.106.906-2.01 2.014-2.01h.05c1.107 0 2.014.904 2.014 2.01 0 1.106-.907 2.01-2.014 2.01zm138.377-.002a2.018 2.018 0 01-2.013-2.011c0-1.106.906-2.01 2.013-2.01 1.108 0 2.014.904 2.014 2.01 0 1.106-.906 2.01-2.014 2.01zm-6.585-7.033h-.05a2.018 2.018 0 01-2.014-2.011c0-1.106.906-2.01 2.014-2.01h.05c1.108 0 2.014.904 2.014 2.01 0 1.106-.906 2.01-2.014 2.01zm-6.594 0h-.05a2.018 2.018 0 01-2.014-2.011c0-1.106.906-2.01 2.013-2.01h.05c1.108 0 2.014.904 2.014 2.01 0 1.106-.856 2.01-2.013 2.01zm-6.545 0h-.05a2.018 2.018 0 01-2.014-2.011c0-1.106.906-2.01 2.014-2.01h.05c1.108 0 2.014.904 2.014 2.01 0 1.106-.906 2.01-2.014 2.01zm-6.594 0h-.05a2.018 2.018 0 01-2.014-2.011c0-1.106.906-2.01 2.013-2.01h.05c1.108 0 2.014.904 2.014 2.01 0 1.106-.906 2.01-2.013 2.01zm-6.595 0a2.018 2.018 0 01-2.014-2.011c0-1.106.856-2.01 2.014-2.01h.05c1.108 0 2.014.904 2.014 2.01 0 1.106-.957 2.01-2.064 2.01zm-6.595 0a2.018 2.018 0 01-2.013-2.011c0-1.106.855-2.01 2.013-2.01h.05c1.108 0 2.014.904 2.014 2.01 0 1.106-.956 2.01-2.064 2.01zm-6.594 0h-.05a2.018 2.018 0 01-2.014-2.011c0-1.106.906-2.01 2.013-2.01h.05c1.108 0 2.014.904 2.014 2.01 0 1.106-.906 2.01-2.013 2.01zm-6.595 0h-.05a2.018 2.018 0 01-2.014-2.011c0-1.106.906-2.01 2.014-2.01h.05c1.108 0 2.014.904 2.014 2.01 0 1.106-.906 2.01-2.014 2.01zm-6.595 0h-.05a2.018 2.018 0 01-2.014-2.011c0-1.106.907-2.01 2.014-2.01h.05c1.108 0 2.014.904 2.014 2.01 0 1.106-.906 2.01-2.014 2.01zm-6.594 0h-.05a2.018 2.018 0 01-2.014-2.011c0-1.106.906-2.01 2.013-2.01h.05c1.108 0 2.014.904 2.014 2.01 0 1.106-.906 2.01-2.013 2.01zm-6.595 0a2.018 2.018 0 01-2.014-2.011c0-1.106.856-2.01 2.014-2.01h.05c1.108 0 2.014.904 2.014 2.01 0 1.106-.956 2.01-2.064 2.01zm-6.595 0a2.018 2.018 0 01-2.013-2.011c0-1.106.856-2.01 2.013-2.01h.05c1.108 0 2.014.904 2.014 2.01 0 1.106-.956 2.01-2.064 2.01zm-6.594 0h-.05A2.018 2.018 0 01.251 86.46c0-1.106.906-2.01 2.013-2.01h.05c1.108 0 2.014.904 2.014 2.01 0 1.106-.855 2.01-2.013 2.01zm-6.545 0h-.05a2.018 2.018 0 01-2.014-2.011c0-1.106.907-2.01 2.014-2.01h.05c1.108 0 2.014.904 2.014 2.01 0 1.106-.906 2.01-2.014 2.01zm-6.594 0h-.05a2.018 2.018 0 01-2.014-2.011c0-1.106.906-2.01 2.013-2.01h.05c1.108 0 2.014.904 2.014 2.01 0 1.106-.906 2.01-2.013 2.01zm-6.595 0h-.05a2.018 2.018 0 01-2.014-2.011c0-1.106.906-2.01 2.014-2.01h.05c1.108 0 2.014.904 2.014 2.01 0 1.106-.906 2.01-2.014 2.01zm-6.595 0a2.018 2.018 0 01-2.013-2.011c0-1.106.856-2.01 2.014-2.01h.05c1.107 0 2.014.904 2.014 2.01 0 1.106-.957 2.01-2.064 2.01zm-6.594 0a2.018 2.018 0 01-2.014-2.011c0-1.106.856-2.01 2.014-2.01h.05c1.108 0 2.014.904 2.014 2.01 0 1.106-.957 2.01-2.064 2.01zm-6.595 0h-.05a2.018 2.018 0 01-2.014-2.011c0-1.106.906-2.01 2.014-2.01h.05c1.108 0 2.014.904 2.014 2.01 0 1.106-.906 2.01-2.014 2.01zm-6.595 0h-.05a2.018 2.018 0 01-2.013-2.011c0-1.106.906-2.01 2.013-2.01h.05c1.108 0 2.014.904 2.014 2.01 0 1.106-.906 2.01-2.014 2.01zm-6.594 0h-.05a2.018 2.018 0 01-2.014-2.011c0-1.106.906-2.01 2.014-2.01h.05c1.107 0 2.014.904 2.014 2.01 0 1.106-.907 2.01-2.014 2.01zm138.377-.002a2.018 2.018 0 01-2.013-2.011c0-1.106.906-2.01 2.013-2.01 1.108 0 2.014.904 2.014 2.01 0 1.106-.906 2.01-2.014 2.01zm-6.585-7.038h-.05a2.018 2.018 0 01-2.014-2.01c0-1.106.906-2.01 2.014-2.01h.05c1.108 0 2.014.904 2.014 2.01 0 1.106-.906 2.01-2.014 2.01zm-6.594 0h-.05a2.018 2.018 0 01-2.014-2.01c0-1.106.906-2.01 2.013-2.01h.05c1.108 0 2.014.904 2.014 2.01 0 1.106-.856 2.01-2.013 2.01zm-6.545 0h-.05a2.018 2.018 0 01-2.014-2.01c0-1.106.906-2.01 2.014-2.01h.05c1.108 0 2.014.904 2.014 2.01 0 1.106-.906 2.01-2.014 2.01zm-6.594 0h-.05a2.018 2.018 0 01-2.014-2.01c0-1.106.906-2.01 2.013-2.01h.05c1.108 0 2.014.904 2.014 2.01 0 1.106-.906 2.01-2.013 2.01zm-6.595 0a2.018 2.018 0 01-2.014-2.01c0-1.106.856-2.01 2.014-2.01h.05c1.108 0 2.014.904 2.014 2.01 0 1.106-.957 2.01-2.064 2.01zm-6.595 0a2.018 2.018 0 01-2.013-2.01c0-1.106.855-2.01 2.013-2.01h.05c1.108 0 2.014.904 2.014 2.01 0 1.106-.956 2.01-2.064 2.01zm-6.594 0h-.05a2.018 2.018 0 01-2.014-2.01c0-1.106.906-2.01 2.013-2.01h.05c1.108 0 2.014.904 2.014 2.01 0 1.106-.906 2.01-2.013 2.01zm-6.595 0h-.05a2.018 2.018 0 01-2.014-2.01c0-1.106.906-2.01 2.014-2.01h.05c1.108 0 2.014.904 2.014 2.01 0 1.106-.906 2.01-2.014 2.01zm-6.595 0h-.05a2.018 2.018 0 01-2.014-2.01c0-1.106.907-2.01 2.014-2.01h.05c1.108 0 2.014.904 2.014 2.01 0 1.106-.906 2.01-2.014 2.01zm-6.594 0h-.05a2.018 2.018 0 01-2.014-2.01c0-1.106.906-2.01 2.013-2.01h.05c1.108 0 2.014.904 2.014 2.01 0 1.106-.906 2.01-2.013 2.01zm-6.595 0a2.018 2.018 0 01-2.014-2.01c0-1.106.856-2.01 2.014-2.01h.05c1.108 0 2.014.904 2.014 2.01 0 1.106-.956 2.01-2.064 2.01zm-6.595 0a2.018 2.018 0 01-2.013-2.01c0-1.106.856-2.01 2.013-2.01h.05c1.108 0 2.014.904 2.014 2.01 0 1.106-.956 2.01-2.064 2.01zm-6.594 0h-.05a2.018 2.018 0 01-2.014-2.01c0-1.106.906-2.01 2.013-2.01h.05c1.108 0 2.014.904 2.014 2.01 0 1.106-.855 2.01-2.013 2.01zm-6.545 0h-.05a2.018 2.018 0 01-2.014-2.01c0-1.106.907-2.01 2.014-2.01h.05c1.108 0 2.014.904 2.014 2.01 0 1.106-.906 2.01-2.014 2.01zm-6.594 0h-.05a2.018 2.018 0 01-2.014-2.01c0-1.106.906-2.01 2.013-2.01h.05c1.108 0 2.014.904 2.014 2.01 0 1.106-.906 2.01-2.013 2.01zm-6.595 0h-.05a2.018 2.018 0 01-2.014-2.01c0-1.106.906-2.01 2.014-2.01h.05c1.108 0 2.014.904 2.014 2.01 0 1.106-.906 2.01-2.014 2.01zm-6.595 0a2.018 2.018 0 01-2.013-2.01c0-1.106.856-2.01 2.014-2.01h.05c1.107 0 2.014.904 2.014 2.01 0 1.106-.957 2.01-2.064 2.01zm-6.594 0a2.018 2.018 0 01-2.014-2.01c0-1.106.856-2.01 2.014-2.01h.05c1.108 0 2.014.904 2.014 2.01 0 1.106-.957 2.01-2.064 2.01zm-6.595 0h-.05a2.018 2.018 0 01-2.014-2.01c0-1.106.906-2.01 2.014-2.01h.05c1.108 0 2.014.904 2.014 2.01 0 1.106-.906 2.01-2.014 2.01zm-6.595 0h-.05a2.018 2.018 0 01-2.013-2.01c0-1.106.906-2.01 2.013-2.01h.05c1.108 0 2.014.904 2.014 2.01 0 1.106-.906 2.01-2.014 2.01zm-6.594 0h-.05a2.018 2.018 0 01-2.014-2.01c0-1.106.906-2.01 2.014-2.01h.05c1.107 0 2.014.904 2.014 2.01 0 1.106-.907 2.01-2.014 2.01zm138.377-.002a2.018 2.018 0 01-2.013-2.01c0-1.106.906-2.01 2.013-2.01 1.108 0 2.014.904 2.014 2.01 0 1.106-.906 2.01-2.014 2.01zm-6.585-7.037h-.05a2.018 2.018 0 01-2.014-2.01c0-1.106.906-2.01 2.014-2.01h.05c1.108 0 2.014.904 2.014 2.01 0 1.106-.906 2.01-2.014 2.01zm-6.594 0h-.05a2.018 2.018 0 01-2.014-2.01c0-1.106.906-2.01 2.013-2.01h.05c1.108 0 2.014.904 2.014 2.01 0 1.106-.856 2.01-2.013 2.01zm-6.545 0h-.05a2.018 2.018 0 01-2.014-2.01c0-1.106.906-2.01 2.014-2.01h.05c1.108 0 2.014.904 2.014 2.01 0 1.106-.906 2.01-2.014 2.01zm-6.594 0h-.05a2.018 2.018 0 01-2.014-2.01c0-1.106.906-2.01 2.013-2.01h.05c1.108 0 2.014.904 2.014 2.01 0 1.106-.906 2.01-2.013 2.01zm-6.595 0a2.018 2.018 0 01-2.014-2.01c0-1.106.856-2.01 2.014-2.01h.05c1.108 0 2.014.904 2.014 2.01 0 1.106-.957 2.01-2.064 2.01zm-6.595 0a2.018 2.018 0 01-2.013-2.01c0-1.106.855-2.01 2.013-2.01h.05c1.108 0 2.014.904 2.014 2.01 0 1.106-.956 2.01-2.064 2.01zm-6.594 0h-.05a2.018 2.018 0 01-2.014-2.01c0-1.106.906-2.01 2.013-2.01h.05c1.108 0 2.014.904 2.014 2.01 0 1.106-.906 2.01-2.013 2.01zm-6.595 0h-.05a2.018 2.018 0 01-2.014-2.01c0-1.106.906-2.01 2.014-2.01h.05c1.108 0 2.014.904 2.014 2.01 0 1.106-.906 2.01-2.014 2.01zm-6.595 0h-.05a2.018 2.018 0 01-2.014-2.01c0-1.106.907-2.01 2.014-2.01h.05c1.108 0 2.014.904 2.014 2.01 0 1.106-.906 2.01-2.014 2.01zm-6.594 0h-.05a2.018 2.018 0 01-2.014-2.01c0-1.106.906-2.01 2.013-2.01h.05c1.108 0 2.014.904 2.014 2.01 0 1.106-.906 2.01-2.013 2.01zm-6.595 0a2.018 2.018 0 01-2.014-2.01c0-1.106.856-2.01 2.014-2.01h.05c1.108 0 2.014.904 2.014 2.01 0 1.106-.956 2.01-2.064 2.01zm-6.595 0a2.018 2.018 0 01-2.013-2.01c0-1.106.856-2.01 2.013-2.01h.05c1.108 0 2.014.904 2.014 2.01 0 1.106-.956 2.01-2.064 2.01zm-6.594 0h-.05a2.018 2.018 0 01-2.014-2.01c0-1.106.906-2.01 2.013-2.01h.05c1.108 0 2.014.904 2.014 2.01 0 1.106-.855 2.01-2.013 2.01zm-6.545 0h-.05a2.018 2.018 0 01-2.014-2.01c0-1.106.907-2.01 2.014-2.01h.05c1.108 0 2.014.904 2.014 2.01 0 1.106-.906 2.01-2.014 2.01zm-6.594 0h-.05a2.018 2.018 0 01-2.014-2.01c0-1.106.906-2.01 2.013-2.01h.05c1.108 0 2.014.904 2.014 2.01 0 1.106-.906 2.01-2.013 2.01zm-6.595 0h-.05a2.018 2.018 0 01-2.014-2.01c0-1.106.906-2.01 2.014-2.01h.05c1.108 0 2.014.904 2.014 2.01 0 1.106-.906 2.01-2.014 2.01zm-6.595 0a2.018 2.018 0 01-2.013-2.01c0-1.106.856-2.01 2.014-2.01h.05c1.107 0 2.014.904 2.014 2.01 0 1.106-.957 2.01-2.064 2.01zm-6.594 0a2.018 2.018 0 01-2.014-2.01c0-1.106.856-2.01 2.014-2.01h.05c1.108 0 2.014.904 2.014 2.01 0 1.106-.957 2.01-2.064 2.01zm-6.595 0h-.05a2.018 2.018 0 01-2.014-2.01c0-1.106.906-2.01 2.014-2.01h.05c1.108 0 2.014.904 2.014 2.01 0 1.106-.906 2.01-2.014 2.01zm-6.595 0h-.05a2.018 2.018 0 01-2.013-2.01c0-1.106.906-2.01 2.013-2.01h.05c1.108 0 2.014.904 2.014 2.01 0 1.106-.906 2.01-2.014 2.01zm-6.594 0h-.05a2.018 2.018 0 01-2.014-2.01c0-1.106.906-2.01 2.014-2.01h.05c1.107 0 2.014.904 2.014 2.01 0 1.106-.907 2.01-2.014 2.01zm138.377.002a2.018 2.018 0 01-2.013-2.01c0-1.106.906-2.011 2.013-2.011 1.108 0 2.014.905 2.014 2.01a2.018 2.018 0 01-2.014 2.011zm-6.585-7.039h-.05a2.018 2.018 0 01-2.014-2.01c0-1.106.906-2.011 2.014-2.011h.05c1.108 0 2.014.905 2.014 2.01a2.018 2.018 0 01-2.014 2.011zm-6.594 0h-.05a2.018 2.018 0 01-2.014-2.01c0-1.106.906-2.011 2.013-2.011h.05c1.108 0 2.014.905 2.014 2.01a1.986 1.986 0 01-2.013 2.011zm-6.545 0h-.05a2.018 2.018 0 01-2.014-2.01c0-1.106.906-2.011 2.014-2.011h.05c1.108 0 2.014.905 2.014 2.01a2.018 2.018 0 01-2.014 2.011zm-6.594 0h-.05a2.018 2.018 0 01-2.014-2.01c0-1.106.906-2.011 2.013-2.011h.05c1.108 0 2.014.905 2.014 2.01a2.018 2.018 0 01-2.013 2.011zm-6.595 0a2.018 2.018 0 01-2.014-2.01c0-1.106.856-2.011 2.014-2.011h.05c1.108 0 2.014.905 2.014 2.01 0 1.106-.957 2.011-2.064 2.011zm-6.595 0a2.018 2.018 0 01-2.013-2.01c0-1.106.855-2.011 2.013-2.011h.05c1.108 0 2.014.905 2.014 2.01 0 1.106-.956 2.011-2.064 2.011zm-6.594 0h-.05a2.018 2.018 0 01-2.014-2.01c0-1.106.906-2.011 2.013-2.011h.05c1.108 0 2.014.905 2.014 2.01a2.018 2.018 0 01-2.013 2.011zm-6.595 0h-.05a2.018 2.018 0 01-2.014-2.01c0-1.106.906-2.011 2.014-2.011h.05c1.108 0 2.014.905 2.014 2.01a2.018 2.018 0 01-2.014 2.011zm-6.595 0h-.05a2.018 2.018 0 01-2.014-2.01c0-1.106.907-2.011 2.014-2.011h.05c1.108 0 2.014.905 2.014 2.01a2.018 2.018 0 01-2.014 2.011zm-6.594 0h-.05a2.018 2.018 0 01-2.014-2.01c0-1.106.906-2.011 2.013-2.011h.05c1.108 0 2.014.905 2.014 2.01a2.018 2.018 0 01-2.013 2.011zm-6.595 0a2.018 2.018 0 01-2.014-2.01c0-1.106.856-2.011 2.014-2.011h.05c1.108 0 2.014.905 2.014 2.01 0 1.106-.956 2.011-2.064 2.011zm-6.595 0a2.018 2.018 0 01-2.013-2.01c0-1.106.856-2.011 2.013-2.011h.05c1.108 0 2.014.905 2.014 2.01 0 1.106-.956 2.011-2.064 2.011zm-6.594 0h-.05a2.018 2.018 0 01-2.014-2.01c0-1.106.906-2.011 2.013-2.011h.05c1.108 0 2.014.905 2.014 2.01a1.986 1.986 0 01-2.013 2.011zm-6.545 0h-.05a2.018 2.018 0 01-2.014-2.01c0-1.106.907-2.011 2.014-2.011h.05c1.108 0 2.014.905 2.014 2.01a2.018 2.018 0 01-2.014 2.011zm-6.594 0h-.05a2.018 2.018 0 01-2.014-2.01c0-1.106.906-2.011 2.013-2.011h.05c1.108 0 2.014.905 2.014 2.01a2.018 2.018 0 01-2.013 2.011zm-6.595 0h-.05a2.018 2.018 0 01-2.014-2.01c0-1.106.906-2.011 2.014-2.011h.05c1.108 0 2.014.905 2.014 2.01a2.018 2.018 0 01-2.014 2.011zm-6.595 0a2.018 2.018 0 01-2.013-2.01c0-1.106.856-2.011 2.014-2.011h.05c1.107 0 2.014.905 2.014 2.01 0 1.106-.957 2.011-2.064 2.011zm-6.594 0a2.018 2.018 0 01-2.014-2.01c0-1.106.856-2.011 2.014-2.011h.05c1.108 0 2.014.905 2.014 2.01 0 1.106-.957 2.011-2.064 2.011zm-6.595 0h-.05a2.018 2.018 0 01-2.014-2.01c0-1.106.906-2.011 2.014-2.011h.05c1.108 0 2.014.905 2.014 2.01a2.018 2.018 0 01-2.014 2.011zm-6.595 0h-.05a2.018 2.018 0 01-2.013-2.01c0-1.106.906-2.011 2.013-2.011h.05c1.108 0 2.014.905 2.014 2.01a2.018 2.018 0 01-2.014 2.011zm-6.594 0h-.05a2.018 2.018 0 01-2.014-2.01c0-1.106.906-2.011 2.014-2.011h.05c1.107 0 2.014.905 2.014 2.01a2.019 2.019 0 01-2.014 2.011zm138.377 0a2.018 2.018 0 01-2.013-2.01c0-1.106.906-2.011 2.013-2.011 1.108 0 2.014.905 2.014 2.01a2.018 2.018 0 01-2.014 2.011zm-6.585-7.036h-.05a2.018 2.018 0 01-2.014-2.01c0-1.106.906-2.011 2.014-2.011h.05c1.108 0 2.014.905 2.014 2.01a2.018 2.018 0 01-2.014 2.011zm-6.594 0h-.05a2.018 2.018 0 01-2.014-2.01c0-1.106.906-2.011 2.013-2.011h.05c1.108 0 2.014.905 2.014 2.01a1.986 1.986 0 01-2.013 2.011zm-6.545 0h-.05a2.018 2.018 0 01-2.014-2.01c0-1.106.906-2.011 2.014-2.011h.05c1.108 0 2.014.905 2.014 2.01a2.018 2.018 0 01-2.014 2.011zm-6.594 0h-.05a2.018 2.018 0 01-2.014-2.01c0-1.106.906-2.011 2.013-2.011h.05c1.108 0 2.014.905 2.014 2.01a2.018 2.018 0 01-2.013 2.011zm-6.595 0a2.018 2.018 0 01-2.014-2.01c0-1.106.856-2.011 2.014-2.011h.05c1.108 0 2.014.905 2.014 2.01 0 1.106-.957 2.011-2.064 2.011zm-6.595 0a2.018 2.018 0 01-2.013-2.01c0-1.106.855-2.011 2.013-2.011h.05c1.108 0 2.014.905 2.014 2.01 0 1.106-.956 2.011-2.064 2.011zm-6.594 0h-.05a2.018 2.018 0 01-2.014-2.01c0-1.106.906-2.011 2.013-2.011h.05c1.108 0 2.014.905 2.014 2.01a2.018 2.018 0 01-2.013 2.011zm-6.595 0h-.05a2.018 2.018 0 01-2.014-2.01c0-1.106.906-2.011 2.014-2.011h.05c1.108 0 2.014.905 2.014 2.01a2.018 2.018 0 01-2.014 2.011zm-6.595 0h-.05a2.018 2.018 0 01-2.014-2.01c0-1.106.907-2.011 2.014-2.011h.05c1.108 0 2.014.905 2.014 2.01a2.018 2.018 0 01-2.014 2.011zm-6.594 0h-.05a2.018 2.018 0 01-2.014-2.01c0-1.106.906-2.011 2.013-2.011h.05c1.108 0 2.014.905 2.014 2.01A2.018 2.018 0 0122.1 60.32zm-6.595 0a2.018 2.018 0 01-2.014-2.01c0-1.106.856-2.011 2.014-2.011h.05c1.108 0 2.014.905 2.014 2.01 0 1.106-.956 2.011-2.064 2.011zm-6.595 0a2.018 2.018 0 01-2.013-2.01c0-1.106.856-2.011 2.013-2.011h.05c1.108 0 2.014.905 2.014 2.01 0 1.106-.956 2.011-2.064 2.011zm-6.594 0h-.05a2.018 2.018 0 01-2.014-2.01c0-1.106.906-2.011 2.013-2.011h.05c1.108 0 2.014.905 2.014 2.01a1.986 1.986 0 01-2.013 2.011zm-6.545 0h-.05a2.018 2.018 0 01-2.014-2.01c0-1.106.907-2.011 2.014-2.011h.05c1.108 0 2.014.905 2.014 2.01a2.018 2.018 0 01-2.014 2.011zm-6.594 0h-.05a2.018 2.018 0 01-2.014-2.01c0-1.106.906-2.011 2.013-2.011h.05c1.108 0 2.014.905 2.014 2.01a2.018 2.018 0 01-2.013 2.011zm-6.595 0h-.05a2.018 2.018 0 01-2.014-2.01c0-1.106.906-2.011 2.014-2.011h.05c1.108 0 2.014.905 2.014 2.01a2.018 2.018 0 01-2.014 2.011zm-6.595 0a2.018 2.018 0 01-2.013-2.01c0-1.106.856-2.011 2.014-2.011h.05c1.107 0 2.014.905 2.014 2.01 0 1.106-.957 2.011-2.064 2.011zm-6.594 0a2.018 2.018 0 01-2.014-2.01c0-1.106.856-2.011 2.014-2.011h.05c1.108 0 2.014.905 2.014 2.01 0 1.106-.957 2.011-2.064 2.011zm-6.595 0h-.05a2.018 2.018 0 01-2.014-2.01c0-1.106.906-2.011 2.014-2.011h.05c1.108 0 2.014.905 2.014 2.01a2.018 2.018 0 01-2.014 2.011zm-6.595 0h-.05a2.018 2.018 0 01-2.013-2.01c0-1.106.906-2.011 2.013-2.011h.05c1.108 0 2.014.905 2.014 2.01a2.018 2.018 0 01-2.014 2.011zm-6.594 0h-.05a2.018 2.018 0 01-2.014-2.01c0-1.106.906-2.011 2.014-2.011h.05c1.107 0 2.014.905 2.014 2.01a2.019 2.019 0 01-2.014 2.011zm138.377-.002a2.018 2.018 0 01-2.013-2.01c0-1.106.906-2.011 2.013-2.011 1.108 0 2.014.905 2.014 2.01a2.018 2.018 0 01-2.014 2.011zm-6.585-7.037h-.05a2.018 2.018 0 01-2.014-2.01c0-1.107.906-2.011 2.014-2.011h.05c1.108 0 2.014.904 2.014 2.01a2.018 2.018 0 01-2.014 2.011zm-6.594 0h-.05a2.018 2.018 0 01-2.014-2.01c0-1.107.906-2.011 2.013-2.011h.05c1.108 0 2.014.904 2.014 2.01a1.986 1.986 0 01-2.013 2.011zm-6.545 0h-.05a2.018 2.018 0 01-2.014-2.01c0-1.107.906-2.011 2.014-2.011h.05c1.108 0 2.014.904 2.014 2.01a2.018 2.018 0 01-2.014 2.011zm-6.594 0h-.05a2.018 2.018 0 01-2.014-2.01c0-1.107.906-2.011 2.013-2.011h.05c1.108 0 2.014.904 2.014 2.01a2.018 2.018 0 01-2.013 2.011zm-6.595 0a2.018 2.018 0 01-2.014-2.01c0-1.107.856-2.011 2.014-2.011h.05c1.108 0 2.014.904 2.014 2.01 0 1.106-.957 2.011-2.064 2.011zm-6.595 0a2.018 2.018 0 01-2.013-2.01c0-1.107.855-2.011 2.013-2.011h.05c1.108 0 2.014.904 2.014 2.01 0 1.106-.956 2.011-2.064 2.011zm-6.594 0h-.05a2.018 2.018 0 01-2.014-2.01c0-1.107.906-2.011 2.013-2.011h.05c1.108 0 2.014.904 2.014 2.01a2.018 2.018 0 01-2.013 2.011zm-6.595 0h-.05a2.018 2.018 0 01-2.014-2.01c0-1.107.906-2.011 2.014-2.011h.05c1.108 0 2.014.904 2.014 2.01a2.018 2.018 0 01-2.014 2.011zm-6.595 0h-.05a2.018 2.018 0 01-2.014-2.01c0-1.107.907-2.011 2.014-2.011h.05c1.108 0 2.014.904 2.014 2.01a2.018 2.018 0 01-2.014 2.011zm-6.594 0h-.05a2.018 2.018 0 01-2.014-2.01c0-1.107.906-2.011 2.013-2.011h.05c1.108 0 2.014.904 2.014 2.01a2.018 2.018 0 01-2.013 2.011zm-6.595 0a2.018 2.018 0 01-2.014-2.01c0-1.107.856-2.011 2.014-2.011h.05c1.108 0 2.014.904 2.014 2.01 0 1.106-.956 2.011-2.064 2.011zm-6.595 0a2.018 2.018 0 01-2.013-2.01c0-1.107.856-2.011 2.013-2.011h.05c1.108 0 2.014.904 2.014 2.01 0 1.106-.956 2.011-2.064 2.011zm-6.594 0h-.05a2.018 2.018 0 01-2.014-2.01c0-1.107.906-2.011 2.013-2.011h.05c1.108 0 2.014.904 2.014 2.01a1.986 1.986 0 01-2.013 2.011zm-6.545 0h-.05a2.018 2.018 0 01-2.014-2.01c0-1.107.907-2.011 2.014-2.011h.05c1.108 0 2.014.904 2.014 2.01a2.018 2.018 0 01-2.014 2.011zm-6.594 0h-.05a2.018 2.018 0 01-2.014-2.01c0-1.107.906-2.011 2.013-2.011h.05c1.108 0 2.014.904 2.014 2.01a2.018 2.018 0 01-2.013 2.011zm-6.595 0h-.05a2.018 2.018 0 01-2.014-2.01c0-1.107.906-2.011 2.014-2.011h.05c1.108 0 2.014.904 2.014 2.01a2.018 2.018 0 01-2.014 2.011zm-6.595 0a2.018 2.018 0 01-2.013-2.01c0-1.107.856-2.011 2.014-2.011h.05c1.107 0 2.014.904 2.014 2.01 0 1.106-.957 2.011-2.064 2.011zm-6.594 0a2.018 2.018 0 01-2.014-2.01c0-1.107.856-2.011 2.014-2.011h.05c1.108 0 2.014.904 2.014 2.01 0 1.106-.957 2.011-2.064 2.011zm-6.595 0h-.05a2.018 2.018 0 01-2.014-2.01c0-1.107.906-2.011 2.014-2.011h.05c1.108 0 2.014.904 2.014 2.01a2.018 2.018 0 01-2.014 2.011zm-6.595 0h-.05a2.018 2.018 0 01-2.013-2.01c0-1.107.906-2.011 2.013-2.011h.05c1.108 0 2.014.904 2.014 2.01a2.018 2.018 0 01-2.014 2.011zm-6.594 0h-.05a2.018 2.018 0 01-2.014-2.01c0-1.107.906-2.011 2.014-2.011h.05c1.107 0 2.014.904 2.014 2.01a2.019 2.019 0 01-2.014 2.011zm138.377.001a2.018 2.018 0 01-2.013-2.01c0-1.106.906-2.011 2.013-2.011 1.108 0 2.014.904 2.014 2.01a2.018 2.018 0 01-2.014 2.011zm-6.585-7.037h-.05a2.018 2.018 0 01-2.014-2.01c0-1.107.906-2.011 2.014-2.011h.05c1.108 0 2.014.904 2.014 2.01 0 1.106-.906 2.01-2.014 2.01zm-6.594 0h-.05a2.018 2.018 0 01-2.014-2.01c0-1.107.906-2.011 2.013-2.011h.05c1.108 0 2.014.904 2.014 2.01 0 1.106-.856 2.01-2.013 2.01zm-6.545 0h-.05a2.018 2.018 0 01-2.014-2.01c0-1.107.906-2.011 2.014-2.011h.05c1.108 0 2.014.904 2.014 2.01 0 1.106-.906 2.01-2.014 2.01zm-6.594 0h-.05a2.018 2.018 0 01-2.014-2.01c0-1.107.906-2.011 2.013-2.011h.05c1.108 0 2.014.904 2.014 2.01 0 1.106-.906 2.01-2.013 2.01zm-6.595 0a2.018 2.018 0 01-2.014-2.01c0-1.107.856-2.011 2.014-2.011h.05c1.108 0 2.014.904 2.014 2.01 0 1.106-.957 2.01-2.064 2.01zm-6.595 0a2.018 2.018 0 01-2.013-2.01c0-1.107.855-2.011 2.013-2.011h.05c1.108 0 2.014.904 2.014 2.01 0 1.106-.956 2.01-2.064 2.01zm-6.594 0h-.05a2.018 2.018 0 01-2.014-2.01c0-1.107.906-2.011 2.013-2.011h.05c1.108 0 2.014.904 2.014 2.01 0 1.106-.906 2.01-2.013 2.01zm-6.595 0h-.05a2.018 2.018 0 01-2.014-2.01c0-1.107.906-2.011 2.014-2.011h.05c1.108 0 2.014.904 2.014 2.01 0 1.106-.906 2.01-2.014 2.01zm-6.595 0h-.05a2.018 2.018 0 01-2.014-2.01c0-1.107.907-2.011 2.014-2.011h.05c1.108 0 2.014.904 2.014 2.01 0 1.106-.906 2.01-2.014 2.01zm-6.594 0h-.05a2.018 2.018 0 01-2.014-2.01c0-1.107.906-2.011 2.013-2.011h.05c1.108 0 2.014.904 2.014 2.01 0 1.106-.906 2.01-2.013 2.01zm-6.595 0a2.018 2.018 0 01-2.014-2.01c0-1.107.856-2.011 2.014-2.011h.05c1.108 0 2.014.904 2.014 2.01 0 1.106-.956 2.01-2.064 2.01zm-6.595 0a2.018 2.018 0 01-2.013-2.01c0-1.107.856-2.011 2.013-2.011h.05c1.108 0 2.014.904 2.014 2.01 0 1.106-.956 2.01-2.064 2.01zm-6.594 0h-.05a2.018 2.018 0 01-2.014-2.01c0-1.107.906-2.011 2.013-2.011h.05c1.108 0 2.014.904 2.014 2.01 0 1.106-.855 2.01-2.013 2.01zm-6.545 0h-.05a2.018 2.018 0 01-2.014-2.01c0-1.107.907-2.011 2.014-2.011h.05c1.108 0 2.014.904 2.014 2.01 0 1.106-.906 2.01-2.014 2.01zm-6.594 0h-.05a2.018 2.018 0 01-2.014-2.01c0-1.107.906-2.011 2.013-2.011h.05c1.108 0 2.014.904 2.014 2.01 0 1.106-.906 2.01-2.013 2.01zm-6.595 0h-.05a2.018 2.018 0 01-2.014-2.01c0-1.107.906-2.011 2.014-2.011h.05c1.108 0 2.014.904 2.014 2.01 0 1.106-.906 2.01-2.014 2.01zm-6.595 0a2.018 2.018 0 01-2.013-2.01c0-1.107.856-2.011 2.014-2.011h.05c1.107 0 2.014.904 2.014 2.01 0 1.106-.957 2.01-2.064 2.01zm-6.594 0a2.018 2.018 0 01-2.014-2.01c0-1.107.856-2.011 2.014-2.011h.05c1.108 0 2.014.904 2.014 2.01 0 1.106-.957 2.01-2.064 2.01zm-6.595 0h-.05a2.018 2.018 0 01-2.014-2.01c0-1.107.906-2.011 2.014-2.011h.05c1.108 0 2.014.904 2.014 2.01 0 1.106-.906 2.01-2.014 2.01zm-6.595 0h-.05a2.018 2.018 0 01-2.013-2.01c0-1.107.906-2.011 2.013-2.011h.05c1.108 0 2.014.904 2.014 2.01 0 1.106-.906 2.01-2.014 2.01zm-6.594 0h-.05a2.018 2.018 0 01-2.014-2.01c0-1.107.906-2.011 2.014-2.011h.05c1.107 0 2.014.904 2.014 2.01 0 1.106-.907 2.01-2.014 2.01zm138.377 0a2.018 2.018 0 01-2.013-2.01c0-1.107.906-2.011 2.013-2.011 1.108 0 2.014.904 2.014 2.01 0 1.106-.906 2.01-2.014 2.01zm-6.585-7.038h-.05a2.018 2.018 0 01-2.014-2.01c0-1.107.906-2.012 2.014-2.012h.05c1.108 0 2.014.905 2.014 2.011s-.906 2.01-2.014 2.01zm-6.594 0h-.05a2.018 2.018 0 01-2.014-2.01c0-1.107.906-2.012 2.013-2.012h.05c1.108 0 2.014.905 2.014 2.011s-.856 2.01-2.013 2.01zm-6.545 0h-.05a2.018 2.018 0 01-2.014-2.01c0-1.107.906-2.012 2.014-2.012h.05c1.108 0 2.014.905 2.014 2.011s-.906 2.01-2.014 2.01zm-6.594 0h-.05a2.018 2.018 0 01-2.014-2.01c0-1.107.906-2.012 2.013-2.012h.05c1.108 0 2.014.905 2.014 2.011s-.906 2.01-2.013 2.01zm-6.595 0a2.018 2.018 0 01-2.014-2.01c0-1.107.856-2.012 2.014-2.012h.05c1.108 0 2.014.905 2.014 2.011s-.957 2.01-2.064 2.01zm-6.595 0a2.018 2.018 0 01-2.013-2.01c0-1.107.855-2.012 2.013-2.012h.05c1.108 0 2.014.905 2.014 2.011s-.956 2.01-2.064 2.01zm-6.594 0h-.05a2.018 2.018 0 01-2.014-2.01c0-1.107.906-2.012 2.013-2.012h.05c1.108 0 2.014.905 2.014 2.011s-.906 2.01-2.013 2.01zm-6.595 0h-.05a2.018 2.018 0 01-2.014-2.01c0-1.107.906-2.012 2.014-2.012h.05c1.108 0 2.014.905 2.014 2.011s-.906 2.01-2.014 2.01zm-6.595 0h-.05a2.018 2.018 0 01-2.014-2.01 2.02 2.02 0 012.014-2.012h.05c1.108 0 2.014.905 2.014 2.011s-.906 2.01-2.014 2.01zm-6.594 0h-.05a2.018 2.018 0 01-2.014-2.01c0-1.107.906-2.012 2.013-2.012h.05c1.108 0 2.014.905 2.014 2.011s-.906 2.01-2.013 2.01zm-6.595 0a2.018 2.018 0 01-2.014-2.01c0-1.107.856-2.012 2.014-2.012h.05c1.108 0 2.014.905 2.014 2.011s-.956 2.01-2.064 2.01zm-6.595 0a2.018 2.018 0 01-2.013-2.01c0-1.107.856-2.012 2.013-2.012h.05c1.108 0 2.014.905 2.014 2.011s-.956 2.01-2.064 2.01zm-6.594 0h-.05a2.018 2.018 0 01-2.014-2.01c0-1.107.906-2.012 2.013-2.012h.05c1.108 0 2.014.905 2.014 2.011s-.855 2.01-2.013 2.01zm-6.545 0h-.05a2.018 2.018 0 01-2.014-2.01 2.02 2.02 0 012.014-2.012h.05c1.108 0 2.014.905 2.014 2.011s-.906 2.01-2.014 2.01zm-6.594 0h-.05a2.018 2.018 0 01-2.014-2.01c0-1.107.906-2.012 2.013-2.012h.05c1.108 0 2.014.905 2.014 2.011s-.906 2.01-2.013 2.01zm-6.595 0h-.05a2.018 2.018 0 01-2.014-2.01c0-1.107.906-2.012 2.014-2.012h.05c1.108 0 2.014.905 2.014 2.011s-.906 2.01-2.014 2.01zm-6.595 0a2.018 2.018 0 01-2.013-2.01c0-1.107.856-2.012 2.014-2.012h.05c1.107 0 2.014.905 2.014 2.011s-.957 2.01-2.064 2.01zm-6.594 0a2.018 2.018 0 01-2.014-2.01c0-1.107.856-2.012 2.014-2.012h.05c1.108 0 2.014.905 2.014 2.011s-.957 2.01-2.064 2.01zm-6.595 0h-.05a2.018 2.018 0 01-2.014-2.01c0-1.107.906-2.012 2.014-2.012h.05c1.108 0 2.014.905 2.014 2.011s-.906 2.01-2.014 2.01zm-6.595 0h-.05a2.018 2.018 0 01-2.013-2.01c0-1.107.906-2.012 2.013-2.012h.05c1.108 0 2.014.905 2.014 2.011s-.906 2.01-2.014 2.01zm-6.594 0h-.05a2.018 2.018 0 01-2.014-2.01c0-1.107.906-2.012 2.014-2.012h.05c1.107 0 2.014.905 2.014 2.011s-.907 2.01-2.014 2.01zm138.377 0a2.018 2.018 0 01-2.013-2.01c0-1.107.906-2.012 2.013-2.012 1.108 0 2.014.905 2.014 2.011s-.906 2.01-2.014 2.01zm-6.585-7.033h-.05a2.018 2.018 0 01-2.014-2.011c0-1.106.906-2.01 2.014-2.01h.05c1.108 0 2.014.904 2.014 2.01 0 1.106-.906 2.01-2.014 2.01zm-6.594 0h-.05a2.018 2.018 0 01-2.014-2.011c0-1.106.906-2.01 2.013-2.01h.05c1.108 0 2.014.904 2.014 2.01 0 1.106-.856 2.01-2.013 2.01zm-6.545 0h-.05a2.018 2.018 0 01-2.014-2.011c0-1.106.906-2.01 2.014-2.01h.05c1.108 0 2.014.904 2.014 2.01 0 1.106-.906 2.01-2.014 2.01zm-6.594 0h-.05a2.018 2.018 0 01-2.014-2.011c0-1.106.906-2.01 2.013-2.01h.05c1.108 0 2.014.904 2.014 2.01 0 1.106-.906 2.01-2.013 2.01zm-6.595 0a2.018 2.018 0 01-2.014-2.011c0-1.106.856-2.01 2.014-2.01h.05c1.108 0 2.014.904 2.014 2.01 0 1.106-.957 2.01-2.064 2.01zm-6.595 0a2.018 2.018 0 01-2.013-2.011c0-1.106.855-2.01 2.013-2.01h.05c1.108 0 2.014.904 2.014 2.01 0 1.106-.956 2.01-2.064 2.01zm-6.594 0h-.05a2.018 2.018 0 01-2.014-2.011c0-1.106.906-2.01 2.013-2.01h.05c1.108 0 2.014.904 2.014 2.01 0 1.106-.906 2.01-2.013 2.01zm-6.595 0h-.05a2.018 2.018 0 01-2.014-2.011c0-1.106.906-2.01 2.014-2.01h.05c1.108 0 2.014.904 2.014 2.01 0 1.106-.906 2.01-2.014 2.01zm-6.595 0h-.05a2.018 2.018 0 01-2.014-2.011c0-1.106.907-2.01 2.014-2.01h.05c1.108 0 2.014.904 2.014 2.01 0 1.106-.906 2.01-2.014 2.01zm-6.594 0h-.05a2.018 2.018 0 01-2.014-2.011c0-1.106.906-2.01 2.013-2.01h.05c1.108 0 2.014.904 2.014 2.01 0 1.106-.906 2.01-2.013 2.01zm-6.595 0a2.018 2.018 0 01-2.014-2.011c0-1.106.856-2.01 2.014-2.01h.05c1.108 0 2.014.904 2.014 2.01 0 1.106-.956 2.01-2.064 2.01zm-6.595 0a2.018 2.018 0 01-2.013-2.011c0-1.106.856-2.01 2.013-2.01h.05c1.108 0 2.014.904 2.014 2.01 0 1.106-.956 2.01-2.064 2.01zm-6.594 0h-.05a2.018 2.018 0 01-2.014-2.011c0-1.106.906-2.01 2.013-2.01h.05c1.108 0 2.014.904 2.014 2.01 0 1.106-.855 2.01-2.013 2.01zm-6.545 0h-.05a2.018 2.018 0 01-2.014-2.011c0-1.106.907-2.01 2.014-2.01h.05c1.108 0 2.014.904 2.014 2.01 0 1.106-.906 2.01-2.014 2.01zm-6.594 0h-.05a2.018 2.018 0 01-2.014-2.011c0-1.106.906-2.01 2.013-2.01h.05c1.108 0 2.014.904 2.014 2.01 0 1.106-.906 2.01-2.013 2.01zm-6.595 0h-.05a2.018 2.018 0 01-2.014-2.011c0-1.106.906-2.01 2.014-2.01h.05c1.108 0 2.014.904 2.014 2.01 0 1.106-.906 2.01-2.014 2.01zm-6.595 0a2.018 2.018 0 01-2.013-2.011c0-1.106.856-2.01 2.014-2.01h.05c1.107 0 2.014.904 2.014 2.01 0 1.106-.957 2.01-2.064 2.01zm-6.594 0a2.018 2.018 0 01-2.014-2.011c0-1.106.856-2.01 2.014-2.01h.05c1.108 0 2.014.904 2.014 2.01 0 1.106-.957 2.01-2.064 2.01zm-6.595 0h-.05a2.018 2.018 0 01-2.014-2.011c0-1.106.906-2.01 2.014-2.01h.05c1.108 0 2.014.904 2.014 2.01 0 1.106-.906 2.01-2.014 2.01zm-6.595 0h-.05a2.018 2.018 0 01-2.013-2.011c0-1.106.906-2.01 2.013-2.01h.05c1.108 0 2.014.904 2.014 2.01 0 1.106-.906 2.01-2.014 2.01zm-6.594 0h-.05a2.018 2.018 0 01-2.014-2.011c0-1.106.906-2.01 2.014-2.01h.05c1.107 0 2.014.904 2.014 2.01 0 1.106-.907 2.01-2.014 2.01zm138.377 0a2.018 2.018 0 01-2.013-2.011c0-1.106.906-2.01 2.013-2.01 1.108 0 2.014.904 2.014 2.01 0 1.106-.906 2.01-2.014 2.01zm-6.585-7.042h-.05a2.018 2.018 0 01-2.014-2.011c0-1.106.906-2.01 2.014-2.01h.05c1.108 0 2.014.904 2.014 2.01 0 1.106-.906 2.01-2.014 2.01zm-6.594 0h-.05a2.018 2.018 0 01-2.014-2.011c0-1.106.906-2.01 2.013-2.01h.05c1.108 0 2.014.904 2.014 2.01 0 1.106-.856 2.01-2.013 2.01zm-6.545 0h-.05a2.018 2.018 0 01-2.014-2.011c0-1.106.906-2.01 2.014-2.01h.05c1.108 0 2.014.904 2.014 2.01 0 1.106-.906 2.01-2.014 2.01zm-6.594 0h-.05a2.018 2.018 0 01-2.014-2.011c0-1.106.906-2.01 2.013-2.01h.05c1.108 0 2.014.904 2.014 2.01 0 1.106-.906 2.01-2.013 2.01zm-6.595 0a2.018 2.018 0 01-2.014-2.011c0-1.106.856-2.01 2.014-2.01h.05c1.108 0 2.014.904 2.014 2.01 0 1.106-.957 2.01-2.064 2.01zm-6.595 0a2.018 2.018 0 01-2.013-2.011c0-1.106.855-2.01 2.013-2.01h.05c1.108 0 2.014.904 2.014 2.01 0 1.106-.956 2.01-2.064 2.01zm-6.594 0h-.05a2.018 2.018 0 01-2.014-2.011c0-1.106.906-2.01 2.013-2.01h.05c1.108 0 2.014.904 2.014 2.01 0 1.106-.906 2.01-2.013 2.01zm-6.595 0h-.05a2.018 2.018 0 01-2.014-2.011c0-1.106.906-2.01 2.014-2.01h.05c1.108 0 2.014.904 2.014 2.01 0 1.106-.906 2.01-2.014 2.01zm-6.595 0h-.05a2.018 2.018 0 01-2.014-2.011c0-1.106.907-2.01 2.014-2.01h.05c1.108 0 2.014.904 2.014 2.01 0 1.106-.906 2.01-2.014 2.01zm-6.594 0h-.05a2.018 2.018 0 01-2.014-2.011c0-1.106.906-2.01 2.013-2.01h.05c1.108 0 2.014.904 2.014 2.01 0 1.106-.906 2.01-2.013 2.01zm-6.595 0a2.018 2.018 0 01-2.014-2.011c0-1.106.856-2.01 2.014-2.01h.05c1.108 0 2.014.904 2.014 2.01 0 1.106-.956 2.01-2.064 2.01zm-6.595 0a2.018 2.018 0 01-2.013-2.011c0-1.106.856-2.01 2.013-2.01h.05c1.108 0 2.014.904 2.014 2.01 0 1.106-.956 2.01-2.064 2.01zm-6.594 0h-.05A2.018 2.018 0 01.251 23.12c0-1.106.906-2.01 2.013-2.01h.05c1.108 0 2.014.904 2.014 2.01 0 1.106-.855 2.01-2.013 2.01zm-6.545 0h-.05a2.018 2.018 0 01-2.014-2.011c0-1.106.907-2.01 2.014-2.01h.05c1.108 0 2.014.904 2.014 2.01 0 1.106-.906 2.01-2.014 2.01zm-6.594 0h-.05a2.018 2.018 0 01-2.014-2.011c0-1.106.906-2.01 2.013-2.01h.05c1.108 0 2.014.904 2.014 2.01 0 1.106-.906 2.01-2.013 2.01zm-6.595 0h-.05a2.018 2.018 0 01-2.014-2.011c0-1.106.906-2.01 2.014-2.01h.05c1.108 0 2.014.904 2.014 2.01 0 1.106-.906 2.01-2.014 2.01zm-6.595 0a2.018 2.018 0 01-2.013-2.011c0-1.106.856-2.01 2.014-2.01h.05c1.107 0 2.014.904 2.014 2.01 0 1.106-.957 2.01-2.064 2.01zm-6.594 0a2.018 2.018 0 01-2.014-2.011c0-1.106.856-2.01 2.014-2.01h.05c1.108 0 2.014.904 2.014 2.01 0 1.106-.957 2.01-2.064 2.01zm-6.595 0h-.05a2.018 2.018 0 01-2.014-2.011c0-1.106.906-2.01 2.014-2.01h.05c1.108 0 2.014.904 2.014 2.01 0 1.106-.906 2.01-2.014 2.01zm-6.595 0h-.05a2.018 2.018 0 01-2.013-2.011c0-1.106.906-2.01 2.013-2.01h.05c1.108 0 2.014.904 2.014 2.01 0 1.106-.906 2.01-2.014 2.01zm-6.594 0h-.05a2.018 2.018 0 01-2.014-2.011c0-1.106.906-2.01 2.014-2.01h.05c1.107 0 2.014.904 2.014 2.01 0 1.106-.907 2.01-2.014 2.01zm138.377 0a2.018 2.018 0 01-2.013-2.011c0-1.106.906-2.01 2.013-2.01 1.108 0 2.014.904 2.014 2.01 0 1.106-.906 2.01-2.014 2.01zm-6.585-7.034h-.05a2.018 2.018 0 01-2.014-2.01c0-1.106.906-2.01 2.014-2.01h.05c1.108 0 2.014.904 2.014 2.01 0 1.106-.906 2.01-2.014 2.01zm-6.594 0h-.05a2.018 2.018 0 01-2.014-2.01c0-1.106.906-2.01 2.013-2.01h.05c1.108 0 2.014.904 2.014 2.01 0 1.106-.856 2.01-2.013 2.01zm-6.545 0h-.05a2.018 2.018 0 01-2.014-2.01c0-1.106.906-2.01 2.014-2.01h.05c1.108 0 2.014.904 2.014 2.01 0 1.106-.906 2.01-2.014 2.01zm-6.594 0h-.05a2.018 2.018 0 01-2.014-2.01c0-1.106.906-2.01 2.013-2.01h.05c1.108 0 2.014.904 2.014 2.01 0 1.106-.906 2.01-2.013 2.01zm-6.595 0a2.018 2.018 0 01-2.014-2.01c0-1.106.856-2.01 2.014-2.01h.05c1.108 0 2.014.904 2.014 2.01 0 1.106-.957 2.01-2.064 2.01zm-6.595 0a2.018 2.018 0 01-2.013-2.01c0-1.106.855-2.01 2.013-2.01h.05c1.108 0 2.014.904 2.014 2.01 0 1.106-.956 2.01-2.064 2.01zm-6.594 0h-.05a2.018 2.018 0 01-2.014-2.01c0-1.106.906-2.01 2.013-2.01h.05c1.108 0 2.014.904 2.014 2.01 0 1.106-.906 2.01-2.013 2.01zm-6.595 0h-.05a2.018 2.018 0 01-2.014-2.01c0-1.106.906-2.01 2.014-2.01h.05c1.108 0 2.014.904 2.014 2.01 0 1.106-.906 2.01-2.014 2.01zm-6.595 0h-.05a2.018 2.018 0 01-2.014-2.01c0-1.106.907-2.01 2.014-2.01h.05c1.108 0 2.014.904 2.014 2.01 0 1.106-.906 2.01-2.014 2.01zm-6.594 0h-.05a2.018 2.018 0 01-2.014-2.01c0-1.106.906-2.01 2.013-2.01h.05c1.108 0 2.014.904 2.014 2.01 0 1.106-.906 2.01-2.013 2.01zm-6.595 0a2.018 2.018 0 01-2.014-2.01c0-1.106.856-2.01 2.014-2.01h.05c1.108 0 2.014.904 2.014 2.01 0 1.106-.956 2.01-2.064 2.01zm-6.595 0a2.018 2.018 0 01-2.013-2.01c0-1.106.856-2.01 2.013-2.01h.05c1.108 0 2.014.904 2.014 2.01 0 1.106-.956 2.01-2.064 2.01zm-6.594 0h-.05a2.018 2.018 0 01-2.014-2.01c0-1.106.906-2.01 2.013-2.01h.05c1.108 0 2.014.904 2.014 2.01 0 1.106-.855 2.01-2.013 2.01zm-6.545 0h-.05a2.018 2.018 0 01-2.014-2.01c0-1.106.907-2.01 2.014-2.01h.05c1.108 0 2.014.904 2.014 2.01 0 1.106-.906 2.01-2.014 2.01zm-6.594 0h-.05a2.018 2.018 0 01-2.014-2.01c0-1.106.906-2.01 2.013-2.01h.05c1.108 0 2.014.904 2.014 2.01 0 1.106-.906 2.01-2.013 2.01zm-6.595 0h-.05a2.018 2.018 0 01-2.014-2.01c0-1.106.906-2.01 2.014-2.01h.05c1.108 0 2.014.904 2.014 2.01 0 1.106-.906 2.01-2.014 2.01zm-6.595 0a2.018 2.018 0 01-2.013-2.01c0-1.106.856-2.01 2.014-2.01h.05c1.107 0 2.014.904 2.014 2.01 0 1.106-.957 2.01-2.064 2.01zm-6.594 0a2.018 2.018 0 01-2.014-2.01c0-1.106.856-2.01 2.014-2.01h.05c1.108 0 2.014.904 2.014 2.01 0 1.106-.957 2.01-2.064 2.01zm-6.595 0h-.05a2.018 2.018 0 01-2.014-2.01c0-1.106.906-2.01 2.014-2.01h.05c1.108 0 2.014.904 2.014 2.01 0 1.106-.906 2.01-2.014 2.01zm-6.595 0h-.05a2.018 2.018 0 01-2.013-2.01c0-1.106.906-2.01 2.013-2.01h.05c1.108 0 2.014.904 2.014 2.01 0 1.106-.906 2.01-2.014 2.01zm-6.594 0h-.05a2.018 2.018 0 01-2.014-2.01c0-1.106.906-2.01 2.014-2.01h.05c1.107 0 2.014.904 2.014 2.01 0 1.106-.907 2.01-2.014 2.01zm138.377-.002a2.018 2.018 0 01-2.013-2.01c0-1.106.906-2.01 2.013-2.01 1.108 0 2.014.904 2.014 2.01 0 1.106-.906 2.01-2.014 2.01zm-6.585-7.04h-.05a2.018 2.018 0 01-2.014-2.01c0-1.106.906-2.01 2.014-2.01h.05c1.108 0 2.014.904 2.014 2.01 0 1.106-.906 2.01-2.014 2.01zm-6.594 0h-.05a2.018 2.018 0 01-2.014-2.01c0-1.106.906-2.01 2.013-2.01h.05c1.108 0 2.014.904 2.014 2.01 0 1.106-.856 2.01-2.013 2.01zm-6.545 0h-.05a2.018 2.018 0 01-2.014-2.01c0-1.106.906-2.01 2.014-2.01h.05c1.108 0 2.014.904 2.014 2.01 0 1.106-.906 2.01-2.014 2.01zm-6.594 0h-.05a2.018 2.018 0 01-2.014-2.01c0-1.106.906-2.01 2.013-2.01h.05c1.108 0 2.014.904 2.014 2.01 0 1.106-.906 2.01-2.013 2.01zm-6.595 0a2.018 2.018 0 01-2.014-2.01c0-1.106.856-2.01 2.014-2.01h.05c1.108 0 2.014.904 2.014 2.01 0 1.106-.957 2.01-2.064 2.01zm-6.595 0a2.018 2.018 0 01-2.013-2.01c0-1.106.855-2.01 2.013-2.01h.05c1.108 0 2.014.904 2.014 2.01 0 1.106-.956 2.01-2.064 2.01zm-6.594 0h-.05a2.018 2.018 0 01-2.014-2.01c0-1.106.906-2.01 2.013-2.01h.05c1.108 0 2.014.904 2.014 2.01 0 1.106-.906 2.01-2.013 2.01zm-6.595 0h-.05a2.018 2.018 0 01-2.014-2.01c0-1.106.906-2.01 2.014-2.01h.05c1.108 0 2.014.904 2.014 2.01 0 1.106-.906 2.01-2.014 2.01zm-6.595 0h-.05a2.018 2.018 0 01-2.014-2.01c0-1.106.907-2.01 2.014-2.01h.05c1.108 0 2.014.904 2.014 2.01 0 1.106-.906 2.01-2.014 2.01zm-6.594 0h-.05a2.018 2.018 0 01-2.014-2.01c0-1.106.906-2.01 2.013-2.01h.05c1.108 0 2.014.904 2.014 2.01 0 1.106-.906 2.01-2.013 2.01zm-6.595 0a2.018 2.018 0 01-2.014-2.01c0-1.106.856-2.01 2.014-2.01h.05c1.108 0 2.014.904 2.014 2.01 0 1.106-.956 2.01-2.064 2.01zm-6.595 0a2.018 2.018 0 01-2.013-2.01c0-1.106.856-2.01 2.013-2.01h.05c1.108 0 2.014.904 2.014 2.01 0 1.106-.956 2.01-2.064 2.01zm-6.594 0h-.05a2.018 2.018 0 01-2.014-2.01c0-1.106.906-2.01 2.013-2.01h.05c1.108 0 2.014.904 2.014 2.01 0 1.106-.855 2.01-2.013 2.01zm-6.545 0h-.05a2.018 2.018 0 01-2.014-2.01c0-1.106.907-2.01 2.014-2.01h.05c1.108 0 2.014.904 2.014 2.01 0 1.106-.906 2.01-2.014 2.01zm-6.594 0h-.05a2.018 2.018 0 01-2.014-2.01c0-1.106.906-2.01 2.013-2.01h.05c1.108 0 2.014.904 2.014 2.01 0 1.106-.906 2.01-2.013 2.01zm-6.595 0h-.05a2.018 2.018 0 01-2.014-2.01c0-1.106.906-2.01 2.014-2.01h.05c1.108 0 2.014.904 2.014 2.01 0 1.106-.906 2.01-2.014 2.01zm-6.595 0a2.018 2.018 0 01-2.013-2.01c0-1.106.856-2.01 2.014-2.01h.05c1.107 0 2.014.904 2.014 2.01 0 1.106-.957 2.01-2.064 2.01zm-6.594 0a2.018 2.018 0 01-2.014-2.01c0-1.106.856-2.01 2.014-2.01h.05c1.108 0 2.014.904 2.014 2.01 0 1.106-.957 2.01-2.064 2.01zm-6.595 0h-.05a2.018 2.018 0 01-2.014-2.01c0-1.106.906-2.01 2.014-2.01h.05c1.108 0 2.014.904 2.014 2.01 0 1.106-.906 2.01-2.014 2.01zm-6.595 0h-.05a2.018 2.018 0 01-2.013-2.01c0-1.106.906-2.01 2.013-2.01h.05c1.108 0 2.014.904 2.014 2.01 0 1.106-.906 2.01-2.014 2.01zm-6.594 0h-.05a2.018 2.018 0 01-2.014-2.01c0-1.106.906-2.01 2.014-2.01h.05c1.107 0 2.014.904 2.014 2.01 0 1.106-.907 2.01-2.014 2.01zm138.377 0a2.018 2.018 0 01-2.013-2.01c0-1.106.906-2.01 2.013-2.01 1.108 0 2.014.904 2.014 2.01 0 1.106-.906 2.01-2.014 2.01zm-6.585-7.035h-.05a2.018 2.018 0 01-2.014-2.01C79.337.905 80.243 0 81.351 0h.05c1.108 0 2.014.905 2.014 2.01a2.018 2.018 0 01-2.014 2.011zm-6.594 0h-.05a2.018 2.018 0 01-2.014-2.01C72.743.905 73.649 0 74.756 0h.05c1.108 0 2.014.905 2.014 2.01a1.986 1.986 0 01-2.013 2.011zm-6.545 0h-.05a2.018 2.018 0 01-2.014-2.01C66.198.905 67.104 0 68.212 0h.05c1.108 0 2.014.905 2.014 2.01a2.018 2.018 0 01-2.014 2.011zm-6.594 0h-.05a2.018 2.018 0 01-2.014-2.01C59.604.905 60.51 0 61.617 0h.05c1.108 0 2.014.905 2.014 2.01a2.018 2.018 0 01-2.013 2.011zm-6.595 0a2.018 2.018 0 01-2.014-2.01A1.987 1.987 0 0155.073 0h.05c1.108 0 2.014.905 2.014 2.01 0 1.106-.957 2.011-2.064 2.011zm-6.595 0a2.018 2.018 0 01-2.013-2.01C46.465.905 47.32 0 48.478 0h.05c1.108 0 2.014.905 2.014 2.01 0 1.106-.956 2.011-2.064 2.011zm-6.594 0h-.05a2.018 2.018 0 01-2.014-2.01C39.82.905 40.726 0 41.833 0h.05c1.108 0 2.014.905 2.014 2.01a2.018 2.018 0 01-2.013 2.011zm-6.595 0h-.05a2.018 2.018 0 01-2.014-2.01C33.225.905 34.131 0 35.239 0h.05c1.108 0 2.014.905 2.014 2.01a2.018 2.018 0 01-2.014 2.011zm-6.595 0h-.05a2.018 2.018 0 01-2.014-2.01C26.63.905 27.537 0 28.644 0h.05c1.108 0 2.014.905 2.014 2.01a2.018 2.018 0 01-2.014 2.011zm-6.594 0h-.05a2.018 2.018 0 01-2.014-2.01C20.036.905 20.942 0 22.049 0h.05c1.108 0 2.014.905 2.014 2.01A2.018 2.018 0 0122.1 4.021zm-6.595 0a2.018 2.018 0 01-2.014-2.01C13.491.905 14.347 0 15.505 0h.05c1.108 0 2.014.905 2.014 2.01 0 1.106-.956 2.011-2.064 2.011zm-6.595 0a2.018 2.018 0 01-2.013-2.01C6.897.905 7.753 0 8.91 0h.05c1.108 0 2.014.905 2.014 2.01 0 1.106-.956 2.011-2.064 2.011zm-6.594 0h-.05a2.018 2.018 0 01-2.014-2.01C.252.905 1.158 0 2.265 0h.05C3.424 0 4.33.905 4.33 2.01a1.986 1.986 0 01-2.013 2.011zm-6.545 0h-.05a2.018 2.018 0 01-2.014-2.01C-6.293.905-5.386 0-4.279 0h.05c1.108 0 2.014.905 2.014 2.01a2.018 2.018 0 01-2.014 2.011zm-6.594 0h-.05a2.018 2.018 0 01-2.014-2.01c0-1.106.906-2.011 2.013-2.011h.05C-9.715 0-8.81.905-8.81 2.01a2.018 2.018 0 01-2.013 2.011zm-6.595 0h-.05a2.018 2.018 0 01-2.014-2.01c0-1.106.906-2.011 2.014-2.011h.05c1.108 0 2.014.905 2.014 2.01a2.018 2.018 0 01-2.014 2.011zm-6.595 0a2.018 2.018 0 01-2.013-2.01C-26.026.905-25.17 0-24.012 0h.05c1.107 0 2.014.905 2.014 2.01 0 1.106-.957 2.011-2.064 2.011zm-6.594 0a2.018 2.018 0 01-2.014-2.01A1.987 1.987 0 01-30.607 0h.05c1.108 0 2.014.905 2.014 2.01 0 1.106-.957 2.011-2.064 2.011zm-6.595 0h-.05a2.018 2.018 0 01-2.014-2.01C-39.266.905-38.36 0-37.252 0h.05c1.108 0 2.014.905 2.014 2.01a2.018 2.018 0 01-2.014 2.011zm-6.595 0h-.05a2.018 2.018 0 01-2.013-2.01C-45.86.905-44.954 0-43.847 0h.05c1.108 0 2.014.905 2.014 2.01a2.018 2.018 0 01-2.014 2.011zm-6.594 0h-.05a2.018 2.018 0 01-2.014-2.01C-52.455.905-51.55 0-50.441 0h.05c1.107 0 2.014.905 2.014 2.01a2.019 2.019 0 01-2.014 2.011zm138.378 0a2.018 2.018 0 01-2.013-2.01C85.974.905 86.88 0 87.987 0c1.108 0 2.014.905 2.014 2.01a2.018 2.018 0 01-2.014 2.011z" fill="#B2DBEB"/></mask><g mask="url(#a)"><circle cx="16.53" cy="75.609" r="68.985" fill="#B2DBEB"/></g></g></svg>