<svg width="158" height="160" fill="none" xmlns="http://www.w3.org/2000/svg"><path d="M3.008 159.998a2.127 2.127 0 01-2.122-2.119c0-1.166.955-2.119 2.122-2.119 1.167 0 2.122.953 2.122 2.119a2.127 2.127 0 01-2.122 2.119zm145.859.002h-.053a2.127 2.127 0 01-2.123-2.119c0-1.166.955-2.119 2.123-2.119h.053c1.167 0 2.122.953 2.122 2.119a2.127 2.127 0 01-2.122 2.119zm-6.951 0h-.053a2.127 2.127 0 01-2.122-2.119c0-1.166.955-2.119 2.122-2.119h.053c1.167 0 2.122.953 2.122 2.119a2.094 2.094 0 01-2.122 2.119zm-6.897 0h-.054a2.127 2.127 0 01-2.122-2.119c0-1.166.955-2.119 2.122-2.119h.054c1.167 0 2.122.953 2.122 2.119a2.127 2.127 0 01-2.122 2.119zm-6.951 0h-.053a2.128 2.128 0 01-2.123-2.119c0-1.166.956-2.119 2.123-2.119h.053c1.167 0 2.122.953 2.122 2.119a2.127 2.127 0 01-2.122 2.119zm-6.951 0a2.127 2.127 0 01-2.122-2.119c0-1.166.902-2.119 2.122-2.119h.053c1.168 0 2.123.953 2.123 2.119 0 1.165-1.009 2.119-2.176 2.119zm-6.95 0a2.127 2.127 0 01-2.123-2.119c0-1.166.902-2.119 2.123-2.119h.053c1.167 0 2.122.953 2.122 2.119 0 1.165-1.008 2.119-2.175 2.119zm-6.951 0h-.053a2.128 2.128 0 01-2.123-2.119c0-1.166.956-2.119 2.123-2.119h.053c1.167 0 2.122.953 2.122 2.119a2.127 2.127 0 01-2.122 2.119zm-6.951 0h-.053a2.127 2.127 0 01-2.122-2.119c0-1.166.955-2.119 2.122-2.119h.053c1.167 0 2.123.953 2.123 2.119a2.128 2.128 0 01-2.123 2.119zm-6.95 0h-.053a2.127 2.127 0 01-2.123-2.119c0-1.166.955-2.119 2.123-2.119h.052c1.168 0 2.123.953 2.123 2.119A2.127 2.127 0 0193.314 160zm-6.951 0h-.053a2.127 2.127 0 01-2.123-2.119c0-1.166.956-2.119 2.123-2.119h.053c1.167 0 2.122.953 2.122 2.119A2.127 2.127 0 0186.364 160zm-6.95 0a2.127 2.127 0 01-2.123-2.119c0-1.166.902-2.119 2.122-2.119h.053c1.168 0 2.123.953 2.123 2.119 0 1.165-1.008 2.119-2.176 2.119zm-6.951 0a2.127 2.127 0 01-2.123-2.119c0-1.166.902-2.119 2.123-2.119h.053c1.167 0 2.122.953 2.122 2.119 0 1.165-1.008 2.119-2.175 2.119zm-6.951 0h-.053a2.127 2.127 0 01-2.123-2.119c0-1.166.956-2.119 2.123-2.119h.053c1.167 0 2.122.953 2.122 2.119A2.094 2.094 0 0165.512 160zm-6.898 0h-.053a2.127 2.127 0 01-2.122-2.119c0-1.166.955-2.119 2.122-2.119h.053c1.168 0 2.123.953 2.123 2.119A2.127 2.127 0 0158.614 160zm-6.95 0h-.053a2.127 2.127 0 01-2.123-2.119c0-1.166.955-2.119 2.123-2.119h.053c1.167 0 2.122.953 2.122 2.119A2.127 2.127 0 0151.664 160zm-6.951 0h-.053a2.127 2.127 0 01-2.122-2.119c0-1.166.955-2.119 2.122-2.119h.053c1.167 0 2.122.953 2.122 2.119A2.127 2.127 0 0144.713 160zm-6.95 0a2.127 2.127 0 01-2.123-2.119c0-1.166.902-2.119 2.122-2.119h.053c1.168 0 2.123.953 2.123 2.119 0 1.165-1.009 2.119-2.176 2.119zm-6.951 0a2.127 2.127 0 01-2.123-2.119c0-1.166.902-2.119 2.123-2.119h.053c1.167 0 2.122.953 2.122 2.119 0 1.165-1.008 2.119-2.175 2.119zm-6.951 0h-.053a2.127 2.127 0 01-2.122-2.119c0-1.166.955-2.119 2.122-2.119h.053c1.167 0 2.122.953 2.122 2.119A2.127 2.127 0 0123.861 160zm-6.95 0h-.054a2.127 2.127 0 01-2.122-2.119c0-1.166.955-2.119 2.122-2.119h.053c1.168 0 2.123.953 2.123 2.119A2.127 2.127 0 0116.91 160zm-6.951 0h-.053a2.127 2.127 0 01-2.123-2.119c0-1.166.955-2.119 2.123-2.119h.053c1.167 0 2.122.953 2.122 2.119A2.127 2.127 0 019.96 160zm145.844 0a2.127 2.127 0 01-2.122-2.119c0-1.166.955-2.119 2.122-2.119 1.167 0 2.122.953 2.122 2.119a2.127 2.127 0 01-2.122 2.119zM3.008 152.58a2.127 2.127 0 01-2.122-2.119c0-1.166.955-2.119 2.122-2.119 1.167 0 2.122.953 2.122 2.119a2.127 2.127 0 01-2.122 2.119zm145.859.003h-.053a2.127 2.127 0 01-2.123-2.119c0-1.166.955-2.119 2.123-2.119h.053c1.167 0 2.122.953 2.122 2.119a2.127 2.127 0 01-2.122 2.119zm-6.951 0h-.053a2.127 2.127 0 01-2.122-2.119c0-1.166.955-2.119 2.122-2.119h.053c1.167 0 2.122.953 2.122 2.119a2.094 2.094 0 01-2.122 2.119zm-6.897 0h-.054a2.127 2.127 0 01-2.122-2.119c0-1.166.955-2.119 2.122-2.119h.054c1.167 0 2.122.953 2.122 2.119a2.127 2.127 0 01-2.122 2.119zm-6.951 0h-.053a2.128 2.128 0 01-2.123-2.119c0-1.166.956-2.119 2.123-2.119h.053c1.167 0 2.122.953 2.122 2.119a2.127 2.127 0 01-2.122 2.119zm-6.951 0a2.127 2.127 0 01-2.122-2.119c0-1.166.902-2.119 2.122-2.119h.053c1.168 0 2.123.953 2.123 2.119 0 1.165-1.009 2.119-2.176 2.119zm-6.95 0a2.127 2.127 0 01-2.123-2.119c0-1.166.902-2.119 2.123-2.119h.053c1.167 0 2.122.953 2.122 2.119 0 1.165-1.008 2.119-2.175 2.119zm-6.951 0h-.053a2.128 2.128 0 01-2.123-2.119c0-1.166.956-2.119 2.123-2.119h.053c1.167 0 2.122.953 2.122 2.119a2.127 2.127 0 01-2.122 2.119zm-6.951 0h-.053a2.127 2.127 0 01-2.122-2.119c0-1.166.955-2.119 2.122-2.119h.053c1.167 0 2.123.953 2.123 2.119a2.128 2.128 0 01-2.123 2.119zm-6.95 0h-.053a2.127 2.127 0 01-2.123-2.119c0-1.166.955-2.119 2.123-2.119h.052c1.168 0 2.123.953 2.123 2.119a2.127 2.127 0 01-2.123 2.119zm-6.951 0h-.053a2.127 2.127 0 01-2.123-2.119c0-1.166.956-2.119 2.123-2.119h.053c1.167 0 2.122.953 2.122 2.119a2.127 2.127 0 01-2.122 2.119zm-6.95 0a2.127 2.127 0 01-2.123-2.119c0-1.166.902-2.119 2.122-2.119h.053c1.168 0 2.123.953 2.123 2.119 0 1.165-1.008 2.119-2.176 2.119zm-6.951 0a2.127 2.127 0 01-2.123-2.119c0-1.166.902-2.119 2.123-2.119h.053c1.167 0 2.122.953 2.122 2.119 0 1.165-1.008 2.119-2.175 2.119zm-6.951 0h-.053a2.127 2.127 0 01-2.123-2.119c0-1.166.956-2.119 2.123-2.119h.053c1.167 0 2.122.953 2.122 2.119a2.094 2.094 0 01-2.122 2.119zm-6.898 0h-.053a2.127 2.127 0 01-2.122-2.119c0-1.166.955-2.119 2.122-2.119h.053c1.168 0 2.123.953 2.123 2.119a2.127 2.127 0 01-2.123 2.119zm-6.95 0h-.053a2.127 2.127 0 01-2.123-2.119c0-1.166.955-2.119 2.123-2.119h.053c1.167 0 2.122.953 2.122 2.119a2.127 2.127 0 01-2.122 2.119zm-6.951 0h-.053a2.127 2.127 0 01-2.122-2.119c0-1.166.955-2.119 2.122-2.119h.053c1.167 0 2.122.953 2.122 2.119a2.127 2.127 0 01-2.122 2.119zm-6.95 0a2.127 2.127 0 01-2.123-2.119c0-1.166.902-2.119 2.122-2.119h.053c1.168 0 2.123.953 2.123 2.119 0 1.165-1.009 2.119-2.176 2.119zm-6.951 0a2.127 2.127 0 01-2.123-2.119c0-1.166.902-2.119 2.123-2.119h.053c1.167 0 2.122.953 2.122 2.119 0 1.165-1.008 2.119-2.175 2.119zm-6.951 0h-.053a2.127 2.127 0 01-2.122-2.119c0-1.166.955-2.119 2.122-2.119h.053c1.167 0 2.122.953 2.122 2.119a2.127 2.127 0 01-2.122 2.119zm-6.95 0h-.054a2.127 2.127 0 01-2.122-2.119c0-1.166.955-2.119 2.122-2.119h.053c1.168 0 2.123.953 2.123 2.119a2.127 2.127 0 01-2.123 2.119zm-6.951 0h-.053a2.127 2.127 0 01-2.123-2.119c0-1.166.955-2.119 2.123-2.119h.053c1.167 0 2.122.953 2.122 2.119a2.127 2.127 0 01-2.122 2.119zm145.844-.003a2.126 2.126 0 01-2.122-2.119c0-1.166.955-2.119 2.122-2.119 1.167 0 2.122.953 2.122 2.119a2.126 2.126 0 01-2.122 2.119zM3.008 145.164a2.127 2.127 0 01-2.122-2.119c0-1.166.955-2.119 2.122-2.119 1.167 0 2.122.953 2.122 2.119a2.127 2.127 0 01-2.122 2.119zm145.859 0h-.053a2.127 2.127 0 01-2.123-2.119c0-1.166.955-2.119 2.123-2.119h.053c1.167 0 2.122.953 2.122 2.119a2.126 2.126 0 01-2.122 2.119zm-6.951 0h-.053a2.126 2.126 0 01-2.122-2.119c0-1.166.955-2.119 2.122-2.119h.053c1.167 0 2.122.953 2.122 2.119a2.093 2.093 0 01-2.122 2.119zm-6.897 0h-.054a2.126 2.126 0 01-2.122-2.119c0-1.166.955-2.119 2.122-2.119h.054c1.167 0 2.122.953 2.122 2.119a2.126 2.126 0 01-2.122 2.119zm-6.951 0h-.053a2.127 2.127 0 01-2.123-2.119c0-1.166.956-2.119 2.123-2.119h.053c1.167 0 2.122.953 2.122 2.119a2.126 2.126 0 01-2.122 2.119zm-6.951 0a2.126 2.126 0 01-2.122-2.119c0-1.166.902-2.119 2.122-2.119h.053c1.168 0 2.123.953 2.123 2.119 0 1.166-1.009 2.119-2.176 2.119zm-6.95 0a2.127 2.127 0 01-2.123-2.119c0-1.166.902-2.119 2.123-2.119h.053c1.167 0 2.122.953 2.122 2.119 0 1.166-1.008 2.119-2.175 2.119zm-6.951 0h-.053a2.127 2.127 0 01-2.123-2.119c0-1.166.956-2.119 2.123-2.119h.053c1.167 0 2.122.953 2.122 2.119a2.126 2.126 0 01-2.122 2.119zm-6.951 0h-.053a2.126 2.126 0 01-2.122-2.119c0-1.166.955-2.119 2.122-2.119h.053c1.167 0 2.123.953 2.123 2.119a2.127 2.127 0 01-2.123 2.119zm-6.95 0h-.053a2.127 2.127 0 01-2.123-2.119c0-1.166.955-2.119 2.123-2.119h.052c1.168 0 2.123.953 2.123 2.119a2.127 2.127 0 01-2.123 2.119zm-6.951 0h-.053a2.127 2.127 0 01-2.123-2.119c0-1.166.956-2.119 2.123-2.119h.053c1.167 0 2.122.953 2.122 2.119a2.127 2.127 0 01-2.122 2.119zm-6.95 0a2.127 2.127 0 01-2.123-2.119c0-1.166.902-2.119 2.122-2.119h.053c1.168 0 2.123.953 2.123 2.119 0 1.166-1.008 2.119-2.176 2.119zm-6.951 0a2.127 2.127 0 01-2.123-2.119c0-1.166.902-2.119 2.123-2.119h.053c1.167 0 2.122.953 2.122 2.119 0 1.166-1.008 2.119-2.175 2.119zm-6.951 0h-.053a2.127 2.127 0 01-2.123-2.119c0-1.166.956-2.119 2.123-2.119h.053c1.167 0 2.122.953 2.122 2.119a2.093 2.093 0 01-2.122 2.119zm-6.898 0h-.053a2.127 2.127 0 01-2.122-2.119c0-1.166.955-2.119 2.122-2.119h.053c1.168 0 2.123.953 2.123 2.119a2.127 2.127 0 01-2.123 2.119zm-6.95 0h-.053a2.127 2.127 0 01-2.123-2.119c0-1.166.955-2.119 2.123-2.119h.053c1.167 0 2.122.953 2.122 2.119a2.127 2.127 0 01-2.122 2.119zm-6.951 0h-.053a2.127 2.127 0 01-2.122-2.119c0-1.166.955-2.119 2.122-2.119h.053c1.167 0 2.122.953 2.122 2.119a2.127 2.127 0 01-2.122 2.119zm-6.95 0a2.127 2.127 0 01-2.123-2.119c0-1.166.902-2.119 2.122-2.119h.053c1.168 0 2.123.953 2.123 2.119 0 1.166-1.009 2.119-2.176 2.119zm-6.951 0a2.127 2.127 0 01-2.123-2.119c0-1.166.902-2.119 2.123-2.119h.053c1.167 0 2.122.953 2.122 2.119 0 1.166-1.008 2.119-2.175 2.119zm-6.951 0h-.053a2.127 2.127 0 01-2.122-2.119c0-1.166.955-2.119 2.122-2.119h.053c1.167 0 2.122.953 2.122 2.119a2.127 2.127 0 01-2.122 2.119zm-6.95 0h-.054a2.127 2.127 0 01-2.122-2.119c0-1.166.955-2.119 2.122-2.119h.053c1.168 0 2.123.953 2.123 2.119a2.127 2.127 0 01-2.123 2.119zm-6.951 0h-.053a2.127 2.127 0 01-2.123-2.119c0-1.166.955-2.119 2.123-2.119h.053c1.167 0 2.122.953 2.122 2.119a2.127 2.127 0 01-2.122 2.119zm145.844.001a2.127 2.127 0 01-2.122-2.119c0-1.166.955-2.119 2.122-2.119 1.167 0 2.122.953 2.122 2.119a2.127 2.127 0 01-2.122 2.119zM3.008 137.746a2.127 2.127 0 01-2.122-2.119c0-1.166.955-2.119 2.122-2.119 1.167 0 2.122.953 2.122 2.119a2.127 2.127 0 01-2.122 2.119zm145.858.002h-.053a2.127 2.127 0 01-2.123-2.119c0-1.166.955-2.119 2.123-2.119h.053c1.167 0 2.122.953 2.122 2.119a2.127 2.127 0 01-2.122 2.119zm-6.951 0h-.053a2.127 2.127 0 01-2.122-2.119c0-1.166.955-2.119 2.122-2.119h.053c1.167 0 2.122.953 2.122 2.119a2.094 2.094 0 01-2.122 2.119zm-6.897 0h-.054a2.127 2.127 0 01-2.122-2.119c0-1.166.955-2.119 2.122-2.119h.054c1.167 0 2.122.953 2.122 2.119a2.127 2.127 0 01-2.122 2.119zm-6.951 0h-.053a2.128 2.128 0 01-2.123-2.119c0-1.166.956-2.119 2.123-2.119h.053c1.167 0 2.122.953 2.122 2.119a2.127 2.127 0 01-2.122 2.119zm-6.951 0a2.127 2.127 0 01-2.122-2.119c0-1.166.902-2.119 2.122-2.119h.053c1.168 0 2.123.953 2.123 2.119 0 1.165-1.008 2.119-2.176 2.119zm-6.95 0a2.127 2.127 0 01-2.123-2.119c0-1.166.902-2.119 2.123-2.119h.053c1.167 0 2.122.953 2.122 2.119 0 1.165-1.008 2.119-2.175 2.119zm-6.951 0h-.053a2.128 2.128 0 01-2.123-2.119c0-1.166.956-2.119 2.123-2.119h.053c1.167 0 2.122.953 2.122 2.119a2.127 2.127 0 01-2.122 2.119zm-6.951 0h-.053a2.127 2.127 0 01-2.122-2.119c0-1.166.955-2.119 2.122-2.119h.053c1.167 0 2.123.953 2.123 2.119a2.128 2.128 0 01-2.123 2.119zm-6.95 0h-.053a2.127 2.127 0 01-2.123-2.119c0-1.166.955-2.119 2.122-2.119h.053c1.168 0 2.123.953 2.123 2.119a2.127 2.127 0 01-2.123 2.119zm-6.951 0h-.053a2.127 2.127 0 01-2.123-2.119c0-1.166.956-2.119 2.123-2.119h.053c1.167 0 2.122.953 2.122 2.119a2.127 2.127 0 01-2.122 2.119zm-6.95 0a2.127 2.127 0 01-2.123-2.119c0-1.166.902-2.119 2.122-2.119h.053c1.168 0 2.123.953 2.123 2.119 0 1.165-1.008 2.119-2.176 2.119zm-6.951 0a2.127 2.127 0 01-2.123-2.119c0-1.166.902-2.119 2.123-2.119h.053c1.167 0 2.122.953 2.122 2.119 0 1.165-1.008 2.119-2.175 2.119zm-6.951 0h-.053a2.127 2.127 0 01-2.122-2.119c0-1.166.954-2.119 2.122-2.119h.053c1.167 0 2.122.953 2.122 2.119a2.094 2.094 0 01-2.122 2.119zm-6.898 0h-.053a2.127 2.127 0 01-2.122-2.119c0-1.166.955-2.119 2.122-2.119h.053c1.168 0 2.123.953 2.123 2.119a2.127 2.127 0 01-2.123 2.119zm-6.95 0h-.053a2.127 2.127 0 01-2.123-2.119c0-1.166.955-2.119 2.122-2.119h.054c1.167 0 2.122.953 2.122 2.119a2.127 2.127 0 01-2.122 2.119zm-6.951 0h-.053a2.127 2.127 0 01-2.123-2.119c0-1.166.956-2.119 2.123-2.119h.053c1.167 0 2.122.953 2.122 2.119a2.127 2.127 0 01-2.122 2.119zm-6.95 0a2.127 2.127 0 01-2.123-2.119c0-1.166.902-2.119 2.122-2.119h.053c1.168 0 2.123.953 2.123 2.119 0 1.165-1.008 2.119-2.176 2.119zm-6.951 0a2.127 2.127 0 01-2.123-2.119c0-1.166.902-2.119 2.123-2.119h.053c1.167 0 2.122.953 2.122 2.119 0 1.165-1.008 2.119-2.175 2.119zm-6.951 0h-.053a2.127 2.127 0 01-2.122-2.119c0-1.166.955-2.119 2.122-2.119h.053c1.167 0 2.122.953 2.122 2.119a2.127 2.127 0 01-2.122 2.119zm-6.95 0h-.054a2.127 2.127 0 01-2.122-2.119c0-1.166.955-2.119 2.122-2.119h.053c1.168 0 2.123.953 2.123 2.119a2.127 2.127 0 01-2.123 2.119zm-6.951 0h-.053a2.127 2.127 0 01-2.123-2.119c0-1.166.955-2.119 2.123-2.119h.053c1.167 0 2.122.953 2.122 2.119a2.127 2.127 0 01-2.122 2.119zm145.845-.002a2.126 2.126 0 01-2.122-2.119c0-1.166.955-2.119 2.122-2.119 1.167 0 2.122.953 2.122 2.119a2.126 2.126 0 01-2.122 2.119zM3.008 130.329a2.127 2.127 0 01-2.122-2.119c0-1.166.955-2.119 2.122-2.119 1.167 0 2.122.953 2.122 2.119a2.127 2.127 0 01-2.122 2.119zm145.859.003h-.053a2.127 2.127 0 01-2.123-2.119c0-1.166.955-2.119 2.123-2.119h.053c1.167 0 2.122.953 2.122 2.119a2.127 2.127 0 01-2.122 2.119zm-6.951 0h-.053a2.127 2.127 0 01-2.122-2.119c0-1.166.955-2.119 2.122-2.119h.053c1.167 0 2.122.953 2.122 2.119a2.094 2.094 0 01-2.122 2.119zm-6.897 0h-.054a2.127 2.127 0 01-2.122-2.119c0-1.166.955-2.119 2.122-2.119h.054c1.167 0 2.122.953 2.122 2.119a2.127 2.127 0 01-2.122 2.119zm-6.951 0h-.053a2.128 2.128 0 01-2.123-2.119c0-1.166.956-2.119 2.123-2.119h.053c1.167 0 2.122.953 2.122 2.119a2.127 2.127 0 01-2.122 2.119zm-6.951 0a2.127 2.127 0 01-2.122-2.119c0-1.166.902-2.119 2.122-2.119h.053c1.168 0 2.123.953 2.123 2.119 0 1.165-1.009 2.119-2.176 2.119zm-6.95 0a2.127 2.127 0 01-2.123-2.119c0-1.166.902-2.119 2.123-2.119h.053c1.167 0 2.122.953 2.122 2.119 0 1.165-1.008 2.119-2.175 2.119zm-6.951 0h-.053a2.128 2.128 0 01-2.123-2.119c0-1.166.956-2.119 2.123-2.119h.053c1.167 0 2.122.953 2.122 2.119a2.127 2.127 0 01-2.122 2.119zm-6.951 0h-.053a2.127 2.127 0 01-2.122-2.119c0-1.166.955-2.119 2.122-2.119h.053c1.167 0 2.123.953 2.123 2.119a2.128 2.128 0 01-2.123 2.119zm-6.95 0h-.053a2.127 2.127 0 01-2.123-2.119c0-1.166.955-2.119 2.123-2.119h.052c1.168 0 2.123.953 2.123 2.119a2.127 2.127 0 01-2.123 2.119zm-6.951 0h-.053a2.127 2.127 0 01-2.123-2.119c0-1.166.956-2.119 2.123-2.119h.053c1.167 0 2.122.953 2.122 2.119a2.127 2.127 0 01-2.122 2.119zm-6.95 0a2.127 2.127 0 01-2.123-2.119c0-1.166.902-2.119 2.122-2.119h.053c1.168 0 2.123.953 2.123 2.119 0 1.165-1.008 2.119-2.176 2.119zm-6.951 0a2.127 2.127 0 01-2.123-2.119c0-1.166.902-2.119 2.123-2.119h.053c1.167 0 2.122.953 2.122 2.119 0 1.165-1.008 2.119-2.175 2.119zm-6.951 0h-.053a2.127 2.127 0 01-2.123-2.119c0-1.166.956-2.119 2.123-2.119h.053c1.167 0 2.122.953 2.122 2.119a2.094 2.094 0 01-2.122 2.119zm-6.898 0h-.053a2.127 2.127 0 01-2.122-2.119c0-1.166.955-2.119 2.122-2.119h.053c1.168 0 2.123.953 2.123 2.119a2.127 2.127 0 01-2.123 2.119zm-6.95 0h-.053a2.127 2.127 0 01-2.123-2.119c0-1.166.955-2.119 2.123-2.119h.053c1.167 0 2.122.953 2.122 2.119a2.127 2.127 0 01-2.122 2.119zm-6.951 0h-.053a2.127 2.127 0 01-2.122-2.119c0-1.166.955-2.119 2.122-2.119h.053c1.167 0 2.122.953 2.122 2.119a2.127 2.127 0 01-2.122 2.119zm-6.95 0a2.127 2.127 0 01-2.123-2.119c0-1.166.902-2.119 2.122-2.119h.053c1.168 0 2.123.953 2.123 2.119 0 1.165-1.009 2.119-2.176 2.119zm-6.951 0a2.127 2.127 0 01-2.123-2.119c0-1.166.902-2.119 2.123-2.119h.053c1.167 0 2.122.953 2.122 2.119 0 1.165-1.008 2.119-2.175 2.119zm-6.951 0h-.053a2.127 2.127 0 01-2.122-2.119c0-1.166.955-2.119 2.122-2.119h.053c1.167 0 2.122.953 2.122 2.119a2.127 2.127 0 01-2.122 2.119zm-6.95 0h-.054a2.127 2.127 0 01-2.122-2.119c0-1.166.955-2.119 2.122-2.119h.053c1.168 0 2.123.953 2.123 2.119a2.127 2.127 0 01-2.123 2.119zm-6.951 0h-.053a2.127 2.127 0 01-2.123-2.119c0-1.166.955-2.119 2.123-2.119h.053c1.167 0 2.122.953 2.122 2.119a2.127 2.127 0 01-2.122 2.119zm145.844-.003a2.126 2.126 0 01-2.122-2.119c0-1.166.955-2.119 2.122-2.119 1.167 0 2.122.953 2.122 2.119a2.126 2.126 0 01-2.122 2.119zM3.008 122.912a2.127 2.127 0 01-2.122-2.119c0-1.166.955-2.119 2.122-2.119 1.167 0 2.122.953 2.122 2.119a2.127 2.127 0 01-2.122 2.119zm145.859 0h-.053a2.127 2.127 0 01-2.123-2.119c0-1.166.955-2.119 2.123-2.119h.053c1.167 0 2.122.953 2.122 2.119a2.126 2.126 0 01-2.122 2.119zm-6.951 0h-.053a2.126 2.126 0 01-2.122-2.119c0-1.166.955-2.119 2.122-2.119h.053c1.167 0 2.122.953 2.122 2.119a2.093 2.093 0 01-2.122 2.119zm-6.897 0h-.054a2.126 2.126 0 01-2.122-2.119c0-1.166.955-2.119 2.122-2.119h.054c1.167 0 2.122.953 2.122 2.119a2.126 2.126 0 01-2.122 2.119zm-6.951 0h-.053a2.127 2.127 0 01-2.123-2.119c0-1.166.956-2.119 2.123-2.119h.053c1.167 0 2.122.953 2.122 2.119a2.126 2.126 0 01-2.122 2.119zm-6.951 0a2.126 2.126 0 01-2.122-2.119c0-1.166.902-2.119 2.122-2.119h.053c1.168 0 2.123.953 2.123 2.119 0 1.166-1.009 2.119-2.176 2.119zm-6.95 0a2.127 2.127 0 01-2.123-2.119c0-1.166.902-2.119 2.123-2.119h.053c1.167 0 2.122.953 2.122 2.119 0 1.166-1.008 2.119-2.175 2.119zm-6.951 0h-.053a2.127 2.127 0 01-2.123-2.119c0-1.166.956-2.119 2.123-2.119h.053c1.167 0 2.122.953 2.122 2.119a2.126 2.126 0 01-2.122 2.119zm-6.951 0h-.053a2.126 2.126 0 01-2.122-2.119c0-1.166.955-2.119 2.122-2.119h.053c1.167 0 2.123.953 2.123 2.119a2.127 2.127 0 01-2.123 2.119zm-6.95 0h-.053a2.127 2.127 0 01-2.123-2.119c0-1.166.955-2.119 2.123-2.119h.052c1.168 0 2.123.953 2.123 2.119a2.127 2.127 0 01-2.123 2.119zm-6.951 0h-.053a2.127 2.127 0 01-2.123-2.119c0-1.166.956-2.119 2.123-2.119h.053c1.167 0 2.122.953 2.122 2.119a2.127 2.127 0 01-2.122 2.119zm-6.95 0a2.127 2.127 0 01-2.123-2.119c0-1.166.902-2.119 2.122-2.119h.053c1.168 0 2.123.953 2.123 2.119 0 1.166-1.008 2.119-2.176 2.119zm-6.951 0a2.127 2.127 0 01-2.123-2.119c0-1.166.902-2.119 2.123-2.119h.053c1.167 0 2.122.953 2.122 2.119 0 1.166-1.008 2.119-2.175 2.119zm-6.951 0h-.053a2.127 2.127 0 01-2.123-2.119c0-1.166.956-2.119 2.123-2.119h.053c1.167 0 2.122.953 2.122 2.119a2.093 2.093 0 01-2.122 2.119zm-6.898 0h-.053a2.127 2.127 0 01-2.122-2.119c0-1.166.955-2.119 2.122-2.119h.053c1.168 0 2.123.953 2.123 2.119a2.127 2.127 0 01-2.123 2.119zm-6.95 0h-.053a2.127 2.127 0 01-2.123-2.119c0-1.166.955-2.119 2.123-2.119h.053c1.167 0 2.122.953 2.122 2.119a2.127 2.127 0 01-2.122 2.119zm-6.951 0h-.053a2.127 2.127 0 01-2.122-2.119c0-1.166.955-2.119 2.122-2.119h.053c1.167 0 2.122.953 2.122 2.119a2.127 2.127 0 01-2.122 2.119zm-6.95 0a2.127 2.127 0 01-2.123-2.119c0-1.166.902-2.119 2.122-2.119h.053c1.168 0 2.123.953 2.123 2.119 0 1.166-1.009 2.119-2.176 2.119zm-6.951 0a2.127 2.127 0 01-2.123-2.119c0-1.166.902-2.119 2.123-2.119h.053c1.167 0 2.122.953 2.122 2.119 0 1.166-1.008 2.119-2.175 2.119zm-6.951 0h-.053a2.127 2.127 0 01-2.122-2.119c0-1.166.955-2.119 2.122-2.119h.053c1.167 0 2.122.953 2.122 2.119a2.127 2.127 0 01-2.122 2.119zm-6.95 0h-.054a2.127 2.127 0 01-2.122-2.119c0-1.166.955-2.119 2.122-2.119h.053c1.168 0 2.123.953 2.123 2.119a2.127 2.127 0 01-2.123 2.119zm-6.951 0h-.053a2.127 2.127 0 01-2.123-2.119c0-1.166.955-2.119 2.123-2.119h.053c1.167 0 2.122.953 2.122 2.119a2.127 2.127 0 01-2.122 2.119zm145.844-.001a2.126 2.126 0 01-2.122-2.119c0-1.166.955-2.119 2.122-2.119 1.167 0 2.122.953 2.122 2.119a2.126 2.126 0 01-2.122 2.119zM3.008 115.497a2.127 2.127 0 01-2.122-2.119c0-1.166.955-2.119 2.122-2.119 1.167 0 2.122.953 2.122 2.119a2.127 2.127 0 01-2.122 2.119zm145.859-.002h-.053a2.127 2.127 0 01-2.123-2.119c0-1.166.955-2.119 2.123-2.119h.053c1.167 0 2.122.953 2.122 2.119a2.126 2.126 0 01-2.122 2.119zm-6.951 0h-.053a2.126 2.126 0 01-2.122-2.119c0-1.166.955-2.119 2.122-2.119h.053c1.167 0 2.122.953 2.122 2.119a2.093 2.093 0 01-2.122 2.119zm-6.897 0h-.054a2.126 2.126 0 01-2.122-2.119c0-1.166.955-2.119 2.122-2.119h.054c1.167 0 2.122.953 2.122 2.119a2.126 2.126 0 01-2.122 2.119zm-6.951 0h-.053a2.127 2.127 0 01-2.123-2.119c0-1.166.956-2.119 2.123-2.119h.053c1.167 0 2.122.953 2.122 2.119a2.126 2.126 0 01-2.122 2.119zm-6.951 0a2.126 2.126 0 01-2.122-2.119c0-1.166.902-2.119 2.122-2.119h.053c1.168 0 2.123.953 2.123 2.119 0 1.166-1.009 2.119-2.176 2.119zm-6.95 0a2.127 2.127 0 01-2.123-2.119c0-1.166.902-2.119 2.123-2.119h.053c1.167 0 2.122.953 2.122 2.119 0 1.166-1.008 2.119-2.175 2.119zm-6.951 0h-.053a2.127 2.127 0 01-2.123-2.119c0-1.166.956-2.119 2.123-2.119h.053c1.167 0 2.122.953 2.122 2.119a2.126 2.126 0 01-2.122 2.119zm-6.951 0h-.053a2.126 2.126 0 01-2.122-2.119c0-1.166.955-2.119 2.122-2.119h.053c1.167 0 2.123.953 2.123 2.119a2.127 2.127 0 01-2.123 2.119zm-6.95 0h-.053a2.127 2.127 0 01-2.123-2.119c0-1.166.955-2.119 2.123-2.119h.052c1.168 0 2.123.953 2.123 2.119a2.127 2.127 0 01-2.123 2.119zm-6.951 0h-.053a2.127 2.127 0 01-2.123-2.119c0-1.166.956-2.119 2.123-2.119h.053c1.167 0 2.122.953 2.122 2.119a2.127 2.127 0 01-2.122 2.119zm-6.95 0a2.127 2.127 0 01-2.123-2.119c0-1.166.902-2.119 2.122-2.119h.053c1.168 0 2.123.953 2.123 2.119 0 1.166-1.008 2.119-2.176 2.119zm-6.951 0a2.127 2.127 0 01-2.123-2.119c0-1.166.902-2.119 2.123-2.119h.053c1.167 0 2.122.953 2.122 2.119 0 1.166-1.008 2.119-2.175 2.119zm-6.951 0h-.053a2.127 2.127 0 01-2.123-2.119c0-1.166.956-2.119 2.123-2.119h.053c1.167 0 2.122.953 2.122 2.119a2.093 2.093 0 01-2.122 2.119zm-6.898 0h-.053a2.127 2.127 0 01-2.122-2.119c0-1.166.955-2.119 2.122-2.119h.053c1.168 0 2.123.953 2.123 2.119a2.127 2.127 0 01-2.123 2.119zm-6.95 0h-.053a2.127 2.127 0 01-2.123-2.119c0-1.166.955-2.119 2.123-2.119h.053c1.167 0 2.122.953 2.122 2.119a2.127 2.127 0 01-2.122 2.119zm-6.951 0h-.053a2.127 2.127 0 01-2.122-2.119c0-1.166.955-2.119 2.122-2.119h.053c1.167 0 2.122.953 2.122 2.119a2.127 2.127 0 01-2.122 2.119zm-6.95 0a2.127 2.127 0 01-2.123-2.119c0-1.166.902-2.119 2.122-2.119h.053c1.168 0 2.123.953 2.123 2.119 0 1.166-1.009 2.119-2.176 2.119zm-6.951 0a2.127 2.127 0 01-2.123-2.119c0-1.166.902-2.119 2.123-2.119h.053c1.167 0 2.122.953 2.122 2.119 0 1.166-1.008 2.119-2.175 2.119zm-6.951 0h-.053a2.127 2.127 0 01-2.122-2.119c0-1.166.955-2.119 2.122-2.119h.053c1.167 0 2.122.953 2.122 2.119a2.127 2.127 0 01-2.122 2.119zm-6.95 0h-.054a2.127 2.127 0 01-2.122-2.119c0-1.166.955-2.119 2.122-2.119h.053c1.168 0 2.123.953 2.123 2.119a2.127 2.127 0 01-2.123 2.119zm-6.951 0h-.053a2.127 2.127 0 01-2.123-2.119c0-1.166.955-2.119 2.123-2.119h.053c1.167 0 2.122.953 2.122 2.119a2.127 2.127 0 01-2.122 2.119zm145.844.002a2.126 2.126 0 01-2.122-2.119c0-1.166.955-2.119 2.122-2.119 1.167 0 2.122.953 2.122 2.119a2.126 2.126 0 01-2.122 2.119zM3.008 108.078a2.127 2.127 0 01-2.122-2.119c0-1.166.955-2.119 2.122-2.119 1.167 0 2.122.953 2.122 2.119a2.127 2.127 0 01-2.122 2.119zm145.859.002h-.053a2.127 2.127 0 01-2.123-2.119c0-1.166.955-2.119 2.123-2.119h.053c1.167 0 2.122.953 2.122 2.119a2.126 2.126 0 01-2.122 2.119zm-6.951 0h-.053a2.126 2.126 0 01-2.122-2.119c0-1.166.955-2.119 2.122-2.119h.053c1.167 0 2.122.953 2.122 2.119a2.093 2.093 0 01-2.122 2.119zm-6.897 0h-.054a2.126 2.126 0 01-2.122-2.119c0-1.166.955-2.119 2.122-2.119h.054c1.167 0 2.122.953 2.122 2.119a2.126 2.126 0 01-2.122 2.119zm-6.951 0h-.053a2.127 2.127 0 01-2.123-2.119c0-1.166.956-2.119 2.123-2.119h.053c1.167 0 2.122.953 2.122 2.119a2.126 2.126 0 01-2.122 2.119zm-6.951 0a2.126 2.126 0 01-2.122-2.119c0-1.166.902-2.119 2.122-2.119h.053c1.168 0 2.123.953 2.123 2.119 0 1.166-1.009 2.119-2.176 2.119zm-6.95 0a2.127 2.127 0 01-2.123-2.119c0-1.166.902-2.119 2.123-2.119h.053c1.167 0 2.122.953 2.122 2.119 0 1.166-1.008 2.119-2.175 2.119zm-6.951 0h-.053a2.127 2.127 0 01-2.123-2.119c0-1.166.956-2.119 2.123-2.119h.053c1.167 0 2.122.953 2.122 2.119a2.126 2.126 0 01-2.122 2.119zm-6.951 0h-.053a2.126 2.126 0 01-2.122-2.119c0-1.166.955-2.119 2.122-2.119h.053c1.167 0 2.123.953 2.123 2.119a2.127 2.127 0 01-2.123 2.119zm-6.95 0h-.053a2.127 2.127 0 01-2.123-2.119c0-1.166.955-2.119 2.123-2.119h.052c1.168 0 2.123.953 2.123 2.119a2.127 2.127 0 01-2.123 2.119zm-6.951 0h-.053a2.127 2.127 0 01-2.123-2.119c0-1.166.956-2.119 2.123-2.119h.053c1.167 0 2.122.953 2.122 2.119a2.127 2.127 0 01-2.122 2.119zm-6.95 0a2.127 2.127 0 01-2.123-2.119c0-1.166.902-2.119 2.122-2.119h.053c1.168 0 2.123.953 2.123 2.119 0 1.166-1.008 2.119-2.176 2.119zm-6.951 0a2.127 2.127 0 01-2.123-2.119c0-1.166.902-2.119 2.123-2.119h.053c1.167 0 2.122.953 2.122 2.119 0 1.166-1.008 2.119-2.175 2.119zm-6.951 0h-.053a2.127 2.127 0 01-2.123-2.119c0-1.166.956-2.119 2.123-2.119h.053c1.167 0 2.122.953 2.122 2.119a2.093 2.093 0 01-2.122 2.119zm-6.898 0h-.053a2.127 2.127 0 01-2.122-2.119c0-1.166.955-2.119 2.122-2.119h.053c1.168 0 2.123.953 2.123 2.119a2.127 2.127 0 01-2.123 2.119zm-6.95 0h-.053a2.127 2.127 0 01-2.123-2.119c0-1.166.955-2.119 2.123-2.119h.053c1.167 0 2.122.953 2.122 2.119a2.127 2.127 0 01-2.122 2.119zm-6.951 0h-.053a2.127 2.127 0 01-2.122-2.119c0-1.166.955-2.119 2.122-2.119h.053c1.167 0 2.122.953 2.122 2.119a2.127 2.127 0 01-2.122 2.119zm-6.95 0a2.127 2.127 0 01-2.123-2.119c0-1.166.902-2.119 2.122-2.119h.053c1.168 0 2.123.953 2.123 2.119 0 1.166-1.009 2.119-2.176 2.119zm-6.951 0a2.127 2.127 0 01-2.123-2.119c0-1.166.902-2.119 2.123-2.119h.053c1.167 0 2.122.953 2.122 2.119 0 1.166-1.008 2.119-2.175 2.119zm-6.951 0h-.053a2.127 2.127 0 01-2.122-2.119c0-1.166.955-2.119 2.122-2.119h.053c1.167 0 2.122.953 2.122 2.119a2.127 2.127 0 01-2.122 2.119zm-6.95 0h-.054a2.127 2.127 0 01-2.122-2.119c0-1.166.955-2.119 2.122-2.119h.053c1.168 0 2.123.953 2.123 2.119a2.127 2.127 0 01-2.123 2.119zm-6.951 0h-.053a2.127 2.127 0 01-2.123-2.119c0-1.166.955-2.119 2.123-2.119h.053c1.167 0 2.122.953 2.122 2.119a2.127 2.127 0 01-2.122 2.119zm145.844-.001a2.126 2.126 0 01-2.122-2.119c0-1.166.955-2.119 2.122-2.119 1.167 0 2.122.953 2.122 2.119a2.126 2.126 0 01-2.122 2.119zM3.008 100.661a2.127 2.127 0 01-2.122-2.119c0-1.166.955-2.12 2.122-2.12 1.167 0 2.122.954 2.122 2.12a2.127 2.127 0 01-2.122 2.119zm145.859.001h-.053a2.127 2.127 0 01-2.123-2.119c0-1.166.955-2.12 2.123-2.12h.053c1.167 0 2.122.954 2.122 2.12a2.127 2.127 0 01-2.122 2.119zm-6.951 0h-.053a2.127 2.127 0 01-2.122-2.119c0-1.166.955-2.12 2.122-2.12h.053c1.167 0 2.122.954 2.122 2.12a2.093 2.093 0 01-2.122 2.119zm-6.897 0h-.054a2.127 2.127 0 01-2.122-2.119c0-1.166.955-2.12 2.122-2.12h.054c1.167 0 2.122.954 2.122 2.12a2.127 2.127 0 01-2.122 2.119zm-6.951 0h-.053a2.128 2.128 0 01-2.123-2.119c0-1.166.956-2.12 2.123-2.12h.053c1.167 0 2.122.954 2.122 2.12a2.127 2.127 0 01-2.122 2.119zm-6.951 0a2.127 2.127 0 01-2.122-2.119c0-1.166.902-2.12 2.122-2.12h.053c1.168 0 2.123.954 2.123 2.12 0 1.166-1.009 2.119-2.176 2.119zm-6.95 0a2.127 2.127 0 01-2.123-2.119c0-1.166.902-2.12 2.123-2.12h.053c1.167 0 2.122.954 2.122 2.12 0 1.166-1.008 2.119-2.175 2.119zm-6.951 0h-.053a2.128 2.128 0 01-2.123-2.119c0-1.166.956-2.12 2.123-2.12h.053c1.167 0 2.122.954 2.122 2.12a2.127 2.127 0 01-2.122 2.119zm-6.951 0h-.053a2.127 2.127 0 01-2.122-2.119c0-1.166.955-2.12 2.122-2.12h.053c1.167 0 2.123.954 2.123 2.12a2.128 2.128 0 01-2.123 2.119zm-6.95 0h-.053a2.127 2.127 0 01-2.123-2.119c0-1.166.955-2.12 2.123-2.12h.052c1.168 0 2.123.954 2.123 2.12a2.127 2.127 0 01-2.123 2.119zm-6.951 0h-.053a2.127 2.127 0 01-2.123-2.119c0-1.166.956-2.12 2.123-2.12h.053c1.167 0 2.122.954 2.122 2.12a2.127 2.127 0 01-2.122 2.119zm-6.95 0a2.127 2.127 0 01-2.123-2.119c0-1.166.902-2.12 2.122-2.12h.053c1.168 0 2.123.954 2.123 2.12 0 1.166-1.008 2.119-2.176 2.119zm-6.951 0a2.127 2.127 0 01-2.123-2.119c0-1.166.902-2.12 2.123-2.12h.053c1.167 0 2.122.954 2.122 2.12 0 1.166-1.008 2.119-2.175 2.119zm-6.951 0h-.053a2.127 2.127 0 01-2.123-2.119c0-1.166.956-2.12 2.123-2.12h.053c1.167 0 2.122.954 2.122 2.12a2.093 2.093 0 01-2.122 2.119zm-6.898 0h-.053a2.127 2.127 0 01-2.122-2.119c0-1.166.955-2.12 2.122-2.12h.053c1.168 0 2.123.954 2.123 2.12a2.127 2.127 0 01-2.123 2.119zm-6.95 0h-.053a2.127 2.127 0 01-2.123-2.119c0-1.166.955-2.12 2.123-2.12h.053c1.167 0 2.122.954 2.122 2.12a2.127 2.127 0 01-2.122 2.119zm-6.951 0h-.053a2.127 2.127 0 01-2.122-2.119c0-1.166.955-2.12 2.122-2.12h.053c1.167 0 2.122.954 2.122 2.12a2.127 2.127 0 01-2.122 2.119zm-6.95 0a2.127 2.127 0 01-2.123-2.119c0-1.166.902-2.12 2.122-2.12h.053c1.168 0 2.123.954 2.123 2.12 0 1.166-1.009 2.119-2.176 2.119zm-6.951 0a2.127 2.127 0 01-2.123-2.119c0-1.166.902-2.12 2.123-2.12h.053c1.167 0 2.122.954 2.122 2.12 0 1.166-1.008 2.119-2.175 2.119zm-6.951 0h-.053a2.127 2.127 0 01-2.122-2.119c0-1.166.955-2.12 2.122-2.12h.053c1.167 0 2.122.954 2.122 2.12a2.127 2.127 0 01-2.122 2.119zm-6.95 0h-.054a2.127 2.127 0 01-2.122-2.119c0-1.166.955-2.12 2.122-2.12h.053c1.168 0 2.123.954 2.123 2.12a2.127 2.127 0 01-2.123 2.119zm-6.951 0h-.053a2.127 2.127 0 01-2.123-2.119c0-1.166.955-2.12 2.123-2.12h.053c1.167 0 2.122.954 2.122 2.12a2.127 2.127 0 01-2.122 2.119zm145.844.002a2.127 2.127 0 01-2.122-2.119c0-1.166.955-2.12 2.122-2.12 1.167 0 2.122.954 2.122 2.12a2.127 2.127 0 01-2.122 2.119zM3.008 93.242a2.127 2.127 0 01-2.122-2.119c0-1.166.955-2.12 2.122-2.12 1.167 0 2.122.954 2.122 2.12 0 1.166-.955 2.12-2.122 2.12zm145.859.002h-.053a2.127 2.127 0 01-2.123-2.119c0-1.165.955-2.12 2.123-2.12h.053c1.167 0 2.122.955 2.122 2.12 0 1.166-.955 2.12-2.122 2.12zm-6.951 0h-.053a2.127 2.127 0 01-2.122-2.119c0-1.165.955-2.12 2.122-2.12h.053c1.167 0 2.122.955 2.122 2.12 0 1.166-.902 2.12-2.122 2.12zm-6.897 0h-.054a2.127 2.127 0 01-2.122-2.119c0-1.165.955-2.12 2.122-2.12h.054c1.167 0 2.122.955 2.122 2.12 0 1.166-.955 2.12-2.122 2.12zm-6.951 0h-.053a2.128 2.128 0 01-2.123-2.119c0-1.165.956-2.12 2.123-2.12h.053c1.167 0 2.122.955 2.122 2.12 0 1.166-.955 2.12-2.122 2.12zm-6.951 0a2.127 2.127 0 01-2.122-2.119c0-1.165.902-2.12 2.122-2.12h.053c1.168 0 2.123.955 2.123 2.12 0 1.166-1.009 2.12-2.176 2.12zm-6.95 0a2.127 2.127 0 01-2.123-2.119c0-1.165.902-2.12 2.123-2.12h.053c1.167 0 2.122.955 2.122 2.12 0 1.166-1.008 2.12-2.175 2.12zm-6.951 0h-.053a2.128 2.128 0 01-2.123-2.119c0-1.165.956-2.12 2.123-2.12h.053c1.167 0 2.122.955 2.122 2.12 0 1.166-.955 2.12-2.122 2.12zm-6.951 0h-.053a2.127 2.127 0 01-2.122-2.119c0-1.165.955-2.12 2.122-2.12h.053c1.167 0 2.123.955 2.123 2.12 0 1.166-.956 2.12-2.123 2.12zm-6.95 0h-.053a2.127 2.127 0 01-2.123-2.119c0-1.165.955-2.12 2.123-2.12h.052c1.168 0 2.123.955 2.123 2.12 0 1.166-.955 2.12-2.123 2.12zm-6.951 0h-.053a2.127 2.127 0 01-2.123-2.119c0-1.165.956-2.12 2.123-2.12h.053c1.167 0 2.122.955 2.122 2.12 0 1.166-.955 2.12-2.122 2.12zm-6.95 0a2.127 2.127 0 01-2.123-2.119c0-1.165.902-2.12 2.122-2.12h.053c1.168 0 2.123.955 2.123 2.12 0 1.166-1.008 2.12-2.176 2.12zm-6.951 0a2.127 2.127 0 01-2.123-2.119c0-1.165.902-2.12 2.123-2.12h.053c1.167 0 2.122.955 2.122 2.12 0 1.166-1.008 2.12-2.175 2.12zm-6.951 0h-.053a2.127 2.127 0 01-2.123-2.119c0-1.165.956-2.12 2.123-2.12h.053c1.167 0 2.122.955 2.122 2.12 0 1.166-.902 2.12-2.122 2.12zm-6.898 0h-.053a2.127 2.127 0 01-2.122-2.119c0-1.165.955-2.12 2.122-2.12h.053c1.168 0 2.123.955 2.123 2.12 0 1.166-.956 2.12-2.123 2.12zm-6.95 0h-.053a2.127 2.127 0 01-2.123-2.119c0-1.165.955-2.12 2.123-2.12h.053c1.167 0 2.122.955 2.122 2.12 0 1.166-.955 2.12-2.122 2.12zm-6.951 0h-.053a2.127 2.127 0 01-2.122-2.119c0-1.165.955-2.12 2.122-2.12h.053c1.167 0 2.122.955 2.122 2.12 0 1.166-.955 2.12-2.122 2.12zm-6.95 0a2.127 2.127 0 01-2.123-2.119c0-1.165.902-2.12 2.122-2.12h.053c1.168 0 2.123.955 2.123 2.12 0 1.166-1.009 2.12-2.176 2.12zm-6.951 0a2.127 2.127 0 01-2.123-2.119c0-1.165.902-2.12 2.123-2.12h.053c1.167 0 2.122.955 2.122 2.12 0 1.166-1.008 2.12-2.175 2.12zm-6.951 0h-.053a2.127 2.127 0 01-2.122-2.119c0-1.165.955-2.12 2.122-2.12h.053c1.167 0 2.122.955 2.122 2.12 0 1.166-.955 2.12-2.122 2.12zm-6.95 0h-.054a2.127 2.127 0 01-2.122-2.119c0-1.165.955-2.12 2.122-2.12h.053c1.168 0 2.123.955 2.123 2.12 0 1.166-.956 2.12-2.123 2.12zm-6.951 0h-.053a2.127 2.127 0 01-2.123-2.119c0-1.165.955-2.12 2.123-2.12h.053c1.167 0 2.122.955 2.122 2.12 0 1.166-.955 2.12-2.122 2.12zm145.844-.001a2.127 2.127 0 01-2.122-2.119c0-1.165.955-2.12 2.122-2.12 1.167 0 2.122.954 2.122 2.12 0 1.166-.955 2.12-2.122 2.12zM3.008 85.825a2.127 2.127 0 01-2.122-2.119c0-1.166.955-2.12 2.122-2.12 1.167 0 2.122.954 2.122 2.12 0 1.166-.955 2.12-2.122 2.12zm145.859.003h-.053a2.127 2.127 0 01-2.123-2.119c0-1.166.955-2.12 2.123-2.12h.053c1.167 0 2.122.954 2.122 2.12 0 1.166-.955 2.12-2.122 2.12zm-6.951 0h-.053a2.127 2.127 0 01-2.122-2.119c0-1.166.955-2.12 2.122-2.12h.053c1.167 0 2.122.954 2.122 2.12 0 1.166-.902 2.12-2.122 2.12zm-6.897 0h-.054a2.127 2.127 0 01-2.122-2.119c0-1.166.955-2.12 2.122-2.12h.054c1.167 0 2.122.954 2.122 2.12 0 1.166-.955 2.12-2.122 2.12zm-6.951 0h-.053a2.128 2.128 0 01-2.123-2.119c0-1.166.956-2.12 2.123-2.12h.053c1.167 0 2.122.954 2.122 2.12 0 1.166-.955 2.12-2.122 2.12zm-6.951 0a2.127 2.127 0 01-2.122-2.119c0-1.166.902-2.12 2.122-2.12h.053c1.168 0 2.123.954 2.123 2.12 0 1.166-1.009 2.12-2.176 2.12zm-6.95 0a2.127 2.127 0 01-2.123-2.119c0-1.166.902-2.12 2.123-2.12h.053c1.167 0 2.122.954 2.122 2.12 0 1.166-1.008 2.12-2.175 2.12zm-6.951 0h-.053a2.128 2.128 0 01-2.123-2.119c0-1.166.956-2.12 2.123-2.12h.053c1.167 0 2.122.954 2.122 2.12 0 1.166-.955 2.12-2.122 2.12zm-6.951 0h-.053a2.127 2.127 0 01-2.122-2.119c0-1.166.955-2.12 2.122-2.12h.053c1.167 0 2.123.954 2.123 2.12 0 1.166-.956 2.12-2.123 2.12zm-6.95 0h-.053a2.127 2.127 0 01-2.123-2.119c0-1.166.955-2.12 2.123-2.12h.052c1.168 0 2.123.954 2.123 2.12 0 1.166-.955 2.12-2.123 2.12zm-6.951 0h-.053a2.127 2.127 0 01-2.123-2.119c0-1.166.956-2.12 2.123-2.12h.053c1.167 0 2.122.954 2.122 2.12 0 1.166-.955 2.12-2.122 2.12zm-6.95 0a2.127 2.127 0 01-2.123-2.119c0-1.166.902-2.12 2.122-2.12h.053c1.168 0 2.123.954 2.123 2.12 0 1.166-1.008 2.12-2.176 2.12zm-6.951 0a2.127 2.127 0 01-2.123-2.119c0-1.166.902-2.12 2.123-2.12h.053c1.167 0 2.122.954 2.122 2.12 0 1.166-1.008 2.12-2.175 2.12zm-6.951 0h-.053a2.127 2.127 0 01-2.123-2.119c0-1.166.956-2.12 2.123-2.12h.053c1.167 0 2.122.954 2.122 2.12 0 1.166-.902 2.12-2.122 2.12zm-6.898 0h-.053a2.127 2.127 0 01-2.122-2.119c0-1.166.955-2.12 2.122-2.12h.053c1.168 0 2.123.954 2.123 2.12 0 1.166-.956 2.12-2.123 2.12zm-6.95 0h-.053a2.127 2.127 0 01-2.123-2.119c0-1.166.955-2.12 2.123-2.12h.053c1.167 0 2.122.954 2.122 2.12 0 1.166-.955 2.12-2.122 2.12zm-6.951 0h-.053a2.127 2.127 0 01-2.122-2.119c0-1.166.955-2.12 2.122-2.12h.053c1.167 0 2.122.954 2.122 2.12 0 1.166-.955 2.12-2.122 2.12zm-6.95 0a2.127 2.127 0 01-2.123-2.119c0-1.166.902-2.12 2.122-2.12h.053c1.168 0 2.123.954 2.123 2.12 0 1.166-1.009 2.12-2.176 2.12zm-6.951 0a2.127 2.127 0 01-2.123-2.119c0-1.166.902-2.12 2.123-2.12h.053c1.167 0 2.122.954 2.122 2.12 0 1.166-1.008 2.12-2.175 2.12zm-6.951 0h-.053a2.127 2.127 0 01-2.122-2.119c0-1.166.955-2.12 2.122-2.12h.053c1.167 0 2.122.954 2.122 2.12 0 1.166-.955 2.12-2.122 2.12zm-6.95 0h-.054a2.127 2.127 0 01-2.122-2.119c0-1.166.955-2.12 2.122-2.12h.053c1.168 0 2.123.954 2.123 2.12 0 1.166-.956 2.12-2.123 2.12zm-6.951 0h-.053a2.127 2.127 0 01-2.123-2.119c0-1.166.955-2.12 2.123-2.12h.053c1.167 0 2.122.954 2.122 2.12 0 1.166-.955 2.12-2.122 2.12zm145.844 0a2.127 2.127 0 01-2.122-2.119c0-1.166.955-2.12 2.122-2.12 1.167 0 2.122.954 2.122 2.12 0 1.166-.955 2.12-2.122 2.12zM3.008 78.411a2.127 2.127 0 01-2.122-2.119c0-1.166.955-2.12 2.122-2.12 1.167 0 2.122.954 2.122 2.12 0 1.166-.955 2.12-2.122 2.12zm145.859-.003h-.053a2.127 2.127 0 01-2.123-2.119c0-1.165.955-2.12 2.123-2.12h.053c1.167 0 2.122.955 2.122 2.12 0 1.166-.955 2.12-2.122 2.12zm-6.951 0h-.053a2.127 2.127 0 01-2.122-2.119c0-1.165.955-2.12 2.122-2.12h.053c1.167 0 2.122.955 2.122 2.12 0 1.166-.902 2.12-2.122 2.12zm-6.897 0h-.054a2.127 2.127 0 01-2.122-2.119c0-1.165.955-2.12 2.122-2.12h.054c1.167 0 2.122.955 2.122 2.12 0 1.166-.955 2.12-2.122 2.12zm-6.951 0h-.053a2.128 2.128 0 01-2.123-2.119c0-1.165.956-2.12 2.123-2.12h.053c1.167 0 2.122.955 2.122 2.12 0 1.166-.955 2.12-2.122 2.12zm-6.951 0a2.127 2.127 0 01-2.122-2.119c0-1.165.902-2.12 2.122-2.12h.053c1.168 0 2.123.955 2.123 2.12 0 1.166-1.009 2.12-2.176 2.12zm-6.95 0a2.127 2.127 0 01-2.123-2.119c0-1.165.902-2.12 2.123-2.12h.053c1.167 0 2.122.955 2.122 2.12 0 1.166-1.008 2.12-2.175 2.12zm-6.951 0h-.053a2.128 2.128 0 01-2.123-2.119c0-1.165.956-2.12 2.123-2.12h.053c1.167 0 2.122.955 2.122 2.12 0 1.166-.955 2.12-2.122 2.12zm-6.951 0h-.053a2.127 2.127 0 01-2.122-2.119c0-1.165.955-2.12 2.122-2.12h.053c1.167 0 2.123.955 2.123 2.12 0 1.166-.956 2.12-2.123 2.12zm-6.95 0h-.053a2.127 2.127 0 01-2.123-2.119c0-1.165.955-2.12 2.123-2.12h.052c1.168 0 2.123.955 2.123 2.12 0 1.166-.955 2.12-2.123 2.12zm-6.951 0h-.053a2.127 2.127 0 01-2.123-2.119c0-1.165.956-2.12 2.123-2.12h.053c1.167 0 2.122.955 2.122 2.12 0 1.166-.955 2.12-2.122 2.12zm-6.95 0a2.127 2.127 0 01-2.123-2.119c0-1.165.902-2.12 2.122-2.12h.053c1.168 0 2.123.955 2.123 2.12 0 1.166-1.008 2.12-2.176 2.12zm-6.951 0a2.127 2.127 0 01-2.123-2.119c0-1.165.902-2.12 2.123-2.12h.053c1.167 0 2.122.955 2.122 2.12 0 1.166-1.008 2.12-2.175 2.12zm-6.951 0h-.053a2.127 2.127 0 01-2.123-2.119c0-1.165.956-2.12 2.123-2.12h.053c1.167 0 2.122.955 2.122 2.12 0 1.166-.902 2.12-2.122 2.12zm-6.898 0h-.053a2.127 2.127 0 01-2.122-2.119c0-1.165.955-2.12 2.122-2.12h.053c1.168 0 2.123.955 2.123 2.12 0 1.166-.956 2.12-2.123 2.12zm-6.95 0h-.053a2.127 2.127 0 01-2.123-2.119c0-1.165.955-2.12 2.123-2.12h.053c1.167 0 2.122.955 2.122 2.12 0 1.166-.955 2.12-2.122 2.12zm-6.951 0h-.053a2.127 2.127 0 01-2.122-2.119c0-1.165.955-2.12 2.122-2.12h.053c1.167 0 2.122.955 2.122 2.12 0 1.166-.955 2.12-2.122 2.12zm-6.95 0a2.127 2.127 0 01-2.123-2.119c0-1.165.902-2.12 2.122-2.12h.053c1.168 0 2.123.955 2.123 2.12 0 1.166-1.009 2.12-2.176 2.12zm-6.951 0a2.127 2.127 0 01-2.123-2.119c0-1.165.902-2.12 2.123-2.12h.053c1.167 0 2.122.955 2.122 2.12 0 1.166-1.008 2.12-2.175 2.12zm-6.951 0h-.053a2.127 2.127 0 01-2.122-2.119c0-1.165.955-2.12 2.122-2.12h.053c1.167 0 2.122.955 2.122 2.12 0 1.166-.955 2.12-2.122 2.12zm-6.95 0h-.054a2.127 2.127 0 01-2.122-2.119c0-1.165.955-2.12 2.122-2.12h.053c1.168 0 2.123.955 2.123 2.12 0 1.166-.956 2.12-2.123 2.12zm-6.951 0h-.053a2.127 2.127 0 01-2.123-2.119c0-1.165.955-2.12 2.123-2.12h.053c1.167 0 2.122.955 2.122 2.12 0 1.166-.955 2.12-2.122 2.12zm145.844 0a2.127 2.127 0 01-2.122-2.119c0-1.165.955-2.12 2.122-2.12 1.167 0 2.122.955 2.122 2.12 0 1.166-.955 2.12-2.122 2.12zM3.008 70.994a2.127 2.127 0 01-2.122-2.119c0-1.165.955-2.12 2.122-2.12 1.167 0 2.122.955 2.122 2.12 0 1.166-.955 2.12-2.122 2.12zm145.859-.003h-.053a2.127 2.127 0 01-2.123-2.119c0-1.165.955-2.12 2.123-2.12h.053c1.167 0 2.122.955 2.122 2.12 0 1.166-.955 2.12-2.122 2.12zm-6.951 0h-.053a2.127 2.127 0 01-2.122-2.119c0-1.165.955-2.12 2.122-2.12h.053c1.167 0 2.122.955 2.122 2.12 0 1.166-.902 2.12-2.122 2.12zm-6.897 0h-.054a2.127 2.127 0 01-2.122-2.119c0-1.165.955-2.12 2.122-2.12h.054c1.167 0 2.122.955 2.122 2.12 0 1.166-.955 2.12-2.122 2.12zm-6.951 0h-.053a2.128 2.128 0 01-2.123-2.119c0-1.165.956-2.12 2.123-2.12h.053c1.167 0 2.122.955 2.122 2.12 0 1.166-.955 2.12-2.122 2.12zm-6.951 0a2.127 2.127 0 01-2.122-2.119c0-1.165.902-2.12 2.122-2.12h.053c1.168 0 2.123.955 2.123 2.12 0 1.166-1.009 2.12-2.176 2.12zm-6.95 0a2.127 2.127 0 01-2.123-2.119c0-1.165.902-2.12 2.123-2.12h.053c1.167 0 2.122.955 2.122 2.12 0 1.166-1.008 2.12-2.175 2.12zm-6.951 0h-.053a2.128 2.128 0 01-2.123-2.119c0-1.165.956-2.12 2.123-2.12h.053c1.167 0 2.122.955 2.122 2.12 0 1.166-.955 2.12-2.122 2.12zm-6.951 0h-.053a2.127 2.127 0 01-2.122-2.119c0-1.165.955-2.12 2.122-2.12h.053c1.167 0 2.123.955 2.123 2.12 0 1.166-.956 2.12-2.123 2.12zm-6.95 0h-.053a2.127 2.127 0 01-2.123-2.119c0-1.165.955-2.12 2.123-2.12h.052c1.168 0 2.123.955 2.123 2.12 0 1.166-.955 2.12-2.123 2.12zm-6.951 0h-.053a2.127 2.127 0 01-2.123-2.119c0-1.165.956-2.12 2.123-2.12h.053c1.167 0 2.122.955 2.122 2.12 0 1.166-.955 2.12-2.122 2.12zm-6.95 0a2.127 2.127 0 01-2.123-2.119c0-1.165.902-2.12 2.122-2.12h.053c1.168 0 2.123.955 2.123 2.12 0 1.166-1.008 2.12-2.176 2.12zm-6.951 0a2.127 2.127 0 01-2.123-2.119c0-1.165.902-2.12 2.123-2.12h.053c1.167 0 2.122.955 2.122 2.12 0 1.166-1.008 2.12-2.175 2.12zm-6.951 0h-.053a2.127 2.127 0 01-2.123-2.119c0-1.165.956-2.12 2.123-2.12h.053c1.167 0 2.122.955 2.122 2.12 0 1.166-.902 2.12-2.122 2.12zm-6.898 0h-.053a2.127 2.127 0 01-2.122-2.119c0-1.165.955-2.12 2.122-2.12h.053c1.168 0 2.123.955 2.123 2.12 0 1.166-.956 2.12-2.123 2.12zm-6.95 0h-.053a2.127 2.127 0 01-2.123-2.119c0-1.165.955-2.12 2.123-2.12h.053c1.167 0 2.122.955 2.122 2.12 0 1.166-.955 2.12-2.122 2.12zm-6.951 0h-.053a2.127 2.127 0 01-2.122-2.119c0-1.165.955-2.12 2.122-2.12h.053c1.167 0 2.122.955 2.122 2.12 0 1.166-.955 2.12-2.122 2.12zm-6.95 0a2.127 2.127 0 01-2.123-2.119c0-1.165.902-2.12 2.122-2.12h.053c1.168 0 2.123.955 2.123 2.12 0 1.166-1.009 2.12-2.176 2.12zm-6.951 0a2.127 2.127 0 01-2.123-2.119c0-1.165.902-2.12 2.123-2.12h.053c1.167 0 2.122.955 2.122 2.12 0 1.166-1.008 2.12-2.175 2.12zm-6.951 0h-.053a2.127 2.127 0 01-2.122-2.119c0-1.165.955-2.12 2.122-2.12h.053c1.167 0 2.122.955 2.122 2.12 0 1.166-.955 2.12-2.122 2.12zm-6.95 0h-.054a2.127 2.127 0 01-2.122-2.119c0-1.165.955-2.12 2.122-2.12h.053c1.168 0 2.123.955 2.123 2.12 0 1.166-.956 2.12-2.123 2.12zm-6.951 0h-.053a2.127 2.127 0 01-2.123-2.119c0-1.165.955-2.12 2.123-2.12h.053c1.167 0 2.122.955 2.122 2.12 0 1.166-.955 2.12-2.122 2.12zm145.844.003a2.127 2.127 0 01-2.122-2.119c0-1.165.955-2.12 2.122-2.12 1.167 0 2.122.955 2.122 2.12 0 1.166-.955 2.12-2.122 2.12zM3.008 63.574a2.127 2.127 0 01-2.122-2.119c0-1.165.955-2.12 2.122-2.12 1.167 0 2.122.955 2.122 2.12 0 1.166-.955 2.12-2.122 2.12zm145.859-.002h-.053a2.127 2.127 0 01-2.123-2.119c0-1.165.955-2.119 2.123-2.119h.053c1.167 0 2.122.954 2.122 2.12a2.126 2.126 0 01-2.122 2.118zm-6.951 0h-.053a2.127 2.127 0 01-2.122-2.119c0-1.165.955-2.119 2.122-2.119h.053c1.167 0 2.122.954 2.122 2.12a2.093 2.093 0 01-2.122 2.118zm-6.897 0h-.054a2.127 2.127 0 01-2.122-2.119c0-1.165.955-2.119 2.122-2.119h.054c1.167 0 2.122.954 2.122 2.12a2.126 2.126 0 01-2.122 2.118zm-6.951 0h-.053a2.128 2.128 0 01-2.123-2.119c0-1.165.956-2.119 2.123-2.119h.053c1.167 0 2.122.954 2.122 2.12a2.126 2.126 0 01-2.122 2.118zm-6.951 0a2.127 2.127 0 01-2.122-2.119c0-1.165.902-2.119 2.122-2.119h.053c1.168 0 2.123.954 2.123 2.12 0 1.165-1.009 2.118-2.176 2.118zm-6.95 0a2.127 2.127 0 01-2.123-2.119c0-1.165.902-2.119 2.123-2.119h.053c1.167 0 2.122.954 2.122 2.12 0 1.165-1.008 2.118-2.175 2.118zm-6.951 0h-.053a2.128 2.128 0 01-2.123-2.119c0-1.165.956-2.119 2.123-2.119h.053c1.167 0 2.122.954 2.122 2.12a2.126 2.126 0 01-2.122 2.118zm-6.951 0h-.053a2.127 2.127 0 01-2.122-2.119c0-1.165.955-2.119 2.122-2.119h.053c1.167 0 2.123.954 2.123 2.12a2.127 2.127 0 01-2.123 2.118zm-6.95 0h-.053a2.127 2.127 0 01-2.123-2.119c0-1.165.955-2.119 2.123-2.119h.052c1.168 0 2.123.954 2.123 2.12a2.126 2.126 0 01-2.123 2.118zm-6.951 0h-.053a2.127 2.127 0 01-2.123-2.119c0-1.165.956-2.119 2.123-2.119h.053c1.167 0 2.122.954 2.122 2.12a2.126 2.126 0 01-2.122 2.118zm-6.95 0a2.127 2.127 0 01-2.123-2.119c0-1.165.902-2.119 2.122-2.119h.053c1.168 0 2.123.954 2.123 2.12 0 1.165-1.008 2.118-2.176 2.118zm-6.951 0a2.127 2.127 0 01-2.123-2.119c0-1.165.902-2.119 2.123-2.119h.053c1.167 0 2.122.954 2.122 2.12 0 1.165-1.008 2.118-2.175 2.118zm-6.951 0h-.053a2.127 2.127 0 01-2.123-2.119c0-1.165.956-2.119 2.123-2.119h.053c1.167 0 2.122.954 2.122 2.12a2.093 2.093 0 01-2.122 2.118zm-6.898 0h-.053a2.127 2.127 0 01-2.122-2.119c0-1.165.955-2.119 2.122-2.119h.053c1.168 0 2.123.954 2.123 2.12a2.127 2.127 0 01-2.123 2.118zm-6.95 0h-.053a2.127 2.127 0 01-2.123-2.119c0-1.165.955-2.119 2.123-2.119h.053c1.167 0 2.122.954 2.122 2.12a2.126 2.126 0 01-2.122 2.118zm-6.951 0h-.053a2.127 2.127 0 01-2.122-2.119c0-1.165.955-2.119 2.122-2.119h.053c1.167 0 2.122.954 2.122 2.12a2.126 2.126 0 01-2.122 2.118zm-6.95 0a2.127 2.127 0 01-2.123-2.119c0-1.165.902-2.119 2.122-2.119h.053c1.168 0 2.123.954 2.123 2.12 0 1.165-1.009 2.118-2.176 2.118zm-6.951 0a2.127 2.127 0 01-2.123-2.119c0-1.165.902-2.119 2.123-2.119h.053c1.167 0 2.122.954 2.122 2.12 0 1.165-1.008 2.118-2.175 2.118zm-6.951 0h-.053a2.127 2.127 0 01-2.122-2.119c0-1.165.955-2.119 2.122-2.119h.053c1.167 0 2.122.954 2.122 2.12a2.126 2.126 0 01-2.122 2.118zm-6.95 0h-.054a2.127 2.127 0 01-2.122-2.119c0-1.165.955-2.119 2.122-2.119h.053c1.168 0 2.123.954 2.123 2.12a2.127 2.127 0 01-2.123 2.118zm-6.951 0h-.053a2.127 2.127 0 01-2.123-2.119c0-1.165.955-2.119 2.123-2.119h.053c1.167 0 2.122.954 2.122 2.12a2.126 2.126 0 01-2.122 2.118zm145.844 0a2.127 2.127 0 01-2.122-2.119c0-1.165.955-2.119 2.122-2.119 1.167 0 2.122.954 2.122 2.12a2.126 2.126 0 01-2.122 2.118zM3.008 56.157a2.127 2.127 0 01-2.122-2.119c0-1.165.955-2.12 2.122-2.12 1.167 0 2.122.955 2.122 2.12 0 1.166-.955 2.12-2.122 2.12zm145.859-.002h-.053a2.127 2.127 0 01-2.123-2.119c0-1.165.955-2.119 2.123-2.119h.053c1.167 0 2.122.954 2.122 2.12a2.126 2.126 0 01-2.122 2.118zm-6.951 0h-.053a2.127 2.127 0 01-2.122-2.119c0-1.165.955-2.119 2.122-2.119h.053c1.167 0 2.122.954 2.122 2.12a2.093 2.093 0 01-2.122 2.118zm-6.897 0h-.054a2.127 2.127 0 01-2.122-2.119c0-1.165.955-2.119 2.122-2.119h.054c1.167 0 2.122.954 2.122 2.12a2.126 2.126 0 01-2.122 2.118zm-6.951 0h-.053a2.128 2.128 0 01-2.123-2.119c0-1.165.956-2.119 2.123-2.119h.053c1.167 0 2.122.954 2.122 2.12a2.126 2.126 0 01-2.122 2.118zm-6.951 0a2.127 2.127 0 01-2.122-2.119c0-1.165.902-2.119 2.122-2.119h.053c1.168 0 2.123.954 2.123 2.12 0 1.165-1.009 2.118-2.176 2.118zm-6.95 0a2.127 2.127 0 01-2.123-2.119c0-1.165.902-2.119 2.123-2.119h.053c1.167 0 2.122.954 2.122 2.12 0 1.165-1.008 2.118-2.175 2.118zm-6.951 0h-.053a2.128 2.128 0 01-2.123-2.119c0-1.165.956-2.119 2.123-2.119h.053c1.167 0 2.122.954 2.122 2.12a2.126 2.126 0 01-2.122 2.118zm-6.951 0h-.053a2.127 2.127 0 01-2.122-2.119c0-1.165.955-2.119 2.122-2.119h.053c1.167 0 2.123.954 2.123 2.12a2.127 2.127 0 01-2.123 2.118zm-6.95 0h-.053a2.127 2.127 0 01-2.123-2.119c0-1.165.955-2.119 2.123-2.119h.052c1.168 0 2.123.954 2.123 2.12a2.126 2.126 0 01-2.123 2.118zm-6.951 0h-.053a2.127 2.127 0 01-2.123-2.119c0-1.165.956-2.119 2.123-2.119h.053c1.167 0 2.122.954 2.122 2.12a2.126 2.126 0 01-2.122 2.118zm-6.95 0a2.127 2.127 0 01-2.123-2.119c0-1.165.902-2.119 2.122-2.119h.053c1.168 0 2.123.954 2.123 2.12 0 1.165-1.008 2.118-2.176 2.118zm-6.951 0a2.127 2.127 0 01-2.123-2.119c0-1.165.902-2.119 2.123-2.119h.053c1.167 0 2.122.954 2.122 2.12 0 1.165-1.008 2.118-2.175 2.118zm-6.951 0h-.053a2.127 2.127 0 01-2.123-2.119c0-1.165.956-2.119 2.123-2.119h.053c1.167 0 2.122.954 2.122 2.12a2.093 2.093 0 01-2.122 2.118zm-6.898 0h-.053a2.127 2.127 0 01-2.122-2.119c0-1.165.955-2.119 2.122-2.119h.053c1.168 0 2.123.954 2.123 2.12a2.127 2.127 0 01-2.123 2.118zm-6.95 0h-.053a2.127 2.127 0 01-2.123-2.119c0-1.165.955-2.119 2.123-2.119h.053c1.167 0 2.122.954 2.122 2.12a2.126 2.126 0 01-2.122 2.118zm-6.951 0h-.053a2.127 2.127 0 01-2.122-2.119c0-1.165.955-2.119 2.122-2.119h.053c1.167 0 2.122.954 2.122 2.12a2.126 2.126 0 01-2.122 2.118zm-6.95 0a2.127 2.127 0 01-2.123-2.119c0-1.165.902-2.119 2.122-2.119h.053c1.168 0 2.123.954 2.123 2.12 0 1.165-1.009 2.118-2.176 2.118zm-6.951 0a2.127 2.127 0 01-2.123-2.119c0-1.165.902-2.119 2.123-2.119h.053c1.167 0 2.122.954 2.122 2.12 0 1.165-1.008 2.118-2.175 2.118zm-6.951 0h-.053a2.127 2.127 0 01-2.122-2.119c0-1.165.955-2.119 2.122-2.119h.053c1.167 0 2.122.954 2.122 2.12a2.126 2.126 0 01-2.122 2.118zm-6.95 0h-.054a2.127 2.127 0 01-2.122-2.119c0-1.165.955-2.119 2.122-2.119h.053c1.168 0 2.123.954 2.123 2.12a2.127 2.127 0 01-2.123 2.118zm-6.951 0h-.053a2.127 2.127 0 01-2.123-2.119c0-1.165.955-2.119 2.123-2.119h.053c1.167 0 2.122.954 2.122 2.12a2.126 2.126 0 01-2.122 2.118zm145.844.002a2.127 2.127 0 01-2.122-2.119c0-1.165.955-2.12 2.122-2.12 1.167 0 2.122.955 2.122 2.12 0 1.166-.955 2.12-2.122 2.12zM3.008 48.741a2.127 2.127 0 01-2.122-2.119c0-1.165.955-2.12 2.122-2.12 1.167 0 2.122.955 2.122 2.12 0 1.166-.955 2.12-2.122 2.12zm145.859.001h-.053a2.127 2.127 0 01-2.123-2.119c0-1.165.955-2.12 2.123-2.12h.053c1.167 0 2.122.955 2.122 2.12 0 1.166-.955 2.12-2.122 2.12zm-6.951 0h-.053a2.127 2.127 0 01-2.122-2.119c0-1.165.955-2.12 2.122-2.12h.053c1.167 0 2.122.955 2.122 2.12 0 1.166-.902 2.12-2.122 2.12zm-6.897 0h-.054a2.127 2.127 0 01-2.122-2.119c0-1.165.955-2.12 2.122-2.12h.054c1.167 0 2.122.955 2.122 2.12 0 1.166-.955 2.12-2.122 2.12zm-6.951 0h-.053a2.128 2.128 0 01-2.123-2.119c0-1.165.956-2.12 2.123-2.12h.053c1.167 0 2.122.955 2.122 2.12 0 1.166-.955 2.12-2.122 2.12zm-6.951 0a2.127 2.127 0 01-2.122-2.119c0-1.165.902-2.12 2.122-2.12h.053c1.168 0 2.123.955 2.123 2.12 0 1.166-1.009 2.12-2.176 2.12zm-6.95 0a2.127 2.127 0 01-2.123-2.119c0-1.165.902-2.12 2.123-2.12h.053c1.167 0 2.122.955 2.122 2.12 0 1.166-1.008 2.12-2.175 2.12zm-6.951 0h-.053a2.128 2.128 0 01-2.123-2.119c0-1.165.956-2.12 2.123-2.12h.053c1.167 0 2.122.955 2.122 2.12 0 1.166-.955 2.12-2.122 2.12zm-6.951 0h-.053a2.127 2.127 0 01-2.122-2.119c0-1.165.955-2.12 2.122-2.12h.053c1.167 0 2.123.955 2.123 2.12 0 1.166-.956 2.12-2.123 2.12zm-6.95 0h-.053a2.127 2.127 0 01-2.123-2.119c0-1.165.955-2.12 2.123-2.12h.052c1.168 0 2.123.955 2.123 2.12 0 1.166-.955 2.12-2.123 2.12zm-6.951 0h-.053a2.127 2.127 0 01-2.123-2.119c0-1.165.956-2.12 2.123-2.12h.053c1.167 0 2.122.955 2.122 2.12 0 1.166-.955 2.12-2.122 2.12zm-6.95 0a2.127 2.127 0 01-2.123-2.119c0-1.165.902-2.12 2.122-2.12h.053c1.168 0 2.123.955 2.123 2.12 0 1.166-1.008 2.12-2.176 2.12zm-6.951 0a2.127 2.127 0 01-2.123-2.119c0-1.165.902-2.12 2.123-2.12h.053c1.167 0 2.122.955 2.122 2.12 0 1.166-1.008 2.12-2.175 2.12zm-6.951 0h-.053a2.127 2.127 0 01-2.123-2.119c0-1.165.956-2.12 2.123-2.12h.053c1.167 0 2.122.955 2.122 2.12 0 1.166-.902 2.12-2.122 2.12zm-6.898 0h-.053a2.127 2.127 0 01-2.122-2.119c0-1.165.955-2.12 2.122-2.12h.053c1.168 0 2.123.955 2.123 2.12 0 1.166-.956 2.12-2.123 2.12zm-6.95 0h-.053a2.127 2.127 0 01-2.123-2.119c0-1.165.955-2.12 2.123-2.12h.053c1.167 0 2.122.955 2.122 2.12 0 1.166-.955 2.12-2.122 2.12zm-6.951 0h-.053a2.127 2.127 0 01-2.122-2.119c0-1.165.955-2.12 2.122-2.12h.053c1.167 0 2.122.955 2.122 2.12 0 1.166-.955 2.12-2.122 2.12zm-6.95 0a2.127 2.127 0 01-2.123-2.119c0-1.165.902-2.12 2.122-2.12h.053c1.168 0 2.123.955 2.123 2.12 0 1.166-1.009 2.12-2.176 2.12zm-6.951 0a2.127 2.127 0 01-2.123-2.119c0-1.165.902-2.12 2.123-2.12h.053c1.167 0 2.122.955 2.122 2.12 0 1.166-1.008 2.12-2.175 2.12zm-6.951 0h-.053a2.127 2.127 0 01-2.122-2.119c0-1.165.955-2.12 2.122-2.12h.053c1.167 0 2.122.955 2.122 2.12 0 1.166-.955 2.12-2.122 2.12zm-6.95 0h-.054a2.127 2.127 0 01-2.122-2.119c0-1.165.955-2.12 2.122-2.12h.053c1.168 0 2.123.955 2.123 2.12 0 1.166-.956 2.12-2.123 2.12zm-6.951 0h-.053a2.127 2.127 0 01-2.123-2.119c0-1.165.955-2.12 2.123-2.12h.053c1.167 0 2.122.955 2.122 2.12 0 1.166-.955 2.12-2.122 2.12zm145.844-.001a2.127 2.127 0 01-2.122-2.119c0-1.165.955-2.12 2.122-2.12 1.167 0 2.122.955 2.122 2.12 0 1.166-.955 2.12-2.122 2.12zM3.008 41.321a2.127 2.127 0 01-2.122-2.119c0-1.165.955-2.119 2.122-2.119 1.167 0 2.122.954 2.122 2.12a2.126 2.126 0 01-2.122 2.118zm145.859-.001h-.053a2.127 2.127 0 01-2.123-2.119c0-1.165.955-2.119 2.123-2.119h.053c1.167 0 2.122.954 2.122 2.12a2.126 2.126 0 01-2.122 2.118zm-6.951 0h-.053a2.127 2.127 0 01-2.122-2.119c0-1.165.955-2.119 2.122-2.119h.053c1.167 0 2.122.954 2.122 2.12a2.093 2.093 0 01-2.122 2.118zm-6.897 0h-.054a2.127 2.127 0 01-2.122-2.119c0-1.165.955-2.119 2.122-2.119h.054c1.167 0 2.122.954 2.122 2.12a2.126 2.126 0 01-2.122 2.118zm-6.951 0h-.053a2.128 2.128 0 01-2.123-2.119c0-1.165.956-2.119 2.123-2.119h.053c1.167 0 2.122.954 2.122 2.12a2.126 2.126 0 01-2.122 2.118zm-6.951 0a2.127 2.127 0 01-2.122-2.119c0-1.165.902-2.119 2.122-2.119h.053c1.168 0 2.123.954 2.123 2.12 0 1.165-1.009 2.118-2.176 2.118zm-6.95 0a2.127 2.127 0 01-2.123-2.119c0-1.165.902-2.119 2.123-2.119h.053c1.167 0 2.122.954 2.122 2.12 0 1.165-1.008 2.118-2.175 2.118zm-6.951 0h-.053a2.128 2.128 0 01-2.123-2.119c0-1.165.956-2.119 2.123-2.119h.053c1.167 0 2.122.954 2.122 2.12a2.126 2.126 0 01-2.122 2.118zm-6.951 0h-.053a2.127 2.127 0 01-2.122-2.119c0-1.165.955-2.119 2.122-2.119h.053c1.167 0 2.123.954 2.123 2.12a2.127 2.127 0 01-2.123 2.118zm-6.95 0h-.053a2.127 2.127 0 01-2.123-2.119c0-1.165.955-2.119 2.123-2.119h.052c1.168 0 2.123.954 2.123 2.12a2.126 2.126 0 01-2.123 2.118zm-6.951 0h-.053a2.127 2.127 0 01-2.123-2.119c0-1.165.956-2.119 2.123-2.119h.053c1.167 0 2.122.954 2.122 2.12a2.126 2.126 0 01-2.122 2.118zm-6.95 0a2.127 2.127 0 01-2.123-2.119c0-1.165.902-2.119 2.122-2.119h.053c1.168 0 2.123.954 2.123 2.12 0 1.165-1.008 2.118-2.176 2.118zm-6.951 0a2.127 2.127 0 01-2.123-2.119c0-1.165.902-2.119 2.123-2.119h.053c1.167 0 2.122.954 2.122 2.12 0 1.165-1.008 2.118-2.175 2.118zm-6.951 0h-.053a2.127 2.127 0 01-2.123-2.119c0-1.165.956-2.119 2.123-2.119h.053c1.167 0 2.122.954 2.122 2.12a2.093 2.093 0 01-2.122 2.118zm-6.898 0h-.053a2.127 2.127 0 01-2.122-2.119c0-1.165.955-2.119 2.122-2.119h.053c1.168 0 2.123.954 2.123 2.12a2.127 2.127 0 01-2.123 2.118zm-6.95 0h-.053a2.127 2.127 0 01-2.123-2.119c0-1.165.955-2.119 2.123-2.119h.053c1.167 0 2.122.954 2.122 2.12a2.126 2.126 0 01-2.122 2.118zm-6.951 0h-.053a2.127 2.127 0 01-2.122-2.119c0-1.165.955-2.119 2.122-2.119h.053c1.167 0 2.122.954 2.122 2.12a2.126 2.126 0 01-2.122 2.118zm-6.95 0a2.127 2.127 0 01-2.123-2.119c0-1.165.902-2.119 2.122-2.119h.053c1.168 0 2.123.954 2.123 2.12 0 1.165-1.009 2.118-2.176 2.118zm-6.951 0a2.127 2.127 0 01-2.123-2.119c0-1.165.902-2.119 2.123-2.119h.053c1.167 0 2.122.954 2.122 2.12 0 1.165-1.008 2.118-2.175 2.118zm-6.951 0h-.053a2.127 2.127 0 01-2.122-2.119c0-1.165.955-2.119 2.122-2.119h.053c1.167 0 2.122.954 2.122 2.12a2.126 2.126 0 01-2.122 2.118zm-6.95 0h-.054a2.127 2.127 0 01-2.122-2.119c0-1.165.955-2.119 2.122-2.119h.053c1.168 0 2.123.954 2.123 2.12a2.127 2.127 0 01-2.123 2.118zm-6.951 0h-.053a2.127 2.127 0 01-2.123-2.119c0-1.165.955-2.119 2.123-2.119h.053c1.167 0 2.122.954 2.122 2.12A2.126 2.126 0 019.96 41.32zm145.844 0a2.127 2.127 0 01-2.122-2.119c0-1.165.955-2.119 2.122-2.119 1.167 0 2.122.954 2.122 2.12a2.126 2.126 0 01-2.122 2.118zM3.008 33.908A2.127 2.127 0 01.886 31.79c0-1.165.955-2.12 2.122-2.12 1.167 0 2.122.955 2.122 2.12 0 1.166-.955 2.12-2.122 2.12zm145.859-.002h-.053a2.127 2.127 0 01-2.123-2.119c0-1.165.955-2.119 2.123-2.119h.053c1.167 0 2.122.954 2.122 2.12a2.126 2.126 0 01-2.122 2.118zm-6.951 0h-.053a2.127 2.127 0 01-2.122-2.119c0-1.165.955-2.119 2.122-2.119h.053c1.167 0 2.122.954 2.122 2.12a2.093 2.093 0 01-2.122 2.118zm-6.897 0h-.054a2.127 2.127 0 01-2.122-2.119c0-1.165.955-2.119 2.122-2.119h.054c1.167 0 2.122.954 2.122 2.12a2.126 2.126 0 01-2.122 2.118zm-6.951 0h-.053a2.128 2.128 0 01-2.123-2.119c0-1.165.956-2.119 2.123-2.119h.053c1.167 0 2.122.954 2.122 2.12a2.126 2.126 0 01-2.122 2.118zm-6.951 0a2.127 2.127 0 01-2.122-2.119c0-1.165.902-2.119 2.122-2.119h.053c1.168 0 2.123.954 2.123 2.12 0 1.165-1.009 2.118-2.176 2.118zm-6.95 0a2.127 2.127 0 01-2.123-2.119c0-1.165.902-2.119 2.123-2.119h.053c1.167 0 2.122.954 2.122 2.12 0 1.165-1.008 2.118-2.175 2.118zm-6.951 0h-.053a2.128 2.128 0 01-2.123-2.119c0-1.165.956-2.119 2.123-2.119h.053c1.167 0 2.122.954 2.122 2.12a2.126 2.126 0 01-2.122 2.118zm-6.951 0h-.053a2.127 2.127 0 01-2.122-2.119c0-1.165.955-2.119 2.122-2.119h.053c1.167 0 2.123.954 2.123 2.12a2.127 2.127 0 01-2.123 2.118zm-6.95 0h-.053a2.127 2.127 0 01-2.123-2.119c0-1.165.955-2.119 2.123-2.119h.052c1.168 0 2.123.954 2.123 2.12a2.126 2.126 0 01-2.123 2.118zm-6.951 0h-.053a2.127 2.127 0 01-2.123-2.119c0-1.165.956-2.119 2.123-2.119h.053c1.167 0 2.122.954 2.122 2.12a2.126 2.126 0 01-2.122 2.118zm-6.95 0a2.127 2.127 0 01-2.123-2.119c0-1.165.902-2.119 2.122-2.119h.053c1.168 0 2.123.954 2.123 2.12 0 1.165-1.008 2.118-2.176 2.118zm-6.951 0a2.127 2.127 0 01-2.123-2.119c0-1.165.902-2.119 2.123-2.119h.053c1.167 0 2.122.954 2.122 2.12 0 1.165-1.008 2.118-2.175 2.118zm-6.951 0h-.053a2.127 2.127 0 01-2.123-2.119c0-1.165.956-2.119 2.123-2.119h.053c1.167 0 2.122.954 2.122 2.12a2.093 2.093 0 01-2.122 2.118zm-6.898 0h-.053a2.127 2.127 0 01-2.122-2.119c0-1.165.955-2.119 2.122-2.119h.053c1.168 0 2.123.954 2.123 2.12a2.127 2.127 0 01-2.123 2.118zm-6.95 0h-.053a2.127 2.127 0 01-2.123-2.119c0-1.165.955-2.119 2.123-2.119h.053c1.167 0 2.122.954 2.122 2.12a2.126 2.126 0 01-2.122 2.118zm-6.951 0h-.053a2.127 2.127 0 01-2.122-2.119c0-1.165.955-2.119 2.122-2.119h.053c1.167 0 2.122.954 2.122 2.12a2.126 2.126 0 01-2.122 2.118zm-6.95 0a2.127 2.127 0 01-2.123-2.119c0-1.165.902-2.119 2.122-2.119h.053c1.168 0 2.123.954 2.123 2.12 0 1.165-1.009 2.118-2.176 2.118zm-6.951 0a2.127 2.127 0 01-2.123-2.119c0-1.165.902-2.119 2.123-2.119h.053c1.167 0 2.122.954 2.122 2.12 0 1.165-1.008 2.118-2.175 2.118zm-6.951 0h-.053a2.127 2.127 0 01-2.122-2.119c0-1.165.955-2.119 2.122-2.119h.053c1.167 0 2.122.954 2.122 2.12a2.126 2.126 0 01-2.122 2.118zm-6.95 0h-.054a2.127 2.127 0 01-2.122-2.119c0-1.165.955-2.119 2.122-2.119h.053c1.168 0 2.123.954 2.123 2.12a2.127 2.127 0 01-2.123 2.118zm-6.951 0h-.053a2.127 2.127 0 01-2.123-2.119c0-1.165.955-2.119 2.123-2.119h.053c1.167 0 2.122.954 2.122 2.12a2.126 2.126 0 01-2.122 2.118zm145.844 0a2.127 2.127 0 01-2.122-2.119c0-1.165.955-2.119 2.122-2.119 1.167 0 2.122.954 2.122 2.12a2.126 2.126 0 01-2.122 2.118zM3.008 26.49a2.127 2.127 0 01-2.122-2.12c0-1.165.955-2.119 2.122-2.119 1.167 0 2.122.954 2.122 2.12a2.126 2.126 0 01-2.122 2.118zm145.859.001h-.053a2.127 2.127 0 01-2.123-2.119c0-1.165.955-2.12 2.123-2.12h.053c1.167 0 2.122.955 2.122 2.12 0 1.166-.955 2.12-2.122 2.12zm-6.951 0h-.053a2.127 2.127 0 01-2.122-2.119c0-1.165.955-2.12 2.122-2.12h.053c1.167 0 2.122.955 2.122 2.12 0 1.166-.902 2.12-2.122 2.12zm-6.897 0h-.054a2.127 2.127 0 01-2.122-2.119c0-1.165.955-2.12 2.122-2.12h.054c1.167 0 2.122.955 2.122 2.12 0 1.166-.955 2.12-2.122 2.12zm-6.951 0h-.053a2.128 2.128 0 01-2.123-2.119c0-1.165.956-2.12 2.123-2.12h.053c1.167 0 2.122.955 2.122 2.12 0 1.166-.955 2.12-2.122 2.12zm-6.951 0a2.127 2.127 0 01-2.122-2.119c0-1.165.902-2.12 2.122-2.12h.053c1.168 0 2.123.955 2.123 2.12 0 1.166-1.009 2.12-2.176 2.12zm-6.95 0a2.127 2.127 0 01-2.123-2.119c0-1.165.902-2.12 2.123-2.12h.053c1.167 0 2.122.955 2.122 2.12 0 1.166-1.008 2.12-2.175 2.12zm-6.951 0h-.053a2.128 2.128 0 01-2.123-2.119c0-1.165.956-2.12 2.123-2.12h.053c1.167 0 2.122.955 2.122 2.12 0 1.166-.955 2.12-2.122 2.12zm-6.951 0h-.053a2.127 2.127 0 01-2.122-2.119c0-1.165.955-2.12 2.122-2.12h.053c1.167 0 2.123.955 2.123 2.12 0 1.166-.956 2.12-2.123 2.12zm-6.95 0h-.053a2.127 2.127 0 01-2.123-2.119c0-1.165.955-2.12 2.123-2.12h.052c1.168 0 2.123.955 2.123 2.12 0 1.166-.955 2.12-2.123 2.12zm-6.951 0h-.053a2.127 2.127 0 01-2.123-2.119c0-1.165.956-2.12 2.123-2.12h.053c1.167 0 2.122.955 2.122 2.12 0 1.166-.955 2.12-2.122 2.12zm-6.95 0a2.127 2.127 0 01-2.123-2.119c0-1.165.902-2.12 2.122-2.12h.053c1.168 0 2.123.955 2.123 2.12 0 1.166-1.008 2.12-2.176 2.12zm-6.951 0a2.127 2.127 0 01-2.123-2.119c0-1.165.902-2.12 2.123-2.12h.053c1.167 0 2.122.955 2.122 2.12 0 1.166-1.008 2.12-2.175 2.12zm-6.951 0h-.053a2.127 2.127 0 01-2.123-2.119c0-1.165.956-2.12 2.123-2.12h.053c1.167 0 2.122.955 2.122 2.12 0 1.166-.902 2.12-2.122 2.12zm-6.898 0h-.053a2.127 2.127 0 01-2.122-2.119c0-1.165.955-2.12 2.122-2.12h.053c1.168 0 2.123.955 2.123 2.12 0 1.166-.956 2.12-2.123 2.12zm-6.95 0h-.053a2.127 2.127 0 01-2.123-2.119c0-1.165.955-2.12 2.123-2.12h.053c1.167 0 2.122.955 2.122 2.12 0 1.166-.955 2.12-2.122 2.12zm-6.951 0h-.053a2.127 2.127 0 01-2.122-2.119c0-1.165.955-2.12 2.122-2.12h.053c1.167 0 2.122.955 2.122 2.12 0 1.166-.955 2.12-2.122 2.12zm-6.95 0a2.127 2.127 0 01-2.123-2.119c0-1.165.902-2.12 2.122-2.12h.053c1.168 0 2.123.955 2.123 2.12 0 1.166-1.009 2.12-2.176 2.12zm-6.951 0a2.127 2.127 0 01-2.123-2.119c0-1.165.902-2.12 2.123-2.12h.053c1.167 0 2.122.955 2.122 2.12 0 1.166-1.008 2.12-2.175 2.12zm-6.951 0h-.053a2.127 2.127 0 01-2.122-2.119c0-1.165.955-2.12 2.122-2.12h.053c1.167 0 2.122.955 2.122 2.12 0 1.166-.955 2.12-2.122 2.12zm-6.95 0h-.054a2.127 2.127 0 01-2.122-2.119c0-1.165.955-2.12 2.122-2.12h.053c1.168 0 2.123.955 2.123 2.12 0 1.166-.956 2.12-2.123 2.12zm-6.951 0h-.053a2.127 2.127 0 01-2.123-2.119c0-1.165.955-2.12 2.123-2.12h.053c1.167 0 2.122.955 2.122 2.12 0 1.166-.955 2.12-2.122 2.12zm145.844-.003a2.127 2.127 0 01-2.122-2.119c0-1.165.955-2.119 2.122-2.119 1.167 0 2.122.954 2.122 2.12a2.126 2.126 0 01-2.122 2.118zM3.008 19.071a2.127 2.127 0 01-2.122-2.119c0-1.165.955-2.119 2.122-2.119 1.167 0 2.122.954 2.122 2.12a2.126 2.126 0 01-2.122 2.118zm145.859.002h-.053a2.127 2.127 0 01-2.123-2.119c0-1.165.955-2.119 2.123-2.119h.053c1.167 0 2.122.954 2.122 2.12a2.126 2.126 0 01-2.122 2.118zm-6.951 0h-.053a2.127 2.127 0 01-2.122-2.119c0-1.165.955-2.119 2.122-2.119h.053c1.167 0 2.122.954 2.122 2.12a2.093 2.093 0 01-2.122 2.118zm-6.897 0h-.054a2.127 2.127 0 01-2.122-2.119c0-1.165.955-2.119 2.122-2.119h.054c1.167 0 2.122.954 2.122 2.12a2.126 2.126 0 01-2.122 2.118zm-6.951 0h-.053a2.128 2.128 0 01-2.123-2.119c0-1.165.956-2.119 2.123-2.119h.053c1.167 0 2.122.954 2.122 2.12a2.126 2.126 0 01-2.122 2.118zm-6.951 0a2.127 2.127 0 01-2.122-2.119c0-1.165.902-2.119 2.122-2.119h.053c1.168 0 2.123.954 2.123 2.12 0 1.165-1.009 2.118-2.176 2.118zm-6.95 0a2.127 2.127 0 01-2.123-2.119c0-1.165.902-2.119 2.123-2.119h.053c1.167 0 2.122.954 2.122 2.12 0 1.165-1.008 2.118-2.175 2.118zm-6.951 0h-.053a2.128 2.128 0 01-2.123-2.119c0-1.165.956-2.119 2.123-2.119h.053c1.167 0 2.122.954 2.122 2.12a2.126 2.126 0 01-2.122 2.118zm-6.951 0h-.053a2.127 2.127 0 01-2.122-2.119c0-1.165.955-2.119 2.122-2.119h.053c1.167 0 2.123.954 2.123 2.12a2.127 2.127 0 01-2.123 2.118zm-6.95 0h-.053a2.127 2.127 0 01-2.123-2.119c0-1.165.955-2.119 2.123-2.119h.052c1.168 0 2.123.954 2.123 2.12a2.126 2.126 0 01-2.123 2.118zm-6.951 0h-.053a2.127 2.127 0 01-2.123-2.119c0-1.165.956-2.119 2.123-2.119h.053c1.167 0 2.122.954 2.122 2.12a2.126 2.126 0 01-2.122 2.118zm-6.95 0a2.127 2.127 0 01-2.123-2.119c0-1.165.902-2.119 2.122-2.119h.053c1.168 0 2.123.954 2.123 2.12 0 1.165-1.008 2.118-2.176 2.118zm-6.951 0a2.127 2.127 0 01-2.123-2.119c0-1.165.902-2.119 2.123-2.119h.053c1.167 0 2.122.954 2.122 2.12 0 1.165-1.008 2.118-2.175 2.118zm-6.951 0h-.053a2.127 2.127 0 01-2.123-2.119c0-1.165.956-2.119 2.123-2.119h.053c1.167 0 2.122.954 2.122 2.12a2.093 2.093 0 01-2.122 2.118zm-6.898 0h-.053a2.127 2.127 0 01-2.122-2.119c0-1.165.955-2.119 2.122-2.119h.053c1.168 0 2.123.954 2.123 2.12a2.127 2.127 0 01-2.123 2.118zm-6.95 0h-.053a2.127 2.127 0 01-2.123-2.119c0-1.165.955-2.119 2.123-2.119h.053c1.167 0 2.122.954 2.122 2.12a2.126 2.126 0 01-2.122 2.118zm-6.951 0h-.053a2.127 2.127 0 01-2.122-2.119c0-1.165.955-2.119 2.122-2.119h.053c1.167 0 2.122.954 2.122 2.12a2.126 2.126 0 01-2.122 2.118zm-6.95 0a2.127 2.127 0 01-2.123-2.119c0-1.165.902-2.119 2.122-2.119h.053c1.168 0 2.123.954 2.123 2.12 0 1.165-1.009 2.118-2.176 2.118zm-6.951 0a2.127 2.127 0 01-2.123-2.119c0-1.165.902-2.119 2.123-2.119h.053c1.167 0 2.122.954 2.122 2.12 0 1.165-1.008 2.118-2.175 2.118zm-6.951 0h-.053a2.127 2.127 0 01-2.122-2.119c0-1.165.955-2.119 2.122-2.119h.053c1.167 0 2.122.954 2.122 2.12a2.126 2.126 0 01-2.122 2.118zm-6.95 0h-.054a2.127 2.127 0 01-2.122-2.119c0-1.165.955-2.119 2.122-2.119h.053c1.168 0 2.123.954 2.123 2.12a2.127 2.127 0 01-2.123 2.118zm-6.951 0h-.053a2.127 2.127 0 01-2.123-2.119c0-1.165.955-2.119 2.123-2.119h.053c1.167 0 2.122.954 2.122 2.12a2.126 2.126 0 01-2.122 2.118zm145.844-.001a2.127 2.127 0 01-2.122-2.119c0-1.165.955-2.119 2.122-2.119 1.167 0 2.122.954 2.122 2.12a2.126 2.126 0 01-2.122 2.118zM3.008 11.656A2.127 2.127 0 01.886 9.537c0-1.165.955-2.119 2.122-2.119 1.167 0 2.122.954 2.122 2.12a2.126 2.126 0 01-2.122 2.118zm145.859-.001h-.053a2.127 2.127 0 01-2.123-2.119c0-1.165.955-2.119 2.123-2.119h.053c1.167 0 2.122.954 2.122 2.12a2.126 2.126 0 01-2.122 2.118zm-6.951 0h-.053a2.127 2.127 0 01-2.122-2.119c0-1.165.955-2.119 2.122-2.119h.053c1.167 0 2.122.954 2.122 2.12a2.093 2.093 0 01-2.122 2.118zm-6.897 0h-.054a2.127 2.127 0 01-2.122-2.119c0-1.165.955-2.119 2.122-2.119h.054c1.167 0 2.122.954 2.122 2.12a2.126 2.126 0 01-2.122 2.118zm-6.951 0h-.053a2.128 2.128 0 01-2.123-2.119c0-1.165.956-2.119 2.123-2.119h.053c1.167 0 2.122.954 2.122 2.12a2.126 2.126 0 01-2.122 2.118zm-6.951 0a2.127 2.127 0 01-2.122-2.119c0-1.165.902-2.119 2.122-2.119h.053c1.168 0 2.123.954 2.123 2.12 0 1.165-1.009 2.118-2.176 2.118zm-6.95 0a2.127 2.127 0 01-2.123-2.119c0-1.165.902-2.119 2.123-2.119h.053c1.167 0 2.122.954 2.122 2.12 0 1.165-1.008 2.118-2.175 2.118zm-6.951 0h-.053a2.128 2.128 0 01-2.123-2.119c0-1.165.956-2.119 2.123-2.119h.053c1.167 0 2.122.954 2.122 2.12a2.126 2.126 0 01-2.122 2.118zm-6.951 0h-.053a2.127 2.127 0 01-2.122-2.119c0-1.165.955-2.119 2.122-2.119h.053c1.167 0 2.123.954 2.123 2.12a2.127 2.127 0 01-2.123 2.118zm-6.95 0h-.053a2.127 2.127 0 01-2.123-2.119c0-1.165.955-2.119 2.123-2.119h.052c1.168 0 2.123.954 2.123 2.12a2.126 2.126 0 01-2.123 2.118zm-6.951 0h-.053a2.127 2.127 0 01-2.123-2.119c0-1.165.956-2.119 2.123-2.119h.053c1.167 0 2.122.954 2.122 2.12a2.126 2.126 0 01-2.122 2.118zm-6.95 0a2.127 2.127 0 01-2.123-2.119c0-1.165.902-2.119 2.122-2.119h.053c1.168 0 2.123.954 2.123 2.12 0 1.165-1.008 2.118-2.176 2.118zm-6.951 0a2.127 2.127 0 01-2.123-2.119c0-1.165.902-2.119 2.123-2.119h.053c1.167 0 2.122.954 2.122 2.12 0 1.165-1.008 2.118-2.175 2.118zm-6.951 0h-.053a2.127 2.127 0 01-2.123-2.119c0-1.165.956-2.119 2.123-2.119h.053c1.167 0 2.122.954 2.122 2.12a2.093 2.093 0 01-2.122 2.118zm-6.898 0h-.053a2.127 2.127 0 01-2.122-2.119c0-1.165.955-2.119 2.122-2.119h.053c1.168 0 2.123.954 2.123 2.12a2.127 2.127 0 01-2.123 2.118zm-6.95 0h-.053a2.127 2.127 0 01-2.123-2.119c0-1.165.955-2.119 2.123-2.119h.053c1.167 0 2.122.954 2.122 2.12a2.126 2.126 0 01-2.122 2.118zm-6.951 0h-.053a2.127 2.127 0 01-2.122-2.119c0-1.165.955-2.119 2.122-2.119h.053c1.167 0 2.122.954 2.122 2.12a2.126 2.126 0 01-2.122 2.118zm-6.95 0a2.127 2.127 0 01-2.123-2.119c0-1.165.902-2.119 2.122-2.119h.053c1.168 0 2.123.954 2.123 2.12 0 1.165-1.009 2.118-2.176 2.118zm-6.951 0a2.127 2.127 0 01-2.123-2.119c0-1.165.902-2.119 2.123-2.119h.053c1.167 0 2.122.954 2.122 2.12 0 1.165-1.008 2.118-2.175 2.118zm-6.951 0h-.053a2.127 2.127 0 01-2.122-2.119c0-1.165.955-2.119 2.122-2.119h.053c1.167 0 2.122.954 2.122 2.12a2.126 2.126 0 01-2.122 2.118zm-6.95 0h-.054a2.127 2.127 0 01-2.122-2.119c0-1.165.955-2.119 2.122-2.119h.053c1.168 0 2.123.954 2.123 2.12a2.127 2.127 0 01-2.123 2.118zm-6.951 0h-.053a2.127 2.127 0 01-2.123-2.119c0-1.165.955-2.119 2.123-2.119h.053c1.167 0 2.122.954 2.122 2.12a2.126 2.126 0 01-2.122 2.118zm145.844-.002a2.127 2.127 0 01-2.122-2.119c0-1.165.955-2.119 2.122-2.119 1.167 0 2.122.954 2.122 2.12a2.126 2.126 0 01-2.122 2.118zM3.008 4.238A2.127 2.127 0 01.886 2.12C.886.954 1.84 0 3.008 0 4.175 0 5.13.954 5.13 2.12a2.126 2.126 0 01-2.122 2.118zm145.859 0h-.053a2.127 2.127 0 01-2.123-2.119c0-1.165.955-2.119 2.123-2.119h.053c1.167 0 2.122.954 2.122 2.12a2.126 2.126 0 01-2.122 2.118zm-6.951 0h-.053a2.127 2.127 0 01-2.122-2.119c0-1.165.955-2.119 2.122-2.119h.053c1.167 0 2.122.954 2.122 2.12a2.093 2.093 0 01-2.122 2.118zm-6.897 0h-.054a2.127 2.127 0 01-2.122-2.119c0-1.165.955-2.119 2.122-2.119h.054c1.167 0 2.122.954 2.122 2.12a2.126 2.126 0 01-2.122 2.118zm-6.951 0h-.053a2.128 2.128 0 01-2.123-2.119c0-1.165.956-2.119 2.123-2.119h.053c1.167 0 2.122.954 2.122 2.12a2.126 2.126 0 01-2.122 2.118zm-6.951 0a2.127 2.127 0 01-2.122-2.119c0-1.165.902-2.119 2.122-2.119h.053c1.168 0 2.123.954 2.123 2.12 0 1.165-1.009 2.118-2.176 2.118zm-6.95 0a2.127 2.127 0 01-2.123-2.119c0-1.165.902-2.119 2.123-2.119h.053c1.167 0 2.122.954 2.122 2.12 0 1.165-1.008 2.118-2.175 2.118zm-6.951 0h-.053a2.128 2.128 0 01-2.123-2.119c0-1.165.956-2.119 2.123-2.119h.053c1.167 0 2.122.954 2.122 2.12a2.126 2.126 0 01-2.122 2.118zm-6.951 0h-.053A2.127 2.127 0 0198.09 2.12c0-1.166.955-2.12 2.122-2.12h.053c1.167 0 2.123.954 2.123 2.12a2.127 2.127 0 01-2.123 2.118zm-6.95 0h-.053a2.127 2.127 0 01-2.123-2.119A2.128 2.128 0 0193.262 0h.052c1.168 0 2.123.954 2.123 2.12a2.126 2.126 0 01-2.123 2.118zm-6.951 0h-.053a2.127 2.127 0 01-2.123-2.119A2.13 2.13 0 0186.312 0h.053c1.167 0 2.122.954 2.122 2.12a2.126 2.126 0 01-2.122 2.118zm-6.95 0A2.127 2.127 0 0177.29 2.12c0-1.166.903-2.12 2.123-2.12h.053c1.168 0 2.123.954 2.123 2.12 0 1.165-1.008 2.118-2.176 2.118zm-6.951 0A2.127 2.127 0 0170.34 2.12c0-1.166.902-2.12 2.123-2.12h.053c1.167 0 2.122.954 2.122 2.12 0 1.165-1.008 2.118-2.175 2.118zm-6.951 0h-.053a2.127 2.127 0 01-2.123-2.119A2.13 2.13 0 0165.46 0h.053c1.167 0 2.122.954 2.122 2.12a2.093 2.093 0 01-2.122 2.118zm-6.898 0h-.053A2.127 2.127 0 0156.44 2.12 2.126 2.126 0 0158.56 0h.053c1.168 0 2.123.954 2.123 2.12a2.127 2.127 0 01-2.123 2.118zm-6.95 0h-.053a2.127 2.127 0 01-2.123-2.119C49.488.954 50.443 0 51.611 0h.053c1.167 0 2.122.954 2.122 2.12a2.126 2.126 0 01-2.122 2.118zm-6.951 0h-.053a2.127 2.127 0 01-2.122-2.119C42.538.954 43.492 0 44.66 0h.053c1.167 0 2.122.954 2.122 2.12a2.126 2.126 0 01-2.122 2.118zm-6.95 0A2.127 2.127 0 0135.64 2.12c0-1.166.902-2.12 2.122-2.12h.053c1.168 0 2.123.954 2.123 2.12 0 1.165-1.009 2.118-2.176 2.118zm-6.951 0a2.127 2.127 0 01-2.123-2.119A2.094 2.094 0 0130.812 0h.053c1.167 0 2.122.954 2.122 2.12 0 1.165-1.008 2.118-2.175 2.118zm-6.951 0h-.053a2.127 2.127 0 01-2.122-2.119C21.686.954 22.64 0 23.808 0h.053c1.167 0 2.122.954 2.122 2.12a2.126 2.126 0 01-2.122 2.118zm-6.95 0h-.054a2.127 2.127 0 01-2.122-2.119C14.735.954 15.69 0 16.857 0h.053c1.168 0 2.123.954 2.123 2.12a2.127 2.127 0 01-2.123 2.118zm-6.951 0h-.053A2.127 2.127 0 017.784 2.12C7.784.954 8.74 0 9.907 0h.053c1.167 0 2.122.954 2.122 2.12A2.126 2.126 0 019.96 4.238zm145.844.003a2.127 2.127 0 01-2.122-2.119c0-1.165.955-2.12 2.122-2.12 1.167 0 2.122.955 2.122 2.12 0 1.166-.955 2.12-2.122 2.12z" opacity=".7" fill="#FBDDC1"/></svg>