<svg width="54" height="56" fill="none" xmlns="http://www.w3.org/2000/svg"><mask id="a" maskUnits="userSpaceOnUse" x="0" y="0" width="55" height="56"><path d="M.73 55.535a.732.732 0 01-.73-.73c0-.402.328-.73.73-.73.401 0 .73.328.73.73 0 .401-.329.73-.73.73zm50.153 0h-.018a.732.732 0 01-.73-.73c0-.402.329-.73.73-.73h.018c.402 0 .73.328.73.73 0 .401-.328.73-.73.73zm-2.39 0h-.018a.732.732 0 01-.73-.73c0-.402.329-.73.73-.73h.018c.402 0 .73.328.73.73a.72.72 0 01-.73.73zm-2.371 0h-.019a.732.732 0 01-.73-.73c0-.402.329-.73.73-.73h.019c.401 0 .73.328.73.73 0 .401-.329.73-.73.73zm-2.39 0h-.019a.732.732 0 01-.73-.73c0-.402.329-.73.73-.73h.019c.401 0 .73.328.73.73 0 .401-.329.73-.73.73zm-2.39 0a.732.732 0 01-.73-.73c0-.402.31-.73.73-.73h.018c.401 0 .73.328.73.73 0 .401-.347.73-.748.73zm-2.39 0a.732.732 0 01-.73-.73c0-.402.31-.73.73-.73h.018c.401 0 .73.328.73.73 0 .401-.347.73-.748.73zm-2.39 0h-.019a.732.732 0 01-.73-.73c0-.402.329-.73.73-.73h.019c.4 0 .73.328.73.73 0 .401-.33.73-.73.73zm-2.39 0h-.019a.732.732 0 01-.73-.73c0-.402.329-.73.73-.73h.018c.402 0 .73.328.73.73 0 .401-.328.73-.73.73zm-2.39 0h-.019a.732.732 0 01-.73-.73c0-.402.329-.73.73-.73h.018c.402 0 .73.328.73.73 0 .401-.328.73-.73.73zm-2.39 0h-.019a.732.732 0 01-.73-.73c0-.402.329-.73.73-.73h.018c.402 0 .73.328.73.73 0 .401-.328.73-.73.73zm-2.39 0a.732.732 0 01-.73-.73c0-.402.31-.73.73-.73h.018c.4 0 .73.328.73.73 0 .401-.347.73-.749.73zm-2.39 0a.732.732 0 01-.73-.73c0-.402.31-.73.73-.73h.018c.4 0 .73.328.73.73 0 .401-.347.73-.749.73zm-2.39 0h-.019a.732.732 0 01-.73-.73c0-.402.329-.73.73-.73h.018c.402 0 .73.328.73.73a.72.72 0 01-.73.73zm-2.373 0h-.018a.732.732 0 01-.73-.73c0-.402.329-.73.73-.73h.018c.402 0 .73.328.73.73 0 .401-.328.73-.73.73zm-2.39 0h-.018a.732.732 0 01-.73-.73c0-.402.329-.73.73-.73h.018c.402 0 .73.328.73.73 0 .401-.328.73-.73.73zm-2.39 0h-.018a.732.732 0 01-.73-.73c0-.402.329-.73.73-.73h.018c.402 0 .73.328.73.73 0 .401-.328.73-.73.73zm-2.39 0a.732.732 0 01-.73-.73c0-.402.31-.73.73-.73h.018c.402 0 .73.328.73.73 0 .401-.346.73-.748.73zm-2.39 0a.732.732 0 01-.73-.73c0-.402.31-.73.73-.73h.018c.402 0 .73.328.73.73 0 .401-.346.73-.748.73zm-2.39 0h-.018a.732.732 0 01-.73-.73c0-.402.329-.73.73-.73h.018c.402 0 .73.328.73.73 0 .401-.328.73-.73.73zm-2.39 0h-.018a.732.732 0 01-.73-.73c0-.402.329-.73.73-.73h.018c.402 0 .73.328.73.73 0 .401-.328.73-.73.73zm-2.39 0h-.018a.732.732 0 01-.73-.73c0-.402.329-.73.73-.73h.018c.401 0 .73.328.73.73 0 .401-.329.73-.73.73zm50.151 0a.732.732 0 01-.73-.73c0-.402.328-.73.73-.73.401 0 .73.328.73.73 0 .401-.329.73-.73.73zM.73 52.98a.732.732 0 01-.73-.731c0-.402.328-.73.73-.73.401 0 .73.328.73.73 0 .402-.329.73-.73.73zm50.153 0h-.018a.732.732 0 01-.73-.73c0-.402.329-.73.73-.73h.018c.402 0 .73.328.73.73 0 .401-.328.73-.73.73zm-2.39 0h-.018a.732.732 0 01-.73-.73c0-.402.329-.73.73-.73h.018c.402 0 .73.328.73.73a.72.72 0 01-.73.73zm-2.371 0h-.019a.732.732 0 01-.73-.73c0-.402.329-.73.73-.73h.019c.401 0 .73.328.73.73 0 .401-.329.73-.73.73zm-2.39 0h-.019a.732.732 0 01-.73-.73c0-.402.329-.73.73-.73h.019c.401 0 .73.328.73.73 0 .401-.329.73-.73.73zm-2.39 0a.732.732 0 01-.73-.73c0-.402.31-.73.73-.73h.018c.401 0 .73.328.73.73 0 .401-.347.73-.748.73zm-2.39 0a.732.732 0 01-.73-.73c0-.402.31-.73.73-.73h.018c.401 0 .73.328.73.73 0 .401-.347.73-.748.73zm-2.39 0h-.019a.732.732 0 01-.73-.73c0-.402.329-.73.73-.73h.019c.4 0 .73.328.73.73 0 .401-.33.73-.73.73zm-2.39 0h-.019a.732.732 0 01-.73-.73c0-.402.329-.73.73-.73h.018c.402 0 .73.328.73.73 0 .401-.328.73-.73.73zm-2.39 0h-.019a.732.732 0 01-.73-.73c0-.402.329-.73.73-.73h.018c.402 0 .73.328.73.73 0 .401-.328.73-.73.73zm-2.39 0h-.019a.732.732 0 01-.73-.73c0-.402.329-.73.73-.73h.018c.402 0 .73.328.73.73 0 .401-.328.73-.73.73zm-2.39 0a.732.732 0 01-.73-.73c0-.402.31-.73.73-.73h.018c.4 0 .73.328.73.73 0 .401-.347.73-.749.73zm-2.39 0a.732.732 0 01-.73-.73c0-.402.31-.73.73-.73h.018c.4 0 .73.328.73.73 0 .401-.347.73-.749.73zm-2.39 0h-.019a.732.732 0 01-.73-.73c0-.402.329-.73.73-.73h.018c.402 0 .73.328.73.73a.72.72 0 01-.73.73zm-2.373 0h-.018a.732.732 0 01-.73-.73c0-.402.329-.73.73-.73h.018c.402 0 .73.328.73.73 0 .401-.328.73-.73.73zm-2.39 0h-.018a.732.732 0 01-.73-.73c0-.402.329-.73.73-.73h.018c.402 0 .73.328.73.73 0 .401-.328.73-.73.73zm-2.39 0h-.018a.732.732 0 01-.73-.73c0-.402.329-.73.73-.73h.018c.402 0 .73.328.73.73 0 .401-.328.73-.73.73zm-2.39 0a.732.732 0 01-.73-.73c0-.402.31-.73.73-.73h.018c.402 0 .73.328.73.73 0 .401-.346.73-.748.73zm-2.39 0a.732.732 0 01-.73-.73c0-.402.31-.73.73-.73h.018c.402 0 .73.328.73.73 0 .401-.346.73-.748.73zm-2.39 0h-.018a.732.732 0 01-.73-.73c0-.402.329-.73.73-.73h.018c.402 0 .73.328.73.73 0 .401-.328.73-.73.73zm-2.39 0h-.018a.732.732 0 01-.73-.73c0-.402.329-.73.73-.73h.018c.402 0 .73.328.73.73 0 .401-.328.73-.73.73zm-2.39 0h-.018a.732.732 0 01-.73-.73c0-.402.329-.73.73-.73h.018c.401 0 .73.328.73.73 0 .401-.329.73-.73.73zm50.151 0a.732.732 0 01-.73-.73c0-.402.328-.73.73-.73.401 0 .73.328.73.73 0 .401-.329.73-.73.73zM.73 50.423a.732.732 0 01-.73-.73c0-.402.328-.731.73-.731.401 0 .73.329.73.73 0 .402-.329.73-.73.73zm50.153 0h-.018a.732.732 0 01-.73-.73c0-.402.329-.731.73-.731h.018c.402 0 .73.329.73.73 0 .402-.328.73-.73.73zm-2.39 0h-.018a.732.732 0 01-.73-.73c0-.402.329-.731.73-.731h.018c.402 0 .73.329.73.73a.72.72 0 01-.73.73zm-2.371 0h-.019a.732.732 0 01-.73-.73c0-.402.329-.731.73-.731h.019c.401 0 .73.329.73.73 0 .402-.329.73-.73.73zm-2.39 0h-.019a.732.732 0 01-.73-.73c0-.402.329-.731.73-.731h.019c.401 0 .73.329.73.73 0 .402-.329.73-.73.73zm-2.39 0a.732.732 0 01-.73-.73c0-.402.31-.731.73-.731h.018c.401 0 .73.329.73.73 0 .402-.347.73-.748.73zm-2.39 0a.732.732 0 01-.73-.73c0-.402.31-.731.73-.731h.018c.401 0 .73.329.73.73 0 .402-.347.73-.748.73zm-2.39 0h-.019a.732.732 0 01-.73-.73c0-.402.329-.731.73-.731h.019c.4 0 .73.329.73.73 0 .402-.33.73-.73.73zm-2.39 0h-.019a.732.732 0 01-.73-.73c0-.402.329-.731.73-.731h.018c.402 0 .73.329.73.73 0 .402-.328.73-.73.73zm-2.39 0h-.019a.732.732 0 01-.73-.73c0-.402.329-.731.73-.731h.018c.402 0 .73.329.73.73 0 .402-.328.73-.73.73zm-2.39 0h-.019a.732.732 0 01-.73-.73c0-.402.329-.731.73-.731h.018c.402 0 .73.329.73.73 0 .402-.328.73-.73.73zm-2.39 0a.732.732 0 01-.73-.73c0-.402.31-.731.73-.731h.018c.4 0 .73.329.73.73 0 .402-.347.73-.749.73zm-2.39 0a.732.732 0 01-.73-.73c0-.402.31-.731.73-.731h.018c.4 0 .73.329.73.73 0 .402-.347.73-.749.73zm-2.39 0h-.019a.732.732 0 01-.73-.73c0-.402.329-.731.73-.731h.018c.402 0 .73.329.73.73a.72.72 0 01-.73.73zm-2.373 0h-.018a.732.732 0 01-.73-.73c0-.402.329-.731.73-.731h.018c.402 0 .73.329.73.73 0 .402-.328.73-.73.73zm-2.39 0h-.018a.732.732 0 01-.73-.73c0-.402.329-.731.73-.731h.018c.402 0 .73.329.73.73 0 .402-.328.73-.73.73zm-2.39 0h-.018a.732.732 0 01-.73-.73c0-.402.329-.731.73-.731h.018c.402 0 .73.329.73.73 0 .402-.328.73-.73.73zm-2.39 0a.732.732 0 01-.73-.73c0-.402.31-.731.73-.731h.018c.402 0 .73.329.73.73 0 .402-.346.73-.748.73zm-2.39 0a.732.732 0 01-.73-.73c0-.402.31-.731.73-.731h.018c.402 0 .73.329.73.73 0 .402-.346.73-.748.73zm-2.39 0h-.018a.732.732 0 01-.73-.73c0-.402.329-.731.73-.731h.018c.402 0 .73.329.73.73 0 .402-.328.73-.73.73zm-2.39 0h-.018a.732.732 0 01-.73-.73c0-.402.329-.731.73-.731h.018c.402 0 .73.329.73.73 0 .402-.328.73-.73.73zm-2.39 0h-.018a.732.732 0 01-.73-.73c0-.402.329-.731.73-.731h.018c.401 0 .73.329.73.73 0 .402-.329.73-.73.73zm50.151 0a.732.732 0 01-.73-.73c0-.402.328-.731.73-.731.401 0 .73.329.73.73 0 .402-.329.73-.73.73zM.73 47.866a.732.732 0 01-.73-.73c0-.402.328-.73.73-.73.401 0 .73.328.73.73 0 .401-.329.73-.73.73zm50.153.001h-.018a.732.732 0 01-.73-.73c0-.402.329-.73.73-.73h.018c.402 0 .73.328.73.73 0 .401-.328.73-.73.73zm-2.39 0h-.018a.732.732 0 01-.73-.73c0-.402.329-.73.73-.73h.018c.402 0 .73.328.73.73a.72.72 0 01-.73.73zm-2.371 0h-.019a.732.732 0 01-.73-.73c0-.402.329-.73.73-.73h.019c.401 0 .73.328.73.73 0 .401-.329.73-.73.73zm-2.39 0h-.019a.732.732 0 01-.73-.73c0-.402.329-.73.73-.73h.019c.401 0 .73.328.73.73 0 .401-.329.73-.73.73zm-2.39 0a.732.732 0 01-.73-.73c0-.402.31-.73.73-.73h.018c.401 0 .73.328.73.73 0 .401-.347.73-.748.73zm-2.39 0a.732.732 0 01-.73-.73c0-.402.31-.73.73-.73h.018c.401 0 .73.328.73.73 0 .401-.347.73-.748.73zm-2.39 0h-.019a.732.732 0 01-.73-.73c0-.402.329-.73.73-.73h.019c.4 0 .73.328.73.73 0 .401-.33.73-.73.73zm-2.39 0h-.019a.732.732 0 01-.73-.73c0-.402.329-.73.73-.73h.018c.402 0 .73.328.73.73 0 .401-.328.73-.73.73zm-2.39 0h-.019a.732.732 0 01-.73-.73c0-.402.329-.73.73-.73h.018c.402 0 .73.328.73.73 0 .401-.328.73-.73.73zm-2.39 0h-.019a.732.732 0 01-.73-.73c0-.402.329-.73.73-.73h.018c.402 0 .73.328.73.73 0 .401-.328.73-.73.73zm-2.39 0a.732.732 0 01-.73-.73c0-.402.31-.73.73-.73h.018c.4 0 .73.328.73.73 0 .401-.347.73-.749.73zm-2.39 0a.732.732 0 01-.73-.73c0-.402.31-.73.73-.73h.018c.4 0 .73.328.73.73 0 .401-.347.73-.749.73zm-2.39 0h-.019a.732.732 0 01-.73-.73c0-.402.329-.73.73-.73h.018c.402 0 .73.328.73.73a.72.72 0 01-.73.73zm-2.373 0h-.018a.732.732 0 01-.73-.73c0-.402.329-.73.73-.73h.018c.402 0 .73.328.73.73 0 .401-.328.73-.73.73zm-2.39 0h-.018a.732.732 0 01-.73-.73c0-.402.329-.73.73-.73h.018c.402 0 .73.328.73.73 0 .401-.328.73-.73.73zm-2.39 0h-.018a.732.732 0 01-.73-.73c0-.402.329-.73.73-.73h.018c.402 0 .73.328.73.73 0 .401-.328.73-.73.73zm-2.39 0a.732.732 0 01-.73-.73c0-.402.31-.73.73-.73h.018c.402 0 .73.328.73.73 0 .401-.346.73-.748.73zm-2.39 0a.732.732 0 01-.73-.73c0-.402.31-.73.73-.73h.018c.402 0 .73.328.73.73 0 .401-.346.73-.748.73zm-2.39 0h-.018a.732.732 0 01-.73-.73c0-.402.329-.73.73-.73h.018c.402 0 .73.328.73.73 0 .401-.328.73-.73.73zm-2.39 0h-.018a.732.732 0 01-.73-.73c0-.402.329-.73.73-.73h.018c.402 0 .73.328.73.73 0 .401-.328.73-.73.73zm-2.39 0h-.018a.732.732 0 01-.73-.73c0-.402.329-.73.73-.73h.018c.401 0 .73.328.73.73 0 .401-.329.73-.73.73zm50.151-.001a.732.732 0 01-.73-.73c0-.402.328-.73.73-.73.401 0 .73.328.73.73 0 .401-.329.73-.73.73zM.73 45.311a.732.732 0 01-.73-.73c0-.402.328-.73.73-.73.401 0 .73.328.73.73 0 .402-.329.73-.73.73zm50.153 0h-.018a.732.732 0 01-.73-.73c0-.402.329-.73.73-.73h.018c.402 0 .73.328.73.73 0 .402-.328.73-.73.73zm-2.39 0h-.018a.732.732 0 01-.73-.73c0-.402.329-.73.73-.73h.018c.402 0 .73.328.73.73a.72.72 0 01-.73.73zm-2.371 0h-.019a.732.732 0 01-.73-.73c0-.402.329-.73.73-.73h.019c.401 0 .73.328.73.73 0 .402-.329.73-.73.73zm-2.39 0h-.019a.732.732 0 01-.73-.73c0-.402.329-.73.73-.73h.019c.401 0 .73.328.73.73 0 .402-.329.73-.73.73zm-2.39 0a.732.732 0 01-.73-.73c0-.402.31-.73.73-.73h.018c.401 0 .73.328.73.73 0 .402-.347.73-.748.73zm-2.39 0a.732.732 0 01-.73-.73c0-.402.31-.73.73-.73h.018c.401 0 .73.328.73.73 0 .402-.347.73-.748.73zm-2.39 0h-.019a.732.732 0 01-.73-.73c0-.402.329-.73.73-.73h.019c.4 0 .73.328.73.73 0 .402-.33.73-.73.73zm-2.39 0h-.019a.732.732 0 01-.73-.73c0-.402.329-.73.73-.73h.018c.402 0 .73.328.73.73 0 .402-.328.73-.73.73zm-2.39 0h-.019a.732.732 0 01-.73-.73c0-.402.329-.73.73-.73h.018c.402 0 .73.328.73.73 0 .402-.328.73-.73.73zm-2.39 0h-.019a.732.732 0 01-.73-.73c0-.402.329-.73.73-.73h.018c.402 0 .73.328.73.73 0 .402-.328.73-.73.73zm-2.39 0a.732.732 0 01-.73-.73c0-.402.31-.73.73-.73h.018c.4 0 .73.328.73.73 0 .402-.347.73-.749.73zm-2.39 0a.732.732 0 01-.73-.73c0-.402.31-.73.73-.73h.018c.4 0 .73.328.73.73 0 .402-.347.73-.749.73zm-2.39 0h-.019a.732.732 0 01-.73-.73c0-.402.329-.73.73-.73h.018c.402 0 .73.328.73.73a.72.72 0 01-.73.73zm-2.373 0h-.018a.732.732 0 01-.73-.73c0-.402.329-.73.73-.73h.018c.402 0 .73.328.73.73 0 .402-.328.73-.73.73zm-2.39 0h-.018a.732.732 0 01-.73-.73c0-.402.329-.73.73-.73h.018c.402 0 .73.328.73.73 0 .402-.328.73-.73.73zm-2.39 0h-.018a.732.732 0 01-.73-.73c0-.402.329-.73.73-.73h.018c.402 0 .73.328.73.73 0 .402-.328.73-.73.73zm-2.39 0a.732.732 0 01-.73-.73c0-.402.31-.73.73-.73h.018c.402 0 .73.328.73.73 0 .402-.346.73-.748.73zm-2.39 0a.732.732 0 01-.73-.73c0-.402.31-.73.73-.73h.018c.402 0 .73.328.73.73 0 .402-.346.73-.748.73zm-2.39 0h-.018a.732.732 0 01-.73-.73c0-.402.329-.73.73-.73h.018c.402 0 .73.328.73.73 0 .402-.328.73-.73.73zm-2.39 0h-.018a.732.732 0 01-.73-.73c0-.402.329-.73.73-.73h.018c.402 0 .73.328.73.73 0 .402-.328.73-.73.73zm-2.39 0h-.018a.732.732 0 01-.73-.73c0-.402.329-.73.73-.73h.018c.401 0 .73.328.73.73 0 .402-.329.73-.73.73zm50.151 0a.732.732 0 01-.73-.73c0-.402.328-.73.73-.73.401 0 .73.328.73.73 0 .402-.329.73-.73.73zM.73 42.754a.732.732 0 01-.73-.73c0-.402.328-.731.73-.731.401 0 .73.329.73.73 0 .402-.329.73-.73.73zm50.153 0h-.018a.732.732 0 01-.73-.73c0-.402.329-.731.73-.731h.018c.402 0 .73.329.73.73 0 .402-.328.73-.73.73zm-2.39 0h-.018a.732.732 0 01-.73-.73c0-.402.329-.731.73-.731h.018c.402 0 .73.329.73.73a.72.72 0 01-.73.73zm-2.371 0h-.019a.732.732 0 01-.73-.73c0-.402.329-.731.73-.731h.019c.401 0 .73.329.73.73 0 .402-.329.73-.73.73zm-2.39 0h-.019a.732.732 0 01-.73-.73c0-.402.329-.731.73-.731h.019c.401 0 .73.329.73.73 0 .402-.329.73-.73.73zm-2.39 0a.732.732 0 01-.73-.73c0-.402.31-.731.73-.731h.018c.401 0 .73.329.73.73 0 .402-.347.73-.748.73zm-2.39 0a.732.732 0 01-.73-.73c0-.402.31-.731.73-.731h.018c.401 0 .73.329.73.73 0 .402-.347.73-.748.73zm-2.39 0h-.019a.732.732 0 01-.73-.73c0-.402.329-.731.73-.731h.019c.4 0 .73.329.73.73 0 .402-.33.73-.73.73zm-2.39 0h-.019a.732.732 0 01-.73-.73c0-.402.329-.731.73-.731h.018c.402 0 .73.329.73.73 0 .402-.328.73-.73.73zm-2.39 0h-.019a.732.732 0 01-.73-.73c0-.402.329-.731.73-.731h.018c.402 0 .73.329.73.73 0 .402-.328.73-.73.73zm-2.39 0h-.019a.732.732 0 01-.73-.73c0-.402.329-.731.73-.731h.018c.402 0 .73.329.73.73 0 .402-.328.73-.73.73zm-2.39 0a.732.732 0 01-.73-.73c0-.402.31-.731.73-.731h.018c.4 0 .73.329.73.73 0 .402-.347.73-.749.73zm-2.39 0a.732.732 0 01-.73-.73c0-.402.31-.731.73-.731h.018c.4 0 .73.329.73.73 0 .402-.347.73-.749.73zm-2.39 0h-.019a.732.732 0 01-.73-.73c0-.402.329-.731.73-.731h.018c.402 0 .73.329.73.73a.72.72 0 01-.73.73zm-2.373 0h-.018a.732.732 0 01-.73-.73c0-.402.329-.731.73-.731h.018c.402 0 .73.329.73.73 0 .402-.328.73-.73.73zm-2.39 0h-.018a.732.732 0 01-.73-.73c0-.402.329-.731.73-.731h.018c.402 0 .73.329.73.73 0 .402-.328.73-.73.73zm-2.39 0h-.018a.732.732 0 01-.73-.73c0-.402.329-.731.73-.731h.018c.402 0 .73.329.73.73 0 .402-.328.73-.73.73zm-2.39 0a.732.732 0 01-.73-.73c0-.402.31-.731.73-.731h.018c.402 0 .73.329.73.73 0 .402-.346.73-.748.73zm-2.39 0a.732.732 0 01-.73-.73c0-.402.31-.731.73-.731h.018c.402 0 .73.329.73.73 0 .402-.346.73-.748.73zm-2.39 0h-.018a.732.732 0 01-.73-.73c0-.402.329-.731.73-.731h.018c.402 0 .73.329.73.73 0 .402-.328.73-.73.73zm-2.39 0h-.018a.732.732 0 01-.73-.73c0-.402.329-.731.73-.731h.018c.402 0 .73.329.73.73 0 .402-.328.73-.73.73zm-2.39 0h-.018a.732.732 0 01-.73-.73c0-.402.329-.731.73-.731h.018c.401 0 .73.329.73.73 0 .402-.329.73-.73.73zm50.151 0a.732.732 0 01-.73-.73c0-.402.328-.731.73-.731.401 0 .73.329.73.73 0 .402-.329.73-.73.73zM.73 40.199a.732.732 0 01-.73-.73c0-.402.328-.73.73-.73.401 0 .73.328.73.73 0 .401-.329.73-.73.73zm50.153.001h-.018a.732.732 0 01-.73-.73c0-.402.329-.73.73-.73h.018c.402 0 .73.328.73.73 0 .401-.328.73-.73.73zm-2.39 0h-.018a.732.732 0 01-.73-.73c0-.402.329-.73.73-.73h.018c.402 0 .73.328.73.73a.72.72 0 01-.73.73zm-2.371 0h-.019a.732.732 0 01-.73-.73c0-.402.329-.73.73-.73h.019c.401 0 .73.328.73.73 0 .401-.329.73-.73.73zm-2.39 0h-.019a.732.732 0 01-.73-.73c0-.402.329-.73.73-.73h.019c.401 0 .73.328.73.73 0 .401-.329.73-.73.73zm-2.39 0a.732.732 0 01-.73-.73c0-.402.31-.73.73-.73h.018c.401 0 .73.328.73.73 0 .401-.347.73-.748.73zm-2.39 0a.732.732 0 01-.73-.73c0-.402.31-.73.73-.73h.018c.401 0 .73.328.73.73 0 .401-.347.73-.748.73zm-2.39 0h-.019a.732.732 0 01-.73-.73c0-.402.329-.73.73-.73h.019c.4 0 .73.328.73.73 0 .401-.33.73-.73.73zm-2.39 0h-.019a.732.732 0 01-.73-.73c0-.402.329-.73.73-.73h.018c.402 0 .73.328.73.73 0 .401-.328.73-.73.73zm-2.39 0h-.019a.732.732 0 01-.73-.73c0-.402.329-.73.73-.73h.018c.402 0 .73.328.73.73 0 .401-.328.73-.73.73zm-2.39 0h-.019a.732.732 0 01-.73-.73c0-.402.329-.73.73-.73h.018c.402 0 .73.328.73.73 0 .401-.328.73-.73.73zm-2.39 0a.732.732 0 01-.73-.73c0-.402.31-.73.73-.73h.018c.4 0 .73.328.73.73 0 .401-.347.73-.749.73zm-2.39 0a.732.732 0 01-.73-.73c0-.402.31-.73.73-.73h.018c.4 0 .73.328.73.73 0 .401-.347.73-.749.73zm-2.39 0h-.019a.732.732 0 01-.73-.73c0-.402.329-.73.73-.73h.018c.402 0 .73.328.73.73a.72.72 0 01-.73.73zm-2.373 0h-.018a.732.732 0 01-.73-.73c0-.402.329-.73.73-.73h.018c.402 0 .73.328.73.73 0 .401-.328.73-.73.73zm-2.39 0h-.018a.732.732 0 01-.73-.73c0-.402.329-.73.73-.73h.018c.402 0 .73.328.73.73 0 .401-.328.73-.73.73zm-2.39 0h-.018a.732.732 0 01-.73-.73c0-.402.329-.73.73-.73h.018c.402 0 .73.328.73.73 0 .401-.328.73-.73.73zm-2.39 0a.732.732 0 01-.73-.73c0-.402.31-.73.73-.73h.018c.402 0 .73.328.73.73 0 .401-.346.73-.748.73zm-2.39 0a.732.732 0 01-.73-.73c0-.402.31-.73.73-.73h.018c.402 0 .73.328.73.73 0 .401-.346.73-.748.73zm-2.39 0h-.018a.732.732 0 01-.73-.73c0-.402.329-.73.73-.73h.018c.402 0 .73.328.73.73 0 .401-.328.73-.73.73zm-2.39 0h-.018a.732.732 0 01-.73-.73c0-.402.329-.73.73-.73h.018c.402 0 .73.328.73.73 0 .401-.328.73-.73.73zm-2.39 0h-.018a.732.732 0 01-.73-.73c0-.402.329-.73.73-.73h.018c.401 0 .73.328.73.73 0 .401-.329.73-.73.73zm50.151 0a.732.732 0 01-.73-.73c0-.402.328-.73.73-.73.401 0 .73.328.73.73 0 .401-.329.73-.73.73zM.73 37.642a.732.732 0 01-.729-.73c0-.402.328-.73.73-.73.401 0 .73.328.73.73 0 .402-.329.73-.73.73zm50.155 0h-.019a.732.732 0 01-.73-.73c0-.402.329-.73.73-.73h.019c.4 0 .73.328.73.73 0 .402-.33.73-.73.73zm-2.39 0h-.019a.732.732 0 01-.73-.73c0-.402.329-.73.73-.73h.018c.402 0 .73.328.73.73a.72.72 0 01-.73.73zm-2.372 0h-.019a.732.732 0 01-.73-.73c0-.402.329-.73.73-.73h.019c.401 0 .73.328.73.73 0 .402-.329.73-.73.73zm-2.39 0h-.019a.732.732 0 01-.73-.73c0-.402.329-.73.73-.73h.019c.401 0 .73.328.73.73 0 .402-.329.73-.73.73zm-2.39 0a.732.732 0 01-.73-.73c0-.402.31-.73.73-.73h.018c.401 0 .73.328.73.73 0 .402-.347.73-.748.73zm-2.39 0a.732.732 0 01-.73-.73c0-.402.31-.73.73-.73h.018c.401 0 .73.328.73.73 0 .402-.347.73-.748.73zm-2.39 0h-.019a.732.732 0 01-.73-.73c0-.402.329-.73.73-.73h.019c.4 0 .73.328.73.73 0 .402-.33.73-.73.73zm-2.39 0h-.019a.732.732 0 01-.73-.73c0-.402.329-.73.73-.73h.018c.402 0 .73.328.73.73 0 .402-.328.73-.73.73zm-2.39 0h-.019a.732.732 0 01-.73-.73c0-.402.329-.73.73-.73h.018c.402 0 .73.328.73.73 0 .402-.328.73-.73.73zm-2.39 0h-.019a.732.732 0 01-.73-.73c0-.402.329-.73.73-.73h.018c.402 0 .73.328.73.73 0 .402-.328.73-.73.73zm-2.39 0a.732.732 0 01-.73-.73c0-.402.31-.73.73-.73h.017c.402 0 .73.328.73.73 0 .402-.346.73-.748.73zm-2.39 0a.732.732 0 01-.73-.73c0-.402.31-.73.73-.73h.018c.4 0 .73.328.73.73 0 .402-.347.73-.749.73zm-2.39 0h-.019a.732.732 0 01-.73-.73c0-.402.329-.73.73-.73h.018c.402 0 .73.328.73.73a.72.72 0 01-.73.73zm-2.373 0h-.018a.732.732 0 01-.73-.73c0-.402.329-.73.73-.73h.018c.402 0 .73.328.73.73 0 .402-.328.73-.73.73zm-2.39 0h-.018a.732.732 0 01-.73-.73c0-.402.329-.73.73-.73h.018c.402 0 .73.328.73.73 0 .402-.328.73-.73.73zm-2.39 0h-.018a.732.732 0 01-.73-.73c0-.402.329-.73.73-.73h.018c.402 0 .73.328.73.73 0 .402-.328.73-.73.73zm-2.39 0a.732.732 0 01-.73-.73c0-.402.31-.73.73-.73h.018c.402 0 .73.328.73.73 0 .402-.346.73-.748.73zm-2.39 0a.732.732 0 01-.73-.73c0-.402.31-.73.73-.73h.019c.4 0 .73.328.73.73 0 .402-.347.73-.749.73zm-2.39 0h-.018a.732.732 0 01-.73-.73c0-.402.329-.73.73-.73H7.9c.402 0 .73.328.73.73 0 .402-.328.73-.73.73zm-2.39 0h-.018a.732.732 0 01-.73-.73c0-.402.329-.73.73-.73h.018c.402 0 .73.328.73.73 0 .402-.328.73-.73.73zm-2.39 0h-.018a.732.732 0 01-.73-.73c0-.402.328-.73.73-.73h.018c.401 0 .73.328.73.73 0 .402-.329.73-.73.73zm50.15 0a.732.732 0 01-.73-.73c0-.402.328-.73.73-.73.401 0 .73.328.73.73 0 .402-.329.73-.73.73zM.73 35.087a.732.732 0 01-.73-.73c0-.402.328-.731.73-.731.401 0 .73.329.73.73 0 .402-.329.73-.73.73zm50.153-.001h-.018a.732.732 0 01-.73-.73c0-.402.329-.731.73-.731h.018c.402 0 .73.329.73.73 0 .402-.328.73-.73.73zm-2.39 0h-.018a.732.732 0 01-.73-.73c0-.402.329-.731.73-.731h.018c.402 0 .73.329.73.73a.72.72 0 01-.73.73zm-2.371 0h-.019a.732.732 0 01-.73-.73c0-.402.329-.731.73-.731h.019c.401 0 .73.329.73.73 0 .402-.329.73-.73.73zm-2.39 0h-.019a.732.732 0 01-.73-.73c0-.402.329-.731.73-.731h.019c.401 0 .73.329.73.73 0 .402-.329.73-.73.73zm-2.39 0a.732.732 0 01-.73-.73c0-.402.31-.731.73-.731h.018c.401 0 .73.329.73.73 0 .402-.347.73-.748.73zm-2.39 0a.732.732 0 01-.73-.73c0-.402.31-.731.73-.731h.018c.401 0 .73.329.73.73 0 .402-.347.73-.748.73zm-2.39 0h-.019a.732.732 0 01-.73-.73c0-.402.329-.731.73-.731h.019c.4 0 .73.329.73.73 0 .402-.33.73-.73.73zm-2.39 0h-.019a.732.732 0 01-.73-.73c0-.402.329-.731.73-.731h.018c.402 0 .73.329.73.73 0 .402-.328.73-.73.73zm-2.39 0h-.019a.732.732 0 01-.73-.73c0-.402.329-.731.73-.731h.018c.402 0 .73.329.73.73 0 .402-.328.73-.73.73zm-2.39 0h-.019a.732.732 0 01-.73-.73c0-.402.329-.731.73-.731h.018c.402 0 .73.329.73.73 0 .402-.328.73-.73.73zm-2.39 0a.732.732 0 01-.73-.73c0-.402.31-.731.73-.731h.018c.4 0 .73.329.73.73 0 .402-.347.73-.749.73zm-2.39 0a.732.732 0 01-.73-.73c0-.402.31-.731.73-.731h.018c.4 0 .73.329.73.73 0 .402-.347.73-.749.73zm-2.39 0h-.019a.732.732 0 01-.73-.73c0-.402.329-.731.73-.731h.018c.402 0 .73.329.73.73a.72.72 0 01-.73.73zm-2.373 0h-.018a.732.732 0 01-.73-.73c0-.402.329-.731.73-.731h.018c.402 0 .73.329.73.73 0 .402-.328.73-.73.73zm-2.39 0h-.018a.732.732 0 01-.73-.73c0-.402.329-.731.73-.731h.018c.402 0 .73.329.73.73 0 .402-.328.73-.73.73zm-2.39 0h-.018a.732.732 0 01-.73-.73c0-.402.329-.731.73-.731h.018c.402 0 .73.329.73.73 0 .402-.328.73-.73.73zm-2.39 0a.732.732 0 01-.73-.73c0-.402.31-.731.73-.731h.018c.402 0 .73.329.73.73 0 .402-.346.73-.748.73zm-2.39 0a.732.732 0 01-.73-.73c0-.402.31-.731.73-.731h.018c.402 0 .73.329.73.73 0 .402-.346.73-.748.73zm-2.39 0h-.018a.732.732 0 01-.73-.73c0-.402.329-.731.73-.731h.018c.402 0 .73.329.73.73 0 .402-.328.73-.73.73zm-2.39 0h-.018a.732.732 0 01-.73-.73c0-.402.329-.731.73-.731h.018c.402 0 .73.329.73.73 0 .402-.328.73-.73.73zm-2.39 0h-.018a.732.732 0 01-.73-.73c0-.402.329-.731.73-.731h.018c.401 0 .73.329.73.73 0 .402-.329.73-.73.73zm50.151 0a.732.732 0 01-.73-.73c0-.402.328-.731.73-.731.401 0 .73.329.73.73 0 .402-.329.73-.73.73zM.73 32.53a.732.732 0 01-.73-.731c0-.402.328-.73.73-.73.401 0 .73.328.73.73 0 .401-.329.73-.73.73zm50.153 0h-.018a.732.732 0 01-.73-.73c0-.402.329-.73.73-.73h.018c.402 0 .73.328.73.73 0 .401-.328.73-.73.73zm-2.39 0h-.018a.732.732 0 01-.73-.73c0-.402.329-.73.73-.73h.018c.402 0 .73.328.73.73a.72.72 0 01-.73.73zm-2.371 0h-.019a.732.732 0 01-.73-.73c0-.402.329-.73.73-.73h.019c.401 0 .73.328.73.73 0 .401-.329.73-.73.73zm-2.39 0h-.019a.732.732 0 01-.73-.73c0-.402.329-.73.73-.73h.019c.401 0 .73.328.73.73 0 .401-.329.73-.73.73zm-2.39 0a.732.732 0 01-.73-.73c0-.402.31-.73.73-.73h.018c.401 0 .73.328.73.73 0 .401-.347.73-.748.73zm-2.39 0a.732.732 0 01-.73-.73c0-.402.31-.73.73-.73h.018c.401 0 .73.328.73.73 0 .401-.347.73-.748.73zm-2.39 0h-.019a.732.732 0 01-.73-.73c0-.402.329-.73.73-.73h.019c.4 0 .73.328.73.73 0 .401-.33.73-.73.73zm-2.39 0h-.019a.732.732 0 01-.73-.73c0-.402.329-.73.73-.73h.018c.402 0 .73.328.73.73 0 .401-.328.73-.73.73zm-2.39 0h-.019a.732.732 0 01-.73-.73c0-.402.329-.73.73-.73h.018c.402 0 .73.328.73.73 0 .401-.328.73-.73.73zm-2.39 0h-.019a.732.732 0 01-.73-.73c0-.402.329-.73.73-.73h.018c.402 0 .73.328.73.73 0 .401-.328.73-.73.73zm-2.39 0a.732.732 0 01-.73-.73c0-.402.31-.73.73-.73h.018c.4 0 .73.328.73.73 0 .401-.347.73-.749.73zm-2.39 0a.732.732 0 01-.73-.73c0-.402.31-.73.73-.73h.018c.4 0 .73.328.73.73 0 .401-.347.73-.749.73zm-2.39 0h-.019a.732.732 0 01-.73-.73c0-.402.329-.73.73-.73h.018c.402 0 .73.328.73.73a.72.72 0 01-.73.73zm-2.373 0h-.018a.732.732 0 01-.73-.73c0-.402.329-.73.73-.73h.018c.402 0 .73.328.73.73 0 .401-.328.73-.73.73zm-2.39 0h-.018a.732.732 0 01-.73-.73c0-.402.329-.73.73-.73h.018c.402 0 .73.328.73.73 0 .401-.328.73-.73.73zm-2.39 0h-.018a.732.732 0 01-.73-.73c0-.402.329-.73.73-.73h.018c.402 0 .73.328.73.73 0 .401-.328.73-.73.73zm-2.39 0a.732.732 0 01-.73-.73c0-.402.31-.73.73-.73h.018c.402 0 .73.328.73.73 0 .401-.346.73-.748.73zm-2.39 0a.732.732 0 01-.73-.73c0-.402.31-.73.73-.73h.018c.402 0 .73.328.73.73 0 .401-.346.73-.748.73zm-2.39 0h-.018a.732.732 0 01-.73-.73c0-.402.329-.73.73-.73h.018c.402 0 .73.328.73.73 0 .401-.328.73-.73.73zm-2.39 0h-.018a.732.732 0 01-.73-.73c0-.402.329-.73.73-.73h.018c.402 0 .73.328.73.73 0 .401-.328.73-.73.73zm-2.39 0h-.018a.732.732 0 01-.73-.73c0-.402.329-.73.73-.73h.018c.401 0 .73.328.73.73 0 .401-.329.73-.73.73zm50.151 0a.732.732 0 01-.73-.73c0-.402.328-.73.73-.73.401 0 .73.328.73.73 0 .401-.329.73-.73.73zM.73 29.973a.732.732 0 01-.73-.73c0-.402.328-.73.73-.73.401 0 .73.328.73.73 0 .402-.329.73-.73.73zm50.153 0h-.018a.732.732 0 01-.73-.73c0-.402.329-.73.73-.73h.018c.402 0 .73.328.73.73 0 .402-.328.73-.73.73zm-2.39 0h-.018a.732.732 0 01-.73-.73c0-.402.329-.73.73-.73h.018c.402 0 .73.328.73.73a.72.72 0 01-.73.73zm-2.371 0h-.019a.732.732 0 01-.73-.73c0-.402.329-.73.73-.73h.019c.401 0 .73.328.73.73 0 .402-.329.73-.73.73zm-2.39 0h-.019a.732.732 0 01-.73-.73c0-.402.329-.73.73-.73h.019c.401 0 .73.328.73.73 0 .402-.329.73-.73.73zm-2.39 0a.732.732 0 01-.73-.73c0-.402.31-.73.73-.73h.018c.401 0 .73.328.73.73 0 .402-.347.73-.748.73zm-2.39 0a.732.732 0 01-.73-.73c0-.402.31-.73.73-.73h.018c.401 0 .73.328.73.73 0 .402-.347.73-.748.73zm-2.39 0h-.019a.732.732 0 01-.73-.73c0-.402.329-.73.73-.73h.019c.4 0 .73.328.73.73 0 .402-.33.73-.73.73zm-2.39 0h-.019a.732.732 0 01-.73-.73c0-.402.329-.73.73-.73h.018c.402 0 .73.328.73.73 0 .402-.328.73-.73.73zm-2.39 0h-.019a.732.732 0 01-.73-.73c0-.402.329-.73.73-.73h.018c.402 0 .73.328.73.73 0 .402-.328.73-.73.73zm-2.39 0h-.019a.732.732 0 01-.73-.73c0-.402.329-.73.73-.73h.018c.402 0 .73.328.73.73 0 .402-.328.73-.73.73zm-2.39 0a.732.732 0 01-.73-.73c0-.402.31-.73.73-.73h.018c.4 0 .73.328.73.73 0 .402-.347.73-.749.73zm-2.39 0a.732.732 0 01-.73-.73c0-.402.31-.73.73-.73h.018c.4 0 .73.328.73.73 0 .402-.347.73-.749.73zm-2.39 0h-.019a.732.732 0 01-.73-.73c0-.402.329-.73.73-.73h.018c.402 0 .73.328.73.73a.72.72 0 01-.73.73zm-2.373 0h-.018a.732.732 0 01-.73-.73c0-.402.329-.73.73-.73h.018c.402 0 .73.328.73.73 0 .402-.328.73-.73.73zm-2.39 0h-.018a.732.732 0 01-.73-.73c0-.402.329-.73.73-.73h.018c.402 0 .73.328.73.73 0 .402-.328.73-.73.73zm-2.39 0h-.018a.732.732 0 01-.73-.73c0-.402.329-.73.73-.73h.018c.402 0 .73.328.73.73 0 .402-.328.73-.73.73zm-2.39 0a.732.732 0 01-.73-.73c0-.402.31-.73.73-.73h.018c.402 0 .73.328.73.73 0 .402-.346.73-.748.73zm-2.39 0a.732.732 0 01-.73-.73c0-.402.31-.73.73-.73h.018c.402 0 .73.328.73.73 0 .402-.346.73-.748.73zm-2.39 0h-.018a.732.732 0 01-.73-.73c0-.402.329-.73.73-.73h.018c.402 0 .73.328.73.73 0 .402-.328.73-.73.73zm-2.39 0h-.018a.732.732 0 01-.73-.73c0-.402.329-.73.73-.73h.018c.402 0 .73.328.73.73 0 .402-.328.73-.73.73zm-2.39 0h-.018a.732.732 0 01-.73-.73c0-.402.329-.73.73-.73h.018c.401 0 .73.328.73.73 0 .402-.329.73-.73.73zm50.151 0a.732.732 0 01-.73-.73c0-.402.328-.73.73-.73.401 0 .73.328.73.73 0 .402-.329.73-.73.73zM.73 27.417a.732.732 0 01-.73-.73c0-.402.328-.73.73-.73.401 0 .73.328.73.73 0 .401-.329.73-.73.73zm50.153 0h-.018a.732.732 0 01-.73-.73c0-.402.329-.73.73-.73h.018c.402 0 .73.328.73.73 0 .401-.328.73-.73.73zm-2.39 0h-.018a.732.732 0 01-.73-.73c0-.402.329-.73.73-.73h.018c.402 0 .73.328.73.73a.72.72 0 01-.73.73zm-2.371 0h-.019a.732.732 0 01-.73-.73c0-.402.329-.73.73-.73h.019c.401 0 .73.328.73.73 0 .401-.329.73-.73.73zm-2.39 0h-.019a.732.732 0 01-.73-.73c0-.402.329-.73.73-.73h.019c.401 0 .73.328.73.73 0 .401-.329.73-.73.73zm-2.39 0a.732.732 0 01-.73-.73c0-.402.31-.73.73-.73h.018c.401 0 .73.328.73.73 0 .401-.347.73-.748.73zm-2.39 0a.732.732 0 01-.73-.73c0-.402.31-.73.73-.73h.018c.401 0 .73.328.73.73 0 .401-.347.73-.748.73zm-2.39 0h-.019a.732.732 0 01-.73-.73c0-.402.329-.73.73-.73h.019c.4 0 .73.328.73.73 0 .401-.33.73-.73.73zm-2.39 0h-.019a.732.732 0 01-.73-.73c0-.402.329-.73.73-.73h.018c.402 0 .73.328.73.73 0 .401-.328.73-.73.73zm-2.39 0h-.019a.732.732 0 01-.73-.73c0-.402.329-.73.73-.73h.018c.402 0 .73.328.73.73 0 .401-.328.73-.73.73zm-2.39 0h-.019a.732.732 0 01-.73-.73c0-.402.329-.73.73-.73h.018c.402 0 .73.328.73.73 0 .401-.328.73-.73.73zm-2.39 0a.732.732 0 01-.73-.73c0-.402.31-.73.73-.73h.018c.4 0 .73.328.73.73 0 .401-.347.73-.749.73zm-2.39 0a.732.732 0 01-.73-.73c0-.402.31-.73.73-.73h.018c.4 0 .73.328.73.73 0 .401-.347.73-.749.73zm-2.39 0h-.019a.732.732 0 01-.73-.73c0-.402.329-.73.73-.73h.018c.402 0 .73.328.73.73a.72.72 0 01-.73.73zm-2.373 0h-.018a.732.732 0 01-.73-.73c0-.402.329-.73.73-.73h.018c.402 0 .73.328.73.73 0 .401-.328.73-.73.73zm-2.39 0h-.018a.732.732 0 01-.73-.73c0-.402.329-.73.73-.73h.018c.402 0 .73.328.73.73 0 .401-.328.73-.73.73zm-2.39 0h-.018a.732.732 0 01-.73-.73c0-.402.329-.73.73-.73h.018c.402 0 .73.328.73.73 0 .401-.328.73-.73.73zm-2.39 0a.732.732 0 01-.73-.73c0-.402.31-.73.73-.73h.018c.402 0 .73.328.73.73 0 .401-.346.73-.748.73zm-2.39 0a.732.732 0 01-.73-.73c0-.402.31-.73.73-.73h.018c.402 0 .73.328.73.73 0 .401-.346.73-.748.73zm-2.39 0h-.018a.732.732 0 01-.73-.73c0-.402.329-.73.73-.73h.018c.402 0 .73.328.73.73 0 .401-.328.73-.73.73zm-2.39 0h-.018a.732.732 0 01-.73-.73c0-.402.329-.73.73-.73h.018c.402 0 .73.328.73.73 0 .401-.328.73-.73.73zm-2.39 0h-.018a.732.732 0 01-.73-.73c0-.402.329-.73.73-.73h.018c.401 0 .73.328.73.73 0 .401-.329.73-.73.73zm50.151 0a.732.732 0 01-.73-.73c0-.402.328-.73.73-.73.401 0 .73.328.73.73 0 .401-.329.73-.73.73zM.73 24.861a.732.732 0 01-.73-.73c0-.402.328-.73.73-.73.401 0 .73.328.73.73 0 .401-.329.73-.73.73zm50.153.001h-.018a.732.732 0 01-.73-.73c0-.402.329-.73.73-.73h.018c.402 0 .73.328.73.73 0 .401-.328.73-.73.73zm-2.39 0h-.018a.732.732 0 01-.73-.73c0-.402.329-.73.73-.73h.018c.402 0 .73.328.73.73a.72.72 0 01-.73.73zm-2.371 0h-.019a.732.732 0 01-.73-.73c0-.402.329-.73.73-.73h.019c.401 0 .73.328.73.73 0 .401-.329.73-.73.73zm-2.39 0h-.019a.732.732 0 01-.73-.73c0-.402.329-.73.73-.73h.019c.401 0 .73.328.73.73 0 .401-.329.73-.73.73zm-2.39 0a.732.732 0 01-.73-.73c0-.402.31-.73.73-.73h.018c.401 0 .73.328.73.73 0 .401-.347.73-.748.73zm-2.39 0a.732.732 0 01-.73-.73c0-.402.31-.73.73-.73h.018c.401 0 .73.328.73.73 0 .401-.347.73-.748.73zm-2.39 0h-.019a.732.732 0 01-.73-.73c0-.402.329-.73.73-.73h.019c.4 0 .73.328.73.73 0 .401-.33.73-.73.73zm-2.39 0h-.019a.732.732 0 01-.73-.73c0-.402.329-.73.73-.73h.018c.402 0 .73.328.73.73 0 .401-.328.73-.73.73zm-2.39 0h-.019a.732.732 0 01-.73-.73c0-.402.329-.73.73-.73h.018c.402 0 .73.328.73.73 0 .401-.328.73-.73.73zm-2.39 0h-.019a.732.732 0 01-.73-.73c0-.402.329-.73.73-.73h.018c.402 0 .73.328.73.73 0 .401-.328.73-.73.73zm-2.39 0a.732.732 0 01-.73-.73c0-.402.31-.73.73-.73h.018c.4 0 .73.328.73.73 0 .401-.347.73-.749.73zm-2.39 0a.732.732 0 01-.73-.73c0-.402.31-.73.73-.73h.018c.4 0 .73.328.73.73 0 .401-.347.73-.749.73zm-2.39 0h-.019a.732.732 0 01-.73-.73c0-.402.329-.73.73-.73h.018c.402 0 .73.328.73.73a.72.72 0 01-.73.73zm-2.373 0h-.018a.732.732 0 01-.73-.73c0-.402.329-.73.73-.73h.018c.402 0 .73.328.73.73 0 .401-.328.73-.73.73zm-2.39 0h-.018a.732.732 0 01-.73-.73c0-.402.329-.73.73-.73h.018c.402 0 .73.328.73.73 0 .401-.328.73-.73.73zm-2.39 0h-.018a.732.732 0 01-.73-.73c0-.402.329-.73.73-.73h.018c.402 0 .73.328.73.73 0 .401-.328.73-.73.73zm-2.39 0a.732.732 0 01-.73-.73c0-.402.31-.73.73-.73h.018c.402 0 .73.328.73.73 0 .401-.346.73-.748.73zm-2.39 0a.732.732 0 01-.73-.73c0-.402.31-.73.73-.73h.018c.402 0 .73.328.73.73 0 .401-.346.73-.748.73zm-2.39 0h-.018a.732.732 0 01-.73-.73c0-.402.329-.73.73-.73h.018c.402 0 .73.328.73.73 0 .401-.328.73-.73.73zm-2.39 0h-.018a.732.732 0 01-.73-.73c0-.402.329-.73.73-.73h.018c.402 0 .73.328.73.73 0 .401-.328.73-.73.73zm-2.39 0h-.018a.732.732 0 01-.73-.73c0-.402.329-.73.73-.73h.018c.401 0 .73.328.73.73 0 .401-.329.73-.73.73zm50.151 0a.732.732 0 01-.73-.73c0-.402.328-.73.73-.73.401 0 .73.328.73.73 0 .401-.329.73-.73.73zM.73 22.306a.732.732 0 01-.73-.73c0-.402.328-.73.73-.73.401 0 .73.328.73.73 0 .402-.329.73-.73.73zm50.153 0h-.018a.732.732 0 01-.73-.73c0-.402.329-.73.73-.73h.018c.402 0 .73.328.73.73 0 .402-.328.73-.73.73zm-2.39 0h-.018a.732.732 0 01-.73-.73c0-.402.329-.73.73-.73h.018c.402 0 .73.328.73.73a.72.72 0 01-.73.73zm-2.371 0h-.019a.732.732 0 01-.73-.73c0-.402.329-.73.73-.73h.019c.401 0 .73.328.73.73 0 .402-.329.73-.73.73zm-2.39 0h-.019a.732.732 0 01-.73-.73c0-.402.329-.73.73-.73h.019c.401 0 .73.328.73.73 0 .402-.329.73-.73.73zm-2.39 0a.732.732 0 01-.73-.73c0-.402.31-.73.73-.73h.018c.401 0 .73.328.73.73 0 .402-.347.73-.748.73zm-2.39 0a.732.732 0 01-.73-.73c0-.402.31-.73.73-.73h.018c.401 0 .73.328.73.73 0 .402-.347.73-.748.73zm-2.39 0h-.019a.732.732 0 01-.73-.73c0-.402.329-.73.73-.73h.019c.4 0 .73.328.73.73 0 .402-.33.73-.73.73zm-2.39 0h-.019a.732.732 0 01-.73-.73c0-.402.329-.73.73-.73h.018c.402 0 .73.328.73.73 0 .402-.328.73-.73.73zm-2.39 0h-.019a.732.732 0 01-.73-.73c0-.402.329-.73.73-.73h.018c.402 0 .73.328.73.73 0 .402-.328.73-.73.73zm-2.39 0h-.019a.732.732 0 01-.73-.73c0-.402.329-.73.73-.73h.018c.402 0 .73.328.73.73 0 .402-.328.73-.73.73zm-2.39 0a.732.732 0 01-.73-.73c0-.402.31-.73.73-.73h.018c.4 0 .73.328.73.73 0 .402-.347.73-.749.73zm-2.39 0a.732.732 0 01-.73-.73c0-.402.31-.73.73-.73h.018c.4 0 .73.328.73.73 0 .402-.347.73-.749.73zm-2.39 0h-.019a.732.732 0 01-.73-.73c0-.402.329-.73.73-.73h.018c.402 0 .73.328.73.73a.72.72 0 01-.73.73zm-2.373 0h-.018a.732.732 0 01-.73-.73c0-.402.329-.73.73-.73h.018c.402 0 .73.328.73.73 0 .402-.328.73-.73.73zm-2.39 0h-.018a.732.732 0 01-.73-.73c0-.402.329-.73.73-.73h.018c.402 0 .73.328.73.73 0 .402-.328.73-.73.73zm-2.39 0h-.018a.732.732 0 01-.73-.73c0-.402.329-.73.73-.73h.018c.402 0 .73.328.73.73 0 .402-.328.73-.73.73zm-2.39 0a.732.732 0 01-.73-.73c0-.402.31-.73.73-.73h.018c.402 0 .73.328.73.73 0 .402-.346.73-.748.73zm-2.39 0a.732.732 0 01-.73-.73c0-.402.31-.73.73-.73h.018c.402 0 .73.328.73.73 0 .402-.346.73-.748.73zm-2.39 0h-.018a.732.732 0 01-.73-.73c0-.402.329-.73.73-.73h.018c.402 0 .73.328.73.73 0 .402-.328.73-.73.73zm-2.39 0h-.018a.732.732 0 01-.73-.73c0-.402.329-.73.73-.73h.018c.402 0 .73.328.73.73 0 .402-.328.73-.73.73zm-2.39 0h-.018a.732.732 0 01-.73-.73c0-.402.329-.73.73-.73h.018c.401 0 .73.328.73.73 0 .402-.329.73-.73.73zm50.151 0a.732.732 0 01-.73-.73c0-.402.328-.73.73-.73.401 0 .73.328.73.73 0 .402-.329.73-.73.73zM.73 19.747a.732.732 0 01-.73-.73c0-.402.328-.73.73-.73.401 0 .73.328.73.73 0 .401-.329.73-.73.73zm50.153 0h-.018a.732.732 0 01-.73-.73c0-.402.329-.73.73-.73h.018c.402 0 .73.328.73.73 0 .401-.328.73-.73.73zm-2.39 0h-.018a.732.732 0 01-.73-.73c0-.402.329-.73.73-.73h.018c.402 0 .73.328.73.73a.72.72 0 01-.73.73zm-2.371 0h-.019a.732.732 0 01-.73-.73c0-.402.329-.73.73-.73h.019c.401 0 .73.328.73.73 0 .401-.329.73-.73.73zm-2.39 0h-.019a.732.732 0 01-.73-.73c0-.402.329-.73.73-.73h.019c.401 0 .73.328.73.73 0 .401-.329.73-.73.73zm-2.39 0a.732.732 0 01-.73-.73c0-.402.31-.73.73-.73h.018c.401 0 .73.328.73.73 0 .401-.347.73-.748.73zm-2.39 0a.732.732 0 01-.73-.73c0-.402.31-.73.73-.73h.018c.401 0 .73.328.73.73 0 .401-.347.73-.748.73zm-2.39 0h-.019a.732.732 0 01-.73-.73c0-.402.329-.73.73-.73h.019c.4 0 .73.328.73.73 0 .401-.33.73-.73.73zm-2.39 0h-.019a.732.732 0 01-.73-.73c0-.402.329-.73.73-.73h.018c.402 0 .73.328.73.73 0 .401-.328.73-.73.73zm-2.39 0h-.019a.732.732 0 01-.73-.73c0-.402.329-.73.73-.73h.018c.402 0 .73.328.73.73 0 .401-.328.73-.73.73zm-2.39 0h-.019a.732.732 0 01-.73-.73c0-.402.329-.73.73-.73h.018c.402 0 .73.328.73.73 0 .401-.328.73-.73.73zm-2.39 0a.732.732 0 01-.73-.73c0-.402.31-.73.73-.73h.018c.4 0 .73.328.73.73 0 .401-.347.73-.749.73zm-2.39 0a.732.732 0 01-.73-.73c0-.402.31-.73.73-.73h.018c.4 0 .73.328.73.73 0 .401-.347.73-.749.73zm-2.39 0h-.019a.732.732 0 01-.73-.73c0-.402.329-.73.73-.73h.018c.402 0 .73.328.73.73a.72.72 0 01-.73.73zm-2.373 0h-.018a.732.732 0 01-.73-.73c0-.402.329-.73.73-.73h.018c.402 0 .73.328.73.73 0 .401-.328.73-.73.73zm-2.39 0h-.018a.732.732 0 01-.73-.73c0-.402.329-.73.73-.73h.018c.402 0 .73.328.73.73 0 .401-.328.73-.73.73zm-2.39 0h-.018a.732.732 0 01-.73-.73c0-.402.329-.73.73-.73h.018c.402 0 .73.328.73.73 0 .401-.328.73-.73.73zm-2.39 0a.732.732 0 01-.73-.73c0-.402.31-.73.73-.73h.018c.402 0 .73.328.73.73 0 .401-.346.73-.748.73zm-2.39 0a.732.732 0 01-.73-.73c0-.402.31-.73.73-.73h.018c.402 0 .73.328.73.73 0 .401-.346.73-.748.73zm-2.39 0h-.018a.732.732 0 01-.73-.73c0-.402.329-.73.73-.73h.018c.402 0 .73.328.73.73 0 .401-.328.73-.73.73zm-2.39 0h-.018a.732.732 0 01-.73-.73c0-.402.329-.73.73-.73h.018c.402 0 .73.328.73.73 0 .401-.328.73-.73.73zm-2.39 0h-.018a.732.732 0 01-.73-.73c0-.402.329-.73.73-.73h.018c.401 0 .73.328.73.73 0 .401-.329.73-.73.73zm50.151 0a.732.732 0 01-.73-.73c0-.402.328-.73.73-.73.401 0 .73.328.73.73 0 .401-.329.73-.73.73zM.73 17.191a.732.732 0 01-.73-.73c0-.402.328-.73.73-.73.401 0 .73.328.73.73 0 .402-.329.73-.73.73zm50.153.001h-.019a.732.732 0 01-.73-.73c0-.402.329-.73.73-.73h.019c.401 0 .73.328.73.73 0 .401-.329.73-.73.73zm-2.39 0h-.019a.732.732 0 01-.73-.73c0-.402.329-.73.73-.73h.019c.4 0 .73.328.73.73a.72.72 0 01-.73.73zm-2.372 0h-.019a.732.732 0 01-.73-.73c0-.402.33-.73.73-.73h.019c.401 0 .73.328.73.73 0 .401-.329.73-.73.73zm-2.39 0h-.019a.732.732 0 01-.73-.73c0-.402.33-.73.73-.73h.019c.401 0 .73.328.73.73 0 .401-.329.73-.73.73zm-2.39 0a.732.732 0 01-.73-.73c0-.402.31-.73.73-.73h.018c.401 0 .73.328.73.73 0 .401-.347.73-.748.73zm-2.39 0a.732.732 0 01-.73-.73c0-.402.31-.73.73-.73h.018c.401 0 .73.328.73.73 0 .401-.347.73-.748.73zm-2.39 0h-.019a.732.732 0 01-.73-.73c0-.402.329-.73.73-.73h.018c.402 0 .73.328.73.73 0 .401-.328.73-.73.73zm-2.39 0h-.019a.732.732 0 01-.73-.73c0-.402.329-.73.73-.73h.018c.402 0 .73.328.73.73 0 .401-.328.73-.73.73zm-2.39 0h-.019a.732.732 0 01-.73-.73c0-.402.329-.73.73-.73h.018c.402 0 .73.328.73.73 0 .401-.328.73-.73.73zm-2.39 0h-.019a.732.732 0 01-.73-.73c0-.402.329-.73.73-.73h.018c.402 0 .73.328.73.73 0 .401-.328.73-.73.73zm-2.39 0a.732.732 0 01-.73-.73c0-.402.31-.73.73-.73h.018c.401 0 .73.328.73.73 0 .401-.347.73-.749.73zm-2.39 0a.732.732 0 01-.73-.73c0-.402.31-.73.73-.73h.018c.4 0 .73.328.73.73 0 .401-.347.73-.749.73zm-2.39 0h-.019a.732.732 0 01-.73-.73c0-.402.329-.73.73-.73h.018c.402 0 .73.328.73.73a.72.72 0 01-.73.73zm-2.372 0h-.019a.732.732 0 01-.73-.73c0-.402.329-.73.73-.73h.019c.4 0 .73.328.73.73 0 .401-.33.73-.73.73zm-2.39 0h-.019a.732.732 0 01-.73-.73c0-.402.329-.73.73-.73h.018c.402 0 .73.328.73.73 0 .401-.328.73-.73.73zm-2.39 0h-.019a.732.732 0 01-.73-.73c0-.402.329-.73.73-.73h.018c.402 0 .73.328.73.73 0 .401-.328.73-.73.73zm-2.39 0a.732.732 0 01-.73-.73c0-.402.31-.73.73-.73h.018c.401 0 .73.328.73.73 0 .401-.347.73-.749.73zm-2.39 0a.732.732 0 01-.73-.73c0-.402.31-.73.73-.73h.018c.4 0 .73.328.73.73 0 .401-.347.73-.749.73zm-2.39 0H7.88a.732.732 0 01-.73-.73c0-.402.329-.73.73-.73h.018c.402 0 .73.328.73.73 0 .401-.328.73-.73.73zm-2.39 0h-.02a.732.732 0 01-.729-.73c0-.402.329-.73.73-.73h.018c.402 0 .73.328.73.73 0 .401-.328.73-.73.73zm-2.39 0h-.02a.732.732 0 01-.729-.73c0-.402.329-.73.73-.73h.018c.402 0 .73.328.73.73 0 .401-.328.73-.73.73zm50.151 0a.732.732 0 01-.73-.73c0-.402.328-.73.73-.73.401 0 .73.328.73.73 0 .401-.329.73-.73.73zM.73 14.636a.732.732 0 01-.73-.73c0-.402.328-.731.73-.731.401 0 .73.329.73.73 0 .402-.329.73-.73.73zm50.153 0h-.018a.732.732 0 01-.73-.73c0-.402.329-.731.73-.731h.018c.402 0 .73.329.73.73 0 .402-.328.73-.73.73zm-2.39 0h-.018a.732.732 0 01-.73-.73c0-.402.329-.731.73-.731h.018c.402 0 .73.329.73.73a.72.72 0 01-.73.73zm-2.371 0h-.019a.732.732 0 01-.73-.73c0-.402.329-.731.73-.731h.019c.401 0 .73.329.73.73 0 .402-.329.73-.73.73zm-2.39 0h-.019a.732.732 0 01-.73-.73c0-.402.329-.731.73-.731h.019c.401 0 .73.329.73.73 0 .402-.329.73-.73.73zm-2.39 0a.732.732 0 01-.73-.73c0-.402.31-.731.73-.731h.018c.401 0 .73.329.73.73 0 .402-.347.73-.748.73zm-2.39 0a.732.732 0 01-.73-.73c0-.402.31-.731.73-.731h.018c.401 0 .73.329.73.73 0 .402-.347.73-.748.73zm-2.39 0h-.019a.732.732 0 01-.73-.73c0-.402.329-.731.73-.731h.019c.4 0 .73.329.73.73 0 .402-.33.73-.73.73zm-2.39 0h-.019a.732.732 0 01-.73-.73c0-.402.329-.731.73-.731h.018c.402 0 .73.329.73.73 0 .402-.328.73-.73.73zm-2.39 0h-.019a.732.732 0 01-.73-.73c0-.402.329-.731.73-.731h.018c.402 0 .73.329.73.73 0 .402-.328.73-.73.73zm-2.39 0h-.019a.732.732 0 01-.73-.73c0-.402.329-.731.73-.731h.018c.402 0 .73.329.73.73 0 .402-.328.73-.73.73zm-2.39 0a.732.732 0 01-.73-.73c0-.402.31-.731.73-.731h.018c.4 0 .73.329.73.73 0 .402-.347.73-.749.73zm-2.39 0a.732.732 0 01-.73-.73c0-.402.31-.731.73-.731h.018c.4 0 .73.329.73.73 0 .402-.347.73-.749.73zm-2.39 0h-.019a.732.732 0 01-.73-.73c0-.402.329-.731.73-.731h.018c.402 0 .73.329.73.73a.72.72 0 01-.73.73zm-2.373 0h-.018a.732.732 0 01-.73-.73c0-.402.329-.731.73-.731h.018c.402 0 .73.329.73.73 0 .402-.328.73-.73.73zm-2.39 0h-.018a.732.732 0 01-.73-.73c0-.402.329-.731.73-.731h.018c.402 0 .73.329.73.73 0 .402-.328.73-.73.73zm-2.39 0h-.018a.732.732 0 01-.73-.73c0-.402.329-.731.73-.731h.018c.402 0 .73.329.73.73 0 .402-.328.73-.73.73zm-2.39 0a.732.732 0 01-.73-.73c0-.402.31-.731.73-.731h.018c.402 0 .73.329.73.73 0 .402-.346.73-.748.73zm-2.39 0a.732.732 0 01-.73-.73c0-.402.31-.731.73-.731h.018c.402 0 .73.329.73.73 0 .402-.346.73-.748.73zm-2.39 0h-.018a.732.732 0 01-.73-.73c0-.402.329-.731.73-.731h.018c.402 0 .73.329.73.73 0 .402-.328.73-.73.73zm-2.39 0h-.018a.732.732 0 01-.73-.73c0-.402.329-.731.73-.731h.018c.402 0 .73.329.73.73 0 .402-.328.73-.73.73zm-2.39 0h-.018a.732.732 0 01-.73-.73c0-.402.329-.731.73-.731h.018c.401 0 .73.329.73.73 0 .402-.329.73-.73.73zm50.151 0a.732.732 0 01-.73-.73c0-.402.328-.731.73-.731.401 0 .73.329.73.73 0 .402-.329.73-.73.73zM.73 12.082a.732.732 0 01-.729-.73c0-.402.328-.73.73-.73.401 0 .73.328.73.73 0 .401-.329.73-.73.73zm50.155-.002h-.019a.732.732 0 01-.73-.73c0-.402.329-.73.73-.73h.019c.4 0 .73.328.73.73 0 .401-.33.73-.73.73zm-2.39 0h-.019a.732.732 0 01-.73-.73c0-.402.329-.73.73-.73h.018c.402 0 .73.328.73.73a.72.72 0 01-.73.73zm-2.372 0h-.019a.732.732 0 01-.73-.73c0-.402.329-.73.73-.73h.019c.401 0 .73.328.73.73 0 .401-.329.73-.73.73zm-2.39 0h-.019a.732.732 0 01-.73-.73c0-.402.329-.73.73-.73h.019c.401 0 .73.328.73.73 0 .401-.329.73-.73.73zm-2.39 0a.732.732 0 01-.73-.73c0-.402.31-.73.73-.73h.018c.401 0 .73.328.73.73 0 .401-.347.73-.748.73zm-2.39 0a.732.732 0 01-.73-.73c0-.402.31-.73.73-.73h.018c.401 0 .73.328.73.73 0 .401-.347.73-.748.73zm-2.39 0h-.019a.732.732 0 01-.73-.73c0-.402.329-.73.73-.73h.019c.4 0 .73.328.73.73 0 .401-.33.73-.73.73zm-2.39 0h-.019a.732.732 0 01-.73-.73c0-.402.329-.73.73-.73h.018c.402 0 .73.328.73.73 0 .401-.328.73-.73.73zm-2.39 0h-.019a.732.732 0 01-.73-.73c0-.402.329-.73.73-.73h.018c.402 0 .73.328.73.73 0 .401-.328.73-.73.73zm-2.39 0h-.019a.732.732 0 01-.73-.73c0-.402.329-.73.73-.73h.018c.402 0 .73.328.73.73 0 .401-.328.73-.73.73zm-2.39 0a.732.732 0 01-.73-.73c0-.402.31-.73.73-.73h.017c.402 0 .73.328.73.73 0 .401-.346.73-.748.73zm-2.39 0a.732.732 0 01-.73-.73c0-.402.31-.73.73-.73h.018c.4 0 .73.328.73.73 0 .401-.347.73-.749.73zm-2.39 0h-.019a.732.732 0 01-.73-.73c0-.402.329-.73.73-.73h.018c.402 0 .73.328.73.73a.72.72 0 01-.73.73zm-2.373 0h-.018a.732.732 0 01-.73-.73c0-.402.329-.73.73-.73h.018c.402 0 .73.328.73.73 0 .401-.328.73-.73.73zm-2.39 0h-.018a.732.732 0 01-.73-.73c0-.402.329-.73.73-.73h.018c.402 0 .73.328.73.73 0 .401-.328.73-.73.73zm-2.39 0h-.018a.732.732 0 01-.73-.73c0-.402.329-.73.73-.73h.018c.402 0 .73.328.73.73 0 .401-.328.73-.73.73zm-2.39 0a.732.732 0 01-.73-.73c0-.402.31-.73.73-.73h.018c.402 0 .73.328.73.73 0 .401-.346.73-.748.73zm-2.39 0a.732.732 0 01-.73-.73c0-.402.31-.73.73-.73h.019c.4 0 .73.328.73.73 0 .401-.347.73-.749.73zm-2.39 0h-.018a.732.732 0 01-.73-.73c0-.402.329-.73.73-.73H7.9c.402 0 .73.328.73.73 0 .401-.328.73-.73.73zm-2.39 0h-.018a.732.732 0 01-.73-.73c0-.402.329-.73.73-.73h.018c.402 0 .73.328.73.73 0 .401-.328.73-.73.73zm-2.39 0h-.018a.732.732 0 01-.73-.73c0-.402.328-.73.73-.73h.018c.401 0 .73.328.73.73 0 .401-.329.73-.73.73zm50.15 0a.732.732 0 01-.73-.73c0-.402.328-.73.73-.73.401 0 .73.328.73.73 0 .401-.329.73-.73.73zM.73 9.523a.732.732 0 01-.73-.73c0-.402.328-.73.73-.73.401 0 .73.328.73.73 0 .402-.329.73-.73.73zm50.153 0h-.018a.732.732 0 01-.73-.73c0-.402.329-.73.73-.73h.018c.402 0 .73.328.73.73 0 .402-.328.73-.73.73zm-2.39 0h-.018a.732.732 0 01-.73-.73c0-.402.329-.73.73-.73h.018c.402 0 .73.328.73.73a.72.72 0 01-.73.73zm-2.371 0h-.019a.732.732 0 01-.73-.73c0-.402.329-.73.73-.73h.019c.401 0 .73.328.73.73 0 .402-.329.73-.73.73zm-2.39 0h-.019a.732.732 0 01-.73-.73c0-.402.329-.73.73-.73h.019c.401 0 .73.328.73.73 0 .402-.329.73-.73.73zm-2.39 0a.732.732 0 01-.73-.73c0-.402.31-.73.73-.73h.018c.401 0 .73.328.73.73 0 .402-.347.73-.748.73zm-2.39 0a.732.732 0 01-.73-.73c0-.402.31-.73.73-.73h.018c.401 0 .73.328.73.73 0 .402-.347.73-.748.73zm-2.39 0h-.019a.732.732 0 01-.73-.73c0-.402.329-.73.73-.73h.019c.4 0 .73.328.73.73 0 .402-.33.73-.73.73zm-2.39 0h-.019a.732.732 0 01-.73-.73c0-.402.329-.73.73-.73h.018c.402 0 .73.328.73.73 0 .402-.328.73-.73.73zm-2.39 0h-.019a.732.732 0 01-.73-.73c0-.402.329-.73.73-.73h.018c.402 0 .73.328.73.73 0 .402-.328.73-.73.73zm-2.39 0h-.019a.732.732 0 01-.73-.73c0-.402.329-.73.73-.73h.018c.402 0 .73.328.73.73 0 .402-.328.73-.73.73zm-2.39 0a.732.732 0 01-.73-.73c0-.402.31-.73.73-.73h.018c.4 0 .73.328.73.73 0 .402-.347.73-.749.73zm-2.39 0a.732.732 0 01-.73-.73c0-.402.31-.73.73-.73h.018c.4 0 .73.328.73.73 0 .402-.347.73-.749.73zm-2.39 0h-.019a.732.732 0 01-.73-.73c0-.402.329-.73.73-.73h.018c.402 0 .73.328.73.73a.72.72 0 01-.73.73zm-2.373 0h-.018a.732.732 0 01-.73-.73c0-.402.329-.73.73-.73h.018c.402 0 .73.328.73.73 0 .402-.328.73-.73.73zm-2.39 0h-.018a.732.732 0 01-.73-.73c0-.402.329-.73.73-.73h.018c.402 0 .73.328.73.73 0 .402-.328.73-.73.73zm-2.39 0h-.018a.732.732 0 01-.73-.73c0-.402.329-.73.73-.73h.018c.402 0 .73.328.73.73 0 .402-.328.73-.73.73zm-2.39 0a.732.732 0 01-.73-.73c0-.402.31-.73.73-.73h.018c.402 0 .73.328.73.73 0 .402-.346.73-.748.73zm-2.39 0a.732.732 0 01-.73-.73c0-.402.31-.73.73-.73h.018c.402 0 .73.328.73.73 0 .402-.346.73-.748.73zm-2.39 0h-.018a.732.732 0 01-.73-.73c0-.402.329-.73.73-.73h.018c.402 0 .73.328.73.73 0 .402-.328.73-.73.73zm-2.39 0h-.018a.732.732 0 01-.73-.73c0-.402.329-.73.73-.73h.018c.402 0 .73.328.73.73 0 .402-.328.73-.73.73zm-2.39 0h-.018a.732.732 0 01-.73-.73c0-.402.329-.73.73-.73h.018c.401 0 .73.328.73.73 0 .402-.329.73-.73.73zm50.151 0a.732.732 0 01-.73-.73c0-.402.328-.73.73-.73.401 0 .73.328.73.73 0 .402-.329.73-.73.73zM.73 6.968a.732.732 0 01-.729-.73c0-.402.328-.73.73-.73.401 0 .73.328.73.73 0 .402-.329.73-.73.73zm50.155 0h-.019a.732.732 0 01-.73-.73c0-.403.329-.731.73-.731h.019c.4 0 .73.329.73.73 0 .402-.33.73-.73.73zm-2.39 0h-.019a.732.732 0 01-.73-.73c0-.403.329-.731.73-.731h.018c.402 0 .73.329.73.73a.72.72 0 01-.73.73zm-2.372 0h-.019a.732.732 0 01-.73-.73c0-.403.329-.731.73-.731h.019c.401 0 .73.329.73.73 0 .402-.329.73-.73.73zm-2.39 0h-.019a.732.732 0 01-.73-.73c0-.403.329-.731.73-.731h.019c.401 0 .73.329.73.73 0 .402-.329.73-.73.73zm-2.39 0a.732.732 0 01-.73-.73.72.72 0 01.73-.731h.018c.401 0 .73.329.73.73 0 .402-.347.73-.748.73zm-2.39 0a.732.732 0 01-.73-.73.72.72 0 01.73-.731h.018c.401 0 .73.329.73.73 0 .402-.347.73-.748.73zm-2.39 0h-.019a.732.732 0 01-.73-.73c0-.403.329-.731.73-.731h.019c.4 0 .73.329.73.73 0 .402-.33.73-.73.73zm-2.39 0h-.019a.732.732 0 01-.73-.73c0-.403.329-.731.73-.731h.018c.402 0 .73.329.73.73 0 .402-.328.73-.73.73zm-2.39 0h-.019a.732.732 0 01-.73-.73c0-.403.329-.731.73-.731h.018c.402 0 .73.329.73.73 0 .402-.328.73-.73.73zm-2.39 0h-.019a.732.732 0 01-.73-.73c0-.403.329-.731.73-.731h.018c.402 0 .73.329.73.73 0 .402-.328.73-.73.73zm-2.39 0a.732.732 0 01-.73-.73.72.72 0 01.73-.731h.017c.402 0 .73.329.73.73 0 .402-.346.73-.748.73zm-2.39 0a.732.732 0 01-.73-.73.72.72 0 01.73-.731h.018c.4 0 .73.329.73.73 0 .402-.347.73-.749.73zm-2.39 0h-.019a.732.732 0 01-.73-.73c0-.403.329-.731.73-.731h.018c.402 0 .73.329.73.73a.72.72 0 01-.73.73zm-2.373 0h-.018a.732.732 0 01-.73-.73c0-.403.329-.731.73-.731h.018c.402 0 .73.329.73.73 0 .402-.328.73-.73.73zm-2.39 0h-.018a.732.732 0 01-.73-.73c0-.403.329-.731.73-.731h.018c.402 0 .73.329.73.73 0 .402-.328.73-.73.73zm-2.39 0h-.018a.732.732 0 01-.73-.73c0-.403.329-.731.73-.731h.018c.402 0 .73.329.73.73 0 .402-.328.73-.73.73zm-2.39 0a.732.732 0 01-.73-.73.72.72 0 01.73-.731h.018c.402 0 .73.329.73.73 0 .402-.346.73-.748.73zm-2.39 0a.732.732 0 01-.73-.73.72.72 0 01.73-.731h.019c.4 0 .73.329.73.73 0 .402-.347.73-.749.73zm-2.39 0h-.018a.732.732 0 01-.73-.73c0-.403.329-.731.73-.731H7.9c.402 0 .73.329.73.73 0 .402-.328.73-.73.73zm-2.39 0h-.018a.732.732 0 01-.73-.73c0-.403.329-.731.73-.731h.018c.402 0 .73.329.73.73 0 .402-.328.73-.73.73zm-2.39 0h-.018a.732.732 0 01-.73-.73c0-.403.328-.731.73-.731h.018c.401 0 .73.329.73.73 0 .402-.329.73-.73.73zm50.15 0a.732.732 0 01-.729-.73c0-.403.328-.731.73-.731.401 0 .73.329.73.73 0 .402-.329.73-.73.73zM.73 4.41A.732.732 0 010 3.68c0-.401.328-.73.73-.73.401 0 .73.329.73.73 0 .402-.329.73-.73.73zm50.153.002h-.018a.732.732 0 01-.73-.73c0-.402.329-.73.73-.73h.018c.402 0 .73.328.73.73 0 .401-.328.73-.73.73zm-2.39 0h-.018a.732.732 0 01-.73-.73c0-.402.329-.73.73-.73h.018c.402 0 .73.328.73.73a.72.72 0 01-.73.73zm-2.371 0h-.019a.732.732 0 01-.73-.73c0-.402.329-.73.73-.73h.019c.401 0 .73.328.73.73 0 .401-.329.73-.73.73zm-2.39 0h-.019a.732.732 0 01-.73-.73c0-.402.329-.73.73-.73h.019c.401 0 .73.328.73.73 0 .401-.329.73-.73.73zm-2.39 0a.732.732 0 01-.73-.73c0-.402.31-.73.73-.73h.018c.401 0 .73.328.73.73 0 .401-.347.73-.748.73zm-2.39 0a.732.732 0 01-.73-.73c0-.402.31-.73.73-.73h.018c.401 0 .73.328.73.73 0 .401-.347.73-.748.73zm-2.39 0h-.019a.732.732 0 01-.73-.73c0-.402.329-.73.73-.73h.019c.4 0 .73.328.73.73 0 .401-.33.73-.73.73zm-2.39 0h-.019a.732.732 0 01-.73-.73c0-.402.329-.73.73-.73h.018c.402 0 .73.328.73.73 0 .401-.328.73-.73.73zm-2.39 0h-.019a.732.732 0 01-.73-.73c0-.402.329-.73.73-.73h.018c.402 0 .73.328.73.73 0 .401-.328.73-.73.73zm-2.39 0h-.019a.732.732 0 01-.73-.73c0-.402.329-.73.73-.73h.018c.402 0 .73.328.73.73 0 .401-.328.73-.73.73zm-2.39 0a.732.732 0 01-.73-.73c0-.402.31-.73.73-.73h.018c.4 0 .73.328.73.73 0 .401-.347.73-.749.73zm-2.39 0a.732.732 0 01-.73-.73c0-.402.31-.73.73-.73h.018c.4 0 .73.328.73.73 0 .401-.347.73-.749.73zm-2.39 0h-.019a.732.732 0 01-.73-.73c0-.402.329-.73.73-.73h.018c.402 0 .73.328.73.73a.72.72 0 01-.73.73zm-2.373 0h-.018a.732.732 0 01-.73-.73c0-.402.329-.73.73-.73h.018c.402 0 .73.328.73.73 0 .401-.328.73-.73.73zm-2.39 0h-.018a.732.732 0 01-.73-.73c0-.402.329-.73.73-.73h.018c.402 0 .73.328.73.73 0 .401-.328.73-.73.73zm-2.39 0h-.018a.732.732 0 01-.73-.73c0-.402.329-.73.73-.73h.018c.402 0 .73.328.73.73 0 .401-.328.73-.73.73zm-2.39 0a.732.732 0 01-.73-.73c0-.402.31-.73.73-.73h.018c.402 0 .73.328.73.73 0 .401-.346.73-.748.73zm-2.39 0a.732.732 0 01-.73-.73c0-.402.31-.73.73-.73h.018c.402 0 .73.328.73.73 0 .401-.346.73-.748.73zm-2.39 0h-.018a.732.732 0 01-.73-.73c0-.402.329-.73.73-.73h.018c.402 0 .73.328.73.73 0 .401-.328.73-.73.73zm-2.39 0h-.018a.732.732 0 01-.73-.73c0-.402.329-.73.73-.73h.018c.402 0 .73.328.73.73 0 .401-.328.73-.73.73zm-2.39 0h-.018a.732.732 0 01-.73-.73c0-.402.329-.73.73-.73h.018c.401 0 .73.328.73.73 0 .401-.329.73-.73.73zm50.151 0a.732.732 0 01-.73-.73c0-.402.328-.73.73-.73.401 0 .73.328.73.73 0 .401-.329.73-.73.73zM.73 1.856a.732.732 0 01-.729-.73c0-.402.328-.73.73-.73.401 0 .73.328.73.73 0 .402-.329.73-.73.73zm50.153-.001h-.018a.732.732 0 01-.73-.73c0-.402.329-.73.73-.73h.018c.402 0 .73.328.73.73 0 .402-.328.73-.73.73zm-2.39 0h-.018a.732.732 0 01-.73-.73c0-.402.329-.73.73-.73h.018c.402 0 .73.328.73.73a.72.72 0 01-.73.73zm-2.371 0h-.019a.732.732 0 01-.73-.73c0-.402.329-.73.73-.73h.019c.401 0 .73.328.73.73 0 .402-.329.73-.73.73zm-2.39 0h-.019a.732.732 0 01-.73-.73c0-.402.329-.73.73-.73h.019c.401 0 .73.328.73.73 0 .402-.329.73-.73.73zm-2.39 0a.732.732 0 01-.73-.73c0-.402.31-.73.73-.73h.018c.401 0 .73.328.73.73 0 .402-.347.73-.748.73zm-2.39 0a.732.732 0 01-.73-.73c0-.402.31-.73.73-.73h.018c.401 0 .73.328.73.73 0 .402-.347.73-.748.73zm-2.39 0h-.019a.732.732 0 01-.73-.73c0-.402.329-.73.73-.73h.019c.4 0 .73.328.73.73 0 .402-.33.73-.73.73zm-2.39 0h-.019a.732.732 0 01-.73-.73c0-.402.329-.73.73-.73h.018c.402 0 .73.328.73.73 0 .402-.328.73-.73.73zm-2.39 0h-.019a.732.732 0 01-.73-.73c0-.402.329-.73.73-.73h.018c.402 0 .73.328.73.73 0 .402-.328.73-.73.73zm-2.39 0h-.019a.732.732 0 01-.73-.73c0-.402.329-.73.73-.73h.018c.402 0 .73.328.73.73 0 .402-.328.73-.73.73zm-2.39 0a.732.732 0 01-.73-.73c0-.402.31-.73.73-.73h.018c.4 0 .73.328.73.73 0 .402-.347.73-.749.73zm-2.39 0a.732.732 0 01-.73-.73c0-.402.31-.73.73-.73h.018c.4 0 .73.328.73.73 0 .402-.347.73-.749.73zm-2.39 0h-.019a.732.732 0 01-.73-.73c0-.402.329-.73.73-.73h.018c.402 0 .73.328.73.73a.72.72 0 01-.73.73zm-2.373 0h-.018a.732.732 0 01-.73-.73c0-.402.329-.73.73-.73h.018c.402 0 .73.328.73.73 0 .402-.328.73-.73.73zm-2.39 0h-.018a.732.732 0 01-.73-.73c0-.402.329-.73.73-.73h.018c.402 0 .73.328.73.73 0 .402-.328.73-.73.73zm-2.39 0h-.018a.732.732 0 01-.73-.73c0-.402.329-.73.73-.73h.018c.402 0 .73.328.73.73 0 .402-.328.73-.73.73zm-2.39 0a.732.732 0 01-.73-.73c0-.402.31-.73.73-.73h.018c.402 0 .73.328.73.73 0 .402-.346.73-.748.73zm-2.39 0a.732.732 0 01-.73-.73c0-.402.31-.73.73-.73h.018c.402 0 .73.328.73.73 0 .402-.346.73-.748.73zm-2.39 0h-.018a.732.732 0 01-.73-.73c0-.402.329-.73.73-.73h.018c.402 0 .73.328.73.73 0 .402-.328.73-.73.73zm-2.39 0h-.018a.732.732 0 01-.73-.73c0-.402.329-.73.73-.73h.018c.402 0 .73.328.73.73 0 .402-.328.73-.73.73zm-2.39 0h-.018a.732.732 0 01-.73-.73c0-.402.329-.73.73-.73h.018c.401 0 .73.328.73.73 0 .402-.329.73-.73.73zm50.151 0a.732.732 0 01-.73-.73c0-.402.328-.73.73-.73.401 0 .73.328.73.73 0 .402-.329.73-.73.73z" fill="#C1E1ED"/></mask><g mask="url(#a)"><ellipse cx="27" cy="28.694" rx="25.541" ry="25.599" fill="#FFD3D3"/></g></svg>