<svg width="143" height="75" fill="none" xmlns="http://www.w3.org/2000/svg"><mask id="a" maskUnits="userSpaceOnUse" x="0" y="0" width="143" height="146"><path d="M1.93 78.019A1.934 1.934 0 010 76.092c0-1.06.868-1.926 1.93-1.926 1.06 0 1.929.867 1.929 1.927a1.934 1.934 0 01-1.93 1.926zm132.589 0h-.048a1.933 1.933 0 01-1.929-1.927c0-1.06.868-1.926 1.929-1.926h.048c1.061 0 1.93.867 1.93 1.927a1.934 1.934 0 01-1.93 1.926zm-6.318 0h-.048a1.934 1.934 0 01-1.93-1.927c0-1.06.868-1.926 1.93-1.926h.048c1.061 0 1.929.867 1.929 1.927 0 1.059-.82 1.926-1.929 1.926zm-6.27 0h-.049a1.933 1.933 0 01-1.929-1.927c0-1.06.868-1.926 1.929-1.926h.049c1.061 0 1.929.867 1.929 1.927a1.933 1.933 0 01-1.929 1.926zm-6.319 0h-.048a1.933 1.933 0 01-1.929-1.927c0-1.06.868-1.926 1.929-1.926h.048c1.061 0 1.929.867 1.929 1.927a1.933 1.933 0 01-1.929 1.926zm-6.318 0a1.934 1.934 0 01-1.93-1.927c0-1.06.82-1.926 1.93-1.926h.048c1.061 0 1.929.867 1.929 1.927 0 1.059-.916 1.926-1.977 1.926zm-6.319 0a1.933 1.933 0 01-1.929-1.927c0-1.06.82-1.926 1.929-1.926h.048c1.061 0 1.93.867 1.93 1.927 0 1.059-.917 1.926-1.978 1.926zm-6.318 0h-.049a1.934 1.934 0 01-1.929-1.927c0-1.06.868-1.926 1.93-1.926h.048c1.06 0 1.929.867 1.929 1.927a1.934 1.934 0 01-1.93 1.926zm-6.319 0h-.048a1.934 1.934 0 01-1.93-1.927c0-1.06.869-1.926 1.93-1.926h.048c1.061 0 1.93.867 1.93 1.927a1.934 1.934 0 01-1.93 1.926zm-6.318 0h-.049a1.934 1.934 0 01-1.929-1.927c0-1.06.868-1.926 1.93-1.926h.048c1.06 0 1.929.867 1.929 1.927a1.934 1.934 0 01-1.93 1.926zm-6.319 0h-.048a1.934 1.934 0 01-1.93-1.927c0-1.06.869-1.926 1.93-1.926h.048c1.061 0 1.93.867 1.93 1.927a1.934 1.934 0 01-1.93 1.926zm-6.318 0a1.934 1.934 0 01-1.93-1.927c0-1.06.82-1.926 1.93-1.926h.048c1.061 0 1.93.867 1.93 1.927 0 1.059-.917 1.926-1.978 1.926zm-6.319 0a1.934 1.934 0 01-1.93-1.927c0-1.06.82-1.926 1.93-1.926h.049c1.06 0 1.929.867 1.929 1.927 0 1.059-.917 1.926-1.978 1.926zm-6.318 0h-.049a1.934 1.934 0 01-1.929-1.927c0-1.06.868-1.926 1.93-1.926h.048c1.06 0 1.929.867 1.929 1.927 0 1.059-.82 1.926-1.93 1.926zm-6.27 0h-.049a1.934 1.934 0 01-1.93-1.927c0-1.06.87-1.926 1.93-1.926h.048c1.062 0 1.93.867 1.93 1.927a1.934 1.934 0 01-1.93 1.926zm-6.319 0h-.048a1.933 1.933 0 01-1.93-1.927c0-1.06.869-1.926 1.93-1.926h.048c1.061 0 1.93.867 1.93 1.927a1.934 1.934 0 01-1.93 1.926zm-6.318 0h-.049a1.934 1.934 0 01-1.929-1.927c0-1.06.868-1.926 1.93-1.926h.048c1.06 0 1.929.867 1.929 1.927a1.934 1.934 0 01-1.93 1.926zm-6.319 0a1.934 1.934 0 01-1.93-1.927c0-1.06.82-1.926 1.93-1.926h.048c1.061 0 1.93.867 1.93 1.927 0 1.059-.917 1.926-1.978 1.926zm-6.319 0a1.934 1.934 0 01-1.929-1.927c0-1.06.82-1.926 1.93-1.926h.048c1.06 0 1.93.867 1.93 1.927 0 1.059-.917 1.926-1.979 1.926zm-6.318 0h-.048a1.934 1.934 0 01-1.93-1.927c0-1.06.869-1.926 1.93-1.926h.048c1.061 0 1.93.867 1.93 1.927a1.934 1.934 0 01-1.93 1.926zm-6.318 0h-.049a1.934 1.934 0 01-1.929-1.927c0-1.06.868-1.926 1.93-1.926h.048c1.06 0 1.929.867 1.929 1.927a1.934 1.934 0 01-1.93 1.926zm-6.319 0h-.048a1.934 1.934 0 01-1.93-1.927c0-1.06.869-1.926 1.93-1.926h.048c1.061 0 1.93.867 1.93 1.927a1.934 1.934 0 01-1.93 1.926zm132.583 0a1.934 1.934 0 01-1.93-1.927c0-1.06.869-1.926 1.93-1.926s1.929.867 1.929 1.927a1.933 1.933 0 01-1.929 1.926zM1.93 71.28A1.934 1.934 0 010 69.355c0-1.06.868-1.926 1.93-1.926 1.06 0 1.929.867 1.929 1.926 0 1.06-.869 1.927-1.93 1.927zm132.589-.001h-.048a1.933 1.933 0 01-1.929-1.927c0-1.06.868-1.926 1.929-1.926h.048c1.061 0 1.93.867 1.93 1.926 0 1.06-.869 1.927-1.93 1.927zm-6.318 0h-.048a1.933 1.933 0 01-1.93-1.927c0-1.06.868-1.926 1.93-1.926h.048c1.061 0 1.929.867 1.929 1.926 0 1.06-.82 1.927-1.929 1.927zm-6.27 0h-.049a1.933 1.933 0 01-1.929-1.927c0-1.06.868-1.926 1.929-1.926h.049c1.061 0 1.929.867 1.929 1.926 0 1.06-.868 1.927-1.929 1.927zm-6.319 0h-.048a1.933 1.933 0 01-1.929-1.927c0-1.06.868-1.926 1.929-1.926h.048c1.061 0 1.929.867 1.929 1.926 0 1.06-.868 1.927-1.929 1.927zm-6.318 0a1.933 1.933 0 01-1.93-1.927c0-1.06.82-1.926 1.93-1.926h.048c1.061 0 1.929.867 1.929 1.926 0 1.06-.916 1.927-1.977 1.927zm-6.319 0a1.933 1.933 0 01-1.929-1.927c0-1.06.82-1.926 1.929-1.926h.048c1.061 0 1.93.867 1.93 1.926 0 1.06-.917 1.927-1.978 1.927zm-6.318 0h-.049a1.933 1.933 0 01-1.929-1.927c0-1.06.868-1.926 1.93-1.926h.048c1.06 0 1.929.867 1.929 1.926 0 1.06-.868 1.927-1.93 1.927zm-6.319 0h-.048a1.933 1.933 0 01-1.93-1.927c0-1.06.869-1.926 1.93-1.926h.048c1.061 0 1.93.867 1.93 1.926 0 1.06-.869 1.927-1.93 1.927zm-6.318 0h-.049a1.933 1.933 0 01-1.929-1.927c0-1.06.868-1.926 1.93-1.926h.048c1.06 0 1.929.867 1.929 1.926 0 1.06-.868 1.927-1.93 1.927zm-6.319 0h-.048a1.933 1.933 0 01-1.93-1.927c0-1.06.869-1.926 1.93-1.926h.048c1.061 0 1.93.867 1.93 1.926 0 1.06-.869 1.927-1.93 1.927zm-6.318 0a1.933 1.933 0 01-1.93-1.927c0-1.06.82-1.926 1.93-1.926h.048c1.061 0 1.93.867 1.93 1.926 0 1.06-.917 1.927-1.978 1.927zm-6.319 0a1.933 1.933 0 01-1.93-1.927c0-1.06.82-1.926 1.93-1.926h.049c1.06 0 1.929.867 1.929 1.926 0 1.06-.917 1.927-1.978 1.927zm-6.318 0h-.049a1.933 1.933 0 01-1.929-1.927c0-1.06.868-1.926 1.93-1.926h.048c1.06 0 1.929.867 1.929 1.926 0 1.06-.82 1.927-1.93 1.927zm-6.27 0h-.049a1.933 1.933 0 01-1.93-1.927c0-1.06.87-1.926 1.93-1.926h.048c1.062 0 1.93.867 1.93 1.926 0 1.06-.868 1.927-1.93 1.927zm-6.319 0h-.048a1.933 1.933 0 01-1.93-1.927c0-1.06.869-1.926 1.93-1.926h.048c1.061 0 1.93.867 1.93 1.926 0 1.06-.869 1.927-1.93 1.927zm-6.318 0h-.049a1.933 1.933 0 01-1.929-1.927c0-1.06.868-1.926 1.93-1.926h.048c1.06 0 1.929.867 1.929 1.926 0 1.06-.868 1.927-1.93 1.927zm-6.319 0a1.933 1.933 0 01-1.93-1.927c0-1.06.82-1.926 1.93-1.926h.048c1.061 0 1.93.867 1.93 1.926 0 1.06-.917 1.927-1.978 1.927zm-6.319 0a1.933 1.933 0 01-1.929-1.927c0-1.06.82-1.926 1.93-1.926h.048c1.06 0 1.93.867 1.93 1.926 0 1.06-.917 1.927-1.979 1.927zm-6.318 0h-.048a1.933 1.933 0 01-1.93-1.927c0-1.06.869-1.926 1.93-1.926h.048c1.061 0 1.93.867 1.93 1.926 0 1.06-.869 1.927-1.93 1.927zm-6.318 0h-.049a1.933 1.933 0 01-1.929-1.927c0-1.06.868-1.926 1.93-1.926h.048c1.06 0 1.929.867 1.929 1.926 0 1.06-.868 1.927-1.93 1.927zm-6.319 0h-.048a1.933 1.933 0 01-1.93-1.927c0-1.06.869-1.926 1.93-1.926h.048c1.061 0 1.93.867 1.93 1.926 0 1.06-.869 1.927-1.93 1.927zm132.583 0a1.934 1.934 0 01-1.93-1.927c0-1.06.869-1.926 1.93-1.926s1.929.867 1.929 1.926c0 1.06-.868 1.927-1.929 1.927zM1.93 64.534A1.934 1.934 0 010 62.607c0-1.06.868-1.926 1.93-1.926 1.06 0 1.929.867 1.929 1.926 0 1.06-.869 1.927-1.93 1.927zm132.588 0h-.048a1.933 1.933 0 01-1.929-1.927c0-1.06.868-1.926 1.929-1.926h.048c1.061 0 1.93.867 1.93 1.926 0 1.06-.869 1.927-1.93 1.927zm-6.318 0h-.048a1.934 1.934 0 01-1.93-1.927c0-1.06.869-1.926 1.93-1.926h.048c1.061 0 1.929.867 1.929 1.926 0 1.06-.82 1.927-1.929 1.927zm-6.27 0h-.049a1.933 1.933 0 01-1.929-1.927c0-1.06.868-1.926 1.929-1.926h.049c1.061 0 1.929.867 1.929 1.926 0 1.06-.868 1.927-1.929 1.927zm-6.319 0h-.048a1.933 1.933 0 01-1.929-1.927c0-1.06.868-1.926 1.929-1.926h.048c1.061 0 1.929.867 1.929 1.926 0 1.06-.868 1.927-1.929 1.927zm-6.318 0a1.934 1.934 0 01-1.93-1.927c0-1.06.82-1.926 1.93-1.926h.048c1.061 0 1.929.867 1.929 1.926 0 1.06-.916 1.927-1.977 1.927zm-6.319 0a1.933 1.933 0 01-1.929-1.927c0-1.06.82-1.926 1.929-1.926h.048c1.062 0 1.93.867 1.93 1.926 0 1.06-.917 1.927-1.978 1.927zm-6.318 0h-.049a1.934 1.934 0 01-1.929-1.927c0-1.06.868-1.926 1.93-1.926h.048c1.06 0 1.929.867 1.929 1.926 0 1.06-.868 1.927-1.93 1.927zm-6.319 0h-.048a1.934 1.934 0 01-1.93-1.927c0-1.06.869-1.926 1.93-1.926h.048c1.061 0 1.93.867 1.93 1.926 0 1.06-.869 1.927-1.93 1.927zm-6.318 0h-.049a1.933 1.933 0 01-1.929-1.927c0-1.06.868-1.926 1.93-1.926h.048c1.06 0 1.929.867 1.929 1.926 0 1.06-.868 1.927-1.93 1.927zm-6.319 0h-.048a1.934 1.934 0 01-1.93-1.927c0-1.06.869-1.926 1.93-1.926h.048c1.061 0 1.93.867 1.93 1.926 0 1.06-.869 1.927-1.93 1.927zm-6.318 0a1.934 1.934 0 01-1.93-1.927c0-1.06.82-1.926 1.93-1.926h.048c1.061 0 1.93.867 1.93 1.926 0 1.06-.917 1.927-1.978 1.927zm-6.319 0a1.934 1.934 0 01-1.93-1.927c0-1.06.82-1.926 1.93-1.926h.049c1.06 0 1.929.867 1.929 1.926 0 1.06-.917 1.927-1.978 1.927zm-6.318 0h-.048a1.934 1.934 0 01-1.93-1.927c0-1.06.868-1.926 1.93-1.926h.048c1.06 0 1.93.867 1.93 1.926 0 1.06-.82 1.927-1.93 1.927zm-6.27 0h-.049a1.934 1.934 0 01-1.929-1.927c0-1.06.868-1.926 1.93-1.926h.047c1.062 0 1.93.867 1.93 1.926 0 1.06-.868 1.927-1.93 1.927zm-6.319 0h-.048a1.934 1.934 0 01-1.93-1.927c0-1.06.869-1.926 1.93-1.926h.048c1.061 0 1.93.867 1.93 1.926 0 1.06-.869 1.927-1.93 1.927zm-6.319 0h-.048a1.934 1.934 0 01-1.929-1.927c0-1.06.868-1.926 1.93-1.926h.047c1.062 0 1.93.867 1.93 1.926 0 1.06-.868 1.927-1.93 1.927zm-6.318 0a1.934 1.934 0 01-1.93-1.927c0-1.06.82-1.926 1.93-1.926h.048c1.061 0 1.93.867 1.93 1.926 0 1.06-.917 1.927-1.978 1.927zm-6.318 0a1.934 1.934 0 01-1.93-1.927c0-1.06.82-1.926 1.93-1.926h.048c1.06 0 1.93.867 1.93 1.926 0 1.06-.917 1.927-1.978 1.927zm-6.319 0h-.048a1.934 1.934 0 01-1.93-1.927c0-1.06.869-1.926 1.93-1.926h.048c1.061 0 1.93.867 1.93 1.926 0 1.06-.869 1.927-1.93 1.927zm-6.318 0h-.049a1.934 1.934 0 01-1.929-1.927c0-1.06.868-1.926 1.93-1.926h.048c1.06 0 1.929.867 1.929 1.926 0 1.06-.868 1.927-1.93 1.927zm-6.319 0h-.048a1.934 1.934 0 01-1.93-1.927c0-1.06.869-1.926 1.93-1.926h.048c1.061 0 1.93.867 1.93 1.926 0 1.06-.869 1.927-1.93 1.927zm132.583 0a1.934 1.934 0 01-1.93-1.927c0-1.06.869-1.926 1.93-1.926s1.929.867 1.929 1.926c0 1.06-.868 1.927-1.929 1.927zM1.93 57.793A1.934 1.934 0 010 55.867c0-1.06.868-1.927 1.93-1.927 1.06 0 1.929.867 1.929 1.927s-.869 1.926-1.93 1.926zm132.588.001h-.048a1.933 1.933 0 01-1.929-1.926c0-1.06.868-1.927 1.929-1.927h.048c1.061 0 1.93.867 1.93 1.927s-.869 1.926-1.93 1.926zm-6.318 0h-.048a1.934 1.934 0 01-1.93-1.926c0-1.06.869-1.927 1.93-1.927h.048c1.061 0 1.929.867 1.929 1.927s-.82 1.926-1.929 1.926zm-6.27 0h-.049a1.933 1.933 0 01-1.929-1.926c0-1.06.868-1.927 1.929-1.927h.049c1.061 0 1.929.867 1.929 1.927s-.868 1.926-1.929 1.926zm-6.319 0h-.048a1.933 1.933 0 01-1.929-1.926c0-1.06.868-1.927 1.929-1.927h.048c1.061 0 1.929.867 1.929 1.927s-.868 1.926-1.929 1.926zm-6.318 0a1.934 1.934 0 01-1.93-1.926c0-1.06.82-1.927 1.93-1.927h.048c1.061 0 1.929.867 1.929 1.927s-.916 1.926-1.977 1.926zm-6.319 0a1.933 1.933 0 01-1.929-1.926c0-1.06.82-1.927 1.929-1.927h.048c1.062 0 1.93.867 1.93 1.927s-.917 1.926-1.978 1.926zm-6.318 0h-.049a1.934 1.934 0 01-1.929-1.926c0-1.06.868-1.927 1.93-1.927h.048c1.06 0 1.929.867 1.929 1.927s-.868 1.926-1.93 1.926zm-6.319 0h-.048a1.934 1.934 0 01-1.93-1.926c0-1.06.869-1.927 1.93-1.927h.048c1.061 0 1.93.867 1.93 1.927s-.869 1.926-1.93 1.926zm-6.318 0h-.049a1.933 1.933 0 01-1.929-1.926c0-1.06.868-1.927 1.93-1.927h.048c1.06 0 1.929.867 1.929 1.927s-.868 1.926-1.93 1.926zm-6.319 0h-.048a1.934 1.934 0 01-1.93-1.926c0-1.06.869-1.927 1.93-1.927h.048c1.061 0 1.93.867 1.93 1.927s-.869 1.926-1.93 1.926zm-6.318 0a1.934 1.934 0 01-1.93-1.926c0-1.06.82-1.927 1.93-1.927h.048c1.061 0 1.93.867 1.93 1.927s-.917 1.926-1.978 1.926zm-6.319 0a1.934 1.934 0 01-1.93-1.926c0-1.06.82-1.927 1.93-1.927h.049c1.06 0 1.929.867 1.929 1.927s-.917 1.926-1.978 1.926zm-6.318 0h-.048a1.934 1.934 0 01-1.93-1.926c0-1.06.868-1.927 1.93-1.927h.048c1.06 0 1.93.867 1.93 1.927s-.82 1.926-1.93 1.926zm-6.27 0h-.049a1.934 1.934 0 01-1.929-1.926c0-1.06.868-1.927 1.93-1.927h.047c1.062 0 1.93.867 1.93 1.927s-.868 1.926-1.93 1.926zm-6.319 0h-.048a1.934 1.934 0 01-1.93-1.926c0-1.06.869-1.927 1.93-1.927h.048c1.061 0 1.93.867 1.93 1.927s-.869 1.926-1.93 1.926zm-6.319 0h-.048a1.934 1.934 0 01-1.929-1.926c0-1.06.868-1.927 1.93-1.927h.047c1.062 0 1.93.867 1.93 1.927s-.868 1.926-1.93 1.926zm-6.318 0a1.934 1.934 0 01-1.93-1.926c0-1.06.82-1.927 1.93-1.927h.048c1.061 0 1.93.867 1.93 1.927s-.917 1.926-1.978 1.926zm-6.318 0a1.934 1.934 0 01-1.93-1.926c0-1.06.82-1.927 1.93-1.927h.048c1.06 0 1.93.867 1.93 1.927s-.917 1.926-1.978 1.926zm-6.319 0h-.048a1.934 1.934 0 01-1.93-1.926c0-1.06.869-1.927 1.93-1.927h.048c1.061 0 1.93.867 1.93 1.927s-.869 1.926-1.93 1.926zm-6.318 0h-.049a1.934 1.934 0 01-1.929-1.926c0-1.06.868-1.927 1.93-1.927h.048c1.06 0 1.929.867 1.929 1.927s-.868 1.926-1.93 1.926zm-6.319 0h-.048a1.934 1.934 0 01-1.93-1.926c0-1.06.869-1.927 1.93-1.927h.048c1.061 0 1.93.867 1.93 1.927s-.869 1.926-1.93 1.926zm132.583 0a1.934 1.934 0 01-1.93-1.926c0-1.06.869-1.927 1.93-1.927s1.929.867 1.929 1.927-.868 1.926-1.929 1.926zM1.93 51.051A1.934 1.934 0 010 49.125c0-1.06.868-1.927 1.93-1.927 1.06 0 1.929.867 1.929 1.927s-.869 1.926-1.93 1.926zm132.588.001h-.048a1.933 1.933 0 01-1.929-1.926c0-1.06.868-1.927 1.929-1.927h.048c1.061 0 1.93.867 1.93 1.927s-.869 1.926-1.93 1.926zm-6.318 0h-.048a1.934 1.934 0 01-1.93-1.926c0-1.06.869-1.927 1.93-1.927h.048c1.061 0 1.929.867 1.929 1.927s-.82 1.926-1.929 1.926zm-6.27 0h-.049a1.933 1.933 0 01-1.929-1.926c0-1.06.868-1.927 1.929-1.927h.049c1.061 0 1.929.867 1.929 1.927s-.868 1.926-1.929 1.926zm-6.319 0h-.048a1.933 1.933 0 01-1.929-1.926c0-1.06.868-1.927 1.929-1.927h.048c1.061 0 1.929.867 1.929 1.927s-.868 1.926-1.929 1.926zm-6.318 0a1.934 1.934 0 01-1.93-1.926c0-1.06.82-1.927 1.93-1.927h.048c1.061 0 1.929.867 1.929 1.927s-.916 1.926-1.977 1.926zm-6.319 0a1.933 1.933 0 01-1.929-1.926c0-1.06.82-1.927 1.929-1.927h.048c1.062 0 1.93.867 1.93 1.927s-.917 1.926-1.978 1.926zm-6.318 0h-.049a1.934 1.934 0 01-1.929-1.926c0-1.06.868-1.927 1.93-1.927h.048c1.06 0 1.929.867 1.929 1.927s-.868 1.926-1.93 1.926zm-6.319 0h-.048a1.934 1.934 0 01-1.93-1.926c0-1.06.869-1.927 1.93-1.927h.048c1.061 0 1.93.867 1.93 1.927s-.869 1.926-1.93 1.926zm-6.318 0h-.049a1.933 1.933 0 01-1.929-1.926c0-1.06.868-1.927 1.93-1.927h.048c1.06 0 1.929.867 1.929 1.927s-.868 1.926-1.93 1.926zm-6.319 0h-.048a1.934 1.934 0 01-1.93-1.926c0-1.06.869-1.927 1.93-1.927h.048c1.061 0 1.93.867 1.93 1.927s-.869 1.926-1.93 1.926zm-6.318 0a1.934 1.934 0 01-1.93-1.926c0-1.06.82-1.927 1.93-1.927h.048c1.061 0 1.93.867 1.93 1.927s-.917 1.926-1.978 1.926zm-6.319 0a1.934 1.934 0 01-1.93-1.926c0-1.06.82-1.927 1.93-1.927h.049c1.06 0 1.929.867 1.929 1.927s-.917 1.926-1.978 1.926zm-6.318 0h-.048a1.934 1.934 0 01-1.93-1.926c0-1.06.868-1.927 1.93-1.927h.048c1.06 0 1.93.867 1.93 1.927s-.82 1.926-1.93 1.926zm-6.27 0h-.049a1.934 1.934 0 01-1.929-1.926c0-1.06.868-1.927 1.93-1.927h.047c1.062 0 1.93.867 1.93 1.927s-.868 1.926-1.93 1.926zm-6.319 0h-.048a1.934 1.934 0 01-1.93-1.926c0-1.06.869-1.927 1.93-1.927h.048c1.061 0 1.93.867 1.93 1.927s-.869 1.926-1.93 1.926zm-6.319 0h-.048a1.934 1.934 0 01-1.929-1.926c0-1.06.868-1.927 1.93-1.927h.047c1.062 0 1.93.867 1.93 1.927s-.868 1.926-1.93 1.926zm-6.318 0a1.934 1.934 0 01-1.93-1.926c0-1.06.82-1.927 1.93-1.927h.048c1.061 0 1.93.867 1.93 1.927s-.917 1.926-1.978 1.926zm-6.318 0a1.934 1.934 0 01-1.93-1.926c0-1.06.82-1.927 1.93-1.927h.048c1.06 0 1.93.867 1.93 1.927s-.917 1.926-1.978 1.926zm-6.319 0h-.048a1.934 1.934 0 01-1.93-1.926c0-1.06.869-1.927 1.93-1.927h.048c1.061 0 1.93.867 1.93 1.927s-.869 1.926-1.93 1.926zm-6.318 0h-.049a1.934 1.934 0 01-1.929-1.926c0-1.06.868-1.927 1.93-1.927h.048c1.06 0 1.929.867 1.929 1.927s-.868 1.926-1.93 1.926zm-6.319 0h-.048a1.934 1.934 0 01-1.93-1.926c0-1.06.869-1.927 1.93-1.927h.048c1.061 0 1.93.867 1.93 1.927s-.869 1.926-1.93 1.926zm132.583 0a1.934 1.934 0 01-1.93-1.926c0-1.06.869-1.927 1.93-1.927s1.929.867 1.929 1.927-.868 1.926-1.929 1.926zM1.93 44.306A1.934 1.934 0 010 42.38c0-1.06.868-1.927 1.93-1.927 1.06 0 1.929.867 1.929 1.927s-.869 1.926-1.93 1.926zm132.588 0h-.048a1.933 1.933 0 01-1.929-1.926c0-1.06.868-1.927 1.929-1.927h.048c1.061 0 1.93.867 1.93 1.927s-.869 1.926-1.93 1.926zm-6.318 0h-.048a1.934 1.934 0 01-1.93-1.926c0-1.06.869-1.927 1.93-1.927h.048c1.061 0 1.929.867 1.929 1.927s-.82 1.926-1.929 1.926zm-6.27 0h-.049a1.933 1.933 0 01-1.929-1.926c0-1.06.868-1.927 1.929-1.927h.049c1.061 0 1.929.867 1.929 1.927s-.868 1.926-1.929 1.926zm-6.319 0h-.048a1.933 1.933 0 01-1.929-1.926c0-1.06.868-1.927 1.929-1.927h.048c1.061 0 1.929.867 1.929 1.927s-.868 1.926-1.929 1.926zm-6.318 0a1.934 1.934 0 01-1.93-1.926c0-1.06.82-1.927 1.93-1.927h.048c1.061 0 1.929.867 1.929 1.927s-.916 1.926-1.977 1.926zm-6.319 0a1.933 1.933 0 01-1.929-1.926c0-1.06.82-1.927 1.929-1.927h.048c1.062 0 1.93.867 1.93 1.927s-.917 1.926-1.978 1.926zm-6.318 0h-.049a1.934 1.934 0 01-1.929-1.926c0-1.06.868-1.927 1.93-1.927h.048c1.06 0 1.929.867 1.929 1.927s-.868 1.926-1.93 1.926zm-6.319 0h-.048a1.934 1.934 0 01-1.93-1.926c0-1.06.869-1.927 1.93-1.927h.048c1.061 0 1.93.867 1.93 1.927s-.869 1.926-1.93 1.926zm-6.318 0h-.049a1.933 1.933 0 01-1.929-1.926c0-1.06.868-1.927 1.93-1.927h.048c1.06 0 1.929.867 1.929 1.927s-.868 1.926-1.93 1.926zm-6.319 0h-.048a1.934 1.934 0 01-1.93-1.926c0-1.06.869-1.927 1.93-1.927h.048c1.061 0 1.93.867 1.93 1.927s-.869 1.926-1.93 1.926zm-6.318 0a1.934 1.934 0 01-1.93-1.926c0-1.06.82-1.927 1.93-1.927h.048c1.061 0 1.93.867 1.93 1.927s-.917 1.926-1.978 1.926zm-6.319 0a1.934 1.934 0 01-1.93-1.926c0-1.06.82-1.927 1.93-1.927h.049c1.06 0 1.929.867 1.929 1.927s-.917 1.926-1.978 1.926zm-6.318 0h-.048a1.934 1.934 0 01-1.93-1.926c0-1.06.868-1.927 1.93-1.927h.048c1.06 0 1.93.867 1.93 1.927s-.82 1.926-1.93 1.926zm-6.27 0h-.049a1.934 1.934 0 01-1.929-1.926c0-1.06.868-1.927 1.93-1.927h.047c1.062 0 1.93.867 1.93 1.927s-.868 1.926-1.93 1.926zm-6.319 0h-.048a1.934 1.934 0 01-1.93-1.926c0-1.06.869-1.927 1.93-1.927h.048c1.061 0 1.93.867 1.93 1.927s-.869 1.926-1.93 1.926zm-6.319 0h-.048a1.934 1.934 0 01-1.929-1.926c0-1.06.868-1.927 1.93-1.927h.047c1.062 0 1.93.867 1.93 1.927s-.868 1.926-1.93 1.926zm-6.318 0a1.934 1.934 0 01-1.93-1.926c0-1.06.82-1.927 1.93-1.927h.048c1.061 0 1.93.867 1.93 1.927s-.917 1.926-1.978 1.926zm-6.318 0a1.934 1.934 0 01-1.93-1.926c0-1.06.82-1.927 1.93-1.927h.048c1.06 0 1.93.867 1.93 1.927s-.917 1.926-1.978 1.926zm-6.319 0h-.048a1.934 1.934 0 01-1.93-1.926c0-1.06.869-1.927 1.93-1.927h.048c1.061 0 1.93.867 1.93 1.927s-.869 1.926-1.93 1.926zm-6.318 0h-.049a1.934 1.934 0 01-1.929-1.926c0-1.06.868-1.927 1.93-1.927h.048c1.06 0 1.929.867 1.929 1.927s-.868 1.926-1.93 1.926zm-6.319 0h-.048a1.934 1.934 0 01-1.93-1.926c0-1.06.869-1.927 1.93-1.927h.048c1.061 0 1.93.867 1.93 1.927s-.869 1.926-1.93 1.926zm132.583 0a1.934 1.934 0 01-1.93-1.926c0-1.06.869-1.927 1.93-1.927s1.929.867 1.929 1.927-.868 1.926-1.929 1.926zM1.93 37.566A1.934 1.934 0 010 35.639c0-1.06.868-1.926 1.93-1.926 1.06 0 1.929.867 1.929 1.926 0 1.06-.869 1.927-1.93 1.927zm132.588 0h-.048a1.933 1.933 0 01-1.929-1.927c0-1.06.868-1.926 1.929-1.926h.048c1.061 0 1.93.867 1.93 1.926 0 1.06-.869 1.927-1.93 1.927zm-6.318 0h-.048a1.934 1.934 0 01-1.93-1.927c0-1.06.869-1.926 1.93-1.926h.048c1.061 0 1.929.867 1.929 1.926 0 1.06-.82 1.927-1.929 1.927zm-6.27 0h-.049a1.933 1.933 0 01-1.929-1.927c0-1.06.868-1.926 1.929-1.926h.049c1.061 0 1.929.867 1.929 1.926 0 1.06-.868 1.927-1.929 1.927zm-6.319 0h-.048a1.933 1.933 0 01-1.929-1.927c0-1.06.868-1.926 1.929-1.926h.048c1.061 0 1.929.867 1.929 1.926 0 1.06-.868 1.927-1.929 1.927zm-6.318 0a1.934 1.934 0 01-1.93-1.927c0-1.06.82-1.926 1.93-1.926h.048c1.061 0 1.929.867 1.929 1.926 0 1.06-.916 1.927-1.977 1.927zm-6.319 0a1.933 1.933 0 01-1.929-1.927c0-1.06.82-1.926 1.929-1.926h.048c1.062 0 1.93.867 1.93 1.926 0 1.06-.917 1.927-1.978 1.927zm-6.318 0h-.049a1.934 1.934 0 01-1.929-1.927c0-1.06.868-1.926 1.93-1.926h.048c1.06 0 1.929.867 1.929 1.926 0 1.06-.868 1.927-1.93 1.927zm-6.319 0h-.048a1.934 1.934 0 01-1.93-1.927c0-1.06.869-1.926 1.93-1.926h.048c1.061 0 1.93.867 1.93 1.926 0 1.06-.869 1.927-1.93 1.927zm-6.318 0h-.049a1.933 1.933 0 01-1.929-1.927c0-1.06.868-1.926 1.93-1.926h.048c1.06 0 1.929.867 1.929 1.926 0 1.06-.868 1.927-1.93 1.927zm-6.319 0h-.048a1.934 1.934 0 01-1.93-1.927c0-1.06.869-1.926 1.93-1.926h.048c1.061 0 1.93.867 1.93 1.926 0 1.06-.869 1.927-1.93 1.927zm-6.318 0a1.934 1.934 0 01-1.93-1.927c0-1.06.82-1.926 1.93-1.926h.048c1.061 0 1.93.867 1.93 1.926 0 1.06-.917 1.927-1.978 1.927zm-6.319 0a1.934 1.934 0 01-1.93-1.927c0-1.06.82-1.926 1.93-1.926h.049c1.06 0 1.929.867 1.929 1.926 0 1.06-.917 1.927-1.978 1.927zm-6.318 0h-.048a1.934 1.934 0 01-1.93-1.927c0-1.06.868-1.926 1.93-1.926h.048c1.06 0 1.93.867 1.93 1.926 0 1.06-.82 1.927-1.93 1.927zm-6.27 0h-.049a1.934 1.934 0 01-1.929-1.927c0-1.06.868-1.926 1.93-1.926h.047c1.062 0 1.93.867 1.93 1.926 0 1.06-.868 1.927-1.93 1.927zm-6.319 0h-.048a1.934 1.934 0 01-1.93-1.927c0-1.06.869-1.926 1.93-1.926h.048c1.061 0 1.93.867 1.93 1.926 0 1.06-.869 1.927-1.93 1.927zm-6.319 0h-.048a1.934 1.934 0 01-1.929-1.927c0-1.06.868-1.926 1.93-1.926h.047c1.062 0 1.93.867 1.93 1.926 0 1.06-.868 1.927-1.93 1.927zm-6.318 0a1.934 1.934 0 01-1.93-1.927c0-1.06.82-1.926 1.93-1.926h.048c1.061 0 1.93.867 1.93 1.926 0 1.06-.917 1.927-1.978 1.927zm-6.318 0a1.934 1.934 0 01-1.93-1.927c0-1.06.82-1.926 1.93-1.926h.048c1.06 0 1.93.867 1.93 1.926 0 1.06-.917 1.927-1.978 1.927zm-6.319 0h-.048a1.934 1.934 0 01-1.93-1.927c0-1.06.869-1.926 1.93-1.926h.048c1.061 0 1.93.867 1.93 1.926 0 1.06-.869 1.927-1.93 1.927zm-6.318 0h-.049a1.934 1.934 0 01-1.929-1.927c0-1.06.868-1.926 1.93-1.926h.048c1.06 0 1.929.867 1.929 1.926 0 1.06-.868 1.927-1.93 1.927zm-6.319 0h-.048a1.934 1.934 0 01-1.93-1.927c0-1.06.869-1.926 1.93-1.926h.048c1.061 0 1.93.867 1.93 1.926 0 1.06-.869 1.927-1.93 1.927zm132.583 0a1.934 1.934 0 01-1.93-1.927c0-1.06.869-1.926 1.93-1.926s1.929.867 1.929 1.926c0 1.06-.868 1.927-1.929 1.927zM1.93 30.824a1.934 1.934 0 01-1.929-1.927c0-1.06.868-1.926 1.93-1.926 1.06 0 1.929.867 1.929 1.926 0 1.06-.869 1.927-1.93 1.927zm132.59-.001h-.048a1.933 1.933 0 01-1.929-1.927c0-1.06.868-1.926 1.929-1.926h.048c1.061 0 1.93.867 1.93 1.926 0 1.06-.869 1.927-1.93 1.927zm-6.318 0h-.048a1.934 1.934 0 01-1.93-1.927c0-1.06.868-1.926 1.93-1.926h.048c1.061 0 1.929.867 1.929 1.926 0 1.06-.82 1.927-1.929 1.927zm-6.27 0h-.049a1.933 1.933 0 01-1.929-1.927c0-1.06.868-1.926 1.929-1.926h.049c1.061 0 1.929.867 1.929 1.926 0 1.06-.868 1.927-1.929 1.927zm-6.319 0h-.048a1.933 1.933 0 01-1.929-1.927c0-1.06.868-1.926 1.929-1.926h.048c1.061 0 1.929.867 1.929 1.926 0 1.06-.868 1.927-1.929 1.927zm-6.318 0a1.934 1.934 0 01-1.93-1.927c0-1.06.82-1.926 1.93-1.926h.048c1.061 0 1.929.867 1.929 1.926 0 1.06-.916 1.927-1.977 1.927zm-6.319 0a1.933 1.933 0 01-1.929-1.927c0-1.06.82-1.926 1.929-1.926h.048c1.061 0 1.93.867 1.93 1.926 0 1.06-.917 1.927-1.978 1.927zm-6.318 0h-.049a1.934 1.934 0 01-1.929-1.927c0-1.06.868-1.926 1.93-1.926h.048c1.06 0 1.929.867 1.929 1.926 0 1.06-.868 1.927-1.93 1.927zm-6.319 0h-.048a1.934 1.934 0 01-1.93-1.927c0-1.06.869-1.926 1.93-1.926h.048c1.061 0 1.93.867 1.93 1.926 0 1.06-.869 1.927-1.93 1.927zm-6.318 0h-.049a1.934 1.934 0 01-1.929-1.927c0-1.06.868-1.926 1.93-1.926h.048c1.06 0 1.929.867 1.929 1.926 0 1.06-.868 1.927-1.93 1.927zm-6.319 0h-.048a1.934 1.934 0 01-1.93-1.927c0-1.06.869-1.926 1.93-1.926h.048c1.061 0 1.93.867 1.93 1.926 0 1.06-.869 1.927-1.93 1.927zm-6.318 0a1.934 1.934 0 01-1.93-1.927c0-1.06.82-1.926 1.93-1.926h.048c1.061 0 1.93.867 1.93 1.926 0 1.06-.917 1.927-1.978 1.927zm-6.319 0a1.934 1.934 0 01-1.93-1.927c0-1.06.82-1.926 1.93-1.926h.048c1.061 0 1.93.867 1.93 1.926 0 1.06-.917 1.927-1.978 1.927zm-6.318 0h-.048a1.934 1.934 0 01-1.93-1.927c0-1.06.868-1.926 1.93-1.926h.048c1.06 0 1.929.867 1.929 1.926 0 1.06-.82 1.927-1.93 1.927zm-6.27 0h-.049a1.934 1.934 0 01-1.93-1.927c0-1.06.87-1.926 1.93-1.926h.049c1.06 0 1.929.867 1.929 1.926 0 1.06-.868 1.927-1.93 1.927zm-6.319 0h-.048a1.934 1.934 0 01-1.93-1.927c0-1.06.869-1.926 1.93-1.926h.048c1.061 0 1.93.867 1.93 1.926 0 1.06-.869 1.927-1.93 1.927zm-6.319 0h-.048a1.933 1.933 0 01-1.929-1.927c0-1.06.868-1.926 1.93-1.926h.047c1.062 0 1.93.867 1.93 1.926 0 1.06-.868 1.927-1.93 1.927zm-6.318 0a1.934 1.934 0 01-1.93-1.927c0-1.06.82-1.926 1.93-1.926h.048c1.061 0 1.93.867 1.93 1.926 0 1.06-.917 1.927-1.978 1.927zm-6.319 0a1.934 1.934 0 01-1.929-1.927c0-1.06.82-1.926 1.93-1.926h.048c1.06 0 1.93.867 1.93 1.926 0 1.06-.917 1.927-1.979 1.927zm-6.318 0h-.048a1.934 1.934 0 01-1.93-1.927c0-1.06.869-1.926 1.93-1.926h.048c1.061 0 1.93.867 1.93 1.926 0 1.06-.869 1.927-1.93 1.927zm-6.318 0h-.049a1.934 1.934 0 01-1.929-1.927c0-1.06.868-1.926 1.93-1.926h.048c1.06 0 1.929.867 1.929 1.926 0 1.06-.868 1.927-1.93 1.927zm-6.319 0H8.2a1.934 1.934 0 01-1.93-1.927c0-1.06.869-1.926 1.93-1.926h.048c1.061 0 1.93.867 1.93 1.926 0 1.06-.869 1.927-1.93 1.927zm132.582 0a1.934 1.934 0 01-1.93-1.927c0-1.06.869-1.926 1.93-1.926s1.929.867 1.929 1.926c0 1.06-.868 1.927-1.929 1.927zM1.93 24.08A1.934 1.934 0 010 22.154c0-1.06.868-1.927 1.93-1.927 1.06 0 1.929.867 1.929 1.927s-.869 1.926-1.93 1.926zm132.589 0h-.048a1.933 1.933 0 01-1.929-1.927c0-1.06.868-1.926 1.929-1.926h.048c1.061 0 1.93.866 1.93 1.926s-.869 1.926-1.93 1.926zm-6.318 0h-.048a1.934 1.934 0 01-1.93-1.927c0-1.06.868-1.926 1.93-1.926h.048c1.061 0 1.929.866 1.929 1.926s-.82 1.926-1.929 1.926zm-6.27 0h-.049a1.933 1.933 0 01-1.929-1.927c0-1.06.868-1.926 1.929-1.926h.049c1.061 0 1.929.866 1.929 1.926s-.868 1.926-1.929 1.926zm-6.319 0h-.048a1.933 1.933 0 01-1.929-1.927c0-1.06.868-1.926 1.929-1.926h.048c1.061 0 1.929.866 1.929 1.926s-.868 1.926-1.929 1.926zm-6.318 0a1.934 1.934 0 01-1.93-1.927c0-1.06.82-1.926 1.93-1.926h.048c1.061 0 1.929.866 1.929 1.926s-.916 1.926-1.977 1.926zm-6.319 0a1.933 1.933 0 01-1.929-1.927c0-1.06.82-1.926 1.929-1.926h.048c1.061 0 1.93.866 1.93 1.926s-.917 1.926-1.978 1.926zm-6.318 0h-.049a1.934 1.934 0 01-1.929-1.927c0-1.06.868-1.926 1.93-1.926h.048c1.06 0 1.929.866 1.929 1.926s-.868 1.926-1.93 1.926zm-6.319 0h-.048a1.934 1.934 0 01-1.93-1.927c0-1.06.869-1.926 1.93-1.926h.048c1.061 0 1.93.866 1.93 1.926s-.869 1.926-1.93 1.926zm-6.318 0h-.049a1.934 1.934 0 01-1.929-1.927c0-1.06.868-1.926 1.93-1.926h.048c1.06 0 1.929.866 1.929 1.926s-.868 1.926-1.93 1.926zm-6.319 0h-.048a1.934 1.934 0 01-1.93-1.927c0-1.06.869-1.926 1.93-1.926h.048c1.061 0 1.93.866 1.93 1.926s-.869 1.926-1.93 1.926zm-6.318 0a1.934 1.934 0 01-1.93-1.927c0-1.06.82-1.926 1.93-1.926h.048c1.061 0 1.93.866 1.93 1.926s-.917 1.926-1.978 1.926zm-6.319 0a1.934 1.934 0 01-1.93-1.927c0-1.06.82-1.926 1.93-1.926h.049c1.06 0 1.929.866 1.929 1.926s-.917 1.926-1.978 1.926zm-6.318 0h-.049a1.934 1.934 0 01-1.929-1.927c0-1.06.868-1.926 1.93-1.926h.048c1.06 0 1.929.866 1.929 1.926s-.82 1.926-1.93 1.926zm-6.27 0h-.049a1.934 1.934 0 01-1.93-1.927c0-1.06.87-1.926 1.93-1.926h.048c1.062 0 1.93.866 1.93 1.926s-.868 1.926-1.93 1.926zm-6.319 0h-.048a1.933 1.933 0 01-1.93-1.927c0-1.06.869-1.926 1.93-1.926h.048c1.061 0 1.93.866 1.93 1.926s-.869 1.926-1.93 1.926zm-6.318 0h-.049a1.934 1.934 0 01-1.929-1.927c0-1.06.868-1.926 1.93-1.926h.048c1.06 0 1.929.866 1.929 1.926s-.868 1.926-1.93 1.926zm-6.319 0a1.934 1.934 0 01-1.93-1.927c0-1.06.82-1.926 1.93-1.926h.048c1.061 0 1.93.866 1.93 1.926s-.917 1.926-1.978 1.926zm-6.319 0a1.934 1.934 0 01-1.929-1.927c0-1.06.82-1.926 1.93-1.926h.048c1.06 0 1.93.866 1.93 1.926s-.917 1.926-1.979 1.926zm-6.318 0h-.048a1.934 1.934 0 01-1.93-1.927c0-1.06.869-1.926 1.93-1.926h.048c1.061 0 1.93.866 1.93 1.926s-.869 1.926-1.93 1.926zm-6.318 0h-.049a1.934 1.934 0 01-1.929-1.927c0-1.06.868-1.926 1.93-1.926h.048c1.06 0 1.929.866 1.929 1.926s-.868 1.926-1.93 1.926zm-6.319 0h-.048a1.934 1.934 0 01-1.93-1.927c0-1.06.869-1.926 1.93-1.926h.048c1.061 0 1.93.866 1.93 1.926s-.869 1.926-1.93 1.926zm132.583 0a1.934 1.934 0 01-1.93-1.927c0-1.06.869-1.926 1.93-1.926s1.929.866 1.929 1.926-.868 1.926-1.929 1.926zM1.93 17.343a1.934 1.934 0 01-1.929-1.926c0-1.06.868-1.927 1.93-1.927 1.06 0 1.929.867 1.929 1.927s-.869 1.926-1.93 1.926zm132.59-.003h-.048a1.933 1.933 0 01-1.929-1.926c0-1.06.868-1.927 1.929-1.927h.048c1.061 0 1.93.867 1.93 1.927s-.869 1.926-1.93 1.926zm-6.318 0h-.048a1.934 1.934 0 01-1.93-1.926c0-1.06.868-1.927 1.93-1.927h.048c1.061 0 1.929.867 1.929 1.927s-.82 1.926-1.929 1.926zm-6.27 0h-.049a1.933 1.933 0 01-1.929-1.926c0-1.06.868-1.927 1.929-1.927h.049c1.061 0 1.929.867 1.929 1.927s-.868 1.926-1.929 1.926zm-6.319 0h-.048a1.933 1.933 0 01-1.929-1.926c0-1.06.868-1.927 1.929-1.927h.048c1.061 0 1.929.867 1.929 1.927s-.868 1.926-1.929 1.926zm-6.318 0a1.934 1.934 0 01-1.93-1.926c0-1.06.82-1.927 1.93-1.927h.048c1.061 0 1.929.867 1.929 1.927s-.916 1.926-1.977 1.926zm-6.319 0a1.933 1.933 0 01-1.929-1.926c0-1.06.82-1.927 1.929-1.927h.048c1.061 0 1.93.867 1.93 1.927s-.917 1.926-1.978 1.926zm-6.318 0h-.049a1.934 1.934 0 01-1.929-1.926c0-1.06.868-1.927 1.93-1.927h.048c1.06 0 1.929.867 1.929 1.927s-.868 1.926-1.93 1.926zm-6.319 0h-.048a1.934 1.934 0 01-1.93-1.926c0-1.06.869-1.927 1.93-1.927h.048c1.061 0 1.93.867 1.93 1.927s-.869 1.926-1.93 1.926zm-6.318 0h-.049a1.934 1.934 0 01-1.929-1.926c0-1.06.868-1.927 1.93-1.927h.048c1.06 0 1.929.867 1.929 1.927s-.868 1.926-1.93 1.926zm-6.319 0h-.048a1.934 1.934 0 01-1.93-1.926c0-1.06.869-1.927 1.93-1.927h.048c1.061 0 1.93.867 1.93 1.927s-.869 1.926-1.93 1.926zm-6.318 0a1.934 1.934 0 01-1.93-1.926c0-1.06.82-1.927 1.93-1.927h.048c1.061 0 1.93.867 1.93 1.927s-.917 1.926-1.978 1.926zm-6.319 0a1.934 1.934 0 01-1.93-1.926c0-1.06.82-1.927 1.93-1.927h.048c1.061 0 1.93.867 1.93 1.927s-.917 1.926-1.978 1.926zm-6.318 0h-.048a1.934 1.934 0 01-1.93-1.926c0-1.06.868-1.927 1.93-1.927h.048c1.06 0 1.929.867 1.929 1.927s-.82 1.926-1.93 1.926zm-6.27 0h-.049a1.934 1.934 0 01-1.93-1.926c0-1.06.87-1.927 1.93-1.927h.049c1.06 0 1.929.867 1.929 1.927s-.868 1.926-1.93 1.926zm-6.319 0h-.048a1.934 1.934 0 01-1.93-1.926c0-1.06.869-1.927 1.93-1.927h.048c1.061 0 1.93.867 1.93 1.927s-.869 1.926-1.93 1.926zm-6.319 0h-.048a1.933 1.933 0 01-1.929-1.926c0-1.06.868-1.927 1.93-1.927h.047c1.062 0 1.93.867 1.93 1.927s-.868 1.926-1.93 1.926zm-6.318 0a1.934 1.934 0 01-1.93-1.926c0-1.06.82-1.927 1.93-1.927h.048c1.061 0 1.93.867 1.93 1.927s-.917 1.926-1.978 1.926zm-6.319 0a1.934 1.934 0 01-1.929-1.926c0-1.06.82-1.927 1.93-1.927h.048c1.06 0 1.93.867 1.93 1.927s-.917 1.926-1.979 1.926zm-6.318 0h-.048a1.934 1.934 0 01-1.93-1.926c0-1.06.869-1.927 1.93-1.927h.048c1.061 0 1.93.867 1.93 1.927s-.869 1.926-1.93 1.926zm-6.318 0h-.049a1.934 1.934 0 01-1.929-1.926c0-1.06.868-1.927 1.93-1.927h.048c1.06 0 1.929.867 1.929 1.927s-.868 1.926-1.93 1.926zm-6.319 0H8.2a1.934 1.934 0 01-1.93-1.926c0-1.06.869-1.927 1.93-1.927h.048c1.061 0 1.93.867 1.93 1.927s-.869 1.926-1.93 1.926zm132.582 0a1.934 1.934 0 01-1.93-1.926c0-1.06.869-1.927 1.93-1.927s1.929.867 1.929 1.927-.868 1.926-1.929 1.926zM1.93 10.595A1.934 1.934 0 010 8.67c0-1.06.868-1.927 1.93-1.927 1.06 0 1.929.867 1.929 1.927s-.869 1.926-1.93 1.926zm132.588.002h-.048a1.933 1.933 0 01-1.929-1.926c0-1.06.868-1.927 1.929-1.927h.048c1.061 0 1.93.867 1.93 1.927s-.869 1.926-1.93 1.926zm-6.318 0h-.048a1.934 1.934 0 01-1.93-1.926c0-1.06.869-1.927 1.93-1.927h.048c1.061 0 1.929.867 1.929 1.927s-.82 1.926-1.929 1.926zm-6.27 0h-.049a1.933 1.933 0 01-1.929-1.926c0-1.06.868-1.927 1.929-1.927h.049c1.061 0 1.929.867 1.929 1.927s-.868 1.926-1.929 1.926zm-6.319 0h-.048a1.933 1.933 0 01-1.929-1.926c0-1.06.868-1.927 1.929-1.927h.048c1.061 0 1.929.867 1.929 1.927s-.868 1.926-1.929 1.926zm-6.318 0a1.934 1.934 0 01-1.93-1.926c0-1.06.82-1.927 1.93-1.927h.048c1.061 0 1.929.867 1.929 1.927s-.916 1.926-1.977 1.926zm-6.319 0a1.933 1.933 0 01-1.929-1.926c0-1.06.82-1.927 1.929-1.927h.048c1.062 0 1.93.867 1.93 1.927s-.917 1.926-1.978 1.926zm-6.318 0h-.049a1.934 1.934 0 01-1.929-1.926c0-1.06.868-1.927 1.93-1.927h.048c1.06 0 1.929.867 1.929 1.927s-.868 1.926-1.93 1.926zm-6.319 0h-.048a1.934 1.934 0 01-1.93-1.926c0-1.06.869-1.927 1.93-1.927h.048c1.061 0 1.93.867 1.93 1.927s-.869 1.926-1.93 1.926zm-6.318 0h-.049a1.933 1.933 0 01-1.929-1.926c0-1.06.868-1.927 1.93-1.927h.048c1.06 0 1.929.867 1.929 1.927s-.868 1.926-1.93 1.926zm-6.319 0h-.048a1.934 1.934 0 01-1.93-1.926c0-1.06.869-1.927 1.93-1.927h.048c1.061 0 1.93.867 1.93 1.927s-.869 1.926-1.93 1.926zm-6.318 0a1.934 1.934 0 01-1.93-1.926c0-1.06.82-1.927 1.93-1.927h.048c1.061 0 1.93.867 1.93 1.927s-.917 1.926-1.978 1.926zm-6.319 0a1.934 1.934 0 01-1.93-1.926c0-1.06.82-1.927 1.93-1.927h.049c1.06 0 1.929.867 1.929 1.927s-.917 1.926-1.978 1.926zm-6.318 0h-.048a1.934 1.934 0 01-1.93-1.926c0-1.06.868-1.927 1.93-1.927h.048c1.06 0 1.93.867 1.93 1.927s-.82 1.926-1.93 1.926zm-6.27 0h-.049a1.934 1.934 0 01-1.929-1.926c0-1.06.868-1.927 1.93-1.927h.047c1.062 0 1.93.867 1.93 1.927s-.868 1.926-1.93 1.926zm-6.319 0h-.048a1.934 1.934 0 01-1.93-1.926c0-1.06.869-1.927 1.93-1.927h.048c1.061 0 1.93.867 1.93 1.927s-.869 1.926-1.93 1.926zm-6.319 0h-.048a1.934 1.934 0 01-1.929-1.926c0-1.06.868-1.927 1.93-1.927h.047c1.062 0 1.93.867 1.93 1.927s-.868 1.926-1.93 1.926zm-6.318 0a1.934 1.934 0 01-1.93-1.926c0-1.06.82-1.927 1.93-1.927h.048c1.061 0 1.93.867 1.93 1.927s-.917 1.926-1.978 1.926zm-6.318 0a1.934 1.934 0 01-1.93-1.926c0-1.06.82-1.927 1.93-1.927h.048c1.06 0 1.93.867 1.93 1.927s-.917 1.926-1.978 1.926zm-6.319 0h-.048a1.934 1.934 0 01-1.93-1.926c0-1.06.869-1.927 1.93-1.927h.048c1.061 0 1.93.867 1.93 1.927s-.869 1.926-1.93 1.926zm-6.318 0h-.049a1.934 1.934 0 01-1.929-1.926c0-1.06.868-1.927 1.93-1.927h.048c1.06 0 1.929.867 1.929 1.927s-.868 1.926-1.93 1.926zm-6.319 0h-.048a1.934 1.934 0 01-1.93-1.926c0-1.06.869-1.927 1.93-1.927h.048c1.061 0 1.93.867 1.93 1.927s-.869 1.926-1.93 1.926zm132.583-.002a1.934 1.934 0 01-1.93-1.926c0-1.06.869-1.927 1.93-1.927s1.929.867 1.929 1.927-.868 1.926-1.929 1.926zM1.93 3.853A1.934 1.934 0 01.001 1.926C.001.866.869 0 1.931 0 2.99 0 3.86.867 3.86 1.926c0 1.06-.869 1.927-1.93 1.927zm132.589 0h-.048a1.933 1.933 0 01-1.929-1.927c0-1.06.868-1.926 1.929-1.926h.048c1.061 0 1.93.867 1.93 1.926 0 1.06-.869 1.927-1.93 1.927zm-6.318 0h-.048a1.934 1.934 0 01-1.93-1.927c0-1.06.868-1.926 1.93-1.926h.048c1.061 0 1.929.867 1.929 1.926 0 1.06-.82 1.927-1.929 1.927zm-6.27 0h-.049a1.933 1.933 0 01-1.929-1.927c0-1.06.868-1.926 1.929-1.926h.049c1.061 0 1.929.867 1.929 1.926 0 1.06-.868 1.927-1.929 1.927zm-6.319 0h-.048a1.933 1.933 0 01-1.929-1.927c0-1.06.868-1.926 1.929-1.926h.048c1.061 0 1.929.867 1.929 1.926 0 1.06-.868 1.927-1.929 1.927zm-6.318 0a1.934 1.934 0 01-1.93-1.927c0-1.06.82-1.926 1.93-1.926h.048c1.061 0 1.929.867 1.929 1.926 0 1.06-.916 1.927-1.977 1.927zm-6.319 0a1.933 1.933 0 01-1.929-1.927c0-1.06.82-1.926 1.929-1.926h.048c1.061 0 1.93.867 1.93 1.926 0 1.06-.917 1.927-1.978 1.927zm-6.318 0h-.049a1.934 1.934 0 01-1.929-1.927A1.934 1.934 0 0196.61 0h.048c1.06 0 1.929.867 1.929 1.926 0 1.06-.868 1.927-1.93 1.927zm-6.319 0h-.048a1.934 1.934 0 01-1.93-1.927C88.36.866 89.23 0 90.29 0h.048c1.061 0 1.93.867 1.93 1.926 0 1.06-.869 1.927-1.93 1.927zm-6.318 0h-.049a1.934 1.934 0 01-1.929-1.927c0-1.06.868-1.926 1.93-1.926h.048c1.06 0 1.929.867 1.929 1.926 0 1.06-.868 1.927-1.93 1.927zm-6.319 0h-.048a1.934 1.934 0 01-1.93-1.927c0-1.06.869-1.926 1.93-1.926h.048c1.061 0 1.93.867 1.93 1.926 0 1.06-.869 1.927-1.93 1.927zm-6.318 0a1.934 1.934 0 01-1.93-1.927c0-1.06.82-1.926 1.93-1.926h.048c1.061 0 1.93.867 1.93 1.926 0 1.06-.917 1.927-1.978 1.927zm-6.319 0a1.934 1.934 0 01-1.93-1.927c0-1.06.82-1.926 1.93-1.926h.049c1.06 0 1.929.867 1.929 1.926 0 1.06-.917 1.927-1.978 1.927zm-6.318 0h-.049a1.934 1.934 0 01-1.929-1.927c0-1.06.868-1.926 1.93-1.926h.048c1.06 0 1.929.867 1.929 1.926 0 1.06-.82 1.927-1.93 1.927zm-6.27 0h-.049a1.934 1.934 0 01-1.93-1.927c0-1.06.87-1.926 1.93-1.926h.048c1.062 0 1.93.867 1.93 1.926 0 1.06-.868 1.927-1.93 1.927zm-6.319 0h-.048a1.933 1.933 0 01-1.93-1.927A1.934 1.934 0 0146.11 0h.048c1.061 0 1.93.867 1.93 1.926 0 1.06-.869 1.927-1.93 1.927zm-6.318 0h-.049a1.934 1.934 0 01-1.929-1.927c0-1.06.868-1.926 1.93-1.926h.048c1.06 0 1.929.867 1.929 1.926 0 1.06-.868 1.927-1.93 1.927zm-6.319 0a1.934 1.934 0 01-1.93-1.927C31.59.866 32.41 0 33.52 0h.048c1.061 0 1.93.867 1.93 1.926 0 1.06-.917 1.927-1.978 1.927zm-6.319 0a1.934 1.934 0 01-1.929-1.927c0-1.06.82-1.926 1.93-1.926h.048c1.06 0 1.93.867 1.93 1.926 0 1.06-.917 1.927-1.979 1.927zm-6.318 0h-.048a1.934 1.934 0 01-1.93-1.927c0-1.06.869-1.926 1.93-1.926h.048c1.061 0 1.93.867 1.93 1.926 0 1.06-.869 1.927-1.93 1.927zm-6.318 0h-.049a1.934 1.934 0 01-1.929-1.927c0-1.06.868-1.926 1.93-1.926h.048c1.06 0 1.929.867 1.929 1.926 0 1.06-.868 1.927-1.93 1.927zm-6.319 0h-.048a1.934 1.934 0 01-1.93-1.927A1.935 1.935 0 018.199 0h.048c1.061 0 1.93.867 1.93 1.926 0 1.06-.869 1.927-1.93 1.927zm132.583 0a1.934 1.934 0 01-1.93-1.927c0-1.06.869-1.926 1.93-1.926s1.929.867 1.929 1.926c0 1.06-.868 1.927-1.929 1.927z" fill="#C1E1ED"/></mask><g mask="url(#a)"><path d="M56.5 5.203a18 18 0 0118 0l42.189 24.358a18 18 0 019 15.588v48.716a18 18 0 01-9 15.588L74.5 133.811a18.002 18.002 0 01-18 0l-42.189-24.358a18 18 0 01-9-15.588V45.149a18 18 0 019-15.588L56.5 5.203z" fill="#DDD0F2"/></g></svg>