<svg width="128" height="132" fill="none" xmlns="http://www.w3.org/2000/svg"><mask id="a" maskUnits="userSpaceOnUse" x="0" y="0" width="128" height="132"><path d="M1.73 131.142c-.952 0-1.73-.777-1.73-1.727 0-.95.778-1.727 1.73-1.727.951 0 1.73.777 1.73 1.727 0 .95-.779 1.727-1.73 1.727zm118.881 0h-.043c-.951 0-1.73-.777-1.73-1.727 0-.95.779-1.727 1.73-1.727h.043c.952 0 1.73.777 1.73 1.727 0 .95-.778 1.727-1.73 1.727zm-5.665 0h-.043c-.952 0-1.73-.777-1.73-1.727 0-.95.778-1.727 1.73-1.727h.043c.951 0 1.73.777 1.73 1.727 0 .95-.735 1.727-1.73 1.727zm-5.622 0h-.043c-.951 0-1.73-.777-1.73-1.727 0-.95.779-1.727 1.73-1.727h.043c.952 0 1.73.777 1.73 1.727 0 .95-.778 1.727-1.73 1.727zm-5.665 0h-.043c-.952 0-1.73-.777-1.73-1.727 0-.95.778-1.727 1.73-1.727h.043c.951 0 1.73.777 1.73 1.727 0 .95-.779 1.727-1.73 1.727zm-5.665 0c-.951 0-1.73-.777-1.73-1.727 0-.95.735-1.727 1.73-1.727h.043c.952 0 1.73.777 1.73 1.727 0 .95-.822 1.727-1.773 1.727zm-5.665 0c-.952 0-1.73-.777-1.73-1.727 0-.95.735-1.727 1.73-1.727h.043c.951 0 1.73.777 1.73 1.727 0 .95-.822 1.727-1.773 1.727zm-5.665 0h-.044c-.95 0-1.73-.777-1.73-1.727 0-.95.78-1.727 1.73-1.727h.044c.951 0 1.73.777 1.73 1.727 0 .95-.779 1.727-1.73 1.727zm-5.665 0h-.044c-.951 0-1.73-.777-1.73-1.727 0-.95.779-1.727 1.73-1.727H81c.951 0 1.73.777 1.73 1.727 0 .95-.779 1.727-1.73 1.727zm-5.666 0h-.043c-.951 0-1.73-.777-1.73-1.727 0-.95.779-1.727 1.73-1.727h.043c.952 0 1.73.777 1.73 1.727 0 .95-.778 1.727-1.73 1.727zm-5.665 0h-.043c-.951 0-1.73-.777-1.73-1.727 0-.95.779-1.727 1.73-1.727h.043c.952 0 1.73.777 1.73 1.727 0 .95-.778 1.727-1.73 1.727zm-5.665 0c-.951 0-1.73-.777-1.73-1.727 0-.95.735-1.727 1.73-1.727h.043c.952 0 1.73.777 1.73 1.727 0 .95-.821 1.727-1.773 1.727zm-5.665 0c-.951 0-1.73-.777-1.73-1.727 0-.95.735-1.727 1.73-1.727h.043c.952 0 1.73.777 1.73 1.727 0 .95-.822 1.727-1.773 1.727zm-5.665 0h-.043c-.952 0-1.73-.777-1.73-1.727 0-.95.778-1.727 1.73-1.727h.043c.951 0 1.73.777 1.73 1.727 0 .95-.735 1.727-1.73 1.727zm-5.622 0h-.043c-.952 0-1.73-.777-1.73-1.727 0-.95.778-1.727 1.73-1.727h.043c.951 0 1.73.777 1.73 1.727 0 .95-.779 1.727-1.73 1.727zm-5.665 0h-.043c-.952 0-1.73-.777-1.73-1.727 0-.95.778-1.727 1.73-1.727h.043c.951 0 1.73.777 1.73 1.727 0 .95-.779 1.727-1.73 1.727zm-5.665 0h-.043c-.952 0-1.73-.777-1.73-1.727 0-.95.778-1.727 1.73-1.727h.043c.951 0 1.73.777 1.73 1.727 0 .95-.779 1.727-1.73 1.727zm-5.665 0c-.952 0-1.73-.777-1.73-1.727 0-.95.735-1.727 1.73-1.727h.043c.951 0 1.73.777 1.73 1.727 0 .95-.822 1.727-1.773 1.727zm-5.666 0c-.95 0-1.73-.777-1.73-1.727 0-.95.736-1.727 1.73-1.727h.044c.951 0 1.73.777 1.73 1.727 0 .95-.822 1.727-1.774 1.727zm-5.665 0h-.043c-.951 0-1.73-.777-1.73-1.727 0-.95.779-1.727 1.73-1.727h.043c.952 0 1.73.777 1.73 1.727 0 .95-.778 1.727-1.73 1.727zm-5.665 0h-.043c-.951 0-1.73-.777-1.73-1.727 0-.95.779-1.727 1.73-1.727h.043c.952 0 1.73.777 1.73 1.727 0 .95-.778 1.727-1.73 1.727zm-5.665 0h-.043c-.952 0-1.73-.777-1.73-1.727 0-.95.778-1.727 1.73-1.727h.043c.952 0 1.73.777 1.73 1.727 0 .95-.778 1.727-1.73 1.727zm118.873 0c-.952 0-1.73-.777-1.73-1.727 0-.95.778-1.727 1.73-1.727.951 0 1.73.777 1.73 1.727 0 .95-.779 1.727-1.73 1.727zM1.73 125.098c-.95 0-1.729-.777-1.729-1.727 0-.95.778-1.727 1.73-1.727.951 0 1.73.777 1.73 1.727 0 .95-.779 1.727-1.73 1.727zm118.882-.001h-.043c-.951 0-1.73-.777-1.73-1.727 0-.95.779-1.727 1.73-1.727h.043c.952 0 1.73.777 1.73 1.727 0 .95-.778 1.727-1.73 1.727zm-5.665 0h-.043c-.952 0-1.73-.777-1.73-1.727 0-.95.778-1.727 1.73-1.727h.043c.951 0 1.73.777 1.73 1.727 0 .95-.735 1.727-1.73 1.727zm-5.622 0h-.043c-.951 0-1.73-.777-1.73-1.727 0-.95.779-1.727 1.73-1.727h.043c.952 0 1.73.777 1.73 1.727 0 .95-.778 1.727-1.73 1.727zm-5.665 0h-.043c-.952 0-1.73-.777-1.73-1.727 0-.95.778-1.727 1.73-1.727h.043c.951 0 1.73.777 1.73 1.727 0 .95-.779 1.727-1.73 1.727zm-5.665 0c-.952 0-1.73-.777-1.73-1.727 0-.95.735-1.727 1.73-1.727h.043c.952 0 1.73.777 1.73 1.727 0 .95-.822 1.727-1.773 1.727zm-5.665 0c-.952 0-1.73-.777-1.73-1.727 0-.95.735-1.727 1.73-1.727h.043c.951 0 1.73.777 1.73 1.727 0 .95-.822 1.727-1.773 1.727zm-5.665 0h-.044c-.951 0-1.73-.777-1.73-1.727 0-.95.779-1.727 1.73-1.727h.044c.951 0 1.73.777 1.73 1.727 0 .95-.779 1.727-1.73 1.727zm-5.666 0h-.043c-.951 0-1.73-.777-1.73-1.727 0-.95.779-1.727 1.73-1.727H81c.952 0 1.73.777 1.73 1.727 0 .95-.778 1.727-1.73 1.727zm-5.665 0h-.043c-.951 0-1.73-.777-1.73-1.727 0-.95.779-1.727 1.73-1.727h.043c.952 0 1.73.777 1.73 1.727 0 .95-.778 1.727-1.73 1.727zm-5.665 0h-.043c-.951 0-1.73-.777-1.73-1.727 0-.95.779-1.727 1.73-1.727h.043c.952 0 1.73.777 1.73 1.727 0 .95-.778 1.727-1.73 1.727zm-5.665 0c-.951 0-1.73-.777-1.73-1.727 0-.95.736-1.727 1.73-1.727h.043c.952 0 1.73.777 1.73 1.727 0 .95-.822 1.727-1.773 1.727zm-5.665 0c-.951 0-1.73-.777-1.73-1.727 0-.95.735-1.727 1.73-1.727h.043c.952 0 1.73.777 1.73 1.727 0 .95-.822 1.727-1.773 1.727zm-5.665 0h-.043c-.952 0-1.73-.777-1.73-1.727 0-.95.778-1.727 1.73-1.727h.043c.951 0 1.73.777 1.73 1.727 0 .95-.736 1.727-1.73 1.727zm-5.622 0h-.043c-.952 0-1.73-.777-1.73-1.727 0-.95.778-1.727 1.73-1.727h.043c.951 0 1.73.777 1.73 1.727 0 .95-.779 1.727-1.73 1.727zm-5.665 0h-.043c-.952 0-1.73-.777-1.73-1.727 0-.95.778-1.727 1.73-1.727h.043c.951 0 1.73.777 1.73 1.727 0 .95-.779 1.727-1.73 1.727zm-5.665 0h-.044c-.95 0-1.73-.777-1.73-1.727 0-.95.78-1.727 1.73-1.727h.044c.951 0 1.73.777 1.73 1.727 0 .95-.779 1.727-1.73 1.727zm-5.665 0c-.952 0-1.73-.777-1.73-1.727 0-.95.735-1.727 1.73-1.727h.043c.951 0 1.73.777 1.73 1.727 0 .95-.822 1.727-1.773 1.727zm-5.665 0c-.952 0-1.73-.777-1.73-1.727 0-.95.735-1.727 1.73-1.727h.043c.951 0 1.73.777 1.73 1.727 0 .95-.822 1.727-1.773 1.727zm-5.666 0h-.043c-.951 0-1.73-.777-1.73-1.727 0-.95.779-1.727 1.73-1.727h.043c.952 0 1.73.777 1.73 1.727 0 .95-.778 1.727-1.73 1.727zm-5.665 0h-.043c-.951 0-1.73-.777-1.73-1.727 0-.95.779-1.727 1.73-1.727h.043c.952 0 1.73.777 1.73 1.727 0 .95-.778 1.727-1.73 1.727zm-5.665 0h-.043c-.952 0-1.73-.777-1.73-1.727 0-.95.778-1.727 1.73-1.727h.043c.952 0 1.73.777 1.73 1.727 0 .95-.778 1.727-1.73 1.727zm118.874 0c-.952 0-1.73-.777-1.73-1.727 0-.95.778-1.727 1.73-1.727.951 0 1.73.777 1.73 1.727 0 .95-.779 1.727-1.73 1.727zM1.73 119.05c-.952 0-1.73-.777-1.73-1.727 0-.95.778-1.727 1.73-1.727.951 0 1.73.777 1.73 1.727 0 .95-.779 1.727-1.73 1.727zm118.881 0h-.043c-.951 0-1.73-.777-1.73-1.727 0-.95.779-1.727 1.73-1.727h.043c.952 0 1.73.777 1.73 1.727 0 .95-.778 1.727-1.73 1.727zm-5.665 0h-.043c-.952 0-1.73-.777-1.73-1.727 0-.95.778-1.727 1.73-1.727h.043c.951 0 1.73.777 1.73 1.727 0 .95-.735 1.727-1.73 1.727zm-5.622 0h-.043c-.951 0-1.73-.777-1.73-1.727 0-.95.779-1.727 1.73-1.727h.043c.952 0 1.73.777 1.73 1.727 0 .95-.778 1.727-1.73 1.727zm-5.665 0h-.043c-.952 0-1.73-.777-1.73-1.727 0-.95.778-1.727 1.73-1.727h.043c.951 0 1.73.777 1.73 1.727 0 .95-.779 1.727-1.73 1.727zm-5.665 0c-.951 0-1.73-.777-1.73-1.727 0-.95.735-1.727 1.73-1.727h.043c.952 0 1.73.777 1.73 1.727 0 .95-.822 1.727-1.773 1.727zm-5.665 0c-.952 0-1.73-.777-1.73-1.727 0-.95.735-1.727 1.73-1.727h.043c.951 0 1.73.777 1.73 1.727 0 .95-.822 1.727-1.773 1.727zm-5.665 0h-.044c-.95 0-1.73-.777-1.73-1.727 0-.95.78-1.727 1.73-1.727h.044c.951 0 1.73.777 1.73 1.727 0 .95-.779 1.727-1.73 1.727zm-5.665 0h-.044c-.951 0-1.73-.777-1.73-1.727 0-.95.779-1.727 1.73-1.727H81c.951 0 1.73.777 1.73 1.727 0 .95-.779 1.727-1.73 1.727zm-5.666 0h-.043c-.951 0-1.73-.777-1.73-1.727 0-.95.779-1.727 1.73-1.727h.043c.952 0 1.73.777 1.73 1.727 0 .95-.778 1.727-1.73 1.727zm-5.665 0h-.043c-.951 0-1.73-.777-1.73-1.727 0-.95.779-1.727 1.73-1.727h.043c.952 0 1.73.777 1.73 1.727 0 .95-.778 1.727-1.73 1.727zm-5.665 0c-.951 0-1.73-.777-1.73-1.727 0-.95.735-1.727 1.73-1.727h.043c.952 0 1.73.777 1.73 1.727 0 .95-.821 1.727-1.773 1.727zm-5.665 0c-.951 0-1.73-.777-1.73-1.727 0-.95.735-1.727 1.73-1.727h.043c.952 0 1.73.777 1.73 1.727 0 .95-.822 1.727-1.773 1.727zm-5.665 0h-.043c-.952 0-1.73-.777-1.73-1.727 0-.95.778-1.727 1.73-1.727h.043c.951 0 1.73.777 1.73 1.727 0 .95-.735 1.727-1.73 1.727zm-5.622 0h-.043c-.952 0-1.73-.777-1.73-1.727 0-.95.778-1.727 1.73-1.727h.043c.951 0 1.73.777 1.73 1.727 0 .95-.779 1.727-1.73 1.727zm-5.665 0h-.043c-.952 0-1.73-.777-1.73-1.727 0-.95.778-1.727 1.73-1.727h.043c.951 0 1.73.777 1.73 1.727 0 .95-.779 1.727-1.73 1.727zm-5.665 0h-.043c-.952 0-1.73-.777-1.73-1.727 0-.95.778-1.727 1.73-1.727h.043c.951 0 1.73.777 1.73 1.727 0 .95-.779 1.727-1.73 1.727zm-5.665 0c-.952 0-1.73-.777-1.73-1.727 0-.95.735-1.727 1.73-1.727h.043c.951 0 1.73.777 1.73 1.727 0 .95-.822 1.727-1.773 1.727zm-5.666 0c-.95 0-1.73-.777-1.73-1.727 0-.95.736-1.727 1.73-1.727h.044c.951 0 1.73.777 1.73 1.727 0 .95-.822 1.727-1.774 1.727zm-5.665 0h-.043c-.951 0-1.73-.777-1.73-1.727 0-.95.779-1.727 1.73-1.727h.043c.952 0 1.73.777 1.73 1.727 0 .95-.778 1.727-1.73 1.727zm-5.665 0h-.043c-.951 0-1.73-.777-1.73-1.727 0-.95.779-1.727 1.73-1.727h.043c.952 0 1.73.777 1.73 1.727 0 .95-.778 1.727-1.73 1.727zm-5.665 0h-.043c-.952 0-1.73-.777-1.73-1.727 0-.95.778-1.727 1.73-1.727h.043c.952 0 1.73.777 1.73 1.727 0 .95-.778 1.727-1.73 1.727zm118.873 0c-.952 0-1.73-.777-1.73-1.727 0-.95.778-1.727 1.73-1.727.951 0 1.73.777 1.73 1.727 0 .95-.779 1.727-1.73 1.727zM1.73 113.007c-.952 0-1.73-.777-1.73-1.727 0-.95.778-1.727 1.73-1.727.951 0 1.73.777 1.73 1.727 0 .95-.779 1.727-1.73 1.727zm118.881-.002h-.043c-.951 0-1.73-.777-1.73-1.727 0-.95.779-1.727 1.73-1.727h.043c.952 0 1.73.777 1.73 1.727 0 .95-.778 1.727-1.73 1.727zm-5.665 0h-.043c-.952 0-1.73-.777-1.73-1.727 0-.95.778-1.727 1.73-1.727h.043c.951 0 1.73.777 1.73 1.727 0 .95-.735 1.727-1.73 1.727zm-5.622 0h-.043c-.951 0-1.73-.777-1.73-1.727 0-.95.779-1.727 1.73-1.727h.043c.952 0 1.73.777 1.73 1.727 0 .95-.778 1.727-1.73 1.727zm-5.665 0h-.043c-.952 0-1.73-.777-1.73-1.727 0-.95.778-1.727 1.73-1.727h.043c.951 0 1.73.777 1.73 1.727 0 .95-.779 1.727-1.73 1.727zm-5.665 0c-.951 0-1.73-.777-1.73-1.727 0-.95.735-1.727 1.73-1.727h.043c.952 0 1.73.777 1.73 1.727 0 .95-.822 1.727-1.773 1.727zm-5.665 0c-.952 0-1.73-.777-1.73-1.727 0-.95.735-1.727 1.73-1.727h.043c.951 0 1.73.777 1.73 1.727 0 .95-.822 1.727-1.773 1.727zm-5.665 0h-.044c-.95 0-1.73-.777-1.73-1.727 0-.95.78-1.727 1.73-1.727h.044c.951 0 1.73.777 1.73 1.727 0 .95-.779 1.727-1.73 1.727zm-5.665 0h-.044c-.951 0-1.73-.777-1.73-1.727 0-.95.779-1.727 1.73-1.727H81c.951 0 1.73.777 1.73 1.727 0 .95-.779 1.727-1.73 1.727zm-5.666 0h-.043c-.951 0-1.73-.777-1.73-1.727 0-.95.779-1.727 1.73-1.727h.043c.952 0 1.73.777 1.73 1.727 0 .95-.778 1.727-1.73 1.727zm-5.665 0h-.043c-.951 0-1.73-.777-1.73-1.727 0-.95.779-1.727 1.73-1.727h.043c.952 0 1.73.777 1.73 1.727 0 .95-.778 1.727-1.73 1.727zm-5.665 0c-.951 0-1.73-.777-1.73-1.727 0-.95.735-1.727 1.73-1.727h.043c.952 0 1.73.777 1.73 1.727 0 .95-.821 1.727-1.773 1.727zm-5.665 0c-.951 0-1.73-.777-1.73-1.727 0-.95.735-1.727 1.73-1.727h.043c.952 0 1.73.777 1.73 1.727 0 .95-.822 1.727-1.773 1.727zm-5.665 0h-.043c-.952 0-1.73-.777-1.73-1.727 0-.95.778-1.727 1.73-1.727h.043c.951 0 1.73.777 1.73 1.727 0 .95-.735 1.727-1.73 1.727zm-5.622 0h-.043c-.952 0-1.73-.777-1.73-1.727 0-.95.778-1.727 1.73-1.727h.043c.951 0 1.73.777 1.73 1.727 0 .95-.779 1.727-1.73 1.727zm-5.665 0h-.043c-.952 0-1.73-.777-1.73-1.727 0-.95.778-1.727 1.73-1.727h.043c.951 0 1.73.777 1.73 1.727 0 .95-.779 1.727-1.73 1.727zm-5.665 0h-.043c-.952 0-1.73-.777-1.73-1.727 0-.95.778-1.727 1.73-1.727h.043c.951 0 1.73.777 1.73 1.727 0 .95-.779 1.727-1.73 1.727zm-5.665 0c-.952 0-1.73-.777-1.73-1.727 0-.95.735-1.727 1.73-1.727h.043c.951 0 1.73.777 1.73 1.727 0 .95-.822 1.727-1.773 1.727zm-5.666 0c-.95 0-1.73-.777-1.73-1.727 0-.95.736-1.727 1.73-1.727h.044c.951 0 1.73.777 1.73 1.727 0 .95-.822 1.727-1.774 1.727zm-5.665 0h-.043c-.951 0-1.73-.777-1.73-1.727 0-.95.779-1.727 1.73-1.727h.043c.952 0 1.73.777 1.73 1.727 0 .95-.778 1.727-1.73 1.727zm-5.665 0h-.043c-.951 0-1.73-.777-1.73-1.727 0-.95.779-1.727 1.73-1.727h.043c.952 0 1.73.777 1.73 1.727 0 .95-.778 1.727-1.73 1.727zm-5.665 0h-.043c-.952 0-1.73-.777-1.73-1.727 0-.95.778-1.727 1.73-1.727h.043c.952 0 1.73.777 1.73 1.727 0 .95-.778 1.727-1.73 1.727zm118.873 0c-.952 0-1.73-.777-1.73-1.727 0-.95.778-1.727 1.73-1.727.951 0 1.73.777 1.73 1.727 0 .95-.779 1.727-1.73 1.727zM1.73 106.963c-.952 0-1.73-.777-1.73-1.727 0-.95.778-1.727 1.73-1.727.951 0 1.73.777 1.73 1.727 0 .95-.779 1.727-1.73 1.727zm118.881-.001h-.043c-.951 0-1.73-.777-1.73-1.727 0-.95.779-1.727 1.73-1.727h.043c.952 0 1.73.777 1.73 1.727 0 .95-.778 1.727-1.73 1.727zm-5.665 0h-.043c-.952 0-1.73-.777-1.73-1.727 0-.95.778-1.727 1.73-1.727h.043c.951 0 1.73.777 1.73 1.727 0 .95-.735 1.727-1.73 1.727zm-5.622 0h-.043c-.951 0-1.73-.777-1.73-1.727 0-.95.779-1.727 1.73-1.727h.043c.952 0 1.73.777 1.73 1.727 0 .95-.778 1.727-1.73 1.727zm-5.665 0h-.043c-.952 0-1.73-.777-1.73-1.727 0-.95.778-1.727 1.73-1.727h.043c.951 0 1.73.777 1.73 1.727 0 .95-.779 1.727-1.73 1.727zm-5.665 0c-.951 0-1.73-.777-1.73-1.727 0-.95.735-1.727 1.73-1.727h.043c.952 0 1.73.777 1.73 1.727 0 .95-.822 1.727-1.773 1.727zm-5.665 0c-.952 0-1.73-.777-1.73-1.727 0-.95.735-1.727 1.73-1.727h.043c.951 0 1.73.777 1.73 1.727 0 .95-.822 1.727-1.773 1.727zm-5.665 0h-.044c-.95 0-1.73-.777-1.73-1.727 0-.95.78-1.727 1.73-1.727h.044c.951 0 1.73.777 1.73 1.727 0 .95-.779 1.727-1.73 1.727zm-5.665 0h-.044c-.951 0-1.73-.777-1.73-1.727 0-.95.779-1.727 1.73-1.727H81c.951 0 1.73.777 1.73 1.727 0 .95-.779 1.727-1.73 1.727zm-5.666 0h-.043c-.951 0-1.73-.777-1.73-1.727 0-.95.779-1.727 1.73-1.727h.043c.952 0 1.73.777 1.73 1.727 0 .95-.778 1.727-1.73 1.727zm-5.665 0h-.043c-.951 0-1.73-.777-1.73-1.727 0-.95.779-1.727 1.73-1.727h.043c.952 0 1.73.777 1.73 1.727 0 .95-.778 1.727-1.73 1.727zm-5.665 0c-.951 0-1.73-.777-1.73-1.727 0-.95.735-1.727 1.73-1.727h.043c.952 0 1.73.777 1.73 1.727 0 .95-.821 1.727-1.773 1.727zm-5.665 0c-.951 0-1.73-.777-1.73-1.727 0-.95.735-1.727 1.73-1.727h.043c.952 0 1.73.777 1.73 1.727 0 .95-.822 1.727-1.773 1.727zm-5.665 0h-.043c-.952 0-1.73-.777-1.73-1.727 0-.95.778-1.727 1.73-1.727h.043c.951 0 1.73.777 1.73 1.727 0 .95-.735 1.727-1.73 1.727zm-5.622 0h-.043c-.952 0-1.73-.777-1.73-1.727 0-.95.778-1.727 1.73-1.727h.043c.951 0 1.73.777 1.73 1.727 0 .95-.779 1.727-1.73 1.727zm-5.665 0h-.043c-.952 0-1.73-.777-1.73-1.727 0-.95.778-1.727 1.73-1.727h.043c.951 0 1.73.777 1.73 1.727 0 .95-.779 1.727-1.73 1.727zm-5.665 0h-.043c-.952 0-1.73-.777-1.73-1.727 0-.95.778-1.727 1.73-1.727h.043c.951 0 1.73.777 1.73 1.727 0 .95-.779 1.727-1.73 1.727zm-5.665 0c-.952 0-1.73-.777-1.73-1.727 0-.95.735-1.727 1.73-1.727h.043c.951 0 1.73.777 1.73 1.727 0 .95-.822 1.727-1.773 1.727zm-5.666 0c-.95 0-1.73-.777-1.73-1.727 0-.95.736-1.727 1.73-1.727h.044c.951 0 1.73.777 1.73 1.727 0 .95-.822 1.727-1.774 1.727zm-5.665 0h-.043c-.951 0-1.73-.777-1.73-1.727 0-.95.779-1.727 1.73-1.727h.043c.952 0 1.73.777 1.73 1.727 0 .95-.778 1.727-1.73 1.727zm-5.665 0h-.043c-.951 0-1.73-.777-1.73-1.727 0-.95.779-1.727 1.73-1.727h.043c.952 0 1.73.777 1.73 1.727 0 .95-.778 1.727-1.73 1.727zm-5.665 0h-.043c-.952 0-1.73-.777-1.73-1.727 0-.95.778-1.727 1.73-1.727h.043c.952 0 1.73.777 1.73 1.727 0 .95-.778 1.727-1.73 1.727zm118.874 0c-.952 0-1.73-.777-1.73-1.727 0-.95.778-1.727 1.73-1.727.951 0 1.73.777 1.73 1.727 0 .95-.779 1.727-1.73 1.727zM1.73 100.913c-.952 0-1.73-.777-1.73-1.727 0-.95.778-1.727 1.73-1.727.951 0 1.73.777 1.73 1.727 0 .95-.779 1.727-1.73 1.727zm118.881 0h-.043c-.951 0-1.73-.777-1.73-1.727 0-.95.779-1.727 1.73-1.727h.043c.952 0 1.73.777 1.73 1.727 0 .95-.778 1.727-1.73 1.727zm-5.665 0h-.043c-.952 0-1.73-.777-1.73-1.727 0-.95.778-1.727 1.73-1.727h.043c.951 0 1.73.777 1.73 1.727 0 .95-.735 1.727-1.73 1.727zm-5.622 0h-.043c-.951 0-1.73-.777-1.73-1.727 0-.95.779-1.727 1.73-1.727h.043c.952 0 1.73.777 1.73 1.727 0 .95-.778 1.727-1.73 1.727zm-5.665 0h-.043c-.952 0-1.73-.777-1.73-1.727 0-.95.778-1.727 1.73-1.727h.043c.951 0 1.73.777 1.73 1.727 0 .95-.779 1.727-1.73 1.727zm-5.665 0c-.951 0-1.73-.777-1.73-1.727 0-.95.735-1.727 1.73-1.727h.043c.952 0 1.73.777 1.73 1.727 0 .95-.822 1.727-1.773 1.727zm-5.665 0c-.952 0-1.73-.777-1.73-1.727 0-.95.735-1.727 1.73-1.727h.043c.951 0 1.73.777 1.73 1.727 0 .95-.822 1.727-1.773 1.727zm-5.665 0h-.044c-.95 0-1.73-.777-1.73-1.727 0-.95.78-1.727 1.73-1.727h.044c.951 0 1.73.777 1.73 1.727 0 .95-.779 1.727-1.73 1.727zm-5.665 0h-.044c-.951 0-1.73-.777-1.73-1.727 0-.95.779-1.727 1.73-1.727H81c.951 0 1.73.777 1.73 1.727 0 .95-.779 1.727-1.73 1.727zm-5.666 0h-.043c-.951 0-1.73-.777-1.73-1.727 0-.95.779-1.727 1.73-1.727h.043c.952 0 1.73.777 1.73 1.727 0 .95-.778 1.727-1.73 1.727zm-5.665 0h-.043c-.951 0-1.73-.777-1.73-1.727 0-.95.779-1.727 1.73-1.727h.043c.952 0 1.73.777 1.73 1.727 0 .95-.778 1.727-1.73 1.727zm-5.665 0c-.951 0-1.73-.777-1.73-1.727 0-.95.735-1.727 1.73-1.727h.043c.952 0 1.73.777 1.73 1.727 0 .95-.821 1.727-1.773 1.727zm-5.665 0c-.951 0-1.73-.777-1.73-1.727 0-.95.735-1.727 1.73-1.727h.043c.952 0 1.73.777 1.73 1.727 0 .95-.822 1.727-1.773 1.727zm-5.665 0h-.043c-.952 0-1.73-.777-1.73-1.727 0-.95.778-1.727 1.73-1.727h.043c.951 0 1.73.777 1.73 1.727 0 .95-.735 1.727-1.73 1.727zm-5.622 0h-.043c-.952 0-1.73-.777-1.73-1.727 0-.95.778-1.727 1.73-1.727h.043c.951 0 1.73.777 1.73 1.727 0 .95-.779 1.727-1.73 1.727zm-5.665 0h-.043c-.952 0-1.73-.777-1.73-1.727 0-.95.778-1.727 1.73-1.727h.043c.951 0 1.73.777 1.73 1.727 0 .95-.779 1.727-1.73 1.727zm-5.665 0h-.043c-.952 0-1.73-.777-1.73-1.727 0-.95.778-1.727 1.73-1.727h.043c.951 0 1.73.777 1.73 1.727 0 .95-.779 1.727-1.73 1.727zm-5.665 0c-.952 0-1.73-.777-1.73-1.727 0-.95.735-1.727 1.73-1.727h.043c.951 0 1.73.777 1.73 1.727 0 .95-.822 1.727-1.773 1.727zm-5.666 0c-.95 0-1.73-.777-1.73-1.727 0-.95.736-1.727 1.73-1.727h.044c.951 0 1.73.777 1.73 1.727 0 .95-.822 1.727-1.774 1.727zm-5.665 0h-.043c-.951 0-1.73-.777-1.73-1.727 0-.95.779-1.727 1.73-1.727h.043c.952 0 1.73.777 1.73 1.727 0 .95-.778 1.727-1.73 1.727zm-5.665 0h-.043c-.951 0-1.73-.777-1.73-1.727 0-.95.779-1.727 1.73-1.727h.043c.952 0 1.73.777 1.73 1.727 0 .95-.778 1.727-1.73 1.727zm-5.665 0h-.043c-.952 0-1.73-.777-1.73-1.727 0-.95.778-1.727 1.73-1.727h.043c.952 0 1.73.777 1.73 1.727 0 .95-.778 1.727-1.73 1.727zm118.873 0c-.952 0-1.73-.777-1.73-1.727 0-.95.778-1.727 1.73-1.727.951 0 1.73.777 1.73 1.727 0 .95-.779 1.727-1.73 1.727zM1.73 94.87c-.952 0-1.73-.777-1.73-1.727 0-.95.778-1.727 1.73-1.727.951 0 1.73.777 1.73 1.727 0 .95-.779 1.728-1.73 1.728zm118.881 0h-.043c-.951 0-1.73-.778-1.73-1.728s.779-1.727 1.73-1.727h.043c.952 0 1.73.777 1.73 1.727 0 .95-.778 1.728-1.73 1.728zm-5.665 0h-.043c-.952 0-1.73-.778-1.73-1.728s.778-1.727 1.73-1.727h.043c.951 0 1.73.777 1.73 1.727 0 .95-.735 1.728-1.73 1.728zm-5.622 0h-.043c-.951 0-1.73-.778-1.73-1.728s.779-1.727 1.73-1.727h.043c.952 0 1.73.777 1.73 1.727 0 .95-.778 1.728-1.73 1.728zm-5.665 0h-.043c-.952 0-1.73-.778-1.73-1.728s.778-1.727 1.73-1.727h.043c.951 0 1.73.777 1.73 1.727 0 .95-.779 1.728-1.73 1.728zm-5.665 0c-.951 0-1.73-.778-1.73-1.728s.735-1.727 1.73-1.727h.043c.952 0 1.73.777 1.73 1.727 0 .95-.822 1.728-1.773 1.728zm-5.665 0c-.952 0-1.73-.778-1.73-1.728s.735-1.727 1.73-1.727h.043c.951 0 1.73.777 1.73 1.727 0 .95-.822 1.728-1.773 1.728zm-5.665 0h-.044c-.95 0-1.73-.778-1.73-1.728s.78-1.727 1.73-1.727h.044c.951 0 1.73.777 1.73 1.727 0 .95-.779 1.728-1.73 1.728zm-5.665 0h-.044c-.951 0-1.73-.778-1.73-1.728s.779-1.727 1.73-1.727H81c.951 0 1.73.777 1.73 1.727 0 .95-.779 1.728-1.73 1.728zm-5.666 0h-.043c-.951 0-1.73-.778-1.73-1.728s.779-1.727 1.73-1.727h.043c.952 0 1.73.777 1.73 1.727 0 .95-.778 1.728-1.73 1.728zm-5.665 0h-.043c-.951 0-1.73-.778-1.73-1.728s.779-1.727 1.73-1.727h.043c.952 0 1.73.777 1.73 1.727 0 .95-.778 1.728-1.73 1.728zm-5.665 0c-.951 0-1.73-.778-1.73-1.728s.735-1.727 1.73-1.727h.043c.952 0 1.73.777 1.73 1.727 0 .95-.821 1.728-1.773 1.728zm-5.665 0c-.951 0-1.73-.778-1.73-1.728s.735-1.727 1.73-1.727h.043c.952 0 1.73.777 1.73 1.727 0 .95-.822 1.728-1.773 1.728zm-5.665 0h-.043c-.952 0-1.73-.778-1.73-1.728s.778-1.727 1.73-1.727h.043c.951 0 1.73.777 1.73 1.727 0 .95-.735 1.728-1.73 1.728zm-5.622 0h-.043c-.952 0-1.73-.778-1.73-1.728s.778-1.727 1.73-1.727h.043c.951 0 1.73.777 1.73 1.727 0 .95-.779 1.728-1.73 1.728zm-5.665 0h-.043c-.952 0-1.73-.778-1.73-1.728s.778-1.727 1.73-1.727h.043c.951 0 1.73.777 1.73 1.727 0 .95-.779 1.728-1.73 1.728zm-5.665 0h-.043c-.952 0-1.73-.778-1.73-1.728s.778-1.727 1.73-1.727h.043c.951 0 1.73.777 1.73 1.727 0 .95-.779 1.728-1.73 1.728zm-5.665 0c-.952 0-1.73-.778-1.73-1.728s.735-1.727 1.73-1.727h.043c.951 0 1.73.777 1.73 1.727 0 .95-.822 1.728-1.773 1.728zm-5.666 0c-.95 0-1.73-.778-1.73-1.728s.736-1.727 1.73-1.727h.044c.951 0 1.73.777 1.73 1.727 0 .95-.822 1.728-1.774 1.728zm-5.665 0h-.043c-.951 0-1.73-.778-1.73-1.728s.779-1.727 1.73-1.727h.043c.952 0 1.73.777 1.73 1.727 0 .95-.778 1.728-1.73 1.728zm-5.665 0h-.043c-.951 0-1.73-.778-1.73-1.728s.779-1.727 1.73-1.727h.043c.952 0 1.73.777 1.73 1.727 0 .95-.778 1.728-1.73 1.728zm-5.665 0h-.043c-.952 0-1.73-.778-1.73-1.728s.778-1.727 1.73-1.727h.043c.952 0 1.73.777 1.73 1.727 0 .95-.778 1.728-1.73 1.728zm118.873 0c-.952 0-1.73-.777-1.73-1.727 0-.95.778-1.727 1.73-1.727.951 0 1.73.777 1.73 1.727 0 .95-.779 1.728-1.73 1.728zM1.73 88.826c-.95 0-1.729-.778-1.729-1.728s.778-1.727 1.73-1.727c.951 0 1.73.777 1.73 1.727 0 .95-.779 1.728-1.73 1.728zm118.882-.002h-.043c-.951 0-1.73-.778-1.73-1.728s.779-1.727 1.73-1.727h.043c.952 0 1.73.777 1.73 1.727 0 .95-.778 1.728-1.73 1.728zm-5.665 0h-.043c-.952 0-1.73-.778-1.73-1.728s.778-1.727 1.73-1.727h.043c.951 0 1.73.777 1.73 1.727 0 .95-.735 1.728-1.73 1.728zm-5.622 0h-.043c-.951 0-1.73-.778-1.73-1.728s.779-1.727 1.73-1.727h.043c.952 0 1.73.777 1.73 1.727 0 .95-.778 1.728-1.73 1.728zm-5.665 0h-.043c-.952 0-1.73-.778-1.73-1.728s.778-1.727 1.73-1.727h.043c.951 0 1.73.777 1.73 1.727 0 .95-.779 1.728-1.73 1.728zm-5.665 0c-.952 0-1.73-.778-1.73-1.728s.735-1.727 1.73-1.727h.043c.952 0 1.73.777 1.73 1.727 0 .95-.822 1.728-1.773 1.728zm-5.665 0c-.952 0-1.73-.778-1.73-1.728s.735-1.727 1.73-1.727h.043c.951 0 1.73.777 1.73 1.727 0 .95-.822 1.728-1.773 1.728zm-5.665 0h-.044c-.951 0-1.73-.778-1.73-1.728s.779-1.727 1.73-1.727h.044c.951 0 1.73.777 1.73 1.727 0 .95-.779 1.728-1.73 1.728zm-5.666 0h-.043c-.951 0-1.73-.778-1.73-1.728s.779-1.727 1.73-1.727H81c.952 0 1.73.777 1.73 1.727 0 .95-.778 1.728-1.73 1.728zm-5.665 0h-.043c-.951 0-1.73-.778-1.73-1.728s.779-1.727 1.73-1.727h.043c.952 0 1.73.777 1.73 1.727 0 .95-.778 1.728-1.73 1.728zm-5.665 0h-.043c-.951 0-1.73-.778-1.73-1.728s.779-1.727 1.73-1.727h.043c.952 0 1.73.777 1.73 1.727 0 .95-.778 1.728-1.73 1.728zm-5.665 0c-.951 0-1.73-.778-1.73-1.728s.736-1.727 1.73-1.727h.043c.952 0 1.73.777 1.73 1.727 0 .95-.822 1.728-1.773 1.728zm-5.665 0c-.951 0-1.73-.778-1.73-1.728s.735-1.727 1.73-1.727h.043c.952 0 1.73.777 1.73 1.727 0 .95-.822 1.728-1.773 1.728zm-5.665 0h-.043c-.952 0-1.73-.778-1.73-1.728s.778-1.727 1.73-1.727h.043c.951 0 1.73.777 1.73 1.727 0 .95-.736 1.728-1.73 1.728zm-5.622 0h-.043c-.952 0-1.73-.778-1.73-1.728s.778-1.727 1.73-1.727h.043c.951 0 1.73.777 1.73 1.727 0 .95-.779 1.728-1.73 1.728zm-5.665 0h-.043c-.952 0-1.73-.778-1.73-1.728s.778-1.727 1.73-1.727h.043c.951 0 1.73.777 1.73 1.727 0 .95-.779 1.728-1.73 1.728zm-5.665 0h-.044c-.95 0-1.73-.778-1.73-1.728s.78-1.727 1.73-1.727h.044c.951 0 1.73.777 1.73 1.727 0 .95-.779 1.728-1.73 1.728zm-5.665 0c-.952 0-1.73-.778-1.73-1.728s.735-1.727 1.73-1.727h.043c.951 0 1.73.777 1.73 1.727 0 .95-.822 1.728-1.773 1.728zm-5.665 0c-.952 0-1.73-.778-1.73-1.728s.735-1.727 1.73-1.727h.043c.951 0 1.73.777 1.73 1.727 0 .95-.822 1.728-1.773 1.728zm-5.666 0h-.043c-.951 0-1.73-.778-1.73-1.728s.779-1.727 1.73-1.727h.043c.952 0 1.73.777 1.73 1.727 0 .95-.778 1.728-1.73 1.728zm-5.665 0h-.043c-.951 0-1.73-.778-1.73-1.728s.779-1.727 1.73-1.727h.043c.952 0 1.73.777 1.73 1.727 0 .95-.778 1.728-1.73 1.728zm-5.665 0h-.043c-.952 0-1.73-.778-1.73-1.728s.778-1.727 1.73-1.727h.043c.952 0 1.73.777 1.73 1.727 0 .95-.778 1.728-1.73 1.728zm118.874 0c-.952 0-1.73-.778-1.73-1.728s.778-1.727 1.73-1.727c.951 0 1.73.777 1.73 1.727 0 .95-.779 1.728-1.73 1.728zM1.73 82.78c-.952 0-1.73-.777-1.73-1.727 0-.95.778-1.727 1.73-1.727.951 0 1.73.777 1.73 1.727 0 .95-.779 1.728-1.73 1.728zm118.881 0h-.043c-.951 0-1.73-.778-1.73-1.728s.779-1.727 1.73-1.727h.043c.952 0 1.73.778 1.73 1.727 0 .95-.778 1.728-1.73 1.728zm-5.665 0h-.043c-.952 0-1.73-.778-1.73-1.728s.778-1.727 1.73-1.727h.043c.951 0 1.73.778 1.73 1.727 0 .95-.735 1.728-1.73 1.728zm-5.622 0h-.043c-.951 0-1.73-.778-1.73-1.728s.779-1.727 1.73-1.727h.043c.952 0 1.73.778 1.73 1.727 0 .95-.778 1.728-1.73 1.728zm-5.665 0h-.043c-.952 0-1.73-.778-1.73-1.728s.778-1.727 1.73-1.727h.043c.951 0 1.73.778 1.73 1.727 0 .95-.779 1.728-1.73 1.728zm-5.665 0c-.951 0-1.73-.778-1.73-1.728s.735-1.727 1.73-1.727h.043c.952 0 1.73.778 1.73 1.727 0 .95-.822 1.728-1.773 1.728zm-5.665 0c-.952 0-1.73-.778-1.73-1.728s.735-1.727 1.73-1.727h.043c.951 0 1.73.778 1.73 1.727 0 .95-.822 1.728-1.773 1.728zm-5.665 0h-.044c-.95 0-1.73-.778-1.73-1.728s.78-1.727 1.73-1.727h.044c.951 0 1.73.778 1.73 1.727 0 .95-.779 1.728-1.73 1.728zm-5.665 0h-.044c-.951 0-1.73-.778-1.73-1.728s.779-1.727 1.73-1.727H81c.951 0 1.73.778 1.73 1.727 0 .95-.779 1.728-1.73 1.728zm-5.666 0h-.043c-.951 0-1.73-.778-1.73-1.728s.779-1.727 1.73-1.727h.043c.952 0 1.73.778 1.73 1.727 0 .95-.778 1.728-1.73 1.728zm-5.665 0h-.043c-.951 0-1.73-.778-1.73-1.728s.779-1.727 1.73-1.727h.043c.952 0 1.73.778 1.73 1.727 0 .95-.778 1.728-1.73 1.728zm-5.665 0c-.951 0-1.73-.778-1.73-1.728s.735-1.727 1.73-1.727h.043c.952 0 1.73.778 1.73 1.727 0 .95-.821 1.728-1.773 1.728zm-5.665 0c-.951 0-1.73-.778-1.73-1.728s.735-1.727 1.73-1.727h.043c.952 0 1.73.778 1.73 1.727 0 .95-.822 1.728-1.773 1.728zm-5.665 0h-.043c-.952 0-1.73-.778-1.73-1.728s.778-1.727 1.73-1.727h.043c.951 0 1.73.778 1.73 1.727 0 .95-.735 1.728-1.73 1.728zm-5.622 0h-.043c-.952 0-1.73-.778-1.73-1.728s.778-1.727 1.73-1.727h.043c.951 0 1.73.778 1.73 1.727 0 .95-.779 1.728-1.73 1.728zm-5.665 0h-.043c-.952 0-1.73-.778-1.73-1.728s.778-1.727 1.73-1.727h.043c.951 0 1.73.778 1.73 1.727 0 .95-.779 1.728-1.73 1.728zm-5.665 0h-.043c-.952 0-1.73-.778-1.73-1.728s.778-1.727 1.73-1.727h.043c.951 0 1.73.778 1.73 1.727 0 .95-.779 1.728-1.73 1.728zm-5.665 0c-.952 0-1.73-.778-1.73-1.728s.735-1.727 1.73-1.727h.043c.951 0 1.73.778 1.73 1.727 0 .95-.822 1.728-1.773 1.728zm-5.666 0c-.95 0-1.73-.778-1.73-1.728s.736-1.727 1.73-1.727h.044c.951 0 1.73.778 1.73 1.727 0 .95-.822 1.728-1.774 1.728zm-5.665 0h-.043c-.951 0-1.73-.778-1.73-1.728s.779-1.727 1.73-1.727h.043c.952 0 1.73.778 1.73 1.727 0 .95-.778 1.728-1.73 1.728zm-5.665 0h-.043c-.951 0-1.73-.778-1.73-1.728s.779-1.727 1.73-1.727h.043c.952 0 1.73.778 1.73 1.727 0 .95-.778 1.728-1.73 1.728zm-5.665 0h-.043c-.952 0-1.73-.778-1.73-1.728s.778-1.727 1.73-1.727h.043c.952 0 1.73.778 1.73 1.727 0 .95-.778 1.728-1.73 1.728zm118.873 0c-.952 0-1.73-.778-1.73-1.728s.778-1.727 1.73-1.727c.951 0 1.73.778 1.73 1.727 0 .95-.779 1.728-1.73 1.728zM1.73 76.736c-.952 0-1.73-.778-1.73-1.728s.778-1.727 1.73-1.727c.951 0 1.73.777 1.73 1.727 0 .95-.779 1.728-1.73 1.728zm118.881 0h-.043c-.951 0-1.73-.778-1.73-1.728s.779-1.727 1.73-1.727h.043c.952 0 1.73.777 1.73 1.727 0 .95-.778 1.728-1.73 1.728zm-5.665 0h-.043c-.952 0-1.73-.778-1.73-1.728s.778-1.727 1.73-1.727h.043c.951 0 1.73.777 1.73 1.727 0 .95-.735 1.728-1.73 1.728zm-5.622 0h-.043c-.951 0-1.73-.778-1.73-1.728s.779-1.727 1.73-1.727h.043c.952 0 1.73.777 1.73 1.727 0 .95-.778 1.728-1.73 1.728zm-5.665 0h-.043c-.952 0-1.73-.778-1.73-1.728s.778-1.727 1.73-1.727h.043c.951 0 1.73.777 1.73 1.727 0 .95-.779 1.728-1.73 1.728zm-5.665 0c-.951 0-1.73-.778-1.73-1.728s.735-1.727 1.73-1.727h.043c.952 0 1.73.777 1.73 1.727 0 .95-.822 1.728-1.773 1.728zm-5.665 0c-.952 0-1.73-.778-1.73-1.728s.735-1.727 1.73-1.727h.043c.951 0 1.73.777 1.73 1.727 0 .95-.822 1.728-1.773 1.728zm-5.665 0h-.044c-.95 0-1.73-.778-1.73-1.728s.78-1.727 1.73-1.727h.044c.951 0 1.73.777 1.73 1.727 0 .95-.779 1.728-1.73 1.728zm-5.665 0h-.044c-.951 0-1.73-.778-1.73-1.728s.779-1.727 1.73-1.727H81c.951 0 1.73.777 1.73 1.727 0 .95-.779 1.728-1.73 1.728zm-5.666 0h-.043c-.951 0-1.73-.778-1.73-1.728s.779-1.727 1.73-1.727h.043c.952 0 1.73.777 1.73 1.727 0 .95-.778 1.728-1.73 1.728zm-5.665 0h-.043c-.951 0-1.73-.778-1.73-1.728s.779-1.727 1.73-1.727h.043c.952 0 1.73.777 1.73 1.727 0 .95-.778 1.728-1.73 1.728zm-5.665 0c-.951 0-1.73-.778-1.73-1.728s.735-1.727 1.73-1.727h.043c.952 0 1.73.777 1.73 1.727 0 .95-.821 1.728-1.773 1.728zm-5.665 0c-.951 0-1.73-.778-1.73-1.728s.735-1.727 1.73-1.727h.043c.952 0 1.73.777 1.73 1.727 0 .95-.822 1.728-1.773 1.728zm-5.665 0h-.043c-.952 0-1.73-.778-1.73-1.728s.778-1.727 1.73-1.727h.043c.951 0 1.73.777 1.73 1.727 0 .95-.735 1.728-1.73 1.728zm-5.622 0h-.043c-.952 0-1.73-.778-1.73-1.728s.778-1.727 1.73-1.727h.043c.951 0 1.73.777 1.73 1.727 0 .95-.779 1.728-1.73 1.728zm-5.665 0h-.043c-.952 0-1.73-.778-1.73-1.728s.778-1.727 1.73-1.727h.043c.951 0 1.73.777 1.73 1.727 0 .95-.779 1.728-1.73 1.728zm-5.665 0h-.043c-.952 0-1.73-.778-1.73-1.728s.778-1.727 1.73-1.727h.043c.951 0 1.73.777 1.73 1.727 0 .95-.779 1.728-1.73 1.728zm-5.665 0c-.952 0-1.73-.778-1.73-1.728s.735-1.727 1.73-1.727h.043c.951 0 1.73.777 1.73 1.727 0 .95-.822 1.728-1.773 1.728zm-5.666 0c-.95 0-1.73-.778-1.73-1.728s.736-1.727 1.73-1.727h.044c.951 0 1.73.777 1.73 1.727 0 .95-.822 1.728-1.774 1.728zm-5.665 0h-.043c-.951 0-1.73-.778-1.73-1.728s.779-1.727 1.73-1.727h.043c.952 0 1.73.777 1.73 1.727 0 .95-.778 1.728-1.73 1.728zm-5.665 0h-.043c-.951 0-1.73-.778-1.73-1.728s.779-1.727 1.73-1.727h.043c.952 0 1.73.777 1.73 1.727 0 .95-.778 1.728-1.73 1.728zm-5.665 0h-.043c-.952 0-1.73-.778-1.73-1.728s.778-1.727 1.73-1.727h.043c.952 0 1.73.777 1.73 1.727 0 .95-.778 1.728-1.73 1.728zm118.873 0c-.952 0-1.73-.778-1.73-1.728s.778-1.727 1.73-1.727c.951 0 1.73.777 1.73 1.727 0 .95-.779 1.728-1.73 1.728zM1.73 70.689c-.952 0-1.73-.777-1.73-1.727 0-.95.778-1.728 1.73-1.728.951 0 1.73.778 1.73 1.728s-.779 1.727-1.73 1.727zm118.881 0h-.043c-.951 0-1.73-.777-1.73-1.727 0-.95.779-1.728 1.73-1.728h.043c.952 0 1.73.778 1.73 1.728s-.778 1.727-1.73 1.727zm-5.665 0h-.043c-.952 0-1.73-.777-1.73-1.727 0-.95.778-1.728 1.73-1.728h.043c.951 0 1.73.778 1.73 1.728s-.735 1.727-1.73 1.727zm-5.622 0h-.043c-.951 0-1.73-.777-1.73-1.727 0-.95.779-1.728 1.73-1.728h.043c.952 0 1.73.778 1.73 1.728s-.778 1.727-1.73 1.727zm-5.665 0h-.043c-.952 0-1.73-.777-1.73-1.727 0-.95.778-1.728 1.73-1.728h.043c.951 0 1.73.778 1.73 1.728s-.779 1.727-1.73 1.727zm-5.665 0c-.951 0-1.73-.777-1.73-1.727 0-.95.735-1.728 1.73-1.728h.043c.952 0 1.73.778 1.73 1.728s-.822 1.727-1.773 1.727zm-5.665 0c-.952 0-1.73-.777-1.73-1.727 0-.95.735-1.728 1.73-1.728h.043c.951 0 1.73.778 1.73 1.728s-.822 1.727-1.773 1.727zm-5.665 0h-.044c-.95 0-1.73-.777-1.73-1.727 0-.95.78-1.728 1.73-1.728h.044c.951 0 1.73.778 1.73 1.728s-.779 1.727-1.73 1.727zm-5.665 0h-.044c-.951 0-1.73-.777-1.73-1.727 0-.95.779-1.728 1.73-1.728H81c.951 0 1.73.778 1.73 1.728s-.779 1.727-1.73 1.727zm-5.666 0h-.043c-.951 0-1.73-.777-1.73-1.727 0-.95.779-1.728 1.73-1.728h.043c.952 0 1.73.778 1.73 1.728s-.778 1.727-1.73 1.727zm-5.665 0h-.043c-.951 0-1.73-.777-1.73-1.727 0-.95.779-1.728 1.73-1.728h.043c.952 0 1.73.778 1.73 1.728s-.778 1.727-1.73 1.727zm-5.665 0c-.951 0-1.73-.777-1.73-1.727 0-.95.735-1.728 1.73-1.728h.043c.952 0 1.73.778 1.73 1.728s-.821 1.727-1.773 1.727zm-5.665 0c-.951 0-1.73-.777-1.73-1.727 0-.95.735-1.728 1.73-1.728h.043c.952 0 1.73.778 1.73 1.728s-.822 1.727-1.773 1.727zm-5.665 0h-.043c-.952 0-1.73-.777-1.73-1.727 0-.95.778-1.728 1.73-1.728h.043c.951 0 1.73.778 1.73 1.728s-.735 1.727-1.73 1.727zm-5.622 0h-.043c-.952 0-1.73-.777-1.73-1.727 0-.95.778-1.728 1.73-1.728h.043c.951 0 1.73.778 1.73 1.728s-.779 1.727-1.73 1.727zm-5.665 0h-.043c-.952 0-1.73-.777-1.73-1.727 0-.95.778-1.728 1.73-1.728h.043c.951 0 1.73.778 1.73 1.728s-.779 1.727-1.73 1.727zm-5.665 0h-.043c-.952 0-1.73-.777-1.73-1.727 0-.95.778-1.728 1.73-1.728h.043c.951 0 1.73.778 1.73 1.728s-.779 1.727-1.73 1.727zm-5.665 0c-.952 0-1.73-.777-1.73-1.727 0-.95.735-1.728 1.73-1.728h.043c.951 0 1.73.778 1.73 1.728s-.822 1.727-1.773 1.727zm-5.666 0c-.95 0-1.73-.777-1.73-1.727 0-.95.736-1.728 1.73-1.728h.044c.951 0 1.73.778 1.73 1.728s-.822 1.727-1.774 1.727zm-5.665 0h-.043c-.951 0-1.73-.777-1.73-1.727 0-.95.779-1.728 1.73-1.728h.043c.952 0 1.73.778 1.73 1.728s-.778 1.727-1.73 1.727zm-5.665 0h-.043c-.951 0-1.73-.777-1.73-1.727 0-.95.779-1.728 1.73-1.728h.043c.952 0 1.73.778 1.73 1.728s-.778 1.727-1.73 1.727zm-5.665 0h-.043c-.952 0-1.73-.777-1.73-1.727 0-.95.778-1.728 1.73-1.728h.043c.952 0 1.73.778 1.73 1.728s-.778 1.727-1.73 1.727zm118.874 0c-.952 0-1.73-.777-1.73-1.727 0-.95.778-1.728 1.73-1.728.951 0 1.73.778 1.73 1.728s-.779 1.727-1.73 1.727zM1.73 64.645c-.952 0-1.73-.777-1.73-1.727 0-.95.778-1.728 1.73-1.728.951 0 1.73.778 1.73 1.728s-.779 1.727-1.73 1.727zm118.881 0h-.043c-.951 0-1.73-.777-1.73-1.727 0-.95.779-1.728 1.73-1.728h.043c.952 0 1.73.778 1.73 1.728s-.778 1.727-1.73 1.727zm-5.665 0h-.043c-.952 0-1.73-.777-1.73-1.727 0-.95.778-1.728 1.73-1.728h.043c.951 0 1.73.778 1.73 1.728s-.735 1.727-1.73 1.727zm-5.622 0h-.043c-.951 0-1.73-.777-1.73-1.727 0-.95.779-1.728 1.73-1.728h.043c.952 0 1.73.778 1.73 1.728s-.778 1.727-1.73 1.727zm-5.665 0h-.043c-.952 0-1.73-.777-1.73-1.727 0-.95.778-1.728 1.73-1.728h.043c.951 0 1.73.778 1.73 1.728s-.779 1.727-1.73 1.727zm-5.665 0c-.951 0-1.73-.777-1.73-1.727 0-.95.735-1.728 1.73-1.728h.043c.952 0 1.73.778 1.73 1.728s-.822 1.727-1.773 1.727zm-5.665 0c-.952 0-1.73-.777-1.73-1.727 0-.95.735-1.728 1.73-1.728h.043c.951 0 1.73.778 1.73 1.728s-.822 1.727-1.773 1.727zm-5.665 0h-.044c-.95 0-1.73-.777-1.73-1.727 0-.95.78-1.728 1.73-1.728h.044c.951 0 1.73.778 1.73 1.728s-.779 1.727-1.73 1.727zm-5.665 0h-.044c-.951 0-1.73-.777-1.73-1.727 0-.95.779-1.728 1.73-1.728H81c.951 0 1.73.778 1.73 1.728s-.779 1.727-1.73 1.727zm-5.666 0h-.043c-.951 0-1.73-.777-1.73-1.727 0-.95.779-1.728 1.73-1.728h.043c.952 0 1.73.778 1.73 1.728s-.778 1.727-1.73 1.727zm-5.665 0h-.043c-.951 0-1.73-.777-1.73-1.727 0-.95.779-1.728 1.73-1.728h.043c.952 0 1.73.778 1.73 1.728s-.778 1.727-1.73 1.727zm-5.665 0c-.951 0-1.73-.777-1.73-1.727 0-.95.735-1.728 1.73-1.728h.043c.952 0 1.73.778 1.73 1.728s-.821 1.727-1.773 1.727zm-5.665 0c-.951 0-1.73-.777-1.73-1.727 0-.95.735-1.728 1.73-1.728h.043c.952 0 1.73.778 1.73 1.728s-.822 1.727-1.773 1.727zm-5.665 0h-.043c-.952 0-1.73-.777-1.73-1.727 0-.95.778-1.728 1.73-1.728h.043c.951 0 1.73.778 1.73 1.728s-.735 1.727-1.73 1.727zm-5.622 0h-.043c-.952 0-1.73-.777-1.73-1.727 0-.95.778-1.728 1.73-1.728h.043c.951 0 1.73.778 1.73 1.728s-.779 1.727-1.73 1.727zm-5.665 0h-.043c-.952 0-1.73-.777-1.73-1.727 0-.95.778-1.728 1.73-1.728h.043c.951 0 1.73.778 1.73 1.728s-.779 1.727-1.73 1.727zm-5.665 0h-.043c-.952 0-1.73-.777-1.73-1.727 0-.95.778-1.728 1.73-1.728h.043c.951 0 1.73.778 1.73 1.728s-.779 1.727-1.73 1.727zm-5.665 0c-.952 0-1.73-.777-1.73-1.727 0-.95.735-1.728 1.73-1.728h.043c.951 0 1.73.778 1.73 1.728s-.822 1.727-1.773 1.727zm-5.666 0c-.95 0-1.73-.777-1.73-1.727 0-.95.736-1.728 1.73-1.728h.044c.951 0 1.73.778 1.73 1.728s-.822 1.727-1.774 1.727zm-5.665 0h-.043c-.951 0-1.73-.777-1.73-1.727 0-.95.779-1.728 1.73-1.728h.043c.952 0 1.73.778 1.73 1.728s-.778 1.727-1.73 1.727zm-5.665 0h-.043c-.951 0-1.73-.777-1.73-1.727 0-.95.779-1.728 1.73-1.728h.043c.952 0 1.73.778 1.73 1.728s-.778 1.727-1.73 1.727zm-5.665 0h-.043c-.952 0-1.73-.777-1.73-1.727 0-.95.778-1.728 1.73-1.728h.043c.952 0 1.73.778 1.73 1.728s-.778 1.727-1.73 1.727zm118.873 0c-.952 0-1.73-.777-1.73-1.727 0-.95.778-1.728 1.73-1.728.951 0 1.73.778 1.73 1.728s-.779 1.727-1.73 1.727zM1.73 58.6c-.95 0-1.729-.776-1.729-1.726s.778-1.727 1.73-1.727c.951 0 1.73.777 1.73 1.727 0 .95-.779 1.727-1.73 1.727zm118.882.002h-.043c-.951 0-1.73-.777-1.73-1.727 0-.95.779-1.727 1.73-1.727h.043c.952 0 1.73.777 1.73 1.727 0 .95-.778 1.727-1.73 1.727zm-5.665 0h-.043c-.952 0-1.73-.777-1.73-1.727 0-.95.778-1.727 1.73-1.727h.043c.951 0 1.73.777 1.73 1.727 0 .95-.735 1.727-1.73 1.727zm-5.622 0h-.043c-.951 0-1.73-.777-1.73-1.727 0-.95.779-1.727 1.73-1.727h.043c.952 0 1.73.777 1.73 1.727 0 .95-.778 1.727-1.73 1.727zm-5.665 0h-.043c-.952 0-1.73-.777-1.73-1.727 0-.95.778-1.727 1.73-1.727h.043c.951 0 1.73.777 1.73 1.727 0 .95-.779 1.727-1.73 1.727zm-5.665 0c-.952 0-1.73-.777-1.73-1.727 0-.95.735-1.727 1.73-1.727h.043c.952 0 1.73.777 1.73 1.727 0 .95-.822 1.727-1.773 1.727zm-5.665 0c-.952 0-1.73-.777-1.73-1.727 0-.95.735-1.727 1.73-1.727h.043c.951 0 1.73.777 1.73 1.727 0 .95-.822 1.727-1.773 1.727zm-5.665 0h-.044c-.951 0-1.73-.777-1.73-1.727 0-.95.779-1.727 1.73-1.727h.044c.951 0 1.73.777 1.73 1.727 0 .95-.779 1.727-1.73 1.727zm-5.666 0h-.043c-.951 0-1.73-.777-1.73-1.727 0-.95.779-1.727 1.73-1.727H81c.952 0 1.73.777 1.73 1.727 0 .95-.778 1.727-1.73 1.727zm-5.665 0h-.043c-.951 0-1.73-.777-1.73-1.727 0-.95.779-1.727 1.73-1.727h.043c.952 0 1.73.777 1.73 1.727 0 .95-.778 1.727-1.73 1.727zm-5.665 0h-.043c-.951 0-1.73-.777-1.73-1.727 0-.95.779-1.727 1.73-1.727h.043c.952 0 1.73.777 1.73 1.727 0 .95-.778 1.727-1.73 1.727zm-5.665 0c-.951 0-1.73-.777-1.73-1.727 0-.95.736-1.727 1.73-1.727h.043c.952 0 1.73.777 1.73 1.727 0 .95-.822 1.727-1.773 1.727zm-5.665 0c-.951 0-1.73-.777-1.73-1.727 0-.95.735-1.727 1.73-1.727h.043c.952 0 1.73.777 1.73 1.727 0 .95-.822 1.727-1.773 1.727zm-5.665 0h-.043c-.952 0-1.73-.777-1.73-1.727 0-.95.778-1.727 1.73-1.727h.043c.951 0 1.73.777 1.73 1.727 0 .95-.736 1.727-1.73 1.727zm-5.622 0h-.043c-.952 0-1.73-.777-1.73-1.727 0-.95.778-1.727 1.73-1.727h.043c.951 0 1.73.777 1.73 1.727 0 .95-.779 1.727-1.73 1.727zm-5.665 0h-.043c-.952 0-1.73-.777-1.73-1.727 0-.95.778-1.727 1.73-1.727h.043c.951 0 1.73.777 1.73 1.727 0 .95-.779 1.727-1.73 1.727zm-5.665 0h-.044c-.95 0-1.73-.777-1.73-1.727 0-.95.78-1.727 1.73-1.727h.044c.951 0 1.73.777 1.73 1.727 0 .95-.779 1.727-1.73 1.727zm-5.665 0c-.952 0-1.73-.777-1.73-1.727 0-.95.735-1.727 1.73-1.727h.043c.951 0 1.73.777 1.73 1.727 0 .95-.822 1.727-1.773 1.727zm-5.665 0c-.952 0-1.73-.777-1.73-1.727 0-.95.735-1.727 1.73-1.727h.043c.951 0 1.73.777 1.73 1.727 0 .95-.822 1.727-1.773 1.727zm-5.666 0h-.043c-.951 0-1.73-.777-1.73-1.727 0-.95.779-1.727 1.73-1.727h.043c.952 0 1.73.777 1.73 1.727 0 .95-.778 1.727-1.73 1.727zm-5.665 0h-.043c-.951 0-1.73-.777-1.73-1.727 0-.95.779-1.727 1.73-1.727h.043c.952 0 1.73.777 1.73 1.727 0 .95-.778 1.727-1.73 1.727zm-5.665 0h-.043c-.952 0-1.73-.777-1.73-1.727 0-.95.778-1.727 1.73-1.727h.043c.952 0 1.73.777 1.73 1.727 0 .95-.778 1.727-1.73 1.727zm118.874 0c-.952 0-1.73-.777-1.73-1.727 0-.95.778-1.727 1.73-1.727.951 0 1.73.777 1.73 1.727 0 .95-.779 1.727-1.73 1.727zM1.73 52.554c-.95 0-1.729-.777-1.729-1.727 0-.95.778-1.727 1.73-1.727.951 0 1.73.777 1.73 1.727 0 .95-.779 1.727-1.73 1.727zm118.882-.001h-.043c-.951 0-1.73-.777-1.73-1.727 0-.95.779-1.727 1.73-1.727h.043c.952 0 1.73.777 1.73 1.727 0 .95-.778 1.727-1.73 1.727zm-5.665 0h-.043c-.952 0-1.73-.777-1.73-1.727 0-.95.778-1.727 1.73-1.727h.043c.951 0 1.73.777 1.73 1.727 0 .95-.735 1.727-1.73 1.727zm-5.622 0h-.043c-.951 0-1.73-.777-1.73-1.727 0-.95.779-1.727 1.73-1.727h.043c.952 0 1.73.777 1.73 1.727 0 .95-.778 1.727-1.73 1.727zm-5.665 0h-.043c-.952 0-1.73-.777-1.73-1.727 0-.95.778-1.727 1.73-1.727h.043c.951 0 1.73.777 1.73 1.727 0 .95-.779 1.727-1.73 1.727zm-5.665 0c-.952 0-1.73-.777-1.73-1.727 0-.95.735-1.727 1.73-1.727h.043c.952 0 1.73.777 1.73 1.727 0 .95-.822 1.727-1.773 1.727zm-5.665 0c-.952 0-1.73-.777-1.73-1.727 0-.95.735-1.727 1.73-1.727h.043c.951 0 1.73.777 1.73 1.727 0 .95-.822 1.727-1.773 1.727zm-5.665 0h-.044c-.951 0-1.73-.777-1.73-1.727 0-.95.779-1.727 1.73-1.727h.044c.951 0 1.73.777 1.73 1.727 0 .95-.779 1.727-1.73 1.727zm-5.666 0h-.043c-.951 0-1.73-.777-1.73-1.727 0-.95.779-1.727 1.73-1.727H81c.952 0 1.73.777 1.73 1.727 0 .95-.778 1.727-1.73 1.727zm-5.665 0h-.043c-.951 0-1.73-.777-1.73-1.727 0-.95.779-1.727 1.73-1.727h.043c.952 0 1.73.777 1.73 1.727 0 .95-.778 1.727-1.73 1.727zm-5.665 0h-.043c-.951 0-1.73-.777-1.73-1.727 0-.95.779-1.727 1.73-1.727h.043c.952 0 1.73.777 1.73 1.727 0 .95-.778 1.727-1.73 1.727zm-5.665 0c-.951 0-1.73-.777-1.73-1.727 0-.95.736-1.727 1.73-1.727h.043c.952 0 1.73.777 1.73 1.727 0 .95-.822 1.727-1.773 1.727zm-5.665 0c-.951 0-1.73-.777-1.73-1.727 0-.95.735-1.727 1.73-1.727h.043c.952 0 1.73.777 1.73 1.727 0 .95-.822 1.727-1.773 1.727zm-5.665 0h-.043c-.952 0-1.73-.777-1.73-1.727 0-.95.778-1.727 1.73-1.727h.043c.951 0 1.73.777 1.73 1.727 0 .95-.736 1.727-1.73 1.727zm-5.622 0h-.043c-.952 0-1.73-.777-1.73-1.727 0-.95.778-1.727 1.73-1.727h.043c.951 0 1.73.777 1.73 1.727 0 .95-.779 1.727-1.73 1.727zm-5.665 0h-.043c-.952 0-1.73-.777-1.73-1.727 0-.95.778-1.727 1.73-1.727h.043c.951 0 1.73.777 1.73 1.727 0 .95-.779 1.727-1.73 1.727zm-5.665 0h-.044c-.95 0-1.73-.777-1.73-1.727 0-.95.78-1.727 1.73-1.727h.044c.951 0 1.73.777 1.73 1.727 0 .95-.779 1.727-1.73 1.727zm-5.665 0c-.952 0-1.73-.777-1.73-1.727 0-.95.735-1.727 1.73-1.727h.043c.951 0 1.73.777 1.73 1.727 0 .95-.822 1.727-1.773 1.727zm-5.665 0c-.952 0-1.73-.777-1.73-1.727 0-.95.735-1.727 1.73-1.727h.043c.951 0 1.73.777 1.73 1.727 0 .95-.822 1.727-1.773 1.727zm-5.666 0h-.043c-.951 0-1.73-.777-1.73-1.727 0-.95.779-1.727 1.73-1.727h.043c.952 0 1.73.777 1.73 1.727 0 .95-.778 1.727-1.73 1.727zm-5.665 0h-.043c-.951 0-1.73-.777-1.73-1.727 0-.95.779-1.727 1.73-1.727h.043c.952 0 1.73.777 1.73 1.727 0 .95-.778 1.727-1.73 1.727zm-5.665 0h-.043c-.952 0-1.73-.777-1.73-1.727 0-.95.778-1.727 1.73-1.727h.043c.952 0 1.73.777 1.73 1.727 0 .95-.778 1.727-1.73 1.727zm118.874 0c-.952 0-1.73-.777-1.73-1.727 0-.95.778-1.727 1.73-1.727.951 0 1.73.777 1.73 1.727 0 .95-.779 1.727-1.73 1.727zM1.73 46.51c-.952 0-1.73-.778-1.73-1.728s.778-1.727 1.73-1.727c.951 0 1.73.777 1.73 1.727 0 .95-.779 1.727-1.73 1.727zm118.881-.002h-.043c-.951 0-1.73-.777-1.73-1.727 0-.95.779-1.727 1.73-1.727h.043c.952 0 1.73.777 1.73 1.727 0 .95-.778 1.727-1.73 1.727zm-5.665 0h-.043c-.952 0-1.73-.777-1.73-1.727 0-.95.778-1.727 1.73-1.727h.043c.951 0 1.73.777 1.73 1.727 0 .95-.735 1.727-1.73 1.727zm-5.622 0h-.043c-.951 0-1.73-.777-1.73-1.727 0-.95.779-1.727 1.73-1.727h.043c.952 0 1.73.777 1.73 1.727 0 .95-.778 1.727-1.73 1.727zm-5.665 0h-.043c-.952 0-1.73-.777-1.73-1.727 0-.95.778-1.727 1.73-1.727h.043c.951 0 1.73.777 1.73 1.727 0 .95-.779 1.727-1.73 1.727zm-5.665 0c-.951 0-1.73-.777-1.73-1.727 0-.95.735-1.727 1.73-1.727h.043c.952 0 1.73.777 1.73 1.727 0 .95-.822 1.727-1.773 1.727zm-5.665 0c-.952 0-1.73-.777-1.73-1.727 0-.95.735-1.727 1.73-1.727h.043c.951 0 1.73.777 1.73 1.727 0 .95-.822 1.727-1.773 1.727zm-5.665 0h-.044c-.95 0-1.73-.777-1.73-1.727 0-.95.78-1.727 1.73-1.727h.044c.951 0 1.73.777 1.73 1.727 0 .95-.779 1.727-1.73 1.727zm-5.665 0h-.044c-.951 0-1.73-.777-1.73-1.727 0-.95.779-1.727 1.73-1.727H81c.951 0 1.73.777 1.73 1.727 0 .95-.779 1.727-1.73 1.727zm-5.666 0h-.043c-.951 0-1.73-.777-1.73-1.727 0-.95.779-1.727 1.73-1.727h.043c.952 0 1.73.777 1.73 1.727 0 .95-.778 1.727-1.73 1.727zm-5.665 0h-.043c-.951 0-1.73-.777-1.73-1.727 0-.95.779-1.727 1.73-1.727h.043c.952 0 1.73.777 1.73 1.727 0 .95-.778 1.727-1.73 1.727zm-5.665 0c-.951 0-1.73-.777-1.73-1.727 0-.95.735-1.727 1.73-1.727h.043c.952 0 1.73.777 1.73 1.727 0 .95-.821 1.727-1.773 1.727zm-5.665 0c-.951 0-1.73-.777-1.73-1.727 0-.95.735-1.727 1.73-1.727h.043c.952 0 1.73.777 1.73 1.727 0 .95-.822 1.727-1.773 1.727zm-5.665 0h-.043c-.952 0-1.73-.777-1.73-1.727 0-.95.778-1.727 1.73-1.727h.043c.951 0 1.73.777 1.73 1.727 0 .95-.735 1.727-1.73 1.727zm-5.622 0h-.043c-.952 0-1.73-.777-1.73-1.727 0-.95.778-1.727 1.73-1.727h.043c.951 0 1.73.777 1.73 1.727 0 .95-.779 1.727-1.73 1.727zm-5.665 0h-.043c-.952 0-1.73-.777-1.73-1.727 0-.95.778-1.727 1.73-1.727h.043c.951 0 1.73.777 1.73 1.727 0 .95-.779 1.727-1.73 1.727zm-5.665 0h-.043c-.952 0-1.73-.777-1.73-1.727 0-.95.778-1.727 1.73-1.727h.043c.951 0 1.73.777 1.73 1.727 0 .95-.779 1.727-1.73 1.727zm-5.665 0c-.952 0-1.73-.777-1.73-1.727 0-.95.735-1.727 1.73-1.727h.043c.951 0 1.73.777 1.73 1.727 0 .95-.822 1.727-1.773 1.727zm-5.666 0c-.95 0-1.73-.777-1.73-1.727 0-.95.736-1.727 1.73-1.727h.044c.951 0 1.73.777 1.73 1.727 0 .95-.822 1.727-1.774 1.727zm-5.665 0h-.043c-.951 0-1.73-.777-1.73-1.727 0-.95.779-1.727 1.73-1.727h.043c.952 0 1.73.777 1.73 1.727 0 .95-.778 1.727-1.73 1.727zm-5.665 0h-.043c-.951 0-1.73-.777-1.73-1.727 0-.95.779-1.727 1.73-1.727h.043c.952 0 1.73.777 1.73 1.727 0 .95-.778 1.727-1.73 1.727zm-5.665 0h-.043c-.952 0-1.73-.777-1.73-1.727 0-.95.778-1.727 1.73-1.727h.043c.952 0 1.73.777 1.73 1.727 0 .95-.778 1.727-1.73 1.727zm118.873 0c-.952 0-1.73-.777-1.73-1.727 0-.95.778-1.727 1.73-1.727.951 0 1.73.777 1.73 1.727 0 .95-.779 1.727-1.73 1.727zM1.73 40.464c-.95 0-1.729-.777-1.729-1.727 0-.95.778-1.727 1.73-1.727.951 0 1.73.777 1.73 1.727 0 .95-.779 1.727-1.73 1.727zm118.882-.002h-.043c-.951 0-1.73-.777-1.73-1.727 0-.95.779-1.727 1.73-1.727h.043c.952 0 1.73.777 1.73 1.727 0 .95-.778 1.727-1.73 1.727zm-5.665 0h-.043c-.952 0-1.73-.777-1.73-1.727 0-.95.778-1.727 1.73-1.727h.043c.951 0 1.73.777 1.73 1.727 0 .95-.735 1.727-1.73 1.727zm-5.622 0h-.043c-.951 0-1.73-.777-1.73-1.727 0-.95.779-1.727 1.73-1.727h.043c.952 0 1.73.777 1.73 1.727 0 .95-.778 1.727-1.73 1.727zm-5.665 0h-.043c-.952 0-1.73-.777-1.73-1.727 0-.95.778-1.727 1.73-1.727h.043c.951 0 1.73.777 1.73 1.727 0 .95-.779 1.727-1.73 1.727zm-5.665 0c-.952 0-1.73-.777-1.73-1.727 0-.95.735-1.727 1.73-1.727h.043c.952 0 1.73.777 1.73 1.727 0 .95-.822 1.727-1.773 1.727zm-5.665 0c-.952 0-1.73-.777-1.73-1.727 0-.95.735-1.727 1.73-1.727h.043c.951 0 1.73.777 1.73 1.727 0 .95-.822 1.727-1.773 1.727zm-5.665 0h-.044c-.951 0-1.73-.777-1.73-1.727 0-.95.779-1.727 1.73-1.727h.044c.951 0 1.73.777 1.73 1.727 0 .95-.779 1.727-1.73 1.727zm-5.666 0h-.043c-.951 0-1.73-.777-1.73-1.727 0-.95.779-1.727 1.73-1.727H81c.952 0 1.73.777 1.73 1.727 0 .95-.778 1.727-1.73 1.727zm-5.665 0h-.043c-.951 0-1.73-.777-1.73-1.727 0-.95.779-1.727 1.73-1.727h.043c.952 0 1.73.777 1.73 1.727 0 .95-.778 1.727-1.73 1.727zm-5.665 0h-.043c-.951 0-1.73-.777-1.73-1.727 0-.95.779-1.727 1.73-1.727h.043c.952 0 1.73.777 1.73 1.727 0 .95-.778 1.727-1.73 1.727zm-5.665 0c-.951 0-1.73-.777-1.73-1.727 0-.95.736-1.727 1.73-1.727h.043c.952 0 1.73.777 1.73 1.727 0 .95-.822 1.727-1.773 1.727zm-5.665 0c-.951 0-1.73-.777-1.73-1.727 0-.95.735-1.727 1.73-1.727h.043c.952 0 1.73.777 1.73 1.727 0 .95-.822 1.727-1.773 1.727zm-5.665 0h-.043c-.952 0-1.73-.777-1.73-1.727 0-.95.778-1.727 1.73-1.727h.043c.951 0 1.73.777 1.73 1.727 0 .95-.736 1.727-1.73 1.727zm-5.622 0h-.043c-.952 0-1.73-.777-1.73-1.727 0-.95.778-1.727 1.73-1.727h.043c.951 0 1.73.777 1.73 1.727 0 .95-.779 1.727-1.73 1.727zm-5.665 0h-.043c-.952 0-1.73-.777-1.73-1.727 0-.95.778-1.727 1.73-1.727h.043c.951 0 1.73.777 1.73 1.727 0 .95-.779 1.727-1.73 1.727zm-5.665 0h-.044c-.95 0-1.73-.777-1.73-1.727 0-.95.78-1.727 1.73-1.727h.044c.951 0 1.73.777 1.73 1.727 0 .95-.779 1.727-1.73 1.727zm-5.665 0c-.952 0-1.73-.777-1.73-1.727 0-.95.735-1.727 1.73-1.727h.043c.951 0 1.73.777 1.73 1.727 0 .95-.822 1.727-1.773 1.727zm-5.665 0c-.952 0-1.73-.777-1.73-1.727 0-.95.735-1.727 1.73-1.727h.043c.951 0 1.73.777 1.73 1.727 0 .95-.822 1.727-1.773 1.727zm-5.666 0h-.043c-.951 0-1.73-.777-1.73-1.727 0-.95.779-1.727 1.73-1.727h.043c.952 0 1.73.777 1.73 1.727 0 .95-.778 1.727-1.73 1.727zm-5.665 0h-.043c-.951 0-1.73-.777-1.73-1.727 0-.95.779-1.727 1.73-1.727h.043c.952 0 1.73.777 1.73 1.727 0 .95-.778 1.727-1.73 1.727zm-5.665 0h-.043c-.952 0-1.73-.777-1.73-1.727 0-.95.778-1.727 1.73-1.727h.043c.952 0 1.73.777 1.73 1.727 0 .95-.778 1.727-1.73 1.727zm118.874 0c-.952 0-1.73-.777-1.73-1.727 0-.95.778-1.727 1.73-1.727.951 0 1.73.777 1.73 1.727 0 .95-.779 1.727-1.73 1.727zM1.73 34.42c-.95 0-1.729-.778-1.729-1.728s.778-1.727 1.73-1.727c.951 0 1.73.777 1.73 1.727 0 .95-.779 1.727-1.73 1.727zm118.882-.003h-.043c-.951 0-1.73-.777-1.73-1.727 0-.95.779-1.727 1.73-1.727h.043c.952 0 1.73.777 1.73 1.727 0 .95-.778 1.727-1.73 1.727zm-5.665 0h-.043c-.952 0-1.73-.777-1.73-1.727 0-.95.778-1.727 1.73-1.727h.043c.951 0 1.73.777 1.73 1.727 0 .95-.735 1.727-1.73 1.727zm-5.622 0h-.043c-.951 0-1.73-.777-1.73-1.727 0-.95.779-1.727 1.73-1.727h.043c.952 0 1.73.777 1.73 1.727 0 .95-.778 1.727-1.73 1.727zm-5.665 0h-.043c-.952 0-1.73-.777-1.73-1.727 0-.95.778-1.727 1.73-1.727h.043c.951 0 1.73.777 1.73 1.727 0 .95-.779 1.727-1.73 1.727zm-5.665 0c-.952 0-1.73-.777-1.73-1.727 0-.95.735-1.727 1.73-1.727h.043c.952 0 1.73.777 1.73 1.727 0 .95-.822 1.727-1.773 1.727zm-5.665 0c-.952 0-1.73-.777-1.73-1.727 0-.95.735-1.727 1.73-1.727h.043c.951 0 1.73.777 1.73 1.727 0 .95-.822 1.727-1.773 1.727zm-5.665 0h-.044c-.951 0-1.73-.777-1.73-1.727 0-.95.779-1.727 1.73-1.727h.044c.951 0 1.73.777 1.73 1.727 0 .95-.779 1.727-1.73 1.727zm-5.666 0h-.043c-.951 0-1.73-.777-1.73-1.727 0-.95.779-1.727 1.73-1.727H81c.952 0 1.73.777 1.73 1.727 0 .95-.778 1.727-1.73 1.727zm-5.665 0h-.043c-.951 0-1.73-.777-1.73-1.727 0-.95.779-1.727 1.73-1.727h.043c.952 0 1.73.777 1.73 1.727 0 .95-.778 1.727-1.73 1.727zm-5.665 0h-.043c-.951 0-1.73-.777-1.73-1.727 0-.95.779-1.727 1.73-1.727h.043c.952 0 1.73.777 1.73 1.727 0 .95-.778 1.727-1.73 1.727zm-5.665 0c-.951 0-1.73-.777-1.73-1.727 0-.95.736-1.727 1.73-1.727h.043c.952 0 1.73.777 1.73 1.727 0 .95-.822 1.727-1.773 1.727zm-5.665 0c-.951 0-1.73-.777-1.73-1.727 0-.95.735-1.727 1.73-1.727h.043c.952 0 1.73.777 1.73 1.727 0 .95-.822 1.727-1.773 1.727zm-5.665 0h-.043c-.952 0-1.73-.777-1.73-1.727 0-.95.778-1.727 1.73-1.727h.043c.951 0 1.73.777 1.73 1.727 0 .95-.736 1.727-1.73 1.727zm-5.622 0h-.043c-.952 0-1.73-.777-1.73-1.727 0-.95.778-1.727 1.73-1.727h.043c.951 0 1.73.777 1.73 1.727 0 .95-.779 1.727-1.73 1.727zm-5.665 0h-.043c-.952 0-1.73-.777-1.73-1.727 0-.95.778-1.727 1.73-1.727h.043c.951 0 1.73.777 1.73 1.727 0 .95-.779 1.727-1.73 1.727zm-5.665 0h-.044c-.95 0-1.73-.777-1.73-1.727 0-.95.78-1.727 1.73-1.727h.044c.951 0 1.73.777 1.73 1.727 0 .95-.779 1.727-1.73 1.727zm-5.665 0c-.952 0-1.73-.777-1.73-1.727 0-.95.735-1.727 1.73-1.727h.043c.951 0 1.73.777 1.73 1.727 0 .95-.822 1.727-1.773 1.727zm-5.665 0c-.952 0-1.73-.777-1.73-1.727 0-.95.735-1.727 1.73-1.727h.043c.951 0 1.73.777 1.73 1.727 0 .95-.822 1.727-1.773 1.727zm-5.666 0h-.043c-.951 0-1.73-.777-1.73-1.727 0-.95.779-1.727 1.73-1.727h.043c.952 0 1.73.777 1.73 1.727 0 .95-.778 1.727-1.73 1.727zm-5.665 0h-.043c-.951 0-1.73-.777-1.73-1.727 0-.95.779-1.727 1.73-1.727h.043c.952 0 1.73.777 1.73 1.727 0 .95-.778 1.727-1.73 1.727zm-5.665 0h-.043c-.952 0-1.73-.777-1.73-1.727 0-.95.778-1.727 1.73-1.727h.043c.952 0 1.73.777 1.73 1.727 0 .95-.778 1.727-1.73 1.727zm118.874 0c-.952 0-1.73-.777-1.73-1.727 0-.95.778-1.727 1.73-1.727.951 0 1.73.777 1.73 1.727 0 .95-.779 1.727-1.73 1.727zM1.73 28.372c-.95 0-1.729-.778-1.729-1.728s.778-1.727 1.73-1.727c.951 0 1.73.777 1.73 1.727 0 .95-.779 1.728-1.73 1.728zm118.882 0h-.043c-.951 0-1.73-.778-1.73-1.728s.779-1.727 1.73-1.727h.043c.952 0 1.73.777 1.73 1.727 0 .95-.778 1.728-1.73 1.728zm-5.665 0h-.043c-.952 0-1.73-.778-1.73-1.728s.778-1.727 1.73-1.727h.043c.951 0 1.73.777 1.73 1.727 0 .95-.735 1.728-1.73 1.728zm-5.622 0h-.043c-.951 0-1.73-.778-1.73-1.728s.779-1.727 1.73-1.727h.043c.952 0 1.73.777 1.73 1.727 0 .95-.778 1.728-1.73 1.728zm-5.665 0h-.043c-.952 0-1.73-.778-1.73-1.728s.778-1.727 1.73-1.727h.043c.951 0 1.73.777 1.73 1.727 0 .95-.779 1.728-1.73 1.728zm-5.665 0c-.952 0-1.73-.778-1.73-1.728s.735-1.727 1.73-1.727h.043c.952 0 1.73.777 1.73 1.727 0 .95-.822 1.728-1.773 1.728zm-5.665 0c-.952 0-1.73-.778-1.73-1.728s.735-1.727 1.73-1.727h.043c.951 0 1.73.777 1.73 1.727 0 .95-.822 1.728-1.773 1.728zm-5.665 0h-.044c-.951 0-1.73-.778-1.73-1.728s.779-1.727 1.73-1.727h.044c.951 0 1.73.777 1.73 1.727 0 .95-.779 1.728-1.73 1.728zm-5.666 0h-.043c-.951 0-1.73-.778-1.73-1.728s.779-1.727 1.73-1.727H81c.952 0 1.73.777 1.73 1.727 0 .95-.778 1.728-1.73 1.728zm-5.665 0h-.043c-.951 0-1.73-.778-1.73-1.728s.779-1.727 1.73-1.727h.043c.952 0 1.73.777 1.73 1.727 0 .95-.778 1.728-1.73 1.728zm-5.665 0h-.043c-.951 0-1.73-.778-1.73-1.728s.779-1.727 1.73-1.727h.043c.952 0 1.73.777 1.73 1.727 0 .95-.778 1.728-1.73 1.728zm-5.665 0c-.951 0-1.73-.778-1.73-1.728s.736-1.727 1.73-1.727h.043c.952 0 1.73.777 1.73 1.727 0 .95-.822 1.728-1.773 1.728zm-5.665 0c-.951 0-1.73-.778-1.73-1.728s.735-1.727 1.73-1.727h.043c.952 0 1.73.777 1.73 1.727 0 .95-.822 1.728-1.773 1.728zm-5.665 0h-.043c-.952 0-1.73-.778-1.73-1.728s.778-1.727 1.73-1.727h.043c.951 0 1.73.777 1.73 1.727 0 .95-.736 1.728-1.73 1.728zm-5.622 0h-.043c-.952 0-1.73-.778-1.73-1.728s.778-1.727 1.73-1.727h.043c.951 0 1.73.777 1.73 1.727 0 .95-.779 1.728-1.73 1.728zm-5.665 0h-.043c-.952 0-1.73-.778-1.73-1.728s.778-1.727 1.73-1.727h.043c.951 0 1.73.777 1.73 1.727 0 .95-.779 1.728-1.73 1.728zm-5.665 0h-.044c-.95 0-1.73-.778-1.73-1.728s.78-1.727 1.73-1.727h.044c.951 0 1.73.777 1.73 1.727 0 .95-.779 1.728-1.73 1.728zm-5.665 0c-.952 0-1.73-.778-1.73-1.728s.735-1.727 1.73-1.727h.043c.951 0 1.73.777 1.73 1.727 0 .95-.822 1.728-1.773 1.728zm-5.665 0c-.952 0-1.73-.778-1.73-1.728s.735-1.727 1.73-1.727h.043c.951 0 1.73.777 1.73 1.727 0 .95-.822 1.728-1.773 1.728zm-5.666 0h-.043c-.951 0-1.73-.778-1.73-1.728s.779-1.727 1.73-1.727h.043c.952 0 1.73.777 1.73 1.727 0 .95-.778 1.728-1.73 1.728zm-5.665 0h-.043c-.951 0-1.73-.778-1.73-1.728s.779-1.727 1.73-1.727h.043c.952 0 1.73.777 1.73 1.727 0 .95-.778 1.728-1.73 1.728zm-5.665 0h-.043c-.952 0-1.73-.778-1.73-1.728s.778-1.727 1.73-1.727h.043c.952 0 1.73.777 1.73 1.727 0 .95-.778 1.728-1.73 1.728zm118.873 0c-.952 0-1.73-.778-1.73-1.728s.778-1.727 1.73-1.727c.951 0 1.73.777 1.73 1.727 0 .95-.779 1.728-1.73 1.728zM1.73 22.326c-.95 0-1.729-.777-1.729-1.727 0-.95.778-1.727 1.73-1.727.951 0 1.73.777 1.73 1.727 0 .95-.779 1.727-1.73 1.727zm118.882 0h-.043c-.951 0-1.73-.778-1.73-1.728s.779-1.727 1.73-1.727h.043c.952 0 1.73.777 1.73 1.727 0 .95-.778 1.728-1.73 1.728zm-5.665 0h-.043c-.952 0-1.73-.778-1.73-1.728s.778-1.727 1.73-1.727h.043c.951 0 1.73.777 1.73 1.727 0 .95-.735 1.728-1.73 1.728zm-5.622 0h-.043c-.951 0-1.73-.778-1.73-1.728s.779-1.727 1.73-1.727h.043c.952 0 1.73.777 1.73 1.727 0 .95-.778 1.728-1.73 1.728zm-5.665 0h-.043c-.952 0-1.73-.778-1.73-1.728s.778-1.727 1.73-1.727h.043c.951 0 1.73.777 1.73 1.727 0 .95-.779 1.728-1.73 1.728zm-5.665 0c-.952 0-1.73-.778-1.73-1.728s.735-1.727 1.73-1.727h.043c.952 0 1.73.777 1.73 1.727 0 .95-.822 1.728-1.773 1.728zm-5.665 0c-.952 0-1.73-.778-1.73-1.728s.735-1.727 1.73-1.727h.043c.951 0 1.73.777 1.73 1.727 0 .95-.822 1.728-1.773 1.728zm-5.665 0h-.044c-.951 0-1.73-.778-1.73-1.728s.779-1.727 1.73-1.727h.044c.951 0 1.73.777 1.73 1.727 0 .95-.779 1.728-1.73 1.728zm-5.666 0h-.043c-.951 0-1.73-.778-1.73-1.728s.779-1.727 1.73-1.727H81c.952 0 1.73.777 1.73 1.727 0 .95-.778 1.728-1.73 1.728zm-5.665 0h-.043c-.951 0-1.73-.778-1.73-1.728s.779-1.727 1.73-1.727h.043c.952 0 1.73.777 1.73 1.727 0 .95-.778 1.728-1.73 1.728zm-5.665 0h-.043c-.951 0-1.73-.778-1.73-1.728s.779-1.727 1.73-1.727h.043c.952 0 1.73.777 1.73 1.727 0 .95-.778 1.728-1.73 1.728zm-5.665 0c-.951 0-1.73-.778-1.73-1.728s.736-1.727 1.73-1.727h.043c.952 0 1.73.777 1.73 1.727 0 .95-.822 1.728-1.773 1.728zm-5.665 0c-.951 0-1.73-.778-1.73-1.728s.735-1.727 1.73-1.727h.043c.952 0 1.73.777 1.73 1.727 0 .95-.822 1.728-1.773 1.728zm-5.665 0h-.043c-.952 0-1.73-.778-1.73-1.728s.778-1.727 1.73-1.727h.043c.951 0 1.73.777 1.73 1.727 0 .95-.736 1.728-1.73 1.728zm-5.622 0h-.043c-.952 0-1.73-.778-1.73-1.728s.778-1.727 1.73-1.727h.043c.951 0 1.73.777 1.73 1.727 0 .95-.779 1.728-1.73 1.728zm-5.665 0h-.043c-.952 0-1.73-.778-1.73-1.728s.778-1.727 1.73-1.727h.043c.951 0 1.73.777 1.73 1.727 0 .95-.779 1.728-1.73 1.728zm-5.665 0h-.044c-.95 0-1.73-.778-1.73-1.728s.78-1.727 1.73-1.727h.044c.951 0 1.73.777 1.73 1.727 0 .95-.779 1.728-1.73 1.728zm-5.665 0c-.952 0-1.73-.778-1.73-1.728s.735-1.727 1.73-1.727h.043c.951 0 1.73.777 1.73 1.727 0 .95-.822 1.728-1.773 1.728zm-5.665 0c-.952 0-1.73-.778-1.73-1.728s.735-1.727 1.73-1.727h.043c.951 0 1.73.777 1.73 1.727 0 .95-.822 1.728-1.773 1.728zm-5.666 0h-.043c-.951 0-1.73-.778-1.73-1.728s.779-1.727 1.73-1.727h.043c.952 0 1.73.777 1.73 1.727 0 .95-.778 1.728-1.73 1.728zm-5.665 0h-.043c-.951 0-1.73-.778-1.73-1.728s.779-1.727 1.73-1.727h.043c.952 0 1.73.777 1.73 1.727 0 .95-.778 1.728-1.73 1.728zm-5.665 0h-.043c-.952 0-1.73-.778-1.73-1.728s.778-1.727 1.73-1.727h.043c.952 0 1.73.777 1.73 1.727 0 .95-.778 1.728-1.73 1.728zm118.873 0c-.952 0-1.73-.778-1.73-1.728s.778-1.727 1.73-1.727c.951 0 1.73.777 1.73 1.727 0 .95-.779 1.728-1.73 1.728zM1.73 16.284c-.952 0-1.73-.778-1.73-1.728s.778-1.727 1.73-1.727c.951 0 1.73.777 1.73 1.727 0 .95-.779 1.728-1.73 1.728zm118.881-.002h-.043c-.951 0-1.73-.778-1.73-1.728s.779-1.727 1.73-1.727h.043c.952 0 1.73.777 1.73 1.727 0 .95-.778 1.728-1.73 1.728zm-5.665 0h-.043c-.952 0-1.73-.778-1.73-1.728s.778-1.727 1.73-1.727h.043c.951 0 1.73.777 1.73 1.727 0 .95-.735 1.728-1.73 1.728zm-5.622 0h-.043c-.951 0-1.73-.778-1.73-1.728s.779-1.727 1.73-1.727h.043c.952 0 1.73.777 1.73 1.727 0 .95-.778 1.728-1.73 1.728zm-5.665 0h-.043c-.952 0-1.73-.778-1.73-1.728s.778-1.727 1.73-1.727h.043c.951 0 1.73.777 1.73 1.727 0 .95-.779 1.728-1.73 1.728zm-5.665 0c-.951 0-1.73-.778-1.73-1.728s.735-1.727 1.73-1.727h.043c.952 0 1.73.777 1.73 1.727 0 .95-.822 1.728-1.773 1.728zm-5.665 0c-.952 0-1.73-.778-1.73-1.728s.735-1.727 1.73-1.727h.043c.951 0 1.73.777 1.73 1.727 0 .95-.822 1.728-1.773 1.728zm-5.665 0h-.044c-.95 0-1.73-.778-1.73-1.728s.78-1.727 1.73-1.727h.044c.951 0 1.73.777 1.73 1.727 0 .95-.779 1.728-1.73 1.728zm-5.665 0h-.044c-.951 0-1.73-.778-1.73-1.728s.779-1.727 1.73-1.727H81c.951 0 1.73.777 1.73 1.727 0 .95-.779 1.728-1.73 1.728zm-5.666 0h-.043c-.951 0-1.73-.778-1.73-1.728s.779-1.727 1.73-1.727h.043c.952 0 1.73.777 1.73 1.727 0 .95-.778 1.728-1.73 1.728zm-5.665 0h-.043c-.951 0-1.73-.778-1.73-1.728s.779-1.727 1.73-1.727h.043c.952 0 1.73.777 1.73 1.727 0 .95-.778 1.728-1.73 1.728zm-5.665 0c-.951 0-1.73-.778-1.73-1.728s.735-1.727 1.73-1.727h.043c.952 0 1.73.777 1.73 1.727 0 .95-.821 1.728-1.773 1.728zm-5.665 0c-.951 0-1.73-.778-1.73-1.728s.735-1.727 1.73-1.727h.043c.952 0 1.73.777 1.73 1.727 0 .95-.822 1.728-1.773 1.728zm-5.665 0h-.043c-.952 0-1.73-.778-1.73-1.728s.778-1.727 1.73-1.727h.043c.951 0 1.73.777 1.73 1.727 0 .95-.735 1.728-1.73 1.728zm-5.622 0h-.043c-.952 0-1.73-.778-1.73-1.728s.778-1.727 1.73-1.727h.043c.951 0 1.73.777 1.73 1.727 0 .95-.779 1.728-1.73 1.728zm-5.665 0h-.043c-.952 0-1.73-.778-1.73-1.728s.778-1.727 1.73-1.727h.043c.951 0 1.73.777 1.73 1.727 0 .95-.779 1.728-1.73 1.728zm-5.665 0h-.043c-.952 0-1.73-.778-1.73-1.728s.778-1.727 1.73-1.727h.043c.951 0 1.73.777 1.73 1.727 0 .95-.779 1.728-1.73 1.728zm-5.665 0c-.952 0-1.73-.778-1.73-1.728s.735-1.727 1.73-1.727h.043c.951 0 1.73.777 1.73 1.727 0 .95-.822 1.728-1.773 1.728zm-5.666 0c-.95 0-1.73-.778-1.73-1.728s.736-1.727 1.73-1.727h.044c.951 0 1.73.777 1.73 1.727 0 .95-.822 1.728-1.774 1.728zm-5.665 0h-.043c-.951 0-1.73-.778-1.73-1.728s.779-1.727 1.73-1.727h.043c.952 0 1.73.777 1.73 1.727 0 .95-.778 1.728-1.73 1.728zm-5.665 0h-.043c-.951 0-1.73-.778-1.73-1.728s.779-1.727 1.73-1.727h.043c.952 0 1.73.777 1.73 1.727 0 .95-.778 1.728-1.73 1.728zm-5.665 0h-.043c-.952 0-1.73-.778-1.73-1.728s.778-1.727 1.73-1.727h.043c.952 0 1.73.777 1.73 1.727 0 .95-.778 1.728-1.73 1.728zm118.873 0c-.952 0-1.73-.778-1.73-1.728s.778-1.727 1.73-1.727c.951 0 1.73.777 1.73 1.727 0 .95-.779 1.728-1.73 1.728zM1.73 10.24C.778 10.24 0 9.462 0 8.512s.778-1.727 1.73-1.727c.951 0 1.73.777 1.73 1.727 0 .95-.779 1.728-1.73 1.728zm118.881-.003h-.043c-.951 0-1.73-.778-1.73-1.728s.779-1.727 1.73-1.727h.043c.952 0 1.73.777 1.73 1.727 0 .95-.778 1.728-1.73 1.728zm-5.665 0h-.043c-.952 0-1.73-.778-1.73-1.728s.778-1.727 1.73-1.727h.043c.951 0 1.73.777 1.73 1.727 0 .95-.735 1.728-1.73 1.728zm-5.622 0h-.043c-.951 0-1.73-.778-1.73-1.728s.779-1.727 1.73-1.727h.043c.952 0 1.73.777 1.73 1.727 0 .95-.778 1.728-1.73 1.728zm-5.665 0h-.043c-.952 0-1.73-.778-1.73-1.728s.778-1.727 1.73-1.727h.043c.951 0 1.73.777 1.73 1.727 0 .95-.779 1.728-1.73 1.728zm-5.665 0c-.951 0-1.73-.778-1.73-1.728s.735-1.727 1.73-1.727h.043c.952 0 1.73.777 1.73 1.727 0 .95-.822 1.728-1.773 1.728zm-5.665 0c-.952 0-1.73-.778-1.73-1.728s.735-1.727 1.73-1.727h.043c.951 0 1.73.777 1.73 1.727 0 .95-.822 1.728-1.773 1.728zm-5.665 0h-.044c-.95 0-1.73-.778-1.73-1.728s.78-1.727 1.73-1.727h.044c.951 0 1.73.777 1.73 1.727 0 .95-.779 1.728-1.73 1.728zm-5.665 0h-.044c-.951 0-1.73-.778-1.73-1.728s.779-1.727 1.73-1.727H81c.951 0 1.73.777 1.73 1.727 0 .95-.779 1.728-1.73 1.728zm-5.666 0h-.043c-.951 0-1.73-.778-1.73-1.728s.779-1.727 1.73-1.727h.043c.952 0 1.73.777 1.73 1.727 0 .95-.778 1.728-1.73 1.728zm-5.665 0h-.043c-.951 0-1.73-.778-1.73-1.728s.779-1.727 1.73-1.727h.043c.952 0 1.73.777 1.73 1.727 0 .95-.778 1.728-1.73 1.728zm-5.665 0c-.951 0-1.73-.778-1.73-1.728s.735-1.727 1.73-1.727h.043c.952 0 1.73.777 1.73 1.727 0 .95-.821 1.728-1.773 1.728zm-5.665 0c-.951 0-1.73-.778-1.73-1.728s.735-1.727 1.73-1.727h.043c.952 0 1.73.777 1.73 1.727 0 .95-.822 1.728-1.773 1.728zm-5.665 0h-.043c-.952 0-1.73-.778-1.73-1.728s.778-1.727 1.73-1.727h.043c.951 0 1.73.777 1.73 1.727 0 .95-.735 1.728-1.73 1.728zm-5.622 0h-.043c-.952 0-1.73-.778-1.73-1.728s.778-1.727 1.73-1.727h.043c.951 0 1.73.777 1.73 1.727 0 .95-.779 1.728-1.73 1.728zm-5.665 0h-.043c-.952 0-1.73-.778-1.73-1.728s.778-1.727 1.73-1.727h.043c.951 0 1.73.777 1.73 1.727 0 .95-.779 1.728-1.73 1.728zm-5.665 0h-.043c-.952 0-1.73-.778-1.73-1.728s.778-1.727 1.73-1.727h.043c.951 0 1.73.777 1.73 1.727 0 .95-.779 1.728-1.73 1.728zm-5.665 0c-.952 0-1.73-.778-1.73-1.728s.735-1.727 1.73-1.727h.043c.951 0 1.73.777 1.73 1.727 0 .95-.822 1.728-1.773 1.728zm-5.666 0c-.95 0-1.73-.778-1.73-1.728s.736-1.727 1.73-1.727h.044c.951 0 1.73.777 1.73 1.727 0 .95-.822 1.728-1.774 1.728zm-5.665 0h-.043c-.951 0-1.73-.778-1.73-1.728s.779-1.727 1.73-1.727h.043c.952 0 1.73.777 1.73 1.727 0 .95-.778 1.728-1.73 1.728zm-5.665 0h-.043c-.951 0-1.73-.778-1.73-1.728s.779-1.727 1.73-1.727h.043c.952 0 1.73.777 1.73 1.727 0 .95-.778 1.728-1.73 1.728zm-5.665 0h-.043c-.952 0-1.73-.778-1.73-1.728s.778-1.727 1.73-1.727h.043c.952 0 1.73.777 1.73 1.727 0 .95-.778 1.728-1.73 1.728zm118.873.001c-.952 0-1.73-.778-1.73-1.728s.778-1.727 1.73-1.727c.951 0 1.73.777 1.73 1.727 0 .95-.779 1.728-1.73 1.728zM1.73 4.19C.778 4.19 0 3.415 0 2.465S.778.736 1.73.736c.951 0 1.73.778 1.73 1.728S2.68 4.19 1.73 4.19zm118.882 0h-.043c-.951 0-1.73-.776-1.73-1.726s.779-1.728 1.73-1.728h.043c.952 0 1.73.778 1.73 1.728s-.778 1.727-1.73 1.727zm-5.665 0h-.043c-.952 0-1.73-.776-1.73-1.726s.778-1.728 1.73-1.728h.043c.951 0 1.73.778 1.73 1.728s-.735 1.727-1.73 1.727zm-5.622 0h-.043c-.951 0-1.73-.776-1.73-1.726s.779-1.728 1.73-1.728h.043c.952 0 1.73.778 1.73 1.728s-.778 1.727-1.73 1.727zm-5.665 0h-.043c-.952 0-1.73-.776-1.73-1.726s.778-1.728 1.73-1.728h.043c.951 0 1.73.778 1.73 1.728s-.779 1.727-1.73 1.727zm-5.665 0c-.952 0-1.73-.776-1.73-1.726S97 .736 97.995.736h.043c.952 0 1.73.778 1.73 1.728s-.822 1.727-1.773 1.727zm-5.665 0c-.952 0-1.73-.776-1.73-1.726S91.335.736 92.33.736h.043c.951 0 1.73.778 1.73 1.728S93.28 4.19 92.33 4.19zm-5.665 0h-.044c-.951 0-1.73-.776-1.73-1.726S85.67.736 86.622.736h.044c.951 0 1.73.778 1.73 1.728s-.779 1.727-1.73 1.727zm-5.666 0h-.043c-.951 0-1.73-.776-1.73-1.726s.779-1.728 1.73-1.728H81c.952 0 1.73.778 1.73 1.728S81.951 4.19 81 4.19zm-5.665 0h-.043c-.951 0-1.73-.776-1.73-1.726S74.34.736 75.291.736h.043c.952 0 1.73.778 1.73 1.728s-.778 1.727-1.73 1.727zm-5.665 0h-.043c-.951 0-1.73-.776-1.73-1.726s.779-1.728 1.73-1.728h.043c.952 0 1.73.778 1.73 1.728s-.778 1.727-1.73 1.727zm-5.665 0c-.951 0-1.73-.776-1.73-1.726S63.01.736 64.004.736h.043c.952 0 1.73.778 1.73 1.728s-.822 1.727-1.773 1.727zm-5.665 0c-.951 0-1.73-.776-1.73-1.726S57.344.736 58.34.736h.043c.952 0 1.73.778 1.73 1.728S59.29 4.19 58.34 4.19zm-5.665 0h-.043c-.952 0-1.73-.776-1.73-1.726S51.679.736 52.63.736h.043c.951 0 1.73.778 1.73 1.728s-.736 1.727-1.73 1.727zm-5.622 0h-.043c-.952 0-1.73-.776-1.73-1.726s.778-1.728 1.73-1.728h.043c.951 0 1.73.778 1.73 1.728s-.779 1.727-1.73 1.727zm-5.665 0h-.043c-.952 0-1.73-.776-1.73-1.726s.778-1.728 1.73-1.728h.043c.951 0 1.73.778 1.73 1.728s-.779 1.727-1.73 1.727zm-5.665 0h-.044c-.95 0-1.73-.776-1.73-1.726s.78-1.728 1.73-1.728h.044c.951 0 1.73.778 1.73 1.728s-.779 1.727-1.73 1.727zm-5.665 0c-.952 0-1.73-.776-1.73-1.726s.735-1.728 1.73-1.728h.043c.951 0 1.73.778 1.73 1.728s-.822 1.727-1.773 1.727zm-5.665 0c-.952 0-1.73-.776-1.73-1.726s.735-1.728 1.73-1.728h.043c.951 0 1.73.778 1.73 1.728s-.822 1.727-1.773 1.727zm-5.666 0h-.043c-.951 0-1.73-.776-1.73-1.726s.779-1.728 1.73-1.728h.043c.952 0 1.73.778 1.73 1.728s-.778 1.727-1.73 1.727zm-5.665 0h-.043c-.951 0-1.73-.776-1.73-1.726s.779-1.728 1.73-1.728h.043c.952 0 1.73.778 1.73 1.728s-.778 1.727-1.73 1.727zm-5.665 0h-.043c-.952 0-1.73-.776-1.73-1.726S6.401.736 7.353.736h.043c.952 0 1.73.778 1.73 1.728S8.348 4.19 7.396 4.19zm118.873.002c-.952 0-1.73-.777-1.73-1.727 0-.95.778-1.728 1.73-1.728.951 0 1.73.778 1.73 1.728s-.779 1.727-1.73 1.727z" fill="#C1E1ED"/></mask><g mask="url(#a)"><circle cx="63.997" cy="67.66" r="60.54" fill="#B2DBEB"/></g></svg>