<svg width="121" height="123" fill="none" xmlns="http://www.w3.org/2000/svg"><path d="M2.136 122.761a1.632 1.632 0 01-1.628-1.626c0-.895.733-1.626 1.628-1.626.896 0 1.629.731 1.629 1.626 0 .894-.733 1.626-1.629 1.626zm111.913 0h-.041a1.632 1.632 0 01-1.628-1.626c0-.895.733-1.626 1.628-1.626h.041a1.63 1.63 0 011.628 1.626c0 .894-.732 1.626-1.628 1.626zm-5.333 0h-.041a1.632 1.632 0 01-1.628-1.626c0-.895.733-1.626 1.628-1.626h.041a1.63 1.63 0 011.628 1.626c0 .894-.692 1.626-1.628 1.626zm-5.292 0h-.041a1.632 1.632 0 01-1.628-1.626 1.63 1.63 0 011.628-1.626h.041c.895 0 1.628.731 1.628 1.626 0 .894-.733 1.626-1.628 1.626zm-5.333 0h-.041a1.632 1.632 0 01-1.628-1.626 1.63 1.63 0 011.628-1.626h.04c.896 0 1.63.731 1.63 1.626 0 .894-.734 1.626-1.63 1.626zm-5.333 0a1.632 1.632 0 01-1.629-1.626c0-.895.692-1.626 1.629-1.626h.04c.896 0 1.629.731 1.629 1.626 0 .894-.774 1.626-1.67 1.626zm-5.333 0a1.632 1.632 0 01-1.629-1.626c0-.895.692-1.626 1.629-1.626h.04c.896 0 1.629.731 1.629 1.626 0 .894-.774 1.626-1.67 1.626zm-5.333 0h-.041a1.632 1.632 0 01-1.629-1.626c0-.895.733-1.626 1.629-1.626h.04c.896 0 1.629.731 1.629 1.626 0 .894-.733 1.626-1.628 1.626zm-5.333 0h-.041a1.632 1.632 0 01-1.629-1.626c0-.895.733-1.626 1.629-1.626h.04c.896 0 1.629.731 1.629 1.626 0 .894-.733 1.626-1.628 1.626zm-5.334 0h-.04a1.632 1.632 0 01-1.629-1.626c0-.895.733-1.626 1.629-1.626h.04c.896 0 1.629.731 1.629 1.626 0 .894-.733 1.626-1.629 1.626zm-5.332 0h-.041a1.632 1.632 0 01-1.629-1.626c0-.895.733-1.626 1.629-1.626h.04c.896 0 1.629.731 1.629 1.626 0 .894-.733 1.626-1.629 1.626zm-5.334 0a1.632 1.632 0 01-1.628-1.626c0-.895.692-1.626 1.629-1.626h.04c.896 0 1.629.731 1.629 1.626 0 .894-.774 1.626-1.67 1.626zm-5.333 0a1.632 1.632 0 01-1.628-1.626c0-.895.692-1.626 1.628-1.626h.041c.896 0 1.629.731 1.629 1.626 0 .894-.774 1.626-1.67 1.626zm-5.333 0h-.04a1.632 1.632 0 01-1.629-1.626c0-.895.733-1.626 1.629-1.626h.04c.896 0 1.629.731 1.629 1.626 0 .894-.692 1.626-1.629 1.626zm-5.292 0h-.04a1.632 1.632 0 01-1.629-1.626c0-.895.733-1.626 1.628-1.626h.041a1.63 1.63 0 011.628 1.626c0 .894-.732 1.626-1.628 1.626zm-5.333 0h-.04a1.632 1.632 0 01-1.629-1.626c0-.895.733-1.626 1.628-1.626h.041a1.63 1.63 0 011.628 1.626c0 .894-.732 1.626-1.628 1.626zm-5.333 0h-.04a1.632 1.632 0 01-1.63-1.626c0-.895.734-1.626 1.63-1.626h.04a1.63 1.63 0 011.628 1.626c0 .894-.732 1.626-1.628 1.626zm-5.333 0a1.632 1.632 0 01-1.628-1.626c0-.895.692-1.626 1.628-1.626h.04c.896 0 1.63.731 1.63 1.626 0 .894-.774 1.626-1.67 1.626zm-5.333 0a1.632 1.632 0 01-1.628-1.626c0-.895.692-1.626 1.628-1.626h.04c.896 0 1.63.731 1.63 1.626 0 .894-.774 1.626-1.67 1.626zm-5.333 0h-.04a1.632 1.632 0 01-1.63-1.626c0-.895.734-1.626 1.63-1.626h.04a1.63 1.63 0 011.628 1.626c0 .894-.732 1.626-1.628 1.626zm-5.333 0h-.04a1.632 1.632 0 01-1.63-1.626c0-.895.734-1.626 1.63-1.626h.04c.895 0 1.628.731 1.628 1.626 0 .894-.732 1.626-1.628 1.626zm-5.333 0h-.04a1.632 1.632 0 01-1.63-1.626c0-.895.734-1.626 1.63-1.626h.04a1.63 1.63 0 011.628 1.626c0 .894-.732 1.626-1.628 1.626zm111.902 0a1.632 1.632 0 01-1.629-1.626c0-.895.733-1.626 1.629-1.626.895 0 1.628.731 1.628 1.626 0 .894-.733 1.626-1.628 1.626zM2.136 117.07a1.632 1.632 0 01-1.628-1.626c0-.894.733-1.626 1.628-1.626.896 0 1.629.732 1.629 1.626 0 .895-.733 1.626-1.629 1.626zm111.913 0h-.041a1.632 1.632 0 01-1.628-1.626c0-.894.733-1.626 1.628-1.626h.041c.896 0 1.628.732 1.628 1.626a1.63 1.63 0 01-1.628 1.626zm-5.333 0h-.041a1.632 1.632 0 01-1.628-1.626c0-.894.733-1.626 1.628-1.626h.041c.896 0 1.628.732 1.628 1.626 0 .895-.692 1.626-1.628 1.626zm-5.292 0h-.041a1.63 1.63 0 01-1.628-1.626c0-.894.732-1.626 1.628-1.626h.041c.895 0 1.628.732 1.628 1.626 0 .895-.733 1.626-1.628 1.626zm-5.333 0h-.041a1.631 1.631 0 01-1.628-1.626c0-.894.732-1.626 1.628-1.626h.04c.896 0 1.63.732 1.63 1.626 0 .895-.734 1.626-1.63 1.626zm-5.333 0a1.632 1.632 0 01-1.629-1.626c0-.894.692-1.626 1.629-1.626h.04c.896 0 1.629.732 1.629 1.626 0 .895-.774 1.626-1.67 1.626zm-5.333 0a1.632 1.632 0 01-1.629-1.626c0-.894.692-1.626 1.629-1.626h.04c.896 0 1.629.732 1.629 1.626 0 .895-.774 1.626-1.67 1.626zm-5.333 0h-.041a1.632 1.632 0 01-1.629-1.626c0-.894.733-1.626 1.629-1.626h.04c.896 0 1.629.732 1.629 1.626 0 .895-.733 1.626-1.628 1.626zm-5.333 0h-.041a1.632 1.632 0 01-1.629-1.626c0-.894.733-1.626 1.629-1.626h.04c.896 0 1.629.732 1.629 1.626 0 .895-.733 1.626-1.628 1.626zm-5.334 0h-.04a1.632 1.632 0 01-1.629-1.626c0-.894.733-1.626 1.629-1.626h.04c.896 0 1.629.732 1.629 1.626 0 .895-.733 1.626-1.629 1.626zm-5.332 0h-.041a1.632 1.632 0 01-1.629-1.626c0-.894.733-1.626 1.629-1.626h.04c.896 0 1.629.732 1.629 1.626 0 .895-.733 1.626-1.629 1.626zm-5.334 0a1.631 1.631 0 01-1.628-1.626c0-.894.692-1.626 1.629-1.626h.04c.896 0 1.629.732 1.629 1.626 0 .895-.774 1.626-1.67 1.626zm-5.333 0a1.632 1.632 0 01-1.628-1.626c0-.894.692-1.626 1.628-1.626h.041c.896 0 1.629.732 1.629 1.626 0 .895-.774 1.626-1.67 1.626zm-5.333 0h-.04a1.632 1.632 0 01-1.629-1.626c0-.894.733-1.626 1.629-1.626h.04c.896 0 1.629.732 1.629 1.626 0 .895-.692 1.626-1.629 1.626zm-5.292 0h-.04a1.632 1.632 0 01-1.629-1.626c0-.894.733-1.626 1.628-1.626h.041c.896 0 1.628.732 1.628 1.626a1.63 1.63 0 01-1.628 1.626zm-5.333 0h-.04a1.631 1.631 0 01-1.629-1.626c0-.894.733-1.626 1.628-1.626h.041c.896 0 1.628.732 1.628 1.626a1.63 1.63 0 01-1.628 1.626zm-5.333 0h-.04a1.632 1.632 0 01-1.63-1.626c0-.894.734-1.626 1.63-1.626h.04c.896 0 1.628.732 1.628 1.626a1.63 1.63 0 01-1.628 1.626zm-5.333 0a1.632 1.632 0 01-1.628-1.626c0-.894.692-1.626 1.628-1.626h.04c.896 0 1.63.732 1.63 1.626 0 .895-.774 1.626-1.67 1.626zm-5.333 0a1.632 1.632 0 01-1.628-1.626c0-.894.692-1.626 1.628-1.626h.04c.896 0 1.63.732 1.63 1.626 0 .895-.774 1.626-1.67 1.626zm-5.333 0h-.04a1.632 1.632 0 01-1.63-1.626c0-.894.734-1.626 1.63-1.626h.04c.896 0 1.628.732 1.628 1.626a1.63 1.63 0 01-1.628 1.626zm-5.333 0h-.04a1.632 1.632 0 01-1.63-1.626c0-.894.734-1.626 1.63-1.626h.04c.895 0 1.628.732 1.628 1.626a1.63 1.63 0 01-1.628 1.626zm-5.333 0h-.04a1.632 1.632 0 01-1.63-1.626c0-.894.734-1.626 1.63-1.626h.04c.896 0 1.628.732 1.628 1.626a1.63 1.63 0 01-1.628 1.626zm111.902 0a1.632 1.632 0 01-1.629-1.626c0-.894.733-1.626 1.629-1.626.895 0 1.628.732 1.628 1.626 0 .895-.733 1.626-1.628 1.626zM2.136 111.379a1.632 1.632 0 01-1.628-1.626c0-.894.733-1.626 1.628-1.626.896 0 1.629.732 1.629 1.626 0 .894-.733 1.626-1.629 1.626zm111.913 0h-.041a1.632 1.632 0 01-1.628-1.626c0-.894.733-1.626 1.628-1.626h.041c.896 0 1.628.732 1.628 1.626 0 .894-.732 1.626-1.628 1.626zm-5.333 0h-.041a1.632 1.632 0 01-1.628-1.626c0-.894.733-1.626 1.628-1.626h.041c.896 0 1.628.732 1.628 1.626 0 .894-.692 1.626-1.628 1.626zm-5.292 0h-.041a1.632 1.632 0 01-1.628-1.626c0-.894.732-1.626 1.628-1.626h.041c.895 0 1.628.732 1.628 1.626 0 .894-.733 1.626-1.628 1.626zm-5.333 0h-.041a1.632 1.632 0 01-1.628-1.626c0-.894.732-1.626 1.628-1.626h.04c.896 0 1.63.732 1.63 1.626 0 .894-.734 1.626-1.63 1.626zm-5.333 0a1.632 1.632 0 01-1.629-1.626c0-.894.692-1.626 1.629-1.626h.04c.896 0 1.629.732 1.629 1.626 0 .894-.774 1.626-1.67 1.626zm-5.333 0a1.632 1.632 0 01-1.629-1.626c0-.894.692-1.626 1.629-1.626h.04c.896 0 1.629.732 1.629 1.626 0 .894-.774 1.626-1.67 1.626zm-5.333 0h-.041a1.632 1.632 0 01-1.629-1.626c0-.894.733-1.626 1.629-1.626h.04c.896 0 1.629.732 1.629 1.626 0 .894-.733 1.626-1.628 1.626zm-5.333 0h-.041a1.632 1.632 0 01-1.629-1.626c0-.894.733-1.626 1.629-1.626h.04c.896 0 1.629.732 1.629 1.626 0 .894-.733 1.626-1.628 1.626zm-5.334 0h-.04a1.632 1.632 0 01-1.629-1.626c0-.894.733-1.626 1.629-1.626h.04c.896 0 1.629.732 1.629 1.626 0 .894-.733 1.626-1.629 1.626zm-5.332 0h-.041a1.632 1.632 0 01-1.629-1.626c0-.894.733-1.626 1.629-1.626h.04c.896 0 1.629.732 1.629 1.626 0 .894-.733 1.626-1.629 1.626zm-5.334 0a1.632 1.632 0 01-1.628-1.626c0-.894.692-1.626 1.629-1.626h.04c.896 0 1.629.732 1.629 1.626 0 .894-.774 1.626-1.67 1.626zm-5.333 0a1.632 1.632 0 01-1.628-1.626c0-.894.692-1.626 1.628-1.626h.041c.896 0 1.629.732 1.629 1.626 0 .894-.774 1.626-1.67 1.626zm-5.333 0h-.04a1.632 1.632 0 01-1.629-1.626c0-.894.733-1.626 1.629-1.626h.04c.896 0 1.629.732 1.629 1.626 0 .894-.692 1.626-1.629 1.626zm-5.292 0h-.04a1.632 1.632 0 01-1.629-1.626c0-.894.733-1.626 1.628-1.626h.041c.896 0 1.628.732 1.628 1.626 0 .894-.732 1.626-1.628 1.626zm-5.333 0h-.04a1.632 1.632 0 01-1.629-1.626c0-.894.733-1.626 1.628-1.626h.041c.896 0 1.628.732 1.628 1.626 0 .894-.732 1.626-1.628 1.626zm-5.333 0h-.04a1.632 1.632 0 01-1.63-1.626c0-.894.734-1.626 1.63-1.626h.04c.896 0 1.628.732 1.628 1.626 0 .894-.732 1.626-1.628 1.626zm-5.333 0a1.632 1.632 0 01-1.628-1.626c0-.894.692-1.626 1.628-1.626h.04c.896 0 1.63.732 1.63 1.626 0 .894-.774 1.626-1.67 1.626zm-5.333 0a1.632 1.632 0 01-1.628-1.626c0-.894.692-1.626 1.628-1.626h.04c.896 0 1.63.732 1.63 1.626 0 .894-.774 1.626-1.67 1.626zm-5.333 0h-.04a1.632 1.632 0 01-1.63-1.626c0-.894.734-1.626 1.63-1.626h.04c.896 0 1.628.732 1.628 1.626 0 .894-.732 1.626-1.628 1.626zm-5.333 0h-.04a1.632 1.632 0 01-1.63-1.626c0-.894.734-1.626 1.63-1.626h.04c.895 0 1.628.732 1.628 1.626 0 .894-.732 1.626-1.628 1.626zm-5.333 0h-.04a1.632 1.632 0 01-1.63-1.626c0-.894.734-1.626 1.63-1.626h.04c.896 0 1.628.732 1.628 1.626 0 .894-.732 1.626-1.628 1.626zm111.902 0a1.632 1.632 0 01-1.629-1.626c0-.894.733-1.626 1.629-1.626.895 0 1.628.732 1.628 1.626 0 .894-.733 1.626-1.628 1.626zm-117.236-5.69a1.632 1.632 0 01-1.628-1.626c0-.894.733-1.625 1.628-1.625.896 0 1.629.731 1.629 1.625 0 .895-.733 1.626-1.629 1.626zm111.913-.002h-.041a1.631 1.631 0 01-1.628-1.625c0-.895.733-1.626 1.628-1.626h.041a1.63 1.63 0 011.628 1.626 1.63 1.63 0 01-1.628 1.625zm-5.333 0h-.041a1.631 1.631 0 01-1.628-1.625c0-.895.733-1.626 1.628-1.626h.041a1.63 1.63 0 011.628 1.626c0 .894-.692 1.625-1.628 1.625zm-5.292 0h-.041a1.63 1.63 0 01-1.628-1.625 1.63 1.63 0 011.628-1.626h.041c.895 0 1.628.731 1.628 1.626 0 .894-.733 1.625-1.628 1.625zm-5.333 0h-.041a1.631 1.631 0 01-1.628-1.625 1.63 1.63 0 011.628-1.626h.04c.896 0 1.63.731 1.63 1.626 0 .894-.734 1.625-1.63 1.625zm-5.333 0a1.631 1.631 0 01-1.629-1.625c0-.895.692-1.626 1.629-1.626h.04c.896 0 1.629.731 1.629 1.626 0 .894-.774 1.625-1.67 1.625zm-5.333 0a1.631 1.631 0 01-1.629-1.625c0-.895.692-1.626 1.629-1.626h.04c.896 0 1.629.731 1.629 1.626 0 .894-.774 1.625-1.67 1.625zm-5.333 0h-.041a1.631 1.631 0 01-1.629-1.625c0-.895.733-1.626 1.629-1.626h.04c.896 0 1.629.731 1.629 1.626 0 .894-.733 1.625-1.628 1.625zm-5.333 0h-.041a1.631 1.631 0 01-1.629-1.625c0-.895.733-1.626 1.629-1.626h.04c.896 0 1.629.731 1.629 1.626 0 .894-.733 1.625-1.628 1.625zm-5.334 0h-.04a1.631 1.631 0 01-1.629-1.625c0-.895.733-1.626 1.629-1.626h.04c.896 0 1.629.731 1.629 1.626 0 .894-.733 1.625-1.629 1.625zm-5.332 0h-.041a1.631 1.631 0 01-1.629-1.625c0-.895.733-1.626 1.629-1.626h.04c.896 0 1.629.731 1.629 1.626 0 .894-.733 1.625-1.629 1.625zm-5.334 0a1.631 1.631 0 01-1.628-1.625c0-.895.692-1.626 1.629-1.626h.04c.896 0 1.629.731 1.629 1.626 0 .894-.774 1.625-1.67 1.625zm-5.333 0a1.631 1.631 0 01-1.628-1.625c0-.895.692-1.626 1.628-1.626h.041c.896 0 1.629.731 1.629 1.626 0 .894-.774 1.625-1.67 1.625zm-5.333 0h-.04a1.631 1.631 0 01-1.629-1.625c0-.895.733-1.626 1.629-1.626h.04c.896 0 1.629.731 1.629 1.626 0 .894-.692 1.625-1.629 1.625zm-5.292 0h-.04a1.631 1.631 0 01-1.629-1.625c0-.895.733-1.626 1.628-1.626h.041a1.63 1.63 0 011.628 1.626 1.63 1.63 0 01-1.628 1.625zm-5.333 0h-.04a1.631 1.631 0 01-1.629-1.625c0-.895.733-1.626 1.628-1.626h.041a1.63 1.63 0 011.628 1.626 1.63 1.63 0 01-1.628 1.625zm-5.333 0h-.04a1.631 1.631 0 01-1.63-1.625c0-.895.734-1.626 1.63-1.626h.04a1.63 1.63 0 011.628 1.626 1.63 1.63 0 01-1.628 1.625zm-5.333 0a1.631 1.631 0 01-1.628-1.625c0-.895.692-1.626 1.628-1.626h.04c.896 0 1.63.731 1.63 1.626 0 .894-.774 1.625-1.67 1.625zm-5.333 0a1.631 1.631 0 01-1.628-1.625c0-.895.692-1.626 1.628-1.626h.04c.896 0 1.63.731 1.63 1.626 0 .894-.774 1.625-1.67 1.625zm-5.333 0h-.04a1.631 1.631 0 01-1.63-1.625c0-.895.734-1.626 1.63-1.626h.04a1.63 1.63 0 011.628 1.626 1.63 1.63 0 01-1.628 1.625zm-5.333 0h-.04a1.631 1.631 0 01-1.63-1.625c0-.895.734-1.626 1.63-1.626h.04c.895 0 1.628.731 1.628 1.626a1.63 1.63 0 01-1.628 1.625zm-5.333 0h-.04a1.631 1.631 0 01-1.63-1.625c0-.895.734-1.626 1.63-1.626h.04a1.63 1.63 0 011.628 1.626 1.63 1.63 0 01-1.628 1.625zm111.902 0a1.632 1.632 0 01-1.629-1.625c0-.895.733-1.626 1.629-1.626.895 0 1.628.731 1.628 1.626 0 .894-.733 1.625-1.628 1.625zM2.136 99.998a1.632 1.632 0 01-1.628-1.626c0-.894.733-1.626 1.628-1.626.896 0 1.629.732 1.629 1.626 0 .894-.733 1.626-1.629 1.626zm111.913 0h-.041a1.632 1.632 0 01-1.628-1.626c0-.894.733-1.626 1.628-1.626h.041c.896 0 1.628.732 1.628 1.626 0 .894-.732 1.626-1.628 1.626zm-5.333 0h-.041a1.632 1.632 0 01-1.628-1.626c0-.894.733-1.626 1.628-1.626h.041c.896 0 1.628.732 1.628 1.626 0 .894-.692 1.626-1.628 1.626zm-5.292 0h-.041a1.631 1.631 0 01-1.628-1.626c0-.894.732-1.626 1.628-1.626h.041c.895 0 1.628.732 1.628 1.626 0 .894-.733 1.626-1.628 1.626zm-5.333 0h-.041a1.632 1.632 0 01-1.628-1.626c0-.894.732-1.626 1.628-1.626h.04c.896 0 1.63.732 1.63 1.626 0 .894-.734 1.626-1.63 1.626zm-5.333 0a1.632 1.632 0 01-1.629-1.626c0-.894.692-1.626 1.629-1.626h.04c.896 0 1.629.732 1.629 1.626 0 .894-.774 1.626-1.67 1.626zm-5.333 0a1.632 1.632 0 01-1.629-1.626c0-.894.692-1.626 1.629-1.626h.04c.896 0 1.629.732 1.629 1.626 0 .894-.774 1.626-1.67 1.626zm-5.333 0h-.041a1.632 1.632 0 01-1.629-1.626c0-.894.733-1.626 1.629-1.626h.04c.896 0 1.629.732 1.629 1.626 0 .894-.733 1.626-1.628 1.626zm-5.333 0h-.041a1.632 1.632 0 01-1.629-1.626c0-.894.733-1.626 1.629-1.626h.04c.896 0 1.629.732 1.629 1.626 0 .894-.733 1.626-1.628 1.626zm-5.334 0h-.04a1.632 1.632 0 01-1.629-1.626c0-.894.733-1.626 1.629-1.626h.04c.896 0 1.629.732 1.629 1.626 0 .894-.733 1.626-1.629 1.626zm-5.332 0h-.041a1.632 1.632 0 01-1.629-1.626c0-.894.733-1.626 1.629-1.626h.04c.896 0 1.629.732 1.629 1.626 0 .894-.733 1.626-1.629 1.626zm-5.334 0a1.632 1.632 0 01-1.628-1.626c0-.894.692-1.626 1.629-1.626h.04c.896 0 1.629.732 1.629 1.626 0 .894-.774 1.626-1.67 1.626zm-5.333 0a1.632 1.632 0 01-1.628-1.626c0-.894.692-1.626 1.628-1.626h.041c.896 0 1.629.732 1.629 1.626 0 .894-.774 1.626-1.67 1.626zm-5.333 0h-.04a1.632 1.632 0 01-1.629-1.626c0-.894.733-1.626 1.629-1.626h.04c.896 0 1.629.732 1.629 1.626 0 .894-.692 1.626-1.629 1.626zm-5.292 0h-.04a1.632 1.632 0 01-1.629-1.626c0-.894.733-1.626 1.628-1.626h.041c.896 0 1.628.732 1.628 1.626 0 .894-.732 1.626-1.628 1.626zm-5.333 0h-.04a1.632 1.632 0 01-1.629-1.626c0-.894.733-1.626 1.628-1.626h.041c.896 0 1.628.732 1.628 1.626 0 .894-.732 1.626-1.628 1.626zm-5.333 0h-.04a1.632 1.632 0 01-1.63-1.626c0-.894.734-1.626 1.63-1.626h.04c.896 0 1.628.732 1.628 1.626 0 .894-.732 1.626-1.628 1.626zm-5.333 0a1.632 1.632 0 01-1.628-1.626c0-.894.692-1.626 1.628-1.626h.04c.896 0 1.63.732 1.63 1.626 0 .894-.774 1.626-1.67 1.626zm-5.333 0a1.632 1.632 0 01-1.628-1.626c0-.894.692-1.626 1.628-1.626h.04c.896 0 1.63.732 1.63 1.626 0 .894-.774 1.626-1.67 1.626zm-5.333 0h-.04a1.632 1.632 0 01-1.63-1.626c0-.894.734-1.626 1.63-1.626h.04c.896 0 1.628.732 1.628 1.626 0 .894-.732 1.626-1.628 1.626zm-5.333 0h-.04a1.632 1.632 0 01-1.63-1.626c0-.894.734-1.626 1.63-1.626h.04c.895 0 1.628.732 1.628 1.626 0 .894-.732 1.626-1.628 1.626zm-5.333 0h-.04a1.632 1.632 0 01-1.63-1.626c0-.894.734-1.626 1.63-1.626h.04c.896 0 1.628.732 1.628 1.626 0 .894-.732 1.626-1.628 1.626zm111.902 0a1.632 1.632 0 01-1.629-1.626c0-.894.733-1.626 1.629-1.626.895 0 1.628.732 1.628 1.626 0 .894-.733 1.626-1.628 1.626zM2.136 94.307A1.632 1.632 0 01.508 92.68c0-.895.733-1.626 1.628-1.626.896 0 1.629.731 1.629 1.626 0 .894-.733 1.626-1.629 1.626zm111.913 0h-.041a1.632 1.632 0 01-1.628-1.626c0-.895.733-1.626 1.628-1.626h.041a1.63 1.63 0 011.628 1.626c0 .894-.732 1.626-1.628 1.626zm-5.333 0h-.041a1.632 1.632 0 01-1.628-1.626c0-.895.733-1.626 1.628-1.626h.041a1.63 1.63 0 011.628 1.626c0 .894-.692 1.626-1.628 1.626zm-5.292 0h-.041a1.631 1.631 0 01-1.628-1.626 1.63 1.63 0 011.628-1.626h.041c.895 0 1.628.731 1.628 1.626 0 .894-.733 1.626-1.628 1.626zm-5.333 0h-.041a1.632 1.632 0 01-1.628-1.626 1.63 1.63 0 011.628-1.626h.04c.896 0 1.63.731 1.63 1.626 0 .894-.734 1.626-1.63 1.626zm-5.333 0a1.632 1.632 0 01-1.629-1.626c0-.895.692-1.626 1.629-1.626h.04c.896 0 1.629.731 1.629 1.626 0 .894-.774 1.626-1.67 1.626zm-5.333 0a1.632 1.632 0 01-1.629-1.626c0-.895.692-1.626 1.629-1.626h.04c.896 0 1.629.731 1.629 1.626 0 .894-.774 1.626-1.67 1.626zm-5.333 0h-.041a1.632 1.632 0 01-1.629-1.626c0-.895.733-1.626 1.629-1.626h.04c.896 0 1.629.731 1.629 1.626 0 .894-.733 1.626-1.628 1.626zm-5.333 0h-.041a1.632 1.632 0 01-1.629-1.626c0-.895.733-1.626 1.629-1.626h.04c.896 0 1.629.731 1.629 1.626 0 .894-.733 1.626-1.628 1.626zm-5.334 0h-.04a1.632 1.632 0 01-1.629-1.626c0-.895.733-1.626 1.629-1.626h.04c.896 0 1.629.731 1.629 1.626 0 .894-.733 1.626-1.629 1.626zm-5.332 0h-.041a1.632 1.632 0 01-1.629-1.626c0-.895.733-1.626 1.629-1.626h.04c.896 0 1.629.731 1.629 1.626 0 .894-.733 1.626-1.629 1.626zm-5.334 0a1.632 1.632 0 01-1.628-1.626c0-.895.692-1.626 1.629-1.626h.04c.896 0 1.629.731 1.629 1.626 0 .894-.774 1.626-1.67 1.626zm-5.333 0a1.632 1.632 0 01-1.628-1.626c0-.895.692-1.626 1.628-1.626h.041c.896 0 1.629.731 1.629 1.626 0 .894-.774 1.626-1.67 1.626zm-5.333 0h-.04a1.632 1.632 0 01-1.629-1.626c0-.895.733-1.626 1.629-1.626h.04c.896 0 1.629.731 1.629 1.626 0 .894-.692 1.626-1.629 1.626zm-5.292 0h-.04a1.632 1.632 0 01-1.629-1.626c0-.895.733-1.626 1.628-1.626h.041a1.63 1.63 0 011.628 1.626c0 .894-.732 1.626-1.628 1.626zm-5.333 0h-.04a1.632 1.632 0 01-1.629-1.626c0-.895.733-1.626 1.628-1.626h.041a1.63 1.63 0 011.628 1.626c0 .894-.732 1.626-1.628 1.626zm-5.333 0h-.04a1.632 1.632 0 01-1.63-1.626c0-.895.734-1.626 1.63-1.626h.04a1.63 1.63 0 011.628 1.626c0 .894-.732 1.626-1.628 1.626zm-5.333 0a1.632 1.632 0 01-1.628-1.626c0-.895.692-1.626 1.628-1.626h.04c.896 0 1.63.731 1.63 1.626 0 .894-.774 1.626-1.67 1.626zm-5.333 0a1.632 1.632 0 01-1.628-1.626c0-.895.692-1.626 1.628-1.626h.04c.896 0 1.63.731 1.63 1.626 0 .894-.774 1.626-1.67 1.626zm-5.333 0h-.04a1.632 1.632 0 01-1.63-1.626c0-.895.734-1.626 1.63-1.626h.04a1.63 1.63 0 011.628 1.626c0 .894-.732 1.626-1.628 1.626zm-5.333 0h-.04a1.632 1.632 0 01-1.63-1.626c0-.895.734-1.626 1.63-1.626h.04c.895 0 1.628.731 1.628 1.626 0 .894-.732 1.626-1.628 1.626zm-5.333 0h-.04A1.632 1.632 0 015.8 92.68c0-.895.734-1.626 1.63-1.626h.04a1.63 1.63 0 011.628 1.626c0 .894-.732 1.626-1.628 1.626zm111.902 0a1.632 1.632 0 01-1.629-1.626c0-.895.733-1.626 1.629-1.626.895 0 1.628.731 1.628 1.626 0 .894-.733 1.626-1.628 1.626zM2.136 88.615A1.632 1.632 0 01.508 86.99c0-.894.733-1.626 1.628-1.626.896 0 1.629.732 1.629 1.626 0 .894-.733 1.626-1.629 1.626zm111.913 0h-.041a1.632 1.632 0 01-1.628-1.626c0-.894.733-1.626 1.628-1.626h.041c.896 0 1.628.732 1.628 1.626 0 .894-.732 1.626-1.628 1.626zm-5.333 0h-.041a1.632 1.632 0 01-1.628-1.626c0-.894.733-1.626 1.628-1.626h.041c.896 0 1.628.732 1.628 1.626 0 .894-.692 1.626-1.628 1.626zm-5.292 0h-.041a1.631 1.631 0 01-1.628-1.626c0-.894.732-1.626 1.628-1.626h.041c.895 0 1.628.732 1.628 1.626 0 .894-.733 1.626-1.628 1.626zm-5.333 0h-.041a1.632 1.632 0 01-1.628-1.626c0-.894.732-1.626 1.628-1.626h.04c.896 0 1.63.732 1.63 1.626 0 .894-.734 1.626-1.63 1.626zm-5.333 0a1.632 1.632 0 01-1.629-1.626c0-.894.692-1.626 1.629-1.626h.04c.896 0 1.629.732 1.629 1.626 0 .894-.774 1.626-1.67 1.626zm-5.333 0a1.632 1.632 0 01-1.629-1.626c0-.894.692-1.626 1.629-1.626h.04c.896 0 1.629.732 1.629 1.626 0 .894-.774 1.626-1.67 1.626zm-5.333 0h-.041a1.632 1.632 0 01-1.629-1.626c0-.894.733-1.626 1.629-1.626h.04c.896 0 1.629.732 1.629 1.626 0 .894-.733 1.626-1.628 1.626zm-5.333 0h-.041a1.632 1.632 0 01-1.629-1.626c0-.894.733-1.626 1.629-1.626h.04c.896 0 1.629.732 1.629 1.626 0 .894-.733 1.626-1.628 1.626zm-5.334 0h-.04a1.632 1.632 0 01-1.629-1.626c0-.894.733-1.626 1.629-1.626h.04c.896 0 1.629.732 1.629 1.626 0 .894-.733 1.626-1.629 1.626zm-5.332 0h-.041a1.632 1.632 0 01-1.629-1.626c0-.894.733-1.626 1.629-1.626h.04c.896 0 1.629.732 1.629 1.626 0 .894-.733 1.626-1.629 1.626zm-5.334 0a1.632 1.632 0 01-1.628-1.626c0-.894.692-1.626 1.629-1.626h.04c.896 0 1.629.732 1.629 1.626 0 .894-.774 1.626-1.67 1.626zm-5.333 0a1.632 1.632 0 01-1.628-1.626c0-.894.692-1.626 1.628-1.626h.041c.896 0 1.629.732 1.629 1.626 0 .894-.774 1.626-1.67 1.626zm-5.333 0h-.04a1.632 1.632 0 01-1.629-1.626c0-.894.733-1.626 1.629-1.626h.04c.896 0 1.629.732 1.629 1.626 0 .894-.692 1.626-1.629 1.626zm-5.292 0h-.04a1.632 1.632 0 01-1.629-1.626c0-.894.733-1.626 1.628-1.626h.041c.896 0 1.628.732 1.628 1.626 0 .894-.732 1.626-1.628 1.626zm-5.333 0h-.04a1.632 1.632 0 01-1.629-1.626c0-.894.733-1.626 1.628-1.626h.041c.896 0 1.628.732 1.628 1.626 0 .894-.732 1.626-1.628 1.626zm-5.333 0h-.04a1.632 1.632 0 01-1.63-1.626c0-.894.734-1.626 1.63-1.626h.04c.896 0 1.628.732 1.628 1.626 0 .894-.732 1.626-1.628 1.626zm-5.333 0a1.632 1.632 0 01-1.628-1.626c0-.894.692-1.626 1.628-1.626h.04c.896 0 1.63.732 1.63 1.626 0 .894-.774 1.626-1.67 1.626zm-5.333 0a1.632 1.632 0 01-1.628-1.626c0-.894.692-1.626 1.628-1.626h.04c.896 0 1.63.732 1.63 1.626 0 .894-.774 1.626-1.67 1.626zm-5.333 0h-.04a1.632 1.632 0 01-1.63-1.626c0-.894.734-1.626 1.63-1.626h.04c.896 0 1.628.732 1.628 1.626 0 .894-.732 1.626-1.628 1.626zm-5.333 0h-.04a1.632 1.632 0 01-1.63-1.626c0-.894.734-1.626 1.63-1.626h.04c.895 0 1.628.732 1.628 1.626 0 .894-.732 1.626-1.628 1.626zm-5.333 0h-.04A1.632 1.632 0 015.8 86.99c0-.894.734-1.626 1.63-1.626h.04c.896 0 1.628.732 1.628 1.626 0 .894-.732 1.626-1.628 1.626zm111.902 0a1.632 1.632 0 01-1.629-1.626c0-.894.733-1.626 1.629-1.626.895 0 1.628.732 1.628 1.626 0 .894-.733 1.626-1.628 1.626zM2.136 82.925a1.632 1.632 0 01-1.628-1.626c0-.895.733-1.626 1.628-1.626.896 0 1.629.731 1.629 1.626 0 .894-.733 1.626-1.629 1.626zm111.913 0h-.041a1.632 1.632 0 01-1.628-1.626c0-.895.733-1.626 1.628-1.626h.041a1.63 1.63 0 011.628 1.626c0 .894-.732 1.626-1.628 1.626zm-5.333 0h-.041a1.632 1.632 0 01-1.628-1.626c0-.895.733-1.626 1.628-1.626h.041a1.63 1.63 0 011.628 1.626c0 .894-.692 1.626-1.628 1.626zm-5.292 0h-.041a1.631 1.631 0 01-1.628-1.626 1.63 1.63 0 011.628-1.626h.041c.895 0 1.628.731 1.628 1.626 0 .894-.733 1.626-1.628 1.626zm-5.333 0h-.041a1.632 1.632 0 01-1.628-1.626 1.63 1.63 0 011.628-1.626h.04c.896 0 1.63.731 1.63 1.626 0 .894-.734 1.626-1.63 1.626zm-5.333 0a1.632 1.632 0 01-1.629-1.626c0-.895.692-1.626 1.629-1.626h.04c.896 0 1.629.731 1.629 1.626 0 .894-.774 1.626-1.67 1.626zm-5.333 0a1.632 1.632 0 01-1.629-1.626c0-.895.692-1.626 1.629-1.626h.04c.896 0 1.629.731 1.629 1.626 0 .894-.774 1.626-1.67 1.626zm-5.333 0h-.041a1.632 1.632 0 01-1.629-1.626c0-.895.733-1.626 1.629-1.626h.04c.896 0 1.629.731 1.629 1.626 0 .894-.733 1.626-1.628 1.626zm-5.333 0h-.041a1.632 1.632 0 01-1.629-1.626c0-.895.733-1.626 1.629-1.626h.04c.896 0 1.629.731 1.629 1.626 0 .894-.733 1.626-1.628 1.626zm-5.334 0h-.04a1.632 1.632 0 01-1.629-1.626c0-.895.733-1.626 1.629-1.626h.04c.896 0 1.629.731 1.629 1.626 0 .894-.733 1.626-1.629 1.626zm-5.332 0h-.041a1.632 1.632 0 01-1.629-1.626c0-.895.733-1.626 1.629-1.626h.04c.896 0 1.629.731 1.629 1.626 0 .894-.733 1.626-1.629 1.626zm-5.334 0a1.632 1.632 0 01-1.628-1.626c0-.895.692-1.626 1.629-1.626h.04c.896 0 1.629.731 1.629 1.626 0 .894-.774 1.626-1.67 1.626zm-5.333 0a1.632 1.632 0 01-1.628-1.626c0-.895.692-1.626 1.628-1.626h.041c.896 0 1.629.731 1.629 1.626 0 .894-.774 1.626-1.67 1.626zm-5.333 0h-.04a1.632 1.632 0 01-1.629-1.626c0-.895.733-1.626 1.629-1.626h.04c.896 0 1.629.731 1.629 1.626 0 .894-.692 1.626-1.629 1.626zm-5.292 0h-.04a1.632 1.632 0 01-1.629-1.626c0-.895.733-1.626 1.628-1.626h.041a1.63 1.63 0 011.628 1.626c0 .894-.732 1.626-1.628 1.626zm-5.333 0h-.04a1.632 1.632 0 01-1.629-1.626c0-.895.733-1.626 1.628-1.626h.041a1.63 1.63 0 011.628 1.626c0 .894-.732 1.626-1.628 1.626zm-5.333 0h-.04a1.632 1.632 0 01-1.63-1.626c0-.895.734-1.626 1.63-1.626h.04a1.63 1.63 0 011.628 1.626c0 .894-.732 1.626-1.628 1.626zm-5.333 0a1.632 1.632 0 01-1.628-1.626c0-.895.692-1.626 1.628-1.626h.04c.896 0 1.63.731 1.63 1.626 0 .894-.774 1.626-1.67 1.626zm-5.333 0a1.632 1.632 0 01-1.628-1.626c0-.895.692-1.626 1.628-1.626h.04c.896 0 1.63.731 1.63 1.626 0 .894-.774 1.626-1.67 1.626zm-5.333 0h-.04a1.632 1.632 0 01-1.63-1.626c0-.895.734-1.626 1.63-1.626h.04a1.63 1.63 0 011.628 1.626c0 .894-.732 1.626-1.628 1.626zm-5.333 0h-.04a1.632 1.632 0 01-1.63-1.626c0-.895.734-1.626 1.63-1.626h.04c.895 0 1.628.731 1.628 1.626 0 .894-.732 1.626-1.628 1.626zm-5.333 0h-.04a1.632 1.632 0 01-1.63-1.626c0-.895.734-1.626 1.63-1.626h.04a1.63 1.63 0 011.628 1.626c0 .894-.732 1.626-1.628 1.626zm111.902 0a1.632 1.632 0 01-1.629-1.626c0-.895.733-1.626 1.629-1.626.895 0 1.628.731 1.628 1.626 0 .894-.733 1.626-1.628 1.626zM2.136 77.233a1.632 1.632 0 01-1.628-1.626c0-.894.733-1.626 1.628-1.626.896 0 1.629.732 1.629 1.626 0 .895-.733 1.626-1.629 1.626zm111.913.001h-.041a1.632 1.632 0 01-1.628-1.626c0-.894.733-1.626 1.628-1.626h.041c.896 0 1.628.732 1.628 1.626a1.63 1.63 0 01-1.628 1.626zm-5.333 0h-.041a1.632 1.632 0 01-1.628-1.626c0-.894.733-1.626 1.628-1.626h.041c.896 0 1.628.732 1.628 1.626 0 .895-.692 1.626-1.628 1.626zm-5.292 0h-.041a1.631 1.631 0 01-1.628-1.626c0-.894.732-1.626 1.628-1.626h.041c.895 0 1.628.732 1.628 1.626 0 .895-.733 1.626-1.628 1.626zm-5.333 0h-.041a1.632 1.632 0 01-1.628-1.626c0-.894.732-1.626 1.628-1.626h.04c.896 0 1.63.732 1.63 1.626 0 .895-.734 1.626-1.63 1.626zm-5.333 0a1.632 1.632 0 01-1.629-1.626c0-.894.692-1.626 1.629-1.626h.04c.896 0 1.629.732 1.629 1.626 0 .895-.774 1.626-1.67 1.626zm-5.333 0a1.632 1.632 0 01-1.629-1.626c0-.894.692-1.626 1.629-1.626h.04c.896 0 1.629.732 1.629 1.626 0 .895-.774 1.626-1.67 1.626zm-5.333 0h-.041a1.632 1.632 0 01-1.629-1.626c0-.894.733-1.626 1.629-1.626h.04c.896 0 1.629.732 1.629 1.626 0 .895-.733 1.626-1.628 1.626zm-5.333 0h-.041a1.632 1.632 0 01-1.629-1.626c0-.894.733-1.626 1.629-1.626h.04c.896 0 1.629.732 1.629 1.626 0 .895-.733 1.626-1.628 1.626zm-5.334 0h-.04a1.632 1.632 0 01-1.629-1.626c0-.894.733-1.626 1.629-1.626h.04c.896 0 1.629.732 1.629 1.626 0 .895-.733 1.626-1.629 1.626zm-5.332 0h-.041a1.632 1.632 0 01-1.629-1.626c0-.894.733-1.626 1.629-1.626h.04c.896 0 1.629.732 1.629 1.626 0 .895-.733 1.626-1.629 1.626zm-5.334 0a1.632 1.632 0 01-1.628-1.626c0-.894.692-1.626 1.629-1.626h.04c.896 0 1.629.732 1.629 1.626 0 .895-.774 1.626-1.67 1.626zm-5.333 0a1.632 1.632 0 01-1.628-1.626c0-.894.692-1.626 1.628-1.626h.041c.896 0 1.629.732 1.629 1.626 0 .895-.774 1.626-1.67 1.626zm-5.333 0h-.04a1.632 1.632 0 01-1.629-1.626c0-.894.733-1.626 1.629-1.626h.04c.896 0 1.629.732 1.629 1.626 0 .895-.692 1.626-1.629 1.626zm-5.292 0h-.04a1.632 1.632 0 01-1.629-1.626c0-.894.733-1.626 1.628-1.626h.041c.896 0 1.628.732 1.628 1.626a1.63 1.63 0 01-1.628 1.626zm-5.333 0h-.04a1.632 1.632 0 01-1.629-1.626c0-.894.733-1.626 1.628-1.626h.041c.896 0 1.628.732 1.628 1.626a1.63 1.63 0 01-1.628 1.626zm-5.333 0h-.04a1.632 1.632 0 01-1.63-1.626c0-.894.734-1.626 1.63-1.626h.04c.896 0 1.628.732 1.628 1.626a1.63 1.63 0 01-1.628 1.626zm-5.333 0a1.632 1.632 0 01-1.628-1.626c0-.894.692-1.626 1.628-1.626h.04c.896 0 1.63.732 1.63 1.626 0 .895-.774 1.626-1.67 1.626zm-5.333 0a1.632 1.632 0 01-1.628-1.626c0-.894.692-1.626 1.628-1.626h.04c.896 0 1.63.732 1.63 1.626 0 .895-.774 1.626-1.67 1.626zm-5.333 0h-.04a1.632 1.632 0 01-1.63-1.626c0-.894.734-1.626 1.63-1.626h.04c.896 0 1.628.732 1.628 1.626a1.63 1.63 0 01-1.628 1.626zm-5.333 0h-.04a1.632 1.632 0 01-1.63-1.626c0-.894.734-1.626 1.63-1.626h.04c.895 0 1.628.732 1.628 1.626a1.63 1.63 0 01-1.628 1.626zm-5.333 0h-.04a1.632 1.632 0 01-1.63-1.626c0-.894.734-1.626 1.63-1.626h.04c.896 0 1.628.732 1.628 1.626a1.63 1.63 0 01-1.628 1.626zm111.902 0a1.632 1.632 0 01-1.629-1.626c0-.894.733-1.626 1.629-1.626.895 0 1.628.732 1.628 1.626 0 .895-.733 1.626-1.628 1.626zM2.136 71.543a1.632 1.632 0 01-1.628-1.626c0-.894.733-1.626 1.628-1.626.896 0 1.629.732 1.629 1.626 0 .894-.733 1.626-1.629 1.626zm111.913 0h-.041a1.632 1.632 0 01-1.628-1.626c0-.894.733-1.626 1.628-1.626h.041c.896 0 1.628.732 1.628 1.626 0 .894-.732 1.626-1.628 1.626zm-5.333 0h-.041a1.632 1.632 0 01-1.628-1.626c0-.894.733-1.626 1.628-1.626h.041c.896 0 1.628.732 1.628 1.626 0 .894-.692 1.626-1.628 1.626zm-5.292 0h-.041a1.631 1.631 0 01-1.628-1.626c0-.894.732-1.626 1.628-1.626h.041c.895 0 1.628.732 1.628 1.626 0 .894-.733 1.626-1.628 1.626zm-5.333 0h-.041a1.632 1.632 0 01-1.628-1.626c0-.894.732-1.626 1.628-1.626h.04c.896 0 1.63.732 1.63 1.626 0 .894-.734 1.626-1.63 1.626zm-5.333 0a1.632 1.632 0 01-1.629-1.626c0-.894.692-1.626 1.629-1.626h.04c.896 0 1.629.732 1.629 1.626 0 .894-.774 1.626-1.67 1.626zm-5.333 0a1.632 1.632 0 01-1.629-1.626c0-.894.692-1.626 1.629-1.626h.04c.896 0 1.629.732 1.629 1.626 0 .894-.774 1.626-1.67 1.626zm-5.333 0h-.041a1.632 1.632 0 01-1.629-1.626c0-.894.733-1.626 1.629-1.626h.04c.896 0 1.629.732 1.629 1.626 0 .894-.733 1.626-1.628 1.626zm-5.333 0h-.041a1.632 1.632 0 01-1.629-1.626c0-.894.733-1.626 1.629-1.626h.04c.896 0 1.629.732 1.629 1.626 0 .894-.733 1.626-1.628 1.626zm-5.334 0h-.04a1.632 1.632 0 01-1.629-1.626c0-.894.733-1.626 1.629-1.626h.04c.896 0 1.629.732 1.629 1.626 0 .894-.733 1.626-1.629 1.626zm-5.332 0h-.041a1.632 1.632 0 01-1.629-1.626c0-.894.733-1.626 1.629-1.626h.04c.896 0 1.629.732 1.629 1.626 0 .894-.733 1.626-1.629 1.626zm-5.334 0a1.632 1.632 0 01-1.628-1.626c0-.894.692-1.626 1.629-1.626h.04c.896 0 1.629.732 1.629 1.626 0 .894-.774 1.626-1.67 1.626zm-5.333 0a1.632 1.632 0 01-1.628-1.626c0-.894.692-1.626 1.628-1.626h.041c.896 0 1.629.732 1.629 1.626 0 .894-.774 1.626-1.67 1.626zm-5.333 0h-.04a1.632 1.632 0 01-1.629-1.626c0-.894.733-1.626 1.629-1.626h.04c.896 0 1.629.732 1.629 1.626 0 .894-.692 1.626-1.629 1.626zm-5.292 0h-.04a1.632 1.632 0 01-1.629-1.626c0-.894.733-1.626 1.628-1.626h.041c.896 0 1.628.732 1.628 1.626 0 .894-.732 1.626-1.628 1.626zm-5.333 0h-.04a1.632 1.632 0 01-1.629-1.626c0-.894.733-1.626 1.628-1.626h.041c.896 0 1.628.732 1.628 1.626 0 .894-.732 1.626-1.628 1.626zm-5.333 0h-.04a1.632 1.632 0 01-1.63-1.626c0-.894.734-1.626 1.63-1.626h.04c.896 0 1.628.732 1.628 1.626 0 .894-.732 1.626-1.628 1.626zm-5.333 0a1.632 1.632 0 01-1.628-1.626c0-.894.692-1.626 1.628-1.626h.04c.896 0 1.63.732 1.63 1.626 0 .894-.774 1.626-1.67 1.626zm-5.333 0a1.632 1.632 0 01-1.628-1.626c0-.894.692-1.626 1.628-1.626h.04c.896 0 1.63.732 1.63 1.626 0 .894-.774 1.626-1.67 1.626zm-5.333 0h-.04a1.632 1.632 0 01-1.63-1.626c0-.894.734-1.626 1.63-1.626h.04c.896 0 1.628.732 1.628 1.626 0 .894-.732 1.626-1.628 1.626zm-5.333 0h-.04a1.632 1.632 0 01-1.63-1.626c0-.894.734-1.626 1.63-1.626h.04c.895 0 1.628.732 1.628 1.626 0 .894-.732 1.626-1.628 1.626zm-5.333 0h-.04a1.632 1.632 0 01-1.63-1.626c0-.894.734-1.626 1.63-1.626h.04c.896 0 1.628.732 1.628 1.626 0 .894-.732 1.626-1.628 1.626zm111.902 0a1.632 1.632 0 01-1.629-1.626c0-.894.733-1.626 1.629-1.626.895 0 1.628.732 1.628 1.626 0 .894-.733 1.626-1.628 1.626zM2.136 65.852a1.632 1.632 0 01-1.628-1.626c0-.895.733-1.626 1.628-1.626.896 0 1.629.731 1.629 1.626 0 .894-.733 1.626-1.629 1.626zm111.913 0h-.041a1.632 1.632 0 01-1.628-1.626c0-.895.733-1.626 1.628-1.626h.041a1.63 1.63 0 011.628 1.626c0 .894-.732 1.626-1.628 1.626zm-5.333 0h-.041a1.632 1.632 0 01-1.628-1.626c0-.895.733-1.626 1.628-1.626h.041a1.63 1.63 0 011.628 1.626c0 .894-.692 1.626-1.628 1.626zm-5.292 0h-.041a1.631 1.631 0 01-1.628-1.626 1.63 1.63 0 011.628-1.626h.041c.895 0 1.628.731 1.628 1.626 0 .894-.733 1.626-1.628 1.626zm-5.333 0h-.041a1.632 1.632 0 01-1.628-1.626A1.63 1.63 0 0198.05 62.6h.04c.896 0 1.63.731 1.63 1.626 0 .894-.734 1.626-1.63 1.626zm-5.333 0a1.632 1.632 0 01-1.629-1.626c0-.895.692-1.626 1.629-1.626h.04c.896 0 1.629.731 1.629 1.626 0 .894-.774 1.626-1.67 1.626zm-5.333 0a1.632 1.632 0 01-1.629-1.626c0-.895.692-1.626 1.629-1.626h.04c.896 0 1.629.731 1.629 1.626 0 .894-.774 1.626-1.67 1.626zm-5.333 0h-.041a1.632 1.632 0 01-1.629-1.626c0-.895.733-1.626 1.629-1.626h.04c.896 0 1.629.731 1.629 1.626 0 .894-.733 1.626-1.628 1.626zm-5.333 0h-.041a1.632 1.632 0 01-1.629-1.626c0-.895.733-1.626 1.629-1.626h.04c.896 0 1.629.731 1.629 1.626 0 .894-.733 1.626-1.628 1.626zm-5.334 0h-.04a1.632 1.632 0 01-1.629-1.626c0-.895.733-1.626 1.629-1.626h.04c.896 0 1.629.731 1.629 1.626 0 .894-.733 1.626-1.629 1.626zm-5.332 0h-.041a1.632 1.632 0 01-1.629-1.626c0-.895.733-1.626 1.629-1.626h.04c.896 0 1.629.731 1.629 1.626 0 .894-.733 1.626-1.629 1.626zm-5.334 0a1.632 1.632 0 01-1.628-1.626c0-.895.692-1.626 1.629-1.626h.04c.896 0 1.629.731 1.629 1.626 0 .894-.774 1.626-1.67 1.626zm-5.333 0a1.632 1.632 0 01-1.628-1.626c0-.895.692-1.626 1.628-1.626h.041c.896 0 1.629.731 1.629 1.626 0 .894-.774 1.626-1.67 1.626zm-5.333 0h-.04a1.632 1.632 0 01-1.629-1.626c0-.895.733-1.626 1.629-1.626h.04c.896 0 1.629.731 1.629 1.626 0 .894-.692 1.626-1.629 1.626zm-5.292 0h-.04a1.632 1.632 0 01-1.629-1.626c0-.895.733-1.626 1.628-1.626h.041a1.63 1.63 0 011.628 1.626c0 .894-.732 1.626-1.628 1.626zm-5.333 0h-.04a1.632 1.632 0 01-1.629-1.626c0-.895.733-1.626 1.628-1.626h.041a1.63 1.63 0 011.628 1.626c0 .894-.732 1.626-1.628 1.626zm-5.333 0h-.04a1.632 1.632 0 01-1.63-1.626c0-.895.734-1.626 1.63-1.626h.04a1.63 1.63 0 011.628 1.626c0 .894-.732 1.626-1.628 1.626zm-5.333 0a1.632 1.632 0 01-1.628-1.626c0-.895.692-1.626 1.628-1.626h.04c.896 0 1.63.731 1.63 1.626 0 .894-.774 1.626-1.67 1.626zm-5.333 0a1.632 1.632 0 01-1.628-1.626c0-.895.692-1.626 1.628-1.626h.04c.896 0 1.63.731 1.63 1.626 0 .894-.774 1.626-1.67 1.626zm-5.333 0h-.04a1.632 1.632 0 01-1.63-1.626c0-.895.734-1.626 1.63-1.626h.04a1.63 1.63 0 011.628 1.626c0 .894-.732 1.626-1.628 1.626zm-5.333 0h-.04a1.632 1.632 0 01-1.63-1.626c0-.895.734-1.626 1.63-1.626h.04c.895 0 1.628.731 1.628 1.626 0 .894-.732 1.626-1.628 1.626zm-5.333 0h-.04a1.632 1.632 0 01-1.63-1.626c0-.895.734-1.626 1.63-1.626h.04a1.63 1.63 0 011.628 1.626c0 .894-.732 1.626-1.628 1.626zm111.902 0a1.632 1.632 0 01-1.629-1.626c0-.895.733-1.626 1.629-1.626.895 0 1.628.731 1.628 1.626 0 .894-.733 1.626-1.628 1.626zM2.136 60.161a1.632 1.632 0 01-1.628-1.626c0-.894.733-1.626 1.628-1.626.896 0 1.629.732 1.629 1.626 0 .894-.733 1.626-1.629 1.626zm111.913 0h-.041a1.632 1.632 0 01-1.628-1.626c0-.894.733-1.626 1.628-1.626h.041c.896 0 1.628.732 1.628 1.626 0 .894-.732 1.626-1.628 1.626zm-5.333 0h-.041a1.632 1.632 0 01-1.628-1.626c0-.894.733-1.626 1.628-1.626h.041c.896 0 1.628.732 1.628 1.626 0 .894-.692 1.626-1.628 1.626zm-5.292 0h-.041a1.631 1.631 0 01-1.628-1.626c0-.894.732-1.626 1.628-1.626h.041c.895 0 1.628.732 1.628 1.626 0 .894-.733 1.626-1.628 1.626zm-5.333 0h-.041a1.632 1.632 0 01-1.628-1.626c0-.894.732-1.626 1.628-1.626h.04c.896 0 1.63.732 1.63 1.626 0 .894-.734 1.626-1.63 1.626zm-5.333 0a1.632 1.632 0 01-1.629-1.626c0-.894.692-1.626 1.629-1.626h.04c.896 0 1.629.732 1.629 1.626 0 .894-.774 1.626-1.67 1.626zm-5.333 0a1.632 1.632 0 01-1.629-1.626c0-.894.692-1.626 1.629-1.626h.04c.896 0 1.629.732 1.629 1.626 0 .894-.774 1.626-1.67 1.626zm-5.333 0h-.041a1.632 1.632 0 01-1.629-1.626c0-.894.733-1.626 1.629-1.626h.04c.896 0 1.629.732 1.629 1.626 0 .894-.733 1.626-1.628 1.626zm-5.333 0h-.041a1.632 1.632 0 01-1.629-1.626c0-.894.733-1.626 1.629-1.626h.04c.896 0 1.629.732 1.629 1.626 0 .894-.733 1.626-1.628 1.626zm-5.334 0h-.04a1.632 1.632 0 01-1.629-1.626c0-.894.733-1.626 1.629-1.626h.04c.896 0 1.629.732 1.629 1.626 0 .894-.733 1.626-1.629 1.626zm-5.332 0h-.041a1.632 1.632 0 01-1.629-1.626c0-.894.733-1.626 1.629-1.626h.04c.896 0 1.629.732 1.629 1.626 0 .894-.733 1.626-1.629 1.626zm-5.334 0a1.632 1.632 0 01-1.628-1.626c0-.894.692-1.626 1.629-1.626h.04c.896 0 1.629.732 1.629 1.626 0 .894-.774 1.626-1.67 1.626zm-5.333 0a1.632 1.632 0 01-1.628-1.626c0-.894.692-1.626 1.628-1.626h.041c.896 0 1.629.732 1.629 1.626 0 .894-.774 1.626-1.67 1.626zm-5.333 0h-.04a1.632 1.632 0 01-1.629-1.626c0-.894.733-1.626 1.629-1.626h.04c.896 0 1.629.732 1.629 1.626 0 .894-.692 1.626-1.629 1.626zm-5.292 0h-.04a1.632 1.632 0 01-1.629-1.626c0-.894.733-1.626 1.628-1.626h.041c.896 0 1.628.732 1.628 1.626 0 .894-.732 1.626-1.628 1.626zm-5.333 0h-.04a1.632 1.632 0 01-1.629-1.626c0-.894.733-1.626 1.628-1.626h.041c.896 0 1.628.732 1.628 1.626 0 .894-.732 1.626-1.628 1.626zm-5.333 0h-.04a1.632 1.632 0 01-1.63-1.626c0-.894.734-1.626 1.63-1.626h.04c.896 0 1.628.732 1.628 1.626 0 .894-.732 1.626-1.628 1.626zm-5.333 0a1.632 1.632 0 01-1.628-1.626c0-.894.692-1.626 1.628-1.626h.04c.896 0 1.63.732 1.63 1.626 0 .894-.774 1.626-1.67 1.626zm-5.333 0a1.632 1.632 0 01-1.628-1.626c0-.894.692-1.626 1.628-1.626h.04c.896 0 1.63.732 1.63 1.626 0 .894-.774 1.626-1.67 1.626zm-5.333 0h-.04a1.632 1.632 0 01-1.63-1.626c0-.894.734-1.626 1.63-1.626h.04c.896 0 1.628.732 1.628 1.626 0 .894-.732 1.626-1.628 1.626zm-5.333 0h-.04a1.632 1.632 0 01-1.63-1.626c0-.894.734-1.626 1.63-1.626h.04c.895 0 1.628.732 1.628 1.626 0 .894-.732 1.626-1.628 1.626zm-5.333 0h-.04a1.632 1.632 0 01-1.63-1.626c0-.894.734-1.626 1.63-1.626h.04c.896 0 1.628.732 1.628 1.626 0 .894-.732 1.626-1.628 1.626zm111.902 0a1.632 1.632 0 01-1.629-1.626c0-.894.733-1.626 1.629-1.626.895 0 1.628.732 1.628 1.626 0 .894-.733 1.626-1.628 1.626zM2.136 54.47a1.632 1.632 0 01-1.628-1.625c0-.895.733-1.626 1.628-1.626.896 0 1.629.731 1.629 1.626 0 .894-.733 1.626-1.629 1.626zm111.913 0h-.041a1.632 1.632 0 01-1.628-1.625c0-.895.733-1.626 1.628-1.626h.041a1.63 1.63 0 011.628 1.626c0 .894-.732 1.626-1.628 1.626zm-5.333 0h-.041a1.632 1.632 0 01-1.628-1.625c0-.895.733-1.626 1.628-1.626h.041a1.63 1.63 0 011.628 1.626c0 .894-.692 1.626-1.628 1.626zm-5.292 0h-.041a1.631 1.631 0 01-1.628-1.625 1.63 1.63 0 011.628-1.626h.041c.895 0 1.628.731 1.628 1.626 0 .894-.733 1.626-1.628 1.626zm-5.333 0h-.041a1.632 1.632 0 01-1.628-1.625 1.63 1.63 0 011.628-1.626h.04c.896 0 1.63.731 1.63 1.626 0 .894-.734 1.626-1.63 1.626zm-5.333 0a1.632 1.632 0 01-1.629-1.625c0-.895.692-1.626 1.629-1.626h.04c.896 0 1.629.731 1.629 1.626 0 .894-.774 1.626-1.67 1.626zm-5.333 0a1.632 1.632 0 01-1.629-1.625c0-.895.692-1.626 1.629-1.626h.04c.896 0 1.629.731 1.629 1.626 0 .894-.774 1.626-1.67 1.626zm-5.333 0h-.041a1.632 1.632 0 01-1.629-1.625c0-.895.733-1.626 1.629-1.626h.04c.896 0 1.629.731 1.629 1.626 0 .894-.733 1.626-1.628 1.626zm-5.333 0h-.041a1.632 1.632 0 01-1.629-1.625c0-.895.733-1.626 1.629-1.626h.04c.896 0 1.629.731 1.629 1.626 0 .894-.733 1.626-1.628 1.626zm-5.334 0h-.04a1.632 1.632 0 01-1.629-1.625c0-.895.733-1.626 1.629-1.626h.04c.896 0 1.629.731 1.629 1.626 0 .894-.733 1.626-1.629 1.626zm-5.332 0h-.041a1.632 1.632 0 01-1.629-1.625c0-.895.733-1.626 1.629-1.626h.04c.896 0 1.629.731 1.629 1.626 0 .894-.733 1.626-1.629 1.626zm-5.334 0a1.632 1.632 0 01-1.628-1.625c0-.895.692-1.626 1.629-1.626h.04c.896 0 1.629.731 1.629 1.626 0 .894-.774 1.626-1.67 1.626zm-5.333 0a1.632 1.632 0 01-1.628-1.625c0-.895.692-1.626 1.628-1.626h.041c.896 0 1.629.731 1.629 1.626 0 .894-.774 1.626-1.67 1.626zm-5.333 0h-.04a1.632 1.632 0 01-1.629-1.625c0-.895.733-1.626 1.629-1.626h.04c.896 0 1.629.731 1.629 1.626 0 .894-.692 1.626-1.629 1.626zm-5.292 0h-.04a1.632 1.632 0 01-1.629-1.625c0-.895.733-1.626 1.628-1.626h.041a1.63 1.63 0 011.628 1.626c0 .894-.732 1.626-1.628 1.626zm-5.333 0h-.04a1.632 1.632 0 01-1.629-1.625c0-.895.733-1.626 1.628-1.626h.041a1.63 1.63 0 011.628 1.626c0 .894-.732 1.626-1.628 1.626zm-5.333 0h-.04a1.632 1.632 0 01-1.63-1.625c0-.895.734-1.626 1.63-1.626h.04a1.63 1.63 0 011.628 1.626c0 .894-.732 1.626-1.628 1.626zm-5.333 0a1.632 1.632 0 01-1.628-1.625c0-.895.692-1.626 1.628-1.626h.04c.896 0 1.63.731 1.63 1.626 0 .894-.774 1.626-1.67 1.626zm-5.333 0a1.632 1.632 0 01-1.628-1.625c0-.895.692-1.626 1.628-1.626h.04c.896 0 1.63.731 1.63 1.626 0 .894-.774 1.626-1.67 1.626zm-5.333 0h-.04a1.632 1.632 0 01-1.63-1.625c0-.895.734-1.626 1.63-1.626h.04a1.63 1.63 0 011.628 1.626c0 .894-.732 1.626-1.628 1.626zm-5.333 0h-.04a1.632 1.632 0 01-1.63-1.625c0-.895.734-1.626 1.63-1.626h.04c.895 0 1.628.731 1.628 1.626 0 .894-.732 1.626-1.628 1.626zm-5.333 0h-.04a1.632 1.632 0 01-1.63-1.625c0-.895.734-1.626 1.63-1.626h.04a1.63 1.63 0 011.628 1.626c0 .894-.732 1.626-1.628 1.626zm111.902 0a1.632 1.632 0 01-1.629-1.625c0-.895.733-1.626 1.629-1.626.895 0 1.628.731 1.628 1.626 0 .894-.733 1.626-1.628 1.626zM2.136 48.78a1.632 1.632 0 01-1.628-1.627c0-.894.733-1.626 1.628-1.626.896 0 1.629.732 1.629 1.626 0 .895-.733 1.626-1.629 1.626zm111.913 0h-.041a1.632 1.632 0 01-1.628-1.627c0-.894.733-1.626 1.628-1.626h.041c.896 0 1.628.732 1.628 1.626a1.63 1.63 0 01-1.628 1.626zm-5.333 0h-.041a1.632 1.632 0 01-1.628-1.627c0-.894.733-1.626 1.628-1.626h.041c.896 0 1.628.732 1.628 1.626 0 .895-.692 1.626-1.628 1.626zm-5.292 0h-.041a1.631 1.631 0 01-1.628-1.627c0-.894.732-1.626 1.628-1.626h.041c.895 0 1.628.732 1.628 1.626 0 .895-.733 1.626-1.628 1.626zm-5.333 0h-.041a1.632 1.632 0 01-1.628-1.627c0-.894.732-1.626 1.628-1.626h.04c.896 0 1.63.732 1.63 1.626 0 .895-.734 1.626-1.63 1.626zm-5.333 0a1.632 1.632 0 01-1.629-1.627c0-.894.692-1.626 1.629-1.626h.04c.896 0 1.629.732 1.629 1.626 0 .895-.774 1.626-1.67 1.626zm-5.333 0a1.632 1.632 0 01-1.629-1.627c0-.894.692-1.626 1.629-1.626h.04c.896 0 1.629.732 1.629 1.626 0 .895-.774 1.626-1.67 1.626zm-5.333 0h-.041a1.632 1.632 0 01-1.629-1.627c0-.894.733-1.626 1.629-1.626h.04c.896 0 1.629.732 1.629 1.626 0 .895-.733 1.626-1.628 1.626zm-5.333 0h-.041a1.632 1.632 0 01-1.629-1.627c0-.894.733-1.626 1.629-1.626h.04c.896 0 1.629.732 1.629 1.626 0 .895-.733 1.626-1.628 1.626zm-5.334 0h-.04a1.632 1.632 0 01-1.629-1.627c0-.894.733-1.626 1.629-1.626h.04c.896 0 1.629.732 1.629 1.626 0 .895-.733 1.626-1.629 1.626zm-5.332 0h-.041a1.632 1.632 0 01-1.629-1.627c0-.894.733-1.626 1.629-1.626h.04c.896 0 1.629.732 1.629 1.626 0 .895-.733 1.626-1.629 1.626zm-5.334 0a1.632 1.632 0 01-1.628-1.627c0-.894.692-1.626 1.629-1.626h.04c.896 0 1.629.732 1.629 1.626 0 .895-.774 1.626-1.67 1.626zm-5.333 0a1.632 1.632 0 01-1.628-1.627c0-.894.692-1.626 1.628-1.626h.041c.896 0 1.629.732 1.629 1.626 0 .895-.774 1.626-1.67 1.626zm-5.333 0h-.04a1.632 1.632 0 01-1.629-1.627c0-.894.733-1.626 1.629-1.626h.04c.896 0 1.629.732 1.629 1.626 0 .895-.692 1.626-1.629 1.626zm-5.292 0h-.04a1.632 1.632 0 01-1.629-1.627c0-.894.733-1.626 1.628-1.626h.041c.896 0 1.628.732 1.628 1.626a1.63 1.63 0 01-1.628 1.626zm-5.333 0h-.04a1.632 1.632 0 01-1.629-1.627c0-.894.733-1.626 1.628-1.626h.041c.896 0 1.628.732 1.628 1.626a1.63 1.63 0 01-1.628 1.626zm-5.333 0h-.04a1.632 1.632 0 01-1.63-1.627c0-.894.734-1.626 1.63-1.626h.04c.896 0 1.628.732 1.628 1.626a1.63 1.63 0 01-1.628 1.626zm-5.333 0a1.632 1.632 0 01-1.628-1.627c0-.894.692-1.626 1.628-1.626h.04c.896 0 1.63.732 1.63 1.626 0 .895-.774 1.626-1.67 1.626zm-5.333 0a1.632 1.632 0 01-1.628-1.627c0-.894.692-1.626 1.628-1.626h.04c.896 0 1.63.732 1.63 1.626 0 .895-.774 1.626-1.67 1.626zm-5.333 0h-.04a1.632 1.632 0 01-1.63-1.627c0-.894.734-1.626 1.63-1.626h.04c.896 0 1.628.732 1.628 1.626a1.63 1.63 0 01-1.628 1.626zm-5.333 0h-.04a1.632 1.632 0 01-1.63-1.627c0-.894.734-1.626 1.63-1.626h.04c.895 0 1.628.732 1.628 1.626a1.63 1.63 0 01-1.628 1.626zm-5.333 0h-.04a1.632 1.632 0 01-1.63-1.627c0-.894.734-1.626 1.63-1.626h.04c.896 0 1.628.732 1.628 1.626a1.63 1.63 0 01-1.628 1.626zm111.902 0a1.632 1.632 0 01-1.629-1.627c0-.894.733-1.626 1.629-1.626.895 0 1.628.732 1.628 1.626 0 .895-.733 1.626-1.628 1.626zM2.136 43.088a1.632 1.632 0 01-1.628-1.626c0-.894.733-1.626 1.628-1.626.896 0 1.629.732 1.629 1.626 0 .894-.733 1.626-1.629 1.626zm111.913-.001h-.041a1.632 1.632 0 01-1.628-1.626c0-.894.733-1.626 1.628-1.626h.041c.896 0 1.628.732 1.628 1.626 0 .894-.732 1.626-1.628 1.626zm-5.333 0h-.041a1.632 1.632 0 01-1.628-1.626c0-.894.733-1.626 1.628-1.626h.041c.896 0 1.628.732 1.628 1.626 0 .894-.692 1.626-1.628 1.626zm-5.292 0h-.041a1.631 1.631 0 01-1.628-1.626c0-.894.732-1.626 1.628-1.626h.041c.895 0 1.628.732 1.628 1.626 0 .894-.733 1.626-1.628 1.626zm-5.333 0h-.041a1.632 1.632 0 01-1.628-1.626c0-.894.732-1.626 1.628-1.626h.04c.896 0 1.63.732 1.63 1.626 0 .894-.734 1.626-1.63 1.626zm-5.333 0a1.632 1.632 0 01-1.629-1.626c0-.894.692-1.626 1.629-1.626h.04c.896 0 1.629.732 1.629 1.626 0 .894-.774 1.626-1.67 1.626zm-5.333 0a1.632 1.632 0 01-1.629-1.626c0-.894.692-1.626 1.629-1.626h.04c.896 0 1.629.732 1.629 1.626 0 .894-.774 1.626-1.67 1.626zm-5.333 0h-.041a1.632 1.632 0 01-1.629-1.626c0-.894.733-1.626 1.629-1.626h.04c.896 0 1.629.732 1.629 1.626 0 .894-.733 1.626-1.628 1.626zm-5.333 0h-.041a1.632 1.632 0 01-1.629-1.626c0-.894.733-1.626 1.629-1.626h.04c.896 0 1.629.732 1.629 1.626 0 .894-.733 1.626-1.628 1.626zm-5.334 0h-.04a1.632 1.632 0 01-1.629-1.626c0-.894.733-1.626 1.629-1.626h.04c.896 0 1.629.732 1.629 1.626 0 .894-.733 1.626-1.629 1.626zm-5.332 0h-.041a1.632 1.632 0 01-1.629-1.626c0-.894.733-1.626 1.629-1.626h.04c.896 0 1.629.732 1.629 1.626 0 .894-.733 1.626-1.629 1.626zm-5.334 0a1.632 1.632 0 01-1.628-1.626c0-.894.692-1.626 1.629-1.626h.04c.896 0 1.629.732 1.629 1.626 0 .894-.774 1.626-1.67 1.626zm-5.333 0a1.632 1.632 0 01-1.628-1.626c0-.894.692-1.626 1.628-1.626h.041c.896 0 1.629.732 1.629 1.626 0 .894-.774 1.626-1.67 1.626zm-5.333 0h-.04a1.632 1.632 0 01-1.629-1.626c0-.894.733-1.626 1.629-1.626h.04c.896 0 1.629.732 1.629 1.626 0 .894-.692 1.626-1.629 1.626zm-5.292 0h-.04a1.632 1.632 0 01-1.629-1.626c0-.894.733-1.626 1.628-1.626h.041c.896 0 1.628.732 1.628 1.626 0 .894-.732 1.626-1.628 1.626zm-5.333 0h-.04a1.632 1.632 0 01-1.629-1.626c0-.894.733-1.626 1.628-1.626h.041c.896 0 1.628.732 1.628 1.626 0 .894-.732 1.626-1.628 1.626zm-5.333 0h-.04a1.632 1.632 0 01-1.63-1.626c0-.894.734-1.626 1.63-1.626h.04c.896 0 1.628.732 1.628 1.626 0 .894-.732 1.626-1.628 1.626zm-5.333 0a1.632 1.632 0 01-1.628-1.626c0-.894.692-1.626 1.628-1.626h.04c.896 0 1.63.732 1.63 1.626 0 .894-.774 1.626-1.67 1.626zm-5.333 0a1.632 1.632 0 01-1.628-1.626c0-.894.692-1.626 1.628-1.626h.04c.896 0 1.63.732 1.63 1.626 0 .894-.774 1.626-1.67 1.626zm-5.333 0h-.04a1.632 1.632 0 01-1.63-1.626c0-.894.734-1.626 1.63-1.626h.04c.896 0 1.628.732 1.628 1.626 0 .894-.732 1.626-1.628 1.626zm-5.333 0h-.04a1.632 1.632 0 01-1.63-1.626c0-.894.734-1.626 1.63-1.626h.04c.895 0 1.628.732 1.628 1.626 0 .894-.732 1.626-1.628 1.626zm-5.333 0h-.04A1.632 1.632 0 015.8 41.46c0-.894.734-1.626 1.63-1.626h.04c.896 0 1.628.732 1.628 1.626 0 .894-.732 1.626-1.628 1.626zm111.902 0a1.632 1.632 0 01-1.629-1.626c0-.894.733-1.626 1.629-1.626.895 0 1.628.732 1.628 1.626 0 .894-.733 1.626-1.628 1.626zM2.136 37.398A1.632 1.632 0 01.508 35.77c0-.894.733-1.626 1.628-1.626.896 0 1.629.732 1.629 1.627 0 .894-.733 1.626-1.629 1.626zm111.913 0h-.041a1.632 1.632 0 01-1.628-1.627c0-.894.733-1.626 1.628-1.626h.041c.896 0 1.628.732 1.628 1.627 0 .894-.732 1.626-1.628 1.626zm-5.333 0h-.041a1.632 1.632 0 01-1.628-1.627c0-.894.733-1.626 1.628-1.626h.041c.896 0 1.628.732 1.628 1.627 0 .894-.692 1.626-1.628 1.626zm-5.292 0h-.041a1.631 1.631 0 01-1.628-1.627c0-.894.732-1.626 1.628-1.626h.041c.895 0 1.628.732 1.628 1.627 0 .894-.733 1.626-1.628 1.626zm-5.333 0h-.041a1.632 1.632 0 01-1.628-1.627c0-.894.732-1.626 1.628-1.626h.04c.896 0 1.63.732 1.63 1.627 0 .894-.734 1.626-1.63 1.626zm-5.333 0a1.632 1.632 0 01-1.629-1.627c0-.894.692-1.626 1.629-1.626h.04c.896 0 1.629.732 1.629 1.627 0 .894-.774 1.626-1.67 1.626zm-5.333 0a1.632 1.632 0 01-1.629-1.627c0-.894.692-1.626 1.629-1.626h.04c.896 0 1.629.732 1.629 1.627 0 .894-.774 1.626-1.67 1.626zm-5.333 0h-.041a1.632 1.632 0 01-1.629-1.627c0-.894.733-1.626 1.629-1.626h.04c.896 0 1.629.732 1.629 1.627 0 .894-.733 1.626-1.628 1.626zm-5.333 0h-.041a1.632 1.632 0 01-1.629-1.627c0-.894.733-1.626 1.629-1.626h.04c.896 0 1.629.732 1.629 1.627 0 .894-.733 1.626-1.628 1.626zm-5.334 0h-.04a1.632 1.632 0 01-1.629-1.627c0-.894.733-1.626 1.629-1.626h.04c.896 0 1.629.732 1.629 1.627 0 .894-.733 1.626-1.629 1.626zm-5.332 0h-.041a1.632 1.632 0 01-1.629-1.627c0-.894.733-1.626 1.629-1.626h.04c.896 0 1.629.732 1.629 1.627 0 .894-.733 1.626-1.629 1.626zm-5.334 0a1.632 1.632 0 01-1.628-1.627c0-.894.692-1.626 1.629-1.626h.04c.896 0 1.629.732 1.629 1.627 0 .894-.774 1.626-1.67 1.626zm-5.333 0a1.632 1.632 0 01-1.628-1.627c0-.894.692-1.626 1.628-1.626h.041c.896 0 1.629.732 1.629 1.627 0 .894-.774 1.626-1.67 1.626zm-5.333 0h-.04a1.632 1.632 0 01-1.629-1.627c0-.894.733-1.626 1.629-1.626h.04c.896 0 1.629.732 1.629 1.627 0 .894-.692 1.626-1.629 1.626zm-5.292 0h-.04a1.632 1.632 0 01-1.629-1.627c0-.894.733-1.626 1.628-1.626h.041c.896 0 1.628.732 1.628 1.627 0 .894-.732 1.626-1.628 1.626zm-5.333 0h-.04a1.632 1.632 0 01-1.629-1.627c0-.894.733-1.626 1.628-1.626h.041c.896 0 1.628.732 1.628 1.627 0 .894-.732 1.626-1.628 1.626zm-5.333 0h-.04a1.632 1.632 0 01-1.63-1.627c0-.894.734-1.626 1.63-1.626h.04c.896 0 1.628.732 1.628 1.627 0 .894-.732 1.626-1.628 1.626zm-5.333 0a1.632 1.632 0 01-1.628-1.627c0-.894.692-1.626 1.628-1.626h.04c.896 0 1.63.732 1.63 1.627 0 .894-.774 1.626-1.67 1.626zm-5.333 0a1.632 1.632 0 01-1.628-1.627c0-.894.692-1.626 1.628-1.626h.04c.896 0 1.63.732 1.63 1.627 0 .894-.774 1.626-1.67 1.626zm-5.333 0h-.04a1.632 1.632 0 01-1.63-1.627c0-.894.734-1.626 1.63-1.626h.04c.896 0 1.628.732 1.628 1.627 0 .894-.732 1.626-1.628 1.626zm-5.333 0h-.04a1.632 1.632 0 01-1.63-1.627c0-.894.734-1.626 1.63-1.626h.04c.895 0 1.628.732 1.628 1.627 0 .894-.732 1.626-1.628 1.626zm-5.333 0h-.04A1.632 1.632 0 015.8 35.77c0-.894.734-1.626 1.63-1.626h.04c.896 0 1.628.732 1.628 1.627 0 .894-.732 1.626-1.628 1.626zm111.902 0a1.632 1.632 0 01-1.629-1.627c0-.894.733-1.626 1.629-1.626.895 0 1.628.732 1.628 1.627 0 .894-.733 1.626-1.628 1.626zM2.136 31.706A1.632 1.632 0 01.508 30.08c0-.894.733-1.626 1.628-1.626.896 0 1.629.732 1.629 1.626 0 .894-.733 1.626-1.629 1.626zm111.913 0h-.041a1.632 1.632 0 01-1.628-1.626c0-.894.733-1.626 1.628-1.626h.041c.896 0 1.628.732 1.628 1.626 0 .894-.732 1.626-1.628 1.626zm-5.333 0h-.041a1.632 1.632 0 01-1.628-1.626c0-.894.733-1.626 1.628-1.626h.041c.896 0 1.628.732 1.628 1.626 0 .894-.692 1.626-1.628 1.626zm-5.292 0h-.041a1.631 1.631 0 01-1.628-1.626c0-.894.732-1.626 1.628-1.626h.041c.895 0 1.628.732 1.628 1.626 0 .894-.733 1.626-1.628 1.626zm-5.333 0h-.041a1.632 1.632 0 01-1.628-1.626c0-.894.732-1.626 1.628-1.626h.04c.896 0 1.63.732 1.63 1.626 0 .894-.734 1.626-1.63 1.626zm-5.333 0a1.632 1.632 0 01-1.629-1.626c0-.894.692-1.626 1.629-1.626h.04c.896 0 1.629.732 1.629 1.626 0 .894-.774 1.626-1.67 1.626zm-5.333 0a1.632 1.632 0 01-1.629-1.626c0-.894.692-1.626 1.629-1.626h.04c.896 0 1.629.732 1.629 1.626 0 .894-.774 1.626-1.67 1.626zm-5.333 0h-.041a1.632 1.632 0 01-1.629-1.626c0-.894.733-1.626 1.629-1.626h.04c.896 0 1.629.732 1.629 1.626 0 .894-.733 1.626-1.628 1.626zm-5.333 0h-.041a1.632 1.632 0 01-1.629-1.626c0-.894.733-1.626 1.629-1.626h.04c.896 0 1.629.732 1.629 1.626 0 .894-.733 1.626-1.628 1.626zm-5.334 0h-.04a1.632 1.632 0 01-1.629-1.626c0-.894.733-1.626 1.629-1.626h.04c.896 0 1.629.732 1.629 1.626 0 .894-.733 1.626-1.629 1.626zm-5.332 0h-.041a1.632 1.632 0 01-1.629-1.626c0-.894.733-1.626 1.629-1.626h.04c.896 0 1.629.732 1.629 1.626 0 .894-.733 1.626-1.629 1.626zm-5.334 0a1.632 1.632 0 01-1.628-1.626c0-.894.692-1.626 1.629-1.626h.04c.896 0 1.629.732 1.629 1.626 0 .894-.774 1.626-1.67 1.626zm-5.333 0a1.632 1.632 0 01-1.628-1.626c0-.894.692-1.626 1.628-1.626h.041c.896 0 1.629.732 1.629 1.626 0 .894-.774 1.626-1.67 1.626zm-5.333 0h-.04a1.632 1.632 0 01-1.629-1.626c0-.894.733-1.626 1.629-1.626h.04c.896 0 1.629.732 1.629 1.626 0 .894-.692 1.626-1.629 1.626zm-5.292 0h-.04a1.632 1.632 0 01-1.629-1.626c0-.894.733-1.626 1.628-1.626h.041c.896 0 1.628.732 1.628 1.626 0 .894-.732 1.626-1.628 1.626zm-5.333 0h-.04a1.632 1.632 0 01-1.629-1.626c0-.894.733-1.626 1.628-1.626h.041c.896 0 1.628.732 1.628 1.626 0 .894-.732 1.626-1.628 1.626zm-5.333 0h-.04a1.632 1.632 0 01-1.63-1.626c0-.894.734-1.626 1.63-1.626h.04c.896 0 1.628.732 1.628 1.626 0 .894-.732 1.626-1.628 1.626zm-5.333 0a1.632 1.632 0 01-1.628-1.626c0-.894.692-1.626 1.628-1.626h.04c.896 0 1.63.732 1.63 1.626 0 .894-.774 1.626-1.67 1.626zm-5.333 0a1.632 1.632 0 01-1.628-1.626c0-.894.692-1.626 1.628-1.626h.04c.896 0 1.63.732 1.63 1.626 0 .894-.774 1.626-1.67 1.626zm-5.333 0h-.04a1.632 1.632 0 01-1.63-1.626c0-.894.734-1.626 1.63-1.626h.04c.896 0 1.628.732 1.628 1.626 0 .894-.732 1.626-1.628 1.626zm-5.333 0h-.04a1.632 1.632 0 01-1.63-1.626c0-.894.734-1.626 1.63-1.626h.04c.895 0 1.628.732 1.628 1.626 0 .894-.732 1.626-1.628 1.626zm-5.333 0h-.04A1.632 1.632 0 015.8 30.08c0-.894.734-1.626 1.63-1.626h.04c.896 0 1.628.732 1.628 1.626 0 .894-.732 1.626-1.628 1.626zm111.902 0a1.632 1.632 0 01-1.629-1.626c0-.894.733-1.626 1.629-1.626.895 0 1.628.732 1.628 1.626 0 .894-.733 1.626-1.628 1.626zM2.136 26.016A1.632 1.632 0 01.508 24.39c0-.895.733-1.626 1.628-1.626.896 0 1.629.731 1.629 1.626 0 .894-.733 1.626-1.629 1.626zm111.913 0h-.041a1.632 1.632 0 01-1.628-1.626c0-.895.733-1.626 1.628-1.626h.041a1.63 1.63 0 011.628 1.626c0 .894-.732 1.626-1.628 1.626zm-5.333 0h-.041a1.632 1.632 0 01-1.628-1.626c0-.895.733-1.626 1.628-1.626h.041a1.63 1.63 0 011.628 1.626c0 .894-.692 1.626-1.628 1.626zm-5.292 0h-.041a1.631 1.631 0 01-1.628-1.626 1.63 1.63 0 011.628-1.626h.041c.895 0 1.628.731 1.628 1.626 0 .894-.733 1.626-1.628 1.626zm-5.333 0h-.041a1.632 1.632 0 01-1.628-1.626 1.63 1.63 0 011.628-1.626h.04c.896 0 1.63.731 1.63 1.626 0 .894-.734 1.626-1.63 1.626zm-5.333 0a1.632 1.632 0 01-1.629-1.626c0-.895.692-1.626 1.629-1.626h.04c.896 0 1.629.731 1.629 1.626 0 .894-.774 1.626-1.67 1.626zm-5.333 0a1.632 1.632 0 01-1.629-1.626c0-.895.692-1.626 1.629-1.626h.04c.896 0 1.629.731 1.629 1.626 0 .894-.774 1.626-1.67 1.626zm-5.333 0h-.041a1.632 1.632 0 01-1.629-1.626c0-.895.733-1.626 1.629-1.626h.04c.896 0 1.629.731 1.629 1.626 0 .894-.733 1.626-1.628 1.626zm-5.333 0h-.041a1.632 1.632 0 01-1.629-1.626c0-.895.733-1.626 1.629-1.626h.04c.896 0 1.629.731 1.629 1.626 0 .894-.733 1.626-1.628 1.626zm-5.334 0h-.04a1.632 1.632 0 01-1.629-1.626c0-.895.733-1.626 1.629-1.626h.04c.896 0 1.629.731 1.629 1.626 0 .894-.733 1.626-1.629 1.626zm-5.332 0h-.041a1.632 1.632 0 01-1.629-1.626c0-.895.733-1.626 1.629-1.626h.04c.896 0 1.629.731 1.629 1.626 0 .894-.733 1.626-1.629 1.626zm-5.334 0a1.632 1.632 0 01-1.628-1.626c0-.895.692-1.626 1.629-1.626h.04c.896 0 1.629.731 1.629 1.626 0 .894-.774 1.626-1.67 1.626zm-5.333 0a1.632 1.632 0 01-1.628-1.626c0-.895.692-1.626 1.628-1.626h.041c.896 0 1.629.731 1.629 1.626 0 .894-.774 1.626-1.67 1.626zm-5.333 0h-.04a1.632 1.632 0 01-1.629-1.626c0-.895.733-1.626 1.629-1.626h.04c.896 0 1.629.731 1.629 1.626 0 .894-.692 1.626-1.629 1.626zm-5.292 0h-.04a1.632 1.632 0 01-1.629-1.626c0-.895.733-1.626 1.628-1.626h.041a1.63 1.63 0 011.628 1.626c0 .894-.732 1.626-1.628 1.626zm-5.333 0h-.04a1.632 1.632 0 01-1.629-1.626c0-.895.733-1.626 1.628-1.626h.041a1.63 1.63 0 011.628 1.626c0 .894-.732 1.626-1.628 1.626zm-5.333 0h-.04a1.632 1.632 0 01-1.63-1.626c0-.895.734-1.626 1.63-1.626h.04a1.63 1.63 0 011.628 1.626c0 .894-.732 1.626-1.628 1.626zm-5.333 0a1.632 1.632 0 01-1.628-1.626c0-.895.692-1.626 1.628-1.626h.04c.896 0 1.63.731 1.63 1.626 0 .894-.774 1.626-1.67 1.626zm-5.333 0a1.632 1.632 0 01-1.628-1.626c0-.895.692-1.626 1.628-1.626h.04c.896 0 1.63.731 1.63 1.626 0 .894-.774 1.626-1.67 1.626zm-5.333 0h-.04a1.632 1.632 0 01-1.63-1.626c0-.895.734-1.626 1.63-1.626h.04a1.63 1.63 0 011.628 1.626c0 .894-.732 1.626-1.628 1.626zm-5.333 0h-.04a1.632 1.632 0 01-1.63-1.626c0-.895.734-1.626 1.63-1.626h.04c.895 0 1.628.731 1.628 1.626 0 .894-.732 1.626-1.628 1.626zm-5.333 0h-.04A1.632 1.632 0 015.8 24.39c0-.895.734-1.626 1.63-1.626h.04a1.63 1.63 0 011.628 1.626c0 .894-.732 1.626-1.628 1.626zm111.902 0a1.632 1.632 0 01-1.629-1.626c0-.895.733-1.626 1.629-1.626.895 0 1.628.731 1.628 1.626 0 .894-.733 1.626-1.628 1.626zM2.136 20.326A1.632 1.632 0 01.508 18.7c0-.894.733-1.626 1.628-1.626.896 0 1.629.732 1.629 1.626 0 .895-.733 1.626-1.629 1.626zm111.913 0h-.041a1.632 1.632 0 01-1.628-1.626c0-.894.733-1.626 1.628-1.626h.041c.896 0 1.628.732 1.628 1.626a1.63 1.63 0 01-1.628 1.626zm-5.333 0h-.041a1.632 1.632 0 01-1.628-1.626c0-.894.733-1.626 1.628-1.626h.041c.896 0 1.628.732 1.628 1.626 0 .895-.692 1.626-1.628 1.626zm-5.292 0h-.041a1.631 1.631 0 01-1.628-1.626c0-.894.732-1.626 1.628-1.626h.041c.895 0 1.628.732 1.628 1.626 0 .895-.733 1.626-1.628 1.626zm-5.333 0h-.041a1.632 1.632 0 01-1.628-1.626c0-.894.732-1.626 1.628-1.626h.04c.896 0 1.63.732 1.63 1.626 0 .895-.734 1.626-1.63 1.626zm-5.333 0a1.632 1.632 0 01-1.629-1.626c0-.894.692-1.626 1.629-1.626h.04c.896 0 1.629.732 1.629 1.626 0 .895-.774 1.626-1.67 1.626zm-5.333 0a1.632 1.632 0 01-1.629-1.626c0-.894.692-1.626 1.629-1.626h.04c.896 0 1.629.732 1.629 1.626 0 .895-.774 1.626-1.67 1.626zm-5.333 0h-.041a1.632 1.632 0 01-1.629-1.626c0-.894.733-1.626 1.629-1.626h.04c.896 0 1.629.732 1.629 1.626 0 .895-.733 1.626-1.628 1.626zm-5.333 0h-.041a1.632 1.632 0 01-1.629-1.626c0-.894.733-1.626 1.629-1.626h.04c.896 0 1.629.732 1.629 1.626 0 .895-.733 1.626-1.628 1.626zm-5.334 0h-.04a1.632 1.632 0 01-1.629-1.626c0-.894.733-1.626 1.629-1.626h.04c.896 0 1.629.732 1.629 1.626 0 .895-.733 1.626-1.629 1.626zm-5.332 0h-.041a1.632 1.632 0 01-1.629-1.626c0-.894.733-1.626 1.629-1.626h.04c.896 0 1.629.732 1.629 1.626 0 .895-.733 1.626-1.629 1.626zm-5.334 0a1.632 1.632 0 01-1.628-1.626c0-.894.692-1.626 1.629-1.626h.04c.896 0 1.629.732 1.629 1.626 0 .895-.774 1.626-1.67 1.626zm-5.333 0a1.632 1.632 0 01-1.628-1.626c0-.894.692-1.626 1.628-1.626h.041c.896 0 1.629.732 1.629 1.626 0 .895-.774 1.626-1.67 1.626zm-5.333 0h-.04a1.632 1.632 0 01-1.629-1.626c0-.894.733-1.626 1.629-1.626h.04c.896 0 1.629.732 1.629 1.626 0 .895-.692 1.626-1.629 1.626zm-5.292 0h-.04a1.632 1.632 0 01-1.629-1.626c0-.894.733-1.626 1.628-1.626h.041c.896 0 1.628.732 1.628 1.626a1.63 1.63 0 01-1.628 1.626zm-5.333 0h-.04a1.632 1.632 0 01-1.629-1.626c0-.894.733-1.626 1.628-1.626h.041c.896 0 1.628.732 1.628 1.626a1.63 1.63 0 01-1.628 1.626zm-5.333 0h-.04a1.632 1.632 0 01-1.63-1.626c0-.894.734-1.626 1.63-1.626h.04c.896 0 1.628.732 1.628 1.626a1.63 1.63 0 01-1.628 1.626zm-5.333 0a1.632 1.632 0 01-1.628-1.626c0-.894.692-1.626 1.628-1.626h.04c.896 0 1.63.732 1.63 1.626 0 .895-.774 1.626-1.67 1.626zm-5.333 0a1.632 1.632 0 01-1.628-1.626c0-.894.692-1.626 1.628-1.626h.04c.896 0 1.63.732 1.63 1.626 0 .895-.774 1.626-1.67 1.626zm-5.333 0h-.04a1.632 1.632 0 01-1.63-1.626c0-.894.734-1.626 1.63-1.626h.04c.896 0 1.628.732 1.628 1.626a1.63 1.63 0 01-1.628 1.626zm-5.333 0h-.04a1.632 1.632 0 01-1.63-1.626c0-.894.734-1.626 1.63-1.626h.04c.895 0 1.628.732 1.628 1.626a1.63 1.63 0 01-1.628 1.626zm-5.333 0h-.04A1.632 1.632 0 015.8 18.7c0-.894.734-1.626 1.63-1.626h.04c.896 0 1.628.732 1.628 1.626a1.63 1.63 0 01-1.628 1.626zm111.902 0a1.632 1.632 0 01-1.629-1.626c0-.894.733-1.626 1.629-1.626.895 0 1.628.732 1.628 1.626 0 .895-.733 1.626-1.628 1.626zM2.136 14.633a1.632 1.632 0 01-1.628-1.626c0-.894.733-1.626 1.628-1.626.896 0 1.629.732 1.629 1.626 0 .894-.733 1.626-1.629 1.626zm111.913 0h-.041a1.632 1.632 0 01-1.628-1.626c0-.894.733-1.626 1.628-1.626h.041c.896 0 1.628.732 1.628 1.626 0 .894-.732 1.626-1.628 1.626zm-5.333 0h-.041a1.632 1.632 0 01-1.628-1.626c0-.894.733-1.626 1.628-1.626h.041c.896 0 1.628.732 1.628 1.626 0 .894-.692 1.626-1.628 1.626zm-5.292 0h-.041a1.631 1.631 0 01-1.628-1.626c0-.894.732-1.626 1.628-1.626h.041c.895 0 1.628.732 1.628 1.626 0 .894-.733 1.626-1.628 1.626zm-5.333 0h-.041a1.632 1.632 0 01-1.628-1.626c0-.894.732-1.626 1.628-1.626h.04c.896 0 1.63.732 1.63 1.626 0 .894-.734 1.626-1.63 1.626zm-5.333 0a1.632 1.632 0 01-1.629-1.626c0-.894.692-1.626 1.629-1.626h.04c.896 0 1.629.732 1.629 1.626 0 .894-.774 1.626-1.67 1.626zm-5.333 0a1.632 1.632 0 01-1.629-1.626c0-.894.692-1.626 1.629-1.626h.04c.896 0 1.629.732 1.629 1.626 0 .894-.774 1.626-1.67 1.626zm-5.333 0h-.041a1.632 1.632 0 01-1.629-1.626c0-.894.733-1.626 1.629-1.626h.04c.896 0 1.629.732 1.629 1.626 0 .894-.733 1.626-1.628 1.626zm-5.333 0h-.041a1.632 1.632 0 01-1.629-1.626c0-.894.733-1.626 1.629-1.626h.04c.896 0 1.629.732 1.629 1.626 0 .894-.733 1.626-1.628 1.626zm-5.334 0h-.04a1.632 1.632 0 01-1.629-1.626c0-.894.733-1.626 1.629-1.626h.04c.896 0 1.629.732 1.629 1.626 0 .894-.733 1.626-1.629 1.626zm-5.332 0h-.041a1.632 1.632 0 01-1.629-1.626c0-.894.733-1.626 1.629-1.626h.04c.896 0 1.629.732 1.629 1.626 0 .894-.733 1.626-1.629 1.626zm-5.334 0a1.632 1.632 0 01-1.628-1.626c0-.894.692-1.626 1.629-1.626h.04c.896 0 1.629.732 1.629 1.626 0 .894-.774 1.626-1.67 1.626zm-5.333 0a1.632 1.632 0 01-1.628-1.626c0-.894.692-1.626 1.628-1.626h.041c.896 0 1.629.732 1.629 1.626 0 .894-.774 1.626-1.67 1.626zm-5.333 0h-.04a1.632 1.632 0 01-1.629-1.626c0-.894.733-1.626 1.629-1.626h.04c.896 0 1.629.732 1.629 1.626 0 .894-.692 1.626-1.629 1.626zm-5.292 0h-.04a1.632 1.632 0 01-1.629-1.626c0-.894.733-1.626 1.628-1.626h.041c.896 0 1.628.732 1.628 1.626 0 .894-.732 1.626-1.628 1.626zm-5.333 0h-.04a1.632 1.632 0 01-1.629-1.626c0-.894.733-1.626 1.628-1.626h.041c.896 0 1.628.732 1.628 1.626 0 .894-.732 1.626-1.628 1.626zm-5.333 0h-.04a1.632 1.632 0 01-1.63-1.626c0-.894.734-1.626 1.63-1.626h.04c.896 0 1.628.732 1.628 1.626 0 .894-.732 1.626-1.628 1.626zm-5.333 0a1.632 1.632 0 01-1.628-1.626c0-.894.692-1.626 1.628-1.626h.04c.896 0 1.63.732 1.63 1.626 0 .894-.774 1.626-1.67 1.626zm-5.333 0a1.632 1.632 0 01-1.628-1.626c0-.894.692-1.626 1.628-1.626h.04c.896 0 1.63.732 1.63 1.626 0 .894-.774 1.626-1.67 1.626zm-5.333 0h-.04a1.632 1.632 0 01-1.63-1.626c0-.894.734-1.626 1.63-1.626h.04c.896 0 1.628.732 1.628 1.626 0 .894-.732 1.626-1.628 1.626zm-5.333 0h-.04a1.632 1.632 0 01-1.63-1.626c0-.894.734-1.626 1.63-1.626h.04c.895 0 1.628.732 1.628 1.626 0 .894-.732 1.626-1.628 1.626zm-5.333 0h-.04a1.632 1.632 0 01-1.63-1.626c0-.894.734-1.626 1.63-1.626h.04c.896 0 1.628.732 1.628 1.626 0 .894-.732 1.626-1.628 1.626zm111.902 0a1.632 1.632 0 01-1.629-1.626c0-.894.733-1.626 1.629-1.626.895 0 1.628.732 1.628 1.626 0 .894-.733 1.626-1.628 1.626zM2.136 8.943A1.632 1.632 0 01.508 7.317c0-.894.733-1.626 1.628-1.626.896 0 1.629.732 1.629 1.626 0 .895-.733 1.626-1.629 1.626zm111.913 0h-.041a1.632 1.632 0 01-1.628-1.626c0-.894.733-1.626 1.628-1.626h.041c.896 0 1.628.732 1.628 1.626a1.63 1.63 0 01-1.628 1.626zm-5.333 0h-.041a1.632 1.632 0 01-1.628-1.626c0-.894.733-1.626 1.628-1.626h.041c.896 0 1.628.732 1.628 1.626 0 .895-.692 1.626-1.628 1.626zm-5.292 0h-.041a1.631 1.631 0 01-1.628-1.626c0-.894.732-1.626 1.628-1.626h.041c.895 0 1.628.732 1.628 1.626 0 .895-.733 1.626-1.628 1.626zm-5.333 0h-.041a1.632 1.632 0 01-1.628-1.626c0-.894.732-1.626 1.628-1.626h.04c.896 0 1.63.732 1.63 1.626 0 .895-.734 1.626-1.63 1.626zm-5.333 0a1.632 1.632 0 01-1.629-1.626c0-.894.692-1.626 1.629-1.626h.04c.896 0 1.629.732 1.629 1.626 0 .895-.774 1.626-1.67 1.626zm-5.333 0a1.632 1.632 0 01-1.629-1.626c0-.894.692-1.626 1.629-1.626h.04c.896 0 1.629.732 1.629 1.626 0 .895-.774 1.626-1.67 1.626zm-5.333 0h-.041a1.632 1.632 0 01-1.629-1.626c0-.894.733-1.626 1.629-1.626h.04c.896 0 1.629.732 1.629 1.626 0 .895-.733 1.626-1.628 1.626zm-5.333 0h-.041a1.632 1.632 0 01-1.629-1.626c0-.894.733-1.626 1.629-1.626h.04c.896 0 1.629.732 1.629 1.626 0 .895-.733 1.626-1.628 1.626zm-5.334 0h-.04a1.632 1.632 0 01-1.629-1.626c0-.894.733-1.626 1.629-1.626h.04c.896 0 1.629.732 1.629 1.626 0 .895-.733 1.626-1.629 1.626zm-5.332 0h-.041a1.632 1.632 0 01-1.629-1.626c0-.894.733-1.626 1.629-1.626h.04c.896 0 1.629.732 1.629 1.626 0 .895-.733 1.626-1.629 1.626zm-5.334 0a1.632 1.632 0 01-1.628-1.626c0-.894.692-1.626 1.629-1.626h.04c.896 0 1.629.732 1.629 1.626 0 .895-.774 1.626-1.67 1.626zm-5.333 0a1.632 1.632 0 01-1.628-1.626c0-.894.692-1.626 1.628-1.626h.041c.896 0 1.629.732 1.629 1.626 0 .895-.774 1.626-1.67 1.626zm-5.333 0h-.04a1.632 1.632 0 01-1.629-1.626c0-.894.733-1.626 1.629-1.626h.04c.896 0 1.629.732 1.629 1.626 0 .895-.692 1.626-1.629 1.626zm-5.292 0h-.04a1.632 1.632 0 01-1.629-1.626c0-.894.733-1.626 1.628-1.626h.041c.896 0 1.628.732 1.628 1.626a1.63 1.63 0 01-1.628 1.626zm-5.333 0h-.04a1.632 1.632 0 01-1.629-1.626c0-.894.733-1.626 1.628-1.626h.041c.896 0 1.628.732 1.628 1.626a1.63 1.63 0 01-1.628 1.626zm-5.333 0h-.04a1.632 1.632 0 01-1.63-1.626c0-.894.734-1.626 1.63-1.626h.04c.896 0 1.628.732 1.628 1.626a1.63 1.63 0 01-1.628 1.626zm-5.333 0a1.632 1.632 0 01-1.628-1.626c0-.894.692-1.626 1.628-1.626h.04c.896 0 1.63.732 1.63 1.626 0 .895-.774 1.626-1.67 1.626zm-5.333 0a1.632 1.632 0 01-1.628-1.626c0-.894.692-1.626 1.628-1.626h.04c.896 0 1.63.732 1.63 1.626 0 .895-.774 1.626-1.67 1.626zm-5.333 0h-.04a1.632 1.632 0 01-1.63-1.626c0-.894.734-1.626 1.63-1.626h.04c.896 0 1.628.732 1.628 1.626a1.63 1.63 0 01-1.628 1.626zm-5.333 0h-.04a1.632 1.632 0 01-1.63-1.626c0-.894.734-1.626 1.63-1.626h.04c.895 0 1.628.732 1.628 1.626a1.63 1.63 0 01-1.628 1.626zm-5.333 0h-.04A1.632 1.632 0 015.8 7.317c0-.894.734-1.626 1.63-1.626h.04c.896 0 1.628.732 1.628 1.626A1.63 1.63 0 017.47 8.943zm111.902 0a1.632 1.632 0 01-1.629-1.626c0-.894.733-1.626 1.629-1.626.895 0 1.628.732 1.628 1.626 0 .895-.733 1.626-1.628 1.626zM2.136 3.252A1.632 1.632 0 01.508 1.626C.508.732 1.24 0 2.136 0c.896 0 1.629.732 1.629 1.626 0 .894-.733 1.626-1.629 1.626zm111.913 0h-.041a1.632 1.632 0 01-1.628-1.626c0-.894.733-1.626 1.628-1.626h.041c.896 0 1.628.732 1.628 1.626 0 .894-.732 1.626-1.628 1.626zm-5.333 0h-.041a1.632 1.632 0 01-1.628-1.626c0-.894.733-1.626 1.628-1.626h.041c.896 0 1.628.732 1.628 1.626 0 .894-.692 1.626-1.628 1.626zm-5.292 0h-.041a1.631 1.631 0 01-1.628-1.626c0-.894.732-1.626 1.628-1.626h.041c.895 0 1.628.732 1.628 1.626 0 .894-.733 1.626-1.628 1.626zm-5.333 0h-.041a1.632 1.632 0 01-1.628-1.626C96.422.732 97.154 0 98.05 0h.04c.896 0 1.63.732 1.63 1.626 0 .894-.734 1.626-1.63 1.626zm-5.333 0a1.632 1.632 0 01-1.629-1.626A1.607 1.607 0 0192.758 0h.04c.896 0 1.629.732 1.629 1.626 0 .894-.774 1.626-1.67 1.626zm-5.333 0a1.632 1.632 0 01-1.629-1.626c0-.894.692-1.626 1.629-1.626h.04c.896 0 1.629.732 1.629 1.626 0 .894-.774 1.626-1.67 1.626zm-5.333 0h-.041a1.632 1.632 0 01-1.629-1.626c0-.894.733-1.626 1.629-1.626h.04c.896 0 1.629.732 1.629 1.626 0 .894-.733 1.626-1.628 1.626zm-5.333 0h-.041a1.632 1.632 0 01-1.629-1.626A1.633 1.633 0 0176.718 0h.04c.896 0 1.629.732 1.629 1.626 0 .894-.733 1.626-1.628 1.626zm-5.334 0h-.04a1.632 1.632 0 01-1.629-1.626C69.756.732 70.49 0 71.385 0h.04c.896 0 1.629.732 1.629 1.626 0 .894-.733 1.626-1.629 1.626zm-5.332 0h-.041a1.632 1.632 0 01-1.629-1.626c0-.894.733-1.626 1.629-1.626h.04c.896 0 1.629.732 1.629 1.626 0 .894-.733 1.626-1.629 1.626zm-5.334 0a1.632 1.632 0 01-1.628-1.626C59.131.732 59.823 0 60.76 0h.04c.896 0 1.629.732 1.629 1.626 0 .894-.774 1.626-1.67 1.626zm-5.333 0a1.632 1.632 0 01-1.628-1.626C53.798.732 54.49 0 55.426 0h.041c.896 0 1.629.732 1.629 1.626 0 .894-.774 1.626-1.67 1.626zm-5.333 0h-.04a1.632 1.632 0 01-1.629-1.626c0-.894.733-1.626 1.629-1.626h.04c.896 0 1.629.732 1.629 1.626 0 .894-.692 1.626-1.629 1.626zm-5.292 0h-.04a1.632 1.632 0 01-1.629-1.626C43.132.732 43.865 0 44.76 0h.041c.896 0 1.628.732 1.628 1.626 0 .894-.732 1.626-1.628 1.626zm-5.333 0h-.04a1.632 1.632 0 01-1.629-1.626c0-.894.733-1.626 1.628-1.626h.041c.896 0 1.628.732 1.628 1.626 0 .894-.732 1.626-1.628 1.626zm-5.333 0h-.04a1.632 1.632 0 01-1.63-1.626A1.635 1.635 0 0134.096 0h.04c.896 0 1.628.732 1.628 1.626 0 .894-.732 1.626-1.628 1.626zm-5.333 0a1.632 1.632 0 01-1.628-1.626c0-.894.692-1.626 1.628-1.626h.04c.896 0 1.63.732 1.63 1.626 0 .894-.774 1.626-1.67 1.626zm-5.333 0a1.632 1.632 0 01-1.628-1.626A1.606 1.606 0 0123.469 0h.04c.896 0 1.63.732 1.63 1.626 0 .894-.774 1.626-1.67 1.626zm-5.333 0h-.04a1.632 1.632 0 01-1.63-1.626A1.634 1.634 0 0118.097 0h.04c.896 0 1.628.732 1.628 1.626 0 .894-.732 1.626-1.628 1.626zm-5.333 0h-.04a1.632 1.632 0 01-1.63-1.626c0-.894.734-1.626 1.63-1.626h.04c.895 0 1.628.732 1.628 1.626 0 .894-.732 1.626-1.628 1.626zm-5.333 0h-.04A1.632 1.632 0 015.8 1.626C5.8.732 6.535 0 7.43 0h.04c.896 0 1.628.732 1.628 1.626 0 .894-.732 1.626-1.628 1.626zm111.902 0a1.632 1.632 0 01-1.629-1.626c0-.894.733-1.626 1.629-1.626.895 0 1.628.732 1.628 1.626 0 .894-.733 1.626-1.628 1.626z" fill="#FBDDC1"/></svg>