<svg width="112" height="114" fill="none" xmlns="http://www.w3.org/2000/svg"><path d="M1.508 113.703A1.51 1.51 0 010 112.197c0-.828.679-1.506 1.508-1.506.83 0 1.508.678 1.508 1.506a1.51 1.51 0 01-1.508 1.506zm103.657-.002h-.038a1.511 1.511 0 01-1.508-1.506c0-.828.679-1.506 1.508-1.506h.038c.83 0 1.508.678 1.508 1.506a1.51 1.51 0 01-1.508 1.506zm-4.939 0h-.038a1.51 1.51 0 01-1.508-1.506c0-.828.678-1.506 1.508-1.506h.038c.829 0 1.508.678 1.508 1.506 0 .829-.641 1.506-1.508 1.506zm-4.902 0h-.038a1.51 1.51 0 01-1.508-1.506c0-.828.679-1.506 1.508-1.506h.038c.83 0 1.508.678 1.508 1.506 0 .829-.679 1.506-1.508 1.506zm-4.94 0h-.037a1.51 1.51 0 01-1.508-1.506c0-.828.678-1.506 1.508-1.506h.038c.829 0 1.508.678 1.508 1.506 0 .829-.679 1.506-1.508 1.506zm-4.939 0a1.51 1.51 0 01-1.508-1.506c0-.828.64-1.506 1.508-1.506h.038c.83 0 1.508.678 1.508 1.506 0 .829-.716 1.506-1.546 1.506zm-4.94 0a1.51 1.51 0 01-1.507-1.506c0-.828.64-1.506 1.508-1.506h.037c.83 0 1.509.678 1.509 1.506 0 .829-.717 1.506-1.546 1.506zm-4.939 0h-.037c-.83 0-1.509-.677-1.509-1.506 0-.828.679-1.506 1.509-1.506h.037c.83 0 1.508.678 1.508 1.506a1.51 1.51 0 01-1.508 1.506zm-4.94 0h-.037a1.51 1.51 0 01-1.508-1.506c0-.828.679-1.506 1.508-1.506h.038c.83 0 1.508.678 1.508 1.506 0 .829-.679 1.506-1.508 1.506zm-4.939 0h-.037c-.83 0-1.509-.677-1.509-1.506 0-.828.68-1.506 1.509-1.506h.037c.83 0 1.509.678 1.509 1.506 0 .829-.679 1.506-1.509 1.506zm-4.939 0h-.038a1.51 1.51 0 01-1.508-1.506c0-.828.679-1.506 1.508-1.506h.038c.83 0 1.508.678 1.508 1.506a1.51 1.51 0 01-1.508 1.506zm-4.94 0a1.511 1.511 0 01-1.508-1.506c0-.828.641-1.506 1.509-1.506h.037c.83 0 1.509.678 1.509 1.506 0 .829-.717 1.506-1.546 1.506zm-4.939 0a1.51 1.51 0 01-1.508-1.506c0-.828.641-1.506 1.508-1.506h.038c.83 0 1.508.678 1.508 1.506 0 .829-.716 1.506-1.546 1.506zm-4.94 0h-.037a1.51 1.51 0 01-1.508-1.506c0-.828.678-1.506 1.508-1.506h.038c.83 0 1.508.678 1.508 1.506 0 .829-.641 1.506-1.508 1.506zm-4.9 0h-.039a1.51 1.51 0 01-1.508-1.506c0-.828.679-1.506 1.508-1.506h.038c.83 0 1.508.678 1.508 1.506a1.51 1.51 0 01-1.508 1.506zm-4.94 0h-.038a1.51 1.51 0 01-1.508-1.506c0-.828.678-1.506 1.508-1.506h.038c.83 0 1.508.678 1.508 1.506 0 .829-.679 1.506-1.508 1.506zm-4.94 0h-.038a1.511 1.511 0 01-1.508-1.506c0-.828.679-1.506 1.508-1.506h.038c.83 0 1.508.678 1.508 1.506a1.51 1.51 0 01-1.508 1.506zm-4.94 0a1.51 1.51 0 01-1.507-1.506c0-.828.64-1.506 1.508-1.506h.037c.83 0 1.509.678 1.509 1.506 0 .829-.717 1.506-1.546 1.506zm-4.939 0a1.51 1.51 0 01-1.508-1.506c0-.828.641-1.506 1.508-1.506h.038c.83 0 1.508.678 1.508 1.506 0 .829-.716 1.506-1.546 1.506zm-4.939 0h-.038a1.51 1.51 0 01-1.508-1.506c0-.828.679-1.506 1.508-1.506h.038c.83 0 1.508.678 1.508 1.506a1.51 1.51 0 01-1.508 1.506zm-4.94 0h-.037a1.51 1.51 0 01-1.508-1.506c0-.828.678-1.506 1.508-1.506h.038c.83 0 1.508.678 1.508 1.506 0 .829-.679 1.506-1.508 1.506zm-4.939 0h-.038a1.511 1.511 0 01-1.508-1.506c0-.828.679-1.506 1.508-1.506h.038c.83 0 1.508.678 1.508 1.506a1.51 1.51 0 01-1.508 1.506zm103.654 0a1.51 1.51 0 01-1.508-1.506c0-.828.678-1.506 1.508-1.506.829 0 1.508.678 1.508 1.506 0 .829-.679 1.506-1.508 1.506zM1.508 108.43c-.83 0-1.508-.678-1.508-1.506s.679-1.506 1.508-1.506c.83 0 1.508.678 1.508 1.506s-.678 1.506-1.508 1.506zm103.657 0h-.038a1.512 1.512 0 01-1.508-1.506c0-.828.679-1.506 1.508-1.506h.038c.83 0 1.508.678 1.508 1.506s-.678 1.506-1.508 1.506zm-4.939 0h-.038c-.83 0-1.508-.678-1.508-1.506s.678-1.506 1.508-1.506h.038c.829 0 1.508.678 1.508 1.506s-.641 1.506-1.508 1.506zm-4.902 0h-.038c-.83 0-1.508-.678-1.508-1.506s.679-1.506 1.508-1.506h.038c.83 0 1.508.678 1.508 1.506s-.679 1.506-1.508 1.506zm-4.94 0h-.037c-.83 0-1.508-.678-1.508-1.506s.678-1.506 1.508-1.506h.038c.829 0 1.508.678 1.508 1.506s-.679 1.506-1.508 1.506zm-4.939 0c-.83 0-1.508-.678-1.508-1.506s.64-1.506 1.508-1.506h.038c.83 0 1.508.678 1.508 1.506s-.716 1.506-1.546 1.506zm-4.94 0c-.829 0-1.507-.678-1.507-1.506s.64-1.506 1.508-1.506h.037c.83 0 1.509.678 1.509 1.506s-.717 1.506-1.546 1.506zm-4.939 0h-.037c-.83 0-1.509-.678-1.509-1.506s.679-1.506 1.509-1.506h.037c.83 0 1.508.678 1.508 1.506s-.678 1.506-1.508 1.506zm-4.94 0h-.037c-.83 0-1.508-.678-1.508-1.506s.679-1.506 1.508-1.506h.038c.83 0 1.508.678 1.508 1.506s-.679 1.506-1.508 1.506zm-4.939 0h-.037c-.83 0-1.509-.678-1.509-1.506s.68-1.506 1.509-1.506h.037c.83 0 1.509.678 1.509 1.506s-.679 1.506-1.509 1.506zm-4.939 0h-.038c-.83 0-1.508-.678-1.508-1.506s.679-1.506 1.508-1.506h.038c.83 0 1.508.678 1.508 1.506s-.678 1.506-1.508 1.506zm-4.94 0c-.829 0-1.508-.678-1.508-1.506s.641-1.506 1.509-1.506h.037c.83 0 1.509.678 1.509 1.506s-.717 1.506-1.546 1.506zm-4.939 0c-.83 0-1.508-.678-1.508-1.506s.641-1.506 1.508-1.506h.038c.83 0 1.508.678 1.508 1.506s-.716 1.506-1.546 1.506zm-4.94 0h-.037c-.83 0-1.508-.678-1.508-1.506s.678-1.506 1.508-1.506h.038c.83 0 1.508.678 1.508 1.506s-.641 1.506-1.508 1.506zm-4.9 0h-.039c-.83 0-1.508-.678-1.508-1.506s.679-1.506 1.508-1.506h.038c.83 0 1.508.678 1.508 1.506s-.678 1.506-1.508 1.506zm-4.94 0h-.038c-.83 0-1.508-.678-1.508-1.506s.678-1.506 1.508-1.506h.038c.83 0 1.508.678 1.508 1.506s-.679 1.506-1.508 1.506zm-4.94 0h-.038c-.829 0-1.508-.678-1.508-1.506s.679-1.506 1.508-1.506h.038c.83 0 1.508.678 1.508 1.506s-.678 1.506-1.508 1.506zm-4.94 0c-.829 0-1.507-.678-1.507-1.506s.64-1.506 1.508-1.506h.037c.83 0 1.509.678 1.509 1.506s-.717 1.506-1.546 1.506zm-4.939 0c-.83 0-1.508-.678-1.508-1.506s.641-1.506 1.508-1.506h.038c.83 0 1.508.678 1.508 1.506s-.716 1.506-1.546 1.506zm-4.939 0h-.038c-.83 0-1.508-.678-1.508-1.506s.679-1.506 1.508-1.506h.038c.83 0 1.508.678 1.508 1.506s-.678 1.506-1.508 1.506zm-4.94 0h-.037c-.83 0-1.508-.678-1.508-1.506s.678-1.506 1.508-1.506h.038c.83 0 1.508.678 1.508 1.506s-.679 1.506-1.508 1.506zm-4.939 0h-.038c-.829 0-1.508-.678-1.508-1.506s.679-1.506 1.508-1.506h.038c.83 0 1.508.678 1.508 1.506s-.678 1.506-1.508 1.506zm103.654 0c-.83 0-1.508-.678-1.508-1.506s.678-1.506 1.508-1.506c.829 0 1.508.678 1.508 1.506s-.679 1.506-1.508 1.506zM1.508 103.158A1.51 1.51 0 010 101.652c0-.828.679-1.506 1.508-1.506.83 0 1.508.678 1.508 1.506a1.51 1.51 0 01-1.508 1.506zm103.657 0h-.038a1.511 1.511 0 01-1.508-1.506c0-.828.679-1.506 1.508-1.506h.038c.83 0 1.508.678 1.508 1.506a1.51 1.51 0 01-1.508 1.506zm-4.939 0h-.038a1.51 1.51 0 01-1.508-1.506c0-.828.678-1.506 1.508-1.506h.038c.829 0 1.508.678 1.508 1.506 0 .829-.641 1.506-1.508 1.506zm-4.902 0h-.038a1.51 1.51 0 01-1.508-1.506c0-.828.679-1.506 1.508-1.506h.038c.83 0 1.508.678 1.508 1.506 0 .829-.679 1.506-1.508 1.506zm-4.94 0h-.037a1.51 1.51 0 01-1.508-1.506c0-.828.678-1.506 1.508-1.506h.038c.829 0 1.508.678 1.508 1.506 0 .829-.679 1.506-1.508 1.506zm-4.939 0a1.51 1.51 0 01-1.508-1.506c0-.828.64-1.506 1.508-1.506h.038c.83 0 1.508.678 1.508 1.506 0 .829-.716 1.506-1.546 1.506zm-4.94 0a1.51 1.51 0 01-1.507-1.506c0-.828.64-1.506 1.508-1.506h.037c.83 0 1.509.678 1.509 1.506 0 .829-.717 1.506-1.546 1.506zm-4.939 0h-.037c-.83 0-1.509-.677-1.509-1.506 0-.828.679-1.506 1.509-1.506h.037c.83 0 1.508.678 1.508 1.506a1.51 1.51 0 01-1.508 1.506zm-4.94 0h-.037a1.51 1.51 0 01-1.508-1.506c0-.828.679-1.506 1.508-1.506h.038c.83 0 1.508.678 1.508 1.506 0 .829-.679 1.506-1.508 1.506zm-4.939 0h-.037c-.83 0-1.509-.677-1.509-1.506 0-.828.68-1.506 1.509-1.506h.037c.83 0 1.509.678 1.509 1.506 0 .829-.679 1.506-1.509 1.506zm-4.939 0h-.038a1.51 1.51 0 01-1.508-1.506c0-.828.679-1.506 1.508-1.506h.038c.83 0 1.508.678 1.508 1.506a1.51 1.51 0 01-1.508 1.506zm-4.94 0a1.511 1.511 0 01-1.508-1.506c0-.828.641-1.506 1.509-1.506h.037c.83 0 1.509.678 1.509 1.506 0 .829-.717 1.506-1.546 1.506zm-4.939 0a1.51 1.51 0 01-1.508-1.506c0-.828.641-1.506 1.508-1.506h.038c.83 0 1.508.678 1.508 1.506 0 .829-.716 1.506-1.546 1.506zm-4.94 0h-.037a1.51 1.51 0 01-1.508-1.506c0-.828.678-1.506 1.508-1.506h.038c.83 0 1.508.678 1.508 1.506 0 .829-.641 1.506-1.508 1.506zm-4.9 0h-.039a1.51 1.51 0 01-1.508-1.506c0-.828.679-1.506 1.508-1.506h.038c.83 0 1.508.678 1.508 1.506a1.51 1.51 0 01-1.508 1.506zm-4.94 0h-.038a1.51 1.51 0 01-1.508-1.506c0-.828.678-1.506 1.508-1.506h.038c.83 0 1.508.678 1.508 1.506 0 .829-.679 1.506-1.508 1.506zm-4.94 0h-.038a1.511 1.511 0 01-1.508-1.506c0-.828.679-1.506 1.508-1.506h.038c.83 0 1.508.678 1.508 1.506a1.51 1.51 0 01-1.508 1.506zm-4.94 0a1.51 1.51 0 01-1.507-1.506c0-.828.64-1.506 1.508-1.506h.037c.83 0 1.509.678 1.509 1.506 0 .829-.717 1.506-1.546 1.506zm-4.939 0a1.51 1.51 0 01-1.508-1.506c0-.828.641-1.506 1.508-1.506h.038c.83 0 1.508.678 1.508 1.506 0 .829-.716 1.506-1.546 1.506zm-4.939 0h-.038a1.51 1.51 0 01-1.508-1.506c0-.828.679-1.506 1.508-1.506h.038c.83 0 1.508.678 1.508 1.506a1.51 1.51 0 01-1.508 1.506zm-4.94 0h-.037a1.51 1.51 0 01-1.508-1.506c0-.828.678-1.506 1.508-1.506h.038c.83 0 1.508.678 1.508 1.506 0 .829-.679 1.506-1.508 1.506zm-4.939 0h-.038a1.511 1.511 0 01-1.508-1.506c0-.828.679-1.506 1.508-1.506h.038c.83 0 1.508.678 1.508 1.506a1.51 1.51 0 01-1.508 1.506zm103.654 0a1.51 1.51 0 01-1.508-1.506c0-.828.678-1.506 1.508-1.506.829 0 1.508.678 1.508 1.506 0 .829-.679 1.506-1.508 1.506zM1.508 97.887C.678 97.887 0 97.209 0 96.38s.679-1.506 1.508-1.506c.83 0 1.508.678 1.508 1.506s-.678 1.506-1.508 1.506zm103.657 0h-.038a1.512 1.512 0 01-1.508-1.506c0-.828.679-1.506 1.508-1.506h.038c.83 0 1.508.678 1.508 1.506s-.678 1.506-1.508 1.506zm-4.939 0h-.038c-.83 0-1.508-.678-1.508-1.506s.678-1.506 1.508-1.506h.038c.829 0 1.508.678 1.508 1.506s-.641 1.506-1.508 1.506zm-4.902 0h-.038c-.83 0-1.508-.678-1.508-1.506s.679-1.506 1.508-1.506h.038c.83 0 1.508.678 1.508 1.506s-.679 1.506-1.508 1.506zm-4.94 0h-.037c-.83 0-1.508-.678-1.508-1.506s.678-1.506 1.508-1.506h.038c.829 0 1.508.678 1.508 1.506s-.679 1.506-1.508 1.506zm-4.939 0c-.83 0-1.508-.678-1.508-1.506s.64-1.506 1.508-1.506h.038c.83 0 1.508.678 1.508 1.506s-.716 1.506-1.546 1.506zm-4.94 0c-.829 0-1.507-.678-1.507-1.506s.64-1.506 1.508-1.506h.037c.83 0 1.509.678 1.509 1.506s-.717 1.506-1.546 1.506zm-4.939 0h-.037c-.83 0-1.509-.678-1.509-1.506s.679-1.506 1.509-1.506h.037c.83 0 1.508.678 1.508 1.506s-.678 1.506-1.508 1.506zm-4.94 0h-.037c-.83 0-1.508-.678-1.508-1.506s.679-1.506 1.508-1.506h.038c.83 0 1.508.678 1.508 1.506s-.679 1.506-1.508 1.506zm-4.939 0h-.037c-.83 0-1.509-.678-1.509-1.506s.68-1.506 1.509-1.506h.037c.83 0 1.509.678 1.509 1.506s-.679 1.506-1.509 1.506zm-4.939 0h-.038c-.83 0-1.508-.678-1.508-1.506s.679-1.506 1.508-1.506h.038c.83 0 1.508.678 1.508 1.506s-.678 1.506-1.508 1.506zm-4.94 0c-.829 0-1.508-.678-1.508-1.506s.641-1.506 1.509-1.506h.037c.83 0 1.509.678 1.509 1.506s-.717 1.506-1.546 1.506zm-4.939 0c-.83 0-1.508-.678-1.508-1.506s.641-1.506 1.508-1.506h.038c.83 0 1.508.678 1.508 1.506s-.716 1.506-1.546 1.506zm-4.94 0h-.037c-.83 0-1.508-.678-1.508-1.506s.678-1.506 1.508-1.506h.038c.83 0 1.508.678 1.508 1.506s-.641 1.506-1.508 1.506zm-4.9 0h-.039c-.83 0-1.508-.678-1.508-1.506s.679-1.506 1.508-1.506h.038c.83 0 1.508.678 1.508 1.506s-.678 1.506-1.508 1.506zm-4.94 0h-.038c-.83 0-1.508-.678-1.508-1.506s.678-1.506 1.508-1.506h.038c.83 0 1.508.678 1.508 1.506s-.679 1.506-1.508 1.506zm-4.94 0h-.038c-.829 0-1.508-.678-1.508-1.506s.679-1.506 1.508-1.506h.038c.83 0 1.508.678 1.508 1.506s-.678 1.506-1.508 1.506zm-4.94 0c-.829 0-1.507-.678-1.507-1.506s.64-1.506 1.508-1.506h.037c.83 0 1.509.678 1.509 1.506s-.717 1.506-1.546 1.506zm-4.939 0c-.83 0-1.508-.678-1.508-1.506s.641-1.506 1.508-1.506h.038c.83 0 1.508.678 1.508 1.506s-.716 1.506-1.546 1.506zm-4.939 0h-.038c-.83 0-1.508-.678-1.508-1.506s.679-1.506 1.508-1.506h.038c.83 0 1.508.678 1.508 1.506s-.678 1.506-1.508 1.506zm-4.94 0h-.037c-.83 0-1.508-.678-1.508-1.506s.678-1.506 1.508-1.506h.038c.83 0 1.508.678 1.508 1.506s-.679 1.506-1.508 1.506zm-4.939 0h-.038c-.829 0-1.508-.678-1.508-1.506s.679-1.506 1.508-1.506h.038c.83 0 1.508.678 1.508 1.506s-.678 1.506-1.508 1.506zm103.654 0c-.83 0-1.508-.678-1.508-1.506s.678-1.506 1.508-1.506c.829 0 1.508.678 1.508 1.506s-.679 1.506-1.508 1.506zM1.508 92.618A1.51 1.51 0 010 91.112c0-.828.679-1.506 1.508-1.506.83 0 1.508.678 1.508 1.506a1.51 1.51 0 01-1.508 1.506zm103.657-.002h-.038a1.512 1.512 0 01-1.508-1.505c0-.829.679-1.507 1.508-1.507h.038c.83 0 1.508.678 1.508 1.507a1.51 1.51 0 01-1.508 1.505zm-4.939 0h-.038a1.51 1.51 0 01-1.508-1.505c0-.829.678-1.507 1.508-1.507h.038c.829 0 1.508.678 1.508 1.507 0 .828-.641 1.505-1.508 1.505zm-4.902 0h-.038a1.51 1.51 0 01-1.508-1.505c0-.829.679-1.507 1.508-1.507h.038c.83 0 1.508.678 1.508 1.507 0 .828-.679 1.505-1.508 1.505zm-4.94 0h-.037a1.51 1.51 0 01-1.508-1.505c0-.829.678-1.507 1.508-1.507h.038c.829 0 1.508.678 1.508 1.507 0 .828-.679 1.505-1.508 1.505zm-4.939 0a1.51 1.51 0 01-1.508-1.505c0-.829.64-1.507 1.508-1.507h.038c.83 0 1.508.678 1.508 1.507 0 .828-.716 1.505-1.546 1.505zm-4.94 0a1.51 1.51 0 01-1.507-1.505c0-.829.64-1.507 1.508-1.507h.037c.83 0 1.509.678 1.509 1.507 0 .828-.717 1.505-1.546 1.505zm-4.939 0h-.037c-.83 0-1.509-.677-1.509-1.505 0-.829.679-1.507 1.509-1.507h.037c.83 0 1.508.678 1.508 1.507a1.51 1.51 0 01-1.508 1.505zm-4.94 0h-.037a1.51 1.51 0 01-1.508-1.505c0-.829.679-1.507 1.508-1.507h.038c.83 0 1.508.678 1.508 1.507 0 .828-.679 1.505-1.508 1.505zm-4.939 0h-.037c-.83 0-1.509-.677-1.509-1.505 0-.829.68-1.507 1.509-1.507h.037c.83 0 1.509.678 1.509 1.507 0 .828-.679 1.505-1.509 1.505zm-4.939 0h-.038a1.51 1.51 0 01-1.508-1.505c0-.829.679-1.507 1.508-1.507h.038c.83 0 1.508.678 1.508 1.507a1.51 1.51 0 01-1.508 1.505zm-4.94 0a1.511 1.511 0 01-1.508-1.505c0-.829.641-1.507 1.509-1.507h.037c.83 0 1.509.678 1.509 1.507 0 .828-.717 1.505-1.546 1.505zm-4.939 0a1.51 1.51 0 01-1.508-1.505c0-.829.641-1.507 1.508-1.507h.038c.83 0 1.508.678 1.508 1.507 0 .828-.716 1.505-1.546 1.505zm-4.94 0h-.037a1.51 1.51 0 01-1.508-1.505c0-.829.678-1.507 1.508-1.507h.038c.83 0 1.508.678 1.508 1.507 0 .828-.641 1.505-1.508 1.505zm-4.9 0h-.039a1.51 1.51 0 01-1.508-1.505c0-.829.679-1.507 1.508-1.507h.038c.83 0 1.508.678 1.508 1.507a1.51 1.51 0 01-1.508 1.505zm-4.94 0h-.038a1.51 1.51 0 01-1.508-1.505c0-.829.678-1.507 1.508-1.507h.038c.83 0 1.508.678 1.508 1.507 0 .828-.679 1.505-1.508 1.505zm-4.94 0h-.038a1.511 1.511 0 01-1.508-1.505c0-.829.679-1.507 1.508-1.507h.038c.83 0 1.508.678 1.508 1.507a1.51 1.51 0 01-1.508 1.505zm-4.94 0a1.51 1.51 0 01-1.507-1.505c0-.829.64-1.507 1.508-1.507h.037c.83 0 1.509.678 1.509 1.507 0 .828-.717 1.505-1.546 1.505zm-4.939 0a1.51 1.51 0 01-1.508-1.505c0-.829.641-1.507 1.508-1.507h.038c.83 0 1.508.678 1.508 1.507 0 .828-.716 1.505-1.546 1.505zm-4.939 0h-.038a1.51 1.51 0 01-1.508-1.505c0-.829.679-1.507 1.508-1.507h.038c.83 0 1.508.678 1.508 1.507a1.51 1.51 0 01-1.508 1.505zm-4.94 0h-.037a1.51 1.51 0 01-1.508-1.505c0-.829.678-1.507 1.508-1.507h.038c.83 0 1.508.678 1.508 1.507 0 .828-.679 1.505-1.508 1.505zm-4.939 0h-.038a1.511 1.511 0 01-1.508-1.505c0-.829.679-1.507 1.508-1.507h.038c.83 0 1.508.678 1.508 1.507a1.51 1.51 0 01-1.508 1.505zm103.654.001a1.51 1.51 0 01-1.508-1.506 1.51 1.51 0 011.508-1.505c.829 0 1.508.677 1.508 1.505 0 .829-.679 1.506-1.508 1.506zM1.508 87.346C.678 87.346 0 86.668 0 85.84s.679-1.506 1.508-1.506c.83 0 1.508.678 1.508 1.506s-.678 1.506-1.508 1.506zm103.657 0h-.038a1.512 1.512 0 01-1.508-1.506c0-.828.679-1.506 1.508-1.506h.038c.83 0 1.508.678 1.508 1.506s-.678 1.506-1.508 1.506zm-4.939 0h-.038c-.83 0-1.508-.678-1.508-1.506s.678-1.506 1.508-1.506h.038c.829 0 1.508.678 1.508 1.506s-.641 1.506-1.508 1.506zm-4.902 0h-.038c-.83 0-1.508-.678-1.508-1.506s.679-1.506 1.508-1.506h.038c.83 0 1.508.678 1.508 1.506s-.679 1.506-1.508 1.506zm-4.94 0h-.037c-.83 0-1.508-.678-1.508-1.506s.678-1.506 1.508-1.506h.038c.829 0 1.508.678 1.508 1.506s-.679 1.506-1.508 1.506zm-4.939 0c-.83 0-1.508-.678-1.508-1.506s.64-1.506 1.508-1.506h.038c.83 0 1.508.678 1.508 1.506s-.716 1.506-1.546 1.506zm-4.94 0c-.829 0-1.507-.678-1.507-1.506s.64-1.506 1.508-1.506h.037c.83 0 1.509.678 1.509 1.506s-.717 1.506-1.546 1.506zm-4.939 0h-.037c-.83 0-1.509-.678-1.509-1.506s.679-1.506 1.509-1.506h.037c.83 0 1.508.678 1.508 1.506s-.678 1.506-1.508 1.506zm-4.94 0h-.037c-.83 0-1.508-.678-1.508-1.506s.679-1.506 1.508-1.506h.038c.83 0 1.508.678 1.508 1.506s-.679 1.506-1.508 1.506zm-4.939 0h-.037c-.83 0-1.509-.678-1.509-1.506s.68-1.506 1.509-1.506h.037c.83 0 1.509.678 1.509 1.506s-.679 1.506-1.509 1.506zm-4.939 0h-.038c-.83 0-1.508-.678-1.508-1.506s.679-1.506 1.508-1.506h.038c.83 0 1.508.678 1.508 1.506s-.678 1.506-1.508 1.506zm-4.94 0c-.829 0-1.508-.678-1.508-1.506s.641-1.506 1.509-1.506h.037c.83 0 1.509.678 1.509 1.506s-.717 1.506-1.546 1.506zm-4.939 0c-.83 0-1.508-.678-1.508-1.506s.641-1.506 1.508-1.506h.038c.83 0 1.508.678 1.508 1.506s-.716 1.506-1.546 1.506zm-4.94 0h-.037c-.83 0-1.508-.678-1.508-1.506s.678-1.506 1.508-1.506h.038c.83 0 1.508.678 1.508 1.506s-.641 1.506-1.508 1.506zm-4.9 0h-.039c-.83 0-1.508-.678-1.508-1.506s.679-1.506 1.508-1.506h.038c.83 0 1.508.678 1.508 1.506s-.678 1.506-1.508 1.506zm-4.94 0h-.038c-.83 0-1.508-.678-1.508-1.506s.678-1.506 1.508-1.506h.038c.83 0 1.508.678 1.508 1.506s-.679 1.506-1.508 1.506zm-4.94 0h-.038c-.829 0-1.508-.678-1.508-1.506s.679-1.506 1.508-1.506h.038c.83 0 1.508.678 1.508 1.506s-.678 1.506-1.508 1.506zm-4.94 0c-.829 0-1.507-.678-1.507-1.506s.64-1.506 1.508-1.506h.037c.83 0 1.509.678 1.509 1.506s-.717 1.506-1.546 1.506zm-4.939 0c-.83 0-1.508-.678-1.508-1.506s.641-1.506 1.508-1.506h.038c.83 0 1.508.678 1.508 1.506s-.716 1.506-1.546 1.506zm-4.939 0h-.038c-.83 0-1.508-.678-1.508-1.506s.679-1.506 1.508-1.506h.038c.83 0 1.508.678 1.508 1.506s-.678 1.506-1.508 1.506zm-4.94 0h-.037c-.83 0-1.508-.678-1.508-1.506s.678-1.506 1.508-1.506h.038c.83 0 1.508.678 1.508 1.506s-.679 1.506-1.508 1.506zm-4.939 0h-.038c-.829 0-1.508-.678-1.508-1.506s.679-1.506 1.508-1.506h.038c.83 0 1.508.678 1.508 1.506s-.678 1.506-1.508 1.506zm103.654 0c-.83 0-1.508-.678-1.508-1.506s.678-1.506 1.508-1.506c.829 0 1.508.678 1.508 1.506s-.679 1.506-1.508 1.506zM1.508 82.076A1.51 1.51 0 010 80.57c0-.828.679-1.505 1.508-1.505.83 0 1.508.677 1.508 1.505a1.51 1.51 0 01-1.508 1.506zm103.657-.001h-.038a1.512 1.512 0 01-1.508-1.506c0-.828.679-1.505 1.508-1.505h.038c.83 0 1.508.677 1.508 1.505a1.51 1.51 0 01-1.508 1.506zm-4.939 0h-.038a1.51 1.51 0 01-1.508-1.506 1.51 1.51 0 011.508-1.505h.038c.829 0 1.508.677 1.508 1.505 0 .829-.641 1.506-1.508 1.506zm-4.902 0h-.038a1.51 1.51 0 01-1.508-1.506c0-.828.679-1.505 1.508-1.505h.038c.83 0 1.508.677 1.508 1.505 0 .829-.679 1.506-1.508 1.506zm-4.94 0h-.037a1.51 1.51 0 01-1.508-1.506 1.51 1.51 0 011.508-1.505h.038c.829 0 1.508.677 1.508 1.505 0 .829-.679 1.506-1.508 1.506zm-4.939 0a1.51 1.51 0 01-1.508-1.506c0-.828.64-1.505 1.508-1.505h.038c.83 0 1.508.677 1.508 1.505 0 .829-.716 1.506-1.546 1.506zm-4.94 0a1.51 1.51 0 01-1.507-1.506c0-.828.64-1.505 1.508-1.505h.037c.83 0 1.509.677 1.509 1.505 0 .829-.717 1.506-1.546 1.506zm-4.939 0h-.037c-.83 0-1.509-.677-1.509-1.506 0-.828.679-1.505 1.509-1.505h.037c.83 0 1.508.677 1.508 1.505a1.51 1.51 0 01-1.508 1.506zm-4.94 0h-.037a1.51 1.51 0 01-1.508-1.506c0-.828.679-1.505 1.508-1.505h.038c.83 0 1.508.677 1.508 1.505 0 .829-.679 1.506-1.508 1.506zm-4.939 0h-.037c-.83 0-1.509-.677-1.509-1.506 0-.828.68-1.505 1.509-1.505h.037c.83 0 1.509.677 1.509 1.505 0 .829-.679 1.506-1.509 1.506zm-4.939 0h-.038a1.51 1.51 0 01-1.508-1.506c0-.828.679-1.505 1.508-1.505h.038c.83 0 1.508.677 1.508 1.505a1.51 1.51 0 01-1.508 1.506zm-4.94 0a1.511 1.511 0 01-1.508-1.506c0-.828.641-1.505 1.509-1.505h.037c.83 0 1.509.677 1.509 1.505 0 .829-.717 1.506-1.546 1.506zm-4.939 0a1.51 1.51 0 01-1.508-1.506c0-.828.641-1.505 1.508-1.505h.038c.83 0 1.508.677 1.508 1.505 0 .829-.716 1.506-1.546 1.506zm-4.94 0h-.037a1.51 1.51 0 01-1.508-1.506 1.51 1.51 0 011.508-1.505h.038c.83 0 1.508.677 1.508 1.505 0 .829-.641 1.506-1.508 1.506zm-4.9 0h-.039a1.51 1.51 0 01-1.508-1.506c0-.828.679-1.505 1.508-1.505h.038c.83 0 1.508.677 1.508 1.505a1.51 1.51 0 01-1.508 1.506zm-4.94 0h-.038a1.51 1.51 0 01-1.508-1.506 1.51 1.51 0 011.508-1.505h.038c.83 0 1.508.677 1.508 1.505 0 .829-.679 1.506-1.508 1.506zm-4.94 0h-.038a1.511 1.511 0 01-1.508-1.506c0-.828.679-1.505 1.508-1.505h.038c.83 0 1.508.677 1.508 1.505a1.51 1.51 0 01-1.508 1.506zm-4.94 0a1.51 1.51 0 01-1.507-1.506c0-.828.64-1.505 1.508-1.505h.037c.83 0 1.509.677 1.509 1.505 0 .829-.717 1.506-1.546 1.506zm-4.939 0a1.51 1.51 0 01-1.508-1.506c0-.828.641-1.505 1.508-1.505h.038c.83 0 1.508.677 1.508 1.505 0 .829-.716 1.506-1.546 1.506zm-4.939 0h-.038a1.51 1.51 0 01-1.508-1.506c0-.828.679-1.505 1.508-1.505h.038c.83 0 1.508.677 1.508 1.505a1.51 1.51 0 01-1.508 1.506zm-4.94 0h-.037a1.51 1.51 0 01-1.508-1.506 1.51 1.51 0 011.508-1.505h.038c.83 0 1.508.677 1.508 1.505 0 .829-.679 1.506-1.508 1.506zm-4.939 0h-.038a1.511 1.511 0 01-1.508-1.506c0-.828.679-1.505 1.508-1.505h.038c.83 0 1.508.677 1.508 1.505a1.51 1.51 0 01-1.508 1.506zm103.654 0a1.51 1.51 0 01-1.508-1.506 1.51 1.51 0 011.508-1.505c.829 0 1.508.677 1.508 1.505 0 .829-.679 1.506-1.508 1.506zM1.508 76.805c-.83 0-1.508-.678-1.508-1.506s.679-1.506 1.508-1.506c.83 0 1.508.678 1.508 1.506s-.678 1.506-1.508 1.506zm103.657-.001h-.038a1.512 1.512 0 01-1.508-1.506c0-.828.679-1.506 1.508-1.506h.038c.83 0 1.508.678 1.508 1.506s-.678 1.506-1.508 1.506zm-4.939 0h-.038c-.83 0-1.508-.678-1.508-1.506s.678-1.506 1.508-1.506h.038c.829 0 1.508.678 1.508 1.506s-.641 1.506-1.508 1.506zm-4.902 0h-.038c-.83 0-1.508-.678-1.508-1.506s.679-1.506 1.508-1.506h.038c.83 0 1.508.678 1.508 1.506s-.679 1.506-1.508 1.506zm-4.94 0h-.037c-.83 0-1.508-.678-1.508-1.506s.678-1.506 1.508-1.506h.038c.829 0 1.508.678 1.508 1.506s-.679 1.506-1.508 1.506zm-4.939 0c-.83 0-1.508-.678-1.508-1.506s.64-1.506 1.508-1.506h.038c.83 0 1.508.678 1.508 1.506s-.716 1.506-1.546 1.506zm-4.94 0c-.829 0-1.507-.678-1.507-1.506s.64-1.506 1.508-1.506h.037c.83 0 1.509.678 1.509 1.506s-.717 1.506-1.546 1.506zm-4.939 0h-.037c-.83 0-1.509-.678-1.509-1.506s.679-1.506 1.509-1.506h.037c.83 0 1.508.678 1.508 1.506s-.678 1.506-1.508 1.506zm-4.94 0h-.037c-.83 0-1.508-.678-1.508-1.506s.679-1.506 1.508-1.506h.038c.83 0 1.508.678 1.508 1.506s-.679 1.506-1.508 1.506zm-4.939 0h-.037c-.83 0-1.509-.678-1.509-1.506s.68-1.506 1.509-1.506h.037c.83 0 1.509.678 1.509 1.506s-.679 1.506-1.509 1.506zm-4.939 0h-.038c-.83 0-1.508-.678-1.508-1.506s.679-1.506 1.508-1.506h.038c.83 0 1.508.678 1.508 1.506s-.678 1.506-1.508 1.506zm-4.94 0c-.829 0-1.508-.678-1.508-1.506s.641-1.506 1.509-1.506h.037c.83 0 1.509.678 1.509 1.506s-.717 1.506-1.546 1.506zm-4.939 0c-.83 0-1.508-.678-1.508-1.506s.641-1.506 1.508-1.506h.038c.83 0 1.508.678 1.508 1.506s-.716 1.506-1.546 1.506zm-4.94 0h-.037c-.83 0-1.508-.678-1.508-1.506s.678-1.506 1.508-1.506h.038c.83 0 1.508.678 1.508 1.506s-.641 1.506-1.508 1.506zm-4.9 0h-.039c-.83 0-1.508-.678-1.508-1.506s.679-1.506 1.508-1.506h.038c.83 0 1.508.678 1.508 1.506s-.678 1.506-1.508 1.506zm-4.94 0h-.038c-.83 0-1.508-.678-1.508-1.506s.678-1.506 1.508-1.506h.038c.83 0 1.508.678 1.508 1.506s-.679 1.506-1.508 1.506zm-4.94 0h-.038c-.829 0-1.508-.678-1.508-1.506s.679-1.506 1.508-1.506h.038c.83 0 1.508.678 1.508 1.506s-.678 1.506-1.508 1.506zm-4.94 0c-.829 0-1.507-.678-1.507-1.506s.64-1.506 1.508-1.506h.037c.83 0 1.509.678 1.509 1.506s-.717 1.506-1.546 1.506zm-4.939 0c-.83 0-1.508-.678-1.508-1.506s.641-1.506 1.508-1.506h.038c.83 0 1.508.678 1.508 1.506s-.716 1.506-1.546 1.506zm-4.939 0h-.038c-.83 0-1.508-.678-1.508-1.506s.679-1.506 1.508-1.506h.038c.83 0 1.508.678 1.508 1.506s-.678 1.506-1.508 1.506zm-4.94 0h-.037c-.83 0-1.508-.678-1.508-1.506s.678-1.506 1.508-1.506h.038c.83 0 1.508.678 1.508 1.506s-.679 1.506-1.508 1.506zm-4.939 0h-.038c-.829 0-1.508-.678-1.508-1.506s.679-1.506 1.508-1.506h.038c.83 0 1.508.678 1.508 1.506s-.678 1.506-1.508 1.506zm103.654.001c-.83 0-1.508-.678-1.508-1.506s.678-1.506 1.508-1.506c.829 0 1.508.678 1.508 1.506s-.679 1.506-1.508 1.506zM1.508 71.533A1.51 1.51 0 010 70.028c0-.829.679-1.507 1.508-1.507.83 0 1.508.678 1.508 1.507a1.51 1.51 0 01-1.508 1.505zm103.657 0h-.038a1.512 1.512 0 01-1.508-1.505c0-.829.679-1.507 1.508-1.507h.038c.83 0 1.508.678 1.508 1.507a1.51 1.51 0 01-1.508 1.505zm-4.939 0h-.038a1.51 1.51 0 01-1.508-1.505c0-.829.678-1.507 1.508-1.507h.038c.829 0 1.508.678 1.508 1.507 0 .828-.641 1.505-1.508 1.505zm-4.902 0h-.038a1.51 1.51 0 01-1.508-1.505c0-.829.679-1.507 1.508-1.507h.038c.83 0 1.508.678 1.508 1.507 0 .828-.679 1.505-1.508 1.505zm-4.94 0h-.037a1.51 1.51 0 01-1.508-1.505c0-.829.678-1.507 1.508-1.507h.038c.829 0 1.508.678 1.508 1.507 0 .828-.679 1.505-1.508 1.505zm-4.939 0a1.51 1.51 0 01-1.508-1.505c0-.829.64-1.507 1.508-1.507h.038c.83 0 1.508.678 1.508 1.507 0 .828-.716 1.505-1.546 1.505zm-4.94 0a1.51 1.51 0 01-1.507-1.505c0-.829.64-1.507 1.508-1.507h.037c.83 0 1.509.678 1.509 1.507 0 .828-.717 1.505-1.546 1.505zm-4.939 0h-.037c-.83 0-1.509-.677-1.509-1.505 0-.829.679-1.507 1.509-1.507h.037c.83 0 1.508.678 1.508 1.507a1.51 1.51 0 01-1.508 1.505zm-4.94 0h-.037a1.51 1.51 0 01-1.508-1.505c0-.829.679-1.507 1.508-1.507h.038c.83 0 1.508.678 1.508 1.507 0 .828-.679 1.505-1.508 1.505zm-4.939 0h-.037c-.83 0-1.509-.677-1.509-1.505 0-.829.68-1.507 1.509-1.507h.037c.83 0 1.509.678 1.509 1.507 0 .828-.679 1.505-1.509 1.505zm-4.939 0h-.038a1.51 1.51 0 01-1.508-1.505c0-.829.679-1.507 1.508-1.507h.038c.83 0 1.508.678 1.508 1.507a1.51 1.51 0 01-1.508 1.505zm-4.94 0a1.511 1.511 0 01-1.508-1.505c0-.829.641-1.507 1.509-1.507h.037c.83 0 1.509.678 1.509 1.507 0 .828-.717 1.505-1.546 1.505zm-4.939 0a1.51 1.51 0 01-1.508-1.505c0-.829.641-1.507 1.508-1.507h.038c.83 0 1.508.678 1.508 1.507 0 .828-.716 1.505-1.546 1.505zm-4.94 0h-.037a1.51 1.51 0 01-1.508-1.505c0-.829.678-1.507 1.508-1.507h.038c.83 0 1.508.678 1.508 1.507 0 .828-.641 1.505-1.508 1.505zm-4.9 0h-.039a1.51 1.51 0 01-1.508-1.505c0-.829.679-1.507 1.508-1.507h.038c.83 0 1.508.678 1.508 1.507a1.51 1.51 0 01-1.508 1.505zm-4.94 0h-.038a1.51 1.51 0 01-1.508-1.505c0-.829.678-1.507 1.508-1.507h.038c.83 0 1.508.678 1.508 1.507 0 .828-.679 1.505-1.508 1.505zm-4.94 0h-.038a1.511 1.511 0 01-1.508-1.505c0-.829.679-1.507 1.508-1.507h.038c.83 0 1.508.678 1.508 1.507a1.51 1.51 0 01-1.508 1.505zm-4.94 0a1.51 1.51 0 01-1.507-1.505c0-.829.64-1.507 1.508-1.507h.037c.83 0 1.509.678 1.509 1.507 0 .828-.717 1.505-1.546 1.505zm-4.939 0a1.51 1.51 0 01-1.508-1.505c0-.829.641-1.507 1.508-1.507h.038c.83 0 1.508.678 1.508 1.507 0 .828-.716 1.505-1.546 1.505zm-4.939 0h-.038a1.51 1.51 0 01-1.508-1.505c0-.829.679-1.507 1.508-1.507h.038c.83 0 1.508.678 1.508 1.507a1.51 1.51 0 01-1.508 1.505zm-4.94 0h-.037a1.51 1.51 0 01-1.508-1.505c0-.829.678-1.507 1.508-1.507h.038c.83 0 1.508.678 1.508 1.507 0 .828-.679 1.505-1.508 1.505zm-4.939 0h-.038a1.511 1.511 0 01-1.508-1.505c0-.829.679-1.507 1.508-1.507h.038c.83 0 1.508.678 1.508 1.507a1.51 1.51 0 01-1.508 1.505zm103.654 0a1.51 1.51 0 01-1.508-1.505c0-.829.678-1.507 1.508-1.507.829 0 1.508.678 1.508 1.507 0 .828-.679 1.505-1.508 1.505zM1.508 66.264c-.83 0-1.508-.678-1.508-1.506s.679-1.506 1.508-1.506c.83 0 1.508.678 1.508 1.506s-.678 1.506-1.508 1.506zm103.657-.002h-.038a1.512 1.512 0 01-1.508-1.506c0-.828.679-1.506 1.508-1.506h.038c.83 0 1.508.678 1.508 1.506s-.678 1.506-1.508 1.506zm-4.939 0h-.038c-.83 0-1.508-.678-1.508-1.506s.678-1.506 1.508-1.506h.038c.829 0 1.508.678 1.508 1.506s-.641 1.506-1.508 1.506zm-4.902 0h-.038c-.83 0-1.508-.678-1.508-1.506s.679-1.506 1.508-1.506h.038c.83 0 1.508.678 1.508 1.506s-.679 1.506-1.508 1.506zm-4.94 0h-.037c-.83 0-1.508-.678-1.508-1.506s.678-1.506 1.508-1.506h.038c.829 0 1.508.678 1.508 1.506s-.679 1.506-1.508 1.506zm-4.939 0c-.83 0-1.508-.678-1.508-1.506s.64-1.506 1.508-1.506h.038c.83 0 1.508.678 1.508 1.506s-.716 1.506-1.546 1.506zm-4.94 0c-.829 0-1.507-.678-1.507-1.506s.64-1.506 1.508-1.506h.037c.83 0 1.509.678 1.509 1.506s-.717 1.506-1.546 1.506zm-4.939 0h-.037c-.83 0-1.509-.678-1.509-1.506s.679-1.506 1.509-1.506h.037c.83 0 1.508.678 1.508 1.506s-.678 1.506-1.508 1.506zm-4.94 0h-.037c-.83 0-1.508-.678-1.508-1.506s.679-1.506 1.508-1.506h.038c.83 0 1.508.678 1.508 1.506s-.679 1.506-1.508 1.506zm-4.939 0h-.037c-.83 0-1.509-.678-1.509-1.506s.68-1.506 1.509-1.506h.037c.83 0 1.509.678 1.509 1.506s-.679 1.506-1.509 1.506zm-4.939 0h-.038c-.83 0-1.508-.678-1.508-1.506s.679-1.506 1.508-1.506h.038c.83 0 1.508.678 1.508 1.506s-.678 1.506-1.508 1.506zm-4.94 0c-.829 0-1.508-.678-1.508-1.506s.641-1.506 1.509-1.506h.037c.83 0 1.509.678 1.509 1.506s-.717 1.506-1.546 1.506zm-4.939 0c-.83 0-1.508-.678-1.508-1.506s.641-1.506 1.508-1.506h.038c.83 0 1.508.678 1.508 1.506s-.716 1.506-1.546 1.506zm-4.94 0h-.037c-.83 0-1.508-.678-1.508-1.506s.678-1.506 1.508-1.506h.038c.83 0 1.508.678 1.508 1.506s-.641 1.506-1.508 1.506zm-4.9 0h-.039c-.83 0-1.508-.678-1.508-1.506s.679-1.506 1.508-1.506h.038c.83 0 1.508.678 1.508 1.506s-.678 1.506-1.508 1.506zm-4.94 0h-.038c-.83 0-1.508-.678-1.508-1.506s.678-1.506 1.508-1.506h.038c.83 0 1.508.678 1.508 1.506s-.679 1.506-1.508 1.506zm-4.94 0h-.038c-.829 0-1.508-.678-1.508-1.506s.679-1.506 1.508-1.506h.038c.83 0 1.508.678 1.508 1.506s-.678 1.506-1.508 1.506zm-4.94 0c-.829 0-1.507-.678-1.507-1.506s.64-1.506 1.508-1.506h.037c.83 0 1.509.678 1.509 1.506s-.717 1.506-1.546 1.506zm-4.939 0c-.83 0-1.508-.678-1.508-1.506s.641-1.506 1.508-1.506h.038c.83 0 1.508.678 1.508 1.506s-.716 1.506-1.546 1.506zm-4.939 0h-.038c-.83 0-1.508-.678-1.508-1.506s.679-1.506 1.508-1.506h.038c.83 0 1.508.678 1.508 1.506s-.678 1.506-1.508 1.506zm-4.94 0h-.037c-.83 0-1.508-.678-1.508-1.506s.678-1.506 1.508-1.506h.038c.83 0 1.508.678 1.508 1.506s-.679 1.506-1.508 1.506zm-4.939 0h-.038c-.829 0-1.508-.678-1.508-1.506s.679-1.506 1.508-1.506h.038c.83 0 1.508.678 1.508 1.506s-.678 1.506-1.508 1.506zm103.654 0c-.83 0-1.508-.678-1.508-1.506s.678-1.506 1.508-1.506c.829 0 1.508.678 1.508 1.506s-.679 1.506-1.508 1.506zM1.508 60.992A1.51 1.51 0 010 59.486c0-.828.679-1.505 1.508-1.505.83 0 1.508.677 1.508 1.505a1.51 1.51 0 01-1.508 1.506zm103.657 0h-.038a1.512 1.512 0 01-1.508-1.506c0-.828.679-1.505 1.508-1.505h.038c.83 0 1.508.677 1.508 1.505a1.51 1.51 0 01-1.508 1.506zm-4.939 0h-.038a1.51 1.51 0 01-1.508-1.506 1.51 1.51 0 011.508-1.505h.038c.829 0 1.508.677 1.508 1.505 0 .829-.641 1.506-1.508 1.506zm-4.902 0h-.038a1.51 1.51 0 01-1.508-1.506c0-.828.679-1.505 1.508-1.505h.038c.83 0 1.508.677 1.508 1.505 0 .829-.679 1.506-1.508 1.506zm-4.94 0h-.037a1.51 1.51 0 01-1.508-1.506 1.51 1.51 0 011.508-1.505h.038c.829 0 1.508.677 1.508 1.505 0 .829-.679 1.506-1.508 1.506zm-4.939 0a1.51 1.51 0 01-1.508-1.506c0-.828.64-1.505 1.508-1.505h.038c.83 0 1.508.677 1.508 1.505 0 .829-.716 1.506-1.546 1.506zm-4.94 0a1.51 1.51 0 01-1.507-1.506c0-.828.64-1.505 1.508-1.505h.037c.83 0 1.509.677 1.509 1.505 0 .829-.717 1.506-1.546 1.506zm-4.939 0h-.037c-.83 0-1.509-.677-1.509-1.506 0-.828.679-1.505 1.509-1.505h.037c.83 0 1.508.677 1.508 1.505a1.51 1.51 0 01-1.508 1.506zm-4.94 0h-.037a1.51 1.51 0 01-1.508-1.506c0-.828.679-1.505 1.508-1.505h.038c.83 0 1.508.677 1.508 1.505 0 .829-.679 1.506-1.508 1.506zm-4.939 0h-.037c-.83 0-1.509-.677-1.509-1.506 0-.828.68-1.505 1.509-1.505h.037c.83 0 1.509.677 1.509 1.505 0 .829-.679 1.506-1.509 1.506zm-4.939 0h-.038a1.51 1.51 0 01-1.508-1.506c0-.828.679-1.505 1.508-1.505h.038c.83 0 1.508.677 1.508 1.505a1.51 1.51 0 01-1.508 1.506zm-4.94 0a1.511 1.511 0 01-1.508-1.506c0-.828.641-1.505 1.509-1.505h.037c.83 0 1.509.677 1.509 1.505 0 .829-.717 1.506-1.546 1.506zm-4.939 0a1.51 1.51 0 01-1.508-1.506c0-.828.641-1.505 1.508-1.505h.038c.83 0 1.508.677 1.508 1.505 0 .829-.716 1.506-1.546 1.506zm-4.94 0h-.037a1.51 1.51 0 01-1.508-1.506 1.51 1.51 0 011.508-1.505h.038c.83 0 1.508.677 1.508 1.505 0 .829-.641 1.506-1.508 1.506zm-4.9 0h-.039a1.51 1.51 0 01-1.508-1.506c0-.828.679-1.505 1.508-1.505h.038c.83 0 1.508.677 1.508 1.505a1.51 1.51 0 01-1.508 1.506zm-4.94 0h-.038a1.51 1.51 0 01-1.508-1.506 1.51 1.51 0 011.508-1.505h.038c.83 0 1.508.677 1.508 1.505 0 .829-.679 1.506-1.508 1.506zm-4.94 0h-.038a1.511 1.511 0 01-1.508-1.506c0-.828.679-1.505 1.508-1.505h.038c.83 0 1.508.677 1.508 1.505a1.51 1.51 0 01-1.508 1.506zm-4.94 0a1.51 1.51 0 01-1.507-1.506c0-.828.64-1.505 1.508-1.505h.037c.83 0 1.509.677 1.509 1.505 0 .829-.717 1.506-1.546 1.506zm-4.939 0a1.51 1.51 0 01-1.508-1.506c0-.828.641-1.505 1.508-1.505h.038c.83 0 1.508.677 1.508 1.505 0 .829-.716 1.506-1.546 1.506zm-4.939 0h-.038a1.51 1.51 0 01-1.508-1.506c0-.828.679-1.505 1.508-1.505h.038c.83 0 1.508.677 1.508 1.505a1.51 1.51 0 01-1.508 1.506zm-4.94 0h-.037a1.51 1.51 0 01-1.508-1.506 1.51 1.51 0 011.508-1.505h.038c.83 0 1.508.677 1.508 1.505 0 .829-.679 1.506-1.508 1.506zm-4.939 0h-.038a1.511 1.511 0 01-1.508-1.506c0-.828.679-1.505 1.508-1.505h.038c.83 0 1.508.677 1.508 1.505a1.51 1.51 0 01-1.508 1.506zm103.654-.001a1.51 1.51 0 01-1.508-1.505 1.51 1.51 0 011.508-1.506c.829 0 1.508.677 1.508 1.506 0 .828-.679 1.505-1.508 1.505zM1.508 55.72A1.51 1.51 0 010 54.216c0-.828.679-1.506 1.508-1.506.83 0 1.508.678 1.508 1.506s-.678 1.506-1.508 1.506zm103.657 0h-.038a1.512 1.512 0 01-1.508-1.505c0-.828.679-1.506 1.508-1.506h.038c.83 0 1.508.678 1.508 1.506s-.678 1.506-1.508 1.506zm-4.939 0h-.038a1.51 1.51 0 01-1.508-1.505c0-.828.678-1.506 1.508-1.506h.038c.829 0 1.508.678 1.508 1.506s-.641 1.506-1.508 1.506zm-4.902 0h-.038a1.51 1.51 0 01-1.508-1.505c0-.828.679-1.506 1.508-1.506h.038c.83 0 1.508.678 1.508 1.506s-.679 1.506-1.508 1.506zm-4.94 0h-.037a1.51 1.51 0 01-1.508-1.505c0-.828.678-1.506 1.508-1.506h.038c.829 0 1.508.678 1.508 1.506s-.679 1.506-1.508 1.506zm-4.939 0a1.51 1.51 0 01-1.508-1.505c0-.828.64-1.506 1.508-1.506h.038c.83 0 1.508.678 1.508 1.506s-.716 1.506-1.546 1.506zm-4.94 0a1.51 1.51 0 01-1.507-1.505c0-.828.64-1.506 1.508-1.506h.037c.83 0 1.509.678 1.509 1.506s-.717 1.506-1.546 1.506zm-4.939 0h-.037c-.83 0-1.509-.677-1.509-1.505 0-.828.679-1.506 1.509-1.506h.037c.83 0 1.508.678 1.508 1.506s-.678 1.506-1.508 1.506zm-4.94 0h-.037a1.51 1.51 0 01-1.508-1.505c0-.828.679-1.506 1.508-1.506h.038c.83 0 1.508.678 1.508 1.506s-.679 1.506-1.508 1.506zm-4.939 0h-.037c-.83 0-1.509-.677-1.509-1.505 0-.828.68-1.506 1.509-1.506h.037c.83 0 1.509.678 1.509 1.506s-.679 1.506-1.509 1.506zm-4.939 0h-.038a1.51 1.51 0 01-1.508-1.505c0-.828.679-1.506 1.508-1.506h.038c.83 0 1.508.678 1.508 1.506s-.678 1.506-1.508 1.506zm-4.94 0a1.511 1.511 0 01-1.508-1.505c0-.828.641-1.506 1.509-1.506h.037c.83 0 1.509.678 1.509 1.506s-.717 1.506-1.546 1.506zm-4.939 0a1.51 1.51 0 01-1.508-1.505c0-.828.641-1.506 1.508-1.506h.038c.83 0 1.508.678 1.508 1.506s-.716 1.506-1.546 1.506zm-4.94 0h-.037a1.51 1.51 0 01-1.508-1.505c0-.828.678-1.506 1.508-1.506h.038c.83 0 1.508.678 1.508 1.506s-.641 1.506-1.508 1.506zm-4.9 0h-.039a1.51 1.51 0 01-1.508-1.505c0-.828.679-1.506 1.508-1.506h.038c.83 0 1.508.678 1.508 1.506s-.678 1.506-1.508 1.506zm-4.94 0h-.038a1.51 1.51 0 01-1.508-1.505c0-.828.678-1.506 1.508-1.506h.038c.83 0 1.508.678 1.508 1.506s-.679 1.506-1.508 1.506zm-4.94 0h-.038a1.511 1.511 0 01-1.508-1.505c0-.828.679-1.506 1.508-1.506h.038c.83 0 1.508.678 1.508 1.506s-.678 1.506-1.508 1.506zm-4.94 0a1.51 1.51 0 01-1.507-1.505c0-.828.64-1.506 1.508-1.506h.037c.83 0 1.509.678 1.509 1.506s-.717 1.506-1.546 1.506zm-4.939 0a1.51 1.51 0 01-1.508-1.505c0-.828.641-1.506 1.508-1.506h.038c.83 0 1.508.678 1.508 1.506s-.716 1.506-1.546 1.506zm-4.939 0h-.038a1.51 1.51 0 01-1.508-1.505c0-.828.679-1.506 1.508-1.506h.038c.83 0 1.508.678 1.508 1.506s-.678 1.506-1.508 1.506zm-4.94 0h-.037a1.51 1.51 0 01-1.508-1.505c0-.828.678-1.506 1.508-1.506h.038c.83 0 1.508.678 1.508 1.506s-.679 1.506-1.508 1.506zm-4.939 0h-.038a1.511 1.511 0 01-1.508-1.505c0-.828.679-1.506 1.508-1.506h.038c.83 0 1.508.678 1.508 1.506s-.678 1.506-1.508 1.506zm103.654 0a1.51 1.51 0 01-1.508-1.505c0-.828.678-1.506 1.508-1.506.829 0 1.508.678 1.508 1.506s-.679 1.506-1.508 1.506zM1.508 50.45A1.51 1.51 0 010 48.944c0-.828.679-1.506 1.508-1.506.83 0 1.508.678 1.508 1.506a1.51 1.51 0 01-1.508 1.506zm103.657 0h-.038a1.512 1.512 0 01-1.508-1.506c0-.828.679-1.506 1.508-1.506h.038c.83 0 1.508.678 1.508 1.506a1.51 1.51 0 01-1.508 1.506zm-4.939 0h-.038a1.51 1.51 0 01-1.508-1.506c0-.828.678-1.506 1.508-1.506h.038c.829 0 1.508.678 1.508 1.506 0 .829-.641 1.506-1.508 1.506zm-4.902 0h-.038a1.51 1.51 0 01-1.508-1.506c0-.828.679-1.506 1.508-1.506h.038c.83 0 1.508.678 1.508 1.506 0 .829-.679 1.506-1.508 1.506zm-4.94 0h-.037a1.51 1.51 0 01-1.508-1.506c0-.828.678-1.506 1.508-1.506h.038c.829 0 1.508.678 1.508 1.506 0 .829-.679 1.506-1.508 1.506zm-4.939 0a1.51 1.51 0 01-1.508-1.506c0-.828.64-1.506 1.508-1.506h.038c.83 0 1.508.678 1.508 1.506 0 .829-.716 1.506-1.546 1.506zm-4.94 0a1.51 1.51 0 01-1.507-1.506c0-.828.64-1.506 1.508-1.506h.037c.83 0 1.509.678 1.509 1.506 0 .829-.717 1.506-1.546 1.506zm-4.939 0h-.037c-.83 0-1.509-.677-1.509-1.506 0-.828.679-1.506 1.509-1.506h.037c.83 0 1.508.678 1.508 1.506a1.51 1.51 0 01-1.508 1.506zm-4.94 0h-.037a1.51 1.51 0 01-1.508-1.506c0-.828.679-1.506 1.508-1.506h.038c.83 0 1.508.678 1.508 1.506 0 .829-.679 1.506-1.508 1.506zm-4.939 0h-.037c-.83 0-1.509-.677-1.509-1.506 0-.828.68-1.506 1.509-1.506h.037c.83 0 1.509.678 1.509 1.506 0 .829-.679 1.506-1.509 1.506zm-4.939 0h-.038a1.51 1.51 0 01-1.508-1.506c0-.828.679-1.506 1.508-1.506h.038c.83 0 1.508.678 1.508 1.506a1.51 1.51 0 01-1.508 1.506zm-4.94 0a1.511 1.511 0 01-1.508-1.506c0-.828.641-1.506 1.509-1.506h.037c.83 0 1.509.678 1.509 1.506 0 .829-.717 1.506-1.546 1.506zm-4.939 0a1.51 1.51 0 01-1.508-1.506c0-.828.641-1.506 1.508-1.506h.038c.83 0 1.508.678 1.508 1.506 0 .829-.716 1.506-1.546 1.506zm-4.94 0h-.037a1.51 1.51 0 01-1.508-1.506c0-.828.678-1.506 1.508-1.506h.038c.83 0 1.508.678 1.508 1.506 0 .829-.641 1.506-1.508 1.506zm-4.9 0h-.039a1.51 1.51 0 01-1.508-1.506c0-.828.679-1.506 1.508-1.506h.038c.83 0 1.508.678 1.508 1.506a1.51 1.51 0 01-1.508 1.506zm-4.94 0h-.038a1.51 1.51 0 01-1.508-1.506c0-.828.678-1.506 1.508-1.506h.038c.83 0 1.508.678 1.508 1.506 0 .829-.679 1.506-1.508 1.506zm-4.94 0h-.038a1.511 1.511 0 01-1.508-1.506c0-.828.679-1.506 1.508-1.506h.038c.83 0 1.508.678 1.508 1.506a1.51 1.51 0 01-1.508 1.506zm-4.94 0a1.51 1.51 0 01-1.507-1.506c0-.828.64-1.506 1.508-1.506h.037c.83 0 1.509.678 1.509 1.506 0 .829-.717 1.506-1.546 1.506zm-4.939 0a1.51 1.51 0 01-1.508-1.506c0-.828.641-1.506 1.508-1.506h.038c.83 0 1.508.678 1.508 1.506 0 .829-.716 1.506-1.546 1.506zm-4.939 0h-.038a1.51 1.51 0 01-1.508-1.506c0-.828.679-1.506 1.508-1.506h.038c.83 0 1.508.678 1.508 1.506a1.51 1.51 0 01-1.508 1.506zm-4.94 0h-.037a1.51 1.51 0 01-1.508-1.506c0-.828.678-1.506 1.508-1.506h.038c.83 0 1.508.678 1.508 1.506 0 .829-.679 1.506-1.508 1.506zm-4.939 0h-.038a1.511 1.511 0 01-1.508-1.506c0-.828.679-1.506 1.508-1.506h.038c.83 0 1.508.678 1.508 1.506a1.51 1.51 0 01-1.508 1.506zm103.654 0a1.51 1.51 0 01-1.508-1.506c0-.828.678-1.506 1.508-1.506.829 0 1.508.678 1.508 1.506 0 .829-.679 1.506-1.508 1.506zM1.508 45.18C.678 45.18 0 44.502 0 43.674s.679-1.506 1.508-1.506c.83 0 1.508.678 1.508 1.506s-.678 1.506-1.508 1.506zm103.657 0h-.038a1.512 1.512 0 01-1.508-1.506c0-.828.679-1.506 1.508-1.506h.038c.83 0 1.508.678 1.508 1.506s-.678 1.506-1.508 1.506zm-4.939 0h-.038c-.83 0-1.508-.678-1.508-1.506s.678-1.506 1.508-1.506h.038c.829 0 1.508.678 1.508 1.506s-.641 1.506-1.508 1.506zm-4.902 0h-.038c-.83 0-1.508-.678-1.508-1.506s.679-1.506 1.508-1.506h.038c.83 0 1.508.678 1.508 1.506s-.679 1.506-1.508 1.506zm-4.94 0h-.037c-.83 0-1.508-.678-1.508-1.506s.678-1.506 1.508-1.506h.038c.829 0 1.508.678 1.508 1.506s-.679 1.506-1.508 1.506zm-4.939 0c-.83 0-1.508-.678-1.508-1.506s.64-1.506 1.508-1.506h.038c.83 0 1.508.678 1.508 1.506s-.716 1.506-1.546 1.506zm-4.94 0c-.829 0-1.507-.678-1.507-1.506s.64-1.506 1.508-1.506h.037c.83 0 1.509.678 1.509 1.506s-.717 1.506-1.546 1.506zm-4.939 0h-.037c-.83 0-1.509-.678-1.509-1.506s.679-1.506 1.509-1.506h.037c.83 0 1.508.678 1.508 1.506s-.678 1.506-1.508 1.506zm-4.94 0h-.037c-.83 0-1.508-.678-1.508-1.506s.679-1.506 1.508-1.506h.038c.83 0 1.508.678 1.508 1.506s-.679 1.506-1.508 1.506zm-4.939 0h-.037c-.83 0-1.509-.678-1.509-1.506s.68-1.506 1.509-1.506h.037c.83 0 1.509.678 1.509 1.506s-.679 1.506-1.509 1.506zm-4.939 0h-.038c-.83 0-1.508-.678-1.508-1.506s.679-1.506 1.508-1.506h.038c.83 0 1.508.678 1.508 1.506s-.678 1.506-1.508 1.506zm-4.94 0c-.829 0-1.508-.678-1.508-1.506s.641-1.506 1.509-1.506h.037c.83 0 1.509.678 1.509 1.506s-.717 1.506-1.546 1.506zm-4.939 0c-.83 0-1.508-.678-1.508-1.506s.641-1.506 1.508-1.506h.038c.83 0 1.508.678 1.508 1.506S51.7 45.18 50.87 45.18zm-4.94 0h-.037c-.83 0-1.508-.678-1.508-1.506s.678-1.506 1.508-1.506h.038c.83 0 1.508.678 1.508 1.506s-.641 1.506-1.508 1.506zm-4.9 0h-.039c-.83 0-1.508-.678-1.508-1.506s.679-1.506 1.508-1.506h.038c.83 0 1.508.678 1.508 1.506s-.678 1.506-1.508 1.506zm-4.94 0h-.038c-.83 0-1.508-.678-1.508-1.506s.678-1.506 1.508-1.506h.038c.83 0 1.508.678 1.508 1.506s-.679 1.506-1.508 1.506zm-4.94 0h-.038c-.829 0-1.508-.678-1.508-1.506s.679-1.506 1.508-1.506h.038c.83 0 1.508.678 1.508 1.506s-.678 1.506-1.508 1.506zm-4.94 0c-.829 0-1.507-.678-1.507-1.506s.64-1.506 1.508-1.506h.037c.83 0 1.509.678 1.509 1.506s-.717 1.506-1.546 1.506zm-4.939 0c-.83 0-1.508-.678-1.508-1.506s.641-1.506 1.508-1.506h.038c.83 0 1.508.678 1.508 1.506S22.1 45.18 21.27 45.18zm-4.939 0h-.038c-.83 0-1.508-.678-1.508-1.506s.679-1.506 1.508-1.506h.038c.83 0 1.508.678 1.508 1.506s-.678 1.506-1.508 1.506zm-4.94 0h-.037c-.83 0-1.508-.678-1.508-1.506s.678-1.506 1.508-1.506h.038c.83 0 1.508.678 1.508 1.506s-.679 1.506-1.508 1.506zm-4.939 0h-.038c-.829 0-1.508-.678-1.508-1.506s.679-1.506 1.508-1.506h.038c.83 0 1.508.678 1.508 1.506s-.678 1.506-1.508 1.506zm103.654-.001c-.83 0-1.508-.678-1.508-1.506s.678-1.506 1.508-1.506c.829 0 1.508.678 1.508 1.506s-.679 1.506-1.508 1.506zM1.508 39.908A1.51 1.51 0 010 38.403c0-.829.679-1.506 1.508-1.506.83 0 1.508.677 1.508 1.506a1.51 1.51 0 01-1.508 1.505zm103.657 0h-.038a1.512 1.512 0 01-1.508-1.505c0-.829.679-1.506 1.508-1.506h.038c.83 0 1.508.677 1.508 1.506a1.51 1.51 0 01-1.508 1.505zm-4.939 0h-.038a1.51 1.51 0 01-1.508-1.505 1.51 1.51 0 011.508-1.506h.038c.829 0 1.508.677 1.508 1.506 0 .828-.641 1.505-1.508 1.505zm-4.902 0h-.038a1.51 1.51 0 01-1.508-1.505c0-.829.679-1.506 1.508-1.506h.038c.83 0 1.508.677 1.508 1.506 0 .828-.679 1.505-1.508 1.505zm-4.94 0h-.037a1.51 1.51 0 01-1.508-1.505 1.51 1.51 0 011.508-1.506h.038c.829 0 1.508.677 1.508 1.506 0 .828-.679 1.505-1.508 1.505zm-4.939 0a1.51 1.51 0 01-1.508-1.505c0-.829.64-1.506 1.508-1.506h.038c.83 0 1.508.677 1.508 1.506 0 .828-.716 1.505-1.546 1.505zm-4.94 0a1.51 1.51 0 01-1.507-1.505c0-.829.64-1.506 1.508-1.506h.037c.83 0 1.509.677 1.509 1.506 0 .828-.717 1.505-1.546 1.505zm-4.939 0h-.037c-.83 0-1.509-.677-1.509-1.505 0-.829.679-1.506 1.509-1.506h.037c.83 0 1.508.677 1.508 1.506a1.51 1.51 0 01-1.508 1.505zm-4.94 0h-.037a1.51 1.51 0 01-1.508-1.505c0-.829.679-1.506 1.508-1.506h.038c.83 0 1.508.677 1.508 1.506 0 .828-.679 1.505-1.508 1.505zm-4.939 0h-.037c-.83 0-1.509-.677-1.509-1.505 0-.829.68-1.506 1.509-1.506h.037c.83 0 1.509.677 1.509 1.506 0 .828-.679 1.505-1.509 1.505zm-4.939 0h-.038a1.51 1.51 0 01-1.508-1.505c0-.829.679-1.506 1.508-1.506h.038c.83 0 1.508.677 1.508 1.506a1.51 1.51 0 01-1.508 1.505zm-4.94 0a1.511 1.511 0 01-1.508-1.505c0-.829.641-1.506 1.509-1.506h.037c.83 0 1.509.677 1.509 1.506 0 .828-.717 1.505-1.546 1.505zm-4.939 0a1.51 1.51 0 01-1.508-1.505c0-.829.641-1.506 1.508-1.506h.038c.83 0 1.508.677 1.508 1.506 0 .828-.716 1.505-1.546 1.505zm-4.94 0h-.037a1.51 1.51 0 01-1.508-1.505 1.51 1.51 0 011.508-1.506h.038c.83 0 1.508.677 1.508 1.506 0 .828-.641 1.505-1.508 1.505zm-4.9 0h-.039a1.51 1.51 0 01-1.508-1.505c0-.829.679-1.506 1.508-1.506h.038c.83 0 1.508.677 1.508 1.506a1.51 1.51 0 01-1.508 1.505zm-4.94 0h-.038a1.51 1.51 0 01-1.508-1.505 1.51 1.51 0 011.508-1.506h.038c.83 0 1.508.677 1.508 1.506 0 .828-.679 1.505-1.508 1.505zm-4.94 0h-.038a1.511 1.511 0 01-1.508-1.505c0-.829.679-1.506 1.508-1.506h.038c.83 0 1.508.677 1.508 1.506a1.51 1.51 0 01-1.508 1.505zm-4.94 0a1.51 1.51 0 01-1.507-1.505c0-.829.64-1.506 1.508-1.506h.037c.83 0 1.509.677 1.509 1.506 0 .828-.717 1.505-1.546 1.505zm-4.939 0a1.51 1.51 0 01-1.508-1.505c0-.829.641-1.506 1.508-1.506h.038c.83 0 1.508.677 1.508 1.506 0 .828-.716 1.505-1.546 1.505zm-4.939 0h-.038a1.51 1.51 0 01-1.508-1.505c0-.829.679-1.506 1.508-1.506h.038c.83 0 1.508.677 1.508 1.506a1.51 1.51 0 01-1.508 1.505zm-4.94 0h-.037a1.51 1.51 0 01-1.508-1.505 1.51 1.51 0 011.508-1.506h.038c.83 0 1.508.677 1.508 1.506 0 .828-.679 1.505-1.508 1.505zm-4.939 0h-.038a1.511 1.511 0 01-1.508-1.505c0-.829.679-1.506 1.508-1.506h.038c.83 0 1.508.677 1.508 1.506a1.51 1.51 0 01-1.508 1.505zm103.654 0a1.51 1.51 0 01-1.508-1.505 1.51 1.51 0 011.508-1.506c.829 0 1.508.677 1.508 1.506 0 .828-.679 1.505-1.508 1.505zM1.508 34.639C.678 34.639 0 33.96 0 33.133s.679-1.506 1.508-1.506c.83 0 1.508.678 1.508 1.506s-.678 1.506-1.508 1.506zm103.657-.002h-.038a1.512 1.512 0 01-1.508-1.506c0-.828.679-1.506 1.508-1.506h.038c.83 0 1.508.678 1.508 1.506s-.678 1.506-1.508 1.506zm-4.939 0h-.038c-.83 0-1.508-.678-1.508-1.506s.678-1.506 1.508-1.506h.038c.829 0 1.508.678 1.508 1.506s-.641 1.506-1.508 1.506zm-4.902 0h-.038c-.83 0-1.508-.678-1.508-1.506s.679-1.506 1.508-1.506h.038c.83 0 1.508.678 1.508 1.506s-.679 1.506-1.508 1.506zm-4.94 0h-.037c-.83 0-1.508-.678-1.508-1.506s.678-1.506 1.508-1.506h.038c.829 0 1.508.678 1.508 1.506s-.679 1.506-1.508 1.506zm-4.939 0c-.83 0-1.508-.678-1.508-1.506s.64-1.506 1.508-1.506h.038c.83 0 1.508.678 1.508 1.506s-.716 1.506-1.546 1.506zm-4.94 0c-.829 0-1.507-.678-1.507-1.506s.64-1.506 1.508-1.506h.037c.83 0 1.509.678 1.509 1.506s-.717 1.506-1.546 1.506zm-4.939 0h-.037c-.83 0-1.509-.678-1.509-1.506s.679-1.506 1.509-1.506h.037c.83 0 1.508.678 1.508 1.506s-.678 1.506-1.508 1.506zm-4.94 0h-.037c-.83 0-1.508-.678-1.508-1.506s.679-1.506 1.508-1.506h.038c.83 0 1.508.678 1.508 1.506s-.679 1.506-1.508 1.506zm-4.939 0h-.037c-.83 0-1.509-.678-1.509-1.506s.68-1.506 1.509-1.506h.037c.83 0 1.509.678 1.509 1.506s-.679 1.506-1.509 1.506zm-4.939 0h-.038c-.83 0-1.508-.678-1.508-1.506s.679-1.506 1.508-1.506h.038c.83 0 1.508.678 1.508 1.506s-.678 1.506-1.508 1.506zm-4.94 0c-.829 0-1.508-.678-1.508-1.506s.641-1.506 1.509-1.506h.037c.83 0 1.509.678 1.509 1.506s-.717 1.506-1.546 1.506zm-4.939 0c-.83 0-1.508-.678-1.508-1.506s.641-1.506 1.508-1.506h.038c.83 0 1.508.678 1.508 1.506s-.716 1.506-1.546 1.506zm-4.94 0h-.037c-.83 0-1.508-.678-1.508-1.506s.678-1.506 1.508-1.506h.038c.83 0 1.508.678 1.508 1.506s-.641 1.506-1.508 1.506zm-4.9 0h-.039c-.83 0-1.508-.678-1.508-1.506s.679-1.506 1.508-1.506h.038c.83 0 1.508.678 1.508 1.506s-.678 1.506-1.508 1.506zm-4.94 0h-.038c-.83 0-1.508-.678-1.508-1.506s.678-1.506 1.508-1.506h.038c.83 0 1.508.678 1.508 1.506s-.679 1.506-1.508 1.506zm-4.94 0h-.038c-.829 0-1.508-.678-1.508-1.506s.679-1.506 1.508-1.506h.038c.83 0 1.508.678 1.508 1.506s-.678 1.506-1.508 1.506zm-4.94 0c-.829 0-1.507-.678-1.507-1.506s.64-1.506 1.508-1.506h.037c.83 0 1.509.678 1.509 1.506s-.717 1.506-1.546 1.506zm-4.939 0c-.83 0-1.508-.678-1.508-1.506s.641-1.506 1.508-1.506h.038c.83 0 1.508.678 1.508 1.506s-.716 1.506-1.546 1.506zm-4.939 0h-.038c-.83 0-1.508-.678-1.508-1.506s.679-1.506 1.508-1.506h.038c.83 0 1.508.678 1.508 1.506s-.678 1.506-1.508 1.506zm-4.94 0h-.037c-.83 0-1.508-.678-1.508-1.506s.678-1.506 1.508-1.506h.038c.83 0 1.508.678 1.508 1.506s-.679 1.506-1.508 1.506zm-4.939 0h-.038c-.829 0-1.508-.678-1.508-1.506s.679-1.506 1.508-1.506h.038c.83 0 1.508.678 1.508 1.506s-.678 1.506-1.508 1.506zm103.654 0c-.83 0-1.508-.678-1.508-1.506s.678-1.506 1.508-1.506c.829 0 1.508.678 1.508 1.506s-.679 1.506-1.508 1.506zM1.508 29.366C.678 29.366 0 28.688 0 27.86c0-.829.679-1.506 1.508-1.506.83 0 1.508.677 1.508 1.506 0 .828-.678 1.506-1.508 1.506zm103.657 0h-.038a1.512 1.512 0 01-1.508-1.506c0-.828.679-1.505 1.508-1.505h.038c.83 0 1.508.677 1.508 1.505a1.51 1.51 0 01-1.508 1.506zm-4.939 0h-.038a1.51 1.51 0 01-1.508-1.506 1.51 1.51 0 011.508-1.505h.038c.829 0 1.508.677 1.508 1.505 0 .829-.641 1.506-1.508 1.506zm-4.902 0h-.038a1.51 1.51 0 01-1.508-1.506c0-.828.679-1.505 1.508-1.505h.038c.83 0 1.508.677 1.508 1.505 0 .829-.679 1.506-1.508 1.506zm-4.94 0h-.037a1.51 1.51 0 01-1.508-1.506 1.51 1.51 0 011.508-1.505h.038c.829 0 1.508.677 1.508 1.505 0 .829-.679 1.506-1.508 1.506zm-4.939 0a1.51 1.51 0 01-1.508-1.506c0-.828.64-1.505 1.508-1.505h.038c.83 0 1.508.677 1.508 1.505 0 .829-.716 1.506-1.546 1.506zm-4.94 0a1.51 1.51 0 01-1.507-1.506c0-.828.64-1.505 1.508-1.505h.037c.83 0 1.509.677 1.509 1.505 0 .829-.717 1.506-1.546 1.506zm-4.939 0h-.037c-.83 0-1.509-.677-1.509-1.506 0-.828.679-1.505 1.509-1.505h.037c.83 0 1.508.677 1.508 1.505a1.51 1.51 0 01-1.508 1.506zm-4.94 0h-.037a1.51 1.51 0 01-1.508-1.506c0-.828.679-1.505 1.508-1.505h.038c.83 0 1.508.677 1.508 1.505 0 .829-.679 1.506-1.508 1.506zm-4.939 0h-.037c-.83 0-1.509-.677-1.509-1.506 0-.828.68-1.505 1.509-1.505h.037c.83 0 1.509.677 1.509 1.505 0 .829-.679 1.506-1.509 1.506zm-4.939 0h-.038a1.51 1.51 0 01-1.508-1.506c0-.828.679-1.505 1.508-1.505h.038c.83 0 1.508.677 1.508 1.505a1.51 1.51 0 01-1.508 1.506zm-4.94 0A1.511 1.511 0 0154.3 27.86c0-.828.641-1.505 1.509-1.505h.037c.83 0 1.509.677 1.509 1.505 0 .829-.717 1.506-1.546 1.506zm-4.939 0a1.51 1.51 0 01-1.508-1.506c0-.828.641-1.505 1.508-1.505h.038c.83 0 1.508.677 1.508 1.505 0 .829-.716 1.506-1.546 1.506zm-4.94 0h-.037a1.51 1.51 0 01-1.508-1.506 1.51 1.51 0 011.508-1.505h.038c.83 0 1.508.677 1.508 1.505 0 .829-.641 1.506-1.508 1.506zm-4.9 0h-.039a1.51 1.51 0 01-1.508-1.506c0-.828.679-1.505 1.508-1.505h.038c.83 0 1.508.677 1.508 1.505a1.51 1.51 0 01-1.508 1.506zm-4.94 0h-.038a1.51 1.51 0 01-1.508-1.506 1.51 1.51 0 011.508-1.505h.038c.83 0 1.508.677 1.508 1.505 0 .829-.679 1.506-1.508 1.506zm-4.94 0h-.038a1.511 1.511 0 01-1.508-1.506c0-.828.679-1.505 1.508-1.505h.038c.83 0 1.508.677 1.508 1.505a1.51 1.51 0 01-1.508 1.506zm-4.94 0a1.51 1.51 0 01-1.507-1.506c0-.828.64-1.505 1.508-1.505h.037c.83 0 1.509.677 1.509 1.505 0 .829-.717 1.506-1.546 1.506zm-4.939 0a1.51 1.51 0 01-1.508-1.506c0-.828.641-1.505 1.508-1.505h.038c.83 0 1.508.677 1.508 1.505 0 .829-.716 1.506-1.546 1.506zm-4.939 0h-.038a1.51 1.51 0 01-1.508-1.506c0-.828.679-1.505 1.508-1.505h.038c.83 0 1.508.677 1.508 1.505a1.51 1.51 0 01-1.508 1.506zm-4.94 0h-.037a1.51 1.51 0 01-1.508-1.506 1.51 1.51 0 011.508-1.505h.038c.83 0 1.508.677 1.508 1.505 0 .829-.679 1.506-1.508 1.506zm-4.939 0h-.038a1.511 1.511 0 01-1.508-1.506c0-.828.679-1.505 1.508-1.505h.038c.83 0 1.508.677 1.508 1.505a1.51 1.51 0 01-1.508 1.506zm103.654 0c-.83 0-1.508-.678-1.508-1.506a1.51 1.51 0 011.508-1.506c.829 0 1.508.677 1.508 1.506 0 .828-.679 1.506-1.508 1.506zM1.508 24.096C.678 24.096 0 23.418 0 22.59s.679-1.506 1.508-1.506c.83 0 1.508.678 1.508 1.506s-.678 1.506-1.508 1.506zm103.657 0h-.038a1.512 1.512 0 01-1.508-1.506c0-.828.679-1.506 1.508-1.506h.038c.83 0 1.508.678 1.508 1.506s-.678 1.506-1.508 1.506zm-4.939 0h-.038c-.83 0-1.508-.678-1.508-1.506s.678-1.506 1.508-1.506h.038c.829 0 1.508.678 1.508 1.506s-.641 1.506-1.508 1.506zm-4.902 0h-.038c-.83 0-1.508-.678-1.508-1.506s.679-1.506 1.508-1.506h.038c.83 0 1.508.678 1.508 1.506s-.679 1.506-1.508 1.506zm-4.94 0h-.037c-.83 0-1.508-.678-1.508-1.506s.678-1.506 1.508-1.506h.038c.829 0 1.508.678 1.508 1.506s-.679 1.506-1.508 1.506zm-4.939 0c-.83 0-1.508-.678-1.508-1.506s.64-1.506 1.508-1.506h.038c.83 0 1.508.678 1.508 1.506s-.716 1.506-1.546 1.506zm-4.94 0c-.829 0-1.507-.678-1.507-1.506s.64-1.506 1.508-1.506h.037c.83 0 1.509.678 1.509 1.506s-.717 1.506-1.546 1.506zm-4.939 0h-.037c-.83 0-1.509-.678-1.509-1.506s.679-1.506 1.509-1.506h.037c.83 0 1.508.678 1.508 1.506s-.678 1.506-1.508 1.506zm-4.94 0h-.037c-.83 0-1.508-.678-1.508-1.506s.679-1.506 1.508-1.506h.038c.83 0 1.508.678 1.508 1.506s-.679 1.506-1.508 1.506zm-4.939 0h-.037c-.83 0-1.509-.678-1.509-1.506s.68-1.506 1.509-1.506h.037c.83 0 1.509.678 1.509 1.506s-.679 1.506-1.509 1.506zm-4.939 0h-.038c-.83 0-1.508-.678-1.508-1.506s.679-1.506 1.508-1.506h.038c.83 0 1.508.678 1.508 1.506s-.678 1.506-1.508 1.506zm-4.94 0c-.829 0-1.508-.678-1.508-1.506s.641-1.506 1.509-1.506h.037c.83 0 1.509.678 1.509 1.506s-.717 1.506-1.546 1.506zm-4.939 0c-.83 0-1.508-.678-1.508-1.506s.641-1.506 1.508-1.506h.038c.83 0 1.508.678 1.508 1.506s-.716 1.506-1.546 1.506zm-4.94 0h-.037c-.83 0-1.508-.678-1.508-1.506s.678-1.506 1.508-1.506h.038c.83 0 1.508.678 1.508 1.506s-.641 1.506-1.508 1.506zm-4.9 0h-.039c-.83 0-1.508-.678-1.508-1.506s.679-1.506 1.508-1.506h.038c.83 0 1.508.678 1.508 1.506s-.678 1.506-1.508 1.506zm-4.94 0h-.038c-.83 0-1.508-.678-1.508-1.506s.678-1.506 1.508-1.506h.038c.83 0 1.508.678 1.508 1.506s-.679 1.506-1.508 1.506zm-4.94 0h-.038c-.829 0-1.508-.678-1.508-1.506s.679-1.506 1.508-1.506h.038c.83 0 1.508.678 1.508 1.506s-.678 1.506-1.508 1.506zm-4.94 0c-.829 0-1.507-.678-1.507-1.506s.64-1.506 1.508-1.506h.037c.83 0 1.509.678 1.509 1.506s-.717 1.506-1.546 1.506zm-4.939 0c-.83 0-1.508-.678-1.508-1.506s.641-1.506 1.508-1.506h.038c.83 0 1.508.678 1.508 1.506s-.716 1.506-1.546 1.506zm-4.939 0h-.038c-.83 0-1.508-.678-1.508-1.506s.679-1.506 1.508-1.506h.038c.83 0 1.508.678 1.508 1.506s-.678 1.506-1.508 1.506zm-4.94 0h-.037c-.83 0-1.508-.678-1.508-1.506s.678-1.506 1.508-1.506h.038c.83 0 1.508.678 1.508 1.506s-.679 1.506-1.508 1.506zm-4.939 0h-.038c-.829 0-1.508-.678-1.508-1.506s.679-1.506 1.508-1.506h.038c.83 0 1.508.678 1.508 1.506s-.678 1.506-1.508 1.506zm103.654 0c-.83 0-1.508-.678-1.508-1.506s.678-1.506 1.508-1.506c.829 0 1.508.678 1.508 1.506s-.679 1.506-1.508 1.506zM1.508 18.824A1.51 1.51 0 010 17.318c0-.828.679-1.506 1.508-1.506.83 0 1.508.678 1.508 1.507a1.51 1.51 0 01-1.508 1.505zm103.657 0h-.038a1.512 1.512 0 01-1.508-1.506c0-.828.679-1.506 1.508-1.506h.038c.83 0 1.508.678 1.508 1.507a1.51 1.51 0 01-1.508 1.505zm-4.939 0h-.038a1.51 1.51 0 01-1.508-1.506c0-.828.678-1.506 1.508-1.506h.038c.829 0 1.508.678 1.508 1.507 0 .828-.641 1.505-1.508 1.505zm-4.902 0h-.038a1.51 1.51 0 01-1.508-1.506c0-.828.679-1.506 1.508-1.506h.038c.83 0 1.508.678 1.508 1.507 0 .828-.679 1.505-1.508 1.505zm-4.94 0h-.037a1.51 1.51 0 01-1.508-1.506c0-.828.678-1.506 1.508-1.506h.038c.829 0 1.508.678 1.508 1.507 0 .828-.679 1.505-1.508 1.505zm-4.939 0a1.51 1.51 0 01-1.508-1.506c0-.828.64-1.506 1.508-1.506h.038c.83 0 1.508.678 1.508 1.507 0 .828-.716 1.505-1.546 1.505zm-4.94 0a1.51 1.51 0 01-1.507-1.506c0-.828.64-1.506 1.508-1.506h.037c.83 0 1.509.678 1.509 1.507 0 .828-.717 1.505-1.546 1.505zm-4.939 0h-.037c-.83 0-1.509-.677-1.509-1.506 0-.828.679-1.506 1.509-1.506h.037c.83 0 1.508.678 1.508 1.507a1.51 1.51 0 01-1.508 1.505zm-4.94 0h-.037a1.51 1.51 0 01-1.508-1.506c0-.828.679-1.506 1.508-1.506h.038c.83 0 1.508.678 1.508 1.507 0 .828-.679 1.505-1.508 1.505zm-4.939 0h-.037c-.83 0-1.509-.677-1.509-1.506 0-.828.68-1.506 1.509-1.506h.037c.83 0 1.509.678 1.509 1.507 0 .828-.679 1.505-1.509 1.505zm-4.939 0h-.038a1.51 1.51 0 01-1.508-1.506c0-.828.679-1.506 1.508-1.506h.038c.83 0 1.508.678 1.508 1.507a1.51 1.51 0 01-1.508 1.505zm-4.94 0a1.511 1.511 0 01-1.508-1.506c0-.828.641-1.506 1.509-1.506h.037c.83 0 1.509.678 1.509 1.507 0 .828-.717 1.505-1.546 1.505zm-4.939 0a1.51 1.51 0 01-1.508-1.506c0-.828.641-1.506 1.508-1.506h.038c.83 0 1.508.678 1.508 1.507 0 .828-.716 1.505-1.546 1.505zm-4.94 0h-.037a1.51 1.51 0 01-1.508-1.506c0-.828.678-1.506 1.508-1.506h.038c.83 0 1.508.678 1.508 1.507 0 .828-.641 1.505-1.508 1.505zm-4.9 0h-.039a1.51 1.51 0 01-1.508-1.506c0-.828.679-1.506 1.508-1.506h.038c.83 0 1.508.678 1.508 1.507a1.51 1.51 0 01-1.508 1.505zm-4.94 0h-.038a1.51 1.51 0 01-1.508-1.506c0-.828.678-1.506 1.508-1.506h.038c.83 0 1.508.678 1.508 1.507 0 .828-.679 1.505-1.508 1.505zm-4.94 0h-.038a1.511 1.511 0 01-1.508-1.506c0-.828.679-1.506 1.508-1.506h.038c.83 0 1.508.678 1.508 1.507a1.51 1.51 0 01-1.508 1.505zm-4.94 0a1.51 1.51 0 01-1.507-1.506c0-.828.64-1.506 1.508-1.506h.037c.83 0 1.509.678 1.509 1.507 0 .828-.717 1.505-1.546 1.505zm-4.939 0a1.51 1.51 0 01-1.508-1.506c0-.828.641-1.506 1.508-1.506h.038c.83 0 1.508.678 1.508 1.507 0 .828-.716 1.505-1.546 1.505zm-4.939 0h-.038a1.51 1.51 0 01-1.508-1.506c0-.828.679-1.506 1.508-1.506h.038c.83 0 1.508.678 1.508 1.507a1.51 1.51 0 01-1.508 1.505zm-4.94 0h-.037a1.51 1.51 0 01-1.508-1.506c0-.828.678-1.506 1.508-1.506h.038c.83 0 1.508.678 1.508 1.507 0 .828-.679 1.505-1.508 1.505zm-4.939 0h-.038a1.511 1.511 0 01-1.508-1.506c0-.828.679-1.506 1.508-1.506h.038c.83 0 1.508.678 1.508 1.507a1.51 1.51 0 01-1.508 1.505zm103.654 0a1.51 1.51 0 01-1.508-1.506c0-.828.678-1.506 1.508-1.506.829 0 1.508.678 1.508 1.507 0 .828-.679 1.505-1.508 1.505zM1.508 13.554c-.83 0-1.508-.678-1.508-1.506s.679-1.506 1.508-1.506c.83 0 1.508.678 1.508 1.506s-.678 1.506-1.508 1.506zm103.657 0h-.038a1.512 1.512 0 01-1.508-1.506c0-.828.679-1.506 1.508-1.506h.038c.83 0 1.508.678 1.508 1.506s-.678 1.506-1.508 1.506zm-4.939 0h-.038c-.83 0-1.508-.678-1.508-1.506s.678-1.506 1.508-1.506h.038c.829 0 1.508.678 1.508 1.506s-.641 1.506-1.508 1.506zm-4.902 0h-.038c-.83 0-1.508-.678-1.508-1.506s.679-1.506 1.508-1.506h.038c.83 0 1.508.678 1.508 1.506s-.679 1.506-1.508 1.506zm-4.94 0h-.037c-.83 0-1.508-.678-1.508-1.506s.678-1.506 1.508-1.506h.038c.829 0 1.508.678 1.508 1.506s-.679 1.506-1.508 1.506zm-4.939 0c-.83 0-1.508-.678-1.508-1.506s.64-1.506 1.508-1.506h.038c.83 0 1.508.678 1.508 1.506s-.716 1.506-1.546 1.506zm-4.94 0c-.829 0-1.507-.678-1.507-1.506s.64-1.506 1.508-1.506h.037c.83 0 1.509.678 1.509 1.506s-.717 1.506-1.546 1.506zm-4.939 0h-.037c-.83 0-1.509-.678-1.509-1.506s.679-1.506 1.509-1.506h.037c.83 0 1.508.678 1.508 1.506s-.678 1.506-1.508 1.506zm-4.94 0h-.037c-.83 0-1.508-.678-1.508-1.506s.679-1.506 1.508-1.506h.038c.83 0 1.508.678 1.508 1.506s-.679 1.506-1.508 1.506zm-4.939 0h-.037c-.83 0-1.509-.678-1.509-1.506s.68-1.506 1.509-1.506h.037c.83 0 1.509.678 1.509 1.506s-.679 1.506-1.509 1.506zm-4.939 0h-.038c-.83 0-1.508-.678-1.508-1.506s.679-1.506 1.508-1.506h.038c.83 0 1.508.678 1.508 1.506s-.678 1.506-1.508 1.506zm-4.94 0c-.829 0-1.508-.678-1.508-1.506s.641-1.506 1.509-1.506h.037c.83 0 1.509.678 1.509 1.506s-.717 1.506-1.546 1.506zm-4.939 0c-.83 0-1.508-.678-1.508-1.506s.641-1.506 1.508-1.506h.038c.83 0 1.508.678 1.508 1.506s-.716 1.506-1.546 1.506zm-4.94 0h-.037c-.83 0-1.508-.678-1.508-1.506s.678-1.506 1.508-1.506h.038c.83 0 1.508.678 1.508 1.506s-.641 1.506-1.508 1.506zm-4.9 0h-.039c-.83 0-1.508-.678-1.508-1.506s.679-1.506 1.508-1.506h.038c.83 0 1.508.678 1.508 1.506s-.678 1.506-1.508 1.506zm-4.94 0h-.038c-.83 0-1.508-.678-1.508-1.506s.678-1.506 1.508-1.506h.038c.83 0 1.508.678 1.508 1.506s-.679 1.506-1.508 1.506zm-4.94 0h-.038c-.829 0-1.508-.678-1.508-1.506s.679-1.506 1.508-1.506h.038c.83 0 1.508.678 1.508 1.506s-.678 1.506-1.508 1.506zm-4.94 0c-.829 0-1.507-.678-1.507-1.506s.64-1.506 1.508-1.506h.037c.83 0 1.509.678 1.509 1.506s-.717 1.506-1.546 1.506zm-4.939 0c-.83 0-1.508-.678-1.508-1.506s.641-1.506 1.508-1.506h.038c.83 0 1.508.678 1.508 1.506s-.716 1.506-1.546 1.506zm-4.939 0h-.038c-.83 0-1.508-.678-1.508-1.506s.679-1.506 1.508-1.506h.038c.83 0 1.508.678 1.508 1.506s-.678 1.506-1.508 1.506zm-4.94 0h-.037c-.83 0-1.508-.678-1.508-1.506s.678-1.506 1.508-1.506h.038c.83 0 1.508.678 1.508 1.506s-.679 1.506-1.508 1.506zm-4.939 0h-.038c-.829 0-1.508-.678-1.508-1.506s.679-1.506 1.508-1.506h.038c.83 0 1.508.678 1.508 1.506s-.678 1.506-1.508 1.506zm103.654 0c-.83 0-1.508-.678-1.508-1.506s.678-1.506 1.508-1.506c.829 0 1.508.678 1.508 1.506s-.679 1.506-1.508 1.506zM1.508 8.283A1.51 1.51 0 010 6.777c0-.828.679-1.506 1.508-1.506.83 0 1.508.678 1.508 1.506a1.51 1.51 0 01-1.508 1.506zm103.657-.001h-.038a1.512 1.512 0 01-1.508-1.506c0-.828.679-1.505 1.508-1.505h.038c.83 0 1.508.677 1.508 1.505a1.51 1.51 0 01-1.508 1.506zm-4.939 0h-.038a1.51 1.51 0 01-1.508-1.506 1.51 1.51 0 011.508-1.505h.038c.829 0 1.508.677 1.508 1.505 0 .829-.641 1.506-1.508 1.506zm-4.902 0h-.038a1.51 1.51 0 01-1.508-1.506c0-.828.679-1.505 1.508-1.505h.038c.83 0 1.508.677 1.508 1.505 0 .829-.679 1.506-1.508 1.506zm-4.94 0h-.037a1.51 1.51 0 01-1.508-1.506 1.51 1.51 0 011.508-1.505h.038c.829 0 1.508.677 1.508 1.505 0 .829-.679 1.506-1.508 1.506zm-4.939 0a1.51 1.51 0 01-1.508-1.506c0-.828.64-1.505 1.508-1.505h.038c.83 0 1.508.677 1.508 1.505 0 .829-.716 1.506-1.546 1.506zm-4.94 0a1.51 1.51 0 01-1.507-1.506c0-.828.64-1.505 1.508-1.505h.037c.83 0 1.509.677 1.509 1.505 0 .829-.717 1.506-1.546 1.506zm-4.939 0h-.037c-.83 0-1.509-.677-1.509-1.506 0-.828.679-1.505 1.509-1.505h.037c.83 0 1.508.677 1.508 1.505a1.51 1.51 0 01-1.508 1.506zm-4.94 0h-.037a1.51 1.51 0 01-1.508-1.506c0-.828.679-1.505 1.508-1.505h.038c.83 0 1.508.677 1.508 1.505 0 .829-.679 1.506-1.508 1.506zm-4.939 0h-.037c-.83 0-1.509-.677-1.509-1.506 0-.828.68-1.505 1.509-1.505h.037c.83 0 1.509.677 1.509 1.505 0 .829-.679 1.506-1.509 1.506zm-4.939 0h-.038a1.51 1.51 0 01-1.508-1.506c0-.828.679-1.505 1.508-1.505h.038c.83 0 1.508.677 1.508 1.505a1.51 1.51 0 01-1.508 1.506zm-4.94 0A1.511 1.511 0 0154.3 6.776c0-.828.641-1.505 1.509-1.505h.037c.83 0 1.509.677 1.509 1.505 0 .829-.717 1.506-1.546 1.506zm-4.939 0a1.51 1.51 0 01-1.508-1.506c0-.828.641-1.505 1.508-1.505h.038c.83 0 1.508.677 1.508 1.505 0 .829-.716 1.506-1.546 1.506zm-4.94 0h-.037a1.51 1.51 0 01-1.508-1.506 1.51 1.51 0 011.508-1.505h.038c.83 0 1.508.677 1.508 1.505 0 .829-.641 1.506-1.508 1.506zm-4.9 0h-.039a1.51 1.51 0 01-1.508-1.506c0-.828.679-1.505 1.508-1.505h.038c.83 0 1.508.677 1.508 1.505a1.51 1.51 0 01-1.508 1.506zm-4.94 0h-.038a1.51 1.51 0 01-1.508-1.506 1.51 1.51 0 011.508-1.505h.038c.83 0 1.508.677 1.508 1.505 0 .829-.679 1.506-1.508 1.506zm-4.94 0h-.038a1.511 1.511 0 01-1.508-1.506c0-.828.679-1.505 1.508-1.505h.038c.83 0 1.508.677 1.508 1.505a1.51 1.51 0 01-1.508 1.506zm-4.94 0a1.51 1.51 0 01-1.507-1.506c0-.828.64-1.505 1.508-1.505h.037c.83 0 1.509.677 1.509 1.505 0 .829-.717 1.506-1.546 1.506zm-4.939 0a1.51 1.51 0 01-1.508-1.506c0-.828.641-1.505 1.508-1.505h.038c.83 0 1.508.677 1.508 1.505 0 .829-.716 1.506-1.546 1.506zm-4.939 0h-.038a1.51 1.51 0 01-1.508-1.506c0-.828.679-1.505 1.508-1.505h.038c.83 0 1.508.677 1.508 1.505a1.51 1.51 0 01-1.508 1.506zm-4.94 0h-.037a1.51 1.51 0 01-1.508-1.506 1.51 1.51 0 011.508-1.505h.038c.83 0 1.508.677 1.508 1.505 0 .829-.679 1.506-1.508 1.506zm-4.939 0h-.038a1.511 1.511 0 01-1.508-1.506c0-.828.679-1.505 1.508-1.505h.038c.83 0 1.508.677 1.508 1.505a1.51 1.51 0 01-1.508 1.506zm103.654.001a1.51 1.51 0 01-1.508-1.506c0-.828.678-1.506 1.508-1.506.829 0 1.508.678 1.508 1.506 0 .829-.679 1.506-1.508 1.506zM1.51 3.012C.68 3.012 0 2.334 0 1.506S.68 0 1.509 0c.83 0 1.508.678 1.508 1.506S2.34 3.012 1.51 3.012zm103.656 0h-.038a1.512 1.512 0 01-1.508-1.506c0-.828.679-1.506 1.508-1.506h.038c.83 0 1.508.678 1.508 1.506s-.678 1.506-1.508 1.506zm-4.939 0h-.038c-.83 0-1.508-.678-1.508-1.506S99.359 0 100.189 0h.038c.829 0 1.508.678 1.508 1.506s-.641 1.506-1.508 1.506zm-4.902 0h-.038c-.83 0-1.508-.678-1.508-1.506S94.458 0 95.287 0h.038c.83 0 1.508.678 1.508 1.506s-.679 1.506-1.508 1.506zm-4.94 0h-.037c-.83 0-1.508-.678-1.508-1.506S89.518 0 90.348 0h.037c.83 0 1.509.678 1.509 1.506s-.679 1.506-1.509 1.506zm-4.939 0c-.83 0-1.508-.678-1.508-1.506S84.578 0 85.446 0h.038c.83 0 1.508.678 1.508 1.506s-.716 1.506-1.546 1.506zm-4.94 0c-.829 0-1.508-.678-1.508-1.506S79.64 0 80.507 0h.037c.83 0 1.509.678 1.509 1.506s-.717 1.506-1.546 1.506zm-4.939 0h-.037c-.83 0-1.509-.678-1.509-1.506S74.7 0 75.53 0h.038c.83 0 1.509.678 1.509 1.506s-.68 1.506-1.509 1.506zm-4.94 0h-.037c-.83 0-1.508-.678-1.508-1.506S69.76 0 70.59 0h.038c.83 0 1.508.678 1.508 1.506s-.679 1.506-1.508 1.506zm-4.939 0h-.037c-.83 0-1.508-.678-1.508-1.506S64.82 0 65.65 0h.037c.83 0 1.509.678 1.509 1.506s-.68 1.506-1.509 1.506zm-4.939 0h-.038c-.83 0-1.508-.678-1.508-1.506S59.882 0 60.711 0h.038c.83 0 1.508.678 1.508 1.506s-.678 1.506-1.508 1.506zm-4.94 0c-.829 0-1.508-.678-1.508-1.506S54.942 0 55.81 0h.037c.83 0 1.508.678 1.508 1.506s-.716 1.506-1.545 1.506zm-4.939 0c-.83 0-1.508-.678-1.508-1.506S50.002 0 50.87 0h.038c.83 0 1.508.678 1.508 1.506S51.7 3.012 50.87 3.012zm-4.94 0h-.037c-.83 0-1.508-.678-1.508-1.506S45.063 0 45.893 0h.038c.83 0 1.508.678 1.508 1.506s-.641 1.506-1.508 1.506zm-4.901 0h-.038c-.83 0-1.508-.678-1.508-1.506S40.162 0 40.991 0h.038c.83 0 1.508.678 1.508 1.506s-.678 1.506-1.508 1.506zm-4.94 0h-.037c-.83 0-1.508-.678-1.508-1.506S35.222 0 36.052 0h.038c.83 0 1.508.678 1.508 1.506s-.679 1.506-1.508 1.506zm-4.939 0h-.037c-.83 0-1.509-.678-1.509-1.506S30.283 0 31.113 0h.037c.83 0 1.508.678 1.508 1.506s-.678 1.506-1.508 1.506zm-4.94 0c-.829 0-1.507-.678-1.507-1.506S25.343 0 26.21 0h.038c.829 0 1.508.678 1.508 1.506s-.717 1.506-1.546 1.506zm-4.939 0c-.83 0-1.508-.678-1.508-1.506S20.404 0 21.271 0h.038c.83 0 1.508.678 1.508 1.506s-.716 1.506-1.546 1.506zm-4.939 0h-.038c-.83 0-1.508-.678-1.508-1.506S15.465 0 16.294 0h.038c.83 0 1.508.678 1.508 1.506s-.678 1.506-1.508 1.506zm-4.94 0h-.037c-.83 0-1.508-.678-1.508-1.506S10.525 0 11.355 0h.038c.83 0 1.508.678 1.508 1.506s-.679 1.506-1.508 1.506zm-4.939 0h-.038c-.83 0-1.508-.678-1.508-1.506S5.586 0 6.415 0h.038c.83 0 1.508.678 1.508 1.506s-.678 1.506-1.508 1.506zm103.653 0c-.83 0-1.508-.678-1.508-1.506S109.276 0 110.106 0c.829 0 1.508.678 1.508 1.506s-.679 1.506-1.508 1.506z" fill="#B2DBEB"/></svg>