<svg width="112" height="113" fill="none" xmlns="http://www.w3.org/2000/svg"><path d="M1.608 113a1.502 1.502 0 01-1.499-1.496c0-.824.675-1.497 1.5-1.497.824 0 1.498.673 1.498 1.497 0 .823-.674 1.496-1.499 1.496zm103.014 0h-.037a1.501 1.501 0 01-1.499-1.496c0-.824.674-1.497 1.499-1.497h.037c.825 0 1.499.673 1.499 1.497 0 .823-.674 1.496-1.499 1.496zm-4.909 0h-.037a1.502 1.502 0 01-1.5-1.496c0-.824.675-1.497 1.5-1.497h.037c.825 0 1.499.673 1.499 1.497 0 .823-.637 1.496-1.499 1.496zm-4.871 0h-.038a1.502 1.502 0 01-1.499-1.496c0-.824.675-1.497 1.5-1.497h.037c.824 0 1.499.673 1.499 1.497 0 .823-.675 1.496-1.5 1.496zm-4.91 0h-.037a1.502 1.502 0 01-1.498-1.496c0-.824.674-1.497 1.498-1.497h.038c.824 0 1.499.673 1.499 1.497 0 .823-.675 1.496-1.5 1.496zm-4.908 0a1.502 1.502 0 01-1.499-1.496c0-.824.637-1.497 1.499-1.497h.037c.825 0 1.5.673 1.5 1.497 0 .823-.713 1.496-1.537 1.496zm-4.91 0a1.502 1.502 0 01-1.498-1.496c0-.824.637-1.497 1.499-1.497h.037c.825 0 1.5.673 1.5 1.497 0 .823-.713 1.496-1.537 1.496zm-4.908 0h-.038a1.502 1.502 0 01-1.498-1.496c0-.824.674-1.497 1.498-1.497h.038c.824 0 1.499.673 1.499 1.497 0 .823-.675 1.496-1.5 1.496zm-4.909 0h-.037a1.502 1.502 0 01-1.5-1.496c0-.824.675-1.497 1.5-1.497h.037c.824 0 1.499.673 1.499 1.497 0 .823-.675 1.496-1.499 1.496zm-4.909 0h-.038a1.502 1.502 0 01-1.498-1.496c0-.824.674-1.497 1.498-1.497h.038c.824 0 1.499.673 1.499 1.497 0 .823-.675 1.496-1.499 1.496zm-4.909 0h-.037a1.502 1.502 0 01-1.5-1.496c0-.824.675-1.497 1.5-1.497h.037c.824 0 1.499.673 1.499 1.497 0 .823-.675 1.496-1.499 1.496zm-4.909 0a1.502 1.502 0 01-1.499-1.496c0-.824.637-1.497 1.5-1.497h.037c.824 0 1.498.673 1.498 1.497 0 .823-.712 1.496-1.536 1.496zm-4.909 0a1.502 1.502 0 01-1.499-1.496c0-.824.637-1.497 1.5-1.497h.037c.824 0 1.498.673 1.498 1.497 0 .823-.712 1.496-1.536 1.496zm-4.909 0h-.037a1.502 1.502 0 01-1.5-1.496c0-.824.675-1.497 1.5-1.497h.037c.825 0 1.499.673 1.499 1.497 0 .823-.637 1.496-1.499 1.496zm-4.871 0h-.038a1.502 1.502 0 01-1.499-1.496c0-.824.675-1.497 1.5-1.497h.037c.824 0 1.499.673 1.499 1.497 0 .823-.675 1.496-1.5 1.496zm-4.91 0h-.037a1.502 1.502 0 01-1.499-1.496c0-.824.675-1.497 1.5-1.497h.037c.824 0 1.499.673 1.499 1.497 0 .823-.675 1.496-1.5 1.496zm-4.908 0h-.038a1.502 1.502 0 01-1.499-1.496c0-.824.675-1.497 1.5-1.497h.037c.824 0 1.499.673 1.499 1.497 0 .823-.675 1.496-1.5 1.496zm-4.91 0a1.502 1.502 0 01-1.498-1.496c0-.824.637-1.497 1.499-1.497h.037c.825 0 1.5.673 1.5 1.497 0 .823-.713 1.496-1.537 1.496zm-4.908 0a1.502 1.502 0 01-1.5-1.496 1.48 1.48 0 011.5-1.497h.037c.825 0 1.5.673 1.5 1.497 0 .823-.713 1.496-1.537 1.496zm-4.91 0h-.037a1.502 1.502 0 01-1.499-1.496c0-.824.675-1.497 1.5-1.497h.037c.824 0 1.499.673 1.499 1.497 0 .823-.675 1.496-1.5 1.496zm-4.908 0h-.038a1.502 1.502 0 01-1.499-1.496c0-.824.675-1.497 1.5-1.497h.037c.824 0 1.499.673 1.499 1.497 0 .823-.675 1.496-1.5 1.496zm-4.91 0H6.48a1.502 1.502 0 01-1.499-1.496c0-.824.675-1.497 1.5-1.497h.037c.824 0 1.499.673 1.499 1.497 0 .823-.675 1.496-1.5 1.496zm103.014 0a1.502 1.502 0 01-1.499-1.496c0-.824.675-1.497 1.499-1.497.825 0 1.499.673 1.499 1.497 0 .823-.674 1.496-1.499 1.496zM1.608 107.762a1.503 1.503 0 01-1.499-1.497c0-.823.675-1.496 1.5-1.496.824 0 1.498.673 1.498 1.496s-.674 1.497-1.499 1.497zm103.014 0h-.037a1.502 1.502 0 01-1.499-1.497c0-.823.674-1.496 1.499-1.496h.037c.825 0 1.499.673 1.499 1.496s-.674 1.497-1.499 1.497zm-4.909 0h-.037a1.503 1.503 0 01-1.5-1.497c0-.823.675-1.496 1.5-1.496h.037c.825 0 1.499.673 1.499 1.496s-.637 1.497-1.499 1.497zm-4.871 0h-.038a1.503 1.503 0 01-1.499-1.497c0-.823.675-1.496 1.5-1.496h.037c.824 0 1.499.673 1.499 1.496s-.675 1.497-1.5 1.497zm-4.91 0h-.037a1.503 1.503 0 01-1.498-1.497c0-.823.674-1.496 1.498-1.496h.038c.824 0 1.499.673 1.499 1.496s-.675 1.497-1.5 1.497zm-4.908 0a1.503 1.503 0 01-1.499-1.497c0-.823.637-1.496 1.499-1.496h.037c.825 0 1.5.673 1.5 1.496s-.713 1.497-1.537 1.497zm-4.91 0a1.503 1.503 0 01-1.498-1.497c0-.823.637-1.496 1.499-1.496h.037c.825 0 1.5.673 1.5 1.496s-.713 1.497-1.537 1.497zm-4.908 0h-.038a1.503 1.503 0 01-1.498-1.497c0-.823.674-1.496 1.498-1.496h.038c.824 0 1.499.673 1.499 1.496s-.675 1.497-1.5 1.497zm-4.909 0h-.037a1.503 1.503 0 01-1.5-1.497c0-.823.675-1.496 1.5-1.496h.037c.824 0 1.499.673 1.499 1.496s-.675 1.497-1.499 1.497zm-4.909 0h-.038a1.503 1.503 0 01-1.498-1.497c0-.823.674-1.496 1.498-1.496h.038c.824 0 1.499.673 1.499 1.496s-.675 1.497-1.499 1.497zm-4.909 0h-.037a1.503 1.503 0 01-1.5-1.497c0-.823.675-1.496 1.5-1.496h.037c.824 0 1.499.673 1.499 1.496s-.675 1.497-1.499 1.497zm-4.909 0a1.503 1.503 0 01-1.499-1.497c0-.823.637-1.496 1.5-1.496h.037c.824 0 1.498.673 1.498 1.496s-.712 1.497-1.536 1.497zm-4.909 0a1.503 1.503 0 01-1.499-1.497c0-.823.637-1.496 1.5-1.496h.037c.824 0 1.498.673 1.498 1.496s-.712 1.497-1.536 1.497zm-4.909 0h-.037a1.503 1.503 0 01-1.5-1.497c0-.823.675-1.496 1.5-1.496h.037c.825 0 1.499.673 1.499 1.496s-.637 1.497-1.499 1.497zm-4.871 0h-.038a1.503 1.503 0 01-1.499-1.497c0-.823.675-1.496 1.5-1.496h.037c.824 0 1.499.673 1.499 1.496s-.675 1.497-1.5 1.497zm-4.91 0h-.037a1.503 1.503 0 01-1.499-1.497c0-.823.675-1.496 1.5-1.496h.037c.824 0 1.499.673 1.499 1.496s-.675 1.497-1.5 1.497zm-4.908 0h-.038a1.503 1.503 0 01-1.499-1.497c0-.823.675-1.496 1.5-1.496h.037c.824 0 1.499.673 1.499 1.496s-.675 1.497-1.5 1.497zm-4.91 0a1.503 1.503 0 01-1.498-1.497c0-.823.637-1.496 1.499-1.496h.037c.825 0 1.5.673 1.5 1.496s-.713 1.497-1.537 1.497zm-4.908 0a1.503 1.503 0 01-1.5-1.497c0-.823.638-1.496 1.5-1.496h.037c.825 0 1.5.673 1.5 1.496s-.713 1.497-1.537 1.497zm-4.91 0h-.037a1.503 1.503 0 01-1.499-1.497c0-.823.675-1.496 1.5-1.496h.037c.824 0 1.499.673 1.499 1.496s-.675 1.497-1.5 1.497zm-4.908 0h-.038a1.503 1.503 0 01-1.499-1.497c0-.823.675-1.496 1.5-1.496h.037c.824 0 1.499.673 1.499 1.496s-.675 1.497-1.5 1.497zm-4.91 0H6.48a1.503 1.503 0 01-1.499-1.497c0-.823.675-1.496 1.5-1.496h.037c.824 0 1.499.673 1.499 1.496s-.675 1.497-1.5 1.497zm103.014 0a1.503 1.503 0 01-1.499-1.497c0-.823.675-1.496 1.499-1.496.825 0 1.499.673 1.499 1.496s-.674 1.497-1.499 1.497zM1.608 102.524a1.503 1.503 0 01-1.499-1.497c0-.823.675-1.497 1.5-1.497.824 0 1.498.674 1.498 1.497 0 .823-.674 1.497-1.499 1.497zm103.014 0h-.037a1.502 1.502 0 01-1.499-1.497c0-.823.674-1.497 1.499-1.497h.037c.825 0 1.499.674 1.499 1.497 0 .823-.674 1.497-1.499 1.497zm-4.909 0h-.037a1.503 1.503 0 01-1.5-1.497c0-.823.675-1.497 1.5-1.497h.037c.825 0 1.499.674 1.499 1.497 0 .823-.637 1.497-1.499 1.497zm-4.871 0h-.038a1.503 1.503 0 01-1.499-1.497c0-.823.675-1.497 1.5-1.497h.037c.824 0 1.499.674 1.499 1.497 0 .823-.675 1.497-1.5 1.497zm-4.91 0h-.037a1.503 1.503 0 01-1.498-1.497c0-.823.674-1.497 1.498-1.497h.038c.824 0 1.499.674 1.499 1.497 0 .823-.675 1.497-1.5 1.497zm-4.908 0a1.503 1.503 0 01-1.499-1.497c0-.823.637-1.497 1.499-1.497h.037c.825 0 1.5.674 1.5 1.497 0 .823-.713 1.497-1.537 1.497zm-4.91 0a1.503 1.503 0 01-1.498-1.497c0-.823.637-1.497 1.499-1.497h.037c.825 0 1.5.674 1.5 1.497 0 .823-.713 1.497-1.537 1.497zm-4.908 0h-.038a1.503 1.503 0 01-1.498-1.497c0-.823.674-1.497 1.498-1.497h.038c.824 0 1.499.674 1.499 1.497 0 .823-.675 1.497-1.5 1.497zm-4.909 0h-.037a1.503 1.503 0 01-1.5-1.497c0-.823.675-1.497 1.5-1.497h.037c.824 0 1.499.674 1.499 1.497 0 .823-.675 1.497-1.499 1.497zm-4.909 0h-.038a1.503 1.503 0 01-1.498-1.497c0-.823.674-1.497 1.498-1.497h.038c.824 0 1.499.674 1.499 1.497 0 .823-.675 1.497-1.499 1.497zm-4.909 0h-.037a1.503 1.503 0 01-1.5-1.497c0-.823.675-1.497 1.5-1.497h.037c.824 0 1.499.674 1.499 1.497 0 .823-.675 1.497-1.499 1.497zm-4.909 0a1.503 1.503 0 01-1.499-1.497 1.48 1.48 0 011.5-1.497h.037c.824 0 1.498.674 1.498 1.497 0 .823-.712 1.497-1.536 1.497zm-4.909 0a1.503 1.503 0 01-1.499-1.497 1.48 1.48 0 011.5-1.497h.037c.824 0 1.498.674 1.498 1.497 0 .823-.712 1.497-1.536 1.497zm-4.909 0h-.037a1.503 1.503 0 01-1.5-1.497c0-.823.675-1.497 1.5-1.497h.037c.825 0 1.499.674 1.499 1.497 0 .823-.637 1.497-1.499 1.497zm-4.871 0h-.038a1.503 1.503 0 01-1.499-1.497c0-.823.675-1.497 1.5-1.497h.037c.824 0 1.499.674 1.499 1.497 0 .823-.675 1.497-1.5 1.497zm-4.91 0h-.037a1.503 1.503 0 01-1.499-1.497c0-.823.675-1.497 1.5-1.497h.037c.824 0 1.499.674 1.499 1.497 0 .823-.675 1.497-1.5 1.497zm-4.908 0h-.038a1.503 1.503 0 01-1.499-1.497c0-.823.675-1.497 1.5-1.497h.037c.824 0 1.499.674 1.499 1.497 0 .823-.675 1.497-1.5 1.497zm-4.91 0a1.503 1.503 0 01-1.498-1.497c0-.823.637-1.497 1.499-1.497h.037c.825 0 1.5.674 1.5 1.497 0 .823-.713 1.497-1.537 1.497zm-4.908 0a1.503 1.503 0 01-1.5-1.497 1.48 1.48 0 011.5-1.497h.037c.825 0 1.5.674 1.5 1.497 0 .823-.713 1.497-1.537 1.497zm-4.91 0h-.037a1.503 1.503 0 01-1.499-1.497c0-.823.675-1.497 1.5-1.497h.037c.824 0 1.499.674 1.499 1.497 0 .823-.675 1.497-1.5 1.497zm-4.908 0h-.038a1.503 1.503 0 01-1.499-1.497c0-.823.675-1.497 1.5-1.497h.037c.824 0 1.499.674 1.499 1.497 0 .823-.675 1.497-1.5 1.497zm-4.91 0H6.48a1.503 1.503 0 01-1.499-1.497c0-.823.675-1.497 1.5-1.497h.037c.824 0 1.499.674 1.499 1.497 0 .823-.675 1.497-1.5 1.497zm103.014 0a1.503 1.503 0 01-1.499-1.497c0-.823.675-1.497 1.499-1.497.825 0 1.499.674 1.499 1.497 0 .823-.674 1.497-1.499 1.497zM1.608 97.284A1.502 1.502 0 01.11 95.788c0-.823.675-1.497 1.5-1.497.824 0 1.498.674 1.498 1.497 0 .823-.674 1.496-1.499 1.496zm103.014 0h-.037a1.502 1.502 0 01-1.499-1.496c0-.823.674-1.497 1.499-1.497h.037c.825 0 1.499.674 1.499 1.497 0 .823-.674 1.496-1.499 1.496zm-4.909 0h-.037a1.502 1.502 0 01-1.5-1.496c0-.823.675-1.497 1.5-1.497h.037c.825 0 1.499.674 1.499 1.497 0 .823-.637 1.496-1.499 1.496zm-4.871 0h-.038a1.502 1.502 0 01-1.499-1.496c0-.823.675-1.497 1.5-1.497h.037c.824 0 1.499.674 1.499 1.497 0 .823-.675 1.496-1.5 1.496zm-4.91 0h-.037a1.502 1.502 0 01-1.498-1.496c0-.823.674-1.497 1.498-1.497h.038c.824 0 1.499.674 1.499 1.497 0 .823-.675 1.496-1.5 1.496zm-4.908 0a1.502 1.502 0 01-1.499-1.496c0-.823.637-1.497 1.499-1.497h.037c.825 0 1.5.674 1.5 1.497 0 .823-.713 1.496-1.537 1.496zm-4.91 0a1.502 1.502 0 01-1.498-1.496c0-.823.637-1.497 1.499-1.497h.037c.825 0 1.5.674 1.5 1.497 0 .823-.713 1.496-1.537 1.496zm-4.908 0h-.038a1.502 1.502 0 01-1.498-1.496c0-.823.674-1.497 1.498-1.497h.038c.824 0 1.499.674 1.499 1.497 0 .823-.675 1.496-1.5 1.496zm-4.909 0h-.037a1.502 1.502 0 01-1.5-1.496c0-.823.675-1.497 1.5-1.497h.037c.824 0 1.499.674 1.499 1.497 0 .823-.675 1.496-1.499 1.496zm-4.909 0h-.038a1.502 1.502 0 01-1.498-1.496c0-.823.674-1.497 1.498-1.497h.038c.824 0 1.499.674 1.499 1.497 0 .823-.675 1.496-1.499 1.496zm-4.909 0h-.037a1.502 1.502 0 01-1.5-1.496c0-.823.675-1.497 1.5-1.497h.037c.824 0 1.499.674 1.499 1.497 0 .823-.675 1.496-1.499 1.496zm-4.909 0a1.502 1.502 0 01-1.499-1.496 1.48 1.48 0 011.5-1.497h.037c.824 0 1.498.674 1.498 1.497 0 .823-.712 1.496-1.536 1.496zm-4.909 0a1.502 1.502 0 01-1.499-1.496 1.48 1.48 0 011.5-1.497h.037c.824 0 1.498.674 1.498 1.497 0 .823-.712 1.496-1.536 1.496zm-4.909 0h-.037a1.502 1.502 0 01-1.5-1.496c0-.823.675-1.497 1.5-1.497h.037c.825 0 1.499.674 1.499 1.497 0 .823-.637 1.496-1.499 1.496zm-4.871 0h-.038a1.502 1.502 0 01-1.499-1.496c0-.823.675-1.497 1.5-1.497h.037c.824 0 1.499.674 1.499 1.497 0 .823-.675 1.496-1.5 1.496zm-4.91 0h-.037a1.502 1.502 0 01-1.499-1.496c0-.823.675-1.497 1.5-1.497h.037c.824 0 1.499.674 1.499 1.497 0 .823-.675 1.496-1.5 1.496zm-4.908 0h-.038a1.502 1.502 0 01-1.499-1.496c0-.823.675-1.497 1.5-1.497h.037c.824 0 1.499.674 1.499 1.497 0 .823-.675 1.496-1.5 1.496zm-4.91 0a1.502 1.502 0 01-1.498-1.496c0-.823.637-1.497 1.499-1.497h.037c.825 0 1.5.674 1.5 1.497 0 .823-.713 1.496-1.537 1.496zm-4.908 0a1.502 1.502 0 01-1.5-1.496 1.48 1.48 0 011.5-1.497h.037c.825 0 1.5.674 1.5 1.497 0 .823-.713 1.496-1.537 1.496zm-4.91 0h-.037a1.502 1.502 0 01-1.499-1.496c0-.823.675-1.497 1.5-1.497h.037c.824 0 1.499.674 1.499 1.497 0 .823-.675 1.496-1.5 1.496zm-4.908 0h-.038a1.502 1.502 0 01-1.499-1.496c0-.823.675-1.497 1.5-1.497h.037c.824 0 1.499.674 1.499 1.497 0 .823-.675 1.496-1.5 1.496zm-4.91 0H6.48a1.502 1.502 0 01-1.499-1.496c0-.823.675-1.497 1.5-1.497h.037c.824 0 1.499.674 1.499 1.497 0 .823-.675 1.496-1.5 1.496zm103.014 0a1.503 1.503 0 01-1.499-1.496c0-.823.675-1.497 1.499-1.497.825 0 1.499.674 1.499 1.497 0 .823-.674 1.496-1.499 1.496zM1.608 92.046A1.502 1.502 0 01.11 90.55c0-.823.675-1.496 1.5-1.496.824 0 1.498.673 1.498 1.496 0 .824-.674 1.497-1.499 1.497zm103.014 0h-.037a1.502 1.502 0 01-1.499-1.497c0-.823.674-1.496 1.499-1.496h.037c.825 0 1.499.673 1.499 1.496 0 .824-.674 1.497-1.499 1.497zm-4.909 0h-.037a1.502 1.502 0 01-1.5-1.497c0-.823.675-1.496 1.5-1.496h.037c.825 0 1.499.673 1.499 1.496 0 .824-.637 1.497-1.499 1.497zm-4.871 0h-.038a1.502 1.502 0 01-1.499-1.497c0-.823.675-1.496 1.5-1.496h.037c.824 0 1.499.673 1.499 1.496 0 .824-.675 1.497-1.5 1.497zm-4.91 0h-.037a1.502 1.502 0 01-1.498-1.497c0-.823.674-1.496 1.498-1.496h.038c.824 0 1.499.673 1.499 1.496 0 .824-.675 1.497-1.5 1.497zm-4.908 0a1.502 1.502 0 01-1.499-1.497c0-.823.637-1.496 1.499-1.496h.037c.825 0 1.5.673 1.5 1.496 0 .824-.713 1.497-1.537 1.497zm-4.91 0a1.502 1.502 0 01-1.498-1.497c0-.823.637-1.496 1.499-1.496h.037c.825 0 1.5.673 1.5 1.496 0 .824-.713 1.497-1.537 1.497zm-4.908 0h-.038a1.502 1.502 0 01-1.498-1.497c0-.823.674-1.496 1.498-1.496h.038c.824 0 1.499.673 1.499 1.496 0 .824-.675 1.497-1.5 1.497zm-4.909 0h-.037a1.502 1.502 0 01-1.5-1.497c0-.823.675-1.496 1.5-1.496h.037c.824 0 1.499.673 1.499 1.496 0 .824-.675 1.497-1.499 1.497zm-4.909 0h-.038a1.502 1.502 0 01-1.498-1.497c0-.823.674-1.496 1.498-1.496h.038c.824 0 1.499.673 1.499 1.496 0 .824-.675 1.497-1.499 1.497zm-4.909 0h-.037a1.502 1.502 0 01-1.5-1.497c0-.823.675-1.496 1.5-1.496h.037c.824 0 1.499.673 1.499 1.496 0 .824-.675 1.497-1.499 1.497zm-4.909 0a1.502 1.502 0 01-1.499-1.497c0-.823.637-1.496 1.5-1.496h.037c.824 0 1.498.673 1.498 1.496 0 .824-.712 1.497-1.536 1.497zm-4.909 0a1.502 1.502 0 01-1.499-1.497c0-.823.637-1.496 1.5-1.496h.037c.824 0 1.498.673 1.498 1.496 0 .824-.712 1.497-1.536 1.497zm-4.909 0h-.037a1.502 1.502 0 01-1.5-1.497c0-.823.675-1.496 1.5-1.496h.037c.825 0 1.499.673 1.499 1.496 0 .824-.637 1.497-1.499 1.497zm-4.871 0h-.038a1.502 1.502 0 01-1.499-1.497c0-.823.675-1.496 1.5-1.496h.037c.824 0 1.499.673 1.499 1.496 0 .824-.675 1.497-1.5 1.497zm-4.91 0h-.037a1.502 1.502 0 01-1.499-1.497c0-.823.675-1.496 1.5-1.496h.037c.824 0 1.499.673 1.499 1.496 0 .824-.675 1.497-1.5 1.497zm-4.908 0h-.038a1.502 1.502 0 01-1.499-1.497c0-.823.675-1.496 1.5-1.496h.037c.824 0 1.499.673 1.499 1.496 0 .824-.675 1.497-1.5 1.497zm-4.91 0a1.502 1.502 0 01-1.498-1.497c0-.823.637-1.496 1.499-1.496h.037c.825 0 1.5.673 1.5 1.496 0 .824-.713 1.497-1.537 1.497zm-4.908 0a1.502 1.502 0 01-1.5-1.497c0-.823.638-1.496 1.5-1.496h.037c.825 0 1.5.673 1.5 1.496 0 .824-.713 1.497-1.537 1.497zm-4.91 0h-.037A1.502 1.502 0 0114.8 90.55c0-.823.675-1.496 1.5-1.496h.037c.824 0 1.499.673 1.499 1.496 0 .824-.675 1.497-1.5 1.497zm-4.908 0h-.038A1.502 1.502 0 019.89 90.55c0-.823.675-1.496 1.5-1.496h.037c.824 0 1.499.673 1.499 1.496 0 .824-.675 1.497-1.5 1.497zm-4.91 0H6.48a1.502 1.502 0 01-1.499-1.497c0-.823.675-1.496 1.5-1.496h.037c.824 0 1.499.673 1.499 1.496 0 .824-.675 1.497-1.5 1.497zm103.014 0a1.503 1.503 0 01-1.499-1.497c0-.823.675-1.496 1.499-1.496.825 0 1.499.673 1.499 1.496 0 .824-.674 1.497-1.499 1.497zM1.608 86.808A1.502 1.502 0 01.11 85.31c0-.823.675-1.497 1.5-1.497.824 0 1.498.674 1.498 1.497 0 .823-.674 1.497-1.499 1.497zm103.014 0h-.037a1.502 1.502 0 01-1.499-1.497c0-.823.674-1.497 1.499-1.497h.037c.825 0 1.499.674 1.499 1.497 0 .823-.674 1.497-1.499 1.497zm-4.909 0h-.037a1.502 1.502 0 01-1.5-1.497c0-.823.675-1.497 1.5-1.497h.037c.825 0 1.499.674 1.499 1.497 0 .823-.637 1.497-1.499 1.497zm-4.871 0h-.038a1.502 1.502 0 01-1.499-1.497c0-.823.675-1.497 1.5-1.497h.037c.824 0 1.499.674 1.499 1.497 0 .823-.675 1.497-1.5 1.497zm-4.91 0h-.037a1.502 1.502 0 01-1.498-1.497c0-.823.674-1.497 1.498-1.497h.038c.824 0 1.499.674 1.499 1.497 0 .823-.675 1.497-1.5 1.497zm-4.908 0a1.502 1.502 0 01-1.499-1.497c0-.823.637-1.497 1.499-1.497h.037c.825 0 1.5.674 1.5 1.497 0 .823-.713 1.497-1.537 1.497zm-4.91 0a1.502 1.502 0 01-1.498-1.497c0-.823.637-1.497 1.499-1.497h.037c.825 0 1.5.674 1.5 1.497 0 .823-.713 1.497-1.537 1.497zm-4.908 0h-.038a1.502 1.502 0 01-1.498-1.497c0-.823.674-1.497 1.498-1.497h.038c.824 0 1.499.674 1.499 1.497 0 .823-.675 1.497-1.5 1.497zm-4.909 0h-.037a1.502 1.502 0 01-1.5-1.497c0-.823.675-1.497 1.5-1.497h.037c.824 0 1.499.674 1.499 1.497 0 .823-.675 1.497-1.499 1.497zm-4.909 0h-.038a1.502 1.502 0 01-1.498-1.497c0-.823.674-1.497 1.498-1.497h.038c.824 0 1.499.674 1.499 1.497 0 .823-.675 1.497-1.499 1.497zm-4.909 0h-.037a1.502 1.502 0 01-1.5-1.497c0-.823.675-1.497 1.5-1.497h.037c.824 0 1.499.674 1.499 1.497 0 .823-.675 1.497-1.499 1.497zm-4.909 0a1.502 1.502 0 01-1.499-1.497 1.48 1.48 0 011.5-1.497h.037c.824 0 1.498.674 1.498 1.497 0 .823-.712 1.497-1.536 1.497zm-4.909 0a1.502 1.502 0 01-1.499-1.497 1.48 1.48 0 011.5-1.497h.037c.824 0 1.498.674 1.498 1.497 0 .823-.712 1.497-1.536 1.497zm-4.909 0h-.037a1.502 1.502 0 01-1.5-1.497c0-.823.675-1.497 1.5-1.497h.037c.825 0 1.499.674 1.499 1.497 0 .823-.637 1.497-1.499 1.497zm-4.871 0h-.038a1.502 1.502 0 01-1.499-1.497c0-.823.675-1.497 1.5-1.497h.037c.824 0 1.499.674 1.499 1.497 0 .823-.675 1.497-1.5 1.497zm-4.91 0h-.037a1.502 1.502 0 01-1.499-1.497c0-.823.675-1.497 1.5-1.497h.037c.824 0 1.499.674 1.499 1.497 0 .823-.675 1.497-1.5 1.497zm-4.908 0h-.038a1.502 1.502 0 01-1.499-1.497c0-.823.675-1.497 1.5-1.497h.037c.824 0 1.499.674 1.499 1.497 0 .823-.675 1.497-1.5 1.497zm-4.91 0a1.502 1.502 0 01-1.498-1.497c0-.823.637-1.497 1.499-1.497h.037c.825 0 1.5.674 1.5 1.497 0 .823-.713 1.497-1.537 1.497zm-4.908 0a1.502 1.502 0 01-1.5-1.497 1.48 1.48 0 011.5-1.497h.037c.825 0 1.5.674 1.5 1.497 0 .823-.713 1.497-1.537 1.497zm-4.91 0h-.037A1.502 1.502 0 0114.8 85.31c0-.823.675-1.497 1.5-1.497h.037c.824 0 1.499.674 1.499 1.497 0 .823-.675 1.497-1.5 1.497zm-4.908 0h-.038A1.502 1.502 0 019.89 85.31c0-.823.675-1.497 1.5-1.497h.037c.824 0 1.499.674 1.499 1.497 0 .823-.675 1.497-1.5 1.497zm-4.91 0H6.48a1.502 1.502 0 01-1.499-1.497c0-.823.675-1.497 1.5-1.497h.037c.824 0 1.499.674 1.499 1.497 0 .823-.675 1.497-1.5 1.497zm103.014 0a1.503 1.503 0 01-1.499-1.497c0-.823.675-1.497 1.499-1.497.825 0 1.499.674 1.499 1.497 0 .823-.674 1.497-1.499 1.497zM1.608 81.57A1.502 1.502 0 01.11 80.073c0-.823.675-1.497 1.5-1.497.824 0 1.498.674 1.498 1.497 0 .823-.674 1.497-1.499 1.497zm103.014 0h-.037a1.502 1.502 0 01-1.499-1.497c0-.823.674-1.497 1.499-1.497h.037c.825 0 1.499.674 1.499 1.497 0 .823-.674 1.497-1.499 1.497zm-4.909 0h-.037a1.502 1.502 0 01-1.5-1.497c0-.823.675-1.497 1.5-1.497h.037c.825 0 1.499.674 1.499 1.497 0 .823-.637 1.497-1.499 1.497zm-4.871 0h-.038a1.502 1.502 0 01-1.499-1.497c0-.823.675-1.497 1.5-1.497h.037c.824 0 1.499.674 1.499 1.497 0 .823-.675 1.497-1.5 1.497zm-4.91 0h-.037a1.502 1.502 0 01-1.498-1.497c0-.823.674-1.497 1.498-1.497h.038c.824 0 1.499.674 1.499 1.497 0 .823-.675 1.497-1.5 1.497zm-4.908 0a1.502 1.502 0 01-1.499-1.497c0-.823.637-1.497 1.499-1.497h.037c.825 0 1.5.674 1.5 1.497 0 .823-.713 1.497-1.537 1.497zm-4.91 0a1.502 1.502 0 01-1.498-1.497c0-.823.637-1.497 1.499-1.497h.037c.825 0 1.5.674 1.5 1.497 0 .823-.713 1.497-1.537 1.497zm-4.908 0h-.038a1.502 1.502 0 01-1.498-1.497c0-.823.674-1.497 1.498-1.497h.038c.824 0 1.499.674 1.499 1.497 0 .823-.675 1.497-1.5 1.497zm-4.909 0h-.037a1.502 1.502 0 01-1.5-1.497c0-.823.675-1.497 1.5-1.497h.037c.824 0 1.499.674 1.499 1.497 0 .823-.675 1.497-1.499 1.497zm-4.909 0h-.038a1.502 1.502 0 01-1.498-1.497c0-.823.674-1.497 1.498-1.497h.038c.824 0 1.499.674 1.499 1.497 0 .823-.675 1.497-1.499 1.497zm-4.909 0h-.037a1.502 1.502 0 01-1.5-1.497c0-.823.675-1.497 1.5-1.497h.037c.824 0 1.499.674 1.499 1.497 0 .823-.675 1.497-1.499 1.497zm-4.909 0a1.502 1.502 0 01-1.499-1.497 1.48 1.48 0 011.5-1.497h.037c.824 0 1.498.674 1.498 1.497 0 .823-.712 1.497-1.536 1.497zm-4.909 0a1.502 1.502 0 01-1.499-1.497 1.48 1.48 0 011.5-1.497h.037c.824 0 1.498.674 1.498 1.497 0 .823-.712 1.497-1.536 1.497zm-4.909 0h-.037a1.502 1.502 0 01-1.5-1.497c0-.823.675-1.497 1.5-1.497h.037c.825 0 1.499.674 1.499 1.497 0 .823-.637 1.497-1.499 1.497zm-4.871 0h-.038a1.502 1.502 0 01-1.499-1.497c0-.823.675-1.497 1.5-1.497h.037c.824 0 1.499.674 1.499 1.497 0 .823-.675 1.497-1.5 1.497zm-4.91 0h-.037a1.502 1.502 0 01-1.499-1.497c0-.823.675-1.497 1.5-1.497h.037c.824 0 1.499.674 1.499 1.497 0 .823-.675 1.497-1.5 1.497zm-4.908 0h-.038a1.502 1.502 0 01-1.499-1.497c0-.823.675-1.497 1.5-1.497h.037c.824 0 1.499.674 1.499 1.497 0 .823-.675 1.497-1.5 1.497zm-4.91 0a1.502 1.502 0 01-1.498-1.497c0-.823.637-1.497 1.499-1.497h.037c.825 0 1.5.674 1.5 1.497 0 .823-.713 1.497-1.537 1.497zm-4.908 0a1.502 1.502 0 01-1.5-1.497 1.48 1.48 0 011.5-1.497h.037c.825 0 1.5.674 1.5 1.497 0 .823-.713 1.497-1.537 1.497zm-4.91 0h-.037a1.502 1.502 0 01-1.499-1.497c0-.823.675-1.497 1.5-1.497h.037c.824 0 1.499.674 1.499 1.497 0 .823-.675 1.497-1.5 1.497zm-4.908 0h-.038a1.502 1.502 0 01-1.499-1.497c0-.823.675-1.497 1.5-1.497h.037c.824 0 1.499.674 1.499 1.497 0 .823-.675 1.497-1.5 1.497zm-4.91 0H6.48a1.502 1.502 0 01-1.499-1.497c0-.823.675-1.497 1.5-1.497h.037c.824 0 1.499.674 1.499 1.497 0 .823-.675 1.497-1.5 1.497zm103.014 0a1.503 1.503 0 01-1.499-1.497c0-.823.675-1.497 1.499-1.497.825 0 1.499.674 1.499 1.497 0 .823-.674 1.497-1.499 1.497zM1.608 76.331A1.502 1.502 0 01.11 74.835c0-.824.675-1.497 1.5-1.497.824 0 1.498.673 1.498 1.497 0 .823-.674 1.496-1.499 1.496zm103.014 0h-.037a1.502 1.502 0 01-1.499-1.496c0-.824.674-1.497 1.499-1.497h.037c.825 0 1.499.673 1.499 1.497 0 .823-.674 1.496-1.499 1.496zm-4.909 0h-.037a1.502 1.502 0 01-1.5-1.496c0-.824.675-1.497 1.5-1.497h.037c.825 0 1.499.673 1.499 1.497 0 .823-.637 1.496-1.499 1.496zm-4.871 0h-.038a1.502 1.502 0 01-1.499-1.496c0-.824.675-1.497 1.5-1.497h.037c.824 0 1.499.673 1.499 1.497 0 .823-.675 1.496-1.5 1.496zm-4.91 0h-.037a1.502 1.502 0 01-1.498-1.496c0-.824.674-1.497 1.498-1.497h.038c.824 0 1.499.673 1.499 1.497 0 .823-.675 1.496-1.5 1.496zm-4.908 0a1.502 1.502 0 01-1.499-1.496c0-.824.637-1.497 1.499-1.497h.037c.825 0 1.5.673 1.5 1.497 0 .823-.713 1.496-1.537 1.496zm-4.91 0a1.502 1.502 0 01-1.498-1.496c0-.824.637-1.497 1.499-1.497h.037c.825 0 1.5.673 1.5 1.497 0 .823-.713 1.496-1.537 1.496zm-4.908 0h-.038a1.502 1.502 0 01-1.498-1.496c0-.824.674-1.497 1.498-1.497h.038c.824 0 1.499.673 1.499 1.497 0 .823-.675 1.496-1.5 1.496zm-4.909 0h-.037a1.502 1.502 0 01-1.5-1.496c0-.824.675-1.497 1.5-1.497h.037c.824 0 1.499.673 1.499 1.497 0 .823-.675 1.496-1.499 1.496zm-4.909 0h-.038a1.502 1.502 0 01-1.498-1.496c0-.824.674-1.497 1.498-1.497h.038c.824 0 1.499.673 1.499 1.497 0 .823-.675 1.496-1.499 1.496zm-4.909 0h-.037a1.502 1.502 0 01-1.5-1.496c0-.824.675-1.497 1.5-1.497h.037c.824 0 1.499.673 1.499 1.497 0 .823-.675 1.496-1.499 1.496zm-4.909 0a1.502 1.502 0 01-1.499-1.496c0-.824.637-1.497 1.5-1.497h.037c.824 0 1.498.673 1.498 1.497 0 .823-.712 1.496-1.536 1.496zm-4.909 0a1.502 1.502 0 01-1.499-1.496c0-.824.637-1.497 1.5-1.497h.037c.824 0 1.498.673 1.498 1.497 0 .823-.712 1.496-1.536 1.496zm-4.909 0h-.037a1.502 1.502 0 01-1.5-1.496c0-.824.675-1.497 1.5-1.497h.037c.825 0 1.499.673 1.499 1.497 0 .823-.637 1.496-1.499 1.496zm-4.871 0h-.038a1.502 1.502 0 01-1.499-1.496c0-.824.675-1.497 1.5-1.497h.037c.824 0 1.499.673 1.499 1.497 0 .823-.675 1.496-1.5 1.496zm-4.91 0h-.037a1.502 1.502 0 01-1.499-1.496c0-.824.675-1.497 1.5-1.497h.037c.824 0 1.499.673 1.499 1.497 0 .823-.675 1.496-1.5 1.496zm-4.908 0h-.038a1.502 1.502 0 01-1.499-1.496c0-.824.675-1.497 1.5-1.497h.037c.824 0 1.499.673 1.499 1.497 0 .823-.675 1.496-1.5 1.496zm-4.91 0a1.502 1.502 0 01-1.498-1.496c0-.824.637-1.497 1.499-1.497h.037c.825 0 1.5.673 1.5 1.497 0 .823-.713 1.496-1.537 1.496zm-4.908 0a1.502 1.502 0 01-1.5-1.496 1.48 1.48 0 011.5-1.497h.037c.825 0 1.5.673 1.5 1.497 0 .823-.713 1.496-1.537 1.496zm-4.91 0h-.037a1.502 1.502 0 01-1.499-1.496c0-.824.675-1.497 1.5-1.497h.037c.824 0 1.499.673 1.499 1.497 0 .823-.675 1.496-1.5 1.496zm-4.908 0h-.038a1.502 1.502 0 01-1.499-1.496c0-.824.675-1.497 1.5-1.497h.037c.824 0 1.499.673 1.499 1.497 0 .823-.675 1.496-1.5 1.496zm-4.91 0H6.48a1.502 1.502 0 01-1.499-1.496c0-.824.675-1.497 1.5-1.497h.037c.824 0 1.499.673 1.499 1.497 0 .823-.675 1.496-1.5 1.496zm103.014 0a1.503 1.503 0 01-1.499-1.496c0-.824.675-1.497 1.499-1.497.825 0 1.499.673 1.499 1.497 0 .823-.674 1.496-1.499 1.496zM1.608 71.093A1.502 1.502 0 01.11 69.596c0-.823.675-1.496 1.5-1.496.824 0 1.498.673 1.498 1.496s-.674 1.497-1.499 1.497zm103.014 0h-.037a1.502 1.502 0 01-1.499-1.497c0-.823.674-1.496 1.499-1.496h.037c.825 0 1.499.673 1.499 1.496s-.674 1.497-1.499 1.497zm-4.909 0h-.037a1.502 1.502 0 01-1.5-1.497c0-.823.675-1.496 1.5-1.496h.037c.825 0 1.499.673 1.499 1.496s-.637 1.497-1.499 1.497zm-4.871 0h-.038a1.502 1.502 0 01-1.499-1.497c0-.823.675-1.496 1.5-1.496h.037c.824 0 1.499.673 1.499 1.496s-.675 1.497-1.5 1.497zm-4.91 0h-.037a1.502 1.502 0 01-1.498-1.497c0-.823.674-1.496 1.498-1.496h.038c.824 0 1.499.673 1.499 1.496s-.675 1.497-1.5 1.497zm-4.908 0a1.502 1.502 0 01-1.499-1.497c0-.823.637-1.496 1.499-1.496h.037c.825 0 1.5.673 1.5 1.496s-.713 1.497-1.537 1.497zm-4.91 0a1.502 1.502 0 01-1.498-1.497c0-.823.637-1.496 1.499-1.496h.037c.825 0 1.5.673 1.5 1.496s-.713 1.497-1.537 1.497zm-4.908 0h-.038a1.502 1.502 0 01-1.498-1.497c0-.823.674-1.496 1.498-1.496h.038c.824 0 1.499.673 1.499 1.496s-.675 1.497-1.5 1.497zm-4.909 0h-.037a1.502 1.502 0 01-1.5-1.497c0-.823.675-1.496 1.5-1.496h.037c.824 0 1.499.673 1.499 1.496s-.675 1.497-1.499 1.497zm-4.909 0h-.038a1.502 1.502 0 01-1.498-1.497c0-.823.674-1.496 1.498-1.496h.038c.824 0 1.499.673 1.499 1.496s-.675 1.497-1.499 1.497zm-4.909 0h-.037a1.502 1.502 0 01-1.5-1.497c0-.823.675-1.496 1.5-1.496h.037c.824 0 1.499.673 1.499 1.496s-.675 1.497-1.499 1.497zm-4.909 0a1.502 1.502 0 01-1.499-1.497c0-.823.637-1.496 1.5-1.496h.037c.824 0 1.498.673 1.498 1.496s-.712 1.497-1.536 1.497zm-4.909 0a1.502 1.502 0 01-1.499-1.497c0-.823.637-1.496 1.5-1.496h.037c.824 0 1.498.673 1.498 1.496s-.712 1.497-1.536 1.497zm-4.909 0h-.037a1.502 1.502 0 01-1.5-1.497c0-.823.675-1.496 1.5-1.496h.037c.825 0 1.499.673 1.499 1.496s-.637 1.497-1.499 1.497zm-4.871 0h-.038a1.502 1.502 0 01-1.499-1.497c0-.823.675-1.496 1.5-1.496h.037c.824 0 1.499.673 1.499 1.496s-.675 1.497-1.5 1.497zm-4.91 0h-.037a1.502 1.502 0 01-1.499-1.497c0-.823.675-1.496 1.5-1.496h.037c.824 0 1.499.673 1.499 1.496s-.675 1.497-1.5 1.497zm-4.908 0h-.038a1.502 1.502 0 01-1.499-1.497c0-.823.675-1.496 1.5-1.496h.037c.824 0 1.499.673 1.499 1.496s-.675 1.497-1.5 1.497zm-4.91 0a1.502 1.502 0 01-1.498-1.497c0-.823.637-1.496 1.499-1.496h.037c.825 0 1.5.673 1.5 1.496s-.713 1.497-1.537 1.497zm-4.908 0a1.502 1.502 0 01-1.5-1.497c0-.823.638-1.496 1.5-1.496h.037c.825 0 1.5.673 1.5 1.496s-.713 1.497-1.537 1.497zm-4.91 0h-.037a1.502 1.502 0 01-1.499-1.497c0-.823.675-1.496 1.5-1.496h.037c.824 0 1.499.673 1.499 1.496s-.675 1.497-1.5 1.497zm-4.908 0h-.038a1.502 1.502 0 01-1.499-1.497c0-.823.675-1.496 1.5-1.496h.037c.824 0 1.499.673 1.499 1.496s-.675 1.497-1.5 1.497zm-4.91 0H6.48a1.502 1.502 0 01-1.499-1.497c0-.823.675-1.496 1.5-1.496h.037c.824 0 1.499.673 1.499 1.496s-.675 1.497-1.5 1.497zm103.014 0a1.503 1.503 0 01-1.499-1.497c0-.823.675-1.496 1.499-1.496.825 0 1.499.673 1.499 1.496s-.674 1.497-1.499 1.497zM1.608 65.855A1.502 1.502 0 01.11 64.358c0-.823.675-1.497 1.5-1.497.824 0 1.498.674 1.498 1.497 0 .823-.674 1.497-1.499 1.497zm103.014 0h-.037a1.502 1.502 0 01-1.499-1.497c0-.823.674-1.497 1.499-1.497h.037c.825 0 1.499.674 1.499 1.497 0 .823-.674 1.497-1.499 1.497zm-4.909 0h-.037a1.502 1.502 0 01-1.5-1.497c0-.823.675-1.497 1.5-1.497h.037c.825 0 1.499.674 1.499 1.497 0 .823-.637 1.497-1.499 1.497zm-4.871 0h-.038a1.502 1.502 0 01-1.499-1.497c0-.823.675-1.497 1.5-1.497h.037c.824 0 1.499.674 1.499 1.497 0 .823-.675 1.497-1.5 1.497zm-4.91 0h-.037a1.502 1.502 0 01-1.498-1.497c0-.823.674-1.497 1.498-1.497h.038c.824 0 1.499.674 1.499 1.497 0 .823-.675 1.497-1.5 1.497zm-4.908 0a1.502 1.502 0 01-1.499-1.497c0-.823.637-1.497 1.499-1.497h.037c.825 0 1.5.674 1.5 1.497 0 .823-.713 1.497-1.537 1.497zm-4.91 0a1.502 1.502 0 01-1.498-1.497c0-.823.637-1.497 1.499-1.497h.037c.825 0 1.5.674 1.5 1.497 0 .823-.713 1.497-1.537 1.497zm-4.908 0h-.038a1.502 1.502 0 01-1.498-1.497c0-.823.674-1.497 1.498-1.497h.038c.824 0 1.499.674 1.499 1.497 0 .823-.675 1.497-1.5 1.497zm-4.909 0h-.037a1.502 1.502 0 01-1.5-1.497c0-.823.675-1.497 1.5-1.497h.037c.824 0 1.499.674 1.499 1.497 0 .823-.675 1.497-1.499 1.497zm-4.909 0h-.038a1.502 1.502 0 01-1.498-1.497c0-.823.674-1.497 1.498-1.497h.038c.824 0 1.499.674 1.499 1.497 0 .823-.675 1.497-1.499 1.497zm-4.909 0h-.037a1.502 1.502 0 01-1.5-1.497c0-.823.675-1.497 1.5-1.497h.037c.824 0 1.499.674 1.499 1.497 0 .823-.675 1.497-1.499 1.497zm-4.909 0a1.502 1.502 0 01-1.499-1.497 1.48 1.48 0 011.5-1.497h.037c.824 0 1.498.674 1.498 1.497 0 .823-.712 1.497-1.536 1.497zm-4.909 0a1.502 1.502 0 01-1.499-1.497 1.48 1.48 0 011.5-1.497h.037c.824 0 1.498.674 1.498 1.497 0 .823-.712 1.497-1.536 1.497zm-4.909 0h-.037a1.502 1.502 0 01-1.5-1.497c0-.823.675-1.497 1.5-1.497h.037c.825 0 1.499.674 1.499 1.497 0 .823-.637 1.497-1.499 1.497zm-4.871 0h-.038a1.502 1.502 0 01-1.499-1.497c0-.823.675-1.497 1.5-1.497h.037c.824 0 1.499.674 1.499 1.497 0 .823-.675 1.497-1.5 1.497zm-4.91 0h-.037a1.502 1.502 0 01-1.499-1.497c0-.823.675-1.497 1.5-1.497h.037c.824 0 1.499.674 1.499 1.497 0 .823-.675 1.497-1.5 1.497zm-4.908 0h-.038a1.502 1.502 0 01-1.499-1.497c0-.823.675-1.497 1.5-1.497h.037c.824 0 1.499.674 1.499 1.497 0 .823-.675 1.497-1.5 1.497zm-4.91 0a1.502 1.502 0 01-1.498-1.497c0-.823.637-1.497 1.499-1.497h.037c.825 0 1.5.674 1.5 1.497 0 .823-.713 1.497-1.537 1.497zm-4.908 0a1.502 1.502 0 01-1.5-1.497 1.48 1.48 0 011.5-1.497h.037c.825 0 1.5.674 1.5 1.497 0 .823-.713 1.497-1.537 1.497zm-4.91 0h-.037a1.502 1.502 0 01-1.499-1.497c0-.823.675-1.497 1.5-1.497h.037c.824 0 1.499.674 1.499 1.497 0 .823-.675 1.497-1.5 1.497zm-4.908 0h-.038a1.502 1.502 0 01-1.499-1.497c0-.823.675-1.497 1.5-1.497h.037c.824 0 1.499.674 1.499 1.497 0 .823-.675 1.497-1.5 1.497zm-4.91 0H6.48a1.502 1.502 0 01-1.499-1.497c0-.823.675-1.497 1.5-1.497h.037c.824 0 1.499.674 1.499 1.497 0 .823-.675 1.497-1.5 1.497zm103.014 0a1.503 1.503 0 01-1.499-1.497c0-.823.675-1.497 1.499-1.497.825 0 1.499.674 1.499 1.497 0 .823-.674 1.497-1.499 1.497zM1.608 60.615A1.502 1.502 0 01.11 59.12c0-.823.675-1.497 1.5-1.497.824 0 1.498.674 1.498 1.497 0 .823-.674 1.496-1.499 1.496zm103.014 0h-.037a1.502 1.502 0 01-1.499-1.496c0-.823.674-1.497 1.499-1.497h.037c.825 0 1.499.674 1.499 1.497 0 .823-.674 1.496-1.499 1.496zm-4.909 0h-.037a1.502 1.502 0 01-1.5-1.496c0-.823.675-1.497 1.5-1.497h.037c.825 0 1.499.674 1.499 1.497 0 .823-.637 1.496-1.499 1.496zm-4.871 0h-.038a1.502 1.502 0 01-1.499-1.496c0-.823.675-1.497 1.5-1.497h.037c.824 0 1.499.674 1.499 1.497 0 .823-.675 1.496-1.5 1.496zm-4.91 0h-.037a1.502 1.502 0 01-1.498-1.496c0-.823.674-1.497 1.498-1.497h.038c.824 0 1.499.674 1.499 1.497 0 .823-.675 1.496-1.5 1.496zm-4.908 0a1.502 1.502 0 01-1.499-1.496c0-.823.637-1.497 1.499-1.497h.037c.825 0 1.5.674 1.5 1.497 0 .823-.713 1.496-1.537 1.496zm-4.91 0a1.502 1.502 0 01-1.498-1.496c0-.823.637-1.497 1.499-1.497h.037c.825 0 1.5.674 1.5 1.497 0 .823-.713 1.496-1.537 1.496zm-4.908 0h-.038a1.502 1.502 0 01-1.498-1.496c0-.823.674-1.497 1.498-1.497h.038c.824 0 1.499.674 1.499 1.497 0 .823-.675 1.496-1.5 1.496zm-4.909 0h-.037a1.502 1.502 0 01-1.5-1.496c0-.823.675-1.497 1.5-1.497h.037c.824 0 1.499.674 1.499 1.497 0 .823-.675 1.496-1.499 1.496zm-4.909 0h-.038a1.502 1.502 0 01-1.498-1.496c0-.823.674-1.497 1.498-1.497h.038c.824 0 1.499.674 1.499 1.497 0 .823-.675 1.496-1.499 1.496zm-4.909 0h-.037a1.502 1.502 0 01-1.5-1.496c0-.823.675-1.497 1.5-1.497h.037c.824 0 1.499.674 1.499 1.497 0 .823-.675 1.496-1.499 1.496zm-4.909 0a1.502 1.502 0 01-1.499-1.496 1.48 1.48 0 011.5-1.497h.037c.824 0 1.498.674 1.498 1.497 0 .823-.712 1.496-1.536 1.496zm-4.909 0a1.502 1.502 0 01-1.499-1.496 1.48 1.48 0 011.5-1.497h.037c.824 0 1.498.674 1.498 1.497 0 .823-.712 1.496-1.536 1.496zm-4.909 0h-.037a1.502 1.502 0 01-1.5-1.496c0-.823.675-1.497 1.5-1.497h.037c.825 0 1.499.674 1.499 1.497 0 .823-.637 1.496-1.499 1.496zm-4.871 0h-.038a1.502 1.502 0 01-1.499-1.496c0-.823.675-1.497 1.5-1.497h.037c.824 0 1.499.674 1.499 1.497 0 .823-.675 1.496-1.5 1.496zm-4.91 0h-.037a1.502 1.502 0 01-1.499-1.496c0-.823.675-1.497 1.5-1.497h.037c.824 0 1.499.674 1.499 1.497 0 .823-.675 1.496-1.5 1.496zm-4.908 0h-.038a1.502 1.502 0 01-1.499-1.496c0-.823.675-1.497 1.5-1.497h.037c.824 0 1.499.674 1.499 1.497 0 .823-.675 1.496-1.5 1.496zm-4.91 0a1.502 1.502 0 01-1.498-1.496c0-.823.637-1.497 1.499-1.497h.037c.825 0 1.5.674 1.5 1.497 0 .823-.713 1.496-1.537 1.496zm-4.908 0a1.502 1.502 0 01-1.5-1.496 1.48 1.48 0 011.5-1.497h.037c.825 0 1.5.674 1.5 1.497 0 .823-.713 1.496-1.537 1.496zm-4.91 0h-.037A1.502 1.502 0 0114.8 59.12c0-.823.675-1.497 1.5-1.497h.037c.824 0 1.499.674 1.499 1.497 0 .823-.675 1.496-1.5 1.496zm-4.908 0h-.038A1.502 1.502 0 019.89 59.12c0-.823.675-1.497 1.5-1.497h.037c.824 0 1.499.674 1.499 1.497 0 .823-.675 1.496-1.5 1.496zm-4.91 0H6.48a1.502 1.502 0 01-1.499-1.496c0-.823.675-1.497 1.5-1.497h.037c.824 0 1.499.674 1.499 1.497 0 .823-.675 1.496-1.5 1.496zm103.014 0a1.503 1.503 0 01-1.499-1.496c0-.823.675-1.497 1.499-1.497.825 0 1.499.674 1.499 1.497 0 .823-.674 1.496-1.499 1.496zM1.608 55.377A1.502 1.502 0 01.11 53.88c0-.823.675-1.496 1.5-1.496.824 0 1.498.673 1.498 1.496 0 .824-.674 1.497-1.499 1.497zm103.014 0h-.037a1.502 1.502 0 01-1.499-1.497c0-.823.674-1.496 1.499-1.496h.037c.825 0 1.499.673 1.499 1.496 0 .824-.674 1.497-1.499 1.497zm-4.909 0h-.037a1.502 1.502 0 01-1.5-1.497c0-.823.675-1.496 1.5-1.496h.037c.825 0 1.499.673 1.499 1.496 0 .824-.637 1.497-1.499 1.497zm-4.871 0h-.038a1.502 1.502 0 01-1.499-1.497c0-.823.675-1.496 1.5-1.496h.037c.824 0 1.499.673 1.499 1.496 0 .824-.675 1.497-1.5 1.497zm-4.91 0h-.037a1.502 1.502 0 01-1.498-1.497c0-.823.674-1.496 1.498-1.496h.038c.824 0 1.499.673 1.499 1.496 0 .824-.675 1.497-1.5 1.497zm-4.908 0a1.502 1.502 0 01-1.499-1.497c0-.823.637-1.496 1.499-1.496h.037c.825 0 1.5.673 1.5 1.496 0 .824-.713 1.497-1.537 1.497zm-4.91 0a1.502 1.502 0 01-1.498-1.497c0-.823.637-1.496 1.499-1.496h.037c.825 0 1.5.673 1.5 1.496 0 .824-.713 1.497-1.537 1.497zm-4.908 0h-.038a1.502 1.502 0 01-1.498-1.497c0-.823.674-1.496 1.498-1.496h.038c.824 0 1.499.673 1.499 1.496 0 .824-.675 1.497-1.5 1.497zm-4.909 0h-.037a1.502 1.502 0 01-1.5-1.497c0-.823.675-1.496 1.5-1.496h.037c.824 0 1.499.673 1.499 1.496 0 .824-.675 1.497-1.499 1.497zm-4.909 0h-.038a1.502 1.502 0 01-1.498-1.497c0-.823.674-1.496 1.498-1.496h.038c.824 0 1.499.673 1.499 1.496 0 .824-.675 1.497-1.499 1.497zm-4.909 0h-.037a1.502 1.502 0 01-1.5-1.497c0-.823.675-1.496 1.5-1.496h.037c.824 0 1.499.673 1.499 1.496 0 .824-.675 1.497-1.499 1.497zm-4.909 0a1.502 1.502 0 01-1.499-1.497c0-.823.637-1.496 1.5-1.496h.037c.824 0 1.498.673 1.498 1.496 0 .824-.712 1.497-1.536 1.497zm-4.909 0a1.502 1.502 0 01-1.499-1.497c0-.823.637-1.496 1.5-1.496h.037c.824 0 1.498.673 1.498 1.496 0 .824-.712 1.497-1.536 1.497zm-4.909 0h-.037a1.502 1.502 0 01-1.5-1.497c0-.823.675-1.496 1.5-1.496h.037c.825 0 1.499.673 1.499 1.496 0 .824-.637 1.497-1.499 1.497zm-4.871 0h-.038a1.502 1.502 0 01-1.499-1.497c0-.823.675-1.496 1.5-1.496h.037c.824 0 1.499.673 1.499 1.496 0 .824-.675 1.497-1.5 1.497zm-4.91 0h-.037a1.502 1.502 0 01-1.499-1.497c0-.823.675-1.496 1.5-1.496h.037c.824 0 1.499.673 1.499 1.496 0 .824-.675 1.497-1.5 1.497zm-4.908 0h-.038a1.502 1.502 0 01-1.499-1.497c0-.823.675-1.496 1.5-1.496h.037c.824 0 1.499.673 1.499 1.496 0 .824-.675 1.497-1.5 1.497zm-4.91 0a1.502 1.502 0 01-1.498-1.497c0-.823.637-1.496 1.499-1.496h.037c.825 0 1.5.673 1.5 1.496 0 .824-.713 1.497-1.537 1.497zm-4.908 0a1.502 1.502 0 01-1.5-1.497c0-.823.638-1.496 1.5-1.496h.037c.825 0 1.5.673 1.5 1.496 0 .824-.713 1.497-1.537 1.497zm-4.91 0h-.037A1.502 1.502 0 0114.8 53.88c0-.823.675-1.496 1.5-1.496h.037c.824 0 1.499.673 1.499 1.496 0 .824-.675 1.497-1.5 1.497zm-4.908 0h-.038A1.502 1.502 0 019.89 53.88c0-.823.675-1.496 1.5-1.496h.037c.824 0 1.499.673 1.499 1.496 0 .824-.675 1.497-1.5 1.497zm-4.91 0H6.48a1.502 1.502 0 01-1.499-1.497c0-.823.675-1.496 1.5-1.496h.037c.824 0 1.499.673 1.499 1.496 0 .824-.675 1.497-1.5 1.497zm103.014 0a1.503 1.503 0 01-1.499-1.497c0-.823.675-1.496 1.499-1.496.825 0 1.499.673 1.499 1.496 0 .824-.674 1.497-1.499 1.497zM1.608 50.139A1.502 1.502 0 01.11 48.642c0-.823.675-1.497 1.5-1.497.824 0 1.498.674 1.498 1.497 0 .823-.674 1.497-1.499 1.497zm103.014 0h-.037a1.502 1.502 0 01-1.499-1.497c0-.823.674-1.497 1.499-1.497h.037c.825 0 1.499.674 1.499 1.497 0 .823-.674 1.497-1.499 1.497zm-4.909 0h-.037a1.502 1.502 0 01-1.5-1.497c0-.823.675-1.497 1.5-1.497h.037c.825 0 1.499.674 1.499 1.497 0 .823-.637 1.497-1.499 1.497zm-4.871 0h-.038a1.502 1.502 0 01-1.499-1.497c0-.823.675-1.497 1.5-1.497h.037c.824 0 1.499.674 1.499 1.497 0 .823-.675 1.497-1.5 1.497zm-4.91 0h-.037a1.502 1.502 0 01-1.498-1.497c0-.823.674-1.497 1.498-1.497h.038c.824 0 1.499.674 1.499 1.497 0 .823-.675 1.497-1.5 1.497zm-4.908 0a1.502 1.502 0 01-1.499-1.497c0-.823.637-1.497 1.499-1.497h.037c.825 0 1.5.674 1.5 1.497 0 .823-.713 1.497-1.537 1.497zm-4.91 0a1.502 1.502 0 01-1.498-1.497c0-.823.637-1.497 1.499-1.497h.037c.825 0 1.5.674 1.5 1.497 0 .823-.713 1.497-1.537 1.497zm-4.908 0h-.038a1.502 1.502 0 01-1.498-1.497c0-.823.674-1.497 1.498-1.497h.038c.824 0 1.499.674 1.499 1.497 0 .823-.675 1.497-1.5 1.497zm-4.909 0h-.037a1.502 1.502 0 01-1.5-1.497c0-.823.675-1.497 1.5-1.497h.037c.824 0 1.499.674 1.499 1.497 0 .823-.675 1.497-1.499 1.497zm-4.909 0h-.038a1.502 1.502 0 01-1.498-1.497c0-.823.674-1.497 1.498-1.497h.038c.824 0 1.499.674 1.499 1.497 0 .823-.675 1.497-1.499 1.497zm-4.909 0h-.037a1.502 1.502 0 01-1.5-1.497c0-.823.675-1.497 1.5-1.497h.037c.824 0 1.499.674 1.499 1.497 0 .823-.675 1.497-1.499 1.497zm-4.909 0a1.502 1.502 0 01-1.499-1.497 1.48 1.48 0 011.5-1.497h.037c.824 0 1.498.674 1.498 1.497 0 .823-.712 1.497-1.536 1.497zm-4.909 0a1.502 1.502 0 01-1.499-1.497 1.48 1.48 0 011.5-1.497h.037c.824 0 1.498.674 1.498 1.497 0 .823-.712 1.497-1.536 1.497zm-4.909 0h-.037a1.502 1.502 0 01-1.5-1.497c0-.823.675-1.497 1.5-1.497h.037c.825 0 1.499.674 1.499 1.497 0 .823-.637 1.497-1.499 1.497zm-4.871 0h-.038a1.502 1.502 0 01-1.499-1.497c0-.823.675-1.497 1.5-1.497h.037c.824 0 1.499.674 1.499 1.497 0 .823-.675 1.497-1.5 1.497zm-4.91 0h-.037a1.502 1.502 0 01-1.499-1.497c0-.823.675-1.497 1.5-1.497h.037c.824 0 1.499.674 1.499 1.497 0 .823-.675 1.497-1.5 1.497zm-4.908 0h-.038a1.502 1.502 0 01-1.499-1.497c0-.823.675-1.497 1.5-1.497h.037c.824 0 1.499.674 1.499 1.497 0 .823-.675 1.497-1.5 1.497zm-4.91 0a1.502 1.502 0 01-1.498-1.497c0-.823.637-1.497 1.499-1.497h.037c.825 0 1.5.674 1.5 1.497 0 .823-.713 1.497-1.537 1.497zm-4.908 0a1.502 1.502 0 01-1.5-1.497 1.48 1.48 0 011.5-1.497h.037c.825 0 1.5.674 1.5 1.497 0 .823-.713 1.497-1.537 1.497zm-4.91 0h-.037a1.502 1.502 0 01-1.499-1.497c0-.823.675-1.497 1.5-1.497h.037c.824 0 1.499.674 1.499 1.497 0 .823-.675 1.497-1.5 1.497zm-4.908 0h-.038a1.502 1.502 0 01-1.499-1.497c0-.823.675-1.497 1.5-1.497h.037c.824 0 1.499.674 1.499 1.497 0 .823-.675 1.497-1.5 1.497zm-4.91 0H6.48a1.502 1.502 0 01-1.499-1.497c0-.823.675-1.497 1.5-1.497h.037c.824 0 1.499.674 1.499 1.497 0 .823-.675 1.497-1.5 1.497zm103.014 0a1.503 1.503 0 01-1.499-1.497c0-.823.675-1.497 1.499-1.497.825 0 1.499.674 1.499 1.497 0 .823-.674 1.497-1.499 1.497zM1.608 44.9A1.502 1.502 0 01.11 43.405c0-.823.675-1.497 1.5-1.497.824 0 1.498.674 1.498 1.497 0 .823-.674 1.497-1.499 1.497zm103.014 0h-.037a1.502 1.502 0 01-1.499-1.496c0-.823.674-1.497 1.499-1.497h.037c.825 0 1.499.674 1.499 1.497 0 .823-.674 1.497-1.499 1.497zm-4.909 0h-.037a1.502 1.502 0 01-1.5-1.496c0-.823.675-1.497 1.5-1.497h.037c.825 0 1.499.674 1.499 1.497 0 .823-.637 1.497-1.499 1.497zm-4.871 0h-.038a1.502 1.502 0 01-1.499-1.496c0-.823.675-1.497 1.5-1.497h.037c.824 0 1.499.674 1.499 1.497 0 .823-.675 1.497-1.5 1.497zm-4.91 0h-.037a1.502 1.502 0 01-1.498-1.496c0-.823.674-1.497 1.498-1.497h.038c.824 0 1.499.674 1.499 1.497 0 .823-.675 1.497-1.5 1.497zm-4.908 0a1.502 1.502 0 01-1.499-1.496c0-.823.637-1.497 1.499-1.497h.037c.825 0 1.5.674 1.5 1.497 0 .823-.713 1.497-1.537 1.497zm-4.91 0a1.502 1.502 0 01-1.498-1.496c0-.823.637-1.497 1.499-1.497h.037c.825 0 1.5.674 1.5 1.497 0 .823-.713 1.497-1.537 1.497zm-4.908 0h-.038a1.502 1.502 0 01-1.498-1.496c0-.823.674-1.497 1.498-1.497h.038c.824 0 1.499.674 1.499 1.497 0 .823-.675 1.497-1.5 1.497zm-4.909 0h-.037a1.502 1.502 0 01-1.5-1.496c0-.823.675-1.497 1.5-1.497h.037c.824 0 1.499.674 1.499 1.497 0 .823-.675 1.497-1.499 1.497zm-4.909 0h-.038a1.502 1.502 0 01-1.498-1.496c0-.823.674-1.497 1.498-1.497h.038c.824 0 1.499.674 1.499 1.497 0 .823-.675 1.497-1.499 1.497zm-4.909 0h-.037a1.502 1.502 0 01-1.5-1.496c0-.823.675-1.497 1.5-1.497h.037c.824 0 1.499.674 1.499 1.497 0 .823-.675 1.497-1.499 1.497zm-4.909 0a1.502 1.502 0 01-1.499-1.496 1.48 1.48 0 011.5-1.497h.037c.824 0 1.498.674 1.498 1.497 0 .823-.712 1.497-1.536 1.497zm-4.909 0a1.502 1.502 0 01-1.499-1.496 1.48 1.48 0 011.5-1.497h.037c.824 0 1.498.674 1.498 1.497 0 .823-.712 1.497-1.536 1.497zm-4.909 0h-.037a1.502 1.502 0 01-1.5-1.496c0-.823.675-1.497 1.5-1.497h.037c.825 0 1.499.674 1.499 1.497 0 .823-.637 1.497-1.499 1.497zm-4.871 0h-.038a1.502 1.502 0 01-1.499-1.496c0-.823.675-1.497 1.5-1.497h.037c.824 0 1.499.674 1.499 1.497 0 .823-.675 1.497-1.5 1.497zm-4.91 0h-.037a1.502 1.502 0 01-1.499-1.496c0-.823.675-1.497 1.5-1.497h.037c.824 0 1.499.674 1.499 1.497 0 .823-.675 1.497-1.5 1.497zm-4.908 0h-.038a1.502 1.502 0 01-1.499-1.496c0-.823.675-1.497 1.5-1.497h.037c.824 0 1.499.674 1.499 1.497 0 .823-.675 1.497-1.5 1.497zm-4.91 0a1.502 1.502 0 01-1.498-1.496c0-.823.637-1.497 1.499-1.497h.037c.825 0 1.5.674 1.5 1.497 0 .823-.713 1.497-1.537 1.497zm-4.908 0a1.502 1.502 0 01-1.5-1.496 1.48 1.48 0 011.5-1.497h.037c.825 0 1.5.674 1.5 1.497 0 .823-.713 1.497-1.537 1.497zm-4.91 0h-.037a1.502 1.502 0 01-1.499-1.496c0-.823.675-1.497 1.5-1.497h.037c.824 0 1.499.674 1.499 1.497 0 .823-.675 1.497-1.5 1.497zm-4.908 0h-.038a1.502 1.502 0 01-1.499-1.496c0-.823.675-1.497 1.5-1.497h.037c.824 0 1.499.674 1.499 1.497 0 .823-.675 1.497-1.5 1.497zm-4.91 0H6.48a1.502 1.502 0 01-1.499-1.496c0-.823.675-1.497 1.5-1.497h.037c.824 0 1.499.674 1.499 1.497 0 .823-.675 1.497-1.5 1.497zm103.014 0a1.503 1.503 0 01-1.499-1.496c0-.823.675-1.497 1.499-1.497.825 0 1.499.674 1.499 1.497 0 .823-.674 1.497-1.499 1.497zM1.608 39.662A1.502 1.502 0 01.11 38.166c0-.823.675-1.497 1.5-1.497.824 0 1.498.674 1.498 1.497 0 .823-.674 1.496-1.499 1.496zm103.014 0h-.037a1.502 1.502 0 01-1.499-1.496c0-.823.674-1.497 1.499-1.497h.037c.825 0 1.499.674 1.499 1.497 0 .823-.674 1.496-1.499 1.496zm-4.909 0h-.037a1.502 1.502 0 01-1.5-1.496c0-.823.675-1.497 1.5-1.497h.037c.825 0 1.499.674 1.499 1.497 0 .823-.637 1.496-1.499 1.496zm-4.871 0h-.038a1.502 1.502 0 01-1.499-1.496c0-.823.675-1.497 1.5-1.497h.037c.824 0 1.499.674 1.499 1.497 0 .823-.675 1.496-1.5 1.496zm-4.91 0h-.037a1.502 1.502 0 01-1.498-1.496c0-.823.674-1.497 1.498-1.497h.038c.824 0 1.499.674 1.499 1.497 0 .823-.675 1.496-1.5 1.496zm-4.908 0a1.502 1.502 0 01-1.499-1.496c0-.823.637-1.497 1.499-1.497h.037c.825 0 1.5.674 1.5 1.497 0 .823-.713 1.496-1.537 1.496zm-4.91 0a1.502 1.502 0 01-1.498-1.496c0-.823.637-1.497 1.499-1.497h.037c.825 0 1.5.674 1.5 1.497 0 .823-.713 1.496-1.537 1.496zm-4.908 0h-.038a1.502 1.502 0 01-1.498-1.496c0-.823.674-1.497 1.498-1.497h.038c.824 0 1.499.674 1.499 1.497 0 .823-.675 1.496-1.5 1.496zm-4.909 0h-.037a1.502 1.502 0 01-1.5-1.496c0-.823.675-1.497 1.5-1.497h.037c.824 0 1.499.674 1.499 1.497 0 .823-.675 1.496-1.499 1.496zm-4.909 0h-.038a1.502 1.502 0 01-1.498-1.496c0-.823.674-1.497 1.498-1.497h.038c.824 0 1.499.674 1.499 1.497 0 .823-.675 1.496-1.499 1.496zm-4.909 0h-.037a1.502 1.502 0 01-1.5-1.496c0-.823.675-1.497 1.5-1.497h.037c.824 0 1.499.674 1.499 1.497 0 .823-.675 1.496-1.499 1.496zm-4.909 0a1.502 1.502 0 01-1.499-1.496 1.48 1.48 0 011.5-1.497h.037c.824 0 1.498.674 1.498 1.497 0 .823-.712 1.496-1.536 1.496zm-4.909 0a1.502 1.502 0 01-1.499-1.496 1.48 1.48 0 011.5-1.497h.037c.824 0 1.498.674 1.498 1.497 0 .823-.712 1.496-1.536 1.496zm-4.909 0h-.037a1.502 1.502 0 01-1.5-1.496c0-.823.675-1.497 1.5-1.497h.037c.825 0 1.499.674 1.499 1.497 0 .823-.637 1.496-1.499 1.496zm-4.871 0h-.038a1.502 1.502 0 01-1.499-1.496c0-.823.675-1.497 1.5-1.497h.037c.824 0 1.499.674 1.499 1.497 0 .823-.675 1.496-1.5 1.496zm-4.91 0h-.037a1.502 1.502 0 01-1.499-1.496c0-.823.675-1.497 1.5-1.497h.037c.824 0 1.499.674 1.499 1.497 0 .823-.675 1.496-1.5 1.496zm-4.908 0h-.038a1.502 1.502 0 01-1.499-1.496c0-.823.675-1.497 1.5-1.497h.037c.824 0 1.499.674 1.499 1.497 0 .823-.675 1.496-1.5 1.496zm-4.91 0a1.502 1.502 0 01-1.498-1.496c0-.823.637-1.497 1.499-1.497h.037c.825 0 1.5.674 1.5 1.497 0 .823-.713 1.496-1.537 1.496zm-4.908 0a1.502 1.502 0 01-1.5-1.496 1.48 1.48 0 011.5-1.497h.037c.825 0 1.5.674 1.5 1.497 0 .823-.713 1.496-1.537 1.496zm-4.91 0h-.037a1.502 1.502 0 01-1.499-1.496c0-.823.675-1.497 1.5-1.497h.037c.824 0 1.499.674 1.499 1.497 0 .823-.675 1.496-1.5 1.496zm-4.908 0h-.038a1.502 1.502 0 01-1.499-1.496c0-.823.675-1.497 1.5-1.497h.037c.824 0 1.499.674 1.499 1.497 0 .823-.675 1.496-1.5 1.496zm-4.91 0H6.48a1.502 1.502 0 01-1.499-1.496c0-.823.675-1.497 1.5-1.497h.037c.824 0 1.499.674 1.499 1.497 0 .823-.675 1.496-1.5 1.496zm103.014 0a1.503 1.503 0 01-1.499-1.496c0-.823.675-1.497 1.499-1.497.825 0 1.499.674 1.499 1.497 0 .823-.674 1.496-1.499 1.496zM1.608 34.425A1.502 1.502 0 01.11 32.928c0-.823.675-1.496 1.5-1.496.824 0 1.498.673 1.498 1.496 0 .824-.674 1.497-1.499 1.497zm103.014-.001h-.037a1.502 1.502 0 01-1.499-1.497c0-.823.674-1.496 1.499-1.496h.037c.825 0 1.499.673 1.499 1.496 0 .824-.674 1.497-1.499 1.497zm-4.909 0h-.037a1.502 1.502 0 01-1.5-1.497c0-.823.675-1.496 1.5-1.496h.037c.825 0 1.499.673 1.499 1.496 0 .824-.637 1.497-1.499 1.497zm-4.871 0h-.038a1.502 1.502 0 01-1.499-1.497c0-.823.675-1.496 1.5-1.496h.037c.824 0 1.499.673 1.499 1.496 0 .824-.675 1.497-1.5 1.497zm-4.91 0h-.037a1.502 1.502 0 01-1.498-1.497c0-.823.674-1.496 1.498-1.496h.038c.824 0 1.499.673 1.499 1.496 0 .824-.675 1.497-1.5 1.497zm-4.908 0a1.502 1.502 0 01-1.499-1.497c0-.823.637-1.496 1.499-1.496h.037c.825 0 1.5.673 1.5 1.496 0 .824-.713 1.497-1.537 1.497zm-4.91 0a1.502 1.502 0 01-1.498-1.497c0-.823.637-1.496 1.499-1.496h.037c.825 0 1.5.673 1.5 1.496 0 .824-.713 1.497-1.537 1.497zm-4.908 0h-.038a1.502 1.502 0 01-1.498-1.497c0-.823.674-1.496 1.498-1.496h.038c.824 0 1.499.673 1.499 1.496 0 .824-.675 1.497-1.5 1.497zm-4.909 0h-.037a1.502 1.502 0 01-1.5-1.497c0-.823.675-1.496 1.5-1.496h.037c.824 0 1.499.673 1.499 1.496 0 .824-.675 1.497-1.499 1.497zm-4.909 0h-.038a1.502 1.502 0 01-1.498-1.497c0-.823.674-1.496 1.498-1.496h.038c.824 0 1.499.673 1.499 1.496 0 .824-.675 1.497-1.499 1.497zm-4.909 0h-.037a1.502 1.502 0 01-1.5-1.497c0-.823.675-1.496 1.5-1.496h.037c.824 0 1.499.673 1.499 1.496 0 .824-.675 1.497-1.499 1.497zm-4.909 0a1.502 1.502 0 01-1.499-1.497c0-.823.637-1.496 1.5-1.496h.037c.824 0 1.498.673 1.498 1.496 0 .824-.712 1.497-1.536 1.497zm-4.909 0a1.502 1.502 0 01-1.499-1.497c0-.823.637-1.496 1.5-1.496h.037c.824 0 1.498.673 1.498 1.496 0 .824-.712 1.497-1.536 1.497zm-4.909 0h-.037a1.502 1.502 0 01-1.5-1.497c0-.823.675-1.496 1.5-1.496h.037c.825 0 1.499.673 1.499 1.496 0 .824-.637 1.497-1.499 1.497zm-4.871 0h-.038a1.502 1.502 0 01-1.499-1.497c0-.823.675-1.496 1.5-1.496h.037c.824 0 1.499.673 1.499 1.496 0 .824-.675 1.497-1.5 1.497zm-4.91 0h-.037a1.502 1.502 0 01-1.499-1.497c0-.823.675-1.496 1.5-1.496h.037c.824 0 1.499.673 1.499 1.496 0 .824-.675 1.497-1.5 1.497zm-4.908 0h-.038a1.502 1.502 0 01-1.499-1.497c0-.823.675-1.496 1.5-1.496h.037c.824 0 1.499.673 1.499 1.496 0 .824-.675 1.497-1.5 1.497zm-4.91 0a1.502 1.502 0 01-1.498-1.497c0-.823.637-1.496 1.499-1.496h.037c.825 0 1.5.673 1.5 1.496 0 .824-.713 1.497-1.537 1.497zm-4.908 0a1.502 1.502 0 01-1.5-1.497c0-.823.638-1.496 1.5-1.496h.037c.825 0 1.5.673 1.5 1.496 0 .824-.713 1.497-1.537 1.497zm-4.91 0h-.037a1.502 1.502 0 01-1.499-1.497c0-.823.675-1.496 1.5-1.496h.037c.824 0 1.499.673 1.499 1.496 0 .824-.675 1.497-1.5 1.497zm-4.908 0h-.038a1.502 1.502 0 01-1.499-1.497c0-.823.675-1.496 1.5-1.496h.037c.824 0 1.499.673 1.499 1.496 0 .824-.675 1.497-1.5 1.497zm-4.91 0H6.48a1.502 1.502 0 01-1.499-1.497c0-.823.675-1.496 1.5-1.496h.037c.824 0 1.499.673 1.499 1.496 0 .824-.675 1.497-1.5 1.497zm103.014 0a1.503 1.503 0 01-1.499-1.497c0-.823.675-1.496 1.499-1.496.825 0 1.499.673 1.499 1.496 0 .824-.674 1.497-1.499 1.497zM1.608 29.186A1.502 1.502 0 01.11 27.689c0-.823.675-1.497 1.5-1.497.824 0 1.498.674 1.498 1.497 0 .823-.674 1.497-1.499 1.497zm103.014 0h-.037a1.502 1.502 0 01-1.499-1.497c0-.823.674-1.497 1.499-1.497h.037c.825 0 1.499.674 1.499 1.497 0 .823-.674 1.497-1.499 1.497zm-4.909 0h-.037a1.502 1.502 0 01-1.5-1.497c0-.823.675-1.497 1.5-1.497h.037c.825 0 1.499.674 1.499 1.497 0 .823-.637 1.497-1.499 1.497zm-4.871 0h-.038a1.502 1.502 0 01-1.499-1.497c0-.823.675-1.497 1.5-1.497h.037c.824 0 1.499.674 1.499 1.497 0 .823-.675 1.497-1.5 1.497zm-4.91 0h-.037a1.502 1.502 0 01-1.498-1.497c0-.823.674-1.497 1.498-1.497h.038c.824 0 1.499.674 1.499 1.497 0 .823-.675 1.497-1.5 1.497zm-4.908 0a1.502 1.502 0 01-1.499-1.497c0-.823.637-1.497 1.499-1.497h.037c.825 0 1.5.674 1.5 1.497 0 .823-.713 1.497-1.537 1.497zm-4.91 0a1.502 1.502 0 01-1.498-1.497c0-.823.637-1.497 1.499-1.497h.037c.825 0 1.5.674 1.5 1.497 0 .823-.713 1.497-1.537 1.497zm-4.908 0h-.038a1.502 1.502 0 01-1.498-1.497c0-.823.674-1.497 1.498-1.497h.038c.824 0 1.499.674 1.499 1.497 0 .823-.675 1.497-1.5 1.497zm-4.909 0h-.037a1.502 1.502 0 01-1.5-1.497c0-.823.675-1.497 1.5-1.497h.037c.824 0 1.499.674 1.499 1.497 0 .823-.675 1.497-1.499 1.497zm-4.909 0h-.038a1.502 1.502 0 01-1.498-1.497c0-.823.674-1.497 1.498-1.497h.038c.824 0 1.499.674 1.499 1.497 0 .823-.675 1.497-1.499 1.497zm-4.909 0h-.037a1.502 1.502 0 01-1.5-1.497c0-.823.675-1.497 1.5-1.497h.037c.824 0 1.499.674 1.499 1.497 0 .823-.675 1.497-1.499 1.497zm-4.909 0a1.502 1.502 0 01-1.499-1.497 1.48 1.48 0 011.5-1.497h.037c.824 0 1.498.674 1.498 1.497 0 .823-.712 1.497-1.536 1.497zm-4.909 0a1.502 1.502 0 01-1.499-1.497 1.48 1.48 0 011.5-1.497h.037c.824 0 1.498.674 1.498 1.497 0 .823-.712 1.497-1.536 1.497zm-4.909 0h-.037a1.502 1.502 0 01-1.5-1.497c0-.823.675-1.497 1.5-1.497h.037c.825 0 1.499.674 1.499 1.497 0 .823-.637 1.497-1.499 1.497zm-4.871 0h-.038a1.502 1.502 0 01-1.499-1.497c0-.823.675-1.497 1.5-1.497h.037c.824 0 1.499.674 1.499 1.497 0 .823-.675 1.497-1.5 1.497zm-4.91 0h-.037a1.502 1.502 0 01-1.499-1.497c0-.823.675-1.497 1.5-1.497h.037c.824 0 1.499.674 1.499 1.497 0 .823-.675 1.497-1.5 1.497zm-4.908 0h-.038a1.502 1.502 0 01-1.499-1.497c0-.823.675-1.497 1.5-1.497h.037c.824 0 1.499.674 1.499 1.497 0 .823-.675 1.497-1.5 1.497zm-4.91 0a1.502 1.502 0 01-1.498-1.497c0-.823.637-1.497 1.499-1.497h.037c.825 0 1.5.674 1.5 1.497 0 .823-.713 1.497-1.537 1.497zm-4.908 0a1.502 1.502 0 01-1.5-1.497 1.48 1.48 0 011.5-1.497h.037c.825 0 1.5.674 1.5 1.497 0 .823-.713 1.497-1.537 1.497zm-4.91 0h-.037a1.502 1.502 0 01-1.499-1.497c0-.823.675-1.497 1.5-1.497h.037c.824 0 1.499.674 1.499 1.497 0 .823-.675 1.497-1.5 1.497zm-4.908 0h-.038a1.502 1.502 0 01-1.499-1.497c0-.823.675-1.497 1.5-1.497h.037c.824 0 1.499.674 1.499 1.497 0 .823-.675 1.497-1.5 1.497zm-4.91 0H6.48a1.502 1.502 0 01-1.499-1.497c0-.823.675-1.497 1.5-1.497h.037c.824 0 1.499.674 1.499 1.497 0 .823-.675 1.497-1.5 1.497zm103.014 0a1.503 1.503 0 01-1.499-1.497c0-.823.675-1.497 1.499-1.497.825 0 1.499.674 1.499 1.497 0 .823-.674 1.497-1.499 1.497zM1.608 23.947A1.502 1.502 0 01.11 22.45c0-.823.675-1.497 1.5-1.497.824 0 1.498.674 1.498 1.497 0 .823-.674 1.497-1.499 1.497zm103.014 0h-.037a1.502 1.502 0 01-1.499-1.497c0-.823.674-1.497 1.499-1.497h.037c.825 0 1.499.674 1.499 1.497 0 .823-.674 1.497-1.499 1.497zm-4.909 0h-.037a1.502 1.502 0 01-1.5-1.497c0-.823.675-1.497 1.5-1.497h.037c.825 0 1.499.674 1.499 1.497 0 .823-.637 1.497-1.499 1.497zm-4.871 0h-.038a1.502 1.502 0 01-1.499-1.497c0-.823.675-1.497 1.5-1.497h.037c.824 0 1.499.674 1.499 1.497 0 .823-.675 1.497-1.5 1.497zm-4.91 0h-.037a1.502 1.502 0 01-1.498-1.497c0-.823.674-1.497 1.498-1.497h.038c.824 0 1.499.674 1.499 1.497 0 .823-.675 1.497-1.5 1.497zm-4.908 0a1.502 1.502 0 01-1.499-1.497c0-.823.637-1.497 1.499-1.497h.037c.825 0 1.5.674 1.5 1.497 0 .823-.713 1.497-1.537 1.497zm-4.91 0a1.502 1.502 0 01-1.498-1.497c0-.823.637-1.497 1.499-1.497h.037c.825 0 1.5.674 1.5 1.497 0 .823-.713 1.497-1.537 1.497zm-4.908 0h-.038a1.502 1.502 0 01-1.498-1.497c0-.823.674-1.497 1.498-1.497h.038c.824 0 1.499.674 1.499 1.497 0 .823-.675 1.497-1.5 1.497zm-4.909 0h-.037a1.502 1.502 0 01-1.5-1.497c0-.823.675-1.497 1.5-1.497h.037c.824 0 1.499.674 1.499 1.497 0 .823-.675 1.497-1.499 1.497zm-4.909 0h-.038a1.502 1.502 0 01-1.498-1.497c0-.823.674-1.497 1.498-1.497h.038c.824 0 1.499.674 1.499 1.497 0 .823-.675 1.497-1.499 1.497zm-4.909 0h-.037a1.502 1.502 0 01-1.5-1.497c0-.823.675-1.497 1.5-1.497h.037c.824 0 1.499.674 1.499 1.497 0 .823-.675 1.497-1.499 1.497zm-4.909 0a1.502 1.502 0 01-1.499-1.497 1.48 1.48 0 011.5-1.497h.037c.824 0 1.498.674 1.498 1.497 0 .823-.712 1.497-1.536 1.497zm-4.909 0a1.502 1.502 0 01-1.499-1.497 1.48 1.48 0 011.5-1.497h.037c.824 0 1.498.674 1.498 1.497 0 .823-.712 1.497-1.536 1.497zm-4.909 0h-.037a1.502 1.502 0 01-1.5-1.497c0-.823.675-1.497 1.5-1.497h.037c.825 0 1.499.674 1.499 1.497 0 .823-.637 1.497-1.499 1.497zm-4.871 0h-.038a1.502 1.502 0 01-1.499-1.497c0-.823.675-1.497 1.5-1.497h.037c.824 0 1.499.674 1.499 1.497 0 .823-.675 1.497-1.5 1.497zm-4.91 0h-.037a1.502 1.502 0 01-1.499-1.497c0-.823.675-1.497 1.5-1.497h.037c.824 0 1.499.674 1.499 1.497 0 .823-.675 1.497-1.5 1.497zm-4.908 0h-.038a1.502 1.502 0 01-1.499-1.497c0-.823.675-1.497 1.5-1.497h.037c.824 0 1.499.674 1.499 1.497 0 .823-.675 1.497-1.5 1.497zm-4.91 0a1.502 1.502 0 01-1.498-1.497c0-.823.637-1.497 1.499-1.497h.037c.825 0 1.5.674 1.5 1.497 0 .823-.713 1.497-1.537 1.497zm-4.908 0a1.502 1.502 0 01-1.5-1.497 1.48 1.48 0 011.5-1.497h.037c.825 0 1.5.674 1.5 1.497 0 .823-.713 1.497-1.537 1.497zm-4.91 0h-.037A1.502 1.502 0 0114.8 22.45c0-.823.675-1.497 1.5-1.497h.037c.824 0 1.499.674 1.499 1.497 0 .823-.675 1.497-1.5 1.497zm-4.908 0h-.038A1.502 1.502 0 019.89 22.45c0-.823.675-1.497 1.5-1.497h.037c.824 0 1.499.674 1.499 1.497 0 .823-.675 1.497-1.5 1.497zm-4.91 0H6.48a1.502 1.502 0 01-1.499-1.497c0-.823.675-1.497 1.5-1.497h.037c.824 0 1.499.674 1.499 1.497 0 .823-.675 1.497-1.5 1.497zm103.014 0a1.503 1.503 0 01-1.499-1.497c0-.823.675-1.497 1.499-1.497.825 0 1.499.674 1.499 1.497 0 .823-.674 1.497-1.499 1.497zM1.608 18.708A1.502 1.502 0 01.11 17.212c0-.824.675-1.497 1.5-1.497.824 0 1.498.673 1.498 1.497 0 .823-.674 1.496-1.499 1.496zm103.014 0h-.037a1.502 1.502 0 01-1.499-1.496c0-.824.674-1.497 1.499-1.497h.037c.825 0 1.499.673 1.499 1.497 0 .823-.674 1.496-1.499 1.496zm-4.909 0h-.037a1.502 1.502 0 01-1.5-1.496c0-.824.675-1.497 1.5-1.497h.037c.825 0 1.499.673 1.499 1.497 0 .823-.637 1.496-1.499 1.496zm-4.871 0h-.038a1.502 1.502 0 01-1.499-1.496c0-.824.675-1.497 1.5-1.497h.037c.824 0 1.499.673 1.499 1.497 0 .823-.675 1.496-1.5 1.496zm-4.91 0h-.037a1.502 1.502 0 01-1.498-1.496c0-.824.674-1.497 1.498-1.497h.038c.824 0 1.499.673 1.499 1.497 0 .823-.675 1.496-1.5 1.496zm-4.908 0a1.502 1.502 0 01-1.499-1.496c0-.824.637-1.497 1.499-1.497h.037c.825 0 1.5.673 1.5 1.497 0 .823-.713 1.496-1.537 1.496zm-4.91 0a1.502 1.502 0 01-1.498-1.496c0-.824.637-1.497 1.499-1.497h.037c.825 0 1.5.673 1.5 1.497 0 .823-.713 1.496-1.537 1.496zm-4.908 0h-.038a1.502 1.502 0 01-1.498-1.496c0-.824.674-1.497 1.498-1.497h.038c.824 0 1.499.673 1.499 1.497 0 .823-.675 1.496-1.5 1.496zm-4.909 0h-.037a1.502 1.502 0 01-1.5-1.496c0-.824.675-1.497 1.5-1.497h.037c.824 0 1.499.673 1.499 1.497 0 .823-.675 1.496-1.499 1.496zm-4.909 0h-.038a1.502 1.502 0 01-1.498-1.496c0-.824.674-1.497 1.498-1.497h.038c.824 0 1.499.673 1.499 1.497 0 .823-.675 1.496-1.499 1.496zm-4.909 0h-.037a1.502 1.502 0 01-1.5-1.496c0-.824.675-1.497 1.5-1.497h.037c.824 0 1.499.673 1.499 1.497 0 .823-.675 1.496-1.499 1.496zm-4.909 0a1.502 1.502 0 01-1.499-1.496c0-.824.637-1.497 1.5-1.497h.037c.824 0 1.498.673 1.498 1.497 0 .823-.712 1.496-1.536 1.496zm-4.909 0a1.502 1.502 0 01-1.499-1.496c0-.824.637-1.497 1.5-1.497h.037c.824 0 1.498.673 1.498 1.497 0 .823-.712 1.496-1.536 1.496zm-4.909 0h-.037a1.502 1.502 0 01-1.5-1.496c0-.824.675-1.497 1.5-1.497h.037c.825 0 1.499.673 1.499 1.497 0 .823-.637 1.496-1.499 1.496zm-4.871 0h-.038a1.502 1.502 0 01-1.499-1.496c0-.824.675-1.497 1.5-1.497h.037c.824 0 1.499.673 1.499 1.497 0 .823-.675 1.496-1.5 1.496zm-4.91 0h-.037a1.502 1.502 0 01-1.499-1.496c0-.824.675-1.497 1.5-1.497h.037c.824 0 1.499.673 1.499 1.497 0 .823-.675 1.496-1.5 1.496zm-4.908 0h-.038a1.502 1.502 0 01-1.499-1.496c0-.824.675-1.497 1.5-1.497h.037c.824 0 1.499.673 1.499 1.497 0 .823-.675 1.496-1.5 1.496zm-4.91 0a1.502 1.502 0 01-1.498-1.496c0-.824.637-1.497 1.499-1.497h.037c.825 0 1.5.673 1.5 1.497 0 .823-.713 1.496-1.537 1.496zm-4.908 0a1.502 1.502 0 01-1.5-1.496 1.48 1.48 0 011.5-1.497h.037c.825 0 1.5.673 1.5 1.497 0 .823-.713 1.496-1.537 1.496zm-4.91 0h-.037a1.502 1.502 0 01-1.499-1.496c0-.824.675-1.497 1.5-1.497h.037c.824 0 1.499.673 1.499 1.497 0 .823-.675 1.496-1.5 1.496zm-4.908 0h-.038a1.502 1.502 0 01-1.499-1.496c0-.824.675-1.497 1.5-1.497h.037c.824 0 1.499.673 1.499 1.497 0 .823-.675 1.496-1.5 1.496zm-4.91 0H6.48a1.502 1.502 0 01-1.499-1.496c0-.824.675-1.497 1.5-1.497h.037c.824 0 1.499.673 1.499 1.497 0 .823-.675 1.496-1.5 1.496zm103.014 0a1.503 1.503 0 01-1.499-1.496c0-.824.675-1.497 1.499-1.497.825 0 1.499.673 1.499 1.497 0 .823-.674 1.496-1.499 1.496zM1.608 13.47A1.502 1.502 0 01.11 11.973c0-.823.675-1.496 1.5-1.496.824 0 1.498.673 1.498 1.496s-.674 1.497-1.499 1.497zm103.014 0h-.037a1.502 1.502 0 01-1.499-1.497c0-.823.674-1.496 1.499-1.496h.037c.825 0 1.499.673 1.499 1.496s-.674 1.497-1.499 1.497zm-4.909 0h-.037a1.502 1.502 0 01-1.5-1.497c0-.823.675-1.496 1.5-1.496h.037c.825 0 1.499.673 1.499 1.496s-.637 1.497-1.499 1.497zm-4.871 0h-.038a1.502 1.502 0 01-1.499-1.497c0-.823.675-1.496 1.5-1.496h.037c.824 0 1.499.673 1.499 1.496s-.675 1.497-1.5 1.497zm-4.91 0h-.037a1.502 1.502 0 01-1.498-1.497c0-.823.674-1.496 1.498-1.496h.038c.824 0 1.499.673 1.499 1.496s-.675 1.497-1.5 1.497zm-4.908 0a1.502 1.502 0 01-1.499-1.497c0-.823.637-1.496 1.499-1.496h.037c.825 0 1.5.673 1.5 1.496s-.713 1.497-1.537 1.497zm-4.91 0a1.502 1.502 0 01-1.498-1.497c0-.823.637-1.496 1.499-1.496h.037c.825 0 1.5.673 1.5 1.496s-.713 1.497-1.537 1.497zm-4.908 0h-.038a1.502 1.502 0 01-1.498-1.497c0-.823.674-1.496 1.498-1.496h.038c.824 0 1.499.673 1.499 1.496s-.675 1.497-1.5 1.497zm-4.909 0h-.037a1.502 1.502 0 01-1.5-1.497c0-.823.675-1.496 1.5-1.496h.037c.824 0 1.499.673 1.499 1.496s-.675 1.497-1.499 1.497zm-4.909 0h-.038a1.502 1.502 0 01-1.498-1.497c0-.823.674-1.496 1.498-1.496h.038c.824 0 1.499.673 1.499 1.496s-.675 1.497-1.499 1.497zm-4.909 0h-.037a1.502 1.502 0 01-1.5-1.497c0-.823.675-1.496 1.5-1.496h.037c.824 0 1.499.673 1.499 1.496s-.675 1.497-1.499 1.497zm-4.909 0a1.502 1.502 0 01-1.499-1.497c0-.823.637-1.496 1.5-1.496h.037c.824 0 1.498.673 1.498 1.496s-.712 1.497-1.536 1.497zm-4.909 0a1.502 1.502 0 01-1.499-1.497c0-.823.637-1.496 1.5-1.496h.037c.824 0 1.498.673 1.498 1.496s-.712 1.497-1.536 1.497zm-4.909 0h-.037a1.502 1.502 0 01-1.5-1.497c0-.823.675-1.496 1.5-1.496h.037c.825 0 1.499.673 1.499 1.496s-.637 1.497-1.499 1.497zm-4.871 0h-.038a1.502 1.502 0 01-1.499-1.497c0-.823.675-1.496 1.5-1.496h.037c.824 0 1.499.673 1.499 1.496s-.675 1.497-1.5 1.497zm-4.91 0h-.037a1.502 1.502 0 01-1.499-1.497c0-.823.675-1.496 1.5-1.496h.037c.824 0 1.499.673 1.499 1.496s-.675 1.497-1.5 1.497zm-4.908 0h-.038a1.502 1.502 0 01-1.499-1.497c0-.823.675-1.496 1.5-1.496h.037c.824 0 1.499.673 1.499 1.496s-.675 1.497-1.5 1.497zm-4.91 0a1.502 1.502 0 01-1.498-1.497c0-.823.637-1.496 1.499-1.496h.037c.825 0 1.5.673 1.5 1.496s-.713 1.497-1.537 1.497zm-4.908 0a1.502 1.502 0 01-1.5-1.497c0-.823.638-1.496 1.5-1.496h.037c.825 0 1.5.673 1.5 1.496s-.713 1.497-1.537 1.497zm-4.91 0h-.037a1.502 1.502 0 01-1.499-1.497c0-.823.675-1.496 1.5-1.496h.037c.824 0 1.499.673 1.499 1.496s-.675 1.497-1.5 1.497zm-4.908 0h-.038a1.502 1.502 0 01-1.499-1.497c0-.823.675-1.496 1.5-1.496h.037c.824 0 1.499.673 1.499 1.496s-.675 1.497-1.5 1.497zm-4.91 0H6.48a1.502 1.502 0 01-1.499-1.497c0-.823.675-1.496 1.5-1.496h.037c.824 0 1.499.673 1.499 1.496s-.675 1.497-1.5 1.497zm103.014 0a1.503 1.503 0 01-1.499-1.497c0-.823.675-1.496 1.499-1.496.825 0 1.499.673 1.499 1.496s-.674 1.497-1.499 1.497zM1.608 8.232A1.502 1.502 0 01.11 6.735c0-.823.675-1.497 1.5-1.497.824 0 1.498.674 1.498 1.497 0 .823-.674 1.497-1.499 1.497zm103.014 0h-.037a1.502 1.502 0 01-1.499-1.497c0-.823.674-1.497 1.499-1.497h.037c.825 0 1.499.674 1.499 1.497 0 .823-.674 1.497-1.499 1.497zm-4.909 0h-.037a1.502 1.502 0 01-1.5-1.497c0-.823.675-1.497 1.5-1.497h.037c.825 0 1.499.674 1.499 1.497 0 .823-.637 1.497-1.499 1.497zm-4.871 0h-.038a1.502 1.502 0 01-1.499-1.497c0-.823.675-1.497 1.5-1.497h.037c.824 0 1.499.674 1.499 1.497 0 .823-.675 1.497-1.5 1.497zm-4.91 0h-.037a1.502 1.502 0 01-1.498-1.497c0-.823.674-1.497 1.498-1.497h.038c.824 0 1.499.674 1.499 1.497 0 .823-.675 1.497-1.5 1.497zm-4.908 0a1.502 1.502 0 01-1.499-1.497c0-.823.637-1.497 1.499-1.497h.037c.825 0 1.5.674 1.5 1.497 0 .823-.713 1.497-1.537 1.497zm-4.91 0a1.502 1.502 0 01-1.498-1.497c0-.823.637-1.497 1.499-1.497h.037c.825 0 1.5.674 1.5 1.497 0 .823-.713 1.497-1.537 1.497zm-4.908 0h-.038a1.502 1.502 0 01-1.498-1.497c0-.823.674-1.497 1.498-1.497h.038c.824 0 1.499.674 1.499 1.497 0 .823-.675 1.497-1.5 1.497zm-4.909 0h-.037a1.502 1.502 0 01-1.5-1.497c0-.823.675-1.497 1.5-1.497h.037c.824 0 1.499.674 1.499 1.497 0 .823-.675 1.497-1.499 1.497zm-4.909 0h-.038a1.502 1.502 0 01-1.498-1.497c0-.823.674-1.497 1.498-1.497h.038c.824 0 1.499.674 1.499 1.497 0 .823-.675 1.497-1.499 1.497zm-4.909 0h-.037a1.502 1.502 0 01-1.5-1.497c0-.823.675-1.497 1.5-1.497h.037c.824 0 1.499.674 1.499 1.497 0 .823-.675 1.497-1.499 1.497zm-4.909 0a1.502 1.502 0 01-1.499-1.497 1.48 1.48 0 011.5-1.497h.037c.824 0 1.498.674 1.498 1.497 0 .823-.712 1.497-1.536 1.497zm-4.909 0a1.502 1.502 0 01-1.499-1.497 1.48 1.48 0 011.5-1.497h.037c.824 0 1.498.674 1.498 1.497 0 .823-.712 1.497-1.536 1.497zm-4.909 0h-.037a1.502 1.502 0 01-1.5-1.497c0-.823.675-1.497 1.5-1.497h.037c.825 0 1.499.674 1.499 1.497 0 .823-.637 1.497-1.499 1.497zm-4.871 0h-.038a1.502 1.502 0 01-1.499-1.497c0-.823.675-1.497 1.5-1.497h.037c.824 0 1.499.674 1.499 1.497 0 .823-.675 1.497-1.5 1.497zm-4.91 0h-.037a1.502 1.502 0 01-1.499-1.497c0-.823.675-1.497 1.5-1.497h.037c.824 0 1.499.674 1.499 1.497 0 .823-.675 1.497-1.5 1.497zm-4.908 0h-.038a1.502 1.502 0 01-1.499-1.497c0-.823.675-1.497 1.5-1.497h.037c.824 0 1.499.674 1.499 1.497 0 .823-.675 1.497-1.5 1.497zm-4.91 0a1.502 1.502 0 01-1.498-1.497c0-.823.637-1.497 1.499-1.497h.037c.825 0 1.5.674 1.5 1.497 0 .823-.713 1.497-1.537 1.497zm-4.908 0a1.502 1.502 0 01-1.5-1.497 1.48 1.48 0 011.5-1.497h.037c.825 0 1.5.674 1.5 1.497 0 .823-.713 1.497-1.537 1.497zm-4.91 0h-.037A1.502 1.502 0 0114.8 6.735c0-.823.675-1.497 1.5-1.497h.037c.824 0 1.499.674 1.499 1.497 0 .823-.675 1.497-1.5 1.497zm-4.908 0h-.038A1.502 1.502 0 019.89 6.735c0-.823.675-1.497 1.5-1.497h.037c.824 0 1.499.674 1.499 1.497 0 .823-.675 1.497-1.5 1.497zm-4.91 0H6.48a1.502 1.502 0 01-1.499-1.497c0-.823.675-1.497 1.5-1.497h.037c.824 0 1.499.674 1.499 1.497 0 .823-.675 1.497-1.5 1.497zm103.014 0a1.503 1.503 0 01-1.499-1.497c0-.823.675-1.497 1.499-1.497.825 0 1.499.674 1.499 1.497 0 .823-.674 1.497-1.499 1.497zM1.608 2.993A1.502 1.502 0 01.11 1.497C.11.674.784 0 1.61 0c.824 0 1.498.674 1.498 1.497 0 .823-.674 1.496-1.499 1.496zm103.014 0h-.037a1.502 1.502 0 01-1.499-1.496c0-.823.674-1.497 1.499-1.497h.037c.825 0 1.499.674 1.499 1.497 0 .823-.674 1.496-1.499 1.496zm-4.909 0h-.037a1.502 1.502 0 01-1.5-1.496c0-.823.675-1.497 1.5-1.497h.037c.825 0 1.499.674 1.499 1.497 0 .823-.637 1.496-1.499 1.496zm-4.871 0h-.038a1.502 1.502 0 01-1.499-1.496c0-.823.675-1.497 1.5-1.497h.037c.824 0 1.499.674 1.499 1.497 0 .823-.675 1.496-1.5 1.496zm-4.91 0h-.037a1.502 1.502 0 01-1.498-1.496C88.397.674 89.07 0 89.895 0h.038c.824 0 1.499.674 1.499 1.497 0 .823-.675 1.496-1.5 1.496zm-4.908 0a1.502 1.502 0 01-1.499-1.496c0-.823.637-1.497 1.499-1.497h.037c.825 0 1.5.674 1.5 1.497 0 .823-.713 1.496-1.537 1.496zm-4.91 0a1.502 1.502 0 01-1.498-1.496c0-.823.637-1.497 1.499-1.497h.037c.825 0 1.5.674 1.5 1.497 0 .823-.713 1.496-1.537 1.496zm-4.908 0h-.038a1.502 1.502 0 01-1.498-1.496C73.67.674 74.344 0 75.168 0h.038c.824 0 1.499.674 1.499 1.497 0 .823-.675 1.496-1.5 1.496zm-4.909 0h-.037a1.502 1.502 0 01-1.5-1.496c0-.823.675-1.497 1.5-1.497h.037c.824 0 1.499.674 1.499 1.497 0 .823-.675 1.496-1.499 1.496zm-4.909 0h-.038a1.502 1.502 0 01-1.498-1.496C63.852.674 64.526 0 65.35 0h.038c.824 0 1.499.674 1.499 1.497 0 .823-.675 1.496-1.499 1.496zm-4.909 0h-.037a1.502 1.502 0 01-1.5-1.496c0-.823.675-1.497 1.5-1.497h.037c.824 0 1.499.674 1.499 1.497 0 .823-.675 1.496-1.499 1.496zm-4.909 0a1.502 1.502 0 01-1.499-1.496A1.48 1.48 0 0155.571 0h.037c.824 0 1.498.674 1.498 1.497 0 .823-.712 1.496-1.536 1.496zm-4.909 0a1.502 1.502 0 01-1.499-1.496A1.48 1.48 0 0150.662 0h.037c.824 0 1.498.674 1.498 1.497 0 .823-.712 1.496-1.536 1.496zm-4.909 0h-.037a1.502 1.502 0 01-1.5-1.496c0-.823.675-1.497 1.5-1.497h.037c.825 0 1.499.674 1.499 1.497 0 .823-.637 1.496-1.499 1.496zm-4.871 0h-.038a1.502 1.502 0 01-1.499-1.496c0-.823.675-1.497 1.5-1.497h.037c.824 0 1.499.674 1.499 1.497 0 .823-.675 1.496-1.5 1.496zm-4.91 0h-.037a1.502 1.502 0 01-1.499-1.496c0-.823.675-1.497 1.5-1.497h.037c.824 0 1.499.674 1.499 1.497 0 .823-.675 1.496-1.5 1.496zm-4.908 0h-.038a1.502 1.502 0 01-1.499-1.496c0-.823.675-1.497 1.5-1.497h.037c.824 0 1.499.674 1.499 1.497 0 .823-.675 1.496-1.5 1.496zm-4.91 0a1.502 1.502 0 01-1.498-1.496c0-.823.637-1.497 1.499-1.497h.037c.825 0 1.5.674 1.5 1.497 0 .823-.713 1.496-1.537 1.496zm-4.908 0a1.502 1.502 0 01-1.5-1.496A1.48 1.48 0 0121.245 0h.037c.825 0 1.5.674 1.5 1.497 0 .823-.713 1.496-1.537 1.496zm-4.91 0h-.037A1.502 1.502 0 0114.8 1.497C14.8.674 15.474 0 16.3 0h.037c.824 0 1.499.674 1.499 1.497 0 .823-.675 1.496-1.5 1.496zm-4.908 0h-.038A1.502 1.502 0 019.89 1.497C9.89.674 10.565 0 11.39 0h.037c.824 0 1.499.674 1.499 1.497 0 .823-.675 1.496-1.5 1.496zm-4.91 0H6.48a1.502 1.502 0 01-1.499-1.496C4.981.674 5.656 0 6.481 0h.037c.824 0 1.499.674 1.499 1.497 0 .823-.675 1.496-1.5 1.496zm103.014 0a1.503 1.503 0 01-1.499-1.496c0-.823.675-1.497 1.499-1.497.825 0 1.499.674 1.499 1.497 0 .823-.674 1.496-1.499 1.496z" fill="#DDD0F2"/></svg>