<svg width="83" height="84" fill="none" xmlns="http://www.w3.org/2000/svg"><path d="M1.114 83.999C.501 83.999 0 83.498 0 82.886s.501-1.113 1.114-1.113c.613 0 1.114.501 1.114 1.113s-.5 1.113-1.114 1.113zm76.576 0h-.027c-.613 0-1.114-.501-1.114-1.113s.501-1.113 1.114-1.113h.028c.613 0 1.114.501 1.114 1.113s-.501 1.113-1.114 1.113zm-3.648 0h-.028c-.613 0-1.114-.501-1.114-1.113s.5-1.113 1.114-1.113h.028c.612 0 1.114.501 1.114 1.113a1.1 1.1 0 01-1.114 1.113zm-3.622 0h-.028c-.612 0-1.114-.501-1.114-1.113s.502-1.113 1.114-1.113h.028c.613 0 1.114.501 1.114 1.113s-.5 1.113-1.114 1.113zm-3.649 0h-.028c-.613 0-1.114-.501-1.114-1.113s.501-1.113 1.114-1.113h.028c.613 0 1.114.501 1.114 1.113s-.501 1.113-1.114 1.113zm-3.649 0a1.117 1.117 0 01-1.114-1.113 1.1 1.1 0 011.114-1.113h.028c.613 0 1.114.501 1.114 1.113s-.53 1.113-1.142 1.113zm-3.65 0a1.116 1.116 0 01-1.113-1.113 1.1 1.1 0 011.114-1.113h.028c.613 0 1.114.501 1.114 1.113s-.53 1.113-1.142 1.113zm-3.648 0h-.028c-.613 0-1.114-.501-1.114-1.113s.5-1.113 1.114-1.113h.028c.613 0 1.114.501 1.114 1.113s-.502 1.113-1.114 1.113zm-3.65 0h-.027c-.613 0-1.115-.501-1.115-1.113s.502-1.113 1.115-1.113h.028c.612 0 1.114.501 1.114 1.113s-.502 1.113-1.114 1.113zm-3.649 0h-.027c-.613 0-1.115-.501-1.115-1.113s.502-1.113 1.114-1.113h.028c.613 0 1.115.501 1.115 1.113s-.502 1.113-1.115 1.113zm-3.649 0h-.028c-.612 0-1.114-.501-1.114-1.113s.502-1.113 1.114-1.113h.028c.613 0 1.114.501 1.114 1.113s-.501 1.113-1.114 1.113zm-3.649 0a1.117 1.117 0 01-1.114-1.113 1.1 1.1 0 011.114-1.113h.028c.613 0 1.114.501 1.114 1.113s-.53 1.113-1.142 1.113zm-3.65 0a1.116 1.116 0 01-1.113-1.113 1.1 1.1 0 011.114-1.113h.028c.612 0 1.114.501 1.114 1.113s-.53 1.113-1.142 1.113zm-3.648 0H33.9c-.613 0-1.115-.501-1.115-1.113s.502-1.113 1.115-1.113h.028c.612 0 1.114.501 1.114 1.113a1.1 1.1 0 01-1.114 1.113zm-3.622 0h-.027c-.613 0-1.115-.501-1.115-1.113s.502-1.113 1.114-1.113h.028c.613 0 1.115.501 1.115 1.113s-.502 1.113-1.115 1.113zm-3.649 0h-.028c-.613 0-1.114-.501-1.114-1.113s.502-1.113 1.114-1.113h.028c.613 0 1.114.501 1.114 1.113s-.501 1.113-1.114 1.113zm-3.649 0h-.028c-.613 0-1.114-.501-1.114-1.113s.501-1.113 1.114-1.113h.028c.613 0 1.114.501 1.114 1.113s-.501 1.113-1.114 1.113zm-3.65 0a1.116 1.116 0 01-1.113-1.113 1.1 1.1 0 011.114-1.113h.028c.612 0 1.114.501 1.114 1.113s-.53 1.113-1.142 1.113zm-3.648 0a1.118 1.118 0 01-1.115-1.113 1.1 1.1 0 011.115-1.113h.027c.613 0 1.115.501 1.115 1.113s-.53 1.113-1.142 1.113zm-3.65 0h-.027c-.613 0-1.115-.501-1.115-1.113s.502-1.113 1.115-1.113h.027c.613 0 1.115.501 1.115 1.113s-.502 1.113-1.114 1.113zm-3.649 0h-.027c-.613 0-1.115-.501-1.115-1.113s.502-1.113 1.115-1.113h.027c.613 0 1.115.501 1.115 1.113s-.502 1.113-1.115 1.113zm-3.649 0h-.028c-.612 0-1.114-.501-1.114-1.113s.502-1.113 1.114-1.113h.028c.613 0 1.114.501 1.114 1.113s-.501 1.113-1.114 1.113zm76.572 0c-.613 0-1.114-.501-1.114-1.113s.501-1.113 1.114-1.113c.613 0 1.114.501 1.114 1.113s-.501 1.113-1.114 1.113zM1.114 80.106c-.613 0-1.114-.5-1.114-1.113 0-.611.501-1.112 1.114-1.112.613 0 1.114.5 1.114 1.112 0 .612-.5 1.113-1.114 1.113zm76.576 0h-.027c-.613 0-1.114-.5-1.114-1.113 0-.611.501-1.112 1.114-1.112h.028c.613 0 1.114.5 1.114 1.112 0 .612-.501 1.113-1.114 1.113zm-3.648 0h-.028c-.613 0-1.114-.5-1.114-1.113 0-.611.5-1.112 1.114-1.112h.028c.612 0 1.114.5 1.114 1.112a1.1 1.1 0 01-1.114 1.113zm-3.622 0h-.028c-.612 0-1.114-.5-1.114-1.113 0-.611.502-1.112 1.114-1.112h.028c.613 0 1.114.5 1.114 1.112 0 .612-.5 1.113-1.114 1.113zm-3.649 0h-.028c-.613 0-1.114-.5-1.114-1.113 0-.611.501-1.112 1.114-1.112h.028c.613 0 1.114.5 1.114 1.112 0 .612-.501 1.113-1.114 1.113zm-3.649 0c-.613 0-1.114-.5-1.114-1.113a1.1 1.1 0 011.114-1.112h.028c.613 0 1.114.5 1.114 1.112 0 .612-.53 1.113-1.142 1.113zm-3.65 0c-.612 0-1.113-.5-1.113-1.113 0-.611.473-1.112 1.114-1.112h.028c.613 0 1.114.5 1.114 1.112 0 .612-.53 1.113-1.142 1.113zm-3.648 0h-.028c-.613 0-1.114-.5-1.114-1.113 0-.611.5-1.112 1.114-1.112h.028c.613 0 1.114.5 1.114 1.112 0 .612-.502 1.113-1.114 1.113zm-3.65 0h-.027c-.613 0-1.115-.5-1.115-1.113 0-.611.502-1.112 1.115-1.112h.028c.612 0 1.114.5 1.114 1.112 0 .612-.502 1.113-1.114 1.113zm-3.649 0h-.027c-.613 0-1.115-.5-1.115-1.113 0-.611.502-1.112 1.114-1.112h.028c.613 0 1.115.5 1.115 1.112 0 .612-.502 1.113-1.115 1.113zm-3.649 0h-.028c-.612 0-1.114-.5-1.114-1.113 0-.611.502-1.112 1.114-1.112h.028c.613 0 1.114.5 1.114 1.112 0 .612-.501 1.113-1.114 1.113zm-3.649 0c-.613 0-1.114-.5-1.114-1.113a1.1 1.1 0 011.114-1.112h.028c.613 0 1.114.5 1.114 1.112 0 .612-.53 1.113-1.142 1.113zm-3.65 0c-.612 0-1.113-.5-1.113-1.113 0-.611.473-1.112 1.114-1.112h.028c.612 0 1.114.5 1.114 1.112 0 .612-.53 1.113-1.142 1.113zm-3.648 0H33.9c-.613 0-1.115-.5-1.115-1.113 0-.611.502-1.112 1.115-1.112h.028c.612 0 1.114.5 1.114 1.112a1.1 1.1 0 01-1.114 1.113zm-3.622 0h-.027c-.613 0-1.115-.5-1.115-1.113 0-.611.502-1.112 1.114-1.112h.028c.613 0 1.115.5 1.115 1.112 0 .612-.502 1.113-1.115 1.113zm-3.649 0h-.028c-.613 0-1.114-.5-1.114-1.113 0-.611.502-1.112 1.114-1.112h.028c.613 0 1.114.5 1.114 1.112 0 .612-.501 1.113-1.114 1.113zm-3.649 0h-.028c-.613 0-1.114-.5-1.114-1.113 0-.611.501-1.112 1.114-1.112h.028c.613 0 1.114.5 1.114 1.112 0 .612-.501 1.113-1.114 1.113zm-3.65 0c-.612 0-1.113-.5-1.113-1.113a1.1 1.1 0 011.114-1.112h.028c.612 0 1.114.5 1.114 1.112 0 .612-.53 1.113-1.142 1.113zm-3.648 0c-.613 0-1.115-.5-1.115-1.113a1.1 1.1 0 011.115-1.112h.027c.613 0 1.115.5 1.115 1.112 0 .612-.53 1.113-1.142 1.113zm-3.65 0h-.027c-.613 0-1.115-.5-1.115-1.113 0-.611.502-1.112 1.115-1.112h.027c.613 0 1.115.5 1.115 1.112 0 .612-.502 1.113-1.114 1.113zm-3.649 0h-.027c-.613 0-1.115-.5-1.115-1.113 0-.611.502-1.112 1.115-1.112h.027c.613 0 1.115.5 1.115 1.112 0 .612-.502 1.113-1.115 1.113zm-3.649 0h-.028c-.612 0-1.114-.5-1.114-1.113 0-.611.502-1.112 1.114-1.112h.028c.613 0 1.114.5 1.114 1.112 0 .612-.501 1.113-1.114 1.113zm76.572 0c-.613 0-1.114-.5-1.114-1.113 0-.611.501-1.112 1.114-1.112.613 0 1.114.5 1.114 1.112 0 .612-.501 1.113-1.114 1.113zM1.114 76.212C.501 76.212 0 75.71 0 75.099s.501-1.113 1.114-1.113c.613 0 1.114.501 1.114 1.113s-.5 1.112-1.114 1.112zm76.576 0h-.027c-.613 0-1.114-.501-1.114-1.113s.501-1.113 1.114-1.113h.028c.613 0 1.114.501 1.114 1.113s-.501 1.112-1.114 1.112zm-3.648 0h-.028c-.613 0-1.114-.501-1.114-1.113s.5-1.113 1.114-1.113h.028c.612 0 1.114.501 1.114 1.113a1.1 1.1 0 01-1.114 1.112zm-3.622 0h-.028c-.612 0-1.114-.501-1.114-1.113s.502-1.113 1.114-1.113h.028c.613 0 1.114.501 1.114 1.113s-.5 1.112-1.114 1.112zm-3.649 0h-.028c-.613 0-1.114-.501-1.114-1.113s.501-1.113 1.114-1.113h.028c.613 0 1.114.501 1.114 1.113s-.501 1.112-1.114 1.112zm-3.649 0a1.117 1.117 0 01-1.114-1.113 1.1 1.1 0 011.114-1.113h.028c.613 0 1.114.501 1.114 1.113s-.53 1.112-1.142 1.112zm-3.65 0a1.116 1.116 0 01-1.113-1.113 1.1 1.1 0 011.114-1.113h.028c.613 0 1.114.501 1.114 1.113s-.53 1.112-1.142 1.112zm-3.648 0h-.028c-.613 0-1.114-.501-1.114-1.113s.5-1.113 1.114-1.113h.028c.613 0 1.114.501 1.114 1.113s-.502 1.112-1.114 1.112zm-3.65 0h-.027c-.613 0-1.115-.501-1.115-1.113s.502-1.113 1.115-1.113h.028c.612 0 1.114.501 1.114 1.113s-.502 1.112-1.114 1.112zm-3.649 0h-.027c-.613 0-1.115-.501-1.115-1.113s.502-1.113 1.114-1.113h.028c.613 0 1.115.501 1.115 1.113s-.502 1.112-1.115 1.112zm-3.649 0h-.028c-.612 0-1.114-.501-1.114-1.113s.502-1.113 1.114-1.113h.028c.613 0 1.114.501 1.114 1.113s-.501 1.112-1.114 1.112zm-3.649 0a1.117 1.117 0 01-1.114-1.113 1.1 1.1 0 011.114-1.113h.028c.613 0 1.114.501 1.114 1.113s-.53 1.112-1.142 1.112zm-3.65 0a1.116 1.116 0 01-1.113-1.113 1.1 1.1 0 011.114-1.113h.028c.612 0 1.114.501 1.114 1.113s-.53 1.112-1.142 1.112zm-3.648 0H33.9c-.613 0-1.115-.501-1.115-1.113s.502-1.113 1.115-1.113h.028c.612 0 1.114.501 1.114 1.113a1.1 1.1 0 01-1.114 1.112zm-3.622 0h-.027c-.613 0-1.115-.501-1.115-1.113s.502-1.113 1.114-1.113h.028c.613 0 1.115.501 1.115 1.113s-.502 1.112-1.115 1.112zm-3.649 0h-.028c-.613 0-1.114-.501-1.114-1.113s.502-1.113 1.114-1.113h.028c.613 0 1.114.501 1.114 1.113s-.501 1.112-1.114 1.112zm-3.649 0h-.028c-.613 0-1.114-.501-1.114-1.113s.501-1.113 1.114-1.113h.028c.613 0 1.114.501 1.114 1.113s-.501 1.112-1.114 1.112zm-3.65 0a1.116 1.116 0 01-1.113-1.113 1.1 1.1 0 011.114-1.113h.028c.612 0 1.114.501 1.114 1.113s-.53 1.112-1.142 1.112zm-3.648 0a1.118 1.118 0 01-1.115-1.113 1.1 1.1 0 011.115-1.113h.027c.613 0 1.115.501 1.115 1.113s-.53 1.112-1.142 1.112zm-3.65 0h-.027c-.613 0-1.115-.501-1.115-1.113s.502-1.113 1.115-1.113h.027c.613 0 1.115.501 1.115 1.113s-.502 1.112-1.114 1.112zm-3.649 0h-.027c-.613 0-1.115-.501-1.115-1.113s.502-1.113 1.115-1.113h.027c.613 0 1.115.501 1.115 1.113s-.502 1.112-1.115 1.112zm-3.649 0h-.028c-.612 0-1.114-.501-1.114-1.113s.502-1.113 1.114-1.113h.028c.613 0 1.114.501 1.114 1.113s-.501 1.112-1.114 1.112zm76.572 0c-.613 0-1.114-.501-1.114-1.113s.501-1.113 1.114-1.113c.613 0 1.114.501 1.114 1.113s-.501 1.112-1.114 1.112zM1.114 72.318c-.613 0-1.114-.5-1.114-1.113 0-.612.501-1.112 1.114-1.112.613 0 1.114.5 1.114 1.112 0 .612-.5 1.113-1.114 1.113zm76.576 0h-.027c-.613 0-1.114-.5-1.114-1.113 0-.612.501-1.112 1.114-1.112h.028c.613 0 1.114.5 1.114 1.112 0 .612-.501 1.113-1.114 1.113zm-3.648 0h-.028c-.613 0-1.114-.5-1.114-1.113 0-.612.5-1.112 1.114-1.112h.028c.612 0 1.114.5 1.114 1.112a1.1 1.1 0 01-1.114 1.113zm-3.622 0h-.028c-.612 0-1.114-.5-1.114-1.113 0-.612.502-1.112 1.114-1.112h.028c.613 0 1.114.5 1.114 1.112 0 .612-.5 1.113-1.114 1.113zm-3.649 0h-.028c-.613 0-1.114-.5-1.114-1.113 0-.612.501-1.112 1.114-1.112h.028c.613 0 1.114.5 1.114 1.112 0 .612-.501 1.113-1.114 1.113zm-3.649 0c-.613 0-1.114-.5-1.114-1.113a1.1 1.1 0 011.114-1.112h.028c.613 0 1.114.5 1.114 1.112 0 .612-.53 1.113-1.142 1.113zm-3.65 0c-.612 0-1.113-.5-1.113-1.113 0-.612.473-1.112 1.114-1.112h.028c.613 0 1.114.5 1.114 1.112 0 .612-.53 1.113-1.142 1.113zm-3.648 0h-.028c-.613 0-1.114-.5-1.114-1.113 0-.612.5-1.112 1.114-1.112h.028c.613 0 1.114.5 1.114 1.112 0 .612-.502 1.113-1.114 1.113zm-3.65 0h-.027c-.613 0-1.115-.5-1.115-1.113 0-.612.502-1.112 1.115-1.112h.028c.612 0 1.114.5 1.114 1.112 0 .612-.502 1.113-1.114 1.113zm-3.649 0h-.027c-.613 0-1.115-.5-1.115-1.113 0-.612.502-1.112 1.114-1.112h.028c.613 0 1.115.5 1.115 1.112 0 .612-.502 1.113-1.115 1.113zm-3.649 0h-.028c-.612 0-1.114-.5-1.114-1.113 0-.612.502-1.112 1.114-1.112h.028c.613 0 1.114.5 1.114 1.112 0 .612-.501 1.113-1.114 1.113zm-3.649 0c-.613 0-1.114-.5-1.114-1.113a1.1 1.1 0 011.114-1.112h.028c.613 0 1.114.5 1.114 1.112 0 .612-.53 1.113-1.142 1.113zm-3.65 0c-.612 0-1.113-.5-1.113-1.113 0-.612.473-1.112 1.114-1.112h.028c.612 0 1.114.5 1.114 1.112 0 .612-.53 1.113-1.142 1.113zm-3.648 0H33.9c-.613 0-1.115-.5-1.115-1.113 0-.612.502-1.112 1.115-1.112h.028c.612 0 1.114.5 1.114 1.112a1.1 1.1 0 01-1.114 1.113zm-3.622 0h-.027c-.613 0-1.115-.5-1.115-1.113 0-.612.502-1.112 1.114-1.112h.028c.613 0 1.115.5 1.115 1.112 0 .612-.502 1.113-1.115 1.113zm-3.649 0h-.028c-.613 0-1.114-.5-1.114-1.113 0-.612.502-1.112 1.114-1.112h.028c.613 0 1.114.5 1.114 1.112 0 .612-.501 1.113-1.114 1.113zm-3.649 0h-.028c-.613 0-1.114-.5-1.114-1.113 0-.612.501-1.112 1.114-1.112h.028c.613 0 1.114.5 1.114 1.112 0 .612-.501 1.113-1.114 1.113zm-3.65 0c-.612 0-1.113-.5-1.113-1.113a1.1 1.1 0 011.114-1.112h.028c.612 0 1.114.5 1.114 1.112 0 .612-.53 1.113-1.142 1.113zm-3.648 0c-.613 0-1.115-.5-1.115-1.113a1.1 1.1 0 011.115-1.112h.027c.613 0 1.115.5 1.115 1.112 0 .612-.53 1.113-1.142 1.113zm-3.65 0h-.027c-.613 0-1.115-.5-1.115-1.113 0-.612.502-1.112 1.115-1.112h.027c.613 0 1.115.5 1.115 1.112 0 .612-.502 1.113-1.114 1.113zm-3.649 0h-.027c-.613 0-1.115-.5-1.115-1.113 0-.612.502-1.112 1.115-1.112h.027c.613 0 1.115.5 1.115 1.112 0 .612-.502 1.113-1.115 1.113zm-3.649 0h-.028c-.612 0-1.114-.5-1.114-1.113 0-.612.502-1.112 1.114-1.112h.028c.613 0 1.114.5 1.114 1.112 0 .612-.501 1.113-1.114 1.113zm76.572 0c-.613 0-1.114-.5-1.114-1.113 0-.612.501-1.112 1.114-1.112.613 0 1.114.5 1.114 1.112 0 .612-.501 1.113-1.114 1.113zM1.114 68.424c-.613 0-1.114-.5-1.114-1.112 0-.612.501-1.113 1.114-1.113.613 0 1.114.5 1.114 1.113 0 .612-.5 1.112-1.114 1.112zm76.576 0h-.027c-.613 0-1.114-.5-1.114-1.112 0-.612.501-1.113 1.114-1.113h.028c.613 0 1.114.5 1.114 1.113 0 .612-.501 1.112-1.114 1.112zm-3.648 0h-.028c-.613 0-1.114-.5-1.114-1.112 0-.612.5-1.113 1.114-1.113h.028c.612 0 1.114.5 1.114 1.113a1.1 1.1 0 01-1.114 1.112zm-3.622 0h-.028c-.612 0-1.114-.5-1.114-1.112 0-.612.502-1.113 1.114-1.113h.028c.613 0 1.114.5 1.114 1.113 0 .612-.5 1.112-1.114 1.112zm-3.649 0h-.028c-.613 0-1.114-.5-1.114-1.112 0-.612.501-1.113 1.114-1.113h.028c.613 0 1.114.5 1.114 1.113 0 .612-.501 1.112-1.114 1.112zm-3.649 0c-.613 0-1.114-.5-1.114-1.112a1.1 1.1 0 011.114-1.113h.028c.613 0 1.114.5 1.114 1.113 0 .612-.53 1.112-1.142 1.112zm-3.65 0c-.612 0-1.113-.5-1.113-1.112a1.1 1.1 0 011.114-1.113h.028c.613 0 1.114.5 1.114 1.113 0 .612-.53 1.112-1.142 1.112zm-3.648 0h-.028c-.613 0-1.114-.5-1.114-1.112 0-.612.5-1.113 1.114-1.113h.028c.613 0 1.114.5 1.114 1.113 0 .612-.502 1.112-1.114 1.112zm-3.65 0h-.027c-.613 0-1.115-.5-1.115-1.112 0-.612.502-1.113 1.115-1.113h.028c.612 0 1.114.5 1.114 1.113 0 .612-.502 1.112-1.114 1.112zm-3.649 0h-.027c-.613 0-1.115-.5-1.115-1.112 0-.612.502-1.113 1.114-1.113h.028c.613 0 1.115.5 1.115 1.113 0 .612-.502 1.112-1.115 1.112zm-3.649 0h-.028c-.612 0-1.114-.5-1.114-1.112 0-.612.502-1.113 1.114-1.113h.028c.613 0 1.114.5 1.114 1.113 0 .612-.501 1.112-1.114 1.112zm-3.649 0c-.613 0-1.114-.5-1.114-1.112a1.1 1.1 0 011.114-1.113h.028c.613 0 1.114.5 1.114 1.113 0 .612-.53 1.112-1.142 1.112zm-3.65 0c-.612 0-1.113-.5-1.113-1.112a1.1 1.1 0 011.114-1.113h.028c.612 0 1.114.5 1.114 1.113 0 .612-.53 1.112-1.142 1.112zm-3.648 0H33.9c-.613 0-1.115-.5-1.115-1.112 0-.612.502-1.113 1.115-1.113h.028c.612 0 1.114.5 1.114 1.113a1.1 1.1 0 01-1.114 1.112zm-3.622 0h-.027c-.613 0-1.115-.5-1.115-1.112 0-.612.502-1.113 1.114-1.113h.028c.613 0 1.115.5 1.115 1.113 0 .612-.502 1.112-1.115 1.112zm-3.649 0h-.028c-.613 0-1.114-.5-1.114-1.112 0-.612.502-1.113 1.114-1.113h.028c.613 0 1.114.5 1.114 1.113 0 .612-.501 1.112-1.114 1.112zm-3.649 0h-.028c-.613 0-1.114-.5-1.114-1.112 0-.612.501-1.113 1.114-1.113h.028c.613 0 1.114.5 1.114 1.113 0 .612-.501 1.112-1.114 1.112zm-3.65 0c-.612 0-1.113-.5-1.113-1.112a1.1 1.1 0 011.114-1.113h.028c.612 0 1.114.5 1.114 1.113 0 .612-.53 1.112-1.142 1.112zm-3.648 0c-.613 0-1.115-.5-1.115-1.112a1.1 1.1 0 011.115-1.113h.027c.613 0 1.115.5 1.115 1.113 0 .612-.53 1.112-1.142 1.112zm-3.65 0h-.027c-.613 0-1.115-.5-1.115-1.112 0-.612.502-1.113 1.115-1.113h.027c.613 0 1.115.5 1.115 1.113 0 .612-.502 1.112-1.114 1.112zm-3.649 0h-.027c-.613 0-1.115-.5-1.115-1.112 0-.612.502-1.113 1.115-1.113h.027c.613 0 1.115.5 1.115 1.113 0 .612-.502 1.112-1.115 1.112zm-3.649 0h-.028c-.612 0-1.114-.5-1.114-1.112 0-.612.502-1.113 1.114-1.113h.028c.613 0 1.114.5 1.114 1.113 0 .612-.501 1.112-1.114 1.112zm76.572 0c-.613 0-1.114-.5-1.114-1.112 0-.612.501-1.113 1.114-1.113.613 0 1.114.5 1.114 1.113 0 .612-.501 1.112-1.114 1.112zM1.114 64.53C.501 64.53 0 64.03 0 63.417c0-.612.501-1.112 1.114-1.112.613 0 1.114.5 1.114 1.112 0 .612-.5 1.113-1.114 1.113zm76.576 0h-.027c-.613 0-1.114-.5-1.114-1.113 0-.612.501-1.112 1.114-1.112h.028c.613 0 1.114.5 1.114 1.112 0 .612-.501 1.113-1.114 1.113zm-3.648 0h-.028c-.613 0-1.114-.5-1.114-1.113 0-.612.5-1.112 1.114-1.112h.028c.612 0 1.114.5 1.114 1.112a1.1 1.1 0 01-1.114 1.113zm-3.622 0h-.028c-.612 0-1.114-.5-1.114-1.113 0-.612.502-1.112 1.114-1.112h.028c.613 0 1.114.5 1.114 1.112 0 .612-.5 1.113-1.114 1.113zm-3.649 0h-.028c-.613 0-1.114-.5-1.114-1.113 0-.612.501-1.112 1.114-1.112h.028c.613 0 1.114.5 1.114 1.112 0 .612-.501 1.113-1.114 1.113zm-3.649 0c-.613 0-1.114-.5-1.114-1.113a1.1 1.1 0 011.114-1.112h.028c.613 0 1.114.5 1.114 1.112 0 .612-.53 1.113-1.142 1.113zm-3.65 0c-.612 0-1.113-.5-1.113-1.113a1.1 1.1 0 011.114-1.112h.028c.613 0 1.114.5 1.114 1.112 0 .612-.53 1.113-1.142 1.113zm-3.648 0h-.028c-.613 0-1.114-.5-1.114-1.113 0-.612.5-1.112 1.114-1.112h.028c.613 0 1.114.5 1.114 1.112 0 .612-.502 1.113-1.114 1.113zm-3.65 0h-.027c-.613 0-1.115-.5-1.115-1.113 0-.612.502-1.112 1.115-1.112h.028c.612 0 1.114.5 1.114 1.112 0 .612-.502 1.113-1.114 1.113zm-3.649 0h-.027c-.613 0-1.115-.5-1.115-1.113 0-.612.502-1.112 1.114-1.112h.028c.613 0 1.115.5 1.115 1.112 0 .612-.502 1.113-1.115 1.113zm-3.649 0h-.028c-.612 0-1.114-.5-1.114-1.113 0-.612.502-1.112 1.114-1.112h.028c.613 0 1.114.5 1.114 1.112 0 .612-.501 1.113-1.114 1.113zm-3.649 0c-.613 0-1.114-.5-1.114-1.113a1.1 1.1 0 011.114-1.112h.028c.613 0 1.114.5 1.114 1.112 0 .612-.53 1.113-1.142 1.113zm-3.65 0c-.612 0-1.113-.5-1.113-1.113a1.1 1.1 0 011.114-1.112h.028c.612 0 1.114.5 1.114 1.112 0 .612-.53 1.113-1.142 1.113zm-3.648 0H33.9c-.613 0-1.115-.5-1.115-1.113 0-.612.502-1.112 1.115-1.112h.028c.612 0 1.114.5 1.114 1.112a1.1 1.1 0 01-1.114 1.113zm-3.622 0h-.027c-.613 0-1.115-.5-1.115-1.113 0-.612.502-1.112 1.114-1.112h.028c.613 0 1.115.5 1.115 1.112 0 .612-.502 1.113-1.115 1.113zm-3.649 0h-.028c-.613 0-1.114-.5-1.114-1.113 0-.612.502-1.112 1.114-1.112h.028c.613 0 1.114.5 1.114 1.112 0 .612-.501 1.113-1.114 1.113zm-3.649 0h-.028c-.613 0-1.114-.5-1.114-1.113 0-.612.501-1.112 1.114-1.112h.028c.613 0 1.114.5 1.114 1.112 0 .612-.501 1.113-1.114 1.113zm-3.65 0c-.612 0-1.113-.5-1.113-1.113a1.1 1.1 0 011.114-1.112h.028c.612 0 1.114.5 1.114 1.112 0 .612-.53 1.113-1.142 1.113zm-3.648 0c-.613 0-1.115-.5-1.115-1.113a1.1 1.1 0 011.115-1.112h.027c.613 0 1.115.5 1.115 1.112 0 .612-.53 1.113-1.142 1.113zm-3.65 0h-.027c-.613 0-1.115-.5-1.115-1.113 0-.612.502-1.112 1.115-1.112h.027c.613 0 1.115.5 1.115 1.112 0 .612-.502 1.113-1.114 1.113zm-3.649 0h-.027c-.613 0-1.115-.5-1.115-1.113 0-.612.502-1.112 1.115-1.112h.027c.613 0 1.115.5 1.115 1.112 0 .612-.502 1.113-1.115 1.113zm-3.649 0h-.028c-.612 0-1.114-.5-1.114-1.113 0-.612.502-1.112 1.114-1.112h.028c.613 0 1.114.5 1.114 1.112 0 .612-.501 1.113-1.114 1.113zm76.572 0c-.613 0-1.114-.5-1.114-1.113 0-.612.501-1.112 1.114-1.112.613 0 1.114.5 1.114 1.112 0 .612-.501 1.113-1.114 1.113zM1.114 60.635c-.613 0-1.114-.5-1.114-1.112 0-.612.501-1.113 1.114-1.113.613 0 1.114.5 1.114 1.113 0 .612-.5 1.112-1.114 1.112zm76.576 0h-.027c-.613 0-1.114-.5-1.114-1.112 0-.612.501-1.113 1.114-1.113h.028c.613 0 1.114.5 1.114 1.113 0 .612-.501 1.112-1.114 1.112zm-3.648 0h-.028c-.613 0-1.114-.5-1.114-1.112 0-.612.5-1.113 1.114-1.113h.028c.612 0 1.114.5 1.114 1.113 0 .612-.474 1.112-1.114 1.112zm-3.622 0h-.028c-.612 0-1.114-.5-1.114-1.112 0-.612.502-1.113 1.114-1.113h.028c.613 0 1.114.5 1.114 1.113 0 .612-.5 1.112-1.114 1.112zm-3.649 0h-.028c-.613 0-1.114-.5-1.114-1.112 0-.612.501-1.113 1.114-1.113h.028c.613 0 1.114.5 1.114 1.113 0 .612-.501 1.112-1.114 1.112zm-3.649 0c-.613 0-1.114-.5-1.114-1.112a1.1 1.1 0 011.114-1.113h.028c.613 0 1.114.5 1.114 1.113 0 .612-.53 1.112-1.142 1.112zm-3.65 0c-.612 0-1.113-.5-1.113-1.112 0-.612.473-1.113 1.114-1.113h.028c.613 0 1.114.5 1.114 1.113 0 .612-.53 1.112-1.142 1.112zm-3.648 0h-.028c-.613 0-1.114-.5-1.114-1.112 0-.612.5-1.113 1.114-1.113h.028c.613 0 1.114.5 1.114 1.113 0 .612-.502 1.112-1.114 1.112zm-3.65 0h-.027c-.613 0-1.115-.5-1.115-1.112 0-.612.502-1.113 1.115-1.113h.028c.612 0 1.114.5 1.114 1.113 0 .612-.502 1.112-1.114 1.112zm-3.649 0h-.027c-.613 0-1.115-.5-1.115-1.112 0-.612.502-1.113 1.114-1.113h.028c.613 0 1.115.5 1.115 1.113 0 .612-.502 1.112-1.115 1.112zm-3.649 0h-.028c-.612 0-1.114-.5-1.114-1.112 0-.612.502-1.113 1.114-1.113h.028c.613 0 1.114.5 1.114 1.113 0 .612-.501 1.112-1.114 1.112zm-3.649 0c-.613 0-1.114-.5-1.114-1.112a1.1 1.1 0 011.114-1.113h.028c.613 0 1.114.5 1.114 1.113 0 .612-.53 1.112-1.142 1.112zm-3.65 0c-.612 0-1.113-.5-1.113-1.112 0-.612.473-1.113 1.114-1.113h.028c.612 0 1.114.5 1.114 1.113 0 .612-.53 1.112-1.142 1.112zm-3.648 0H33.9c-.613 0-1.115-.5-1.115-1.112 0-.612.502-1.113 1.115-1.113h.028c.612 0 1.114.5 1.114 1.113a1.1 1.1 0 01-1.114 1.112zm-3.622 0h-.027c-.613 0-1.115-.5-1.115-1.112 0-.612.502-1.113 1.114-1.113h.028c.613 0 1.115.5 1.115 1.113 0 .612-.502 1.112-1.115 1.112zm-3.649 0h-.028c-.613 0-1.114-.5-1.114-1.112 0-.612.502-1.113 1.114-1.113h.028c.613 0 1.114.5 1.114 1.113 0 .612-.501 1.112-1.114 1.112zm-3.649 0h-.028c-.613 0-1.114-.5-1.114-1.112 0-.612.501-1.113 1.114-1.113h.028c.613 0 1.114.5 1.114 1.113 0 .612-.501 1.112-1.114 1.112zm-3.65 0c-.612 0-1.113-.5-1.113-1.112a1.1 1.1 0 011.114-1.113h.028c.612 0 1.114.5 1.114 1.113 0 .612-.53 1.112-1.142 1.112zm-3.648 0c-.613 0-1.115-.5-1.115-1.112a1.1 1.1 0 011.115-1.113h.027c.613 0 1.115.5 1.115 1.113 0 .612-.53 1.112-1.142 1.112zm-3.65 0h-.027c-.613 0-1.115-.5-1.115-1.112 0-.612.502-1.113 1.115-1.113h.027c.613 0 1.115.5 1.115 1.113 0 .612-.502 1.112-1.114 1.112zm-3.649 0h-.027c-.613 0-1.115-.5-1.115-1.112 0-.612.502-1.113 1.115-1.113h.027c.613 0 1.115.5 1.115 1.113 0 .612-.502 1.112-1.115 1.112zm-3.649 0h-.028c-.612 0-1.114-.5-1.114-1.112 0-.612.502-1.113 1.114-1.113h.028c.613 0 1.114.5 1.114 1.113 0 .612-.501 1.112-1.114 1.112zm76.572 0c-.613 0-1.114-.5-1.114-1.112 0-.612.501-1.113 1.114-1.113.613 0 1.114.5 1.114 1.113 0 .612-.501 1.112-1.114 1.112zM1.114 56.743c-.613 0-1.114-.5-1.114-1.113 0-.612.501-1.112 1.114-1.112.613 0 1.114.5 1.114 1.112 0 .612-.5 1.113-1.114 1.113zm76.576-.001h-.027c-.613 0-1.114-.5-1.114-1.113 0-.612.501-1.112 1.114-1.112h.028c.613 0 1.114.5 1.114 1.112 0 .612-.501 1.113-1.114 1.113zm-3.648 0h-.028c-.613 0-1.114-.5-1.114-1.113 0-.612.5-1.112 1.114-1.112h.028c.612 0 1.114.5 1.114 1.112a1.1 1.1 0 01-1.114 1.113zm-3.622 0h-.028c-.612 0-1.114-.5-1.114-1.113 0-.612.502-1.112 1.114-1.112h.028c.613 0 1.114.5 1.114 1.112 0 .612-.5 1.113-1.114 1.113zm-3.649 0h-.028c-.613 0-1.114-.5-1.114-1.113 0-.612.501-1.112 1.114-1.112h.028c.613 0 1.114.5 1.114 1.112 0 .612-.501 1.113-1.114 1.113zm-3.649 0c-.613 0-1.114-.5-1.114-1.113a1.1 1.1 0 011.114-1.112h.028c.613 0 1.114.5 1.114 1.112 0 .612-.53 1.113-1.142 1.113zm-3.65 0c-.612 0-1.113-.5-1.113-1.113a1.1 1.1 0 011.114-1.112h.028c.613 0 1.114.5 1.114 1.112 0 .612-.53 1.113-1.142 1.113zm-3.648 0h-.028c-.613 0-1.114-.5-1.114-1.113 0-.612.5-1.112 1.114-1.112h.028c.613 0 1.114.5 1.114 1.112 0 .612-.502 1.113-1.114 1.113zm-3.65 0h-.027c-.613 0-1.115-.5-1.115-1.113 0-.612.502-1.112 1.115-1.112h.028c.612 0 1.114.5 1.114 1.112 0 .612-.502 1.113-1.114 1.113zm-3.649 0h-.027c-.613 0-1.115-.5-1.115-1.113 0-.612.502-1.112 1.114-1.112h.028c.613 0 1.115.5 1.115 1.112 0 .612-.502 1.113-1.115 1.113zm-3.649 0h-.028c-.612 0-1.114-.5-1.114-1.113 0-.612.502-1.112 1.114-1.112h.028c.613 0 1.114.5 1.114 1.112 0 .612-.501 1.113-1.114 1.113zm-3.649 0c-.613 0-1.114-.5-1.114-1.113a1.1 1.1 0 011.114-1.112h.028c.613 0 1.114.5 1.114 1.112 0 .612-.53 1.113-1.142 1.113zm-3.65 0c-.612 0-1.113-.5-1.113-1.113a1.1 1.1 0 011.114-1.112h.028c.612 0 1.114.5 1.114 1.112 0 .612-.53 1.113-1.142 1.113zm-3.648 0H33.9c-.613 0-1.115-.5-1.115-1.113 0-.612.502-1.112 1.115-1.112h.028c.612 0 1.114.5 1.114 1.112a1.1 1.1 0 01-1.114 1.113zm-3.622 0h-.027c-.613 0-1.115-.5-1.115-1.113 0-.612.502-1.112 1.114-1.112h.028c.613 0 1.115.5 1.115 1.112 0 .612-.502 1.113-1.115 1.113zm-3.649 0h-.028c-.613 0-1.114-.5-1.114-1.113 0-.612.502-1.112 1.114-1.112h.028c.613 0 1.114.5 1.114 1.112 0 .612-.501 1.113-1.114 1.113zm-3.649 0h-.028c-.613 0-1.114-.5-1.114-1.113 0-.612.501-1.112 1.114-1.112h.028c.613 0 1.114.5 1.114 1.112 0 .612-.501 1.113-1.114 1.113zm-3.65 0c-.612 0-1.113-.5-1.113-1.113a1.1 1.1 0 011.114-1.112h.028c.612 0 1.114.5 1.114 1.112 0 .612-.53 1.113-1.142 1.113zm-3.648 0c-.613 0-1.115-.5-1.115-1.113a1.1 1.1 0 011.115-1.112h.027c.613 0 1.115.5 1.115 1.112 0 .612-.53 1.113-1.142 1.113zm-3.65 0h-.027c-.613 0-1.115-.5-1.115-1.113 0-.612.502-1.112 1.115-1.112h.027c.613 0 1.115.5 1.115 1.112 0 .612-.502 1.113-1.114 1.113zm-3.649 0h-.027c-.613 0-1.115-.5-1.115-1.113 0-.612.502-1.112 1.115-1.112h.027c.613 0 1.115.5 1.115 1.112 0 .612-.502 1.113-1.115 1.113zm-3.649 0h-.028c-.612 0-1.114-.5-1.114-1.113 0-.612.502-1.112 1.114-1.112h.028c.613 0 1.114.5 1.114 1.112 0 .612-.501 1.113-1.114 1.113zm76.572 0c-.613 0-1.114-.5-1.114-1.113 0-.612.501-1.112 1.114-1.112.613 0 1.114.5 1.114 1.112 0 .612-.501 1.113-1.114 1.113zM1.114 52.848c-.613 0-1.114-.5-1.114-1.112 0-.612.501-1.113 1.114-1.113.613 0 1.114.5 1.114 1.113 0 .612-.5 1.112-1.114 1.112zm76.576-.001h-.027c-.613 0-1.114-.5-1.114-1.112 0-.612.501-1.113 1.114-1.113h.028c.613 0 1.114.5 1.114 1.113 0 .612-.501 1.112-1.114 1.112zm-3.648 0h-.028c-.613 0-1.114-.5-1.114-1.112 0-.612.5-1.113 1.114-1.113h.028c.612 0 1.114.5 1.114 1.113a1.1 1.1 0 01-1.114 1.112zm-3.622 0h-.028c-.612 0-1.114-.5-1.114-1.112 0-.612.502-1.113 1.114-1.113h.028c.613 0 1.114.5 1.114 1.113 0 .612-.5 1.112-1.114 1.112zm-3.649 0h-.028c-.613 0-1.114-.5-1.114-1.112 0-.612.501-1.113 1.114-1.113h.028c.613 0 1.114.5 1.114 1.113 0 .612-.501 1.112-1.114 1.112zm-3.649 0c-.613 0-1.114-.5-1.114-1.112a1.1 1.1 0 011.114-1.113h.028c.613 0 1.114.5 1.114 1.113 0 .612-.53 1.112-1.142 1.112zm-3.65 0c-.612 0-1.113-.5-1.113-1.112 0-.612.473-1.113 1.114-1.113h.028c.613 0 1.114.5 1.114 1.113 0 .612-.53 1.112-1.142 1.112zm-3.648 0h-.028c-.613 0-1.114-.5-1.114-1.112 0-.612.5-1.113 1.114-1.113h.028c.613 0 1.114.5 1.114 1.113 0 .612-.502 1.112-1.114 1.112zm-3.65 0h-.027c-.613 0-1.115-.5-1.115-1.112 0-.612.502-1.113 1.115-1.113h.028c.612 0 1.114.5 1.114 1.113 0 .612-.502 1.112-1.114 1.112zm-3.649 0h-.027c-.613 0-1.115-.5-1.115-1.112 0-.612.502-1.113 1.114-1.113h.028c.613 0 1.115.5 1.115 1.113 0 .612-.502 1.112-1.115 1.112zm-3.649 0h-.028c-.612 0-1.114-.5-1.114-1.112 0-.612.502-1.113 1.114-1.113h.028c.613 0 1.114.5 1.114 1.113 0 .612-.501 1.112-1.114 1.112zm-3.649 0c-.613 0-1.114-.5-1.114-1.112a1.1 1.1 0 011.114-1.113h.028c.613 0 1.114.5 1.114 1.113 0 .612-.53 1.112-1.142 1.112zm-3.65 0c-.612 0-1.113-.5-1.113-1.112 0-.612.473-1.113 1.114-1.113h.028c.612 0 1.114.5 1.114 1.113 0 .612-.53 1.112-1.142 1.112zm-3.648 0H33.9c-.613 0-1.115-.5-1.115-1.112 0-.612.502-1.113 1.115-1.113h.028c.612 0 1.114.5 1.114 1.113a1.1 1.1 0 01-1.114 1.112zm-3.622 0h-.027c-.613 0-1.115-.5-1.115-1.112 0-.612.502-1.113 1.114-1.113h.028c.613 0 1.115.5 1.115 1.113 0 .612-.502 1.112-1.115 1.112zm-3.649 0h-.028c-.613 0-1.114-.5-1.114-1.112 0-.612.502-1.113 1.114-1.113h.028c.613 0 1.114.5 1.114 1.113 0 .612-.501 1.112-1.114 1.112zm-3.649 0h-.028c-.613 0-1.114-.5-1.114-1.112 0-.612.501-1.113 1.114-1.113h.028c.613 0 1.114.5 1.114 1.113 0 .612-.501 1.112-1.114 1.112zm-3.65 0c-.612 0-1.113-.5-1.113-1.112a1.1 1.1 0 011.114-1.113h.028c.612 0 1.114.5 1.114 1.113 0 .612-.53 1.112-1.142 1.112zm-3.648 0c-.613 0-1.115-.5-1.115-1.112a1.1 1.1 0 011.115-1.113h.027c.613 0 1.115.5 1.115 1.113 0 .612-.53 1.112-1.142 1.112zm-3.65 0h-.027c-.613 0-1.115-.5-1.115-1.112 0-.612.502-1.113 1.115-1.113h.027c.613 0 1.115.5 1.115 1.113 0 .612-.502 1.112-1.114 1.112zm-3.649 0h-.027c-.613 0-1.115-.5-1.115-1.112 0-.612.502-1.113 1.115-1.113h.027c.613 0 1.115.5 1.115 1.113 0 .612-.502 1.112-1.115 1.112zm-3.649 0h-.028c-.612 0-1.114-.5-1.114-1.112 0-.612.502-1.113 1.114-1.113h.028c.613 0 1.114.5 1.114 1.113 0 .612-.501 1.112-1.114 1.112zm76.572 0c-.613 0-1.114-.5-1.114-1.112 0-.612.501-1.113 1.114-1.113.613 0 1.114.5 1.114 1.113 0 .612-.501 1.112-1.114 1.112zM1.114 48.955C.501 48.955 0 48.454 0 47.842s.501-1.112 1.114-1.112c.613 0 1.114.5 1.114 1.112 0 .612-.5 1.113-1.114 1.113zm76.576-.001h-.027c-.613 0-1.114-.501-1.114-1.113s.501-1.113 1.114-1.113h.028c.613 0 1.114.501 1.114 1.113s-.501 1.113-1.114 1.113zm-3.648 0h-.028c-.613 0-1.114-.501-1.114-1.113s.5-1.113 1.114-1.113h.028c.612 0 1.114.501 1.114 1.113a1.1 1.1 0 01-1.114 1.113zm-3.622 0h-.028c-.612 0-1.114-.501-1.114-1.113s.502-1.113 1.114-1.113h.028c.613 0 1.114.501 1.114 1.113s-.5 1.113-1.114 1.113zm-3.649 0h-.028c-.613 0-1.114-.501-1.114-1.113s.501-1.113 1.114-1.113h.028c.613 0 1.114.501 1.114 1.113s-.501 1.113-1.114 1.113zm-3.649 0a1.117 1.117 0 01-1.114-1.113 1.1 1.1 0 011.114-1.113h.028c.613 0 1.114.501 1.114 1.113s-.53 1.113-1.142 1.113zm-3.65 0a1.116 1.116 0 01-1.113-1.113 1.1 1.1 0 011.114-1.113h.028c.613 0 1.114.501 1.114 1.113s-.53 1.113-1.142 1.113zm-3.648 0h-.028c-.613 0-1.114-.501-1.114-1.113s.5-1.113 1.114-1.113h.028c.613 0 1.114.501 1.114 1.113s-.502 1.113-1.114 1.113zm-3.65 0h-.027c-.613 0-1.115-.501-1.115-1.113s.502-1.113 1.115-1.113h.028c.612 0 1.114.501 1.114 1.113s-.502 1.113-1.114 1.113zm-3.649 0h-.027c-.613 0-1.115-.501-1.115-1.113s.502-1.113 1.114-1.113h.028c.613 0 1.115.501 1.115 1.113s-.502 1.113-1.115 1.113zm-3.649 0h-.028c-.612 0-1.114-.501-1.114-1.113s.502-1.113 1.114-1.113h.028c.613 0 1.114.501 1.114 1.113s-.501 1.113-1.114 1.113zm-3.649 0a1.117 1.117 0 01-1.114-1.113 1.1 1.1 0 011.114-1.113h.028c.613 0 1.114.501 1.114 1.113s-.53 1.113-1.142 1.113zm-3.65 0a1.116 1.116 0 01-1.113-1.113 1.1 1.1 0 011.114-1.113h.028c.612 0 1.114.501 1.114 1.113s-.53 1.113-1.142 1.113zm-3.648 0H33.9c-.613 0-1.115-.501-1.115-1.113s.502-1.113 1.115-1.113h.028c.612 0 1.114.501 1.114 1.113a1.1 1.1 0 01-1.114 1.113zm-3.622 0h-.027c-.613 0-1.115-.501-1.115-1.113s.502-1.113 1.114-1.113h.028c.613 0 1.115.501 1.115 1.113s-.502 1.113-1.115 1.113zm-3.649 0h-.028c-.613 0-1.114-.501-1.114-1.113s.502-1.113 1.114-1.113h.028c.613 0 1.114.501 1.114 1.113s-.501 1.113-1.114 1.113zm-3.649 0h-.028c-.613 0-1.114-.501-1.114-1.113s.501-1.113 1.114-1.113h.028c.613 0 1.114.501 1.114 1.113s-.501 1.113-1.114 1.113zm-3.65 0a1.116 1.116 0 01-1.113-1.113 1.1 1.1 0 011.114-1.113h.028c.612 0 1.114.501 1.114 1.113s-.53 1.113-1.142 1.113zm-3.648 0a1.118 1.118 0 01-1.115-1.113 1.1 1.1 0 011.115-1.113h.027c.613 0 1.115.501 1.115 1.113s-.53 1.113-1.142 1.113zm-3.65 0h-.027c-.613 0-1.115-.501-1.115-1.113s.502-1.113 1.115-1.113h.027c.613 0 1.115.501 1.115 1.113s-.502 1.113-1.114 1.113zm-3.649 0h-.027c-.613 0-1.115-.501-1.115-1.113s.502-1.113 1.115-1.113h.027c.613 0 1.115.501 1.115 1.113s-.502 1.113-1.115 1.113zm-3.649 0h-.028c-.612 0-1.114-.501-1.114-1.113s.502-1.113 1.114-1.113h.028c.613 0 1.114.501 1.114 1.113s-.501 1.113-1.114 1.113zm76.572 0c-.613 0-1.114-.501-1.114-1.113s.501-1.113 1.114-1.113c.613 0 1.114.501 1.114 1.113s-.501 1.113-1.114 1.113zM1.114 45.06A1.118 1.118 0 010 43.946c0-.612.501-1.113 1.114-1.113.613 0 1.114.5 1.114 1.113 0 .611-.5 1.112-1.114 1.112zm76.576 0h-.027a1.117 1.117 0 01-1.114-1.113c0-.612.501-1.113 1.114-1.113h.028c.613 0 1.114.5 1.114 1.113 0 .611-.501 1.112-1.114 1.112zm-3.648 0h-.028a1.117 1.117 0 01-1.114-1.113c0-.612.5-1.113 1.114-1.113h.028c.612 0 1.114.5 1.114 1.113a1.1 1.1 0 01-1.114 1.112zm-3.622 0h-.028a1.118 1.118 0 01-1.114-1.113c0-.612.502-1.113 1.114-1.113h.028c.613 0 1.114.5 1.114 1.113 0 .611-.5 1.112-1.114 1.112zm-3.649 0h-.028a1.117 1.117 0 01-1.114-1.113c0-.612.501-1.113 1.114-1.113h.028c.613 0 1.114.5 1.114 1.113 0 .611-.501 1.112-1.114 1.112zm-3.649 0a1.117 1.117 0 01-1.114-1.113 1.1 1.1 0 011.114-1.113h.028c.613 0 1.114.5 1.114 1.113 0 .611-.53 1.112-1.142 1.112zm-3.65 0a1.117 1.117 0 01-1.113-1.113c0-.612.473-1.113 1.114-1.113h.028c.613 0 1.114.5 1.114 1.113 0 .611-.53 1.112-1.142 1.112zm-3.648 0h-.028a1.117 1.117 0 01-1.114-1.113c0-.612.5-1.113 1.114-1.113h.028c.613 0 1.114.5 1.114 1.113 0 .611-.502 1.112-1.114 1.112zm-3.65 0h-.027a1.118 1.118 0 01-1.115-1.113c0-.612.502-1.113 1.115-1.113h.028c.612 0 1.114.5 1.114 1.113 0 .611-.502 1.112-1.114 1.112zm-3.649 0h-.027a1.118 1.118 0 01-1.115-1.113c0-.612.502-1.113 1.114-1.113h.028c.613 0 1.115.5 1.115 1.113 0 .611-.502 1.112-1.115 1.112zm-3.649 0h-.028a1.118 1.118 0 01-1.114-1.113c0-.612.502-1.113 1.114-1.113h.028c.613 0 1.114.5 1.114 1.113 0 .611-.501 1.112-1.114 1.112zm-3.649 0a1.117 1.117 0 01-1.114-1.113 1.1 1.1 0 011.114-1.113h.028c.613 0 1.114.5 1.114 1.113 0 .611-.53 1.112-1.142 1.112zm-3.65 0a1.117 1.117 0 01-1.113-1.113c0-.612.473-1.113 1.114-1.113h.028c.612 0 1.114.5 1.114 1.113 0 .611-.53 1.112-1.142 1.112zm-3.648 0H33.9a1.118 1.118 0 01-1.115-1.113c0-.612.502-1.113 1.115-1.113h.028c.612 0 1.114.5 1.114 1.113a1.1 1.1 0 01-1.114 1.112zm-3.622 0h-.027a1.118 1.118 0 01-1.115-1.113c0-.612.502-1.113 1.114-1.113h.028c.613 0 1.115.5 1.115 1.113 0 .611-.502 1.112-1.115 1.112zm-3.649 0h-.028a1.117 1.117 0 01-1.114-1.113c0-.612.502-1.113 1.114-1.113h.028c.613 0 1.114.5 1.114 1.113 0 .611-.501 1.112-1.114 1.112zm-3.649 0h-.028a1.117 1.117 0 01-1.114-1.113c0-.612.501-1.113 1.114-1.113h.028c.613 0 1.114.5 1.114 1.113 0 .611-.501 1.112-1.114 1.112zm-3.65 0a1.117 1.117 0 01-1.113-1.113 1.1 1.1 0 011.114-1.113h.028c.612 0 1.114.5 1.114 1.113 0 .611-.53 1.112-1.142 1.112zm-3.648 0a1.118 1.118 0 01-1.115-1.113 1.1 1.1 0 011.115-1.113h.027c.613 0 1.115.5 1.115 1.113 0 .611-.53 1.112-1.142 1.112zm-3.65 0h-.027a1.118 1.118 0 01-1.115-1.113c0-.612.502-1.113 1.115-1.113h.027c.613 0 1.115.5 1.115 1.113 0 .611-.502 1.112-1.114 1.112zm-3.649 0h-.027a1.118 1.118 0 01-1.115-1.113c0-.612.502-1.113 1.115-1.113h.027c.613 0 1.115.5 1.115 1.113 0 .611-.502 1.112-1.115 1.112zm-3.649 0h-.028a1.118 1.118 0 01-1.114-1.113c0-.612.502-1.113 1.114-1.113h.028c.613 0 1.114.5 1.114 1.113 0 .611-.501 1.112-1.114 1.112zm76.572 0a1.117 1.117 0 01-1.114-1.113c0-.612.501-1.113 1.114-1.113.613 0 1.114.5 1.114 1.113 0 .611-.501 1.112-1.114 1.112zM1.114 41.166C.501 41.166 0 40.665 0 40.053s.501-1.113 1.114-1.113c.613 0 1.114.501 1.114 1.113s-.5 1.113-1.114 1.113zm76.576 0h-.027c-.613 0-1.114-.501-1.114-1.113s.501-1.113 1.114-1.113h.028c.613 0 1.114.501 1.114 1.113s-.501 1.113-1.114 1.113zm-3.648 0h-.028c-.613 0-1.114-.501-1.114-1.113s.5-1.113 1.114-1.113h.028c.612 0 1.114.501 1.114 1.113a1.1 1.1 0 01-1.114 1.113zm-3.622 0h-.028c-.612 0-1.114-.501-1.114-1.113s.502-1.113 1.114-1.113h.028c.613 0 1.114.501 1.114 1.113s-.5 1.113-1.114 1.113zm-3.649 0h-.028c-.613 0-1.114-.501-1.114-1.113s.501-1.113 1.114-1.113h.028c.613 0 1.114.501 1.114 1.113s-.501 1.113-1.114 1.113zm-3.649 0a1.117 1.117 0 01-1.114-1.113 1.1 1.1 0 011.114-1.113h.028c.613 0 1.114.501 1.114 1.113s-.53 1.113-1.142 1.113zm-3.65 0a1.116 1.116 0 01-1.113-1.113 1.1 1.1 0 011.114-1.113h.028c.613 0 1.114.501 1.114 1.113s-.53 1.113-1.142 1.113zm-3.648 0h-.028c-.613 0-1.114-.501-1.114-1.113s.5-1.113 1.114-1.113h.028c.613 0 1.114.501 1.114 1.113s-.502 1.113-1.114 1.113zm-3.65 0h-.027c-.613 0-1.115-.501-1.115-1.113s.502-1.113 1.115-1.113h.028c.612 0 1.114.501 1.114 1.113s-.502 1.113-1.114 1.113zm-3.649 0h-.027c-.613 0-1.115-.501-1.115-1.113s.502-1.113 1.114-1.113h.028c.613 0 1.115.501 1.115 1.113s-.502 1.113-1.115 1.113zm-3.649 0h-.028c-.612 0-1.114-.501-1.114-1.113s.502-1.113 1.114-1.113h.028c.613 0 1.114.501 1.114 1.113s-.501 1.113-1.114 1.113zm-3.649 0a1.117 1.117 0 01-1.114-1.113 1.1 1.1 0 011.114-1.113h.028c.613 0 1.114.501 1.114 1.113s-.53 1.113-1.142 1.113zm-3.65 0a1.116 1.116 0 01-1.113-1.113 1.1 1.1 0 011.114-1.113h.028c.612 0 1.114.501 1.114 1.113s-.53 1.113-1.142 1.113zm-3.648 0H33.9c-.613 0-1.115-.501-1.115-1.113s.502-1.113 1.115-1.113h.028c.612 0 1.114.501 1.114 1.113a1.1 1.1 0 01-1.114 1.113zm-3.622 0h-.027c-.613 0-1.115-.501-1.115-1.113s.502-1.113 1.114-1.113h.028c.613 0 1.115.501 1.115 1.113s-.502 1.113-1.115 1.113zm-3.649 0h-.028c-.613 0-1.114-.501-1.114-1.113s.502-1.113 1.114-1.113h.028c.613 0 1.114.501 1.114 1.113s-.501 1.113-1.114 1.113zm-3.649 0h-.028c-.613 0-1.114-.501-1.114-1.113s.501-1.113 1.114-1.113h.028c.613 0 1.114.501 1.114 1.113s-.501 1.113-1.114 1.113zm-3.65 0a1.116 1.116 0 01-1.113-1.113 1.1 1.1 0 011.114-1.113h.028c.612 0 1.114.501 1.114 1.113s-.53 1.113-1.142 1.113zm-3.648 0a1.118 1.118 0 01-1.115-1.113 1.1 1.1 0 011.115-1.113h.027c.613 0 1.115.501 1.115 1.113s-.53 1.113-1.142 1.113zm-3.65 0h-.027c-.613 0-1.115-.501-1.115-1.113s.502-1.113 1.115-1.113h.027c.613 0 1.115.501 1.115 1.113s-.502 1.113-1.114 1.113zm-3.649 0h-.027c-.613 0-1.115-.501-1.115-1.113s.502-1.113 1.115-1.113h.027c.613 0 1.115.501 1.115 1.113s-.502 1.113-1.115 1.113zm-3.649 0h-.028c-.612 0-1.114-.501-1.114-1.113s.502-1.113 1.114-1.113h.028c.613 0 1.114.501 1.114 1.113s-.501 1.113-1.114 1.113zm76.572 0c-.613 0-1.114-.501-1.114-1.113s.501-1.113 1.114-1.113c.613 0 1.114.501 1.114 1.113s-.501 1.113-1.114 1.113zM1.114 37.272c-.613 0-1.114-.5-1.114-1.112 0-.612.501-1.113 1.114-1.113.613 0 1.114.5 1.114 1.113 0 .611-.5 1.112-1.114 1.112zm76.576 0h-.027c-.613 0-1.114-.5-1.114-1.112 0-.612.501-1.113 1.114-1.113h.028c.613 0 1.114.5 1.114 1.113 0 .611-.501 1.112-1.114 1.112zm-3.648 0h-.028c-.613 0-1.114-.5-1.114-1.112 0-.612.5-1.113 1.114-1.113h.028c.612 0 1.114.5 1.114 1.113a1.1 1.1 0 01-1.114 1.112zm-3.622 0h-.028c-.612 0-1.114-.5-1.114-1.112 0-.612.502-1.113 1.114-1.113h.028c.613 0 1.114.5 1.114 1.113 0 .611-.5 1.112-1.114 1.112zm-3.649 0h-.028c-.613 0-1.114-.5-1.114-1.112 0-.612.501-1.113 1.114-1.113h.028c.613 0 1.114.5 1.114 1.113 0 .611-.501 1.112-1.114 1.112zm-3.649 0c-.613 0-1.114-.5-1.114-1.112a1.1 1.1 0 011.114-1.113h.028c.613 0 1.114.5 1.114 1.113 0 .611-.53 1.112-1.142 1.112zm-3.65 0c-.612 0-1.113-.5-1.113-1.112 0-.612.473-1.113 1.114-1.113h.028c.613 0 1.114.5 1.114 1.113 0 .611-.53 1.112-1.142 1.112zm-3.648 0h-.028c-.613 0-1.114-.5-1.114-1.112 0-.612.5-1.113 1.114-1.113h.028c.613 0 1.114.5 1.114 1.113 0 .611-.502 1.112-1.114 1.112zm-3.65 0h-.027c-.613 0-1.115-.5-1.115-1.112 0-.612.502-1.113 1.115-1.113h.028c.612 0 1.114.5 1.114 1.113 0 .611-.502 1.112-1.114 1.112zm-3.649 0h-.027c-.613 0-1.115-.5-1.115-1.112 0-.612.502-1.113 1.114-1.113h.028c.613 0 1.115.5 1.115 1.113 0 .611-.502 1.112-1.115 1.112zm-3.649 0h-.028c-.612 0-1.114-.5-1.114-1.112 0-.612.502-1.113 1.114-1.113h.028c.613 0 1.114.5 1.114 1.113 0 .611-.501 1.112-1.114 1.112zm-3.649 0c-.613 0-1.114-.5-1.114-1.112a1.1 1.1 0 011.114-1.113h.028c.613 0 1.114.5 1.114 1.113 0 .611-.53 1.112-1.142 1.112zm-3.65 0c-.612 0-1.113-.5-1.113-1.112 0-.612.473-1.113 1.114-1.113h.028c.612 0 1.114.5 1.114 1.113 0 .611-.53 1.112-1.142 1.112zm-3.648 0H33.9c-.613 0-1.115-.5-1.115-1.112 0-.612.502-1.113 1.115-1.113h.028c.612 0 1.114.5 1.114 1.113a1.1 1.1 0 01-1.114 1.112zm-3.622 0h-.027c-.613 0-1.115-.5-1.115-1.112 0-.612.502-1.113 1.114-1.113h.028c.613 0 1.115.5 1.115 1.113 0 .611-.502 1.112-1.115 1.112zm-3.649 0h-.028c-.613 0-1.114-.5-1.114-1.112 0-.612.502-1.113 1.114-1.113h.028c.613 0 1.114.5 1.114 1.113 0 .611-.501 1.112-1.114 1.112zm-3.649 0h-.028c-.613 0-1.114-.5-1.114-1.112 0-.612.501-1.113 1.114-1.113h.028c.613 0 1.114.5 1.114 1.113 0 .611-.501 1.112-1.114 1.112zm-3.65 0c-.612 0-1.113-.5-1.113-1.112a1.1 1.1 0 011.114-1.113h.028c.612 0 1.114.5 1.114 1.113 0 .611-.53 1.112-1.142 1.112zm-3.648 0c-.613 0-1.115-.5-1.115-1.112a1.1 1.1 0 011.115-1.113h.027c.613 0 1.115.5 1.115 1.113 0 .611-.53 1.112-1.142 1.112zm-3.65 0h-.027c-.613 0-1.115-.5-1.115-1.112 0-.612.502-1.113 1.115-1.113h.027c.613 0 1.115.5 1.115 1.113 0 .611-.502 1.112-1.114 1.112zm-3.649 0h-.027c-.613 0-1.115-.5-1.115-1.112 0-.612.502-1.113 1.115-1.113h.027c.613 0 1.115.5 1.115 1.113 0 .611-.502 1.112-1.115 1.112zm-3.649 0h-.028c-.612 0-1.114-.5-1.114-1.112 0-.612.502-1.113 1.114-1.113h.028c.613 0 1.114.5 1.114 1.113 0 .611-.501 1.112-1.114 1.112zm76.572 0c-.613 0-1.114-.5-1.114-1.112 0-.612.501-1.113 1.114-1.113.613 0 1.114.5 1.114 1.113 0 .611-.501 1.112-1.114 1.112zM1.114 33.377c-.613 0-1.114-.5-1.114-1.112 0-.612.501-1.113 1.114-1.113.613 0 1.114.501 1.114 1.113s-.5 1.112-1.114 1.112zm76.576 0h-.027c-.613 0-1.114-.5-1.114-1.112 0-.612.501-1.113 1.114-1.113h.028c.613 0 1.114.501 1.114 1.113s-.501 1.112-1.114 1.112zm-3.648 0h-.028c-.613 0-1.114-.5-1.114-1.112 0-.612.5-1.113 1.114-1.113h.028c.612 0 1.114.501 1.114 1.113s-.474 1.112-1.114 1.112zm-3.622 0h-.028c-.612 0-1.114-.5-1.114-1.112 0-.612.502-1.113 1.114-1.113h.028c.613 0 1.114.501 1.114 1.113s-.5 1.112-1.114 1.112zm-3.649 0h-.028c-.613 0-1.114-.5-1.114-1.112 0-.612.501-1.113 1.114-1.113h.028c.613 0 1.114.501 1.114 1.113s-.501 1.112-1.114 1.112zm-3.649 0c-.613 0-1.114-.5-1.114-1.112a1.1 1.1 0 011.114-1.113h.028c.613 0 1.114.501 1.114 1.113s-.53 1.112-1.142 1.112zm-3.65 0c-.612 0-1.113-.5-1.113-1.112a1.1 1.1 0 011.114-1.113h.028c.613 0 1.114.501 1.114 1.113s-.53 1.112-1.142 1.112zm-3.648 0h-.028c-.613 0-1.114-.5-1.114-1.112 0-.612.5-1.113 1.114-1.113h.028c.613 0 1.114.501 1.114 1.113s-.502 1.112-1.114 1.112zm-3.65 0h-.027c-.613 0-1.115-.5-1.115-1.112 0-.612.502-1.113 1.115-1.113h.028c.612 0 1.114.501 1.114 1.113s-.502 1.112-1.114 1.112zm-3.649 0h-.027c-.613 0-1.115-.5-1.115-1.112 0-.612.502-1.113 1.114-1.113h.028c.613 0 1.115.501 1.115 1.113s-.502 1.112-1.115 1.112zm-3.649 0h-.028c-.612 0-1.114-.5-1.114-1.112 0-.612.502-1.113 1.114-1.113h.028c.613 0 1.114.501 1.114 1.113s-.501 1.112-1.114 1.112zm-3.649 0c-.613 0-1.114-.5-1.114-1.112a1.1 1.1 0 011.114-1.113h.028c.613 0 1.114.501 1.114 1.113s-.53 1.112-1.142 1.112zm-3.65 0c-.612 0-1.113-.5-1.113-1.112a1.1 1.1 0 011.114-1.113h.028c.612 0 1.114.501 1.114 1.113s-.53 1.112-1.142 1.112zm-3.648 0H33.9c-.613 0-1.115-.5-1.115-1.112 0-.612.502-1.113 1.115-1.113h.028c.612 0 1.114.501 1.114 1.113a1.1 1.1 0 01-1.114 1.112zm-3.622 0h-.027c-.613 0-1.115-.5-1.115-1.112 0-.612.502-1.113 1.114-1.113h.028c.613 0 1.115.501 1.115 1.113s-.502 1.112-1.115 1.112zm-3.649 0h-.028c-.613 0-1.114-.5-1.114-1.112 0-.612.502-1.113 1.114-1.113h.028c.613 0 1.114.501 1.114 1.113s-.501 1.112-1.114 1.112zm-3.649 0h-.028c-.613 0-1.114-.5-1.114-1.112 0-.612.501-1.113 1.114-1.113h.028c.613 0 1.114.501 1.114 1.113s-.501 1.112-1.114 1.112zm-3.65 0c-.612 0-1.113-.5-1.113-1.112a1.1 1.1 0 011.114-1.113h.028c.612 0 1.114.501 1.114 1.113s-.53 1.112-1.142 1.112zm-3.648 0c-.613 0-1.115-.5-1.115-1.112a1.1 1.1 0 011.115-1.113h.027c.613 0 1.115.501 1.115 1.113s-.53 1.112-1.142 1.112zm-3.65 0h-.027c-.613 0-1.115-.5-1.115-1.112 0-.612.502-1.113 1.115-1.113h.027c.613 0 1.115.501 1.115 1.113s-.502 1.112-1.114 1.112zm-3.649 0h-.027c-.613 0-1.115-.5-1.115-1.112 0-.612.502-1.113 1.115-1.113h.027c.613 0 1.115.501 1.115 1.113s-.502 1.112-1.115 1.112zm-3.649 0h-.028c-.612 0-1.114-.5-1.114-1.112 0-.612.502-1.113 1.114-1.113h.028c.613 0 1.114.501 1.114 1.113s-.501 1.112-1.114 1.112zm76.572 0c-.613 0-1.114-.5-1.114-1.112 0-.612.501-1.113 1.114-1.113.613 0 1.114.501 1.114 1.113s-.501 1.112-1.114 1.112zM1.114 29.483c-.613 0-1.114-.5-1.114-1.113 0-.611.501-1.112 1.114-1.112.613 0 1.114.5 1.114 1.112 0 .612-.5 1.113-1.114 1.113zm76.576 0h-.027c-.613 0-1.114-.5-1.114-1.113 0-.611.501-1.112 1.114-1.112h.028c.613 0 1.114.5 1.114 1.112 0 .612-.501 1.113-1.114 1.113zm-3.648 0h-.028c-.613 0-1.114-.5-1.114-1.113 0-.611.5-1.112 1.114-1.112h.028c.612 0 1.114.5 1.114 1.112a1.1 1.1 0 01-1.114 1.113zm-3.622 0h-.028c-.612 0-1.114-.5-1.114-1.113 0-.611.502-1.112 1.114-1.112h.028c.613 0 1.114.5 1.114 1.112 0 .612-.5 1.113-1.114 1.113zm-3.649 0h-.028c-.613 0-1.114-.5-1.114-1.113 0-.611.501-1.112 1.114-1.112h.028c.613 0 1.114.5 1.114 1.112 0 .612-.501 1.113-1.114 1.113zm-3.649 0c-.613 0-1.114-.5-1.114-1.113a1.1 1.1 0 011.114-1.112h.028c.613 0 1.114.5 1.114 1.112 0 .612-.53 1.113-1.142 1.113zm-3.65 0c-.612 0-1.113-.5-1.113-1.113a1.1 1.1 0 011.114-1.112h.028c.613 0 1.114.5 1.114 1.112 0 .612-.53 1.113-1.142 1.113zm-3.648 0h-.028c-.613 0-1.114-.5-1.114-1.113 0-.611.5-1.112 1.114-1.112h.028c.613 0 1.114.5 1.114 1.112 0 .612-.502 1.113-1.114 1.113zm-3.65 0h-.027c-.613 0-1.115-.5-1.115-1.113 0-.611.502-1.112 1.115-1.112h.028c.612 0 1.114.5 1.114 1.112 0 .612-.502 1.113-1.114 1.113zm-3.649 0h-.027c-.613 0-1.115-.5-1.115-1.113 0-.611.502-1.112 1.114-1.112h.028c.613 0 1.115.5 1.115 1.112 0 .612-.502 1.113-1.115 1.113zm-3.649 0h-.028c-.612 0-1.114-.5-1.114-1.113 0-.611.502-1.112 1.114-1.112h.028c.613 0 1.114.5 1.114 1.112 0 .612-.501 1.113-1.114 1.113zm-3.649 0c-.613 0-1.114-.5-1.114-1.113a1.1 1.1 0 011.114-1.112h.028c.613 0 1.114.5 1.114 1.112 0 .612-.53 1.113-1.142 1.113zm-3.65 0c-.612 0-1.113-.5-1.113-1.113a1.1 1.1 0 011.114-1.112h.028c.612 0 1.114.5 1.114 1.112 0 .612-.53 1.113-1.142 1.113zm-3.648 0H33.9c-.613 0-1.115-.5-1.115-1.113 0-.611.502-1.112 1.115-1.112h.028c.612 0 1.114.5 1.114 1.112a1.1 1.1 0 01-1.114 1.113zm-3.622 0h-.027c-.613 0-1.115-.5-1.115-1.113 0-.611.502-1.112 1.114-1.112h.028c.613 0 1.115.5 1.115 1.112 0 .612-.502 1.113-1.115 1.113zm-3.649 0h-.028c-.613 0-1.114-.5-1.114-1.113 0-.611.502-1.112 1.114-1.112h.028c.613 0 1.114.5 1.114 1.112 0 .612-.501 1.113-1.114 1.113zm-3.649 0h-.028c-.613 0-1.114-.5-1.114-1.113 0-.611.501-1.112 1.114-1.112h.028c.613 0 1.114.5 1.114 1.112 0 .612-.501 1.113-1.114 1.113zm-3.65 0c-.612 0-1.113-.5-1.113-1.113a1.1 1.1 0 011.114-1.112h.028c.612 0 1.114.5 1.114 1.112 0 .612-.53 1.113-1.142 1.113zm-3.648 0c-.613 0-1.115-.5-1.115-1.113a1.1 1.1 0 011.115-1.112h.027c.613 0 1.115.5 1.115 1.112 0 .612-.53 1.113-1.142 1.113zm-3.65 0h-.027c-.613 0-1.115-.5-1.115-1.113 0-.611.502-1.112 1.115-1.112h.027c.613 0 1.115.5 1.115 1.112 0 .612-.502 1.113-1.114 1.113zm-3.649 0h-.027c-.613 0-1.115-.5-1.115-1.113 0-.611.502-1.112 1.115-1.112h.027c.613 0 1.115.5 1.115 1.112 0 .612-.502 1.113-1.115 1.113zm-3.649 0h-.028c-.612 0-1.114-.5-1.114-1.113 0-.611.502-1.112 1.114-1.112h.028c.613 0 1.114.5 1.114 1.112 0 .612-.501 1.113-1.114 1.113zm76.572 0c-.613 0-1.114-.5-1.114-1.113 0-.611.501-1.112 1.114-1.112.613 0 1.114.5 1.114 1.112 0 .612-.501 1.113-1.114 1.113zM1.114 25.59C.501 25.59 0 25.09 0 24.478c0-.612.501-1.113 1.114-1.113.613 0 1.114.5 1.114 1.113 0 .612-.5 1.112-1.114 1.112zm76.576 0h-.027c-.613 0-1.114-.5-1.114-1.112 0-.612.501-1.113 1.114-1.113h.028c.613 0 1.114.5 1.114 1.113 0 .612-.501 1.112-1.114 1.112zm-3.648 0h-.028c-.613 0-1.114-.5-1.114-1.112 0-.612.5-1.113 1.114-1.113h.028c.612 0 1.114.5 1.114 1.113a1.1 1.1 0 01-1.114 1.112zm-3.622 0h-.028c-.612 0-1.114-.5-1.114-1.112 0-.612.502-1.113 1.114-1.113h.028c.613 0 1.114.5 1.114 1.113 0 .612-.5 1.112-1.114 1.112zm-3.649 0h-.028c-.613 0-1.114-.5-1.114-1.112 0-.612.501-1.113 1.114-1.113h.028c.613 0 1.114.5 1.114 1.113 0 .612-.501 1.112-1.114 1.112zm-3.649 0c-.613 0-1.114-.5-1.114-1.112a1.1 1.1 0 011.114-1.113h.028c.613 0 1.114.5 1.114 1.113 0 .612-.53 1.112-1.142 1.112zm-3.65 0c-.612 0-1.113-.5-1.113-1.112a1.1 1.1 0 011.114-1.113h.028c.613 0 1.114.5 1.114 1.113 0 .612-.53 1.112-1.142 1.112zm-3.648 0h-.028c-.613 0-1.114-.5-1.114-1.112 0-.612.5-1.113 1.114-1.113h.028c.613 0 1.114.5 1.114 1.113 0 .612-.502 1.112-1.114 1.112zm-3.65 0h-.027c-.613 0-1.115-.5-1.115-1.112 0-.612.502-1.113 1.115-1.113h.028c.612 0 1.114.5 1.114 1.113 0 .612-.502 1.112-1.114 1.112zm-3.649 0h-.027c-.613 0-1.115-.5-1.115-1.112 0-.612.502-1.113 1.114-1.113h.028c.613 0 1.115.5 1.115 1.113 0 .612-.502 1.112-1.115 1.112zm-3.649 0h-.028c-.612 0-1.114-.5-1.114-1.112 0-.612.502-1.113 1.114-1.113h.028c.613 0 1.114.5 1.114 1.113 0 .612-.501 1.112-1.114 1.112zm-3.649 0c-.613 0-1.114-.5-1.114-1.112a1.1 1.1 0 011.114-1.113h.028c.613 0 1.114.5 1.114 1.113 0 .612-.53 1.112-1.142 1.112zm-3.65 0c-.612 0-1.113-.5-1.113-1.112a1.1 1.1 0 011.114-1.113h.028c.612 0 1.114.5 1.114 1.113 0 .612-.53 1.112-1.142 1.112zm-3.648 0H33.9c-.613 0-1.115-.5-1.115-1.112 0-.612.502-1.113 1.115-1.113h.028c.612 0 1.114.5 1.114 1.113a1.1 1.1 0 01-1.114 1.112zm-3.622 0h-.027c-.613 0-1.115-.5-1.115-1.112 0-.612.502-1.113 1.114-1.113h.028c.613 0 1.115.5 1.115 1.113 0 .612-.502 1.112-1.115 1.112zm-3.649 0h-.028c-.613 0-1.114-.5-1.114-1.112 0-.612.502-1.113 1.114-1.113h.028c.613 0 1.114.5 1.114 1.113 0 .612-.501 1.112-1.114 1.112zm-3.649 0h-.028c-.613 0-1.114-.5-1.114-1.112 0-.612.501-1.113 1.114-1.113h.028c.613 0 1.114.5 1.114 1.113 0 .612-.501 1.112-1.114 1.112zm-3.65 0c-.612 0-1.113-.5-1.113-1.112a1.1 1.1 0 011.114-1.113h.028c.612 0 1.114.5 1.114 1.113 0 .612-.53 1.112-1.142 1.112zm-3.648 0c-.613 0-1.115-.5-1.115-1.112a1.1 1.1 0 011.115-1.113h.027c.613 0 1.115.5 1.115 1.113 0 .612-.53 1.112-1.142 1.112zm-3.65 0h-.027c-.613 0-1.115-.5-1.115-1.112 0-.612.502-1.113 1.115-1.113h.027c.613 0 1.115.5 1.115 1.113 0 .612-.502 1.112-1.114 1.112zm-3.649 0h-.027c-.613 0-1.115-.5-1.115-1.112 0-.612.502-1.113 1.115-1.113h.027c.613 0 1.115.5 1.115 1.113 0 .612-.502 1.112-1.115 1.112zm-3.649 0h-.028c-.612 0-1.114-.5-1.114-1.112 0-.612.502-1.113 1.114-1.113h.028c.613 0 1.114.5 1.114 1.113 0 .612-.501 1.112-1.114 1.112zm76.572 0c-.613 0-1.114-.5-1.114-1.112 0-.612.501-1.113 1.114-1.113.613 0 1.114.5 1.114 1.113 0 .612-.501 1.112-1.114 1.112zM1.114 21.695c-.613 0-1.114-.5-1.114-1.113 0-.612.501-1.112 1.114-1.112.613 0 1.114.5 1.114 1.112 0 .612-.5 1.113-1.114 1.113zm76.576 0h-.027c-.613 0-1.114-.5-1.114-1.113 0-.612.501-1.112 1.114-1.112h.028c.613 0 1.114.5 1.114 1.112 0 .612-.501 1.113-1.114 1.113zm-3.648 0h-.028c-.613 0-1.114-.5-1.114-1.113 0-.612.5-1.112 1.114-1.112h.028c.612 0 1.114.5 1.114 1.112a1.1 1.1 0 01-1.114 1.113zm-3.622 0h-.028c-.612 0-1.114-.5-1.114-1.113 0-.612.502-1.112 1.114-1.112h.028c.613 0 1.114.5 1.114 1.112 0 .612-.5 1.113-1.114 1.113zm-3.649 0h-.028c-.613 0-1.114-.5-1.114-1.113 0-.612.501-1.112 1.114-1.112h.028c.613 0 1.114.5 1.114 1.112 0 .612-.501 1.113-1.114 1.113zm-3.649 0c-.613 0-1.114-.5-1.114-1.113a1.1 1.1 0 011.114-1.112h.028c.613 0 1.114.5 1.114 1.112 0 .612-.53 1.113-1.142 1.113zm-3.65 0c-.612 0-1.113-.5-1.113-1.113a1.1 1.1 0 011.114-1.112h.028c.613 0 1.114.5 1.114 1.112 0 .612-.53 1.113-1.142 1.113zm-3.648 0h-.028c-.613 0-1.114-.5-1.114-1.113 0-.612.5-1.112 1.114-1.112h.028c.613 0 1.114.5 1.114 1.112 0 .612-.502 1.113-1.114 1.113zm-3.65 0h-.027c-.613 0-1.115-.5-1.115-1.113 0-.612.502-1.112 1.115-1.112h.028c.612 0 1.114.5 1.114 1.112 0 .612-.502 1.113-1.114 1.113zm-3.649 0h-.027c-.613 0-1.115-.5-1.115-1.113 0-.612.502-1.112 1.114-1.112h.028c.613 0 1.115.5 1.115 1.112 0 .612-.502 1.113-1.115 1.113zm-3.649 0h-.028c-.612 0-1.114-.5-1.114-1.113 0-.612.502-1.112 1.114-1.112h.028c.613 0 1.114.5 1.114 1.112 0 .612-.501 1.113-1.114 1.113zm-3.649 0c-.613 0-1.114-.5-1.114-1.113a1.1 1.1 0 011.114-1.112h.028c.613 0 1.114.5 1.114 1.112 0 .612-.53 1.113-1.142 1.113zm-3.65 0c-.612 0-1.113-.5-1.113-1.113a1.1 1.1 0 011.114-1.112h.028c.612 0 1.114.5 1.114 1.112 0 .612-.53 1.113-1.142 1.113zm-3.648 0H33.9c-.613 0-1.115-.5-1.115-1.113 0-.612.502-1.112 1.115-1.112h.028c.612 0 1.114.5 1.114 1.112a1.1 1.1 0 01-1.114 1.113zm-3.622 0h-.027c-.613 0-1.115-.5-1.115-1.113 0-.612.502-1.112 1.114-1.112h.028c.613 0 1.115.5 1.115 1.112 0 .612-.502 1.113-1.115 1.113zm-3.649 0h-.028c-.613 0-1.114-.5-1.114-1.113 0-.612.502-1.112 1.114-1.112h.028c.613 0 1.114.5 1.114 1.112 0 .612-.501 1.113-1.114 1.113zm-3.649 0h-.028c-.613 0-1.114-.5-1.114-1.113 0-.612.501-1.112 1.114-1.112h.028c.613 0 1.114.5 1.114 1.112 0 .612-.501 1.113-1.114 1.113zm-3.65 0c-.612 0-1.113-.5-1.113-1.113a1.1 1.1 0 011.114-1.112h.028c.612 0 1.114.5 1.114 1.112 0 .612-.53 1.113-1.142 1.113zm-3.648 0c-.613 0-1.115-.5-1.115-1.113a1.1 1.1 0 011.115-1.112h.027c.613 0 1.115.5 1.115 1.112 0 .612-.53 1.113-1.142 1.113zm-3.65 0h-.027c-.613 0-1.115-.5-1.115-1.113 0-.612.502-1.112 1.115-1.112h.027c.613 0 1.115.5 1.115 1.112 0 .612-.502 1.113-1.114 1.113zm-3.649 0h-.027c-.613 0-1.115-.5-1.115-1.113 0-.612.502-1.112 1.115-1.112h.027c.613 0 1.115.5 1.115 1.112 0 .612-.502 1.113-1.115 1.113zm-3.649 0h-.028c-.612 0-1.114-.5-1.114-1.113 0-.612.502-1.112 1.114-1.112h.028c.613 0 1.114.5 1.114 1.112 0 .612-.501 1.113-1.114 1.113zm76.572 0c-.613 0-1.114-.5-1.114-1.113 0-.612.501-1.112 1.114-1.112.613 0 1.114.5 1.114 1.112 0 .612-.501 1.113-1.114 1.113zM1.114 17.801c-.613 0-1.114-.5-1.114-1.112 0-.612.501-1.113 1.114-1.113.613 0 1.114.5 1.114 1.113 0 .612-.5 1.112-1.114 1.112zM77.69 17.8h-.027c-.613 0-1.114-.5-1.114-1.112 0-.612.501-1.113 1.114-1.113h.028c.613 0 1.114.5 1.114 1.113 0 .612-.501 1.112-1.114 1.112zm-3.648 0h-.028c-.613 0-1.114-.5-1.114-1.112 0-.612.5-1.113 1.114-1.113h.028c.612 0 1.114.5 1.114 1.113a1.1 1.1 0 01-1.114 1.112zm-3.622 0h-.028c-.612 0-1.114-.5-1.114-1.112 0-.612.502-1.113 1.114-1.113h.028c.613 0 1.114.5 1.114 1.113 0 .612-.5 1.112-1.114 1.112zm-3.649 0h-.028c-.613 0-1.114-.5-1.114-1.112 0-.612.501-1.113 1.114-1.113h.028c.613 0 1.114.5 1.114 1.113 0 .612-.501 1.112-1.114 1.112zm-3.649 0c-.613 0-1.114-.5-1.114-1.112a1.1 1.1 0 011.114-1.113h.028c.613 0 1.114.5 1.114 1.113 0 .612-.53 1.112-1.142 1.112zm-3.65 0c-.612 0-1.113-.5-1.113-1.112a1.1 1.1 0 011.114-1.113h.028c.613 0 1.114.5 1.114 1.113 0 .612-.53 1.112-1.142 1.112zm-3.648 0h-.028c-.613 0-1.114-.5-1.114-1.112 0-.612.5-1.113 1.114-1.113h.028c.613 0 1.114.5 1.114 1.113 0 .612-.502 1.112-1.114 1.112zm-3.65 0h-.027c-.613 0-1.115-.5-1.115-1.112 0-.612.502-1.113 1.115-1.113h.028c.612 0 1.114.5 1.114 1.113 0 .612-.502 1.112-1.114 1.112zm-3.649 0h-.027c-.613 0-1.115-.5-1.115-1.112 0-.612.502-1.113 1.114-1.113h.028c.613 0 1.115.5 1.115 1.113 0 .612-.502 1.112-1.115 1.112zm-3.649 0h-.028c-.612 0-1.114-.5-1.114-1.112 0-.612.502-1.113 1.114-1.113h.028c.613 0 1.114.5 1.114 1.113 0 .612-.501 1.112-1.114 1.112zm-3.649 0c-.613 0-1.114-.5-1.114-1.112a1.1 1.1 0 011.114-1.113h.028c.613 0 1.114.5 1.114 1.113 0 .612-.53 1.112-1.142 1.112zm-3.65 0c-.612 0-1.113-.5-1.113-1.112a1.1 1.1 0 011.114-1.113h.028c.612 0 1.114.5 1.114 1.113 0 .612-.53 1.112-1.142 1.112zm-3.648 0H33.9c-.613 0-1.115-.5-1.115-1.112 0-.612.502-1.113 1.115-1.113h.028c.612 0 1.114.5 1.114 1.113a1.1 1.1 0 01-1.114 1.112zm-3.622 0h-.027c-.613 0-1.115-.5-1.115-1.112 0-.612.502-1.113 1.114-1.113h.028c.613 0 1.115.5 1.115 1.113 0 .612-.502 1.112-1.115 1.112zm-3.649 0h-.028c-.613 0-1.114-.5-1.114-1.112 0-.612.502-1.113 1.114-1.113h.028c.613 0 1.114.5 1.114 1.113 0 .612-.501 1.112-1.114 1.112zm-3.649 0h-.028c-.613 0-1.114-.5-1.114-1.112 0-.612.501-1.113 1.114-1.113h.028c.613 0 1.114.5 1.114 1.113 0 .612-.501 1.112-1.114 1.112zm-3.65 0c-.612 0-1.113-.5-1.113-1.112a1.1 1.1 0 011.114-1.113h.028c.612 0 1.114.5 1.114 1.113 0 .612-.53 1.112-1.142 1.112zm-3.648 0c-.613 0-1.115-.5-1.115-1.112a1.1 1.1 0 011.115-1.113h.027c.613 0 1.115.5 1.115 1.113 0 .612-.53 1.112-1.142 1.112zm-3.65 0h-.027c-.613 0-1.115-.5-1.115-1.112 0-.612.502-1.113 1.115-1.113h.027c.613 0 1.115.5 1.115 1.113 0 .612-.502 1.112-1.114 1.112zm-3.649 0h-.027c-.613 0-1.115-.5-1.115-1.112 0-.612.502-1.113 1.115-1.113h.027c.613 0 1.115.5 1.115 1.113 0 .612-.502 1.112-1.115 1.112zm-3.649 0h-.028c-.612 0-1.114-.5-1.114-1.112 0-.612.502-1.113 1.114-1.113h.028c.613 0 1.114.5 1.114 1.113 0 .612-.501 1.112-1.114 1.112zm76.572 0c-.613 0-1.114-.5-1.114-1.112 0-.612.501-1.113 1.114-1.113.613 0 1.114.5 1.114 1.113 0 .612-.501 1.112-1.114 1.112zM1.114 13.907c-.613 0-1.114-.5-1.114-1.113 0-.612.501-1.112 1.114-1.112.613 0 1.114.5 1.114 1.112 0 .612-.5 1.113-1.114 1.113zm76.576 0h-.027c-.613 0-1.114-.5-1.114-1.113 0-.612.501-1.112 1.114-1.112h.028c.613 0 1.114.5 1.114 1.112 0 .612-.501 1.113-1.114 1.113zm-3.648 0h-.028c-.613 0-1.114-.5-1.114-1.113 0-.612.5-1.112 1.114-1.112h.028c.612 0 1.114.5 1.114 1.112a1.1 1.1 0 01-1.114 1.113zm-3.622 0h-.028c-.612 0-1.114-.5-1.114-1.113 0-.612.502-1.112 1.114-1.112h.028c.613 0 1.114.5 1.114 1.112 0 .612-.5 1.113-1.114 1.113zm-3.649 0h-.028c-.613 0-1.114-.5-1.114-1.113 0-.612.501-1.112 1.114-1.112h.028c.613 0 1.114.5 1.114 1.112 0 .612-.501 1.113-1.114 1.113zm-3.649 0c-.613 0-1.114-.5-1.114-1.113a1.1 1.1 0 011.114-1.112h.028c.613 0 1.114.5 1.114 1.112 0 .612-.53 1.113-1.142 1.113zm-3.65 0c-.612 0-1.113-.5-1.113-1.113a1.1 1.1 0 011.114-1.112h.028c.613 0 1.114.5 1.114 1.112 0 .612-.53 1.113-1.142 1.113zm-3.648 0h-.028c-.613 0-1.114-.5-1.114-1.113 0-.612.5-1.112 1.114-1.112h.028c.613 0 1.114.5 1.114 1.112 0 .612-.502 1.113-1.114 1.113zm-3.65 0h-.027c-.613 0-1.115-.5-1.115-1.113 0-.612.502-1.112 1.115-1.112h.028c.612 0 1.114.5 1.114 1.112 0 .612-.502 1.113-1.114 1.113zm-3.649 0h-.027c-.613 0-1.115-.5-1.115-1.113 0-.612.502-1.112 1.114-1.112h.028c.613 0 1.115.5 1.115 1.112 0 .612-.502 1.113-1.115 1.113zm-3.649 0h-.028c-.612 0-1.114-.5-1.114-1.113 0-.612.502-1.112 1.114-1.112h.028c.613 0 1.114.5 1.114 1.112 0 .612-.501 1.113-1.114 1.113zm-3.649 0c-.613 0-1.114-.5-1.114-1.113a1.1 1.1 0 011.114-1.112h.028c.613 0 1.114.5 1.114 1.112 0 .612-.53 1.113-1.142 1.113zm-3.65 0c-.612 0-1.113-.5-1.113-1.113a1.1 1.1 0 011.114-1.112h.028c.612 0 1.114.5 1.114 1.112 0 .612-.53 1.113-1.142 1.113zm-3.648 0H33.9c-.613 0-1.115-.5-1.115-1.113 0-.612.502-1.112 1.115-1.112h.028c.612 0 1.114.5 1.114 1.112a1.1 1.1 0 01-1.114 1.113zm-3.622 0h-.027c-.613 0-1.115-.5-1.115-1.113 0-.612.502-1.112 1.114-1.112h.028c.613 0 1.115.5 1.115 1.112 0 .612-.502 1.113-1.115 1.113zm-3.649 0h-.028c-.613 0-1.114-.5-1.114-1.113 0-.612.502-1.112 1.114-1.112h.028c.613 0 1.114.5 1.114 1.112 0 .612-.501 1.113-1.114 1.113zm-3.649 0h-.028c-.613 0-1.114-.5-1.114-1.113 0-.612.501-1.112 1.114-1.112h.028c.613 0 1.114.5 1.114 1.112 0 .612-.501 1.113-1.114 1.113zm-3.65 0c-.612 0-1.113-.5-1.113-1.113a1.1 1.1 0 011.114-1.112h.028c.612 0 1.114.5 1.114 1.112 0 .612-.53 1.113-1.142 1.113zm-3.648 0c-.613 0-1.115-.5-1.115-1.113a1.1 1.1 0 011.115-1.112h.027c.613 0 1.115.5 1.115 1.112 0 .612-.53 1.113-1.142 1.113zm-3.65 0h-.027c-.613 0-1.115-.5-1.115-1.113 0-.612.502-1.112 1.115-1.112h.027c.613 0 1.115.5 1.115 1.112 0 .612-.502 1.113-1.114 1.113zm-3.649 0h-.027c-.613 0-1.115-.5-1.115-1.113 0-.612.502-1.112 1.115-1.112h.027c.613 0 1.115.5 1.115 1.112 0 .612-.502 1.113-1.115 1.113zm-3.649 0h-.028c-.612 0-1.114-.5-1.114-1.113 0-.612.502-1.112 1.114-1.112h.028c.613 0 1.114.5 1.114 1.112 0 .612-.501 1.113-1.114 1.113zm76.572 0c-.613 0-1.114-.5-1.114-1.113 0-.612.501-1.112 1.114-1.112.613 0 1.114.5 1.114 1.112 0 .612-.501 1.113-1.114 1.113zM1.114 10.012C.501 10.012 0 9.512 0 8.9c0-.612.501-1.113 1.114-1.113.613 0 1.114.5 1.114 1.113 0 .612-.5 1.112-1.114 1.112zm76.576 0h-.027c-.613 0-1.114-.5-1.114-1.112 0-.612.501-1.113 1.114-1.113h.028c.613 0 1.114.5 1.114 1.113 0 .612-.501 1.112-1.114 1.112zm-3.648 0h-.028c-.613 0-1.114-.5-1.114-1.112 0-.612.5-1.113 1.114-1.113h.028c.612 0 1.114.5 1.114 1.113a1.1 1.1 0 01-1.114 1.112zm-3.622 0h-.028c-.612 0-1.114-.5-1.114-1.112 0-.612.502-1.113 1.114-1.113h.028c.613 0 1.114.5 1.114 1.113 0 .612-.5 1.112-1.114 1.112zm-3.649 0h-.028c-.613 0-1.114-.5-1.114-1.112 0-.612.501-1.113 1.114-1.113h.028c.613 0 1.114.5 1.114 1.113 0 .612-.501 1.112-1.114 1.112zm-3.649 0c-.613 0-1.114-.5-1.114-1.112a1.1 1.1 0 011.114-1.113h.028c.613 0 1.114.5 1.114 1.113 0 .612-.53 1.112-1.142 1.112zm-3.65 0c-.612 0-1.113-.5-1.113-1.112a1.1 1.1 0 011.114-1.113h.028c.613 0 1.114.5 1.114 1.113 0 .612-.53 1.112-1.142 1.112zm-3.648 0h-.028c-.613 0-1.114-.5-1.114-1.112 0-.612.5-1.113 1.114-1.113h.028c.613 0 1.114.5 1.114 1.113 0 .612-.502 1.112-1.114 1.112zm-3.65 0h-.027c-.613 0-1.115-.5-1.115-1.112 0-.612.502-1.113 1.115-1.113h.028c.612 0 1.114.5 1.114 1.113 0 .612-.502 1.112-1.114 1.112zm-3.649 0h-.027c-.613 0-1.115-.5-1.115-1.112 0-.612.502-1.113 1.114-1.113h.028c.613 0 1.115.5 1.115 1.113 0 .612-.502 1.112-1.115 1.112zm-3.649 0h-.028c-.612 0-1.114-.5-1.114-1.112 0-.612.502-1.113 1.114-1.113h.028c.613 0 1.114.5 1.114 1.113 0 .612-.501 1.112-1.114 1.112zm-3.649 0c-.613 0-1.114-.5-1.114-1.112a1.1 1.1 0 011.114-1.113h.028c.613 0 1.114.5 1.114 1.113 0 .612-.53 1.112-1.142 1.112zm-3.65 0c-.612 0-1.113-.5-1.113-1.112a1.1 1.1 0 011.114-1.113h.028c.612 0 1.114.5 1.114 1.113 0 .612-.53 1.112-1.142 1.112zm-3.648 0H33.9c-.613 0-1.115-.5-1.115-1.112 0-.612.502-1.113 1.115-1.113h.028c.612 0 1.114.5 1.114 1.113a1.1 1.1 0 01-1.114 1.112zm-3.622 0h-.027c-.613 0-1.115-.5-1.115-1.112 0-.612.502-1.113 1.114-1.113h.028c.613 0 1.115.5 1.115 1.113 0 .612-.502 1.112-1.115 1.112zm-3.649 0h-.028c-.613 0-1.114-.5-1.114-1.112 0-.612.502-1.113 1.114-1.113h.028c.613 0 1.114.5 1.114 1.113 0 .612-.501 1.112-1.114 1.112zm-3.649 0h-.028c-.613 0-1.114-.5-1.114-1.112 0-.612.501-1.113 1.114-1.113h.028c.613 0 1.114.5 1.114 1.113 0 .612-.501 1.112-1.114 1.112zm-3.65 0c-.612 0-1.113-.5-1.113-1.112a1.1 1.1 0 011.114-1.113h.028c.612 0 1.114.5 1.114 1.113 0 .612-.53 1.112-1.142 1.112zm-3.648 0c-.613 0-1.115-.5-1.115-1.112a1.1 1.1 0 011.115-1.113h.027c.613 0 1.115.5 1.115 1.113 0 .612-.53 1.112-1.142 1.112zm-3.65 0h-.027c-.613 0-1.115-.5-1.115-1.112 0-.612.502-1.113 1.115-1.113h.027c.613 0 1.115.5 1.115 1.113 0 .612-.502 1.112-1.114 1.112zm-3.649 0h-.027c-.613 0-1.115-.5-1.115-1.112 0-.612.502-1.113 1.115-1.113h.027c.613 0 1.115.5 1.115 1.113 0 .612-.502 1.112-1.115 1.112zm-3.649 0h-.028c-.612 0-1.114-.5-1.114-1.112 0-.612.502-1.113 1.114-1.113h.028c.613 0 1.114.5 1.114 1.113 0 .612-.501 1.112-1.114 1.112zm76.572 0c-.613 0-1.114-.5-1.114-1.112 0-.612.501-1.113 1.114-1.113.613 0 1.114.5 1.114 1.113 0 .612-.501 1.112-1.114 1.112zM1.114 6.12C.501 6.12 0 5.619 0 5.007s.501-1.112 1.114-1.112c.613 0 1.114.5 1.114 1.112 0 .612-.5 1.113-1.114 1.113zm76.576 0h-.027c-.613 0-1.114-.501-1.114-1.113s.501-1.112 1.114-1.112h.028c.613 0 1.114.5 1.114 1.112 0 .612-.501 1.113-1.114 1.113zm-3.648 0h-.028c-.613 0-1.114-.501-1.114-1.113s.5-1.112 1.114-1.112h.028c.612 0 1.114.5 1.114 1.112a1.1 1.1 0 01-1.114 1.113zm-3.622 0h-.028c-.612 0-1.114-.501-1.114-1.113s.502-1.112 1.114-1.112h.028c.613 0 1.114.5 1.114 1.112 0 .612-.5 1.113-1.114 1.113zm-3.649 0h-.028c-.613 0-1.114-.501-1.114-1.113s.501-1.112 1.114-1.112h.028c.613 0 1.114.5 1.114 1.112 0 .612-.501 1.113-1.114 1.113zm-3.649 0a1.117 1.117 0 01-1.114-1.113 1.1 1.1 0 011.114-1.112h.028c.613 0 1.114.5 1.114 1.112 0 .612-.53 1.113-1.142 1.113zm-3.65 0a1.116 1.116 0 01-1.113-1.113 1.1 1.1 0 011.114-1.112h.028c.613 0 1.114.5 1.114 1.112 0 .612-.53 1.113-1.142 1.113zm-3.648 0h-.028c-.613 0-1.114-.501-1.114-1.113s.5-1.112 1.114-1.112h.028c.613 0 1.114.5 1.114 1.112 0 .612-.502 1.113-1.114 1.113zm-3.65 0h-.027c-.613 0-1.115-.501-1.115-1.113s.502-1.112 1.115-1.112h.028c.612 0 1.114.5 1.114 1.112 0 .612-.502 1.113-1.114 1.113zm-3.649 0h-.027c-.613 0-1.115-.501-1.115-1.113s.502-1.112 1.114-1.112h.028c.613 0 1.115.5 1.115 1.112 0 .612-.502 1.113-1.115 1.113zm-3.649 0h-.028c-.612 0-1.114-.501-1.114-1.113s.502-1.112 1.114-1.112h.028c.613 0 1.114.5 1.114 1.112 0 .612-.501 1.113-1.114 1.113zm-3.649 0a1.117 1.117 0 01-1.114-1.113 1.1 1.1 0 011.114-1.112h.028c.613 0 1.114.5 1.114 1.112 0 .612-.53 1.113-1.142 1.113zm-3.65 0a1.116 1.116 0 01-1.113-1.113 1.1 1.1 0 011.114-1.112h.028c.612 0 1.114.5 1.114 1.112 0 .612-.53 1.113-1.142 1.113zm-3.648 0H33.9c-.613 0-1.115-.501-1.115-1.113s.502-1.112 1.115-1.112h.028c.612 0 1.114.5 1.114 1.112a1.1 1.1 0 01-1.114 1.113zm-3.622 0h-.027c-.613 0-1.115-.501-1.115-1.113s.502-1.112 1.114-1.112h.028c.613 0 1.115.5 1.115 1.112 0 .612-.502 1.113-1.115 1.113zm-3.649 0h-.028c-.613 0-1.114-.501-1.114-1.113s.502-1.112 1.114-1.112h.028c.613 0 1.114.5 1.114 1.112 0 .612-.501 1.113-1.114 1.113zm-3.649 0h-.028c-.613 0-1.114-.501-1.114-1.113s.501-1.112 1.114-1.112h.028c.613 0 1.114.5 1.114 1.112 0 .612-.501 1.113-1.114 1.113zm-3.65 0a1.116 1.116 0 01-1.113-1.113 1.1 1.1 0 011.114-1.112h.028c.612 0 1.114.5 1.114 1.112 0 .612-.53 1.113-1.142 1.113zm-3.648 0a1.118 1.118 0 01-1.115-1.113 1.1 1.1 0 011.115-1.112h.027c.613 0 1.115.5 1.115 1.112 0 .612-.53 1.113-1.142 1.113zm-3.65 0h-.027c-.613 0-1.115-.501-1.115-1.113s.502-1.112 1.115-1.112h.027c.613 0 1.115.5 1.115 1.112 0 .612-.502 1.113-1.114 1.113zm-3.649 0h-.027c-.613 0-1.115-.501-1.115-1.113s.502-1.112 1.115-1.112h.027c.613 0 1.115.5 1.115 1.112 0 .612-.502 1.113-1.115 1.113zm-3.649 0h-.028c-.612 0-1.114-.501-1.114-1.113s.502-1.112 1.114-1.112h.028c.613 0 1.114.5 1.114 1.112 0 .612-.501 1.113-1.114 1.113zm76.572 0c-.613 0-1.114-.501-1.114-1.113s.501-1.112 1.114-1.112c.613 0 1.114.5 1.114 1.112 0 .612-.501 1.113-1.114 1.113zM1.114 2.225C.501 2.225 0 1.725 0 1.113 0 .5.501 0 1.114 0c.613 0 1.114.5 1.114 1.113 0 .612-.5 1.112-1.114 1.112zm76.576 0h-.027c-.613 0-1.114-.5-1.114-1.112C76.549.5 77.05 0 77.663 0h.028c.613 0 1.114.5 1.114 1.113 0 .612-.501 1.112-1.114 1.112zm-3.648 0h-.028c-.613 0-1.114-.5-1.114-1.112C72.9.5 73.4 0 74.014 0h.028c.612 0 1.114.5 1.114 1.113a1.1 1.1 0 01-1.114 1.112zm-3.622 0h-.028c-.612 0-1.114-.5-1.114-1.112C69.278.5 69.78 0 70.392 0h.028c.613 0 1.114.5 1.114 1.113 0 .612-.5 1.112-1.114 1.112zm-3.649 0h-.028c-.613 0-1.114-.5-1.114-1.112C65.629.5 66.13 0 66.743 0h.028c.613 0 1.114.5 1.114 1.113 0 .612-.501 1.112-1.114 1.112zm-3.649 0c-.613 0-1.114-.5-1.114-1.112A1.1 1.1 0 0163.122 0h.028c.613 0 1.114.5 1.114 1.113 0 .612-.53 1.112-1.142 1.112zm-3.65 0c-.612 0-1.113-.5-1.113-1.112A1.1 1.1 0 0159.473 0h.028c.613 0 1.114.5 1.114 1.113 0 .612-.53 1.112-1.142 1.112zm-3.648 0h-.028c-.613 0-1.114-.5-1.114-1.112 0-.612.5-1.113 1.114-1.113h.028c.613 0 1.114.5 1.114 1.113 0 .612-.502 1.112-1.114 1.112zm-3.65 0h-.027c-.613 0-1.115-.5-1.115-1.112C51.032.5 51.534 0 52.147 0h.028c.612 0 1.114.5 1.114 1.113 0 .612-.502 1.112-1.114 1.112zm-3.649 0h-.027c-.613 0-1.115-.5-1.115-1.112C47.383.5 47.885 0 48.497 0h.028c.613 0 1.115.5 1.115 1.113 0 .612-.502 1.112-1.115 1.112zm-3.649 0h-.028c-.612 0-1.114-.5-1.114-1.112C43.734.5 44.236 0 44.848 0h.028c.613 0 1.114.5 1.114 1.113 0 .612-.501 1.112-1.114 1.112zm-3.649 0c-.613 0-1.114-.5-1.114-1.112A1.1 1.1 0 0141.227 0h.028c.613 0 1.114.5 1.114 1.113 0 .612-.53 1.112-1.142 1.112zm-3.65 0c-.612 0-1.113-.5-1.113-1.112A1.1 1.1 0 0137.578 0h.028c.612 0 1.114.5 1.114 1.113 0 .612-.53 1.112-1.142 1.112zm-3.648 0H33.9c-.613 0-1.115-.5-1.115-1.112A1.118 1.118 0 0133.901 0h.028c.612 0 1.114.5 1.114 1.113a1.1 1.1 0 01-1.114 1.112zm-3.622 0h-.027c-.613 0-1.115-.5-1.115-1.112C29.165.5 29.667 0 30.28 0h.028c.613 0 1.115.5 1.115 1.113 0 .612-.502 1.112-1.115 1.112zm-3.649 0h-.028c-.613 0-1.114-.5-1.114-1.112C25.516.5 26.018 0 26.63 0h.028c.613 0 1.114.5 1.114 1.113 0 .612-.501 1.112-1.114 1.112zm-3.649 0h-.028c-.613 0-1.114-.5-1.114-1.112C21.867.5 22.368 0 22.98 0h.028c.613 0 1.114.5 1.114 1.113 0 .612-.501 1.112-1.114 1.112zm-3.65 0c-.612 0-1.113-.5-1.113-1.112A1.1 1.1 0 0119.36 0h.028c.612 0 1.114.5 1.114 1.113 0 .612-.53 1.112-1.142 1.112zm-3.648 0c-.613 0-1.115-.5-1.115-1.112A1.1 1.1 0 0115.711 0h.027c.613 0 1.115.5 1.115 1.113 0 .612-.53 1.112-1.142 1.112zm-3.65 0h-.027c-.613 0-1.115-.5-1.115-1.112A1.118 1.118 0 0112.034 0h.027c.613 0 1.115.5 1.115 1.113 0 .612-.502 1.112-1.114 1.112zm-3.649 0h-.027c-.613 0-1.115-.5-1.115-1.112C7.27.5 7.772 0 8.385 0h.027c.613 0 1.115.5 1.115 1.113 0 .612-.502 1.112-1.115 1.112zm-3.649 0h-.028c-.612 0-1.114-.5-1.114-1.112C3.621.5 4.123 0 4.735 0h.028c.613 0 1.114.5 1.114 1.113 0 .612-.501 1.112-1.114 1.112zm76.572 0c-.613 0-1.114-.5-1.114-1.112A1.115 1.115 0 0181.335 0c.613 0 1.114.5 1.114 1.113 0 .612-.501 1.112-1.114 1.112z" fill="#BCB5D9"/></svg>