<svg width="61" height="61" fill="none" xmlns="http://www.w3.org/2000/svg"><rect x=".785" y="1.259" width="59" height="59" rx="29.5" fill="#fff" stroke="#EAE7FB"/><path d="M33.607 22.462c.179-.083.294-.13.319-.14v-.001a.43.43 0 01.5.135c.03.037.43.515 1.087.937.68.436 1.626.808 2.726.585l-4.632-1.517zm0 0c.155-1.327.579-2.63.974-3.622a18.793 18.793 0 01.73-1.605l.051-.095.018-.033h0l.002-.002a.48.48 0 00-.053-.543h0a.428.428 0 00-.52-.108s0 0 0 0l.046.09m-1.248 5.918l-5.832 9.81c-1.257-1.345-2.556-2.737-2.38-4.887.219-2.665 1.884-5.303 4.952-7.842 2.257-1.868 4.416-2.954 4.508-3m0 0a.328.328 0 01.398.084m-.398-.083l.398.083M21.016 42.761c3.038-1.238 5.5-3.557 6.592-6.195h0c.606-1.464.702-2.847.295-4.009l-.2-.215h0l-6.687 10.42zm0 0a71.688 71.688 0 01-1.64.644l-.107.04-.037.014h0-.002a.468.468 0 00-.28.558h0a.446.446 0 00.515.332h0c.522-.111 3.812-1.03 7.012-2.739h0c.22-.117.432-.234.64-.353h0l.004-.003.003-.001c3.96-2.256 6.115-4.885 6.356-7.83l-.1-.008.1.008c.152-1.862-.833-3.096-1.899-4.203.335-.486.84-.95 1.42-1.375.607-.443 1.29-.84 1.933-1.173a22.596 22.596 0 012.434-1.082h.002l4.403-1.665c1.374-.475 2.463-.927 2.579-.975l.005-.002.001-.001a.473.473 0 00.25-.593.437.437 0 00-.566-.273h0l-2.495.943c-1.047.364-2.26.741-3.308.954L21.016 42.76zm14.237-26.134a.38.38 0 01.041.43l-.04-.43zm-2.655 16.716h0c-.144 1.774-1.107 3.31-2.465 4.615a4.98 4.98 0 00.472-1.714h0c.159-1.948-1.088-3.284-2.258-4.537l-.012-.014h0c-1.206-1.292-2.302-2.474-2.158-4.24h0c.151-1.853 1.11-3.556 2.358-5.019-.264.605-.462 1.245-.513 1.874-.196 2.396 1.244 3.851 2.485 5.106l.01.01c1.163 1.177 2.218 2.249 2.081 3.919zm-5.929 7.114l-.053.034c-.442.248-.888.48-1.33.697 1.39-1.218 2.482-2.68 3.133-4.256.431-1.043.637-2.064.613-3.025.47.684.76 1.406.692 2.258-.101 1.233-.848 2.298-1.586 3.064a8.8 8.8 0 01-1.469 1.228zm7.306-17.153c.411.43 1.363 1.281 2.683 1.57-.511.202-1.424.587-2.399 1.114-1.22.658-2.553 1.545-3.316 2.58-.538-.546-1.044-1.08-1.42-1.68.573-.975 1.498-1.786 2.384-2.4a14.23 14.23 0 012.068-1.184zm-2.687-3.472a27.167 27.167 0 012.682-1.853c-.52 1.2-1.18 3.062-1.292 4.952-1.073.591-2.608 1.606-3.606 3.004a3.909 3.909 0 01-.169-1.547c.079-.96.595-2.01 1.138-2.872.535-.848 1.087-1.5 1.247-1.684z" fill="#231F20" stroke="#000" stroke-width=".2"/></svg>