<svg width="61" height="61" fill="none" xmlns="http://www.w3.org/2000/svg"><rect x="1.023" y="1.259" width="59" height="59" rx="29.5" fill="#fff"/><path d="M46.455 20.62v21.062a.948.948 0 01-.958.957H33.185c-.363-3.408-.038-8.712.824-10.531h-5.744c0-4.002 1.857-9.095 3.733-12.446h13.5c.535 0 .957.421.957.957z" fill="#CFD8DC"/><path d="M33.185 42.639h-16.41a.948.948 0 01-.957-.957V20.619c0-.536.422-.957.958-.957h15.222c-1.877 3.35-3.734 8.444-3.734 12.446h5.744c-.861 1.819-1.187 7.123-.823 10.531z" fill="#2196F3"/><path d="M33.983 46.458a.914.914 0 01-.653-.272c-1.6-1.6-1.531-9.35-.631-13.121h-4.435a.958.958 0 01-.957-.958c0-5.784 3.597-13.568 6.023-15.995a.957.957 0 011.354 1.353c-1.807 1.81-5.057 8.418-5.428 13.685h4.752a.957.957 0 01.868 1.361c-1.174 2.51-1.128 11.282-.19 12.324a.965.965 0 11-.703 1.623z" fill="#374B54"/><path d="M31.136 38.808c-1.823 0-5.133-.519-8.957-1.978a.958.958 0 11.683-1.788c3.585 1.367 6.698 1.851 8.274 1.851 1.576 0 4.69-.484 8.276-1.851a.952.952 0 011.235.553.955.955 0 01-.554 1.235c-3.824 1.459-7.134 1.978-8.957 1.978zM24.435 27.32a.958.958 0 01-.957-.957V24.45a.958.958 0 011.914 0v1.914a.958.958 0 01-.957.958zm11.488 0a.958.958 0 01-.957-.957V24.45a.958.958 0 011.915 0v1.914a.958.958 0 01-.958.958z" fill="#374B54"/></svg>