<svg width="61" height="61" fill="none" xmlns="http://www.w3.org/2000/svg"><rect x="1.145" y="1.259" width="59" height="59" rx="29.5" fill="#fff" stroke="#EAE7FB"/><path d="M40.698 24.051c0 1.828-.005 3.655.005 5.478 0 .247-.06.35-.296.319-.04-.005-.084 0-.123 0-3.035.015-6.07.03-9.11.051-.991.005-1.986.016-2.977.036-.241.005-.325-.067-.325-.334.01-3.053.01-6.106 0-9.158 0-.263.054-.37.33-.402 1.109-.139 2.208-.303 3.311-.463 1.528-.226 3.05-.463 4.573-.69 1.453-.216 2.907-.417 4.36-.633.232-.036.257.067.257.268-.005 1.837-.005 3.686-.005 5.528zm-13.894 1.066v4.53c0 .33 0 .33-.325.33-.601.005-1.197.005-1.798.01-2.405.015-4.81.03-7.214.051-.35 0-.35.006-.35-.355v-7.696c0-.355.005-.34.34-.39.867-.124 1.735-.263 2.602-.392.665-.098 1.335-.18 2-.273 1.34-.19 2.68-.391 4.016-.587.192-.03.384-.087.581-.087.104 0 .153.036.148.15-.005.087 0 .169 0 .256v4.453zm-.152-.03c0-1.473-.005-2.95.004-4.422 0-.217-.073-.263-.256-.253-.152.01-.27.103-.423.114-.326.02-.646.082-.971.128-.636.093-1.276.175-1.907.278-.384.062-.784.057-1.153.216-.064.026-.128.047-.192.02-.207-.087-.419-.01-.601.037-.463.123-.941.154-1.415.221-.394.057-.788.14-1.187.155-.335.01-.636.19-.98.175-.296-.016-.336.041-.336.36v7.408c0 .334.035.36.355.365 1.572.026 3.149-.077 4.72-.057 1.311.016 2.627.006 3.938 0 .379 0 .399-.015.399-.427.005-1.441.005-2.877.005-4.319zm.148 10.887c0 1.519-.005 3.037.005 4.556 0 .231-.044.314-.28.273a97.108 97.108 0 00-2.139-.325c-.74-.108-1.478-.195-2.217-.309-1.045-.154-2.09-.324-3.139-.478a45.382 45.382 0 00-1.655-.227c-.198-.02-.267-.087-.267-.298.005-2.615.005-5.23 0-7.85 0-.222.055-.325.281-.284.104.016.212.006.32.006 2.947.015 5.894.035 8.84.046.212 0 .261.072.256.278-.01 1.539-.005 3.073-.005 4.612zm-.152.005c0-1.441-.01-2.883.005-4.319.005-.375-.158-.432-.424-.432-.404 0-.803.02-1.212.01-1.804-.051-3.607.036-5.41-.056-.68-.036-1.36-.005-2.045-.005-.3 0-.335.04-.335.36v7.433c0 .335.049.366.364.396.488.047.976.088 1.454.186.601.118 1.207.185 1.813.273.315.046.64.056.941.133.429.103.863.134 1.291.206.468.083.951.144 1.43.196.61.072 1.226.144 1.832.283.197.046.29-.016.29-.263 0-1.472.006-2.939.006-4.4zm14.074 1.044v5.456c0 .396 0 .401-.389.345-.926-.14-1.847-.283-2.774-.417-1.276-.185-2.552-.36-3.823-.55a299.36 299.36 0 01-3.627-.547c-.67-.108-1.35-.164-2.02-.293-.212-.041-.217-.139-.217-.304v-9.291c0-.314.01-.335.325-.33 4.095.073 8.19.073 12.284.093.207 0 .241.088.241.273v5.565zm-.083-.052V31.54c0-.103.02-.21-.133-.221-.173-.01-.34-.041-.513-.046-1.715-.031-3.43 0-5.144-.042-2.173-.051-4.35-.015-6.528-.015-.346 0-.346 0-.346.35v8.545c0 .206.005.412 0 .618-.004.154.06.206.207.216.237.015.469.072.705.077.41.01.798.16 1.212.18.4.021.793.078 1.188.13.468.066.931.205 1.399.21.527.005 1.03.175 1.552.206.488.03.966.15 1.449.221.571.083 1.148.145 1.72.242.443.078.886.114 1.33.175.463.067.916.18 1.384.155.035 0 .074.036.109.051.286.129.409.047.409-.283v-5.338z" fill="#00ADEF"/><path d="M26.654 25.085v4.32c0 .411-.014.427-.399.427-1.31 0-2.626.015-3.937 0-1.577-.021-3.148.077-4.72.056-.32-.005-.355-.036-.355-.365v-7.408c0-.319.04-.375.335-.36.34.02.646-.165.98-.175.4-.01.794-.098 1.188-.154.468-.067.946-.093 1.414-.222.183-.051.395-.123.602-.036.064.026.128.005.192-.02.37-.16.768-.155 1.153-.217.635-.103 1.27-.19 1.907-.278.32-.046.645-.108.97-.128.153-.01.276-.103.424-.114.187-.01.256.042.256.253-.01 1.472-.01 2.944-.01 4.421zm0 10.893c0 1.468-.005 2.935.005 4.396 0 .248-.093.31-.29.263a15.956 15.956 0 00-1.833-.283 31.53 31.53 0 01-1.43-.196c-.428-.072-.862-.103-1.29-.206-.3-.072-.626-.087-.941-.133-.607-.088-1.212-.155-1.814-.273-.478-.098-.965-.14-1.453-.186-.32-.03-.365-.056-.365-.396v-7.433c0-.324.035-.36.335-.36.68 0 1.365-.031 2.045.005 1.803.092 3.607 0 5.41.056.404.01.808-.005 1.212-.01.266 0 .429.057.424.432-.024 1.442-.015 2.883-.015 4.324zm13.986.995v5.353c0 .33-.123.412-.408.283-.04-.015-.074-.051-.109-.051-.468.026-.926-.088-1.384-.155-.444-.061-.887-.097-1.33-.175-.572-.103-1.149-.16-1.72-.242-.483-.072-.966-.19-1.449-.221-.522-.036-1.02-.2-1.552-.206-.468-.005-.931-.144-1.4-.21a13.294 13.294 0 00-1.187-.13c-.409-.02-.798-.17-1.212-.18-.236-.005-.468-.062-.704-.077-.143-.01-.207-.067-.207-.216.005-.206 0-.412 0-.618v-8.545c0-.35 0-.35.345-.35 2.177 0 4.35-.036 6.528.015 1.715.042 3.43.01 5.144.042.173.005.34.036.513.046.152.005.133.118.133.221v5.416z" fill="#00ADEF"/></svg>