<svg width="61" height="61" fill="none" xmlns="http://www.w3.org/2000/svg"><rect x="1.262" y="1.259" width="59" height="59" rx="29.5" fill="#fff" stroke="#EAE7FB"/><path d="M38.465 25.231l2.365-4.227a.507.507 0 00-.174-.677.463.463 0 00-.65.18l-2.396 4.282c-1.828-.862-3.885-1.342-6.098-1.342s-4.27.48-6.097 1.343l-2.396-4.284a.47.47 0 00-.656-.18.501.501 0 00-.174.678l2.364 4.227c-4.075 2.281-6.836 6.541-7.292 11.528h28.5c-.457-4.987-3.217-9.247-7.296-11.528zm-13.498 7.395c-.662 0-1.195-.554-1.195-1.234 0-.683.536-1.233 1.195-1.233.662 0 1.195.553 1.195 1.233.003.68-.534 1.234-1.195 1.234zm13.085 0c-.662 0-1.195-.554-1.195-1.234 0-.683.536-1.233 1.195-1.233.662 0 1.195.553 1.195 1.233.003.68-.533 1.234-1.195 1.234z" fill="#30DD83"/></svg>