<svg viewBox="0 0 16 20" fill="none" xmlns="http://www.w3.org/2000/svg"><path fill-rule="evenodd" clip-rule="evenodd" d="M.25 1.412C.25.79.729.25 1.396.25h9.058c.335 0 .638.155.823.348l4.36 4.529c.184.192.322.494.322.814v12.647c0 .622-.479 1.162-1.146 1.162H1.396C.73 19.75.25 19.21.25 18.588V1.412zm1.5.338v16.5h12.709V6.067L10.305 1.75H1.75z" fill="#000"/><path fill-rule="evenodd" clip-rule="evenodd" d="M8.137 11.335l3.139-3.211 1.072 1.048-3.68 3.765a.75.75 0 01-1.076-.004L3.97 9.168l1.08-1.04 3.087 3.208z" fill="#000"/><path fill-rule="evenodd" clip-rule="evenodd" d="M7.382 12.412V5h1.5v7.412h-1.5zm3.977 3.102H4.905v-1.5h6.454v1.5z" fill="#000"/></svg>