<svg width="60" height="60" fill="none" xmlns="http://www.w3.org/2000/svg"><rect x=".5" y=".5" width="59" height="59" rx="29.5" fill="#fff" stroke="#EAE7FB"/><path d="M44.801 29.812c0 8.276-6.712 14.988-14.988 14.988-8.277 0-14.989-6.712-14.989-14.988 0-8.277 6.712-14.989 14.989-14.989 8.276 0 14.988 6.712 14.988 14.989z" fill="#4CAF50"/><path d="M29.812 14.823v14.989l5.996 2.997L29.18 44.8h.631c8.284 0 14.989-6.705 14.989-14.988 0-8.284-6.705-14.989-14.989-14.989z" fill="#FFC107"/><path d="M44.801 29.812c0 8.276-6.712 14.988-14.988 14.988-8.277 0-14.989-6.712-14.989-14.988 0-8.277 6.712-14.989 14.989-14.989 8.276 0 14.988 6.712 14.988 14.989z" fill="#4CAF50"/><path d="M29.812 14.823v14.989l5.996 2.997L29.18 44.8h.631c8.284 0 14.989-6.705 14.989-14.988 0-8.284-6.705-14.989-14.989-14.989z" fill="#FFC107"/><path d="M43.182 23.067h-13.37v9.742l-2.248-.75-10.372-10.296h-.015a14.946 14.946 0 0112.635-6.94c5.845 0 10.904 3.358 13.37 8.244z" fill="#F44336"/><path d="M17.19 21.767l6.627 11.137 3.747-.843L17.19 21.767z" fill="#DD2C00"/><path d="M29.18 44.8l6.696-12.035-3.066-2.204L29.18 44.8z" fill="#558B2F"/><path d="M43.2 23.066H29.813L28.63 26.5l14.57-3.434z" fill="#F9A825"/><path d="M36.556 29.811a6.746 6.746 0 01-6.745 6.745 6.746 6.746 0 01-6.745-6.745 6.746 6.746 0 016.745-6.745 6.746 6.746 0 016.745 6.745z" fill="#fff"/><path d="M35.057 29.81a5.245 5.245 0 01-5.246 5.246 5.245 5.245 0 01-5.246-5.246 5.245 5.245 0 015.246-5.245 5.245 5.245 0 015.246 5.245z" fill="#2196F3"/></svg>