<svg width="61" height="61" fill="none" xmlns="http://www.w3.org/2000/svg"><rect x="1.383" y="1.259" width="59" height="59" rx="29.5" fill="#fff" stroke="#EAE7FB"/><path d="M40.8 23.85c-3.986 2.631-3.51 8.322.698 10.27-.185.476-.357.962-.563 1.432a15.479 15.479 0 01-2.636 4.126c-1.235 1.389-2.528 1.64-4.229.943a10.39 10.39 0 00-1.892-.6c-.88-.178-1.742.005-2.571.35-.347.146-.693.295-1.045.425-1.193.449-2.27.247-3.218-.627-1.042-.958-1.844-2.113-2.532-3.343-1.451-2.591-2.256-5.371-2.113-8.38.11-2.267.85-4.27 2.644-5.732 1.262-1.028 2.71-1.546 4.333-1.312.63.09 1.235.356 1.85.552.24.077.472.17.701.274.672.302 1.329.276 2.017.005.833-.326 1.675-.658 2.542-.86 2.194-.505 4.826.603 6.014 2.477zm-4.647-8.842c.362 2.879-2.223 6.176-5.065 5.959-.69-2.382 2.376-6.004 5.065-5.959z" fill="#000"/></svg>