<svg width="61" height="61" fill="none" xmlns="http://www.w3.org/2000/svg"><rect x=".906" y="1.259" width="59" height="59" rx="29.5" fill="#fff" stroke="#EAE7FB"/><path fill-rule="evenodd" clip-rule="evenodd" d="M26.32 21.606l-.053-3.635 2.162-1.266 3.212-2.163 1.32-.054 1.373 1.477.74 4.905-1.003 1.793-4.165-.107-3.586-.95z" fill="#fff"/><path fill-rule="evenodd" clip-rule="evenodd" d="M22.047 31.995l1.106-3.113 2.163-2.582 1.106-2.216.477-.736 7.907-1.213 1.584 2.48 4.428 10.596-1.53 1.895-4.008 6.703-.946.21-7.332.209-5.115-5.695-.843-4.745 1.003-1.793z" fill="#fff"/><path fill-rule="evenodd" clip-rule="evenodd" d="M32.17 23.929s-.262-.054.474-.214c.74-.156.744-.312.95-.526.21-.21.316-.687.316-1.213 0-.527.264-2.056.21-2.476-.05-.423-.95-2.002-1.316-2.216-.37-.21-4.482-.58-4.482-.58l-1.267 1.004-.95.892.215 2.85s-.268.896-.214 1.262c.053.37.583.793.793 1.003.21.214 1 1.06 1.262 1.32.268.263.321.526.95.316.633-.21 1.004-.21 1.48-.58.474-.37 1.58-.842 1.58-.842z" fill="#FF992B"/><path fill-rule="evenodd" clip-rule="evenodd" d="M29.744 19.445c.16-.424.37-1.213.736-1.476.37-.263 1.164-.481 1.637-.424.477.054 1.369.527 1.583.897.21.37.21 1.846.21 1.846l-.107 1.213-.737-.054-1.583-.633h-.263s-.263.103-1.056-.317c-.79-.423-.58-.628-.42-1.052zm-1.686 1.16a.72.72 0 01.14-.095c.32-.177 1.02-.436 1.02-.436s.682-1.735.102-2.422c-.575-.686-1.842-.58-1.842-.58s-1.369.79-1.32 1.107c.054.316.107 1.422.16 1.579.05.16.264 1.846.264 1.846l.473-.21.687-.526s.16-.103.316-.263z" fill="#fff"/><path fill-rule="evenodd" clip-rule="evenodd" d="M38.13 36.532l.764.057c.111.009.222.013.333.017.568.02 1.065.107 1.596.173.35.04.929.263.97.703.058.65-.131 1.365.42 1.632.563.383 1.82 1.267 1.82 1.267l.371.682-1.106 1.004-5.432 3.269-2.475-.843V42.49l.103-2.689-.264-2.426.42-.95 1.057-.317 1.422.424zm-15.708-1.184c-.054-.05-1.016.234-1.078.246-.448.066-1.015.374-1.015.864 0 .25-.02.51-.136.736-.09.177-.296.444-.292.502-.07.193-.197.464-.374.58-.206.02-1.118.102-1.118.102h-.794l-.473.576.37 1.534-.107 1.209-.366 1.373.892.473 6.752 1.793 1.53-.473.79-1.953-.161-.736-.736-1.477-3.684-5.35z" fill="#FFC200"/><path fill-rule="evenodd" clip-rule="evenodd" d="M25.858 18.797c-.11-3.68 1.325-5.305 4.305-5.358 2.978-.058 4.844 1.513 5.227 3.573.378 2.056.16 4.766.92 6.172.758 1.41 1.243 2.492 2.546 4.116 1.3 1.624 2.11 3.278 2.488 5.284.382 2.003.596 2.948-.379 3.98-.974 1.028-2.705 2.706-4.005.81-.653-.95-.723-2.13.379-2.38.703-.165 1.209-.111 1.731.16.526.271.65.144.02-.325-.633-.469-.76-.037-.542-.794.218-.756.502-2.117-.09-3.614-.276-.69-1.21-2.582-2.085-3.047-.079-.045-.309-.14-.152.054.234.292 1.496 2.15 1.854 3.256.382 1.189.436 2.324.239 3.043-.198.724-.543 1.012-.959 1.012-.415 0-.793.197-.793-.757 0-.958.099-2.401-.415-3.623-.514-1.217-1.14-2.056-1.275-2.57-.132-.514-.432-1.895-1.053-2.68-.625-.786-.896-1.3-.571-2.196.325-.893.082-1.135-.568-1.324-.65-.19-1.517-.46-1.73-.897-.219-.431-.083-1.3.402-1.513.49-.218 1.3.078 1.328.703.03.621-.271.946-.188 1.082.082.136.513.353.731.11.214-.246.272-1.003.054-1.706-.218-.703-.325-1.192-1.11-1.352-.786-.165-1.14-.112-1.518.378-.378.485-.543 1.27-.432 1.842.107.567-.11.242-.489.214-.378-.025-.271-.054-.65-.025-.378.025-.242-.218-.271-.625-.025-.407-.078-1.246-.65-1.57-.567-.326-1.542.053-1.517 1.41.029 1.353.49 2.002.76 1.513.272-.485.136-.243-.135-.46-.271-.214-.46-1.11-.165-1.378.3-.271.65-.271.843-.111.19.164.486.707.432 1.057-.053.353-.082.378-.432.625-.353.242-.489.46-.896.727-.407.272-.567.897-.242 1.057.325.165.353.136.62.543.272.407.732.596 1.871.407 1.135-.189 1.604-.46 2.463-.76.626-.215.407-.19.626-.432.213-.243.567.107.242.325-.325.218-1.057.431-1.6.62-.538.194-1.163.732-2.298.679-1.139-.054-.354-.029-.707-.054-.35-.028-.514.025-.136.296.383.272.354.354.678.46.325.112.757.112 1.275-.077.514-.193 1.814-.761 2.22-1.032.404-.272.729.082.326.353-.407.272-.518.19-.897.432-.378.247-1.081.65-1.542 1.085-.46.432-.567.461-1.139.486-.567.028-.92-.568-1.163-.839s-.218-.432-.514-.757c-.297-.325-.325-.246-.379.107-.053.354-.46 1.246-.814 1.842-.35.597-.378 1.329-.325 1.843.054.514-.082.567-.485 1.163-.407.596-1.086 2.356-1.192 2.924-.107.567-.243 1.735-.19 2.41.054.678-.135.813-.625.353-.485-.46-.65-.975-.62-1.653.024-.58.102-.987.176-1.2.074-.214.004-.363-.152-.1-.333.576-.35 1.571-.267 1.925.078.35.107.975 1 1.813.895.84 2.195 2.003 3.276 2.788 1.086.786 1.464 1.76-.135 2.463 1.003 1.357 1.546 2.06 1.11 2.953.896-.514.551-1.727.12-2.052-.437-.325-.174-.576.205-.329.378.242.514.728 2.007.703 1.488-.029 3.092-.177 3.988-1.48.892-1.3 1.065-.206.847.555-.214.757-.748 2.467.09 2.307.108-1.004.354-1.871.354-2.953 0-1.085.107-1.608.025-3.178-.082-1.514.572-1.616 1.246-1.616.678 0 .46.435.029.407-.436-.029-.893.136-.921 1.246-.029 1.11 0 1.003.189 2.002.189 1.004.218 1.3.053 2.41-.16 1.11-.296 1.706.436 2.385.728.678 1.838.485 2.41.053.567-.431 1.649-1.435 2.623-1.76.979-.325 2.007-.567 2.55-1.11.538-.542.402-.92-.165-1.217-.568-.3-1.11-.164-1.542-.65-.436-.49-.65-1.57-.49-2.142.165-.567.354-.325.354.082 0 .407.025.786.432 1.3s.785.76 1.435 1.163c.65.407 1.057 1.057.242 1.628-.81.568-1.27.893-1.949 1.164-.674.272-1.784.921-2.463 1.596-.678.678-1.057 1.274-2.385 1.274-1.324 0-1.932-.32-2.327-1.11-.272-.543-.407-.46-1.028-.49a102.63 102.63 0 00-4.334-.024c-1.624.025-2.167.296-2.899.892-.728.597-1 1.057-2.38.597-1.382-.461-2.114-.975-4.17-1.382-2.06-.407-.95-.218-2.196-.49-1.246-.267-1.164-.863-.999-1.352.16-.485.567-1.246.214-2.245-.35-1.004-.214-2.032.732-2.032.95 0 1.842.19 2.22-1.056.378-1.246.49-.272.378.053-.107.325-.16 1.217-.999 1.353-.839.136-1.028-.053-1.546-.053-.514 0-.728.353-.46.95.27.595.57 1.216.517 1.73-.057.514-.11.704-.489 1.193-.378.485-.325.732.354.892.674.165 1.895.49 3.03.761 1.14.267 1.222.267 3.195.785 1.978.514 2.52-.407 2.681-1.517.165-1.11-.596-2.167-1.3-3.224-.702-1.057-1.46-2.273-2.38-3.384-.921-1.11-1.464-1.192-1.925-.95-.46.247-.543.194-.567-.431-.03-.621-.083-1.028.431-1.95.514-.92.975-1.924 1.518-3.466.542-1.542 1.028-1.842 1.949-3.17.921-1.324.514-.81 1.164-1.702.65-.896.46-.732.407-2.142-.054-1.407-.107-2.221-.16-4.063zm-2.586 11.011c.14.17.337-.23.543-.382a.706.706 0 00.222-.645c-.02-.128-.226-.087-.267-.042-.128.128-.1.334-.19.51-.102.214-.448.387-.308.56zm11.64-5.658c.293.247.474.461.634.095.165-.366.165-.514-.23-.662-.39-.152-.567-.312-.744-.514-.177-.206-.239.144-.095.485.177.42.28.47.436.596zm-6.101-3.359c-.202-.041-.444-.025-.58.136-.054.053-.029.205.066.247.123.053.205-.07.23-.165.012-.041.029-.095.07-.107.053-.029.131-.004.189-.029.066-.024.041-.082.025-.082zm.958.037c.082.123.23.123.354.177.065.029.201.07.242-.025.095-.3-.313-.205-.502-.205-.04 0-.135-.013-.094.053zm1.974-1.312c.185.009.436.338.46.72.004.058.16.053.193-.004.087-.152.025-.32-.016-.502-.033-.148-.21-.3-.358-.366a.554.554 0 00-.333-.05c-.033.017-.148.19.054.202zm-4.034-.094c-.169.012-.107.144-.099.25.235.132.255.428.304.663.004.09.14.05.152.02.103-.189-.024-.403-.07-.625a.708.708 0 00-.226-.325c-.016-.016-.045.017-.061.017zm5.173-4.15c-.17-.135-.432-.188-.51.034-.083.189-.05.382-.095.588 0 .066-.082.082-.127.144-.066.078-.05.176-.017.205.156.16.444-.156.654-.267.156-.099.382.029.555-.082.05-.033.066-.111.016-.173-.11-.193-.304-.304-.476-.448z" fill="#000"/><path fill-rule="evenodd" clip-rule="evenodd" d="M37.759 36.802c.025-.111.082-.329.189-.362.037-.012.07.004.082.041.025.07-.05.47-.02.56.032.094.143.082.222.057.184-.062.292-.28.283-.3 0-.008-.004-.008-.012-.008-.029.008-.054.111-.136.135-.053.017-.094.009-.11-.045-.017-.057.053-.469.02-.563-.029-.095-.124-.12-.214-.09-.202.065-.288.373-.341.555h-.004l.028-.424-.25.082-.013.876.235-.078c.004-.152.012-.325.04-.436zm1.085.095c.202-.066.292-.305.284-.334-.004-.008-.008-.012-.016-.012-.017.008-.054.144-.17.18-.049.017-.094.005-.106-.028-.016-.05-.004-.135-.004-.21l.008-.394.276-.09-.004-.095-.276.09.013-.374-.247.14-.012.834c0 .09-.009.169.008.21.032.107.144.12.246.083z" fill="#000"/></svg>