<svg width="71" height="72" fill="none" xmlns="http://www.w3.org/2000/svg"><path d="M49.142 19.838c-8.946-8.945-23.406-8.945-32.284 0-8.945 8.945-8.945 23.405 0 32.283 8.945 8.945 23.406 8.945 32.284 0 8.877-8.878 8.877-23.338 0-32.283zM25.87 43.041a9.986 9.986 0 010-14.123 9.986 9.986 0 0114.124 0 9.986 9.986 0 010 14.123c-3.834 3.901-10.223 3.901-14.124 0z" fill="url(#paint0_radial)"/><path d="M26.61 40.284l2.826 2.825c1.21 1.21 1.48 2.892.672 3.968l-7.264 9.214c-.941 1.21-2.892 1.009-4.304-.336l-4.775-4.775c-1.345-1.346-1.547-3.363-.337-4.305l9.215-7.264c1.008-.807 2.757-.538 3.968.673z" fill="#9888C4"/><path opacity=".1" d="M30.108 47.077l-7.264 9.214-.067.067c.202.135.47.202.74.337 0 0 .067 0 .067-.068l7.264-9.214c.336-.47.47-1.009.47-1.681-.201-.068-.47-.068-.672-.135-.067.606-.27 1.144-.538 1.48z" fill="#000"/><path d="M39.793 40.284l-2.825 2.825c-1.21 1.21-1.48 2.892-.673 3.968l7.264 9.214c.942 1.21 2.892 1.009 4.305-.336l4.775-4.775c1.345-1.346 1.547-3.363.336-4.305l-9.214-7.264c-1.009-.807-2.758-.538-3.968.673z" fill="#9888C4"/><path opacity=".1" d="M42.618 38.603c-.068.201-.135.336-.202.538.47 0 .942.134 1.345.47l9.281 7.264c.135-.202.27-.47.337-.672l-9.08-7.13c-.47-.403-1.076-.538-1.681-.47z" fill="#000"/><path d="M39.793 32.011l-2.825-2.824c-1.21-1.21-1.48-2.892-.673-3.968l7.264-9.282c.942-1.21 2.892-1.009 4.305.336l4.775 4.776c1.345 1.345 1.547 3.363.336 4.304l-9.214 7.264c-1.009.874-2.758.538-3.968-.605z" fill="#9888C4"/><path opacity=".1" d="M36.296 25.151l7.263-9.214.135-.134c-.135-.068-.336-.202-.47-.27l-7.332 9.282c-.336.403-.47.942-.47 1.547.134 0 .268.067.403.067.067-.47.202-.941.47-1.278z" fill="#000"/><path d="M26.61 32.011l2.826-2.824c1.21-1.211 1.48-2.892.672-3.969l-7.264-9.28c-.941-1.144-2.959-1.01-4.304.335l-4.775 4.776c-1.345 1.345-1.547 3.362-.337 4.304l9.215 7.264c1.008.874 2.757.538 3.968-.606z" fill="#9888C4"/><path d="M15.58 70.55c-.134 0-.269-.068-.269-.202a3.185 3.185 0 00-2.42-2.422c-.135 0-.203-.134-.203-.269 0-.134.068-.269.202-.269a3.185 3.185 0 002.421-2.42c.068-.27.538-.27.606 0a3.185 3.185 0 002.42 2.42c.136 0 .203.135.203.27 0 .134-.067.268-.202.268a3.185 3.185 0 00-2.421 2.422c-.068.067-.202.201-.337.201zM7.039 16.475c-.135 0-.27-.134-.336-.269a3.82 3.82 0 00-2.758-2.757c-.134-.068-.269-.202-.269-.337 0-.134.135-.269.27-.336a3.82 3.82 0 002.757-2.758c.067-.268.605-.268.672 0a3.82 3.82 0 002.758 2.758c.134.067.269.202.269.336 0 .135-.135.27-.27.337a3.82 3.82 0 00-2.757 2.757c-.067.202-.202.27-.336.27zm59.455 14.998c-.202 0-.336-.134-.404-.336a4.679 4.679 0 00-3.43-3.43c-.201-.067-.336-.202-.336-.404 0-.201.135-.336.336-.403a4.68 4.68 0 003.43-3.43c.068-.404.74-.404.807 0a4.68 4.68 0 003.43 3.43c.202.067.337.202.337.404 0 .201-.135.336-.337.403a4.68 4.68 0 00-3.43 3.43c0 .202-.201.336-.403.336z" fill="#DBD9E7"/><path opacity=".1" d="M12.958 26.093l9.214 7.264c.336.269.672.403 1.076.403.067-.269.134-.538.202-.74a2.273 2.273 0 01-.807-.403l-9.215-7.264c-.134-.134-.269-.269-.403-.47l-.404.806c.068.135.202.27.337.404z" fill="#000"/><path d="M1.726 50.238a41.328 41.328 0 003.564 5.986M32.933 1.14c-6.86 0-13.25 2.018-18.63 5.448M27.014 69.54c1.95.337 3.901.539 5.919.539 19.033 0 34.435-15.402 34.435-34.436" stroke="#DBD9E7" stroke-width="2" stroke-miterlimit="10" stroke-linecap="round"/><path d="M28.023 41.696l-1.412-1.412c-1.21-1.21-2.892-1.48-3.968-.672l-9.215 7.263c-1.21.942-1.008 2.892.337 4.305l2.421 2.42 11.837-11.904z" fill="url(#paint1_linear)"/><path d="M28.09 30.532l1.413-1.413c1.21-1.21 1.48-2.892.672-3.968l-7.264-9.214c-.941-1.21-2.892-1.009-4.304.336l-2.421 2.422L28.09 30.532z" fill="url(#paint2_linear)"/><path d="M38.38 30.666l1.413 1.413c1.21 1.21 2.892 1.48 3.968.672l9.214-7.263c1.21-.942 1.01-2.892-.336-4.305l-2.421-2.421L38.38 30.666z" fill="url(#paint3_linear)"/><path d="M38.313 41.696l-1.412 1.413c-1.21 1.21-1.48 2.892-.673 3.968l7.264 9.214c.942 1.21 2.892 1.009 4.305-.336L50.15 53.6 38.313 41.696z" fill="url(#paint4_linear)"/><defs><linearGradient id="paint1_linear" x1="6.37" y1="56.571" x2="52.204" y2="21.49" gradientUnits="userSpaceOnUse"><stop offset=".001" stop-color="#fff" stop-opacity=".6"/><stop offset=".622" stop-color="#fff" stop-opacity="0"/><stop offset="1" stop-color="#fff" stop-opacity=".4"/></linearGradient><linearGradient id="paint2_linear" x1="16.175" y1="13.821" x2="34.32" y2="32.37" gradientUnits="userSpaceOnUse"><stop offset=".001" stop-color="#fff" stop-opacity=".6"/><stop offset="1" stop-color="#fff" stop-opacity="0"/></linearGradient><linearGradient id="paint3_linear" x1="54.519" y1="18.912" x2="40.406" y2="33.563" gradientUnits="userSpaceOnUse"><stop offset=".001" stop-color="#fff" stop-opacity=".6"/><stop offset="1" stop-color="#fff" stop-opacity="0"/></linearGradient><linearGradient id="paint4_linear" x1="48.009" y1="55.818" x2="33.358" y2="41.839" gradientUnits="userSpaceOnUse"><stop offset=".001" stop-color="#fff" stop-opacity=".6"/><stop offset="1" stop-color="#fff" stop-opacity="0"/></linearGradient><radialGradient id="paint0_radial" cx="0" cy="0" r="1" gradientUnits="userSpaceOnUse" gradientTransform="translate(32.969 35.983) scale(22.8415)"><stop offset=".184" stop-color="#A8A8A8"/><stop offset=".833" stop-color="#fff"/><stop offset="1" stop-color="#D1D1D1"/></radialGradient></defs></svg>