<svg viewBox="0 0 58 58" fill="none" xmlns="http://www.w3.org/2000/svg"><path d="M57.625 28.812c0 15.913-12.9 28.813-28.813 28.813C12.9 57.625 0 44.725 0 28.812 0 12.9 12.9 0 28.812 0c15.913 0 28.813 12.9 28.813 28.812z" fill="#F5F7F8"/><path d="M42.526 18.666l-1.087-1.522-20.06 11.522-9.703-5.58a8.855 8.855 0 00-.435 1.885l10.211 5.869 21.073-12.174z" fill="#1A9F29"/><path d="M21.386 33.017l-10.428-6.015c-.072.363-.072.798-.072 1.16 0 9.492 7.676 17.246 17.235 17.246 9.487 0 17.235-7.681 17.235-17.246 0-2.826-.651-5.507-1.883-7.826l-22.087 12.68z" fill="#1A9F29"/><path d="M40.077 15.697c-.507-.507-1.014-.87-1.521-1.304L21.393 24.32l-8.255-4.71c-.29.507-.58 1.087-.87 1.667l9.053 5.217 18.756-10.797z" fill="#1A9F29"/><path d="M36.812 13.231c-.652-.362-1.303-.724-2.028-1.014L21.387 19.97l-6.01-3.405c-.435.434-.797.942-1.232 1.449l7.17 4.13 15.497-8.913z" fill="#1A9F29"/></svg>