<svg width="263" height="202" fill="none" xmlns="http://www.w3.org/2000/svg"><path stroke="#9888C4" stroke-width="1.5" stroke-linecap="round" stroke-dasharray="0.01 10" d="M.75 1.25h261.5m-261.5 10h261.5m-261.5 10h261.5m-261.5 10h261.5m-261.5 10h261.5m-261.5 10h261.5m-261.5 10h261.5m-261.5 10h261.5m-261.5 10h261.5m-261.5 10h261.5m-261.5 10h261.5m-261.5 10h261.5m-261.5 20h261.5m-261.5-10h261.5m-261.5 20h261.5m-261.5 10h261.5m-261.5 10h261.5m-261.5 10h261.5m-261.5 20h261.5m-261.5-10h261.5m-261.5 20h261.5"/></svg>