<svg viewBox="0 0 241 227" fill="none" xmlns="http://www.w3.org/2000/svg"><g clip-path="url(#clip0)" fill="#877CB9"><path d="M8.75 226.49a.737.737 0 01-.53-.21.822.822 0 01-.16-.28.66.66 0 010-.28.71.71 0 010-.29.779.779 0 01.16-.24.791.791 0 011.07 0 .986.986 0 01.16.24.927.927 0 01.05.29.872.872 0 01-.05.28.713.713 0 01-.16.25.996.996 0 01-.25.16.717.717 0 01-.29.08zm210 .01a.757.757 0 01-.527-.223.757.757 0 01-.223-.527c0-.197.078-.386.216-.527a.755.755 0 01.524-.223c.199 0 .39.079.53.22a.747.747 0 010 1.06.747.747 0 01-.53.22h.01zm-15 0a.757.757 0 01-.527-.223.757.757 0 01-.223-.527c0-.197.078-.386.216-.527a.755.755 0 01.524-.223c.199 0 .39.079.53.22a.747.747 0 010 1.06.747.747 0 01-.53.22h.01zm-15 0a.757.757 0 01-.527-.223.757.757 0 01-.223-.527c0-.197.078-.386.216-.527a.755.755 0 01.524-.223c.199 0 .39.079.53.22a.747.747 0 010 1.06.747.747 0 01-.53.22h.01zm-15 0a.757.757 0 01-.527-.223.757.757 0 01-.223-.527c0-.197.078-.386.216-.527a.755.755 0 01.524-.223c.199 0 .39.079.53.22a.747.747 0 010 1.06.747.747 0 01-.53.22h.01zm-15 0a.757.757 0 01-.527-.223.757.757 0 01-.223-.527c0-.197.078-.386.216-.527a.755.755 0 01.524-.223c.199 0 .39.079.53.22a.747.747 0 010 1.06.747.747 0 01-.53.22h.01zm-15 0a.757.757 0 01-.527-.223.757.757 0 01-.223-.527c0-.197.078-.386.216-.527a.755.755 0 01.524-.223c.199 0 .39.079.53.22a.747.747 0 010 1.06.747.747 0 01-.53.22h.01zm-15 0a.757.757 0 01-.527-.223.757.757 0 01-.223-.527c0-.197.078-.386.216-.527a.755.755 0 01.524-.223c.199 0 .39.079.53.22a.747.747 0 010 1.06.747.747 0 01-.53.22h.01zm-15 0a.757.757 0 01-.527-.223.757.757 0 01-.223-.527c0-.197.078-.386.216-.527a.755.755 0 01.524-.223c.199 0 .39.079.53.22a.747.747 0 010 1.06.747.747 0 01-.53.22h.01zm-15 0a.758.758 0 01-.75-.75.752.752 0 01.74-.75.749.749 0 01.53 1.28.749.749 0 01-.53.22h.01zm-15 0a.758.758 0 01-.75-.75.752.752 0 01.74-.75.749.749 0 01.53 1.28.749.749 0 01-.53.22h.01zm-15 0a.758.758 0 01-.75-.75.752.752 0 01.74-.75.749.749 0 01.53 1.28.749.749 0 01-.53.22h.01zm-15 0a.758.758 0 01-.75-.75.752.752 0 01.74-.75.749.749 0 01.53 1.28.749.749 0 01-.53.22h.01zm-15 0a.758.758 0 01-.75-.75.752.752 0 01.74-.75.749.749 0 01.53 1.28.749.749 0 01-.53.22h.01zm-15 0a.758.758 0 01-.75-.75.752.752 0 01.74-.75.749.749 0 01.53 1.28.749.749 0 01-.53.22h.01zm210-.01a.656.656 0 01-.28-.05.834.834 0 01-.25-.16.77.77 0 01-.22-.53c0-.1.02-.198.06-.29a.756.756 0 01.708-.47c.1 0 .199.021.292.06a.7.7 0 01.24.17c.071.069.128.15.17.24a.92.92 0 01.05.29.732.732 0 01-.22.53.698.698 0 01-.55.21zM8.76 211.5a.828.828 0 01-.54-.22.74.74 0 01-.21-.53.71.71 0 010-.29.779.779 0 01.16-.24.76.76 0 011.06 0 .718.718 0 01.17.81.777.777 0 01-.64.47zm209.99 0a.757.757 0 01-.527-.223.757.757 0 01-.223-.527c0-.197.078-.386.216-.527a.755.755 0 01.524-.223c.199 0 .39.079.53.22a.747.747 0 010 1.06.747.747 0 01-.53.22h.01zm-15 0a.757.757 0 01-.527-.223.757.757 0 01-.223-.527c0-.197.078-.386.216-.527a.755.755 0 01.524-.223c.199 0 .39.079.53.22a.747.747 0 010 1.06.747.747 0 01-.53.22h.01zm-15 0a.757.757 0 01-.527-.223.757.757 0 01-.223-.527c0-.197.078-.386.216-.527a.755.755 0 01.524-.223c.199 0 .39.079.53.22a.747.747 0 010 1.06.747.747 0 01-.53.22h.01zm-15 0a.757.757 0 01-.527-.223.757.757 0 01-.223-.527c0-.197.078-.386.216-.527a.755.755 0 01.524-.223c.199 0 .39.079.53.22a.747.747 0 010 1.06.747.747 0 01-.53.22h.01zm-15 0a.757.757 0 01-.527-.223.757.757 0 01-.223-.527c0-.197.078-.386.216-.527a.755.755 0 01.524-.223c.199 0 .39.079.53.22a.747.747 0 010 1.06.747.747 0 01-.53.22h.01zm-15 0a.757.757 0 01-.527-.223.757.757 0 01-.223-.527c0-.197.078-.386.216-.527a.755.755 0 01.524-.223c.199 0 .39.079.53.22a.747.747 0 010 1.06.747.747 0 01-.53.22h.01zm-15 0a.757.757 0 01-.527-.223.757.757 0 01-.223-.527c0-.197.078-.386.216-.527a.755.755 0 01.524-.223c.199 0 .39.079.53.22a.747.747 0 010 1.06.747.747 0 01-.53.22h.01zm-15 0a.757.757 0 01-.527-.223.757.757 0 01-.223-.527c0-.197.078-.386.216-.527a.755.755 0 01.524-.223c.199 0 .39.079.53.22a.747.747 0 010 1.06.747.747 0 01-.53.22h.01zm-15 0a.758.758 0 01-.75-.75.752.752 0 01.74-.75.749.749 0 01.53 1.28.749.749 0 01-.53.22h.01zm-15 0a.758.758 0 01-.75-.75.752.752 0 01.74-.75.749.749 0 01.53 1.28.749.749 0 01-.53.22h.01zm-15 0a.758.758 0 01-.75-.75.752.752 0 01.74-.75.749.749 0 01.53 1.28.749.749 0 01-.53.22h.01zm-15 0a.758.758 0 01-.75-.75.752.752 0 01.74-.75.749.749 0 01.53 1.28.749.749 0 01-.53.22h.01zm-15 0a.758.758 0 01-.75-.75.752.752 0 01.74-.75.749.749 0 01.53 1.28.749.749 0 01-.53.22h.01zm-15 0a.758.758 0 01-.75-.75.752.752 0 01.74-.75.749.749 0 01.53 1.28.749.749 0 01-.53.22h.01zm210 0a.749.749 0 11.53-1.28c.071.069.128.15.17.24a.92.92 0 01.05.29.71.71 0 01-.22.53.749.749 0 01-.53.22zm-225-15a.71.71 0 01-.28-.06.996.996 0 01-.25-.16.822.822 0 01-.16-.28.718.718 0 010-.57.779.779 0 01.16-.24.76.76 0 011.06 0 .83.83 0 01.17.24.927.927 0 01.05.29.872.872 0 01-.05.28.777.777 0 01-.41.41.724.724 0 01-.29.09zm210 0a.757.757 0 01-.527-.223.757.757 0 01-.223-.527c0-.197.078-.386.216-.527a.755.755 0 01.524-.223c.199 0 .39.079.53.22a.747.747 0 010 1.06.747.747 0 01-.53.22h.01zm-15 0a.757.757 0 01-.527-.223.757.757 0 01-.223-.527c0-.197.078-.386.216-.527a.755.755 0 01.524-.223c.199 0 .39.079.53.22a.747.747 0 010 1.06.747.747 0 01-.53.22h.01zm-15 0a.757.757 0 01-.527-.223.757.757 0 01-.223-.527c0-.197.078-.386.216-.527a.755.755 0 01.524-.223c.199 0 .39.079.53.22a.747.747 0 010 1.06.747.747 0 01-.53.22h.01zm-15 0a.757.757 0 01-.527-.223.757.757 0 01-.223-.527c0-.197.078-.386.216-.527a.755.755 0 01.524-.223c.199 0 .39.079.53.22a.747.747 0 010 1.06.747.747 0 01-.53.22h.01zm-15 0a.757.757 0 01-.527-.223.757.757 0 01-.223-.527c0-.197.078-.386.216-.527a.755.755 0 01.524-.223c.199 0 .39.079.53.22a.747.747 0 010 1.06.747.747 0 01-.53.22h.01zm-15 0a.757.757 0 01-.527-.223.757.757 0 01-.223-.527c0-.197.078-.386.216-.527a.755.755 0 01.524-.223c.199 0 .39.079.53.22a.747.747 0 010 1.06.747.747 0 01-.53.22h.01zm-15 0a.757.757 0 01-.527-.223.757.757 0 01-.223-.527c0-.197.078-.386.216-.527a.755.755 0 01.524-.223c.199 0 .39.079.53.22a.747.747 0 010 1.06.747.747 0 01-.53.22h.01zm-15 0a.757.757 0 01-.527-.223.757.757 0 01-.223-.527c0-.197.078-.386.216-.527a.755.755 0 01.524-.223c.199 0 .39.079.53.22a.747.747 0 010 1.06.747.747 0 01-.53.22h.01zm-15 0a.758.758 0 01-.75-.75.752.752 0 01.74-.75.749.749 0 01.53 1.28.749.749 0 01-.53.22h.01zm-15 0a.758.758 0 01-.75-.75.752.752 0 01.74-.75.749.749 0 01.53 1.28.749.749 0 01-.53.22h.01zm-15 0a.758.758 0 01-.75-.75.752.752 0 01.74-.75.749.749 0 01.53 1.28.749.749 0 01-.53.22h.01zm-15 0a.758.758 0 01-.75-.75.752.752 0 01.74-.75.749.749 0 01.53 1.28.749.749 0 01-.53.22h.01zm-15 0a.758.758 0 01-.75-.75.752.752 0 01.74-.75.749.749 0 01.53 1.28.749.749 0 01-.53.22h.01zm-15 0a.758.758 0 01-.75-.75.752.752 0 01.74-.75.749.749 0 01.53 1.28.749.749 0 01-.53.22h.01zm210 0a.77.77 0 01-.53-.22.834.834 0 01-.22-.53.752.752 0 011.28-.53c.071.069.128.15.17.24a.92.92 0 01.05.29.865.865 0 01-.05.28.776.776 0 01-.7.47zm-225-15a.748.748 0 01-.53-.22.74.74 0 01-.21-.53.71.71 0 010-.29.779.779 0 01.16-.24.781.781 0 01.82-.17.7.7 0 01.24.17.83.83 0 01.17.24.927.927 0 01.05.29.708.708 0 01-.22.53.777.777 0 01-.48.22zm210 0a.757.757 0 01-.527-.223.757.757 0 01-.223-.527c0-.197.078-.386.216-.527a.755.755 0 01.524-.223c.199 0 .39.079.53.22a.747.747 0 010 1.06.747.747 0 01-.53.22h.01zm-15 0a.757.757 0 01-.527-.223.757.757 0 01-.223-.527c0-.197.078-.386.216-.527a.755.755 0 01.524-.223c.199 0 .39.079.53.22a.747.747 0 010 1.06.747.747 0 01-.53.22h.01zm-15 0a.757.757 0 01-.527-.223.757.757 0 01-.223-.527c0-.197.078-.386.216-.527a.755.755 0 01.524-.223c.199 0 .39.079.53.22a.747.747 0 010 1.06.747.747 0 01-.53.22h.01zm-15 0a.757.757 0 01-.527-.223.757.757 0 01-.223-.527c0-.197.078-.386.216-.527a.755.755 0 01.524-.223c.199 0 .39.079.53.22a.747.747 0 010 1.06.747.747 0 01-.53.22h.01zm-15 0a.757.757 0 01-.527-.223.757.757 0 01-.223-.527c0-.197.078-.386.216-.527a.755.755 0 01.524-.223c.199 0 .39.079.53.22a.747.747 0 010 1.06.747.747 0 01-.53.22h.01zm-15 0a.757.757 0 01-.527-.223.757.757 0 01-.223-.527c0-.197.078-.386.216-.527a.755.755 0 01.524-.223c.199 0 .39.079.53.22a.747.747 0 010 1.06.747.747 0 01-.53.22h.01zm-15 0a.757.757 0 01-.527-.223.757.757 0 01-.223-.527c0-.197.078-.386.216-.527a.755.755 0 01.524-.223c.199 0 .39.079.53.22a.747.747 0 010 1.06.747.747 0 01-.53.22h.01zm-15 0a.757.757 0 01-.527-.223.757.757 0 01-.223-.527c0-.197.078-.386.216-.527a.755.755 0 01.524-.223c.199 0 .39.079.53.22a.747.747 0 010 1.06.747.747 0 01-.53.22h.01zm-15 0a.758.758 0 01-.75-.75.752.752 0 01.74-.75.749.749 0 01.53 1.28.749.749 0 01-.53.22h.01zm-15 0a.758.758 0 01-.75-.75.752.752 0 01.74-.75.749.749 0 01.53 1.28.749.749 0 01-.53.22h.01zm-15 0a.758.758 0 01-.75-.75.752.752 0 01.74-.75.749.749 0 01.53 1.28.749.749 0 01-.53.22h.01zm-30 0a.758.758 0 01-.75-.75.752.752 0 01.74-.75.749.749 0 01.53 1.28.749.749 0 01-.53.22h.01zm-15 0a.758.758 0 01-.75-.75.752.752 0 01.74-.75.749.749 0 01.53 1.28.749.749 0 01-.53.22h.01zm210 0a.674.674 0 01-.28-.06.682.682 0 01-.41-.41.674.674 0 01-.06-.28.776.776 0 01.47-.7.76.76 0 01.81.17.637.637 0 01.16.24.747.747 0 01-.16.82.747.747 0 01-.53.22zm-225-15a.75.75 0 01-.53-1.28.781.781 0 01.82-.17.7.7 0 01.24.17.718.718 0 01.17.81.777.777 0 01-.7.47zm210 0a.757.757 0 01-.527-.223.757.757 0 01-.223-.527c0-.197.078-.386.216-.527a.755.755 0 01.524-.223c.199 0 .39.079.53.22a.747.747 0 010 1.06.747.747 0 01-.53.22h.01zm-15 0a.757.757 0 01-.527-.223.757.757 0 01-.223-.527c0-.197.078-.386.216-.527a.755.755 0 01.524-.223c.199 0 .39.079.53.22a.747.747 0 010 1.06.747.747 0 01-.53.22h.01zm-15 0a.757.757 0 01-.527-.223.757.757 0 01-.223-.527c0-.197.078-.386.216-.527a.755.755 0 01.524-.223c.199 0 .39.079.53.22a.747.747 0 010 1.06.747.747 0 01-.53.22h.01zm-15 0a.757.757 0 01-.527-.223.757.757 0 01-.223-.527c0-.197.078-.386.216-.527a.755.755 0 01.524-.223c.199 0 .39.079.53.22a.747.747 0 010 1.06.747.747 0 01-.53.22h.01zm-30 0a.757.757 0 01-.527-.223.757.757 0 01-.223-.527c0-.197.078-.386.216-.527a.755.755 0 01.524-.223c.199 0 .39.079.53.22a.747.747 0 010 1.06.747.747 0 01-.53.22h.01zm-15 0a.757.757 0 01-.527-.223.757.757 0 01-.223-.527c0-.197.078-.386.216-.527a.755.755 0 01.524-.223c.199 0 .39.079.53.22a.747.747 0 010 1.06.747.747 0 01-.53.22h.01zm-15 0a.757.757 0 01-.527-.223.757.757 0 01-.223-.527c0-.197.078-.386.216-.527a.755.755 0 01.524-.223c.199 0 .39.079.53.22a.747.747 0 010 1.06.747.747 0 01-.53.22h.01zm-15 0a.758.758 0 01-.75-.75.752.752 0 01.74-.75.749.749 0 01.53 1.28.749.749 0 01-.53.22h.01zm-15 0a.758.758 0 01-.75-.75.752.752 0 01.74-.75.749.749 0 01.53 1.28.749.749 0 01-.53.22h.01zm-15 0a.758.758 0 01-.75-.75.752.752 0 01.74-.75.749.749 0 01.53 1.28.749.749 0 01-.53.22h.01zm-30 0a.758.758 0 01-.75-.75.752.752 0 01.74-.75.749.749 0 01.53 1.28.749.749 0 01-.53.22h.01zm-15 0a.758.758 0 01-.75-.75.752.752 0 01.74-.75.749.749 0 01.53 1.28.749.749 0 01-.53.22h.01zm210 0a.747.747 0 01-.53-.22.747.747 0 010-1.06.75.75 0 01.25-.17.76.76 0 01.81.17c.141.141.22.331.22.53a.865.865 0 01-.05.28.75.75 0 01-.17.25.749.749 0 01-.53.22zm-224.99-15a.828.828 0 01-.54-.22.771.771 0 01-.22-.53.779.779 0 01.22-.53.791.791 0 011.07 0 .986.986 0 01.16.24.927.927 0 01.05.29.76.76 0 01-.21.53c-.075.065-.16.119-.25.16a.71.71 0 01-.28.06zm209.99 0a.757.757 0 01-.527-.223.757.757 0 01-.223-.527c0-.197.078-.386.216-.527a.755.755 0 01.524-.223c.199 0 .39.079.53.22a.747.747 0 010 1.06.747.747 0 01-.53.22h.01zm-15 0a.757.757 0 01-.527-.223.757.757 0 01-.223-.527c0-.197.078-.386.216-.527a.755.755 0 01.524-.223c.199 0 .39.079.53.22a.747.747 0 010 1.06.747.747 0 01-.53.22h.01zm-15 0a.757.757 0 01-.527-.223.757.757 0 01-.223-.527c0-.197.078-.386.216-.527a.755.755 0 01.524-.223c.199 0 .39.079.53.22a.747.747 0 010 1.06.747.747 0 01-.53.22h.01zm-15 0a.757.757 0 01-.527-.223.757.757 0 01-.223-.527c0-.197.078-.386.216-.527a.755.755 0 01.524-.223c.199 0 .39.079.53.22a.747.747 0 010 1.06.747.747 0 01-.53.22h.01zm-15 0a.757.757 0 01-.527-.223.757.757 0 01-.223-.527c0-.197.078-.386.216-.527a.755.755 0 01.524-.223c.199 0 .39.079.53.22a.747.747 0 010 1.06.747.747 0 01-.53.22h.01zm-15 0a.757.757 0 01-.527-.223.757.757 0 01-.223-.527c0-.197.078-.386.216-.527a.755.755 0 01.524-.223c.199 0 .39.079.53.22a.747.747 0 010 1.06.747.747 0 01-.53.22h.01zm-15 0a.757.757 0 01-.527-.223.757.757 0 01-.223-.527c0-.197.078-.386.216-.527a.755.755 0 01.524-.223c.199 0 .39.079.53.22a.747.747 0 010 1.06.747.747 0 01-.53.22h.01zm-15 0a.757.757 0 01-.527-.223.757.757 0 01-.223-.527c0-.197.078-.386.216-.527a.755.755 0 01.524-.223c.199 0 .39.079.53.22a.747.747 0 010 1.06.747.747 0 01-.53.22h.01zm-15 0a.758.758 0 01-.75-.75.752.752 0 01.74-.75.749.749 0 01.53 1.28.749.749 0 01-.53.22h.01zm-15 0a.758.758 0 01-.75-.75.752.752 0 01.74-.75.749.749 0 01.53 1.28.749.749 0 01-.53.22h.01zm-15 0a.758.758 0 01-.75-.75.752.752 0 01.74-.75.749.749 0 01.53 1.28.749.749 0 01-.53.22h.01zm-15 0a.758.758 0 01-.75-.75.752.752 0 01.74-.75.749.749 0 01.53 1.28.749.749 0 01-.53.22h.01zm-15 0a.758.758 0 01-.75-.75.752.752 0 01.74-.75.749.749 0 01.53 1.28.749.749 0 01-.53.22h.01zm-15 0a.758.758 0 01-.75-.75.752.752 0 01.74-.75.749.749 0 01.53 1.28.749.749 0 01-.53.22h.01zm210 0a.834.834 0 01-.53-.22.77.77 0 01-.22-.53.752.752 0 011.28-.53c.071.069.128.15.17.24a.92.92 0 01.05.29.723.723 0 01-.22.53.749.749 0 01-.53.22zm-225-15a.768.768 0 01-.53-.22.822.822 0 01-.16-.28.66.66 0 010-.28.71.71 0 010-.29.779.779 0 01.16-.24.76.76 0 011.06 0 .83.83 0 01.17.24.927.927 0 01.05.29.872.872 0 01-.05.28.841.841 0 01-.17.25.753.753 0 01-.53.25zm210 0a.757.757 0 01-.527-.223.757.757 0 01-.223-.527c0-.197.078-.386.216-.527a.755.755 0 01.524-.223c.199 0 .39.079.53.22a.747.747 0 010 1.06.747.747 0 01-.53.22h.01zm-15 0a.757.757 0 01-.527-.223.757.757 0 01-.223-.527c0-.197.078-.386.216-.527a.755.755 0 01.524-.223c.199 0 .39.079.53.22a.747.747 0 010 1.06.747.747 0 01-.53.22h.01zm-15 0a.757.757 0 01-.527-.223.757.757 0 01-.223-.527c0-.197.078-.386.216-.527a.755.755 0 01.524-.223c.199 0 .39.079.53.22a.747.747 0 010 1.06.747.747 0 01-.53.22h.01zm-15 0a.757.757 0 01-.527-.223.757.757 0 01-.223-.527c0-.197.078-.386.216-.527a.755.755 0 01.524-.223c.199 0 .39.079.53.22a.747.747 0 010 1.06.747.747 0 01-.53.22h.01zm-15 0a.757.757 0 01-.527-.223.757.757 0 01-.223-.527c0-.197.078-.386.216-.527a.755.755 0 01.524-.223c.199 0 .39.079.53.22a.747.747 0 010 1.06.747.747 0 01-.53.22h.01zm-15 0a.757.757 0 01-.527-.223.757.757 0 01-.223-.527c0-.197.078-.386.216-.527a.755.755 0 01.524-.223c.199 0 .39.079.53.22a.747.747 0 010 1.06.747.747 0 01-.53.22h.01zm-15 0a.757.757 0 01-.527-.223.757.757 0 01-.223-.527c0-.197.078-.386.216-.527a.755.755 0 01.524-.223c.199 0 .39.079.53.22a.747.747 0 010 1.06.747.747 0 01-.53.22h.01zm-15 0a.757.757 0 01-.527-.223.757.757 0 01-.223-.527c0-.197.078-.386.216-.527a.755.755 0 01.524-.223c.199 0 .39.079.53.22a.747.747 0 010 1.06.747.747 0 01-.53.22h.01zm-15 0a.758.758 0 01-.75-.75.752.752 0 01.74-.75.749.749 0 01.53 1.28.749.749 0 01-.53.22h.01zm-30 0a.758.758 0 01-.75-.75.752.752 0 01.74-.75.749.749 0 01.53 1.28.749.749 0 01-.53.22h.01zm-15 0a.758.758 0 01-.75-.75.752.752 0 01.74-.75.749.749 0 01.53 1.28.749.749 0 01-.53.22h.01zm-15 0a.758.758 0 01-.75-.75.752.752 0 01.74-.75.749.749 0 01.53 1.28.749.749 0 01-.53.22h.01zm-15 0a.758.758 0 01-.75-.75.752.752 0 01.74-.75.749.749 0 01.53 1.28.749.749 0 01-.53.22h.01z"/><path d="M83.748 136.5h.002-.01.008a.757.757 0 01-.748-.75.752.752 0 01.74-.75.749.749 0 01.53 1.28.75.75 0 01-.522.22z" fill-opacity=".4"/><path d="M233.75 136.5a.749.749 0 01-.53-1.28.769.769 0 011.06 0 .747.747 0 010 1.06.749.749 0 01-.53.22zm-225-15a.75.75 0 01-.69-1.04 1.01 1.01 0 01.16-.24.768.768 0 011.23.24.71.71 0 01.05.29.75.75 0 01-.75.75zm210 0a.757.757 0 01-.527-.223.757.757 0 01-.223-.527c0-.197.078-.386.216-.527a.755.755 0 01.524-.223c.199 0 .39.079.53.22a.747.747 0 010 1.06.747.747 0 01-.53.22h.01zm-15 0a.757.757 0 01-.527-.223.757.757 0 01-.223-.527c0-.197.078-.386.216-.527a.755.755 0 01.524-.223c.199 0 .39.079.53.22a.747.747 0 010 1.06.747.747 0 01-.53.22h.01zm-15 0a.757.757 0 01-.527-.223.757.757 0 01-.223-.527c0-.197.078-.386.216-.527a.755.755 0 01.524-.223c.199 0 .39.079.53.22a.747.747 0 010 1.06.747.747 0 01-.53.22h.01zm-15 0a.757.757 0 01-.527-.223.757.757 0 01-.223-.527c0-.197.078-.386.216-.527a.755.755 0 01.524-.223c.199 0 .39.079.53.22a.747.747 0 010 1.06.747.747 0 01-.53.22h.01zm-15 0a.757.757 0 01-.527-.223.757.757 0 01-.223-.527c0-.197.078-.386.216-.527a.755.755 0 01.524-.223c.199 0 .39.079.53.22a.747.747 0 010 1.06.747.747 0 01-.53.22h.01zm-15 0a.757.757 0 01-.527-.223.757.757 0 01-.223-.527c0-.197.078-.386.216-.527a.755.755 0 01.524-.223c.199 0 .39.079.53.22a.747.747 0 010 1.06.747.747 0 01-.53.22h.01zm-15 0a.757.757 0 01-.527-.223.757.757 0 01-.223-.527c0-.197.078-.386.216-.527a.755.755 0 01.524-.223c.199 0 .39.079.53.22a.747.747 0 010 1.06.747.747 0 01-.53.22h.01zm-15 0a.757.757 0 01-.527-.223.757.757 0 01-.223-.527c0-.197.078-.386.216-.527a.755.755 0 01.524-.223c.199 0 .39.079.53.22a.747.747 0 010 1.06.747.747 0 01-.53.22h.01zm-15 0a.758.758 0 01-.75-.75.752.752 0 01.74-.75.749.749 0 01.53 1.28.749.749 0 01-.53.22h.01zm-15 0a.758.758 0 01-.75-.75.752.752 0 01.74-.75.749.749 0 01.53 1.28.749.749 0 01-.53.22h.01zm-15 0a.758.758 0 01-.75-.75.752.752 0 01.74-.75.749.749 0 01.53 1.28.749.749 0 01-.53.22h.01zm-15 0a.758.758 0 01-.75-.75.752.752 0 01.74-.75.749.749 0 01.53 1.28.749.749 0 01-.53.22h.01zm-15 0a.758.758 0 01-.75-.75.752.752 0 01.74-.75.749.749 0 01.53 1.28.749.749 0 01-.53.22h.01zm-15 0a.758.758 0 01-.75-.75.752.752 0 01.74-.75.749.749 0 01.53 1.28.749.749 0 01-.53.22h.01zm210 0a.749.749 0 01-.69-1.04.756.756 0 01.708-.47c.1 0 .199.021.292.06.18.086.324.231.41.41a.92.92 0 01.05.29.77.77 0 01-.22.53.776.776 0 01-.55.22zm-225-15a.768.768 0 01-.53-.22.749.749 0 010-1.06.768.768 0 011.06 0 .749.749 0 01-.53 1.28zm210 0a.757.757 0 01-.527-.223.757.757 0 01-.223-.527c0-.197.078-.386.216-.527a.755.755 0 01.524-.223c.199 0 .39.079.53.22a.747.747 0 010 1.06.747.747 0 01-.53.22h.01zm-15 0a.757.757 0 01-.527-.223.757.757 0 01-.223-.527c0-.197.078-.386.216-.527a.755.755 0 01.524-.223c.199 0 .39.079.53.22a.747.747 0 010 1.06.747.747 0 01-.53.22h.01zm-15 0a.757.757 0 01-.527-.223.757.757 0 01-.223-.527c0-.197.078-.386.216-.527a.755.755 0 01.524-.223c.199 0 .39.079.53.22a.747.747 0 010 1.06.747.747 0 01-.53.22h.01zm-15 0a.757.757 0 01-.527-.223.757.757 0 01-.223-.527c0-.197.078-.386.216-.527a.755.755 0 01.524-.223c.199 0 .39.079.53.22a.747.747 0 010 1.06.747.747 0 01-.53.22h.01zm-15 0a.757.757 0 01-.527-.223.757.757 0 01-.223-.527c0-.197.078-.386.216-.527a.755.755 0 01.524-.223c.199 0 .39.079.53.22a.747.747 0 010 1.06.747.747 0 01-.53.22h.01zm-15 0a.757.757 0 01-.527-.223.757.757 0 01-.223-.527c0-.197.078-.386.216-.527a.755.755 0 01.524-.223c.199 0 .39.079.53.22a.747.747 0 010 1.06.747.747 0 01-.53.22h.01zm-15 0a.757.757 0 01-.527-.223.757.757 0 01-.223-.527c0-.197.078-.386.216-.527a.755.755 0 01.524-.223c.199 0 .39.079.53.22a.747.747 0 010 1.06.747.747 0 01-.53.22h.01zm-15 0a.757.757 0 01-.527-.223.757.757 0 01-.223-.527c0-.197.078-.386.216-.527a.755.755 0 01.524-.223c.199 0 .39.079.53.22a.747.747 0 010 1.06.747.747 0 01-.53.22h.01zm-15 0a.758.758 0 01-.75-.75.752.752 0 01.74-.75.749.749 0 01.53 1.28.749.749 0 01-.53.22h.01zm-15 0a.758.758 0 01-.75-.75.752.752 0 01.74-.75.749.749 0 01.53 1.28.749.749 0 01-.53.22h.01zm-15 0a.758.758 0 01-.75-.75.752.752 0 01.74-.75.749.749 0 01.53 1.28.749.749 0 01-.53.22h.01zm-15 0a.758.758 0 01-.75-.75.752.752 0 01.74-.75.749.749 0 01.53 1.28.749.749 0 01-.53.22h.01zm-15 0a.758.758 0 01-.75-.75.752.752 0 01.74-.75.749.749 0 01.53 1.28.749.749 0 01-.53.22h.01zm-15 0a.758.758 0 01-.75-.75.752.752 0 01.74-.75.749.749 0 01.53 1.28.749.749 0 01-.53.22h.01zm210 0a.747.747 0 01-.53-.22.747.747 0 010-1.06.75.75 0 01.682-.213c.145.03.277.105.378.213.141.14.22.331.22.53a.865.865 0 01-.05.28.776.776 0 01-.7.47zm-225-15a.818.818 0 01-.53-.22.72.72 0 01-.16-.28.67.67 0 01-.06-.25.781.781 0 01.47-.7.75.75 0 01.81.17.72.72 0 01.23.53.78.78 0 01-.23.53.75.75 0 01-.53.22zm210 0a.759.759 0 01-.75-.75.752.752 0 01.74-.75.748.748 0 01.75.75.749.749 0 01-.75.75h.01zm-15 0a.759.759 0 01-.75-.75.752.752 0 01.74-.75.748.748 0 01.75.75.749.749 0 01-.75.75h.01zm-15 0a.759.759 0 01-.75-.75.752.752 0 01.74-.75.748.748 0 01.75.75.749.749 0 01-.75.75h.01zm-15 0a.759.759 0 01-.75-.75.752.752 0 01.74-.75.748.748 0 01.75.75.749.749 0 01-.75.75h.01zm-15 0a.759.759 0 01-.75-.75.752.752 0 01.74-.75.748.748 0 01.75.75.749.749 0 01-.75.75h.01zm-15 0a.759.759 0 01-.75-.75.752.752 0 01.74-.75.748.748 0 01.75.75.749.749 0 01-.75.75h.01zm-15 0a.759.759 0 01-.75-.75.752.752 0 01.74-.75.748.748 0 01.75.75.749.749 0 01-.75.75h.01zm-15 0a.759.759 0 01-.75-.75.752.752 0 01.74-.75.748.748 0 01.75.75.749.749 0 01-.75.75h.01zm-15 0a.76.76 0 01-.75-.75.75.75 0 01.74-.75.75.75 0 110 1.5h.01zm-15 0a.76.76 0 01-.75-.75.75.75 0 01.74-.75.75.75 0 110 1.5h.01zm-15 0a.76.76 0 01-.75-.75.75.75 0 01.74-.75.75.75 0 110 1.5h.01zm-30 0a.76.76 0 01-.75-.75.75.75 0 01.74-.75.75.75 0 110 1.5h.01zm-15 0a.76.76 0 01-.75-.75.75.75 0 01.74-.75.75.75 0 110 1.5h.01zm210 0a.771.771 0 01-.53-.22.716.716 0 01-.16-.25.71.71 0 01-.06-.28.748.748 0 01.605-.734.781.781 0 01.435.034c.09.042.171.1.24.17.141.14.22.331.22.53a.92.92 0 01-.05.28.778.778 0 01-.7.47zm-225-15a.75.75 0 01-.53-1.28.852.852 0 01.25-.17.8.8 0 01.57 0 .852.852 0 01.25.17.986.986 0 01.16.24.93.93 0 01.05.29.92.92 0 01-.05.28.889.889 0 01-.16.25 1 1 0 01-.25.16.718.718 0 01-.29.06zm210 0a.759.759 0 01-.75-.75.752.752 0 01.74-.75.748.748 0 01.75.75.749.749 0 01-.75.75h.01zm-15 0a.759.759 0 01-.75-.75.752.752 0 01.74-.75.748.748 0 01.75.75.749.749 0 01-.75.75h.01zm-15 0a.759.759 0 01-.75-.75.752.752 0 01.74-.75.748.748 0 01.75.75.749.749 0 01-.75.75h.01zm-15 0a.759.759 0 01-.75-.75.752.752 0 01.74-.75.748.748 0 01.75.75.749.749 0 01-.75.75h.01zm-15 0a.759.759 0 01-.75-.75.752.752 0 01.74-.75.748.748 0 01.75.75.749.749 0 01-.75.75h.01zm-15 0a.759.759 0 01-.75-.75.752.752 0 01.74-.75.748.748 0 01.75.75.749.749 0 01-.75.75h.01zm-15 0a.759.759 0 01-.75-.75.752.752 0 01.74-.75.748.748 0 01.75.75.749.749 0 01-.75.75h.01zm-15 0a.759.759 0 01-.75-.75.752.752 0 01.74-.75.748.748 0 01.75.75.749.749 0 01-.75.75h.01zm-15 0a.76.76 0 01-.75-.75.75.75 0 01.74-.75.75.75 0 110 1.5h.01zm-15 0a.76.76 0 01-.75-.75.75.75 0 01.74-.75.75.75 0 110 1.5h.01zm-15 0a.76.76 0 01-.75-.75.75.75 0 01.74-.75.75.75 0 110 1.5h.01zm-15 0a.76.76 0 01-.75-.75.75.75 0 01.74-.75.75.75 0 110 1.5h.01zm-15 0a.76.76 0 01-.75-.75.75.75 0 01.74-.75.75.75 0 110 1.5h.01zm-15 0a.76.76 0 01-.75-.75.75.75 0 01.74-.75.75.75 0 110 1.5h.01zm210 0a.748.748 0 01-.69-1.04.758.758 0 011-.41c.18.086.324.23.41.41a.923.923 0 01.05.29.768.768 0 01-.22.53.781.781 0 01-.55.22zm-225-15a.77.77 0 01-.53-.22.72.72 0 01-.16-.28.67.67 0 01-.06-.25c0-.199.08-.39.22-.53a.78.78 0 01.78-.17c.09.042.171.1.24.17a.72.72 0 01.17.81.779.779 0 01-.66.47zm210 0a.759.759 0 01-.75-.75.752.752 0 01.74-.75.748.748 0 01.75.75.749.749 0 01-.75.75h.01zm-15 0a.759.759 0 01-.75-.75.752.752 0 01.74-.75.748.748 0 01.75.75.749.749 0 01-.75.75h.01zm-15 0a.759.759 0 01-.75-.75.752.752 0 01.74-.75.748.748 0 01.75.75.749.749 0 01-.75.75h.01zm-15 0a.759.759 0 01-.75-.75.752.752 0 01.74-.75.748.748 0 01.75.75.749.749 0 01-.75.75h.01zm-15 0a.759.759 0 01-.75-.75.752.752 0 01.74-.75.748.748 0 01.75.75.749.749 0 01-.75.75h.01zm-15 0a.759.759 0 01-.75-.75.752.752 0 01.74-.75.748.748 0 01.75.75.749.749 0 01-.75.75h.01zm-15 0a.759.759 0 01-.75-.75.752.752 0 01.74-.75.748.748 0 01.75.75.749.749 0 01-.75.75h.01zm-15 0a.759.759 0 01-.75-.75.752.752 0 01.74-.75.748.748 0 01.75.75.749.749 0 01-.75.75h.01zm-15 0a.76.76 0 01-.75-.75.75.75 0 01.74-.75.75.75 0 110 1.5h.01zm-15 0a.76.76 0 01-.75-.75.75.75 0 01.74-.75.75.75 0 110 1.5h.01zm-15 0a.76.76 0 01-.75-.75.75.75 0 01.74-.75.75.75 0 110 1.5h.01zm-15 0a.76.76 0 01-.75-.75.75.75 0 01.74-.75.75.75 0 110 1.5h.01zm-15 0a.76.76 0 01-.75-.75.75.75 0 01.74-.75.75.75 0 110 1.5h.01zm-15 0a.76.76 0 01-.75-.75.75.75 0 01.74-.75.75.75 0 110 1.5h.01zm210 0a.771.771 0 01-.53-.22.827.827 0 01-.22-.53c0-.199.079-.39.22-.53a.745.745 0 01.682-.213.72.72 0 01.378.213c.141.14.22.331.22.53a.92.92 0 01-.05.28.778.778 0 01-.7.47zm-225-15a.82.82 0 01-.53-.22.75.75 0 010-1.06.79.79 0 011.07 0 .997.997 0 01.16.24c.04.091.06.19.06.29a.77.77 0 01-.22.53.79.79 0 01-.54.22zm210 0a.759.759 0 01-.75-.75.752.752 0 01.74-.75.748.748 0 01.75.75.749.749 0 01-.75.75h.01zm-30 0a.759.759 0 01-.75-.75.752.752 0 01.74-.75.748.748 0 01.75.75.749.749 0 01-.75.75h.01zm-15 0a.759.759 0 01-.75-.75.752.752 0 01.74-.75.748.748 0 01.75.75.749.749 0 01-.75.75h.01zm-15 0a.759.759 0 01-.75-.75.752.752 0 01.74-.75.748.748 0 01.75.75.749.749 0 01-.75.75h.01zm-15 0a.759.759 0 01-.75-.75.752.752 0 01.74-.75.748.748 0 01.75.75.749.749 0 01-.75.75h.01zm-15 0a.759.759 0 01-.75-.75.752.752 0 01.74-.75.748.748 0 01.75.75.749.749 0 01-.75.75h.01zm-15 0a.759.759 0 01-.75-.75.752.752 0 01.74-.75.748.748 0 01.75.75.749.749 0 01-.75.75h.01zm-15 0a.76.76 0 01-.75-.75.75.75 0 01.74-.75.75.75 0 110 1.5h.01zm-15 0a.76.76 0 01-.75-.75.75.75 0 01.74-.75.75.75 0 110 1.5h.01zm-15 0a.76.76 0 01-.75-.75.75.75 0 01.74-.75.75.75 0 110 1.5h.01zm-15 0a.76.76 0 01-.75-.75.75.75 0 01.74-.75.75.75 0 110 1.5h.01zm-15 0a.76.76 0 01-.75-.75.75.75 0 01.74-.75.75.75 0 110 1.5h.01zm-15 0a.76.76 0 01-.75-.75.75.75 0 01.74-.75.75.75 0 110 1.5h.01zm210 0a.748.748 0 01-.75-.75.748.748 0 01.605-.734.781.781 0 01.435.034c.09.042.171.1.24.17.141.14.22.331.22.53a.862.862 0 01-.05.28.778.778 0 01-.7.47zM8.76 31.5a.72.72 0 01-.29-.06.72.72 0 01-.25-.16.76.76 0 01-.01-1.06.77.77 0 011.06 0 .76.76 0 01.23.53.78.78 0 01-.23.53.73.73 0 01-.51.22zm209.99 0a.759.759 0 01-.75-.75.752.752 0 01.74-.75.748.748 0 01.75.75.749.749 0 01-.75.75h.01zm-30 0a.759.759 0 01-.75-.75.752.752 0 01.74-.75.748.748 0 01.75.75.749.749 0 01-.75.75h.01zm-15 0a.759.759 0 01-.75-.75.752.752 0 01.74-.75.748.748 0 01.75.75.749.749 0 01-.75.75h.01zm-15 0a.759.759 0 01-.75-.75.752.752 0 01.74-.75.748.748 0 01.75.75.749.749 0 01-.75.75h.01zm-15 0a.759.759 0 01-.75-.75.752.752 0 01.74-.75.748.748 0 01.75.75.749.749 0 01-.75.75h.01zm-15 0a.759.759 0 01-.75-.75.752.752 0 01.74-.75.748.748 0 01.75.75.749.749 0 01-.75.75h.01zm-15 0a.759.759 0 01-.75-.75.752.752 0 01.74-.75.748.748 0 01.75.75.749.749 0 01-.75.75h.01zm-15 0a.76.76 0 01-.75-.75.75.75 0 01.74-.75.75.75 0 110 1.5h.01zm-15 0a.76.76 0 01-.75-.75.75.75 0 01.74-.75.75.75 0 110 1.5h.01zm-15 0a.76.76 0 01-.75-.75.75.75 0 01.74-.75.75.75 0 110 1.5h.01zm-45 0a.76.76 0 01-.75-.75.75.75 0 01.74-.75.75.75 0 110 1.5h.01z"/><path d="M38.748 31.5h.002-.01.008a.76.76 0 01-.748-.75.75.75 0 01.74-.75.75.75 0 01.008 1.5z" fill-opacity=".2"/><path d="M233.75 31.5a.748.748 0 01-.69-1.04.758.758 0 011-.41c.18.086.324.23.41.41a.923.923 0 01.05.29.768.768 0 01-.22.53.781.781 0 01-.55.22zm-225-15a.71.71 0 01-.28-.06.72.72 0 01-.25-.16.75.75 0 010-1.06.77.77 0 011.06 0 .76.76 0 01.23.53.78.78 0 01-.23.53.75.75 0 01-.53.22zm210 0a.759.759 0 01-.75-.75.752.752 0 01.74-.75.748.748 0 01.75.75.749.749 0 01-.75.75h.01zm-15 0a.759.759 0 01-.75-.75.752.752 0 01.74-.75.748.748 0 01.75.75.749.749 0 01-.75.75h.01zm-15 0a.759.759 0 01-.75-.75.752.752 0 01.74-.75.748.748 0 01.75.75.749.749 0 01-.75.75h.01zm-15 0a.759.759 0 01-.75-.75.752.752 0 01.74-.75.748.748 0 01.75.75.749.749 0 01-.75.75h.01zm-15 0a.759.759 0 01-.75-.75.752.752 0 01.74-.75.748.748 0 01.75.75.749.749 0 01-.75.75h.01zm-15 0a.759.759 0 01-.75-.75.752.752 0 01.74-.75.748.748 0 01.75.75.749.749 0 01-.75.75h.01zm-15 0a.759.759 0 01-.75-.75.752.752 0 01.74-.75.748.748 0 01.75.75.749.749 0 01-.75.75h.01zm-15 0a.759.759 0 01-.75-.75.752.752 0 01.74-.75.748.748 0 01.75.75.749.749 0 01-.75.75h.01zm-15 0a.76.76 0 01-.75-.75.75.75 0 01.74-.75.75.75 0 110 1.5h.01zm-15 0a.76.76 0 01-.75-.75.75.75 0 01.74-.75.75.75 0 110 1.5h.01zm-15 0a.76.76 0 01-.75-.75.75.75 0 01.74-.75.75.75 0 110 1.5h.01zm-15 0a.76.76 0 01-.75-.75.75.75 0 01.74-.75.75.75 0 110 1.5h.01zm-15 0a.76.76 0 01-.75-.75.75.75 0 01.74-.75.75.75 0 110 1.5h.01zm-15 0a.76.76 0 01-.75-.75.75.75 0 01.74-.75.75.75 0 110 1.5h.01zm210 0a.748.748 0 01-.53-1.28.745.745 0 01.682-.213.72.72 0 01.378.213.748.748 0 01-.53 1.28zm-225-15a.82.82 0 01-.53-.22.72.72 0 01-.16-.28A.67.67 0 018 .75a.78.78 0 01.47-.7.8.8 0 01.53 0c.09.042.171.1.24.17a.76.76 0 01.23.53.67.67 0 01-.02.25.74.74 0 01-.17.25.75.75 0 01-.53.25zm210 0a.759.759 0 01-.75-.75.752.752 0 01.74-.75.748.748 0 01.75.75.749.749 0 01-.75.75h.01zm-15 0a.759.759 0 01-.75-.75.752.752 0 01.74-.75.748.748 0 01.75.75.749.749 0 01-.75.75h.01zm-15 0a.759.759 0 01-.75-.75.752.752 0 01.74-.75.748.748 0 01.75.75.749.749 0 01-.75.75h.01zm-15 0a.759.759 0 01-.75-.75.752.752 0 01.74-.75.748.748 0 01.75.75.749.749 0 01-.75.75h.01zm-15 0a.759.759 0 01-.75-.75.752.752 0 01.74-.75.748.748 0 01.75.75.749.749 0 01-.75.75h.01zm-15 0a.759.759 0 01-.75-.75.752.752 0 01.74-.75.748.748 0 01.75.75.749.749 0 01-.75.75h.01zm-15 0a.759.759 0 01-.75-.75.752.752 0 01.74-.75.748.748 0 01.75.75.749.749 0 01-.75.75h.01zm-15 0a.759.759 0 01-.75-.75.752.752 0 01.74-.75.748.748 0 01.75.75.749.749 0 01-.75.75h.01zm-15 0A.76.76 0 0198 .75a.75.75 0 01.74-.75.75.75 0 110 1.5h.01zm-15 0A.76.76 0 0183 .75a.75.75 0 01.74-.75.75.75 0 110 1.5h.01zm-15 0A.76.76 0 0168 .75a.75.75 0 01.74-.75.75.75 0 110 1.5h.01zm-15 0A.76.76 0 0153 .75a.75.75 0 01.74-.75.75.75 0 110 1.5h.01zm-15 0A.76.76 0 0138 .75a.75.75 0 01.74-.75.75.75 0 110 1.5h.01zm-15 0A.76.76 0 0123 .75a.75.75 0 01.74-.75.75.75 0 110 1.5h.01zm210 0a.771.771 0 01-.53-.22.716.716 0 01-.16-.25.676.676 0 01-.06-.28c0-.199.079-.39.22-.53a.78.78 0 01.78-.17c.09.042.171.1.24.17.141.14.22.331.22.53a.863.863 0 01-.05.28.779.779 0 01-.66.47zm-30 45a.759.759 0 01-.75-.75.752.752 0 01.74-.75.748.748 0 01.75.75.749.749 0 01-.75.75h.01zm-150 135a.758.758 0 01-.75-.75.752.752 0 01.74-.75.749.749 0 01.53 1.28.749.749 0 01-.53.22h.01zm0-150a.76.76 0 01-.75-.75.75.75 0 01.74-.75.75.75 0 110 1.5h.01z"/><path opacity=".2" d="M53.75 166.5a.758.758 0 01-.75-.75.752.752 0 01.74-.75.749.749 0 01.53 1.28.749.749 0 01-.53.22h.01z"/><path opacity=".3" d="M203.75 31.5a.759.759 0 01-.75-.75.752.752 0 01.74-.75.748.748 0 01.75.75.749.749 0 01-.75.75h.01z"/><path opacity=".4" d="M158.75 166.5a.757.757 0 01-.527-.223.757.757 0 01-.223-.527c0-.197.078-.386.216-.527a.755.755 0 01.524-.223c.199 0 .39.079.53.22a.747.747 0 010 1.06.747.747 0 01-.53.22h.01z"/><path opacity=".3" d="M53.75 91.5a.76.76 0 01-.75-.75.75.75 0 01.74-.75.75.75 0 110 1.5h.01z"/></g><defs><clipPath id="clip0"><path d="M8 0h226.5v226.49H8V0z" fill="#fff"/></clipPath></defs></svg>