<svg xmlns="http://www.w3.org/2000/svg" width="227" height="227" fill="none"><g clip-path="url(#clip0)" transform="scale(.95)" fill="#877CB9"><path d="M1.25 227a.737.737 0 01-.53-.21.822.822 0 01-.16-.28.66.66 0 010-.28.71.71 0 010-.29.779.779 0 01.16-.24.791.791 0 011.07 0c.065.072.118.153.16.24a.927.927 0 01.05.29.872.872 0 01-.05.28.722.722 0 01-.16.25c-.075.065-.16.119-.25.16a.717.717 0 01-.29.08zm210 .01a.762.762 0 01-.75-.75.752.752 0 01.74-.75.75.75 0 110 1.5h.01zm-15 0a.762.762 0 01-.75-.75.752.752 0 01.74-.75.75.75 0 110 1.5h.01zm-15 0a.762.762 0 01-.75-.75.752.752 0 01.74-.75.75.75 0 110 1.5h.01zm-15 0a.762.762 0 01-.75-.75.752.752 0 01.74-.75.75.75 0 110 1.5h.01zm-15 0a.762.762 0 01-.75-.75.752.752 0 01.74-.75.75.75 0 110 1.5h.01zm-15 0a.762.762 0 01-.75-.75.752.752 0 01.74-.75.75.75 0 110 1.5h.01zm-15 0a.762.762 0 01-.75-.75.752.752 0 01.74-.75.75.75 0 110 1.5h.01zm-15 0a.762.762 0 01-.75-.75.752.752 0 01.74-.75.75.75 0 110 1.5h.01zm-15 0a.763.763 0 01-.75-.75.75.75 0 01.74-.75.752.752 0 01.75.75.75.75 0 01-.75.75h.01zm-15 0a.763.763 0 01-.75-.75.75.75 0 01.74-.75.752.752 0 01.75.75.75.75 0 01-.75.75h.01zm-15 0a.763.763 0 01-.75-.75.75.75 0 01.74-.75.752.752 0 01.75.75.75.75 0 01-.75.75h.01zm-15 0a.763.763 0 01-.75-.75.75.75 0 01.74-.75.752.752 0 01.75.75.75.75 0 01-.75.75h.01zm-15 0a.763.763 0 01-.75-.75.75.75 0 01.74-.75.752.752 0 01.75.75.75.75 0 01-.75.75h.01zm-15 0a.763.763 0 01-.75-.75.75.75 0 01.74-.75.752.752 0 01.75.75.75.75 0 01-.75.75h.01zm210-.01a.688.688 0 01-.28-.05.834.834 0 01-.25-.16.77.77 0 01-.22-.53c0-.1.02-.199.06-.29a.76.76 0 011-.41.7.7 0 01.24.17c.071.069.128.15.17.24a.92.92 0 01.05.29.727.727 0 01-.22.53.794.794 0 01-.24.16.728.728 0 01-.31.05zM1.26 212.01a.828.828 0 01-.54-.22.74.74 0 01-.21-.53.71.71 0 010-.29.779.779 0 01.16-.24.76.76 0 011.06 0 .718.718 0 01.17.81.777.777 0 01-.64.47zm209.99 0a.762.762 0 01-.75-.75.752.752 0 01.74-.75.75.75 0 110 1.5h.01zm-15 0a.762.762 0 01-.75-.75.752.752 0 01.74-.75.75.75 0 110 1.5h.01zm-15 0a.762.762 0 01-.75-.75.752.752 0 01.74-.75.75.75 0 110 1.5h.01zm-15 0a.762.762 0 01-.75-.75.752.752 0 01.74-.75.75.75 0 110 1.5h.01zm-15 0a.762.762 0 01-.75-.75.752.752 0 01.74-.75.75.75 0 110 1.5h.01zm-15 0a.762.762 0 01-.75-.75.752.752 0 01.74-.75.75.75 0 110 1.5h.01zm-15 0a.762.762 0 01-.75-.75.752.752 0 01.74-.75.75.75 0 110 1.5h.01zm-15 0a.762.762 0 01-.75-.75.752.752 0 01.74-.75.75.75 0 110 1.5h.01zm-15 0a.763.763 0 01-.75-.75.75.75 0 01.74-.75.752.752 0 01.75.75.75.75 0 01-.75.75h.01zm-15 0a.763.763 0 01-.75-.75.75.75 0 01.74-.75.752.752 0 01.75.75.75.75 0 01-.75.75h.01zm-15 0a.763.763 0 01-.75-.75.75.75 0 01.74-.75.752.752 0 01.75.75.75.75 0 01-.75.75h.01zm-15 0a.763.763 0 01-.75-.75.75.75 0 01.74-.75.752.752 0 01.75.75.75.75 0 01-.75.75h.01zm-15 0a.763.763 0 01-.75-.75.75.75 0 01.74-.75.752.752 0 01.75.75.75.75 0 01-.75.75h.01zm-15 0a.763.763 0 01-.75-.75.75.75 0 01.74-.75.752.752 0 01.75.75.75.75 0 01-.75.75h.01zm210 0a.749.749 0 11.53-1.28c.071.069.128.15.17.24a.92.92 0 01.05.29.71.71 0 01-.22.53.749.749 0 01-.53.22zm-225-15a.729.729 0 01-.28-.06 1.025 1.025 0 01-.25-.16.822.822 0 01-.16-.28.718.718 0 010-.57.767.767 0 01.16-.24.76.76 0 011.23.24.927.927 0 01.05.29.873.873 0 01-.05.28.868.868 0 01-.17.25.795.795 0 01-.24.16.724.724 0 01-.29.09zm210 0a.762.762 0 01-.75-.75.752.752 0 01.74-.75.75.75 0 110 1.5h.01zm-15 0a.762.762 0 01-.75-.75.752.752 0 01.74-.75.75.75 0 110 1.5h.01zm-15 0a.762.762 0 01-.75-.75.752.752 0 01.74-.75.75.75 0 110 1.5h.01zm-15 0a.762.762 0 01-.75-.75.752.752 0 01.74-.75.75.75 0 110 1.5h.01zm-15 0a.762.762 0 01-.75-.75.752.752 0 01.74-.75.75.75 0 110 1.5h.01zm-15 0a.762.762 0 01-.75-.75.752.752 0 01.74-.75.75.75 0 110 1.5h.01zm-15 0a.762.762 0 01-.75-.75.752.752 0 01.74-.75.75.75 0 110 1.5h.01zm-15 0a.762.762 0 01-.75-.75.752.752 0 01.74-.75.75.75 0 110 1.5h.01zm-15 0a.763.763 0 01-.75-.75.75.75 0 01.74-.75.752.752 0 01.75.75.75.75 0 01-.75.75h.01zm-15 0a.763.763 0 01-.75-.75.75.75 0 01.74-.75.752.752 0 01.75.75.75.75 0 01-.75.75h.01zm-15 0a.763.763 0 01-.75-.75.75.75 0 01.74-.75.752.752 0 01.75.75.75.75 0 01-.75.75h.01zm-15 0a.763.763 0 01-.75-.75.75.75 0 01.74-.75.752.752 0 01.75.75.75.75 0 01-.75.75h.01zm-15 0a.763.763 0 01-.75-.75.75.75 0 01.74-.75.752.752 0 01.75.75.75.75 0 01-.75.75h.01zm-15 0a.763.763 0 01-.75-.75.75.75 0 01.74-.75.752.752 0 01.75.75.75.75 0 01-.75.75h.01zm210 0a.77.77 0 01-.53-.22.834.834 0 01-.22-.53.752.752 0 011.28-.53c.071.069.128.15.17.24a.92.92 0 01.05.29.86.86 0 01-.05.28.776.776 0 01-.7.47zm-225-15.001a.748.748 0 01-.53-.22.74.74 0 01-.21-.53.71.71 0 010-.29.79.79 0 01.16-.24.781.781 0 01.82-.17.7.7 0 01.24.17.82.82 0 01.17.24.937.937 0 01.05.29.715.715 0 01-.22.53.777.777 0 01-.48.22zm210 .001a.762.762 0 01-.75-.75.752.752 0 01.74-.75.75.75 0 110 1.5h.01zm-15 0a.762.762 0 01-.75-.75.752.752 0 01.74-.75.75.75 0 110 1.5h.01zm-15 0a.762.762 0 01-.75-.75.752.752 0 01.74-.75.75.75 0 110 1.5h.01zm-15 0a.762.762 0 01-.75-.75.752.752 0 01.74-.75.75.75 0 110 1.5h.01zm-15 0a.762.762 0 01-.75-.75.752.752 0 01.74-.75.75.75 0 110 1.5h.01zm-15 0a.762.762 0 01-.75-.75.752.752 0 01.74-.75.75.75 0 110 1.5h.01zm-15 0a.762.762 0 01-.75-.75.752.752 0 01.74-.75.75.75 0 110 1.5h.01zm-15 0a.762.762 0 01-.75-.75.752.752 0 01.74-.75.75.75 0 110 1.5h.01zm-15 0a.763.763 0 01-.75-.75.75.75 0 01.74-.75.752.752 0 01.75.75.75.75 0 01-.75.75h.01zm-15 0a.763.763 0 01-.75-.75.75.75 0 01.74-.75.752.752 0 01.75.75.75.75 0 01-.75.75h.01zm-15 0a.763.763 0 01-.75-.75.75.75 0 01.74-.75.752.752 0 01.75.75.75.75 0 01-.75.75h.01zm-30 0a.763.763 0 01-.75-.75.75.75 0 01.74-.75.752.752 0 01.75.75.75.75 0 01-.75.75h.01zm-15 0a.763.763 0 01-.75-.75.75.75 0 01.74-.75.752.752 0 01.75.75.75.75 0 01-.75.75h.01zm210 0a.674.674 0 01-.28-.06.695.695 0 01-.41-.41.72.72 0 010-.57.776.776 0 01.41-.41.76.76 0 01.81.17.63.63 0 01.16.24.747.747 0 01-.16.82.747.747 0 01-.53.22zm-225-15.001a.749.749 0 01-.145-1.484.786.786 0 01.435.034.7.7 0 01.24.17.725.725 0 01.23.53c0 .097-.02.192-.06.28a.777.777 0 01-.7.47zm210 .001a.762.762 0 01-.75-.75.752.752 0 01.74-.75.75.75 0 110 1.5h.01zm-15 0a.762.762 0 01-.75-.75.752.752 0 01.74-.75.75.75 0 110 1.5h.01zm-15 0a.762.762 0 01-.75-.75.752.752 0 01.74-.75.75.75 0 110 1.5h.01zm-15 0a.762.762 0 01-.75-.75.752.752 0 01.74-.75.75.75 0 110 1.5h.01zm-30 0a.762.762 0 01-.75-.75.752.752 0 01.74-.75.75.75 0 110 1.5h.01zm-15 0a.762.762 0 01-.75-.75.752.752 0 01.74-.75.75.75 0 110 1.5h.01zm-15 0a.762.762 0 01-.75-.75.752.752 0 01.74-.75.75.75 0 110 1.5h.01zm-15 0a.763.763 0 01-.75-.75.75.75 0 01.74-.75.752.752 0 01.75.75.75.75 0 01-.75.75h.01zm-15 0a.763.763 0 01-.75-.75.75.75 0 01.74-.75.752.752 0 01.75.75.75.75 0 01-.75.75h.01zm-15 0a.763.763 0 01-.75-.75.75.75 0 01.74-.75.752.752 0 01.75.75.75.75 0 01-.75.75h.01zm-30 0a.763.763 0 01-.75-.75.75.75 0 01.74-.75.752.752 0 01.75.75.75.75 0 01-.75.75h.01zm-15 0a.763.763 0 01-.75-.75.75.75 0 01.74-.75.752.752 0 01.75.75.75.75 0 01-.75.75h.01zm210 0a.747.747 0 01-.53-.22.747.747 0 010-1.06.75.75 0 01.25-.17.76.76 0 01.81.17c.141.14.22.331.22.53a.865.865 0 01-.05.28.75.75 0 01-.17.25.749.749 0 01-.53.22zm-224.99-15a.674.674 0 01-.29-.06.81.81 0 01-.25-.16.77.77 0 01-.22-.53c0-.1.02-.198.06-.29a.79.79 0 01.16-.24.791.791 0 011.07 0 .986.986 0 01.16.24.936.936 0 01.05.29.76.76 0 01-.21.53.97.97 0 01-.25.16.71.71 0 01-.28.06zm209.99 0a.762.762 0 01-.75-.75.752.752 0 01.74-.75.75.75 0 110 1.5h.01zm-15 0a.762.762 0 01-.75-.75.752.752 0 01.74-.75.75.75 0 110 1.5h.01zm-15 0a.762.762 0 01-.75-.75.752.752 0 01.74-.75.75.75 0 110 1.5h.01zm-15 0a.762.762 0 01-.75-.75.752.752 0 01.74-.75.75.75 0 110 1.5h.01zm-15 0a.762.762 0 01-.75-.75.752.752 0 01.74-.75.75.75 0 110 1.5h.01zm-15 0a.762.762 0 01-.75-.75.752.752 0 01.74-.75.75.75 0 110 1.5h.01zm-15 0a.762.762 0 01-.75-.75.752.752 0 01.74-.75.75.75 0 110 1.5h.01zm-15 0a.762.762 0 01-.75-.75.752.752 0 01.74-.75.75.75 0 110 1.5h.01zm-15 0a.763.763 0 01-.75-.75.75.75 0 01.74-.75.752.752 0 01.75.75.75.75 0 01-.75.75h.01zm-15 0a.763.763 0 01-.75-.75.75.75 0 01.74-.75.752.752 0 01.75.75.75.75 0 01-.75.75h.01zm-15 0a.763.763 0 01-.75-.75.75.75 0 01.74-.75.752.752 0 01.75.75.75.75 0 01-.75.75h.01zm-15 0a.763.763 0 01-.75-.75.75.75 0 01.74-.75.752.752 0 01.75.75.75.75 0 01-.75.75h.01zm-15 0a.763.763 0 01-.75-.75.75.75 0 01.74-.75.752.752 0 01.75.75.75.75 0 01-.75.75h.01zm-15 0a.763.763 0 01-.75-.75.75.75 0 01.74-.75.752.752 0 01.75.75.75.75 0 01-.75.75h.01zm210 0a.834.834 0 01-.53-.22.768.768 0 01-.22-.53.752.752 0 011.28-.53c.071.069.128.15.17.24a.92.92 0 01.05.29.728.728 0 01-.22.53.749.749 0 01-.53.22zm-225-15a.773.773 0 01-.53-.22.822.822 0 01-.16-.28.66.66 0 010-.28.71.71 0 010-.29.767.767 0 01.16-.24.76.76 0 011.23.24.927.927 0 01.05.29.872.872 0 01-.05.28.867.867 0 01-.17.25.753.753 0 01-.53.25zm210 0a.762.762 0 01-.75-.75.752.752 0 01.74-.75.75.75 0 110 1.5h.01zm-15 0a.762.762 0 01-.75-.75.752.752 0 01.74-.75.75.75 0 110 1.5h.01zm-15 0a.762.762 0 01-.75-.75.752.752 0 01.74-.75.75.75 0 110 1.5h.01zm-15 0a.762.762 0 01-.75-.75.752.752 0 01.74-.75.75.75 0 110 1.5h.01zm-15 0a.762.762 0 01-.75-.75.752.752 0 01.74-.75.75.75 0 110 1.5h.01zm-15 0a.762.762 0 01-.75-.75.752.752 0 01.74-.75.75.75 0 110 1.5h.01zm-15 0a.762.762 0 01-.75-.75.752.752 0 01.74-.75.75.75 0 110 1.5h.01zm-15 0a.762.762 0 01-.75-.75.752.752 0 01.74-.75.75.75 0 110 1.5h.01zm-15 0a.763.763 0 01-.75-.75.75.75 0 01.74-.75.752.752 0 01.75.75.75.75 0 01-.75.75h.01zm-30 0a.763.763 0 01-.75-.75.75.75 0 01.74-.75.752.752 0 01.75.75.75.75 0 01-.75.75h.01zm-15 0a.763.763 0 01-.75-.75.75.75 0 01.74-.75.752.752 0 01.75.75.75.75 0 01-.75.75h.01zm-15 0a.763.763 0 01-.75-.75.75.75 0 01.74-.75.752.752 0 01.75.75.75.75 0 01-.75.75h.01zm-15 0a.763.763 0 01-.75-.75.75.75 0 01.74-.75.752.752 0 01.75.75.75.75 0 01-.75.75h.01z"/><path d="M76.248 137.01h.002-.01.008a.762.762 0 01-.748-.75.75.75 0 01.74-.75.752.752 0 01.75.75.75.75 0 01-.742.75z" fill-opacity=".4"/><path d="M226.25 137.01a.749.749 0 01-.53-1.28.769.769 0 011.06 0 .747.747 0 010 1.06.749.749 0 01-.53.22zm-225-15a.75.75 0 01-.69-1.04 1.01 1.01 0 01.16-.24.768.768 0 011.23.24.71.71 0 01.05.29.75.75 0 01-.75.75zm210 0a.762.762 0 01-.75-.75.752.752 0 01.74-.75.75.75 0 110 1.5h.01zm-15 0a.762.762 0 01-.75-.75.752.752 0 01.74-.75.75.75 0 110 1.5h.01zm-15 0a.762.762 0 01-.75-.75.752.752 0 01.74-.75.75.75 0 110 1.5h.01zm-15 0a.762.762 0 01-.75-.75.752.752 0 01.74-.75.75.75 0 110 1.5h.01zm-15 0a.762.762 0 01-.75-.75.752.752 0 01.74-.75.75.75 0 110 1.5h.01zm-15 0a.762.762 0 01-.75-.75.752.752 0 01.74-.75.75.75 0 110 1.5h.01zm-15 0a.762.762 0 01-.75-.75.752.752 0 01.74-.75.75.75 0 110 1.5h.01zm-15 0a.762.762 0 01-.75-.75.752.752 0 01.74-.75.75.75 0 110 1.5h.01zm-15 0a.763.763 0 01-.75-.75.75.75 0 01.74-.75.752.752 0 01.75.75.75.75 0 01-.75.75h.01zm-15 0a.763.763 0 01-.75-.75.75.75 0 01.74-.75.752.752 0 01.75.75.75.75 0 01-.75.75h.01zm-15 0a.763.763 0 01-.75-.75.75.75 0 01.74-.75.752.752 0 01.75.75.75.75 0 01-.75.75h.01zm-15 0a.763.763 0 01-.75-.75.75.75 0 01.74-.75.752.752 0 01.75.75.75.75 0 01-.75.75h.01zm-15 0a.763.763 0 01-.75-.75.75.75 0 01.74-.75.752.752 0 01.75.75.75.75 0 01-.75.75h.01zm-15 0a.763.763 0 01-.75-.75.75.75 0 01.74-.75.752.752 0 01.75.75.75.75 0 01-.75.75h.01zm210 0a.757.757 0 01-.53-.22.77.77 0 01-.22-.53c0-.1.02-.199.06-.29a.76.76 0 011-.41c.18.085.324.23.41.41a.92.92 0 01.05.29.77.77 0 01-.22.53.794.794 0 01-.24.16.733.733 0 01-.31.06zm-225-15a.768.768 0 01-.53-.22.75.75 0 010-1.06.768.768 0 011.06 0 .75.75 0 01-.53 1.28zm210 0a.762.762 0 01-.75-.75.752.752 0 01.74-.75.75.75 0 110 1.5h.01zm-15 0a.762.762 0 01-.75-.75.752.752 0 01.74-.75.75.75 0 110 1.5h.01zm-15 0a.762.762 0 01-.75-.75.752.752 0 01.74-.75.75.75 0 110 1.5h.01zm-15 0a.762.762 0 01-.75-.75.752.752 0 01.74-.75.75.75 0 110 1.5h.01zm-15 0a.762.762 0 01-.75-.75.752.752 0 01.74-.75.75.75 0 110 1.5h.01zm-15 0a.762.762 0 01-.75-.75.752.752 0 01.74-.75.75.75 0 110 1.5h.01zm-15 0a.762.762 0 01-.75-.75.752.752 0 01.74-.75.75.75 0 110 1.5h.01zm-15 0a.762.762 0 01-.75-.75.752.752 0 01.74-.75.75.75 0 110 1.5h.01zm-15 0a.763.763 0 01-.75-.75.75.75 0 01.74-.75.752.752 0 01.75.75.75.75 0 01-.75.75h.01zm-15 0a.763.763 0 01-.75-.75.75.75 0 01.74-.75.752.752 0 01.75.75.75.75 0 01-.75.75h.01zm-15 0a.763.763 0 01-.75-.75.75.75 0 01.74-.75.752.752 0 01.75.75.75.75 0 01-.75.75h.01zm-15 0a.763.763 0 01-.75-.75.75.75 0 01.74-.75.752.752 0 01.75.75.75.75 0 01-.75.75h.01zm-15 0a.763.763 0 01-.75-.75.75.75 0 01.74-.75.752.752 0 01.75.75.75.75 0 01-.75.75h.01zm-15 0a.763.763 0 01-.75-.75.75.75 0 01.74-.75.752.752 0 01.75.75.75.75 0 01-.75.75h.01zm210-.001a.75.75 0 01-.53-1.28.75.75 0 01.682-.213.724.724 0 01.378.213.75.75 0 01.22.53.86.86 0 01-.05.28.776.776 0 01-.7.47zM1.25 92.01a.82.82 0 01-.53-.22.72.72 0 01-.16-.28.67.67 0 01-.06-.25.779.779 0 01.47-.7.75.75 0 01.81.17.72.72 0 01.23.53.78.78 0 01-.23.53.75.75 0 01-.53.22zm210 0a.759.759 0 01-.75-.75.752.752 0 01.74-.75.748.748 0 01.75.75.749.749 0 01-.75.75h.01zm-15 0a.759.759 0 01-.75-.75.752.752 0 01.74-.75.748.748 0 01.75.75.749.749 0 01-.75.75h.01zm-15 0a.759.759 0 01-.75-.75.752.752 0 01.74-.75.748.748 0 01.75.75.749.749 0 01-.75.75h.01zm-15 0a.759.759 0 01-.75-.75.752.752 0 01.74-.75.748.748 0 01.75.75.749.749 0 01-.75.75h.01zm-15 0a.759.759 0 01-.75-.75.752.752 0 01.74-.75.748.748 0 01.75.75.749.749 0 01-.75.75h.01zm-15 0a.759.759 0 01-.75-.75.752.752 0 01.74-.75.748.748 0 01.75.75.749.749 0 01-.75.75h.01zm-15 0a.759.759 0 01-.75-.75.752.752 0 01.74-.75.748.748 0 01.75.75.749.749 0 01-.75.75h.01zm-15 0a.759.759 0 01-.75-.75.752.752 0 01.74-.75.748.748 0 01.75.75.749.749 0 01-.75.75h.01zm-15 0a.76.76 0 01-.75-.75.75.75 0 01.74-.75.75.75 0 110 1.5h.01zm-15 0a.76.76 0 01-.75-.75.75.75 0 01.74-.75.75.75 0 110 1.5h.01zm-15 0a.76.76 0 01-.75-.75.75.75 0 01.74-.75.75.75 0 110 1.5h.01zm-30 0a.76.76 0 01-.75-.75.75.75 0 01.74-.75.75.75 0 110 1.5h.01zm-15 0a.76.76 0 01-.75-.75.75.75 0 01.74-.75.75.75 0 110 1.5h.01zm210 0a.771.771 0 01-.53-.22.716.716 0 01-.16-.25.71.71 0 01-.06-.28.748.748 0 01.605-.735.781.781 0 01.435.034c.09.042.171.1.24.17.141.14.22.332.22.53a.92.92 0 01-.05.28.778.778 0 01-.7.47zm-225-15a.75.75 0 01-.53-1.28.852.852 0 01.25-.17.8.8 0 01.57 0 .852.852 0 01.25.17.949.949 0 01.16.24.93.93 0 01.05.29.92.92 0 01-.05.28.89.89 0 01-.16.25 1 1 0 01-.25.16.72.72 0 01-.29.06zm210 0a.759.759 0 01-.75-.75.752.752 0 01.74-.75.748.748 0 01.75.75.749.749 0 01-.75.75h.01zm-15 0a.759.759 0 01-.75-.75.752.752 0 01.74-.75.748.748 0 01.75.75.749.749 0 01-.75.75h.01zm-15 0a.759.759 0 01-.75-.75.752.752 0 01.74-.75.748.748 0 01.75.75.749.749 0 01-.75.75h.01zm-15 0a.759.759 0 01-.75-.75.752.752 0 01.74-.75.748.748 0 01.75.75.749.749 0 01-.75.75h.01zm-15 0a.759.759 0 01-.75-.75.752.752 0 01.74-.75.748.748 0 01.75.75.749.749 0 01-.75.75h.01zm-15 0a.759.759 0 01-.75-.75.752.752 0 01.74-.75.748.748 0 01.75.75.749.749 0 01-.75.75h.01zm-15 0a.759.759 0 01-.75-.75.752.752 0 01.74-.75.748.748 0 01.75.75.749.749 0 01-.75.75h.01zm-15 0a.759.759 0 01-.75-.75.752.752 0 01.74-.75.748.748 0 01.75.75.749.749 0 01-.75.75h.01zm-15 0a.76.76 0 01-.75-.75.75.75 0 01.74-.75.75.75 0 110 1.5h.01zm-15 0a.76.76 0 01-.75-.75.75.75 0 01.74-.75.75.75 0 110 1.5h.01zm-15 0a.76.76 0 01-.75-.75.75.75 0 01.74-.75.75.75 0 110 1.5h.01zm-15 0a.76.76 0 01-.75-.75.75.75 0 01.74-.75.75.75 0 110 1.5h.01zm-15 0a.76.76 0 01-.75-.75.75.75 0 01.74-.75.75.75 0 110 1.5h.01zm-15 0a.76.76 0 01-.75-.75.75.75 0 01.74-.75.75.75 0 110 1.5h.01zm210 0a.748.748 0 01-.69-1.04.758.758 0 011-.41c.18.085.324.23.41.41a.924.924 0 01.05.29.768.768 0 01-.22.53.78.78 0 01-.55.22zm-225-15a.77.77 0 01-.53-.22.72.72 0 01-.16-.28.67.67 0 01-.06-.25c0-.2.08-.39.22-.53a.78.78 0 01.78-.17c.09.041.171.099.24.17a.72.72 0 01.17.81.78.78 0 01-.66.47zm210 0a.759.759 0 01-.75-.75.752.752 0 01.74-.75.748.748 0 01.75.75.749.749 0 01-.75.75h.01zm-15 0a.759.759 0 01-.75-.75.752.752 0 01.74-.75.748.748 0 01.75.75.749.749 0 01-.75.75h.01zm-15 0a.759.759 0 01-.75-.75.752.752 0 01.74-.75.748.748 0 01.75.75.749.749 0 01-.75.75h.01zm-15 0a.759.759 0 01-.75-.75.752.752 0 01.74-.75.748.748 0 01.75.75.749.749 0 01-.75.75h.01zm-15 0a.759.759 0 01-.75-.75.752.752 0 01.74-.75.748.748 0 01.75.75.749.749 0 01-.75.75h.01zm-15 0a.759.759 0 01-.75-.75.752.752 0 01.74-.75.748.748 0 01.75.75.749.749 0 01-.75.75h.01zm-15 0a.759.759 0 01-.75-.75.752.752 0 01.74-.75.748.748 0 01.75.75.749.749 0 01-.75.75h.01zm-15 0a.759.759 0 01-.75-.75.752.752 0 01.74-.75.748.748 0 01.75.75.749.749 0 01-.75.75h.01zm-15 0a.76.76 0 01-.75-.75.75.75 0 01.74-.75.75.75 0 110 1.5h.01zm-15 0a.76.76 0 01-.75-.75.75.75 0 01.74-.75.75.75 0 110 1.5h.01zm-15 0a.76.76 0 01-.75-.75.75.75 0 01.74-.75.75.75 0 110 1.5h.01zm-15 0a.76.76 0 01-.75-.75.75.75 0 01.74-.75.75.75 0 110 1.5h.01zm-15 0a.76.76 0 01-.75-.75.75.75 0 01.74-.75.75.75 0 110 1.5h.01zm-15 0a.76.76 0 01-.75-.75.75.75 0 01.74-.75.75.75 0 110 1.5h.01zm210 0a.771.771 0 01-.53-.22.827.827 0 01-.22-.53c0-.2.079-.39.22-.53a.745.745 0 01.682-.214.72.72 0 01.378.213c.141.14.22.331.22.53a.92.92 0 01-.05.28.778.778 0 01-.7.47zm-225-15a.82.82 0 01-.53-.22.75.75 0 010-1.06.79.79 0 011.07 0 .986.986 0 01.16.24c.04.092.06.19.06.29a.77.77 0 01-.22.53.79.79 0 01-.54.22zm210 0a.759.759 0 01-.75-.75.752.752 0 01.74-.75.748.748 0 01.75.75.749.749 0 01-.75.75h.01zm-30 0a.759.759 0 01-.75-.75.752.752 0 01.74-.75.748.748 0 01.75.75.749.749 0 01-.75.75h.01zm-15 0a.759.759 0 01-.75-.75.752.752 0 01.74-.75.748.748 0 01.75.75.749.749 0 01-.75.75h.01zm-15 0a.759.759 0 01-.75-.75.752.752 0 01.74-.75.748.748 0 01.75.75.749.749 0 01-.75.75h.01zm-15 0a.759.759 0 01-.75-.75.752.752 0 01.74-.75.748.748 0 01.75.75.749.749 0 01-.75.75h.01zm-15 0a.759.759 0 01-.75-.75.752.752 0 01.74-.75.748.748 0 01.75.75.749.749 0 01-.75.75h.01zm-15 0a.759.759 0 01-.75-.75.752.752 0 01.74-.75.748.748 0 01.75.75.749.749 0 01-.75.75h.01zm-15 0a.76.76 0 01-.75-.75.75.75 0 01.74-.75.75.75 0 110 1.5h.01zm-15 0a.76.76 0 01-.75-.75.75.75 0 01.74-.75.75.75 0 110 1.5h.01zm-15 0a.76.76 0 01-.75-.75.75.75 0 01.74-.75.75.75 0 110 1.5h.01zm-15 0a.76.76 0 01-.75-.75.75.75 0 01.74-.75.75.75 0 110 1.5h.01zm-15 0a.76.76 0 01-.75-.75.75.75 0 01.74-.75.75.75 0 110 1.5h.01zm-15 0a.76.76 0 01-.75-.75.75.75 0 01.74-.75.75.75 0 110 1.5h.01zm210 0a.748.748 0 01-.75-.75.748.748 0 01.605-.735.781.781 0 01.435.034c.09.042.171.1.24.17.141.14.22.332.22.53a.862.862 0 01-.05.28.778.778 0 01-.7.47zm-224.99-15a.72.72 0 01-.29-.06.72.72 0 01-.25-.16.76.76 0 01-.01-1.06.77.77 0 011.06 0 .76.76 0 01.23.53.78.78 0 01-.23.53.73.73 0 01-.51.22zm209.99 0a.759.759 0 01-.75-.75.752.752 0 01.74-.75.748.748 0 01.75.75.749.749 0 01-.75.75h.01zm-30 0a.759.759 0 01-.75-.75.752.752 0 01.74-.75.748.748 0 01.75.75.749.749 0 01-.75.75h.01zm-15 0a.759.759 0 01-.75-.75.752.752 0 01.74-.75.748.748 0 01.75.75.749.749 0 01-.75.75h.01zm-15 0a.759.759 0 01-.75-.75.752.752 0 01.74-.75.748.748 0 01.75.75.749.749 0 01-.75.75h.01zm-15 0a.759.759 0 01-.75-.75.752.752 0 01.74-.75.748.748 0 01.75.75.749.749 0 01-.75.75h.01zm-15 0a.759.759 0 01-.75-.75.752.752 0 01.74-.75.748.748 0 01.75.75.749.749 0 01-.75.75h.01zm-15 0a.759.759 0 01-.75-.75.752.752 0 01.74-.75.748.748 0 01.75.75.749.749 0 01-.75.75h.01zm-15 0a.76.76 0 01-.75-.75.75.75 0 01.74-.75.75.75 0 110 1.5h.01zm-15 0a.76.76 0 01-.75-.75.75.75 0 01.74-.75.75.75 0 110 1.5h.01zm-15 0a.76.76 0 01-.75-.75.75.75 0 01.74-.75.75.75 0 110 1.5h.01zm-45 0a.76.76 0 01-.75-.75.75.75 0 01.74-.75.75.75 0 110 1.5h.01z"/><path d="M31.247 32.01h.003-.01.008a.76.76 0 01-.748-.75.75.75 0 01.74-.75.75.75 0 01.008 1.5z" fill-opacity=".2"/><path d="M226.25 32.01a.748.748 0 01-.69-1.04.758.758 0 011-.41c.18.085.324.23.41.41a.924.924 0 01.05.29.768.768 0 01-.22.53.78.78 0 01-.55.22zm-225-15a.71.71 0 01-.28-.06.72.72 0 01-.25-.16.75.75 0 010-1.06.77.77 0 011.06 0 .76.76 0 01.23.53.78.78 0 01-.23.53.75.75 0 01-.53.22zm210 0a.759.759 0 01-.75-.75.752.752 0 01.74-.75.748.748 0 01.75.75.749.749 0 01-.75.75h.01zm-15 0a.759.759 0 01-.75-.75.752.752 0 01.74-.75.748.748 0 01.75.75.749.749 0 01-.75.75h.01zm-15 0a.759.759 0 01-.75-.75.752.752 0 01.74-.75.748.748 0 01.75.75.749.749 0 01-.75.75h.01zm-15 0a.759.759 0 01-.75-.75.752.752 0 01.74-.75.748.748 0 01.75.75.749.749 0 01-.75.75h.01zm-15 0a.759.759 0 01-.75-.75.752.752 0 01.74-.75.748.748 0 01.75.75.749.749 0 01-.75.75h.01zm-15 0a.759.759 0 01-.75-.75.752.752 0 01.74-.75.748.748 0 01.75.75.749.749 0 01-.75.75h.01zm-15 0a.759.759 0 01-.75-.75.752.752 0 01.74-.75.748.748 0 01.75.75.749.749 0 01-.75.75h.01zm-15 0a.759.759 0 01-.75-.75.752.752 0 01.74-.75.748.748 0 01.75.75.749.749 0 01-.75.75h.01zm-15 0a.76.76 0 01-.75-.75.75.75 0 01.74-.75.75.75 0 110 1.5h.01zm-15 0a.76.76 0 01-.75-.75.75.75 0 01.74-.75.75.75 0 110 1.5h.01zm-15 0a.76.76 0 01-.75-.75.75.75 0 01.74-.75.75.75 0 110 1.5h.01zm-15 0a.76.76 0 01-.75-.75.75.75 0 01.74-.75.75.75 0 110 1.5h.01zm-15 0a.76.76 0 01-.75-.75.75.75 0 01.74-.75.75.75 0 110 1.5h.01zm-15 0a.76.76 0 01-.75-.75.75.75 0 01.74-.75.75.75 0 110 1.5h.01zm210 0a.748.748 0 01-.53-1.28.745.745 0 01.682-.214.72.72 0 01.378.213.748.748 0 01-.53 1.28zm-225-15a.82.82 0 01-.53-.22.72.72 0 01-.16-.28.67.67 0 01-.06-.25.78.78 0 01.47-.7.8.8 0 01.53 0c.09.041.171.099.24.17a.76.76 0 01.23.53.67.67 0 01-.02.25.74.74 0 01-.17.25.75.75 0 01-.53.25zm210 0a.759.759 0 01-.75-.75.752.752 0 01.74-.75.748.748 0 01.75.75.749.749 0 01-.75.75h.01zm-15 0a.759.759 0 01-.75-.75.752.752 0 01.74-.75.748.748 0 01.75.75.749.749 0 01-.75.75h.01zm-15 0a.759.759 0 01-.75-.75.752.752 0 01.74-.75.748.748 0 01.75.75.749.749 0 01-.75.75h.01zm-15 0a.759.759 0 01-.75-.75.752.752 0 01.74-.75.748.748 0 01.75.75.749.749 0 01-.75.75h.01zm-15 0a.759.759 0 01-.75-.75.752.752 0 01.74-.75.748.748 0 01.75.75.749.749 0 01-.75.75h.01zm-15 0a.759.759 0 01-.75-.75.752.752 0 01.74-.75.748.748 0 01.75.75.749.749 0 01-.75.75h.01zm-15 0a.759.759 0 01-.75-.75.752.752 0 01.74-.75.748.748 0 01.75.75.749.749 0 01-.75.75h.01zm-15 0a.759.759 0 01-.75-.75.752.752 0 01.74-.75.748.748 0 01.75.75.749.749 0 01-.75.75h.01zm-15 0a.76.76 0 01-.75-.75.75.75 0 01.74-.75.75.75 0 110 1.5h.01zm-15 0a.76.76 0 01-.75-.75.75.75 0 01.74-.75.75.75 0 110 1.5h.01zm-15 0a.76.76 0 01-.75-.75.75.75 0 01.74-.75.75.75 0 110 1.5h.01zm-15 0a.76.76 0 01-.75-.75.75.75 0 01.74-.75.75.75 0 110 1.5h.01zm-15 0a.76.76 0 01-.75-.75.75.75 0 01.74-.75.75.75 0 110 1.5h.01zm-15 0a.76.76 0 01-.75-.75.75.75 0 01.74-.75.75.75 0 110 1.5h.01zm210 0a.771.771 0 01-.53-.22.716.716 0 01-.16-.25.676.676 0 01-.06-.28c0-.2.079-.39.22-.53a.78.78 0 01.78-.17c.09.041.171.099.24.17.141.14.22.33.22.53a.862.862 0 01-.05.28.779.779 0 01-.66.47zm-30 45a.759.759 0 01-.75-.75.752.752 0 01.74-.75.748.748 0 01.75.75.749.749 0 01-.75.75h.01zm-150 135a.763.763 0 01-.75-.75.75.75 0 01.74-.75.752.752 0 01.75.75.75.75 0 01-.75.75h.01zm0-150a.76.76 0 01-.75-.75.75.75 0 01.74-.75.75.75 0 110 1.5h.01z"/><path opacity=".2" d="M46.25 167.01a.763.763 0 01-.75-.75.75.75 0 01.74-.75.752.752 0 01.75.75.75.75 0 01-.75.75h.01z"/><path opacity=".3" d="M196.25 32.01a.759.759 0 01-.75-.75.752.752 0 01.74-.75.748.748 0 01.75.75.749.749 0 01-.75.75h.01z"/><path opacity=".4" d="M151.25 167.01a.762.762 0 01-.75-.75.752.752 0 01.74-.75.75.75 0 110 1.5h.01z"/><path opacity=".3" d="M46.25 92.01a.76.76 0 01-.75-.75.75.75 0 01.74-.75.75.75 0 110 1.5h.01z"/></g><defs><clipPath id="clip0"><path fill="#fff" transform="translate(.5 .51)" d="M0 0h226.5v226.49H0z"/></clipPath></defs></svg>