<svg width="464" height="227" fill="none" xmlns="http://www.w3.org/2000/svg"><g clip-path="url(#clip0)" fill="#877CB9"><path d="M.75 226.49a.737.737 0 01-.53-.21.822.822 0 01-.16-.28.66.66 0 010-.28.71.71 0 010-.29.79.79 0 01.16-.24.791.791 0 011.07 0c.065.072.118.153.16.24a.932.932 0 01.05.29.867.867 0 01-.05.28.713.713 0 01-.16.25.97.97 0 01-.25.16.701.701 0 01-.29.08zm210 .01a.757.757 0 01-.527-.223.757.757 0 01-.223-.527c0-.197.078-.386.216-.527a.755.755 0 01.524-.223c.199 0 .39.079.53.22a.747.747 0 010 1.06.747.747 0 01-.53.22h.01zm-15 0a.757.757 0 01-.527-.223.757.757 0 01-.223-.527c0-.197.078-.386.216-.527a.755.755 0 01.524-.223c.199 0 .39.079.53.22a.747.747 0 010 1.06.747.747 0 01-.53.22h.01zm-15 0a.757.757 0 01-.527-.223.757.757 0 01-.223-.527c0-.197.078-.386.216-.527a.755.755 0 01.524-.223c.199 0 .39.079.53.22a.747.747 0 010 1.06.747.747 0 01-.53.22h.01zm-15 0a.757.757 0 01-.527-.223.757.757 0 01-.223-.527c0-.197.078-.386.216-.527a.755.755 0 01.524-.223c.199 0 .39.079.53.22a.747.747 0 010 1.06.747.747 0 01-.53.22h.01zm-15 0a.757.757 0 01-.527-.223.757.757 0 01-.223-.527c0-.197.078-.386.216-.527a.755.755 0 01.524-.223c.199 0 .39.079.53.22a.747.747 0 010 1.06.747.747 0 01-.53.22h.01zm-15 0a.757.757 0 01-.527-.223.757.757 0 01-.223-.527c0-.197.078-.386.216-.527a.755.755 0 01.524-.223c.199 0 .39.079.53.22a.747.747 0 010 1.06.747.747 0 01-.53.22h.01zm-15 0a.757.757 0 01-.527-.223.757.757 0 01-.223-.527c0-.197.078-.386.216-.527a.755.755 0 01.524-.223c.199 0 .39.079.53.22a.747.747 0 010 1.06.747.747 0 01-.53.22h.01zm-15 0a.757.757 0 01-.527-.223.757.757 0 01-.223-.527c0-.197.078-.386.216-.527a.755.755 0 01.524-.223c.199 0 .39.079.53.22a.747.747 0 010 1.06.747.747 0 01-.53.22h.01zm-15 0a.758.758 0 01-.75-.75.752.752 0 01.74-.75.749.749 0 01.53 1.28.749.749 0 01-.53.22h.01zm-15 0a.758.758 0 01-.75-.75.752.752 0 01.74-.75.749.749 0 01.53 1.28.749.749 0 01-.53.22h.01zm-15 0a.758.758 0 01-.75-.75.752.752 0 01.74-.75.749.749 0 01.53 1.28.749.749 0 01-.53.22h.01zm-15 0a.758.758 0 01-.75-.75.752.752 0 01.74-.75.749.749 0 01.53 1.28.749.749 0 01-.53.22h.01zm-15 0a.758.758 0 01-.75-.75.752.752 0 01.74-.75.749.749 0 01.53 1.28.749.749 0 01-.53.22h.01zm-15 0a.758.758 0 01-.75-.75.752.752 0 01.74-.75.749.749 0 01.53 1.28.749.749 0 01-.53.22h.01zm210-.01a.656.656 0 01-.28-.05.834.834 0 01-.25-.16.77.77 0 01-.22-.53c0-.1.02-.199.06-.29a.76.76 0 011-.41.7.7 0 01.24.17c.071.069.128.15.17.24a.92.92 0 01.05.29.727.727 0 01-.22.53.713.713 0 01-.55.21zM.76 211.5a.81.81 0 01-.54-.22.74.74 0 01-.21-.53.71.71 0 010-.29.79.79 0 01.16-.24.76.76 0 011.06 0 .721.721 0 01.17.81.777.777 0 01-.64.47zm209.99 0a.757.757 0 01-.527-.223.757.757 0 01-.223-.527c0-.197.078-.386.216-.527a.755.755 0 01.524-.223c.199 0 .39.079.53.22a.747.747 0 010 1.06.747.747 0 01-.53.22h.01zm-15 0a.757.757 0 01-.527-.223.757.757 0 01-.223-.527c0-.197.078-.386.216-.527a.755.755 0 01.524-.223c.199 0 .39.079.53.22a.747.747 0 010 1.06.747.747 0 01-.53.22h.01zm-15 0a.757.757 0 01-.527-.223.757.757 0 01-.223-.527c0-.197.078-.386.216-.527a.755.755 0 01.524-.223c.199 0 .39.079.53.22a.747.747 0 010 1.06.747.747 0 01-.53.22h.01zm-15 0a.757.757 0 01-.527-.223.757.757 0 01-.223-.527c0-.197.078-.386.216-.527a.755.755 0 01.524-.223c.199 0 .39.079.53.22a.747.747 0 010 1.06.747.747 0 01-.53.22h.01zm-15 0a.757.757 0 01-.527-.223.757.757 0 01-.223-.527c0-.197.078-.386.216-.527a.755.755 0 01.524-.223c.199 0 .39.079.53.22a.747.747 0 010 1.06.747.747 0 01-.53.22h.01zm-15 0a.757.757 0 01-.527-.223.757.757 0 01-.223-.527c0-.197.078-.386.216-.527a.755.755 0 01.524-.223c.199 0 .39.079.53.22a.747.747 0 010 1.06.747.747 0 01-.53.22h.01zm-15 0a.757.757 0 01-.527-.223.757.757 0 01-.223-.527c0-.197.078-.386.216-.527a.755.755 0 01.524-.223c.199 0 .39.079.53.22a.747.747 0 010 1.06.747.747 0 01-.53.22h.01zm-15 0a.757.757 0 01-.527-.223.757.757 0 01-.223-.527c0-.197.078-.386.216-.527a.755.755 0 01.524-.223c.199 0 .39.079.53.22a.747.747 0 010 1.06.747.747 0 01-.53.22h.01zm-15 0a.758.758 0 01-.75-.75.752.752 0 01.74-.75.749.749 0 01.53 1.28.749.749 0 01-.53.22h.01zm-15 0a.758.758 0 01-.75-.75.752.752 0 01.74-.75.749.749 0 01.53 1.28.749.749 0 01-.53.22h.01zm-15 0a.758.758 0 01-.75-.75.752.752 0 01.74-.75.749.749 0 01.53 1.28.749.749 0 01-.53.22h.01zm-15 0a.758.758 0 01-.75-.75.752.752 0 01.74-.75.749.749 0 01.53 1.28.749.749 0 01-.53.22h.01zm-15 0a.758.758 0 01-.75-.75.752.752 0 01.74-.75.749.749 0 01.53 1.28.749.749 0 01-.53.22h.01zm-15 0a.758.758 0 01-.75-.75.752.752 0 01.74-.75.749.749 0 01.53 1.28.749.749 0 01-.53.22h.01zm210 0a.749.749 0 11.53-1.28.825.825 0 01.17.24.93.93 0 01.05.29.717.717 0 01-.22.53.749.749 0 01-.53.22zm-225-15a.71.71 0 01-.28-.06 1.025 1.025 0 01-.25-.16.822.822 0 01-.16-.28.718.718 0 010-.57.779.779 0 01.16-.24.76.76 0 011.06 0 .83.83 0 01.17.24.927.927 0 01.05.29.873.873 0 01-.05.28.777.777 0 01-.41.41.724.724 0 01-.29.09zm210 0a.757.757 0 01-.527-.223.757.757 0 01-.223-.527c0-.197.078-.386.216-.527a.755.755 0 01.524-.223c.199 0 .39.079.53.22a.747.747 0 010 1.06.747.747 0 01-.53.22h.01zm-15 0a.757.757 0 01-.527-.223.757.757 0 01-.223-.527c0-.197.078-.386.216-.527a.755.755 0 01.524-.223c.199 0 .39.079.53.22a.747.747 0 010 1.06.747.747 0 01-.53.22h.01zm-15 0a.757.757 0 01-.527-.223.757.757 0 01-.223-.527c0-.197.078-.386.216-.527a.755.755 0 01.524-.223c.199 0 .39.079.53.22a.747.747 0 010 1.06.747.747 0 01-.53.22h.01zm-15 0a.757.757 0 01-.527-.223.757.757 0 01-.223-.527c0-.197.078-.386.216-.527a.755.755 0 01.524-.223c.199 0 .39.079.53.22a.747.747 0 010 1.06.747.747 0 01-.53.22h.01zm-15 0a.757.757 0 01-.527-.223.757.757 0 01-.223-.527c0-.197.078-.386.216-.527a.755.755 0 01.524-.223c.199 0 .39.079.53.22a.747.747 0 010 1.06.747.747 0 01-.53.22h.01zm-15 0a.757.757 0 01-.527-.223.757.757 0 01-.223-.527c0-.197.078-.386.216-.527a.755.755 0 01.524-.223c.199 0 .39.079.53.22a.747.747 0 010 1.06.747.747 0 01-.53.22h.01zm-15 0a.757.757 0 01-.527-.223.757.757 0 01-.223-.527c0-.197.078-.386.216-.527a.755.755 0 01.524-.223c.199 0 .39.079.53.22a.747.747 0 010 1.06.747.747 0 01-.53.22h.01zm-15 0a.757.757 0 01-.527-.223.757.757 0 01-.223-.527c0-.197.078-.386.216-.527a.755.755 0 01.524-.223c.199 0 .39.079.53.22a.747.747 0 010 1.06.747.747 0 01-.53.22h.01zm-15 0a.758.758 0 01-.75-.75.752.752 0 01.74-.75.749.749 0 01.53 1.28.749.749 0 01-.53.22h.01zm-15 0a.758.758 0 01-.75-.75.752.752 0 01.74-.75.749.749 0 01.53 1.28.749.749 0 01-.53.22h.01zm-15 0a.758.758 0 01-.75-.75.752.752 0 01.74-.75.749.749 0 01.53 1.28.749.749 0 01-.53.22h.01zm-15 0a.758.758 0 01-.75-.75.752.752 0 01.74-.75.749.749 0 01.53 1.28.749.749 0 01-.53.22h.01zm-15 0a.758.758 0 01-.75-.75.752.752 0 01.74-.75.749.749 0 01.53 1.28.749.749 0 01-.53.22h.01zm-15 0a.758.758 0 01-.75-.75.752.752 0 01.74-.75.749.749 0 01.53 1.28.749.749 0 01-.53.22h.01zm210 0a.77.77 0 01-.53-.22.821.821 0 01-.16-.25.674.674 0 01-.06-.28.76.76 0 01.606-.734.756.756 0 01.674.204.825.825 0 01.17.24.93.93 0 01.05.29.86.86 0 01-.05.28.776.776 0 01-.7.47zm-225-15a.756.756 0 01-.53-.22.74.74 0 01-.21-.53.71.71 0 010-.29.767.767 0 01.16-.24.775.775 0 01.82-.17.7.7 0 01.24.17c.07.069.129.15.17.24a.927.927 0 01.05.29.71.71 0 01-.22.53.795.795 0 01-.48.22zm210 0a.757.757 0 01-.527-.223.757.757 0 01-.223-.527c0-.197.078-.386.216-.527a.755.755 0 01.524-.223c.199 0 .39.079.53.22a.747.747 0 010 1.06.747.747 0 01-.53.22h.01zm-15 0a.757.757 0 01-.527-.223.757.757 0 01-.223-.527c0-.197.078-.386.216-.527a.755.755 0 01.524-.223c.199 0 .39.079.53.22a.747.747 0 010 1.06.747.747 0 01-.53.22h.01zm-15 0a.757.757 0 01-.527-.223.757.757 0 01-.223-.527c0-.197.078-.386.216-.527a.755.755 0 01.524-.223c.199 0 .39.079.53.22a.747.747 0 010 1.06.747.747 0 01-.53.22h.01zm-15 0a.757.757 0 01-.527-.223.757.757 0 01-.223-.527c0-.197.078-.386.216-.527a.755.755 0 01.524-.223c.199 0 .39.079.53.22a.747.747 0 010 1.06.747.747 0 01-.53.22h.01zm-15 0a.757.757 0 01-.527-.223.757.757 0 01-.223-.527c0-.197.078-.386.216-.527a.755.755 0 01.524-.223c.199 0 .39.079.53.22a.747.747 0 010 1.06.747.747 0 01-.53.22h.01zm-15 0a.757.757 0 01-.527-.223.757.757 0 01-.223-.527c0-.197.078-.386.216-.527a.755.755 0 01.524-.223c.199 0 .39.079.53.22a.747.747 0 010 1.06.747.747 0 01-.53.22h.01zm-15 0a.757.757 0 01-.527-.223.757.757 0 01-.223-.527c0-.197.078-.386.216-.527a.755.755 0 01.524-.223c.199 0 .39.079.53.22a.747.747 0 010 1.06.747.747 0 01-.53.22h.01zm-15 0a.757.757 0 01-.527-.223.757.757 0 01-.223-.527c0-.197.078-.386.216-.527a.755.755 0 01.524-.223c.199 0 .39.079.53.22a.747.747 0 010 1.06.747.747 0 01-.53.22h.01zm-15 0a.758.758 0 01-.75-.75.752.752 0 01.74-.75.749.749 0 01.53 1.28.749.749 0 01-.53.22h.01zm-15 0a.758.758 0 01-.75-.75.752.752 0 01.74-.75.749.749 0 01.53 1.28.749.749 0 01-.53.22h.01zm-15 0a.758.758 0 01-.75-.75.752.752 0 01.74-.75.749.749 0 01.53 1.28.749.749 0 01-.53.22h.01zm-30 0a.758.758 0 01-.75-.75.752.752 0 01.74-.75.749.749 0 01.53 1.28.749.749 0 01-.53.22h.01zm-15 0a.758.758 0 01-.75-.75.752.752 0 01.74-.75.749.749 0 01.53 1.28.749.749 0 01-.53.22h.01zm210 0a.659.659 0 01-.28-.06.682.682 0 01-.41-.41.674.674 0 01-.06-.28c0-.1.02-.198.06-.29a.788.788 0 01.16-.24.852.852 0 01.25-.17.76.76 0 01.81.17.637.637 0 01.16.24.747.747 0 01-.16.82.747.747 0 01-.53.22zm-225-15a.752.752 0 01-.69-1.04.767.767 0 01.16-.24.775.775 0 01.82-.17.7.7 0 01.24.17.718.718 0 01.17.81.744.744 0 01-.17.25.795.795 0 01-.24.16.723.723 0 01-.29.06zm210 0a.757.757 0 01-.527-.223.757.757 0 01-.223-.527c0-.197.078-.386.216-.527a.755.755 0 01.524-.223c.199 0 .39.079.53.22a.747.747 0 010 1.06.747.747 0 01-.53.22h.01zm-15 0a.757.757 0 01-.527-.223.757.757 0 01-.223-.527c0-.197.078-.386.216-.527a.755.755 0 01.524-.223c.199 0 .39.079.53.22a.747.747 0 010 1.06.747.747 0 01-.53.22h.01zm-15 0a.757.757 0 01-.527-.223.757.757 0 01-.223-.527c0-.197.078-.386.216-.527a.755.755 0 01.524-.223c.199 0 .39.079.53.22a.747.747 0 010 1.06.747.747 0 01-.53.22h.01zm-15 0a.757.757 0 01-.527-.223.757.757 0 01-.223-.527c0-.197.078-.386.216-.527a.755.755 0 01.524-.223c.199 0 .39.079.53.22a.747.747 0 010 1.06.747.747 0 01-.53.22h.01zm-30 0a.757.757 0 01-.527-.223.757.757 0 01-.223-.527c0-.197.078-.386.216-.527a.755.755 0 01.524-.223c.199 0 .39.079.53.22a.747.747 0 010 1.06.747.747 0 01-.53.22h.01zm-15 0a.757.757 0 01-.527-.223.757.757 0 01-.223-.527c0-.197.078-.386.216-.527a.755.755 0 01.524-.223c.199 0 .39.079.53.22a.747.747 0 010 1.06.747.747 0 01-.53.22h.01zm-15 0a.757.757 0 01-.527-.223.757.757 0 01-.223-.527c0-.197.078-.386.216-.527a.755.755 0 01.524-.223c.199 0 .39.079.53.22a.747.747 0 010 1.06.747.747 0 01-.53.22h.01zm-15 0a.758.758 0 01-.75-.75.752.752 0 01.74-.75.749.749 0 01.53 1.28.749.749 0 01-.53.22h.01zm-15 0a.758.758 0 01-.75-.75.752.752 0 01.74-.75.749.749 0 01.53 1.28.749.749 0 01-.53.22h.01zm-15 0a.758.758 0 01-.75-.75.752.752 0 01.74-.75.749.749 0 01.53 1.28.749.749 0 01-.53.22h.01zm-30 0a.758.758 0 01-.75-.75.752.752 0 01.74-.75.749.749 0 01.53 1.28.749.749 0 01-.53.22h.01zm-15 0a.758.758 0 01-.75-.75.752.752 0 01.74-.75.749.749 0 01.53 1.28.749.749 0 01-.53.22h.01zm210 0a.747.747 0 01-.53-.22.747.747 0 010-1.06.75.75 0 01.25-.17.76.76 0 01.81.17c.141.141.22.331.22.53a.86.86 0 01-.05.28.75.75 0 01-.17.25.749.749 0 01-.53.22zM.76 151.5a.66.66 0 01-.29-.06.791.791 0 01-.25-.16.768.768 0 01-.22-.53c0-.099.02-.198.06-.29a.79.79 0 01.16-.24.79.79 0 011.07 0 .986.986 0 01.16.24.936.936 0 01.05.29.757.757 0 01-.21.53.97.97 0 01-.25.16.693.693 0 01-.28.06zm209.99 0a.757.757 0 01-.527-.223.757.757 0 01-.223-.527c0-.197.078-.386.216-.527a.755.755 0 01.524-.223c.199 0 .39.079.53.22a.747.747 0 010 1.06.747.747 0 01-.53.22h.01zm-15 0a.757.757 0 01-.527-.223.757.757 0 01-.223-.527c0-.197.078-.386.216-.527a.755.755 0 01.524-.223c.199 0 .39.079.53.22a.747.747 0 010 1.06.747.747 0 01-.53.22h.01zm-15 0a.757.757 0 01-.527-.223.757.757 0 01-.223-.527c0-.197.078-.386.216-.527a.755.755 0 01.524-.223c.199 0 .39.079.53.22a.747.747 0 010 1.06.747.747 0 01-.53.22h.01zm-15 0a.757.757 0 01-.527-.223.757.757 0 01-.223-.527c0-.197.078-.386.216-.527a.755.755 0 01.524-.223c.199 0 .39.079.53.22a.747.747 0 010 1.06.747.747 0 01-.53.22h.01zm-15 0a.757.757 0 01-.527-.223.757.757 0 01-.223-.527c0-.197.078-.386.216-.527a.755.755 0 01.524-.223c.199 0 .39.079.53.22a.747.747 0 010 1.06.747.747 0 01-.53.22h.01zm-15 0a.757.757 0 01-.527-.223.757.757 0 01-.223-.527c0-.197.078-.386.216-.527a.755.755 0 01.524-.223c.199 0 .39.079.53.22a.747.747 0 010 1.06.747.747 0 01-.53.22h.01zm-15 0a.757.757 0 01-.527-.223.757.757 0 01-.223-.527c0-.197.078-.386.216-.527a.755.755 0 01.524-.223c.199 0 .39.079.53.22a.747.747 0 010 1.06.747.747 0 01-.53.22h.01zm-15 0a.757.757 0 01-.527-.223.757.757 0 01-.223-.527c0-.197.078-.386.216-.527a.755.755 0 01.524-.223c.199 0 .39.079.53.22a.747.747 0 010 1.06.747.747 0 01-.53.22h.01zm-15 0a.758.758 0 01-.75-.75.752.752 0 01.74-.75.749.749 0 01.53 1.28.749.749 0 01-.53.22h.01zm-15 0a.758.758 0 01-.75-.75.752.752 0 01.74-.75.749.749 0 01.53 1.28.749.749 0 01-.53.22h.01zm-15 0a.758.758 0 01-.75-.75.752.752 0 01.74-.75.749.749 0 01.53 1.28.749.749 0 01-.53.22h.01zm-15 0a.758.758 0 01-.75-.75.752.752 0 01.74-.75.749.749 0 01.53 1.28.749.749 0 01-.53.22h.01zm-15 0a.758.758 0 01-.75-.75.752.752 0 01.74-.75.749.749 0 01.53 1.28.749.749 0 01-.53.22h.01zm-15 0a.758.758 0 01-.75-.75.752.752 0 01.74-.75.749.749 0 01.53 1.28.749.749 0 01-.53.22h.01zm210 0a.659.659 0 01-.28-.06.815.815 0 01-.25-.16.766.766 0 01-.22-.53.76.76 0 01.606-.734.756.756 0 01.674.204.825.825 0 01.17.24.93.93 0 01.05.29.728.728 0 01-.22.53.749.749 0 01-.53.22zm-225-15a.768.768 0 01-.53-.22.822.822 0 01-.16-.28.66.66 0 010-.28.71.71 0 010-.29.779.779 0 01.16-.24.76.76 0 011.06 0 .83.83 0 01.17.24.927.927 0 01.05.29.872.872 0 01-.05.28.854.854 0 01-.17.25.753.753 0 01-.53.25zm210 0a.757.757 0 01-.527-.223.757.757 0 01-.223-.527c0-.197.078-.386.216-.527a.755.755 0 01.524-.223c.199 0 .39.079.53.22a.747.747 0 010 1.06.747.747 0 01-.53.22h.01zm-15 0a.757.757 0 01-.527-.223.757.757 0 01-.223-.527c0-.197.078-.386.216-.527a.755.755 0 01.524-.223c.199 0 .39.079.53.22a.747.747 0 010 1.06.747.747 0 01-.53.22h.01zm-15 0a.757.757 0 01-.527-.223.757.757 0 01-.223-.527c0-.197.078-.386.216-.527a.755.755 0 01.524-.223c.199 0 .39.079.53.22a.747.747 0 010 1.06.747.747 0 01-.53.22h.01zm-15 0a.757.757 0 01-.527-.223.757.757 0 01-.223-.527c0-.197.078-.386.216-.527a.755.755 0 01.524-.223c.199 0 .39.079.53.22a.747.747 0 010 1.06.747.747 0 01-.53.22h.01zm-15 0a.757.757 0 01-.527-.223.757.757 0 01-.223-.527c0-.197.078-.386.216-.527a.755.755 0 01.524-.223c.199 0 .39.079.53.22a.747.747 0 010 1.06.747.747 0 01-.53.22h.01zm-15 0a.757.757 0 01-.527-.223.757.757 0 01-.223-.527c0-.197.078-.386.216-.527a.755.755 0 01.524-.223c.199 0 .39.079.53.22a.747.747 0 010 1.06.747.747 0 01-.53.22h.01zm-15 0a.757.757 0 01-.527-.223.757.757 0 01-.223-.527c0-.197.078-.386.216-.527a.755.755 0 01.524-.223c.199 0 .39.079.53.22a.747.747 0 010 1.06.747.747 0 01-.53.22h.01zm-15 0a.757.757 0 01-.527-.223.757.757 0 01-.223-.527c0-.197.078-.386.216-.527a.755.755 0 01.524-.223c.199 0 .39.079.53.22a.747.747 0 010 1.06.747.747 0 01-.53.22h.01zm-15 0a.758.758 0 01-.75-.75.752.752 0 01.74-.75.749.749 0 01.53 1.28.749.749 0 01-.53.22h.01zm-30 0a.758.758 0 01-.75-.75.752.752 0 01.74-.75.749.749 0 01.53 1.28.749.749 0 01-.53.22h.01zm-15 0a.758.758 0 01-.75-.75.752.752 0 01.74-.75.749.749 0 01.53 1.28.749.749 0 01-.53.22h.01zm-15 0a.758.758 0 01-.75-.75.752.752 0 01.74-.75.749.749 0 01.53 1.28.749.749 0 01-.53.22h.01zm-15 0a.758.758 0 01-.75-.75.752.752 0 01.74-.75.749.749 0 01.53 1.28.749.749 0 01-.53.22h.01z"/><path d="M75.748 136.5h.002-.01.008a.757.757 0 01-.748-.75.752.752 0 01.74-.75.749.749 0 01.53 1.28.75.75 0 01-.522.22z" fill-opacity=".4"/><path d="M225.75 136.5a.749.749 0 01-.53-1.28.769.769 0 011.06 0 .749.749 0 01-.53 1.28zm-225-15a.749.749 0 01-.69-1.04 1.01 1.01 0 01.16-.24.768.768 0 011.23.24.71.71 0 01.05.29.749.749 0 01-.75.75zm210 0a.757.757 0 01-.527-.223.757.757 0 01-.223-.527c0-.197.078-.386.216-.527a.755.755 0 01.524-.223c.199 0 .39.079.53.22a.747.747 0 010 1.06.747.747 0 01-.53.22h.01zm-15 0a.757.757 0 01-.527-.223.757.757 0 01-.223-.527c0-.197.078-.386.216-.527a.755.755 0 01.524-.223c.199 0 .39.079.53.22a.747.747 0 010 1.06.747.747 0 01-.53.22h.01zm-15 0a.757.757 0 01-.527-.223.757.757 0 01-.223-.527c0-.197.078-.386.216-.527a.755.755 0 01.524-.223c.199 0 .39.079.53.22a.747.747 0 010 1.06.747.747 0 01-.53.22h.01zm-15 0a.757.757 0 01-.527-.223.757.757 0 01-.223-.527c0-.197.078-.386.216-.527a.755.755 0 01.524-.223c.199 0 .39.079.53.22a.747.747 0 010 1.06.747.747 0 01-.53.22h.01zm-15 0a.757.757 0 01-.527-.223.757.757 0 01-.223-.527c0-.197.078-.386.216-.527a.755.755 0 01.524-.223c.199 0 .39.079.53.22a.747.747 0 010 1.06.747.747 0 01-.53.22h.01zm-15 0a.757.757 0 01-.527-.223.757.757 0 01-.223-.527c0-.197.078-.386.216-.527a.755.755 0 01.524-.223c.199 0 .39.079.53.22a.747.747 0 010 1.06.747.747 0 01-.53.22h.01zm-15 0a.757.757 0 01-.527-.223.757.757 0 01-.223-.527c0-.197.078-.386.216-.527a.755.755 0 01.524-.223c.199 0 .39.079.53.22a.747.747 0 010 1.06.747.747 0 01-.53.22h.01zm-15 0a.757.757 0 01-.527-.223.757.757 0 01-.223-.527c0-.197.078-.386.216-.527a.755.755 0 01.524-.223c.199 0 .39.079.53.22a.747.747 0 010 1.06.747.747 0 01-.53.22h.01zm-15 0a.758.758 0 01-.75-.75.752.752 0 01.74-.75.749.749 0 01.53 1.28.749.749 0 01-.53.22h.01zm-15 0a.758.758 0 01-.75-.75.752.752 0 01.74-.75.749.749 0 01.53 1.28.749.749 0 01-.53.22h.01zm-15 0a.758.758 0 01-.75-.75.752.752 0 01.74-.75.749.749 0 01.53 1.28.749.749 0 01-.53.22h.01zm-15 0a.758.758 0 01-.75-.75.752.752 0 01.74-.75.749.749 0 01.53 1.28.749.749 0 01-.53.22h.01zm-15 0a.758.758 0 01-.75-.75.752.752 0 01.74-.75.749.749 0 01.53 1.28.749.749 0 01-.53.22h.01zm-15 0a.758.758 0 01-.75-.75.752.752 0 01.74-.75.749.749 0 01.53 1.28.749.749 0 01-.53.22h.01zm210 0a.749.749 0 01-.69-1.04.76.76 0 011-.41c.18.086.324.23.41.41a.92.92 0 01.05.29.77.77 0 01-.22.53.776.776 0 01-.55.22zm-225-15a.768.768 0 01-.53-.22.75.75 0 010-1.06.768.768 0 011.06 0 .75.75 0 01-.53 1.28zm210 0a.757.757 0 01-.527-.223.757.757 0 01-.223-.527c0-.197.078-.386.216-.527a.755.755 0 01.524-.223c.199 0 .39.079.53.22a.747.747 0 010 1.06.747.747 0 01-.53.22h.01zm-15 0a.757.757 0 01-.527-.223.757.757 0 01-.223-.527c0-.197.078-.386.216-.527a.755.755 0 01.524-.223c.199 0 .39.079.53.22a.747.747 0 010 1.06.747.747 0 01-.53.22h.01zm-15 0a.757.757 0 01-.527-.223.757.757 0 01-.223-.527c0-.197.078-.386.216-.527a.755.755 0 01.524-.223c.199 0 .39.079.53.22a.747.747 0 010 1.06.747.747 0 01-.53.22h.01zm-15 0a.757.757 0 01-.527-.223.757.757 0 01-.223-.527c0-.197.078-.386.216-.527a.755.755 0 01.524-.223c.199 0 .39.079.53.22a.747.747 0 010 1.06.747.747 0 01-.53.22h.01zm-15 0a.757.757 0 01-.527-.223.757.757 0 01-.223-.527c0-.197.078-.386.216-.527a.755.755 0 01.524-.223c.199 0 .39.079.53.22a.747.747 0 010 1.06.747.747 0 01-.53.22h.01zm-15 0a.757.757 0 01-.527-.223.757.757 0 01-.223-.527c0-.197.078-.386.216-.527a.755.755 0 01.524-.223c.199 0 .39.079.53.22a.747.747 0 010 1.06.747.747 0 01-.53.22h.01zm-15 0a.757.757 0 01-.527-.223.757.757 0 01-.223-.527c0-.197.078-.386.216-.527a.755.755 0 01.524-.223c.199 0 .39.079.53.22a.747.747 0 010 1.06.747.747 0 01-.53.22h.01zm-15 0a.757.757 0 01-.527-.223.757.757 0 01-.223-.527c0-.197.078-.386.216-.527a.755.755 0 01.524-.223c.199 0 .39.079.53.22a.747.747 0 010 1.06.747.747 0 01-.53.22h.01zm-15 0a.758.758 0 01-.75-.75.752.752 0 01.74-.75.749.749 0 01.53 1.28.749.749 0 01-.53.22h.01zm-15 0a.758.758 0 01-.75-.75.752.752 0 01.74-.75.749.749 0 01.53 1.28.749.749 0 01-.53.22h.01zm-15 0a.758.758 0 01-.75-.75.752.752 0 01.74-.75.749.749 0 01.53 1.28.749.749 0 01-.53.22h.01zm-15 0a.758.758 0 01-.75-.75.752.752 0 01.74-.75.749.749 0 01.53 1.28.749.749 0 01-.53.22h.01zm-15 0a.758.758 0 01-.75-.75.752.752 0 01.74-.75.749.749 0 01.53 1.28.749.749 0 01-.53.22h.01zm-15 0a.758.758 0 01-.75-.75.752.752 0 01.74-.75.749.749 0 01.53 1.28.749.749 0 01-.53.22h.01zm210 0a.75.75 0 01-.53-1.28.721.721 0 01.25-.17.712.712 0 01.432-.043.71.71 0 01.378.213c.141.14.22.331.22.53a.865.865 0 01-.05.28.75.75 0 01-.17.25.794.794 0 01-.24.16.738.738 0 01-.29.06zm-225-15a.82.82 0 01-.53-.22.72.72 0 01-.16-.28.67.67 0 01-.06-.25.781.781 0 01.47-.7.75.75 0 01.81.17.72.72 0 01.23.53.78.78 0 01-.23.53.75.75 0 01-.53.22zm210 0a.759.759 0 01-.75-.75.752.752 0 01.74-.75.748.748 0 01.75.75.749.749 0 01-.75.75h.01zm-15 0a.759.759 0 01-.75-.75.752.752 0 01.74-.75.748.748 0 01.75.75.749.749 0 01-.75.75h.01zm-15 0a.759.759 0 01-.75-.75.752.752 0 01.74-.75.748.748 0 01.75.75.749.749 0 01-.75.75h.01zm-15 0a.759.759 0 01-.75-.75.752.752 0 01.74-.75.748.748 0 01.75.75.749.749 0 01-.75.75h.01zm-15 0a.759.759 0 01-.75-.75.752.752 0 01.74-.75.748.748 0 01.75.75.749.749 0 01-.75.75h.01zm-15 0a.759.759 0 01-.75-.75.752.752 0 01.74-.75.748.748 0 01.75.75.749.749 0 01-.75.75h.01zm-15 0a.759.759 0 01-.75-.75.752.752 0 01.74-.75.748.748 0 01.75.75.749.749 0 01-.75.75h.01zm-15 0a.759.759 0 01-.75-.75.752.752 0 01.74-.75.748.748 0 01.75.75.749.749 0 01-.75.75h.01zm-15 0a.76.76 0 01-.75-.75.75.75 0 01.74-.75.75.75 0 110 1.5h.01zm-15 0a.76.76 0 01-.75-.75.75.75 0 01.74-.75.75.75 0 110 1.5h.01zm-15 0a.76.76 0 01-.75-.75.75.75 0 01.74-.75.75.75 0 110 1.5h.01zm-30 0a.76.76 0 01-.75-.75.75.75 0 01.74-.75.75.75 0 110 1.5h.01zm-15 0a.76.76 0 01-.75-.75.75.75 0 01.74-.75.75.75 0 110 1.5h.01zm210 0a.771.771 0 01-.53-.22.715.715 0 01-.16-.25.71.71 0 01-.06-.28.748.748 0 01.605-.735.782.782 0 01.435.035c.09.041.171.099.24.17.141.14.22.33.22.53a.92.92 0 01-.05.28.778.778 0 01-.7.47zm-225-15a.75.75 0 01-.53-1.28.848.848 0 01.25-.17.8.8 0 01.57 0 .848.848 0 01.25.17.997.997 0 01.16.24.93.93 0 01.05.29.92.92 0 01-.05.28.89.89 0 01-.16.25c-.075.065-.16.119-.25.16a.722.722 0 01-.29.06zm210 0a.759.759 0 01-.75-.75.752.752 0 01.74-.75.748.748 0 01.75.75.749.749 0 01-.75.75h.01zm-15 0a.759.759 0 01-.75-.75.752.752 0 01.74-.75.748.748 0 01.75.75.749.749 0 01-.75.75h.01zm-15 0a.759.759 0 01-.75-.75.752.752 0 01.74-.75.748.748 0 01.75.75.749.749 0 01-.75.75h.01zm-15 0a.759.759 0 01-.75-.75.752.752 0 01.74-.75.748.748 0 01.75.75.749.749 0 01-.75.75h.01zm-15 0a.759.759 0 01-.75-.75.752.752 0 01.74-.75.748.748 0 01.75.75.749.749 0 01-.75.75h.01zm-15 0a.759.759 0 01-.75-.75.752.752 0 01.74-.75.748.748 0 01.75.75.749.749 0 01-.75.75h.01zm-15 0a.759.759 0 01-.75-.75.752.752 0 01.74-.75.748.748 0 01.75.75.749.749 0 01-.75.75h.01zm-15 0a.759.759 0 01-.75-.75.752.752 0 01.74-.75.748.748 0 01.75.75.749.749 0 01-.75.75h.01zm-15 0a.76.76 0 01-.75-.75.75.75 0 01.74-.75.75.75 0 110 1.5h.01zm-15 0a.76.76 0 01-.75-.75.75.75 0 01.74-.75.75.75 0 110 1.5h.01zm-15 0a.76.76 0 01-.75-.75.75.75 0 01.74-.75.75.75 0 110 1.5h.01zm-15 0a.76.76 0 01-.75-.75.75.75 0 01.74-.75.75.75 0 110 1.5h.01zm-15 0a.76.76 0 01-.75-.75.75.75 0 01.74-.75.75.75 0 110 1.5h.01zm-15 0a.76.76 0 01-.75-.75.75.75 0 01.74-.75.75.75 0 110 1.5h.01zm210 0a.748.748 0 01-.69-1.04.759.759 0 011-.41.87.87 0 01.41.41.924.924 0 01.05.29.768.768 0 01-.22.53.778.778 0 01-.55.22zm-225-15a.77.77 0 01-.53-.22.72.72 0 01-.16-.28.67.67 0 01-.06-.25c0-.199.08-.39.22-.53a.78.78 0 01.78-.17c.09.042.171.1.24.17a.72.72 0 01.17.81.779.779 0 01-.66.47zm210 0a.759.759 0 01-.75-.75.752.752 0 01.74-.75.748.748 0 01.75.75.749.749 0 01-.75.75h.01zm-15 0a.759.759 0 01-.75-.75.752.752 0 01.74-.75.748.748 0 01.75.75.749.749 0 01-.75.75h.01zm-15 0a.759.759 0 01-.75-.75.752.752 0 01.74-.75.748.748 0 01.75.75.749.749 0 01-.75.75h.01zm-15 0a.759.759 0 01-.75-.75.752.752 0 01.74-.75.748.748 0 01.75.75.749.749 0 01-.75.75h.01zm-15 0a.759.759 0 01-.75-.75.752.752 0 01.74-.75.748.748 0 01.75.75.749.749 0 01-.75.75h.01zm-15 0a.759.759 0 01-.75-.75.752.752 0 01.74-.75.748.748 0 01.75.75.749.749 0 01-.75.75h.01zm-15 0a.759.759 0 01-.75-.75.752.752 0 01.74-.75.748.748 0 01.75.75.749.749 0 01-.75.75h.01zm-15 0a.759.759 0 01-.75-.75.752.752 0 01.74-.75.748.748 0 01.75.75.749.749 0 01-.75.75h.01zm-15 0a.76.76 0 01-.75-.75.75.75 0 01.74-.75.75.75 0 110 1.5h.01zm-15 0a.76.76 0 01-.75-.75.75.75 0 01.74-.75.75.75 0 110 1.5h.01zm-15 0a.76.76 0 01-.75-.75.75.75 0 01.74-.75.75.75 0 110 1.5h.01zm-15 0a.76.76 0 01-.75-.75.75.75 0 01.74-.75.75.75 0 110 1.5h.01zm-15 0a.76.76 0 01-.75-.75.75.75 0 01.74-.75.75.75 0 110 1.5h.01zm-15 0a.76.76 0 01-.75-.75.75.75 0 01.74-.75.75.75 0 110 1.5h.01zm210 0a.771.771 0 01-.53-.22.827.827 0 01-.22-.53c0-.2.079-.39.22-.53a.743.743 0 01.682-.213.71.71 0 01.378.213c.141.14.22.33.22.53a.921.921 0 01-.05.28.78.78 0 01-.7.47zm-225-15a.818.818 0 01-.53-.22.75.75 0 010-1.06.79.79 0 011.07 0 .999.999 0 01.16.24c.04.092.06.19.06.29a.77.77 0 01-.22.53.79.79 0 01-.54.22zm210 0a.759.759 0 01-.75-.75.752.752 0 01.74-.75.748.748 0 01.75.75.749.749 0 01-.75.75h.01zm-30 0a.759.759 0 01-.75-.75.752.752 0 01.74-.75.748.748 0 01.75.75.749.749 0 01-.75.75h.01zm-15 0a.759.759 0 01-.75-.75.752.752 0 01.74-.75.748.748 0 01.75.75.749.749 0 01-.75.75h.01zm-15 0a.759.759 0 01-.75-.75.752.752 0 01.74-.75.748.748 0 01.75.75.749.749 0 01-.75.75h.01zm-15 0a.759.759 0 01-.75-.75.752.752 0 01.74-.75.748.748 0 01.75.75.749.749 0 01-.75.75h.01zm-15 0a.759.759 0 01-.75-.75.752.752 0 01.74-.75.748.748 0 01.75.75.749.749 0 01-.75.75h.01zm-15 0a.759.759 0 01-.75-.75.752.752 0 01.74-.75.748.748 0 01.75.75.749.749 0 01-.75.75h.01zm-15 0a.76.76 0 01-.75-.75.75.75 0 01.74-.75.75.75 0 110 1.5h.01zm-15 0a.76.76 0 01-.75-.75.75.75 0 01.74-.75.75.75 0 110 1.5h.01zm-15 0a.76.76 0 01-.75-.75.75.75 0 01.74-.75.75.75 0 110 1.5h.01zm-15 0a.76.76 0 01-.75-.75.75.75 0 01.74-.75.75.75 0 110 1.5h.01zm-15 0a.76.76 0 01-.75-.75.75.75 0 01.74-.75.75.75 0 110 1.5h.01zm-15 0a.76.76 0 01-.75-.75.75.75 0 01.74-.75.75.75 0 110 1.5h.01zm210 0a.748.748 0 01-.145-1.485.782.782 0 01.435.035c.09.041.171.099.24.17.141.14.22.33.22.53a.862.862 0 01-.05.28.778.778 0 01-.7.47zM.76 31.5a.72.72 0 01-.29-.06.72.72 0 01-.25-.16.76.76 0 01-.01-1.06.77.77 0 011.06 0 .76.76 0 01.23.53.78.78 0 01-.23.53.73.73 0 01-.51.22zm209.99 0a.759.759 0 01-.75-.75.752.752 0 01.74-.75.748.748 0 01.75.75.749.749 0 01-.75.75h.01zm-30 0a.759.759 0 01-.75-.75.752.752 0 01.74-.75.748.748 0 01.75.75.749.749 0 01-.75.75h.01zm-15 0a.759.759 0 01-.75-.75.752.752 0 01.74-.75.748.748 0 01.75.75.749.749 0 01-.75.75h.01zm-15 0a.759.759 0 01-.75-.75.752.752 0 01.74-.75.748.748 0 01.75.75.749.749 0 01-.75.75h.01zm-15 0a.759.759 0 01-.75-.75.752.752 0 01.74-.75.748.748 0 01.75.75.749.749 0 01-.75.75h.01zm-15 0a.759.759 0 01-.75-.75.752.752 0 01.74-.75.748.748 0 01.75.75.749.749 0 01-.75.75h.01zm-15 0a.759.759 0 01-.75-.75.752.752 0 01.74-.75.748.748 0 01.75.75.749.749 0 01-.75.75h.01zm-15 0a.76.76 0 01-.75-.75.75.75 0 01.74-.75.75.75 0 110 1.5h.01zm-15 0a.76.76 0 01-.75-.75.75.75 0 01.74-.75.75.75 0 110 1.5h.01zm-15 0a.76.76 0 01-.75-.75.75.75 0 01.74-.75.75.75 0 110 1.5h.01zm-45 0a.76.76 0 01-.75-.75.75.75 0 01.74-.75.75.75 0 110 1.5h.01z"/><path d="M30.747 31.5h.003-.01.008a.76.76 0 01-.748-.75.75.75 0 01.74-.75.75.75 0 01.008 1.5z" fill-opacity=".2"/><path d="M225.75 31.5a.748.748 0 01-.69-1.04.759.759 0 011-.41.87.87 0 01.41.41.924.924 0 01.05.29.768.768 0 01-.22.53.778.778 0 01-.55.22zm-225-15a.71.71 0 01-.28-.06.72.72 0 01-.25-.16.75.75 0 010-1.06.77.77 0 011.06 0 .76.76 0 01.23.53.78.78 0 01-.23.53.75.75 0 01-.53.22zm210 0a.759.759 0 01-.75-.75.752.752 0 01.74-.75.748.748 0 01.75.75.749.749 0 01-.75.75h.01zm-15 0a.759.759 0 01-.75-.75.752.752 0 01.74-.75.748.748 0 01.75.75.749.749 0 01-.75.75h.01zm-15 0a.759.759 0 01-.75-.75.752.752 0 01.74-.75.748.748 0 01.75.75.749.749 0 01-.75.75h.01zm-15 0a.759.759 0 01-.75-.75.752.752 0 01.74-.75.748.748 0 01.75.75.749.749 0 01-.75.75h.01zm-15 0a.759.759 0 01-.75-.75.752.752 0 01.74-.75.748.748 0 01.75.75.749.749 0 01-.75.75h.01zm-15 0a.759.759 0 01-.75-.75.752.752 0 01.74-.75.748.748 0 01.75.75.749.749 0 01-.75.75h.01zm-15 0a.759.759 0 01-.75-.75.752.752 0 01.74-.75.748.748 0 01.75.75.749.749 0 01-.75.75h.01zm-15 0a.759.759 0 01-.75-.75.752.752 0 01.74-.75.748.748 0 01.75.75.749.749 0 01-.75.75h.01zm-15 0a.76.76 0 01-.75-.75.75.75 0 01.74-.75.75.75 0 110 1.5h.01zm-15 0a.76.76 0 01-.75-.75.75.75 0 01.74-.75.75.75 0 110 1.5h.01zm-15 0a.76.76 0 01-.75-.75.75.75 0 01.74-.75.75.75 0 110 1.5h.01zm-15 0a.76.76 0 01-.75-.75.75.75 0 01.74-.75.75.75 0 110 1.5h.01zm-15 0a.76.76 0 01-.75-.75.75.75 0 01.74-.75.75.75 0 110 1.5h.01zm-15 0a.76.76 0 01-.75-.75.75.75 0 01.74-.75.75.75 0 110 1.5h.01zm210 0a.748.748 0 01-.75-.75c0-.2.079-.39.22-.53a.743.743 0 01.682-.213.71.71 0 01.378.213.748.748 0 01-.53 1.28zm-225-15a.82.82 0 01-.53-.22A.72.72 0 01.06 1 .67.67 0 010 .75a.78.78 0 01.47-.7.8.8 0 01.53 0c.09.042.171.1.24.17a.76.76 0 01.23.53.67.67 0 01-.02.25.74.74 0 01-.17.25.75.75 0 01-.53.25zm210 0a.759.759 0 01-.75-.75.752.752 0 01.74-.75.748.748 0 01.75.75.749.749 0 01-.75.75h.01zm-15 0a.759.759 0 01-.75-.75.752.752 0 01.74-.75.748.748 0 01.75.75.749.749 0 01-.75.75h.01zm-15 0a.759.759 0 01-.75-.75.752.752 0 01.74-.75.748.748 0 01.75.75.749.749 0 01-.75.75h.01zm-15 0a.759.759 0 01-.75-.75.752.752 0 01.74-.75.748.748 0 01.75.75.749.749 0 01-.75.75h.01zm-15 0a.759.759 0 01-.75-.75.752.752 0 01.74-.75.748.748 0 01.75.75.749.749 0 01-.75.75h.01zm-15 0a.759.759 0 01-.75-.75.752.752 0 01.74-.75.748.748 0 01.75.75.749.749 0 01-.75.75h.01zm-15 0a.759.759 0 01-.75-.75.752.752 0 01.74-.75.748.748 0 01.75.75.749.749 0 01-.75.75h.01zm-15 0a.759.759 0 01-.75-.75.752.752 0 01.74-.75.748.748 0 01.75.75.749.749 0 01-.75.75h.01zm-15 0A.76.76 0 0190 .75a.75.75 0 01.74-.75.75.75 0 110 1.5h.01zm-15 0A.76.76 0 0175 .75a.75.75 0 01.74-.75.75.75 0 110 1.5h.01zm-15 0A.76.76 0 0160 .75a.75.75 0 01.74-.75.75.75 0 110 1.5h.01zm-15 0A.76.76 0 0145 .75a.75.75 0 01.74-.75.75.75 0 110 1.5h.01zm-15 0A.76.76 0 0130 .75a.75.75 0 01.74-.75.75.75 0 110 1.5h.01zm-15 0A.76.76 0 0115 .75a.75.75 0 01.74-.75.75.75 0 110 1.5h.01zm210 0a.771.771 0 01-.53-.22.716.716 0 01-.16-.25.676.676 0 01-.06-.28c0-.199.079-.39.22-.53a.78.78 0 01.78-.17c.09.042.171.1.24.17.141.14.22.331.22.53a.863.863 0 01-.05.28.779.779 0 01-.66.47zm-30 45a.759.759 0 01-.75-.75.752.752 0 01.74-.75.748.748 0 01.75.75.749.749 0 01-.75.75h.01zm-150 135a.758.758 0 01-.75-.75.752.752 0 01.74-.75.749.749 0 01.53 1.28.749.749 0 01-.53.22h.01zm0-150a.76.76 0 01-.75-.75.75.75 0 01.74-.75.75.75 0 110 1.5h.01z"/><path opacity=".2" d="M45.75 166.5a.758.758 0 01-.75-.75.752.752 0 01.74-.75.749.749 0 01.53 1.28.749.749 0 01-.53.22h.01z"/><path opacity=".3" d="M195.75 31.5a.759.759 0 01-.75-.75.752.752 0 01.74-.75.748.748 0 01.75.75.749.749 0 01-.75.75h.01z"/><path opacity=".4" d="M150.75 166.5a.757.757 0 01-.527-.223.757.757 0 01-.223-.527c0-.197.078-.386.216-.527a.755.755 0 01.524-.223c.199 0 .39.079.53.22a.747.747 0 010 1.06.747.747 0 01-.53.22h.01z"/><path opacity=".3" d="M45.75 91.5a.76.76 0 01-.75-.75.75.75 0 01.74-.75.75.75 0 110 1.5h.01z"/></g><g clip-path="url(#clip1)" fill="#877CB9"><path d="M237.75 226.49a.736.736 0 01-.53-.21.823.823 0 01-.16-.28.66.66 0 010-.28.708.708 0 010-.29.788.788 0 01.16-.24.792.792 0 011.07 0c.065.072.118.153.16.24a.925.925 0 01.05.29.86.86 0 01-.05.28.71.71 0 01-.16.25.968.968 0 01-.25.16.703.703 0 01-.29.08zm210 .01a.757.757 0 01-.527-.223.757.757 0 01-.223-.527c0-.197.078-.386.216-.527a.755.755 0 01.524-.223c.199 0 .39.079.53.22a.747.747 0 010 1.06.747.747 0 01-.53.22h.01zm-15 0a.757.757 0 01-.527-.223.757.757 0 01-.223-.527c0-.197.078-.386.216-.527a.755.755 0 01.524-.223c.199 0 .39.079.53.22a.747.747 0 010 1.06.747.747 0 01-.53.22h.01zm-15 0a.757.757 0 01-.527-.223.757.757 0 01-.223-.527c0-.197.078-.386.216-.527a.755.755 0 01.524-.223c.199 0 .39.079.53.22a.747.747 0 010 1.06.747.747 0 01-.53.22h.01zm-15 0a.757.757 0 01-.527-.223.757.757 0 01-.223-.527c0-.197.078-.386.216-.527a.755.755 0 01.524-.223c.199 0 .39.079.53.22a.747.747 0 010 1.06.747.747 0 01-.53.22h.01zm-15 0a.757.757 0 01-.527-.223.757.757 0 01-.223-.527c0-.197.078-.386.216-.527a.755.755 0 01.524-.223c.199 0 .39.079.53.22a.747.747 0 010 1.06.747.747 0 01-.53.22h.01zm-15 0a.757.757 0 01-.527-.223.757.757 0 01-.223-.527c0-.197.078-.386.216-.527a.755.755 0 01.524-.223c.199 0 .39.079.53.22a.747.747 0 010 1.06.747.747 0 01-.53.22h.01zm-15 0a.757.757 0 01-.527-.223.757.757 0 01-.223-.527c0-.197.078-.386.216-.527a.755.755 0 01.524-.223c.199 0 .39.079.53.22a.747.747 0 010 1.06.747.747 0 01-.53.22h.01zm-15 0a.757.757 0 01-.527-.223.757.757 0 01-.223-.527c0-.197.078-.386.216-.527a.755.755 0 01.524-.223c.199 0 .39.079.53.22a.747.747 0 010 1.06.747.747 0 01-.53.22h.01zm-15 0a.757.757 0 01-.527-.223.757.757 0 01-.223-.527c0-.197.078-.386.216-.527a.755.755 0 01.524-.223c.199 0 .39.079.53.22a.747.747 0 010 1.06.747.747 0 01-.53.22h.01zm-15 0a.757.757 0 01-.527-.223.757.757 0 01-.223-.527c0-.197.078-.386.216-.527a.755.755 0 01.524-.223c.199 0 .39.079.53.22a.747.747 0 010 1.06.747.747 0 01-.53.22h.01zm-15 0a.757.757 0 01-.527-.223.757.757 0 01-.223-.527c0-.197.078-.386.216-.527a.755.755 0 01.524-.223c.199 0 .39.079.53.22a.747.747 0 010 1.06.747.747 0 01-.53.22h.01zm-15 0a.757.757 0 01-.527-.223.757.757 0 01-.223-.527c0-.197.078-.386.216-.527a.755.755 0 01.524-.223c.199 0 .39.079.53.22a.747.747 0 010 1.06.747.747 0 01-.53.22h.01zm-15 0a.757.757 0 01-.527-.223.757.757 0 01-.223-.527c0-.197.078-.386.216-.527a.755.755 0 01.524-.223c.199 0 .39.079.53.22a.747.747 0 010 1.06.747.747 0 01-.53.22h.01zm-15 0a.757.757 0 01-.527-.223.757.757 0 01-.223-.527c0-.197.078-.386.216-.527a.755.755 0 01.524-.223c.199 0 .39.079.53.22a.747.747 0 010 1.06.747.747 0 01-.53.22h.01zm210-.01a.656.656 0 01-.28-.05.834.834 0 01-.25-.16.77.77 0 01-.22-.53c0-.1.02-.199.06-.29a.76.76 0 011-.41.7.7 0 01.24.17c.071.069.128.15.17.24a.92.92 0 01.05.29.727.727 0 01-.22.53.713.713 0 01-.55.21zM237.76 211.5a.815.815 0 01-.54-.22.743.743 0 01-.21-.53.708.708 0 010-.29.788.788 0 01.16-.24.76.76 0 011.06 0 .724.724 0 01.23.53c0 .097-.02.192-.06.28a.776.776 0 01-.64.47zm209.99 0a.757.757 0 01-.527-.223.757.757 0 01-.223-.527c0-.197.078-.386.216-.527a.755.755 0 01.524-.223c.199 0 .39.079.53.22a.747.747 0 010 1.06.747.747 0 01-.53.22h.01zm-15 0a.757.757 0 01-.527-.223.757.757 0 01-.223-.527c0-.197.078-.386.216-.527a.755.755 0 01.524-.223c.199 0 .39.079.53.22a.747.747 0 010 1.06.747.747 0 01-.53.22h.01zm-15 0a.757.757 0 01-.527-.223.757.757 0 01-.223-.527c0-.197.078-.386.216-.527a.755.755 0 01.524-.223c.199 0 .39.079.53.22a.747.747 0 010 1.06.747.747 0 01-.53.22h.01zm-15 0a.757.757 0 01-.527-.223.757.757 0 01-.223-.527c0-.197.078-.386.216-.527a.755.755 0 01.524-.223c.199 0 .39.079.53.22a.747.747 0 010 1.06.747.747 0 01-.53.22h.01zm-15 0a.757.757 0 01-.527-.223.757.757 0 01-.223-.527c0-.197.078-.386.216-.527a.755.755 0 01.524-.223c.199 0 .39.079.53.22a.747.747 0 010 1.06.747.747 0 01-.53.22h.01zm-15 0a.757.757 0 01-.527-.223.757.757 0 01-.223-.527c0-.197.078-.386.216-.527a.755.755 0 01.524-.223c.199 0 .39.079.53.22a.747.747 0 010 1.06.747.747 0 01-.53.22h.01zm-15 0a.757.757 0 01-.527-.223.757.757 0 01-.223-.527c0-.197.078-.386.216-.527a.755.755 0 01.524-.223c.199 0 .39.079.53.22a.747.747 0 010 1.06.747.747 0 01-.53.22h.01zm-15 0a.757.757 0 01-.527-.223.757.757 0 01-.223-.527c0-.197.078-.386.216-.527a.755.755 0 01.524-.223c.199 0 .39.079.53.22a.747.747 0 010 1.06.747.747 0 01-.53.22h.01zm-15 0a.757.757 0 01-.527-.223.757.757 0 01-.223-.527c0-.197.078-.386.216-.527a.755.755 0 01.524-.223c.199 0 .39.079.53.22a.747.747 0 010 1.06.747.747 0 01-.53.22h.01zm-15 0a.757.757 0 01-.527-.223.757.757 0 01-.223-.527c0-.197.078-.386.216-.527a.755.755 0 01.524-.223c.199 0 .39.079.53.22a.747.747 0 010 1.06.747.747 0 01-.53.22h.01zm-15 0a.757.757 0 01-.527-.223.757.757 0 01-.223-.527c0-.197.078-.386.216-.527a.755.755 0 01.524-.223c.199 0 .39.079.53.22a.747.747 0 010 1.06.747.747 0 01-.53.22h.01zm-15 0a.757.757 0 01-.527-.223.757.757 0 01-.223-.527c0-.197.078-.386.216-.527a.755.755 0 01.524-.223c.199 0 .39.079.53.22a.747.747 0 010 1.06.747.747 0 01-.53.22h.01zm-15 0a.757.757 0 01-.527-.223.757.757 0 01-.223-.527c0-.197.078-.386.216-.527a.755.755 0 01.524-.223c.199 0 .39.079.53.22a.747.747 0 010 1.06.747.747 0 01-.53.22h.01zm-15 0a.757.757 0 01-.527-.223.757.757 0 01-.223-.527c0-.197.078-.386.216-.527a.755.755 0 01.524-.223c.199 0 .39.079.53.22a.747.747 0 010 1.06.747.747 0 01-.53.22h.01zm210 0a.749.749 0 11.53-1.28.825.825 0 01.17.24.93.93 0 01.05.29.717.717 0 01-.22.53.749.749 0 01-.53.22zm-225-15a.711.711 0 01-.28-.06 1.024 1.024 0 01-.25-.16.823.823 0 01-.16-.28.72.72 0 010-.57.776.776 0 01.16-.24.76.76 0 011.06 0c.071.069.128.15.17.24a.92.92 0 01.05.29.865.865 0 01-.05.28.776.776 0 01-.41.41.723.723 0 01-.29.09zm210 0a.757.757 0 01-.527-.223.757.757 0 01-.223-.527c0-.197.078-.386.216-.527a.755.755 0 01.524-.223c.199 0 .39.079.53.22a.747.747 0 010 1.06.747.747 0 01-.53.22h.01zm-15 0a.757.757 0 01-.527-.223.757.757 0 01-.223-.527c0-.197.078-.386.216-.527a.755.755 0 01.524-.223c.199 0 .39.079.53.22a.747.747 0 010 1.06.747.747 0 01-.53.22h.01zm-15 0a.757.757 0 01-.527-.223.757.757 0 01-.223-.527c0-.197.078-.386.216-.527a.755.755 0 01.524-.223c.199 0 .39.079.53.22a.747.747 0 010 1.06.747.747 0 01-.53.22h.01zm-15 0a.757.757 0 01-.527-.223.757.757 0 01-.223-.527c0-.197.078-.386.216-.527a.755.755 0 01.524-.223c.199 0 .39.079.53.22a.747.747 0 010 1.06.747.747 0 01-.53.22h.01zm-15 0a.757.757 0 01-.527-.223.757.757 0 01-.223-.527c0-.197.078-.386.216-.527a.755.755 0 01.524-.223c.199 0 .39.079.53.22a.747.747 0 010 1.06.747.747 0 01-.53.22h.01zm-15 0a.757.757 0 01-.527-.223.757.757 0 01-.223-.527c0-.197.078-.386.216-.527a.755.755 0 01.524-.223c.199 0 .39.079.53.22a.747.747 0 010 1.06.747.747 0 01-.53.22h.01zm-15 0a.757.757 0 01-.527-.223.757.757 0 01-.223-.527c0-.197.078-.386.216-.527a.755.755 0 01.524-.223c.199 0 .39.079.53.22a.747.747 0 010 1.06.747.747 0 01-.53.22h.01zm-15 0a.757.757 0 01-.527-.223.757.757 0 01-.223-.527c0-.197.078-.386.216-.527a.755.755 0 01.524-.223c.199 0 .39.079.53.22a.747.747 0 010 1.06.747.747 0 01-.53.22h.01zm-15 0a.757.757 0 01-.527-.223.757.757 0 01-.223-.527c0-.197.078-.386.216-.527a.755.755 0 01.524-.223c.199 0 .39.079.53.22a.747.747 0 010 1.06.747.747 0 01-.53.22h.01zm-15 0a.757.757 0 01-.527-.223.757.757 0 01-.223-.527c0-.197.078-.386.216-.527a.755.755 0 01.524-.223c.199 0 .39.079.53.22a.747.747 0 010 1.06.747.747 0 01-.53.22h.01zm-15 0a.757.757 0 01-.527-.223.757.757 0 01-.223-.527c0-.197.078-.386.216-.527a.755.755 0 01.524-.223c.199 0 .39.079.53.22a.747.747 0 010 1.06.747.747 0 01-.53.22h.01zm-15 0a.757.757 0 01-.527-.223.757.757 0 01-.223-.527c0-.197.078-.386.216-.527a.755.755 0 01.524-.223c.199 0 .39.079.53.22a.747.747 0 010 1.06.747.747 0 01-.53.22h.01zm-15 0a.757.757 0 01-.527-.223.757.757 0 01-.223-.527c0-.197.078-.386.216-.527a.755.755 0 01.524-.223c.199 0 .39.079.53.22a.747.747 0 010 1.06.747.747 0 01-.53.22h.01zm-15 0a.757.757 0 01-.527-.223.757.757 0 01-.223-.527c0-.197.078-.386.216-.527a.755.755 0 01.524-.223c.199 0 .39.079.53.22a.747.747 0 010 1.06.747.747 0 01-.53.22h.01zm210 0a.77.77 0 01-.53-.22.821.821 0 01-.16-.25.674.674 0 01-.06-.28.76.76 0 01.606-.734.756.756 0 01.674.204.825.825 0 01.17.24.93.93 0 01.05.29.86.86 0 01-.05.28.776.776 0 01-.7.47zm-225-15a.757.757 0 01-.53-.22.743.743 0 01-.21-.53.708.708 0 010-.29.764.764 0 01.16-.24.774.774 0 01.82-.17.7.7 0 01.24.17c.071.069.129.15.17.24a.92.92 0 01.05.29.712.712 0 01-.22.53.794.794 0 01-.48.22zm210 0a.757.757 0 01-.527-.223.757.757 0 01-.223-.527c0-.197.078-.386.216-.527a.755.755 0 01.524-.223c.199 0 .39.079.53.22a.747.747 0 010 1.06.747.747 0 01-.53.22h.01zm-15 0a.757.757 0 01-.527-.223.757.757 0 01-.223-.527c0-.197.078-.386.216-.527a.755.755 0 01.524-.223c.199 0 .39.079.53.22a.747.747 0 010 1.06.747.747 0 01-.53.22h.01zm-15 0a.757.757 0 01-.527-.223.757.757 0 01-.223-.527c0-.197.078-.386.216-.527a.755.755 0 01.524-.223c.199 0 .39.079.53.22a.747.747 0 010 1.06.747.747 0 01-.53.22h.01zm-15 0a.757.757 0 01-.527-.223.757.757 0 01-.223-.527c0-.197.078-.386.216-.527a.755.755 0 01.524-.223c.199 0 .39.079.53.22a.747.747 0 010 1.06.747.747 0 01-.53.22h.01zm-15 0a.757.757 0 01-.527-.223.757.757 0 01-.223-.527c0-.197.078-.386.216-.527a.755.755 0 01.524-.223c.199 0 .39.079.53.22a.747.747 0 010 1.06.747.747 0 01-.53.22h.01zm-15 0a.757.757 0 01-.527-.223.757.757 0 01-.223-.527c0-.197.078-.386.216-.527a.755.755 0 01.524-.223c.199 0 .39.079.53.22a.747.747 0 010 1.06.747.747 0 01-.53.22h.01zm-15 0a.757.757 0 01-.527-.223.757.757 0 01-.223-.527c0-.197.078-.386.216-.527a.755.755 0 01.524-.223c.199 0 .39.079.53.22a.747.747 0 010 1.06.747.747 0 01-.53.22h.01zm-15 0a.757.757 0 01-.527-.223.757.757 0 01-.223-.527c0-.197.078-.386.216-.527a.755.755 0 01.524-.223c.199 0 .39.079.53.22a.747.747 0 010 1.06.747.747 0 01-.53.22h.01zm-15 0a.757.757 0 01-.527-.223.757.757 0 01-.223-.527c0-.197.078-.386.216-.527a.755.755 0 01.524-.223c.199 0 .39.079.53.22a.747.747 0 010 1.06.747.747 0 01-.53.22h.01zm-15 0a.757.757 0 01-.527-.223.757.757 0 01-.223-.527c0-.197.078-.386.216-.527a.755.755 0 01.524-.223c.199 0 .39.079.53.22a.747.747 0 010 1.06.747.747 0 01-.53.22h.01zm-15 0a.757.757 0 01-.527-.223.757.757 0 01-.223-.527c0-.197.078-.386.216-.527a.755.755 0 01.524-.223c.199 0 .39.079.53.22a.747.747 0 010 1.06.747.747 0 01-.53.22h.01zm-30 0a.757.757 0 01-.527-.223.757.757 0 01-.223-.527c0-.197.078-.386.216-.527a.755.755 0 01.524-.223c.199 0 .39.079.53.22a.747.747 0 010 1.06.747.747 0 01-.53.22h.01zm-15 0a.757.757 0 01-.527-.223.757.757 0 01-.223-.527c0-.197.078-.386.216-.527a.755.755 0 01.524-.223c.199 0 .39.079.53.22a.747.747 0 010 1.06.747.747 0 01-.53.22h.01zm210 0a.659.659 0 01-.28-.06.682.682 0 01-.41-.41.674.674 0 01-.06-.28c0-.1.02-.198.06-.29a.788.788 0 01.16-.24.852.852 0 01.25-.17.76.76 0 01.81.17.637.637 0 01.16.24.747.747 0 01-.16.82.747.747 0 01-.53.22zm-225-15a.75.75 0 01-.53-1.28.774.774 0 01.82-.17.7.7 0 01.24.17.72.72 0 01.17.81.75.75 0 01-.17.25.794.794 0 01-.24.16.72.72 0 01-.29.06zm210 0a.757.757 0 01-.527-.223.757.757 0 01-.223-.527c0-.197.078-.386.216-.527a.755.755 0 01.524-.223c.199 0 .39.079.53.22a.747.747 0 010 1.06.747.747 0 01-.53.22h.01zm-15 0a.757.757 0 01-.527-.223.757.757 0 01-.223-.527c0-.197.078-.386.216-.527a.755.755 0 01.524-.223c.199 0 .39.079.53.22a.747.747 0 010 1.06.747.747 0 01-.53.22h.01zm-15 0a.757.757 0 01-.527-.223.757.757 0 01-.223-.527c0-.197.078-.386.216-.527a.755.755 0 01.524-.223c.199 0 .39.079.53.22a.747.747 0 010 1.06.747.747 0 01-.53.22h.01zm-15 0a.757.757 0 01-.527-.223.757.757 0 01-.223-.527c0-.197.078-.386.216-.527a.755.755 0 01.524-.223c.199 0 .39.079.53.22a.747.747 0 010 1.06.747.747 0 01-.53.22h.01zm-30 0a.757.757 0 01-.527-.223.757.757 0 01-.223-.527c0-.197.078-.386.216-.527a.755.755 0 01.524-.223c.199 0 .39.079.53.22a.747.747 0 010 1.06.747.747 0 01-.53.22h.01zm-15 0a.757.757 0 01-.527-.223.757.757 0 01-.223-.527c0-.197.078-.386.216-.527a.755.755 0 01.524-.223c.199 0 .39.079.53.22a.747.747 0 010 1.06.747.747 0 01-.53.22h.01zm-15 0a.757.757 0 01-.527-.223.757.757 0 01-.223-.527c0-.197.078-.386.216-.527a.755.755 0 01.524-.223c.199 0 .39.079.53.22a.747.747 0 010 1.06.747.747 0 01-.53.22h.01zm-15 0a.757.757 0 01-.527-.223.757.757 0 01-.223-.527c0-.197.078-.386.216-.527a.755.755 0 01.524-.223c.199 0 .39.079.53.22a.747.747 0 010 1.06.747.747 0 01-.53.22h.01zm-15 0a.757.757 0 01-.527-.223.757.757 0 01-.223-.527c0-.197.078-.386.216-.527a.755.755 0 01.524-.223c.199 0 .39.079.53.22a.747.747 0 010 1.06.747.747 0 01-.53.22h.01zm-15 0a.757.757 0 01-.527-.223.757.757 0 01-.223-.527c0-.197.078-.386.216-.527a.755.755 0 01.524-.223c.199 0 .39.079.53.22a.747.747 0 010 1.06.747.747 0 01-.53.22h.01zm-30 0a.757.757 0 01-.527-.223.757.757 0 01-.223-.527c0-.197.078-.386.216-.527a.755.755 0 01.524-.223c.199 0 .39.079.53.22a.747.747 0 010 1.06.747.747 0 01-.53.22h.01zm-15 0a.757.757 0 01-.527-.223.757.757 0 01-.223-.527c0-.197.078-.386.216-.527a.755.755 0 01.524-.223c.199 0 .39.079.53.22a.747.747 0 010 1.06.747.747 0 01-.53.22h.01zm210 0a.747.747 0 01-.53-.22.747.747 0 010-1.06.75.75 0 01.25-.17.76.76 0 01.81.17c.141.141.22.331.22.53a.86.86 0 01-.05.28.75.75 0 01-.17.25.749.749 0 01-.53.22zm-224.99-15a.66.66 0 01-.29-.06.797.797 0 01-.25-.16.766.766 0 01-.22-.53c0-.099.02-.198.06-.29a.788.788 0 01.16-.24.791.791 0 011.07 0 .986.986 0 01.16.24.93.93 0 01.05.29.76.76 0 01-.21.53.968.968 0 01-.25.16.694.694 0 01-.28.06zm209.99 0a.757.757 0 01-.527-.223.757.757 0 01-.223-.527c0-.197.078-.386.216-.527a.755.755 0 01.524-.223c.199 0 .39.079.53.22a.747.747 0 010 1.06.747.747 0 01-.53.22h.01zm-15 0a.757.757 0 01-.527-.223.757.757 0 01-.223-.527c0-.197.078-.386.216-.527a.755.755 0 01.524-.223c.199 0 .39.079.53.22a.747.747 0 010 1.06.747.747 0 01-.53.22h.01zm-15 0a.757.757 0 01-.527-.223.757.757 0 01-.223-.527c0-.197.078-.386.216-.527a.755.755 0 01.524-.223c.199 0 .39.079.53.22a.747.747 0 010 1.06.747.747 0 01-.53.22h.01zm-15 0a.757.757 0 01-.527-.223.757.757 0 01-.223-.527c0-.197.078-.386.216-.527a.755.755 0 01.524-.223c.199 0 .39.079.53.22a.747.747 0 010 1.06.747.747 0 01-.53.22h.01zm-15 0a.757.757 0 01-.527-.223.757.757 0 01-.223-.527c0-.197.078-.386.216-.527a.755.755 0 01.524-.223c.199 0 .39.079.53.22a.747.747 0 010 1.06.747.747 0 01-.53.22h.01zm-15 0a.757.757 0 01-.527-.223.757.757 0 01-.223-.527c0-.197.078-.386.216-.527a.755.755 0 01.524-.223c.199 0 .39.079.53.22a.747.747 0 010 1.06.747.747 0 01-.53.22h.01zm-15 0a.757.757 0 01-.527-.223.757.757 0 01-.223-.527c0-.197.078-.386.216-.527a.755.755 0 01.524-.223c.199 0 .39.079.53.22a.747.747 0 010 1.06.747.747 0 01-.53.22h.01zm-15 0a.757.757 0 01-.527-.223.757.757 0 01-.223-.527c0-.197.078-.386.216-.527a.755.755 0 01.524-.223c.199 0 .39.079.53.22a.747.747 0 010 1.06.747.747 0 01-.53.22h.01zm-15 0a.757.757 0 01-.527-.223.757.757 0 01-.223-.527c0-.197.078-.386.216-.527a.755.755 0 01.524-.223c.199 0 .39.079.53.22a.747.747 0 010 1.06.747.747 0 01-.53.22h.01zm-15 0a.757.757 0 01-.527-.223.757.757 0 01-.223-.527c0-.197.078-.386.216-.527a.755.755 0 01.524-.223c.199 0 .39.079.53.22a.747.747 0 010 1.06.747.747 0 01-.53.22h.01zm-15 0a.757.757 0 01-.527-.223.757.757 0 01-.223-.527c0-.197.078-.386.216-.527a.755.755 0 01.524-.223c.199 0 .39.079.53.22a.747.747 0 010 1.06.747.747 0 01-.53.22h.01zm-15 0a.757.757 0 01-.527-.223.757.757 0 01-.223-.527c0-.197.078-.386.216-.527a.755.755 0 01.524-.223c.199 0 .39.079.53.22a.747.747 0 010 1.06.747.747 0 01-.53.22h.01zm-15 0a.757.757 0 01-.527-.223.757.757 0 01-.223-.527c0-.197.078-.386.216-.527a.755.755 0 01.524-.223c.199 0 .39.079.53.22a.747.747 0 010 1.06.747.747 0 01-.53.22h.01zm-15 0a.757.757 0 01-.527-.223.757.757 0 01-.223-.527c0-.197.078-.386.216-.527a.755.755 0 01.524-.223c.199 0 .39.079.53.22a.747.747 0 010 1.06.747.747 0 01-.53.22h.01zm210 0a.659.659 0 01-.28-.06.815.815 0 01-.25-.16.766.766 0 01-.22-.53.76.76 0 01.606-.734.756.756 0 01.674.204.825.825 0 01.17.24.93.93 0 01.05.29.728.728 0 01-.22.53.749.749 0 01-.53.22zm-225-15a.77.77 0 01-.53-.22.823.823 0 01-.16-.28.66.66 0 010-.28.708.708 0 010-.29.776.776 0 01.16-.24.76.76 0 011.06 0c.071.069.128.15.17.24a.92.92 0 01.05.29.865.865 0 01-.05.28.852.852 0 01-.17.25.755.755 0 01-.53.25zm210 0a.757.757 0 01-.527-.223.757.757 0 01-.223-.527c0-.197.078-.386.216-.527a.755.755 0 01.524-.223c.199 0 .39.079.53.22a.747.747 0 010 1.06.747.747 0 01-.53.22h.01zm-15 0a.757.757 0 01-.527-.223.757.757 0 01-.223-.527c0-.197.078-.386.216-.527a.755.755 0 01.524-.223c.199 0 .39.079.53.22a.747.747 0 010 1.06.747.747 0 01-.53.22h.01zm-15 0a.757.757 0 01-.527-.223.757.757 0 01-.223-.527c0-.197.078-.386.216-.527a.755.755 0 01.524-.223c.199 0 .39.079.53.22a.747.747 0 010 1.06.747.747 0 01-.53.22h.01zm-15 0a.757.757 0 01-.527-.223.757.757 0 01-.223-.527c0-.197.078-.386.216-.527a.755.755 0 01.524-.223c.199 0 .39.079.53.22a.747.747 0 010 1.06.747.747 0 01-.53.22h.01zm-15 0a.757.757 0 01-.527-.223.757.757 0 01-.223-.527c0-.197.078-.386.216-.527a.755.755 0 01.524-.223c.199 0 .39.079.53.22a.747.747 0 010 1.06.747.747 0 01-.53.22h.01zm-15 0a.757.757 0 01-.527-.223.757.757 0 01-.223-.527c0-.197.078-.386.216-.527a.755.755 0 01.524-.223c.199 0 .39.079.53.22a.747.747 0 010 1.06.747.747 0 01-.53.22h.01zm-15 0a.757.757 0 01-.527-.223.757.757 0 01-.223-.527c0-.197.078-.386.216-.527a.755.755 0 01.524-.223c.199 0 .39.079.53.22a.747.747 0 010 1.06.747.747 0 01-.53.22h.01zm-15 0a.757.757 0 01-.527-.223.757.757 0 01-.223-.527c0-.197.078-.386.216-.527a.755.755 0 01.524-.223c.199 0 .39.079.53.22a.747.747 0 010 1.06.747.747 0 01-.53.22h.01zm-15 0a.757.757 0 01-.527-.223.757.757 0 01-.223-.527c0-.197.078-.386.216-.527a.755.755 0 01.524-.223c.199 0 .39.079.53.22a.747.747 0 010 1.06.747.747 0 01-.53.22h.01zm-30 0a.757.757 0 01-.527-.223.757.757 0 01-.223-.527c0-.197.078-.386.216-.527a.755.755 0 01.524-.223c.199 0 .39.079.53.22a.747.747 0 010 1.06.747.747 0 01-.53.22h.01zm-15 0a.757.757 0 01-.527-.223.757.757 0 01-.223-.527c0-.197.078-.386.216-.527a.755.755 0 01.524-.223c.199 0 .39.079.53.22a.747.747 0 010 1.06.747.747 0 01-.53.22h.01zm-15 0a.757.757 0 01-.527-.223.757.757 0 01-.223-.527c0-.197.078-.386.216-.527a.755.755 0 01.524-.223c.199 0 .39.079.53.22a.747.747 0 010 1.06.747.747 0 01-.53.22h.01zm-15 0a.757.757 0 01-.527-.223.757.757 0 01-.223-.527c0-.197.078-.386.216-.527a.755.755 0 01.524-.223c.199 0 .39.079.53.22a.747.747 0 010 1.06.747.747 0 01-.53.22h.01z"/><path d="M312.747 136.5h.003-.01.007a.755.755 0 01-.524-.223.757.757 0 01-.223-.527c0-.197.078-.386.216-.527a.755.755 0 01.524-.223c.199 0 .39.079.53.22a.747.747 0 010 1.06.75.75 0 01-.523.22z" fill-opacity=".4"/><path d="M462.75 136.5a.749.749 0 01-.53-1.28.769.769 0 011.06 0 .749.749 0 01-.53 1.28zm-225-15a.77.77 0 01-.53-.22.747.747 0 01-.16-.82.986.986 0 01.16-.24.769.769 0 011.23.24.702.702 0 01.05.29c0 .199-.079.39-.22.53a.732.732 0 01-.53.22zm210 0a.757.757 0 01-.527-.223.757.757 0 01-.223-.527c0-.197.078-.386.216-.527a.755.755 0 01.524-.223c.199 0 .39.079.53.22a.747.747 0 010 1.06.747.747 0 01-.53.22h.01zm-15 0a.757.757 0 01-.527-.223.757.757 0 01-.223-.527c0-.197.078-.386.216-.527a.755.755 0 01.524-.223c.199 0 .39.079.53.22a.747.747 0 010 1.06.747.747 0 01-.53.22h.01zm-15 0a.757.757 0 01-.527-.223.757.757 0 01-.223-.527c0-.197.078-.386.216-.527a.755.755 0 01.524-.223c.199 0 .39.079.53.22a.747.747 0 010 1.06.747.747 0 01-.53.22h.01zm-15 0a.757.757 0 01-.527-.223.757.757 0 01-.223-.527c0-.197.078-.386.216-.527a.755.755 0 01.524-.223c.199 0 .39.079.53.22a.747.747 0 010 1.06.747.747 0 01-.53.22h.01zm-15 0a.757.757 0 01-.527-.223.757.757 0 01-.223-.527c0-.197.078-.386.216-.527a.755.755 0 01.524-.223c.199 0 .39.079.53.22a.747.747 0 010 1.06.747.747 0 01-.53.22h.01zm-15 0a.757.757 0 01-.527-.223.757.757 0 01-.223-.527c0-.197.078-.386.216-.527a.755.755 0 01.524-.223c.199 0 .39.079.53.22a.747.747 0 010 1.06.747.747 0 01-.53.22h.01zm-15 0a.757.757 0 01-.527-.223.757.757 0 01-.223-.527c0-.197.078-.386.216-.527a.755.755 0 01.524-.223c.199 0 .39.079.53.22a.747.747 0 010 1.06.747.747 0 01-.53.22h.01zm-15 0a.757.757 0 01-.527-.223.757.757 0 01-.223-.527c0-.197.078-.386.216-.527a.755.755 0 01.524-.223c.199 0 .39.079.53.22a.747.747 0 010 1.06.747.747 0 01-.53.22h.01zm-15 0a.757.757 0 01-.527-.223.757.757 0 01-.223-.527c0-.197.078-.386.216-.527a.755.755 0 01.524-.223c.199 0 .39.079.53.22a.747.747 0 010 1.06.747.747 0 01-.53.22h.01zm-15 0a.757.757 0 01-.527-.223.757.757 0 01-.223-.527c0-.197.078-.386.216-.527a.755.755 0 01.524-.223c.199 0 .39.079.53.22a.747.747 0 010 1.06.747.747 0 01-.53.22h.01zm-15 0a.757.757 0 01-.527-.223.757.757 0 01-.223-.527c0-.197.078-.386.216-.527a.755.755 0 01.524-.223c.199 0 .39.079.53.22a.747.747 0 010 1.06.747.747 0 01-.53.22h.01zm-15 0a.757.757 0 01-.527-.223.757.757 0 01-.223-.527c0-.197.078-.386.216-.527a.755.755 0 01.524-.223c.199 0 .39.079.53.22a.747.747 0 010 1.06.747.747 0 01-.53.22h.01zm-15 0a.757.757 0 01-.527-.223.757.757 0 01-.223-.527c0-.197.078-.386.216-.527a.755.755 0 01.524-.223c.199 0 .39.079.53.22a.747.747 0 010 1.06.747.747 0 01-.53.22h.01zm-15 0a.757.757 0 01-.527-.223.757.757 0 01-.223-.527c0-.197.078-.386.216-.527a.755.755 0 01.524-.223c.199 0 .39.079.53.22a.747.747 0 010 1.06.747.747 0 01-.53.22h.01zm210 0a.749.749 0 01-.69-1.04.76.76 0 011-.41c.18.086.324.23.41.41a.92.92 0 01.05.29.77.77 0 01-.22.53.776.776 0 01-.55.22zm-225-15a.77.77 0 01-.53-.22.749.749 0 010-1.06.769.769 0 011.06 0 .749.749 0 01-.53 1.28zm210 0a.757.757 0 01-.527-.223.757.757 0 01-.223-.527c0-.197.078-.386.216-.527a.755.755 0 01.524-.223c.199 0 .39.079.53.22a.747.747 0 010 1.06.747.747 0 01-.53.22h.01zm-15 0a.757.757 0 01-.527-.223.757.757 0 01-.223-.527c0-.197.078-.386.216-.527a.755.755 0 01.524-.223c.199 0 .39.079.53.22a.747.747 0 010 1.06.747.747 0 01-.53.22h.01zm-15 0a.757.757 0 01-.527-.223.757.757 0 01-.223-.527c0-.197.078-.386.216-.527a.755.755 0 01.524-.223c.199 0 .39.079.53.22a.747.747 0 010 1.06.747.747 0 01-.53.22h.01zm-15 0a.757.757 0 01-.527-.223.757.757 0 01-.223-.527c0-.197.078-.386.216-.527a.755.755 0 01.524-.223c.199 0 .39.079.53.22a.747.747 0 010 1.06.747.747 0 01-.53.22h.01zm-15 0a.757.757 0 01-.527-.223.757.757 0 01-.223-.527c0-.197.078-.386.216-.527a.755.755 0 01.524-.223c.199 0 .39.079.53.22a.747.747 0 010 1.06.747.747 0 01-.53.22h.01zm-15 0a.757.757 0 01-.527-.223.757.757 0 01-.223-.527c0-.197.078-.386.216-.527a.755.755 0 01.524-.223c.199 0 .39.079.53.22a.747.747 0 010 1.06.747.747 0 01-.53.22h.01zm-15 0a.757.757 0 01-.527-.223.757.757 0 01-.223-.527c0-.197.078-.386.216-.527a.755.755 0 01.524-.223c.199 0 .39.079.53.22a.747.747 0 010 1.06.747.747 0 01-.53.22h.01zm-15 0a.757.757 0 01-.527-.223.757.757 0 01-.223-.527c0-.197.078-.386.216-.527a.755.755 0 01.524-.223c.199 0 .39.079.53.22a.747.747 0 010 1.06.747.747 0 01-.53.22h.01zm-15 0a.757.757 0 01-.527-.223.757.757 0 01-.223-.527c0-.197.078-.386.216-.527a.755.755 0 01.524-.223c.199 0 .39.079.53.22a.747.747 0 010 1.06.747.747 0 01-.53.22h.01zm-15 0a.757.757 0 01-.527-.223.757.757 0 01-.223-.527c0-.197.078-.386.216-.527a.755.755 0 01.524-.223c.199 0 .39.079.53.22a.747.747 0 010 1.06.747.747 0 01-.53.22h.01zm-15 0a.757.757 0 01-.527-.223.757.757 0 01-.223-.527c0-.197.078-.386.216-.527a.755.755 0 01.524-.223c.199 0 .39.079.53.22a.747.747 0 010 1.06.747.747 0 01-.53.22h.01zm-15 0a.757.757 0 01-.527-.223.757.757 0 01-.223-.527c0-.197.078-.386.216-.527a.755.755 0 01.524-.223c.199 0 .39.079.53.22a.747.747 0 010 1.06.747.747 0 01-.53.22h.01zm-15 0a.757.757 0 01-.527-.223.757.757 0 01-.223-.527c0-.197.078-.386.216-.527a.755.755 0 01.524-.223c.199 0 .39.079.53.22a.747.747 0 010 1.06.747.747 0 01-.53.22h.01zm-15 0a.757.757 0 01-.527-.223.757.757 0 01-.223-.527c0-.197.078-.386.216-.527a.755.755 0 01.524-.223c.199 0 .39.079.53.22a.747.747 0 010 1.06.747.747 0 01-.53.22h.01zm210 0a.75.75 0 01-.53-1.28.721.721 0 01.25-.17.712.712 0 01.432-.043.71.71 0 01.378.213c.141.14.22.331.22.53a.865.865 0 01-.05.28.75.75 0 01-.17.25.794.794 0 01-.24.16.738.738 0 01-.29.06zm-225-15a.826.826 0 01-.53-.22.712.712 0 01-.16-.28.676.676 0 01-.06-.25.778.778 0 01.47-.7.752.752 0 01.81.17.723.723 0 01.23.53.779.779 0 01-.23.53.75.75 0 01-.53.22zm210 0a.759.759 0 01-.75-.75.752.752 0 01.74-.75.748.748 0 01.75.75.749.749 0 01-.75.75h.01zm-15 0a.759.759 0 01-.75-.75.752.752 0 01.74-.75.748.748 0 01.75.75.749.749 0 01-.75.75h.01zm-15 0a.759.759 0 01-.75-.75.752.752 0 01.74-.75.748.748 0 01.75.75.749.749 0 01-.75.75h.01zm-15 0a.759.759 0 01-.75-.75.752.752 0 01.74-.75.748.748 0 01.75.75.749.749 0 01-.75.75h.01zm-15 0a.759.759 0 01-.75-.75.752.752 0 01.74-.75.748.748 0 01.75.75.749.749 0 01-.75.75h.01zm-15 0a.759.759 0 01-.75-.75.752.752 0 01.74-.75.748.748 0 01.75.75.749.749 0 01-.75.75h.01zm-15 0a.759.759 0 01-.75-.75.752.752 0 01.74-.75.748.748 0 01.75.75.749.749 0 01-.75.75h.01zm-15 0a.759.759 0 01-.75-.75.752.752 0 01.74-.75.748.748 0 01.75.75.749.749 0 01-.75.75h.01zm-15 0a.759.759 0 01-.75-.75.752.752 0 01.74-.75.748.748 0 01.75.75.749.749 0 01-.75.75h.01zm-15 0a.759.759 0 01-.75-.75.752.752 0 01.74-.75.748.748 0 01.75.75.749.749 0 01-.75.75h.01zm-15 0a.759.759 0 01-.75-.75.752.752 0 01.74-.75.748.748 0 01.75.75.749.749 0 01-.75.75h.01zm-30 0a.759.759 0 01-.75-.75.752.752 0 01.74-.75.748.748 0 01.75.75.749.749 0 01-.75.75h.01zm-15 0a.759.759 0 01-.75-.75.752.752 0 01.74-.75.748.748 0 01.75.75.749.749 0 01-.75.75h.01zm210 0a.771.771 0 01-.53-.22.715.715 0 01-.16-.25.71.71 0 01-.06-.28.748.748 0 01.605-.735.782.782 0 01.435.035c.09.041.171.099.24.17.141.14.22.33.22.53a.92.92 0 01-.05.28.778.778 0 01-.7.47zm-225-15a.748.748 0 01-.53-1.28.852.852 0 01.25-.17.8.8 0 01.57 0 .839.839 0 01.25.17.974.974 0 01.16.24.923.923 0 01.05.29.921.921 0 01-.05.28.89.89 0 01-.16.25 1 1 0 01-.25.16.72.72 0 01-.29.06zm210 0a.759.759 0 01-.75-.75.752.752 0 01.74-.75.748.748 0 01.75.75.749.749 0 01-.75.75h.01zm-15 0a.759.759 0 01-.75-.75.752.752 0 01.74-.75.748.748 0 01.75.75.749.749 0 01-.75.75h.01zm-15 0a.759.759 0 01-.75-.75.752.752 0 01.74-.75.748.748 0 01.75.75.749.749 0 01-.75.75h.01zm-15 0a.759.759 0 01-.75-.75.752.752 0 01.74-.75.748.748 0 01.75.75.749.749 0 01-.75.75h.01zm-15 0a.759.759 0 01-.75-.75.752.752 0 01.74-.75.748.748 0 01.75.75.749.749 0 01-.75.75h.01zm-15 0a.759.759 0 01-.75-.75.752.752 0 01.74-.75.748.748 0 01.75.75.749.749 0 01-.75.75h.01zm-15 0a.759.759 0 01-.75-.75.752.752 0 01.74-.75.748.748 0 01.75.75.749.749 0 01-.75.75h.01zm-15 0a.759.759 0 01-.75-.75.752.752 0 01.74-.75.748.748 0 01.75.75.749.749 0 01-.75.75h.01zm-15 0a.759.759 0 01-.75-.75.752.752 0 01.74-.75.748.748 0 01.75.75.749.749 0 01-.75.75h.01zm-15 0a.759.759 0 01-.75-.75.752.752 0 01.74-.75.748.748 0 01.75.75.749.749 0 01-.75.75h.01zm-15 0a.759.759 0 01-.75-.75.752.752 0 01.74-.75.748.748 0 01.75.75.749.749 0 01-.75.75h.01zm-15 0a.759.759 0 01-.75-.75.752.752 0 01.74-.75.748.748 0 01.75.75.749.749 0 01-.75.75h.01zm-15 0a.759.759 0 01-.75-.75.752.752 0 01.74-.75.748.748 0 01.75.75.749.749 0 01-.75.75h.01zm-15 0a.759.759 0 01-.75-.75.752.752 0 01.74-.75.748.748 0 01.75.75.749.749 0 01-.75.75h.01zm210 0a.748.748 0 01-.69-1.04.759.759 0 011-.41.87.87 0 01.41.41.924.924 0 01.05.29.768.768 0 01-.22.53.778.778 0 01-.55.22zm-225-15a.771.771 0 01-.53-.22.712.712 0 01-.16-.28.676.676 0 01-.06-.25c0-.199.079-.39.22-.53a.78.78 0 01.78-.17c.09.042.171.1.24.17a.72.72 0 01.17.81.778.778 0 01-.66.47zm210 0a.759.759 0 01-.75-.75.752.752 0 01.74-.75.748.748 0 01.75.75.749.749 0 01-.75.75h.01zm-15 0a.759.759 0 01-.75-.75.752.752 0 01.74-.75.748.748 0 01.75.75.749.749 0 01-.75.75h.01zm-15 0a.759.759 0 01-.75-.75.752.752 0 01.74-.75.748.748 0 01.75.75.749.749 0 01-.75.75h.01zm-15 0a.759.759 0 01-.75-.75.752.752 0 01.74-.75.748.748 0 01.75.75.749.749 0 01-.75.75h.01zm-15 0a.759.759 0 01-.75-.75.752.752 0 01.74-.75.748.748 0 01.75.75.749.749 0 01-.75.75h.01zm-15 0a.759.759 0 01-.75-.75.752.752 0 01.74-.75.748.748 0 01.75.75.749.749 0 01-.75.75h.01zm-15 0a.759.759 0 01-.75-.75.752.752 0 01.74-.75.748.748 0 01.75.75.749.749 0 01-.75.75h.01zm-15 0a.759.759 0 01-.75-.75.752.752 0 01.74-.75.748.748 0 01.75.75.749.749 0 01-.75.75h.01zm-15 0a.759.759 0 01-.75-.75.752.752 0 01.74-.75.748.748 0 01.75.75.749.749 0 01-.75.75h.01zm-15 0a.759.759 0 01-.75-.75.752.752 0 01.74-.75.748.748 0 01.75.75.749.749 0 01-.75.75h.01zm-15 0a.759.759 0 01-.75-.75.752.752 0 01.74-.75.748.748 0 01.75.75.749.749 0 01-.75.75h.01zm-15 0a.759.759 0 01-.75-.75.752.752 0 01.74-.75.748.748 0 01.75.75.749.749 0 01-.75.75h.01zm-15 0a.759.759 0 01-.75-.75.752.752 0 01.74-.75.748.748 0 01.75.75.749.749 0 01-.75.75h.01zm-15 0a.759.759 0 01-.75-.75.752.752 0 01.74-.75.748.748 0 01.75.75.749.749 0 01-.75.75h.01zm210 0a.771.771 0 01-.53-.22.827.827 0 01-.22-.53c0-.2.079-.39.22-.53a.743.743 0 01.682-.213.71.71 0 01.378.213c.141.14.22.33.22.53a.921.921 0 01-.05.28.78.78 0 01-.7.47zm-225-15a.824.824 0 01-.53-.22.748.748 0 010-1.06.79.79 0 011.07 0 .976.976 0 01.16.24c.04.092.06.19.06.29a.768.768 0 01-.22.53.79.79 0 01-.54.22zm210 0a.759.759 0 01-.75-.75.752.752 0 01.74-.75.748.748 0 01.75.75.749.749 0 01-.75.75h.01zm-30 0a.759.759 0 01-.75-.75.752.752 0 01.74-.75.748.748 0 01.75.75.749.749 0 01-.75.75h.01zm-15 0a.759.759 0 01-.75-.75.752.752 0 01.74-.75.748.748 0 01.75.75.749.749 0 01-.75.75h.01zm-15 0a.759.759 0 01-.75-.75.752.752 0 01.74-.75.748.748 0 01.75.75.749.749 0 01-.75.75h.01zm-15 0a.759.759 0 01-.75-.75.752.752 0 01.74-.75.748.748 0 01.75.75.749.749 0 01-.75.75h.01zm-15 0a.759.759 0 01-.75-.75.752.752 0 01.74-.75.748.748 0 01.75.75.749.749 0 01-.75.75h.01zm-15 0a.759.759 0 01-.75-.75.752.752 0 01.74-.75.748.748 0 01.75.75.749.749 0 01-.75.75h.01zm-15 0a.759.759 0 01-.75-.75.752.752 0 01.74-.75.748.748 0 01.75.75.749.749 0 01-.75.75h.01zm-15 0a.759.759 0 01-.75-.75.752.752 0 01.74-.75.748.748 0 01.75.75.749.749 0 01-.75.75h.01zm-15 0a.759.759 0 01-.75-.75.752.752 0 01.74-.75.748.748 0 01.75.75.749.749 0 01-.75.75h.01zm-15 0a.759.759 0 01-.75-.75.752.752 0 01.74-.75.748.748 0 01.75.75.749.749 0 01-.75.75h.01zm-15 0a.759.759 0 01-.75-.75.752.752 0 01.74-.75.748.748 0 01.75.75.749.749 0 01-.75.75h.01zm-15 0a.759.759 0 01-.75-.75.752.752 0 01.74-.75.748.748 0 01.75.75.749.749 0 01-.75.75h.01zm210 0a.748.748 0 01-.145-1.485.782.782 0 01.435.035c.09.041.171.099.24.17.141.14.22.33.22.53a.862.862 0 01-.05.28.778.778 0 01-.7.47zm-224.99-15a.72.72 0 01-.29-.06.722.722 0 01-.25-.16.758.758 0 01-.01-1.06.77.77 0 011.06 0 .76.76 0 01.23.53.779.779 0 01-.23.53.73.73 0 01-.51.22zm209.99 0a.759.759 0 01-.75-.75.752.752 0 01.74-.75.748.748 0 01.75.75.749.749 0 01-.75.75h.01zm-30 0a.759.759 0 01-.75-.75.752.752 0 01.74-.75.748.748 0 01.75.75.749.749 0 01-.75.75h.01zm-15 0a.759.759 0 01-.75-.75.752.752 0 01.74-.75.748.748 0 01.75.75.749.749 0 01-.75.75h.01zm-15 0a.759.759 0 01-.75-.75.752.752 0 01.74-.75.748.748 0 01.75.75.749.749 0 01-.75.75h.01zm-15 0a.759.759 0 01-.75-.75.752.752 0 01.74-.75.748.748 0 01.75.75.749.749 0 01-.75.75h.01zm-15 0a.759.759 0 01-.75-.75.752.752 0 01.74-.75.748.748 0 01.75.75.749.749 0 01-.75.75h.01zm-15 0a.759.759 0 01-.75-.75.752.752 0 01.74-.75.748.748 0 01.75.75.749.749 0 01-.75.75h.01zm-15 0a.759.759 0 01-.75-.75.752.752 0 01.74-.75.748.748 0 01.75.75.749.749 0 01-.75.75h.01zm-15 0a.759.759 0 01-.75-.75.752.752 0 01.74-.75.748.748 0 01.75.75.749.749 0 01-.75.75h.01zm-15 0a.759.759 0 01-.75-.75.752.752 0 01.74-.75.748.748 0 01.75.75.749.749 0 01-.75.75h.01zm-45 0a.759.759 0 01-.75-.75.752.752 0 01.74-.75.748.748 0 01.75.75.749.749 0 01-.75.75h.01z"/><path d="M267.747 31.5h.003-.01.007a.757.757 0 01-.747-.75.752.752 0 01.74-.75.748.748 0 01.75.75.749.749 0 01-.743.75z" fill-opacity=".2"/><path d="M462.75 31.5a.748.748 0 01-.69-1.04.759.759 0 011-.41.87.87 0 01.41.41.924.924 0 01.05.29.768.768 0 01-.22.53.778.778 0 01-.55.22zm-225-15a.711.711 0 01-.28-.06.713.713 0 01-.25-.16.748.748 0 010-1.06.77.77 0 011.06 0c.143.14.226.33.23.53a.779.779 0 01-.23.53.75.75 0 01-.53.22zm210 0a.759.759 0 01-.75-.75.752.752 0 01.74-.75.748.748 0 01.75.75.749.749 0 01-.75.75h.01zm-15 0a.759.759 0 01-.75-.75.752.752 0 01.74-.75.748.748 0 01.75.75.749.749 0 01-.75.75h.01zm-15 0a.759.759 0 01-.75-.75.752.752 0 01.74-.75.748.748 0 01.75.75.749.749 0 01-.75.75h.01zm-15 0a.759.759 0 01-.75-.75.752.752 0 01.74-.75.748.748 0 01.75.75.749.749 0 01-.75.75h.01zm-15 0a.759.759 0 01-.75-.75.752.752 0 01.74-.75.748.748 0 01.75.75.749.749 0 01-.75.75h.01zm-15 0a.759.759 0 01-.75-.75.752.752 0 01.74-.75.748.748 0 01.75.75.749.749 0 01-.75.75h.01zm-15 0a.759.759 0 01-.75-.75.752.752 0 01.74-.75.748.748 0 01.75.75.749.749 0 01-.75.75h.01zm-15 0a.759.759 0 01-.75-.75.752.752 0 01.74-.75.748.748 0 01.75.75.749.749 0 01-.75.75h.01zm-15 0a.759.759 0 01-.75-.75.752.752 0 01.74-.75.748.748 0 01.75.75.749.749 0 01-.75.75h.01zm-15 0a.759.759 0 01-.75-.75.752.752 0 01.74-.75.748.748 0 01.75.75.749.749 0 01-.75.75h.01zm-15 0a.759.759 0 01-.75-.75.752.752 0 01.74-.75.748.748 0 01.75.75.749.749 0 01-.75.75h.01zm-15 0a.759.759 0 01-.75-.75.752.752 0 01.74-.75.748.748 0 01.75.75.749.749 0 01-.75.75h.01zm-15 0a.759.759 0 01-.75-.75.752.752 0 01.74-.75.748.748 0 01.75.75.749.749 0 01-.75.75h.01zm-15 0a.759.759 0 01-.75-.75.752.752 0 01.74-.75.748.748 0 01.75.75.749.749 0 01-.75.75h.01zm210 0a.748.748 0 01-.75-.75c0-.2.079-.39.22-.53a.743.743 0 01.682-.213.71.71 0 01.378.213.748.748 0 01-.53 1.28zm-225-15a.826.826 0 01-.53-.22.712.712 0 01-.16-.28.675.675 0 01-.06-.25.777.777 0 01.47-.7.8.8 0 01.53 0c.09.042.171.1.24.17.143.14.226.33.23.53a.68.68 0 01-.02.25.746.746 0 01-.17.25.752.752 0 01-.53.25zm210 0a.759.759 0 01-.75-.75.752.752 0 01.74-.75.748.748 0 01.75.75.749.749 0 01-.75.75h.01zm-15 0a.759.759 0 01-.75-.75.752.752 0 01.74-.75.748.748 0 01.75.75.749.749 0 01-.75.75h.01zm-15 0a.759.759 0 01-.75-.75.752.752 0 01.74-.75.748.748 0 01.75.75.749.749 0 01-.75.75h.01zm-15 0a.759.759 0 01-.75-.75.752.752 0 01.74-.75.748.748 0 01.75.75.749.749 0 01-.75.75h.01zm-15 0a.759.759 0 01-.75-.75.752.752 0 01.74-.75.748.748 0 01.75.75.749.749 0 01-.75.75h.01zm-15 0a.759.759 0 01-.75-.75.752.752 0 01.74-.75.748.748 0 01.75.75.749.749 0 01-.75.75h.01zm-15 0a.759.759 0 01-.75-.75.752.752 0 01.74-.75.748.748 0 01.75.75.749.749 0 01-.75.75h.01zm-15 0a.759.759 0 01-.75-.75.752.752 0 01.74-.75.748.748 0 01.75.75.749.749 0 01-.75.75h.01zm-15 0a.759.759 0 01-.75-.75.752.752 0 01.74-.75.748.748 0 01.75.75.749.749 0 01-.75.75h.01zm-15 0a.759.759 0 01-.75-.75.752.752 0 01.74-.75.748.748 0 01.75.75.749.749 0 01-.75.75h.01zm-15 0a.759.759 0 01-.75-.75.752.752 0 01.74-.75.748.748 0 01.75.75.749.749 0 01-.75.75h.01zm-15 0a.759.759 0 01-.75-.75.752.752 0 01.74-.75.748.748 0 01.75.75.749.749 0 01-.75.75h.01zm-15 0a.759.759 0 01-.75-.75.752.752 0 01.74-.75.748.748 0 01.75.75.749.749 0 01-.75.75h.01zm-15 0a.759.759 0 01-.75-.75.752.752 0 01.74-.75.748.748 0 01.75.75.749.749 0 01-.75.75h.01zm210 0a.771.771 0 01-.53-.22.716.716 0 01-.16-.25.676.676 0 01-.06-.28c0-.199.079-.39.22-.53a.78.78 0 01.78-.17c.09.042.171.1.24.17.141.14.22.331.22.53a.863.863 0 01-.05.28.779.779 0 01-.66.47zm-30 45a.759.759 0 01-.75-.75.752.752 0 01.74-.75.748.748 0 01.75.75.749.749 0 01-.75.75h.01zm-150 135a.757.757 0 01-.527-.223.757.757 0 01-.223-.527c0-.197.078-.386.216-.527a.755.755 0 01.524-.223c.199 0 .39.079.53.22a.747.747 0 010 1.06.747.747 0 01-.53.22h.01zm0-150a.759.759 0 01-.75-.75.752.752 0 01.74-.75.748.748 0 01.75.75.749.749 0 01-.75.75h.01z"/><path opacity=".2" d="M282.75 166.5a.757.757 0 01-.527-.223.757.757 0 01-.223-.527c0-.197.078-.386.216-.527a.755.755 0 01.524-.223c.199 0 .39.079.53.22a.747.747 0 010 1.06.747.747 0 01-.53.22h.01z"/><path opacity=".3" d="M432.75 31.5a.759.759 0 01-.75-.75.752.752 0 01.74-.75.748.748 0 01.75.75.749.749 0 01-.75.75h.01z"/><path opacity=".4" d="M387.75 166.5a.757.757 0 01-.527-.223.757.757 0 01-.223-.527c0-.197.078-.386.216-.527a.755.755 0 01.524-.223c.199 0 .39.079.53.22a.747.747 0 010 1.06.747.747 0 01-.53.22h.01z"/><path opacity=".3" d="M282.75 91.5a.759.759 0 01-.75-.75.752.752 0 01.74-.75.748.748 0 01.75.75.749.749 0 01-.75.75h.01z"/></g><defs><clipPath id="clip0"><path fill="#fff" d="M0 0h226.5v226.49H0z"/></clipPath><clipPath id="clip1"><path fill="#fff" transform="translate(237)" d="M0 0h226.5v226.49H0z"/></clipPath></defs></svg>