<svg viewBox="0 0 108 23" fill="none" xmlns="http://www.w3.org/2000/svg"><path fill-rule="evenodd" clip-rule="evenodd" d="M25.623 8.766c0-2.332 2.374-3.475 4.636-3.475 2.418 0 4.304 1.099 4.792 3.677h-2.085c-.355-1.48-1.642-1.906-2.84-1.906-.954 0-2.351.426-2.351 1.637 0 .964.776 1.435 1.819 1.636l1.508.292c2.152.426 4.193 1.21 4.193 3.7s-2.44 3.766-4.858 3.766c-2.906 0-4.903-1.615-5.147-4.327h2.107c.378 1.681 1.442 2.533 3.15 2.533 1.443 0 2.618-.673 2.618-1.86 0-1.256-1.353-1.682-2.507-1.907l-1.486-.29c-1.952-.36-3.55-1.369-3.55-3.476zm17.857 4.528c0-1.928-.953-3.139-2.307-3.139-1.309 0-2.351 1.032-2.351 3.14 0 2.107 1.02 3.16 2.351 3.16 1.354 0 2.307-1.21 2.307-3.16zm-4.547-3.363c.532-.896 1.486-1.435 2.706-1.435 2.152 0 3.949 1.861 3.949 4.798 0 2.96-1.797 4.82-3.949 4.82-1.22 0-2.152-.538-2.706-1.434v1.21h-2.019V5.515h2.019V9.93zm14.552 2.445c-.045-1.435-1.132-2.31-2.307-2.31-.954 0-2.24.56-2.418 2.31h4.725zm-2.263 4.035c1.043 0 1.886-.426 2.24-1.278h1.975c-.421 1.458-1.775 2.96-4.126 2.96-2.928 0-4.592-2.265-4.592-4.888 0-2.757 1.885-4.73 4.459-4.73 2.795 0 4.525 2.286 4.348 5.38H48.76c.133 1.727 1.309 2.556 2.462 2.556zm9.961-5.695c-1.264 0-1.996.516-1.996 2.354v4.82h-2.019V8.698h1.974v1.637c.488-1.032 1.376-1.637 2.463-1.66.155 0 .377.023.532.046v2.04c-.333-.023-.643-.045-.954-.045zm7.498 7.377c-3.571 0-5.657-2.579-5.657-6.457 0-3.901 2.219-6.367 5.768-6.367 2.729 0 4.659 1.569 5.147 4.327h-2.063c-.377-1.682-1.575-2.556-3.15-2.556-1.953 0-3.483 1.614-3.483 4.596 0 3.004 1.508 4.685 3.46 4.685 1.664 0 2.84-.874 3.217-2.555h2.063c-.51 2.757-2.484 4.327-5.302 4.327z" fill="#000"/><mask id="a" maskUnits="userSpaceOnUse" x="0" y="0" width="108" height="23"><path fill-rule="evenodd" clip-rule="evenodd" d="M0 22.42h107.88V.985H0V22.42z" fill="#fff"/></mask><g mask="url(#a)" fill-rule="evenodd" clip-rule="evenodd"><path d="M75.691 17.89h2.02V5.515h-2.02V17.89zm10.537-4.595c0-2.108-1.13-3.161-2.395-3.161s-2.418 1.053-2.418 3.16c0 2.108 1.131 3.14 2.395 3.14s2.418-1.01 2.418-3.14zm-2.395 4.798c-2.219 0-4.481-1.48-4.481-4.798s2.262-4.82 4.48-4.82c2.22 0 4.482 1.502 4.482 4.82s-2.285 4.798-4.481 4.798zm9.05-.001c-2.15 0-3.038-1.435-3.038-3.61V8.698h2.019v5.291c0 1.256.177 2.466 1.663 2.466 1.487 0 2.041-1.188 2.041-2.847v-4.91h2.019v9.192h-2.019v-1.255c-.532.941-1.464 1.457-2.684 1.457zm8.431-4.798c0 1.95.953 3.161 2.307 3.161 1.308 0 2.351-1.03 2.351-3.16 0-2.108-1.02-3.14-2.351-3.14-1.354 0-2.307 1.211-2.307 3.14zm6.566-7.78V17.89h-2.019v-1.21c-.532.896-1.486 1.434-2.706 1.434-2.152 0-3.949-1.86-3.949-4.82 0-2.937 1.797-4.798 3.949-4.798 1.22 0 2.152.539 2.706 1.435V5.515h2.019z" fill="#000"/><path d="M8.097 6.77h1.708V5.044H8.097V6.77zm0 4.081h1.708V9.125H8.097v1.726z" fill="#03CE7E"/><path d="M8.097 12.577h1.708V10.85H8.097v1.726zm0-4.08h1.708V6.77H8.097v1.726zm0-5.784h1.708V.986H8.097v1.727zm-4.06 2.892h1.73V3.88H4.06v1.726h-.022zm0 4.035h1.73V7.914H4.06V9.64h-.022zm0 1.75h1.73V9.662H4.06v1.726h-.022zM0 8.496h1.708V6.77H0v1.726zm0 4.08h1.708V10.85H0v1.726zm12.135-6.972h1.708V3.88h-1.708v1.726zm0 4.035h1.708V7.914h-1.708V9.64zm0 1.75h1.708V9.662h-1.708v1.726zm4.06-2.893h1.707V6.77h-1.708v1.726zM8.096 18.36h1.708v-1.726H8.097v1.726z" fill="#03CE7E"/><path d="M8.097 14.281h1.708v-1.726H8.097v1.726zm0 2.354h1.708V14.91H8.097v1.726zm0 5.785h1.708v-1.727H8.097v1.727zm4.038-2.893h1.708v-1.726h-1.708v1.726zm0-4.035h1.708v-1.726h-1.708v1.726zm0-1.727h1.708V12.04h-1.708v1.726zm4.06 2.87h1.707V14.91h-1.708v1.726zM4.036 19.527h1.73v-1.726H4.06v1.726h-.022zm0-4.035h1.73v-1.726H4.06v1.726h-.022zm0-1.727h1.73V12.04H4.06v1.726h-.022zM0 16.635h1.708V14.91H0v1.726zm16.194-4.058h1.708V10.85h-1.708v1.726z" fill="#03CE7E"/></g></svg>